<svg id="Layer_1" data-name="Layer 1" xmlns="http://www.w3.org/2000/svg" viewBox="0 0 184.5 319.62"><defs><style>.cls-1{fill:#dd8f35;}.cls-2{fill:#b56223;}.cls-3{fill:#ecc58e;}</style></defs><path class="cls-1" d="M184.5,159.81A184.37,184.37,0,0,1,95.07,318c-.93.57-1.87,1.12-2.82,1.67q-4.43-2.56-8.69-5.35,2.06-1.53,4.06-3.13A184.12,184.12,0,0,0,157.5,166.56,183.94,183.94,0,0,0,101.1,33.79a183.45,183.45,0,0,1,19.55-13.56A184,184,0,0,1,184.5,159.81Z"/><path class="cls-2" d="M31.22,178.37a183.94,183.94,0,0,0,56.4,132.77q-2,1.61-4.06,3.13A184.63,184.63,0,0,1,92.25,0a184.88,184.88,0,0,1,28.4,20.23A184.71,184.71,0,0,0,31.22,178.37Z"/><path class="cls-3" d="M157.5,166.56A184.12,184.12,0,0,1,87.62,311.14,184.49,184.49,0,0,1,101.1,33.79,183.94,183.94,0,0,1,157.5,166.56Z"/></svg>