<svg width="78" height="77" viewBox="0 0 78 77" fill="none" xmlns="http://www.w3.org/2000/svg">
<rect y="39" width="78" height="38" fill="#F2BF45" fill-opacity="0.5"/>
<path d="M28.6542 50V14.95H13.3042V22.1H19.7542V50H28.6542ZM51.8097 14.6C41.9597 14.6 35.6097 21.85 35.6097 33C35.6097 43.75 41.3097 50.4 50.7097 50.4C58.6097 50.4 63.8097 45.7 63.8097 38.3C63.8097 31.5 59.4097 27 52.5097 27C48.6097 27 45.8097 28.4 44.1597 30.75C44.0597 25 46.7597 21.45 52.3597 21.45C55.0597 21.45 57.7097 22.25 59.7097 23.7L63.1097 17.5C60.1597 15.7 55.7097 14.6 51.8097 14.6ZM50.5097 33.5C53.7097 33.5 55.5597 35.25 55.5597 38.25C55.5597 41.5 53.5597 43.3 50.3597 43.3C46.7597 43.3 45.1097 41 45.1097 38.4C45.1097 35.55 47.0597 33.5 50.5097 33.5Z" fill="black"/>
<path d="M11.7236 61.496C10.5616 61.496 9.66565 61.972 9.11965 62.84V58.612H7.50965V69H9.11965V67.712C9.66565 68.58 10.5616 69.056 11.7516 69.056C13.8796 69.056 15.2796 67.53 15.2796 65.304C15.2796 63.036 13.8376 61.496 11.7236 61.496ZM11.3876 67.684C10.0576 67.684 9.11965 66.69 9.11965 65.248C9.11965 63.848 10.0576 62.84 11.3876 62.84C12.7176 62.84 13.6556 63.862 13.6556 65.248C13.6556 66.676 12.7176 67.684 11.3876 67.684ZM21.1018 61.496C18.7918 61.496 17.2098 63.022 17.2098 65.276C17.2098 67.516 18.7918 69.056 21.1018 69.056C23.3978 69.056 24.9798 67.516 24.9798 65.276C24.9798 63.022 23.3978 61.496 21.1018 61.496ZM21.1018 62.882C22.4318 62.882 23.3698 63.862 23.3698 65.29C23.3698 66.732 22.4318 67.712 21.1018 67.712C19.7578 67.712 18.8198 66.732 18.8198 65.29C18.8198 63.862 19.7578 62.882 21.1018 62.882ZM34.7124 58.612H33.1024V62.84C32.5564 61.972 31.6604 61.482 30.4564 61.482C28.3564 61.482 26.9144 63.008 26.9144 65.248C26.9144 67.516 28.3424 69.07 30.4844 69.07C31.6744 69.07 32.5704 68.594 33.1024 67.726V69H34.7124V58.612ZM30.8204 67.726C29.4624 67.726 28.5384 66.718 28.5244 65.304C28.5384 63.876 29.4764 62.854 30.8204 62.854C32.1644 62.854 33.1024 63.862 33.1024 65.304C33.1024 66.718 32.1644 67.726 30.8204 67.726ZM41.1779 61.496C38.9659 61.51 37.4119 63.036 37.4119 65.29C37.4119 67.53 38.9239 69.056 41.2199 69.056C42.5079 69.056 43.5719 68.594 44.2999 67.796L43.4459 66.886C42.8999 67.446 42.1579 67.754 41.3459 67.754C40.1699 67.754 39.2879 67.04 39.0359 65.892H44.6639C44.8599 63.204 43.7959 61.496 41.1779 61.496ZM39.0079 64.716C39.1899 63.526 40.0159 62.784 41.1919 62.784C42.4099 62.784 43.2079 63.512 43.2639 64.716H39.0079ZM54.0169 61.552H52.4209V62.756C51.9029 61.944 51.0489 61.482 49.9009 61.496C47.9269 61.51 46.5969 62.938 46.5969 65.038C46.5969 67.18 47.9409 68.636 49.9569 68.636C51.0769 68.636 51.9169 68.188 52.4209 67.376V68.314C52.4209 69.602 51.4969 70.428 50.0829 70.428C49.1729 70.428 48.4449 70.134 47.7449 69.616L47.0589 70.778C47.9689 71.394 48.9909 71.758 50.1529 71.758C52.4909 71.758 54.0169 70.414 54.0169 68.272V61.552ZM50.2789 67.376C48.9909 67.376 48.1229 66.424 48.1089 65.08C48.1229 63.75 49.0049 62.798 50.2789 62.798C51.5389 62.798 52.4209 63.736 52.4209 65.08C52.4209 66.424 51.5389 67.376 50.2789 67.376ZM61.6725 69H63.2545L63.2405 64.114C63.2265 62.476 62.1485 61.496 60.2305 61.496C58.8165 61.496 58.0605 61.818 57.0245 62.434L57.6825 63.554C58.4245 63.05 59.1665 62.798 59.8805 62.798C61.0565 62.798 61.6585 63.358 61.6585 64.296V64.52H59.4045C57.6125 64.534 56.5905 65.402 56.5905 66.76C56.5905 68.076 57.5985 69.07 59.2085 69.07C60.2865 69.07 61.1405 68.748 61.6725 68.09V69ZM59.5445 67.796C58.6485 67.796 58.1025 67.362 58.1025 66.69C58.1025 65.976 58.5925 65.696 59.6425 65.696H61.6585V66.382C61.5745 67.194 60.6925 67.796 59.5445 67.796ZM68.5902 61.482C67.1622 61.482 65.8462 62.126 65.8462 63.638C65.8322 66.326 69.7522 65.472 69.7522 66.998C69.7522 67.558 69.2202 67.796 68.5342 67.796C67.7222 67.796 66.6862 67.446 66.0422 66.872L65.4682 68.02C66.2102 68.692 67.3722 69.056 68.4642 69.056C69.9622 69.056 71.3202 68.37 71.3202 66.844C71.3342 64.142 67.3722 64.884 67.3722 63.512C67.3722 62.98 67.8342 62.77 68.4642 62.77C69.1222 62.77 69.9482 63.022 70.6062 63.428L71.1942 62.238C70.5222 61.762 69.5282 61.482 68.5902 61.482Z" fill="black"/>
</svg>
