<svg id="Layer_1" data-name="Layer 1" xmlns="http://www.w3.org/2000/svg" viewBox="0 0 184.5 319.63"><defs><style>.cls-1{fill:#fff8c1;}.cls-2{fill:#febd01;}.cls-3{fill:#ff7d03;}</style></defs><path class="cls-1" d="M181.28,155.77A178.29,178.29,0,0,0,175.63,115c-.59-2.27-1.22-4.51-1.9-6.74a177.35,177.35,0,0,0-21.54-46.06c-1.37-2.1-2.8-4.17-4.26-6.2A179.22,179.22,0,0,0,99.05,9.64Q95.7,7.5,92.25,5.5C90,6.83,87.69,8.2,85.46,9.64a179.08,179.08,0,0,0-48.89,46.3q-2.19,3-4.25,6.2A177.05,177.05,0,0,0,10.77,108.2q-1,3.35-1.9,6.75a178.29,178.29,0,0,0-5.65,40.82c0,1.35,0,2.69,0,4,0,.92,0,1.83,0,2.75a177.93,177.93,0,0,0,5.39,41q.86,3.42,1.86,6.78a176.87,176.87,0,0,0,21.47,46.54c1.36,2.12,2.78,4.19,4.25,6.23A179,179,0,0,0,85.46,310c2.23,1.44,4.49,2.81,6.79,4.14q3.45-2,6.8-4.14a179,179,0,0,0,49.29-46.89c1.46-2,2.88-4.11,4.24-6.23h0a176.43,176.43,0,0,0,21.48-46.54q1-3.36,1.85-6.78a177.92,177.92,0,0,0,5.39-41c0-.92,0-1.83,0-2.75C181.32,158.46,181.31,157.12,181.28,155.77Zm-18.63,48A152.68,152.68,0,0,1,144.57,243c-1.37,2.11-2.79,4.2-4.25,6.23a154.58,154.58,0,0,1-41.27,39.43q-3.33,2.17-6.8,4.17c-2.3-1.33-4.57-2.72-6.79-4.17a154.27,154.27,0,0,1-41.27-39.43c-1.46-2-2.88-4.12-4.25-6.23a152.68,152.68,0,0,1-18.08-39.25q-1-3.34-1.85-6.77a153.4,153.4,0,0,1-4.5-34.4c0-.92,0-1.83,0-2.75,0-1.35,0-2.69,0-4a153.73,153.73,0,0,1,4.75-34.23c.58-2.27,1.22-4.51,1.91-6.75A152.42,152.42,0,0,1,40.34,76c1.36-2.11,2.79-4.18,4.26-6.2A153.71,153.71,0,0,1,85.46,31c2.22-1.45,4.49-2.84,6.79-4.17q3.47,2,6.8,4.17a153.87,153.87,0,0,1,40.86,38.85c1.47,2,2.9,4.09,4.26,6.2a152.76,152.76,0,0,1,18.14,38.75c.69,2.24,1.33,4.48,1.9,6.75A153.15,153.15,0,0,1,169,155.77c0,1.35.05,2.69.05,4,0,.92,0,1.83,0,2.75a152.83,152.83,0,0,1-4.51,34.4Q163.65,200.38,162.65,203.73Z"/><path class="cls-2" d="M82.65,168.75,38.08,245.94A157.88,157.88,0,0,1,19.35,205.3Z"/><path class="cls-3" d="M184.45,155.63a184.64,184.64,0,0,0-5.85-42.28c-.61-2.35-1.26-4.67-2-7a183.32,183.32,0,0,0-22.3-47.7c-1.42-2.18-2.9-4.32-4.42-6.42a185.43,185.43,0,0,0-50.62-48q-3.47-2.22-7-4.29c-2.38,1.38-4.72,2.8-7,4.29a185.28,185.28,0,0,0-50.63,48q-2.28,3.15-4.41,6.42a183,183,0,0,0-22.31,47.7c-.71,2.31-1.36,4.64-2,7A184.64,184.64,0,0,0,.05,155.63c0,1.39,0,2.78,0,4.18q0,1.42,0,2.85a183.81,183.81,0,0,0,5.58,42.45q.88,3.54,1.92,7a183.46,183.46,0,0,0,22.24,48.2q2.11,3.29,4.4,6.45a185.34,185.34,0,0,0,51.05,48.56c2.31,1.49,4.65,2.91,7,4.29q3.57-2.07,7-4.29a185.34,185.34,0,0,0,51.05-48.56c1.51-2.11,3-4.26,4.39-6.45h0A183,183,0,0,0,177,212.12q1-3.48,1.91-7a183.79,183.79,0,0,0,5.58-42.44q0-1.42,0-2.85C184.5,158.41,184.48,157,184.45,155.63Zm-3.15,6.93a177.92,177.92,0,0,1-5.39,41q-.85,3.42-1.85,6.78a176.43,176.43,0,0,1-21.48,46.54h0c-1.36,2.12-2.78,4.19-4.24,6.23A179,179,0,0,1,99.05,310q-3.35,2.14-6.8,4.14c-2.3-1.33-4.56-2.7-6.79-4.14A179,179,0,0,1,36.17,263.1c-1.47-2-2.89-4.11-4.25-6.23a176.87,176.87,0,0,1-21.47-46.54q-1-3.36-1.86-6.78a177.93,177.93,0,0,1-5.39-41c0-.92,0-1.83,0-2.75,0-1.35,0-2.69,0-4A178.29,178.29,0,0,1,8.87,115q.89-3.4,1.9-6.75A177.05,177.05,0,0,1,32.32,62.14q2.05-3.15,4.25-6.2A179.08,179.08,0,0,1,85.46,9.64C87.69,8.2,90,6.83,92.25,5.5q3.45,2,6.8,4.14A179.22,179.22,0,0,1,147.93,56c1.46,2,2.89,4.1,4.26,6.2a177.35,177.35,0,0,1,21.54,46.06c.68,2.23,1.31,4.47,1.9,6.74a178.29,178.29,0,0,1,5.65,40.82c0,1.35,0,2.69,0,4C181.32,160.73,181.32,161.64,181.3,162.56Z"/><path class="cls-2" d="M142,252.4a159.88,159.88,0,0,1-42.74,40.83V178.36Z"/><path class="cls-2" d="M165.16,205.3a157.88,157.88,0,0,1-18.73,40.64l-44.57-77.19Z"/><path class="cls-2" d="M171.74,162.66a158.84,158.84,0,0,1-4.67,35.62l-61.69-35.62Z"/><path class="cls-2" d="M171.7,155.63H105.38l61.4-35.45A158.59,158.59,0,0,1,171.7,155.63Z"/><path class="cls-2" d="M164.81,113.19l-62.95,36.35L146,73.05A158.11,158.11,0,0,1,164.81,113.19Z"/><path class="cls-2" d="M141.61,66.63l-42.32,73.3V26.4A159.51,159.51,0,0,1,141.61,66.63Z"/><path class="cls-2" d="M85.22,26.4V139.93L42.9,66.63A159.35,159.35,0,0,1,85.22,26.4Z"/><path class="cls-2" d="M82.65,149.54,19.7,113.19A157.77,157.77,0,0,1,38.49,73.05Z"/><path class="cls-2" d="M79.13,155.63H12.81a158.59,158.59,0,0,1,4.92-35.45Z"/><path class="cls-2" d="M79.13,162.66,17.44,198.28a158.84,158.84,0,0,1-4.67-35.62Z"/><path class="cls-2" d="M85.22,178.36V293.23A159.57,159.57,0,0,1,42.48,252.4Z"/><path class="cls-1" d="M171.74,162.66H105.38l61.69,35.62q-.87,3.56-1.91,7l-63.3-36.55,44.57,77.19c-1.41,2.19-2.88,4.35-4.4,6.46l-42.74-74V293.23q-3.45,2.25-7,4.32c-2.38-1.38-4.73-2.82-7-4.32V178.36l-42.74,74c-1.52-2.11-3-4.27-4.4-6.46l44.57-77.19L19.35,205.3q-1-3.47-1.91-7l61.69-35.62H12.77c0-.95,0-1.9,0-2.85,0-1.4,0-2.79.06-4.18H79.13l-61.4-35.45q.9-3.53,2-7l63,36.35L38.49,73.05c1.41-2.18,2.89-4.32,4.41-6.42l42.32,73.3V26.4c2.3-1.5,4.65-2.94,7-4.32q3.59,2.07,7,4.32V139.93l42.32-73.3c1.52,2.1,3,4.24,4.41,6.42l-44.16,76.49,63-36.35q1.06,3.47,2,7l-61.4,35.45H171.7c0,1.39.06,2.78.06,4.18C171.76,160.76,171.75,161.71,171.74,162.66Z"/></svg>