<svg id="Layer_1" data-name="Layer 1" xmlns="http://www.w3.org/2000/svg" viewBox="0 0 184.5 319.62"><defs><style>.cls-1{fill:#c5b9a9;opacity:0.5;}.cls-2{fill:#dd8f35;}.cls-3{fill:#ede1d1;}.cls-4{fill:#f4eddd;}.cls-5{fill:#dfcfb8;}</style></defs><path class="cls-1" d="M80.88,292.32a124.4,124.4,0,0,0,63-17,185.14,185.14,0,0,1-51.63,44.32A185,185,0,0,1,53,289.19,125.12,125.12,0,0,0,80.88,292.32Z"/><path class="cls-1" d="M2.66,128.42a74.72,74.72,0,0,1,20.56,40.77A74.94,74.94,0,0,1,.11,153.52,183.34,183.34,0,0,1,2.66,128.42Z"/><path class="cls-2" d="M52.37,110.46a74.22,74.22,0,0,1,8,13.41A122.2,122.2,0,0,0,52.37,110.46Z"/><path class="cls-1" d="M128,100v.32a74.59,74.59,0,0,1-11.6,40.08A124.26,124.26,0,0,0,92.47,80.59q2.2.28,4.38.69c.56.1,1.11.2,1.66.32s1.16.24,1.74.38,1.32.3,2,.46,1.53.39,2.28.61,1.6.46,2.4.7l2.13.7c.4.13.79.27,1.18.42l1.31.47.68.26c.58.22,1.16.45,1.73.69q2.79,1.11,5.46,2.45c.62.29,1.23.6,1.83.92A74.81,74.81,0,0,1,128,100Z"/><path class="cls-1" d="M162.77,72.88A125.17,125.17,0,0,0,52.22,45.63q-4.39-2.43-9-4.48A184.24,184.24,0,0,1,73.13,12.72c.3-.24.6-.47.91-.68,0,0,0,0,.06,0A180.73,180.73,0,0,1,92.25,0,185.37,185.37,0,0,1,162.77,72.88Z"/><path class="cls-3" d="M116.38,140.41c-.7,1.11-1.43,2.2-2.2,3.27a75.05,75.05,0,0,1-40.33,28.71,124.12,124.12,0,0,0-13.49-48.52,74.22,74.22,0,0,0-8-13.41l-.07-.09a125,125,0,0,0-15.58-18.6A124.64,124.64,0,0,0,19.34,77.51,183.28,183.28,0,0,1,35.69,50.74q3.16-4.31,6.56-8.42l1-1.17q4.61,2.06,9,4.48a125.53,125.53,0,0,1,40.25,35A124.26,124.26,0,0,1,116.38,140.41Z"/><path class="cls-4" d="M137,135.65A75,75,0,0,1,1,179.36a185.67,185.67,0,0,1-1-19.55c0-2.11,0-4.21.11-6.29A75,75,0,0,0,128,100.33V100A74.62,74.62,0,0,1,137,135.65Z"/><path class="cls-3" d="M168.38,167.32A87.5,87.5,0,0,1,9.21,217.52,182.56,182.56,0,0,1,1,179.36a75,75,0,1,0,120.19-89.7A87.48,87.48,0,0,1,168.38,167.32Z"/><path class="cls-5" d="M73.85,172.39a75.33,75.33,0,0,1-50.63-3.2A74.72,74.72,0,0,0,2.66,128.42l.09-.53A182.63,182.63,0,0,1,19.34,77.51,124.64,124.64,0,0,1,36.72,91.77,124.61,124.61,0,0,1,73.85,172.39Z"/><path class="cls-5" d="M184.5,159.81A183.63,183.63,0,0,1,143.88,275.3,125.34,125.34,0,0,1,53,289.19a183.09,183.09,0,0,1-15.13-17.43c-.4-.52-.8-1-1.19-1.57a183.46,183.46,0,0,1-23.84-42.71q-.87-2.16-1.66-4.35c-.68-1.85-1.33-3.73-1.95-5.61,1,1.37,2,2.72,3,4,1.32,1.66,2.69,3.28,4.12,4.84a87.61,87.61,0,0,0,36.8,23.94A86.2,86.2,0,0,0,69,254,87.51,87.51,0,0,0,121.22,89.66c-.6-.32-1.21-.63-1.83-.92q-2.67-1.33-5.46-2.45c-.57-.25-1.15-.47-1.73-.69l-.68-.26c-.43-.17-.87-.33-1.31-.47s-.78-.29-1.18-.42l-2.13-.7c-.8-.24-1.59-.48-2.4-.7s-1.51-.42-2.28-.61-1.31-.32-2-.46-1.16-.26-1.74-.38-1.1-.22-1.66-.32q-2.17-.41-4.38-.69a125.53,125.53,0,0,0-40.25-35A125.17,125.17,0,0,1,162.77,72.88,183.57,183.57,0,0,1,184.5,159.81Z"/><path class="cls-4" d="M154.53,112.37a75.14,75.14,0,0,1-40.35,31.31c-.72.24-1.45.46-2.18.67A124.12,124.12,0,0,0,98.51,95.83a74.22,74.22,0,0,0-8-13.41l-.07-.09a125,125,0,0,0-15.58-18.6c-5.34-5.26-26.4-17.18-32.62-21.41l1-1.17A184.24,184.24,0,0,1,73.13,12.72,2.72,2.72,0,0,0,74,12l0-.06h0c3.08,1.37,13.34,4,16.27,5.6a125.53,125.53,0,0,1,40.25,35l.06.09A124.23,124.23,0,0,1,154.53,112.37Z"/></svg>