<svg width="78" height="77" viewBox="0 0 78 77" fill="none" xmlns="http://www.w3.org/2000/svg">
<rect y="39" width="78" height="38" fill="#A7C05F" fill-opacity="0.6"/>
<path d="M33.6 22.05V15H10.65V34.75C12.8 34.6 18.35 34.5 20.15 34.5C23.6 34.5 25.6 36.1 25.6 38.85C25.6 41.85 23.6 43.55 20.15 43.55C17 43.55 13.85 42.05 11.25 39.25L7.7 46C11.35 48.6 16.6 50.35 21.2 50.35C29.65 50.35 35.15 45.6 35.15 38.25C35.15 32 29.9 27.7 21.9 27.7H18.75V22.05H33.6ZM54.9863 14.6C45.1363 14.6 38.7863 21.85 38.7863 33C38.7863 43.75 44.4863 50.4 53.8863 50.4C61.7863 50.4 66.9863 45.7 66.9863 38.3C66.9863 31.5 62.5863 27 55.6863 27C51.7863 27 48.9863 28.4 47.3363 30.75C47.2363 25 49.9363 21.45 55.5363 21.45C58.2363 21.45 60.8863 22.25 62.8863 23.7L66.2863 17.5C63.3363 15.7 58.8863 14.6 54.9863 14.6ZM53.6863 33.5C56.8863 33.5 58.7363 35.25 58.7363 38.25C58.7363 41.5 56.7363 43.3 53.5363 43.3C49.9363 43.3 48.2863 41 48.2863 38.4C48.2863 35.55 50.2363 33.5 53.6863 33.5Z" fill="black"/>
<path d="M15.2036 69V58.612H13.5936V69H15.2036ZM21.7991 61.496C19.4891 61.496 17.9071 63.022 17.9071 65.276C17.9071 67.516 19.4891 69.056 21.7991 69.056C24.0951 69.056 25.6771 67.516 25.6771 65.276C25.6771 63.022 24.0951 61.496 21.7991 61.496ZM21.7991 62.882C23.1291 62.882 24.0671 63.862 24.0671 65.29C24.0671 66.732 23.1291 67.712 21.7991 67.712C20.4551 67.712 19.5171 66.732 19.5171 65.29C19.5171 63.862 20.4551 62.882 21.7991 62.882ZM31.3636 61.496C29.1516 61.496 27.6116 63.036 27.6116 65.29C27.6116 67.53 29.1516 69.056 31.3636 69.056C32.7776 69.056 33.8556 68.552 34.5276 67.67L33.6316 66.774C33.1276 67.362 32.3716 67.67 31.4336 67.67C30.1456 67.67 29.2216 66.704 29.2216 65.29C29.2216 63.876 30.1456 62.91 31.4336 62.91C32.3296 62.896 33.0436 63.218 33.5616 63.75L34.4436 62.714C33.7576 61.93 32.7076 61.496 31.3636 61.496ZM41.3201 69H42.9021L42.8881 64.114C42.8741 62.476 41.7961 61.496 39.8781 61.496C38.4641 61.496 37.7081 61.818 36.6721 62.434L37.3301 63.554C38.0721 63.05 38.8141 62.798 39.5281 62.798C40.7041 62.798 41.3061 63.358 41.3061 64.296V64.52H39.0521C37.2601 64.534 36.2381 65.402 36.2381 66.76C36.2381 68.076 37.2461 69.07 38.8561 69.07C39.9341 69.07 40.7881 68.748 41.3201 68.09V69ZM39.1921 67.796C38.2961 67.796 37.7501 67.362 37.7501 66.69C37.7501 65.976 38.2401 65.696 39.2901 65.696H41.3061V66.382C41.2221 67.194 40.3401 67.796 39.1921 67.796ZM47.6917 69V58.612H46.0817V69H47.6917ZM54.1612 61.496C51.9492 61.51 50.3952 63.036 50.3952 65.29C50.3952 67.53 51.9072 69.056 54.2032 69.056C55.4912 69.056 56.5552 68.594 57.2832 67.796L56.4292 66.886C55.8832 67.446 55.1412 67.754 54.3292 67.754C53.1532 67.754 52.2712 67.04 52.0192 65.892H57.6472C57.8432 63.204 56.7792 61.496 54.1612 61.496ZM51.9912 64.716C52.1732 63.526 52.9992 62.784 54.1752 62.784C55.3932 62.784 56.1912 63.512 56.2472 64.716H51.9912ZM62.5062 61.482C61.0782 61.482 59.7622 62.126 59.7622 63.638C59.7482 66.326 63.6682 65.472 63.6682 66.998C63.6682 67.558 63.1362 67.796 62.4502 67.796C61.6382 67.796 60.6022 67.446 59.9582 66.872L59.3842 68.02C60.1262 68.692 61.2882 69.056 62.3802 69.056C63.8782 69.056 65.2362 68.37 65.2362 66.844C65.2502 64.142 61.2882 64.884 61.2882 63.512C61.2882 62.98 61.7502 62.77 62.3802 62.77C63.0382 62.77 63.8642 63.022 64.5222 63.428L65.1102 62.238C64.4382 61.762 63.4442 61.482 62.5062 61.482Z" fill="black"/>
</svg>
