<svg width="78" height="77" viewBox="0 0 78 77" fill="none" xmlns="http://www.w3.org/2000/svg">
<rect y="39" width="78" height="38" fill="#B0075A" fill-opacity="0.5"/>
<path d="M26.0814 14.7C16.0814 14.7 10.5314 21.05 10.5314 32.45C10.5314 43.9 16.0814 50.25 26.0814 50.25C35.9814 50.25 41.5314 43.9 41.5314 32.45C41.5314 21.05 35.9814 14.7 26.0814 14.7ZM26.0814 21.2C30.4814 21.2 32.4314 24.45 32.4314 32.45C32.4314 40.45 30.4814 43.75 26.0814 43.75C21.5814 43.75 19.6814 40.45 19.6814 32.45C19.6814 24.45 21.5814 21.2 26.0814 21.2ZM59.6377 29.2L68.3877 20.1V15.05H45.2877V21.85H58.0377L50.2377 29.95V34.7H55.8377C59.3377 34.7 61.2877 36.15 61.2877 39.1C61.2877 41.95 59.3877 43.65 55.8877 43.65C52.7377 43.65 49.7377 42.2 47.1377 39.4L43.5377 46.15C46.7377 48.7 51.7877 50.4 56.5877 50.4C64.7377 50.4 69.9877 45.7 69.9877 39C69.9877 33.6 66.3877 30.25 61.2877 29.45L59.6377 29.2Z" fill="black"/>
<path d="M24.8667 61.496C23.7047 61.496 22.8087 61.972 22.2627 62.84V61.552H20.6527V71.716H22.2627V67.712C22.8087 68.58 23.7047 69.056 24.8947 69.056C27.0227 69.056 28.4227 67.53 28.4227 65.304C28.4227 63.036 26.9807 61.496 24.8667 61.496ZM24.5307 67.684C23.2007 67.684 22.2627 66.69 22.2627 65.248C22.2627 63.848 23.2007 62.84 24.5307 62.84C25.8607 62.84 26.7987 63.862 26.7987 65.248C26.7987 66.676 25.8607 67.684 24.5307 67.684ZM31.8508 58.444C31.3188 58.444 30.9128 58.85 30.9128 59.424C30.9128 59.984 31.3188 60.39 31.8508 60.39C32.3828 60.39 32.7888 59.984 32.7888 59.424C32.7888 58.85 32.3828 58.444 31.8508 58.444ZM32.6488 69V61.552H31.0528V69H32.6488ZM38.2119 61.482C36.7839 61.482 35.4679 62.126 35.4679 63.638C35.4539 66.326 39.3739 65.472 39.3739 66.998C39.3739 67.558 38.8419 67.796 38.1559 67.796C37.3439 67.796 36.3079 67.446 35.6639 66.872L35.0899 68.02C35.8319 68.692 36.9939 69.056 38.0859 69.056C39.5839 69.056 40.9419 68.37 40.9419 66.844C40.9559 64.142 36.9939 64.884 36.9939 63.512C36.9939 62.98 37.4559 62.77 38.0859 62.77C38.7439 62.77 39.5699 63.022 40.2279 63.428L40.8159 62.238C40.1439 61.762 39.1499 61.482 38.2119 61.482ZM46.7086 61.496C44.3986 61.496 42.8166 63.022 42.8166 65.276C42.8166 67.516 44.3986 69.056 46.7086 69.056C49.0046 69.056 50.5866 67.516 50.5866 65.276C50.5866 63.022 49.0046 61.496 46.7086 61.496ZM46.7086 62.882C48.0386 62.882 48.9766 63.862 48.9766 65.29C48.9766 66.732 48.0386 67.712 46.7086 67.712C45.3646 67.712 44.4266 66.732 44.4266 65.29C44.4266 63.862 45.3646 62.882 46.7086 62.882ZM55.4472 61.482C54.0192 61.482 52.7032 62.126 52.7032 63.638C52.6892 66.326 56.6092 65.472 56.6092 66.998C56.6092 67.558 56.0772 67.796 55.3912 67.796C54.5792 67.796 53.5432 67.446 52.8992 66.872L52.3252 68.02C53.0672 68.692 54.2292 69.056 55.3212 69.056C56.8192 69.056 58.1772 68.37 58.1772 66.844C58.1912 64.142 54.2292 64.884 54.2292 63.512C54.2292 62.98 54.6912 62.77 55.3212 62.77C55.9792 62.77 56.8052 63.022 57.4632 63.428L58.0512 62.238C57.3792 61.762 56.3852 61.482 55.4472 61.482Z" fill="black"/>
</svg>
