<svg id="Layer_1" data-name="Layer 1" xmlns="http://www.w3.org/2000/svg" viewBox="0 0 184.5 319.63"><defs><style>.cls-1{fill:#c86d24;}.cls-2{fill:#d99236;}.cls-3{fill:#854a22;}</style></defs><path class="cls-1" d="M102.08,313.53q-4.81,3.2-9.83,6.1A184.56,184.56,0,0,1,92.25,0Q100,4.46,107.19,9.63a184.52,184.52,0,0,0-5.11,303.9Z"/><path class="cls-2" d="M184.5,159.81a184.36,184.36,0,0,1-82.42,153.72,184.52,184.52,0,0,1,5.11-303.9A184.24,184.24,0,0,1,184.5,159.81Z"/><path class="cls-3" d="M66,28.76C54.43,38.43,45.41,50.82,38.86,64.32A154.07,154.07,0,0,0,25.4,110c-2.56,17.89-2.75,36-2.16,54,.56,17,1.54,34,4,50.75,2.44,16.5,6.48,32.8,13.23,48.09.84,1.91,1.73,3.79,2.65,5.66s3.44.21,2.59-1.52C38.44,252.22,34,236.28,31.15,220.12c-2.85-16.4-4-33.05-4.66-49.67-.74-17.65-.95-35.39,1-53C29.17,101.55,32.72,85.7,39.1,71c5.86-13.54,14-26.18,24.78-36.35q2-1.94,4.19-3.73c1.48-1.24-.65-3.36-2.12-2.12Z"/><path class="cls-3" d="M77.11,291.91a103.06,103.06,0,0,1-22.2-35.62c-5.35-14.61-7-30.16-7.28-45.63-.14-8.89.16-17.77.48-26.65l-3,.4c3.08,16.36,6.39,32.7,11,48.7,4.52,15.73,10.29,31.2,18.28,45.51A145.87,145.87,0,0,0,90,301.33c1.24,1.48,3.36-.65,2.12-2.12-10.37-12.35-18.34-26.58-24.42-41.49-6.19-15.18-10.58-31-14.18-47-2-9-3.8-18-5.51-27.09-.32-1.72-2.89-1.23-2.94.39-.57,16.06-1.12,32.21,1,48.18a111.67,111.67,0,0,0,14.18,42.4A106.63,106.63,0,0,0,75,294c1.33,1.4,3.45-.73,2.12-2.12Z"/><path class="cls-3" d="M43.39,158.84c-2.46-19.87.74-39.94,7.19-58.78C57.1,81,67,63.28,77.82,46.36,84,36.78,90.43,27.41,96.91,18.05c1.1-1.6-1.5-3.1-2.59-1.52C82.7,33.32,71.05,50.17,61.41,68.2c-9.53,17.83-17.08,36.92-20.24,57a121,121,0,0,0-.78,33.68c.24,1.89,3.24,1.91,3,0Z"/><path class="cls-3" d="M104.63,19.15c7.08,10.43,10.51,22.88,14.45,34.72,4.24,12.74,8.4,25.51,12.12,38.41,7.37,25.58,13,51.83,13.74,78.53A185.61,185.61,0,0,1,141,215.6c-.41,1.88,2.48,2.68,2.9.79,5.77-26.43,4.95-53.8.56-80.38-4.44-26.81-12.53-52.84-21-78.59-2.3-6.93-4.52-13.89-7-20.75a84.82,84.82,0,0,0-9.19-19c-1.08-1.59-3.68-.09-2.59,1.51Z"/><path class="cls-3" d="M148.08,81.31c8.54,11.21,10.72,25.51,11.72,39.19,1.09,14.95,1.68,30,1.41,45s-1.58,30.2-5,44.92a136.51,136.51,0,0,1-17,41.52c-8,12.87-17.77,24.47-27.69,35.86l-3.8,4.35c-1.26,1.45.85,3.58,2.12,2.12,10.17-11.62,20.38-23.3,29-36.17a140.14,140.14,0,0,0,19-41.59c3.94-14.74,5.68-30,6.24-45.22.57-15.43-.05-30.89-1-46.29-.83-13.92-2.21-28.62-9.49-40.87a44.9,44.9,0,0,0-2.93-4.32c-1.15-1.52-3.76,0-2.59,1.51Z"/><path class="cls-3" d="M97.29,275c3.64-30.36,6.91-60.8,7.58-91.39s-1-61.38-3.51-92C100,74.38,98.27,57.19,96.59,40c-.18-1.91-3.19-1.93-3,0,3,30.56,6,61.15,7.46,91.83a698.51,698.51,0,0,1-1.36,91.84c-1.41,17.13-3.35,34.21-5.4,51.27-.23,1.91,2.77,1.9,3,0Z"/><path class="cls-3" d="M110.5,264.28c-.16-4.29,2.09-8,4.38-11.44a63.35,63.35,0,0,0,6.48-11.56c3.42-8.59,4.3-17.95,5.16-27.08.18-1.92-2.82-1.91-3,0-.87,9.15-1.75,18.57-5.4,27.11-1.74,4.1-4.34,7.63-6.71,11.37-2.22,3.51-4.07,7.35-3.91,11.6.07,1.93,3.07,1.94,3,0Z"/><path class="cls-3" d="M121.59,196.14c-1.93-8-1-16.27.4-24.27,1.45-8.16,3.09-16.25,4.19-24.47,2.22-16.64,3.07-33.42,3.68-50.19.16-4.52.37-9,.44-13.57,0-4.12-.3-8.28-2.28-12-.91-1.7-3.5-.18-2.59,1.52,1.73,3.21,1.92,6.88,1.87,10.45-.06,4-.25,8.07-.39,12.1-.29,8.31-.64,16.62-1.17,24.92s-1.26,16.57-2.31,24.81-2.66,16.45-4.16,24.66c-1.62,8.85-2.71,17.94-.58,26.81.46,1.88,3.35,1.08,2.9-.8Z"/><path class="cls-3" d="M69.45,57.28c.32,5.72-1.12,11.23-2.84,16.63s-3.51,10.73-5,16.19a205.56,205.56,0,0,0-6.23,33.38,169.78,169.78,0,0,0-.12,33.66A179.81,179.81,0,0,0,62,190.47c3.63,12.24,8.19,24.19,12.74,36.11.68,1.79,3.59,1,2.89-.79-8.06-21.13-16.27-42.57-19-65.16-2.71-22.25-.52-44.89,5-66.55,1.56-6.08,3.46-12,5.41-18s3.74-12.33,3.38-18.78c-.1-1.92-3.11-1.93-3,0Z"/><path class="cls-3" d="M83.25,115.85a277.67,277.67,0,0,0-2.19,28.38c-.2,8.53.38,17.18,4,25.05.8,1.76,3.38.24,2.59-1.51-3.46-7.63-3.75-16.2-3.52-24.43.27-9.19,1-18.37,2.17-27.49.24-1.91-2.76-1.89-3,0Z"/></svg>