<svg width="78" height="77" viewBox="0 0 78 77" fill="none" xmlns="http://www.w3.org/2000/svg">
<rect y="39" width="78" height="38" fill="#FD5F08" fill-opacity="0.5"/>
<path d="M29.7191 14.7C19.7191 14.7 14.1691 21.05 14.1691 32.45C14.1691 43.9 19.7191 50.25 29.7191 50.25C39.6191 50.25 45.1691 43.9 45.1691 32.45C45.1691 21.05 39.6191 14.7 29.7191 14.7ZM29.7191 21.2C34.1191 21.2 36.0691 24.45 36.0691 32.45C36.0691 40.45 34.1191 43.75 29.7191 43.75C25.2191 43.75 23.3191 40.45 23.3191 32.45C23.3191 24.45 25.2191 21.2 29.7191 21.2ZM62.9754 50V14.95H47.6254V22.1H54.0754V50H62.9754Z" fill="black"/>
<path d="M17.024 67.292C16.59 67.502 16.24 67.614 15.904 67.614C15.4 67.614 15.106 67.376 15.106 66.606V63.036H17.304V61.832H15.106V59.788H13.51V61.832H12.46V63.036H13.51V66.9C13.51 68.426 14.476 69.07 15.596 69.07C16.226 69.07 16.842 68.874 17.43 68.524L17.024 67.292ZM22.8557 61.496C20.6437 61.51 19.0897 63.036 19.0897 65.29C19.0897 67.53 20.6017 69.056 22.8977 69.056C24.1857 69.056 25.2497 68.594 25.9777 67.796L25.1237 66.886C24.5777 67.446 23.8357 67.754 23.0237 67.754C21.8477 67.754 20.9657 67.04 20.7137 65.892H26.3417C26.5377 63.204 25.4737 61.496 22.8557 61.496ZM20.6857 64.716C20.8677 63.526 21.6937 62.784 22.8697 62.784C24.0877 62.784 24.8857 63.512 24.9417 64.716H20.6857ZM30.5847 61.552H28.9747V69H30.5847V65.108C30.7107 63.834 31.6627 62.952 33.1607 63.036V61.496C31.9847 61.496 31.0887 62.028 30.5847 63.036V61.552ZM37.049 61.552H35.439V69H37.049V65.108C37.175 63.834 38.127 62.952 39.625 63.036V61.496C38.449 61.496 37.553 62.028 37.049 63.036V61.552ZM46.0686 69H47.6506L47.6366 64.114C47.6226 62.476 46.5446 61.496 44.6266 61.496C43.2126 61.496 42.4566 61.818 41.4206 62.434L42.0786 63.554C42.8206 63.05 43.5626 62.798 44.2766 62.798C45.4526 62.798 46.0546 63.358 46.0546 64.296V64.52H43.8006C42.0086 64.534 40.9866 65.402 40.9866 66.76C40.9866 68.076 41.9946 69.07 43.6046 69.07C44.6826 69.07 45.5366 68.748 46.0686 68.09V69ZM43.9406 67.796C43.0446 67.796 42.4986 67.362 42.4986 66.69C42.4986 65.976 42.9886 65.696 44.0386 65.696H46.0546V66.382C45.9706 67.194 45.0886 67.796 43.9406 67.796ZM56.3075 62.644V61.566L50.1895 61.552V62.868H54.3195L50.0635 67.908V69L56.4335 69.014V67.698L52.0515 67.684L56.3075 62.644ZM63.4269 69H65.0089L64.9949 64.114C64.9809 62.476 63.9029 61.496 61.9849 61.496C60.5709 61.496 59.8149 61.818 58.7789 62.434L59.4369 63.554C60.1789 63.05 60.9209 62.798 61.6349 62.798C62.8109 62.798 63.4129 63.358 63.4129 64.296V64.52H61.1589C59.3669 64.534 58.3449 65.402 58.3449 66.76C58.3449 68.076 59.3529 69.07 60.9629 69.07C62.0409 69.07 62.8949 68.748 63.4269 68.09V69ZM61.2989 67.796C60.4029 67.796 59.8569 67.362 59.8569 66.69C59.8569 65.976 60.3469 65.696 61.3969 65.696H63.4129V66.382C63.3289 67.194 62.4469 67.796 61.2989 67.796Z" fill="black"/>
</svg>
