<svg id="Layer_1" data-name="Layer 1" xmlns="http://www.w3.org/2000/svg" viewBox="0 0 184.5 319.63"><defs><style>.cls-1{fill:#dd8f35;}.cls-2{fill:#c6dae1;}.cls-3{fill:#eec35c;}.cls-4{fill:#f2f2f2;}.cls-5{fill:#e6e6e6;}</style></defs><path class="cls-1" d="M171.69,113.55H12.82A171.82,171.82,0,0,1,92.25,11.25,171.88,171.88,0,0,1,171.69,113.55Z"/><path class="cls-2" d="M184.5,159.81A184.44,184.44,0,0,1,92.25,319.63a184.79,184.79,0,0,1-87.16-203c.24-1,.5-2,.76-3.06h7c-.63,2.26-1.22,4.55-1.76,6.85a171.75,171.75,0,0,0,81.19,188A171.74,171.74,0,0,0,173.6,121q-.87-3.78-1.91-7.49h7A184.64,184.64,0,0,1,184.5,159.81Z"/><path class="cls-3" d="M178,159.81A171.44,171.44,0,0,1,92.25,308.38,171.75,171.75,0,0,1,12.82,113.55H171.69A171.32,171.32,0,0,1,178,159.81Z"/><path class="cls-4" d="M178.65,113.55H5.85A181.74,181.74,0,0,1,16.33,83.83q3-6.57,6.42-12.84A185.17,185.17,0,0,1,47.67,36q3-3.3,6.13-6.44A183.88,183.88,0,0,1,71,14.37q2-1.56,4-3.08A185,185,0,0,1,92.25,0a184.11,184.11,0,0,1,16.42,10.7l.49.36A185.08,185.08,0,0,1,138.53,38l1,1.1a184.31,184.31,0,0,1,18.71,25.79q2.91,4.83,5.53,9.85a182.91,182.91,0,0,1,14.1,35.82h0C178.12,111.53,178.39,112.54,178.65,113.55Z"/><circle class="cls-4" cx="42.73" cy="125.18" r="2.67"/><circle class="cls-4" cx="44.7" cy="158.4" r="2.67"/><circle class="cls-4" cx="21.77" cy="141.86" r="4.36"/><circle class="cls-4" cx="26.13" cy="178.61" r="4.36"/><circle class="cls-4" cx="51.87" cy="190.05" r="6.19"/><circle class="cls-4" cx="34.71" cy="219.54" r="8.58"/><circle class="cls-5" cx="93.74" cy="103.06" r="25.88"/><path class="cls-5" d="M47.65,96.84a25.73,25.73,0,0,1-6.13,16.71,5,5,0,0,1-.43.5,25.87,25.87,0,0,1-30,6.35,25.28,25.28,0,0,1-6-3.79c.24-1,.5-2,.76-3.06A181.74,181.74,0,0,1,16.33,83.83q3-6.57,6.42-12.84A25.84,25.84,0,0,1,47.64,96.56,2.62,2.62,0,0,1,47.65,96.84Z"/><path class="cls-5" d="M99.4,37.13a25.63,25.63,0,0,1-5.52,16,25.77,25.77,0,0,1-16.15,9.56,25.45,25.45,0,0,1-4.21.35c-.55,0-1.1,0-1.64,0A25.88,25.88,0,0,1,49.36,46.38a25.59,25.59,0,0,1-1.71-9.25c0-.37,0-.73,0-1.09q3-3.3,6.13-6.44A183.88,183.88,0,0,1,71,14.37q2-1.56,4-3.08a25.74,25.74,0,0,1,11.47,3.44h0a25.93,25.93,0,0,1,6.89,5.83,25.55,25.55,0,0,1,4.49,7.82A25.87,25.87,0,0,1,99.4,37.13Z"/><path class="cls-5" d="M158.21,64.85a19.2,19.2,0,0,1-3.74,5.33c-.35.35-.72.69-1.1,1a19,19,0,0,1-16.85,4,18.67,18.67,0,0,1-7-3.33,18.92,18.92,0,0,1-7.06-11,18.47,18.47,0,0,1-.45-4.1,19.2,19.2,0,0,1,.76-5.34A19,19,0,0,1,138.53,38l1,1.1A184.31,184.31,0,0,1,158.21,64.85Z"/><circle class="cls-5" cx="54.54" cy="100.65" r="18.98"/><path class="cls-5" d="M108.68,11.14v.11a18.8,18.8,0,0,1-2.33,9.11A19,19,0,0,1,89.7,30.23q-.53,0-1,0A19,19,0,0,1,71,14.37q2-1.56,4-3.08A185,185,0,0,1,92.25,0a184.11,184.11,0,0,1,16.42,10.7C108.68,10.85,108.68,11,108.68,11.14Z"/><path class="cls-4" d="M177.84,110.52h0c-.23,1-.5,2-.82,3a34.44,34.44,0,0,1-63.17,5.78,33.21,33.21,0,0,1-2.45-5.78c-.13-.37-.24-.75-.34-1.12a34.47,34.47,0,0,1,18.49-40.54,33.2,33.2,0,0,1,5.9-2.14,34.57,34.57,0,0,1,16.94-.15c.7.17,1.4.36,2.08.58a34,34,0,0,1,9.27,4.52A182.91,182.91,0,0,1,177.84,110.52Z"/><path class="cls-4" d="M77.73,62.4v.25a34.22,34.22,0,0,1-9.21,23.18c-.31.35-.64.68-1,1a34.26,34.26,0,0,1-19.91,9.72,33,33,0,0,1-4.35.28,34.7,34.7,0,0,1-7.18-.75A34.6,34.6,0,0,1,16.33,83.83q3-6.57,6.42-12.84A185.17,185.17,0,0,1,47.67,36q3-3.3,6.13-6.44A33.93,33.93,0,0,1,62,33.49,34.41,34.41,0,0,1,77.73,62.4Z"/><path class="cls-4" d="M139.5,39.06A25.9,25.9,0,0,1,129,57.4a25.34,25.34,0,0,1-6.54,3.48,25.87,25.87,0,0,1-28.61-7.79A25.33,25.33,0,0,1,90,46.92a25.91,25.91,0,0,1,18.64-35.78l.48-.08A185.08,185.08,0,0,1,138.53,38Z"/><circle class="cls-4" cx="102.3" cy="79.11" r="34.44"/></svg>