<svg id="Layer_1" data-name="Layer 1" xmlns="http://www.w3.org/2000/svg" viewBox="0 0 184.5 319.63"><defs><style>.cls-1{fill:#416e13;}.cls-2{fill:#eef38e;}.cls-3{fill:#cd620b;}</style></defs><path class="cls-1" d="M92.26,0a184.55,184.55,0,0,0,0,319.63A184.45,184.45,0,0,0,184.5,159.81,184.42,184.42,0,0,0,92.26,0Zm0,308.91a172.17,172.17,0,0,1,0-298.19,172.18,172.18,0,0,1,0,298.19Z"/><path class="cls-2" d="M178.32,159.81a172.05,172.05,0,0,1-86.06,149.1,172.17,172.17,0,0,1,0-298.19A172,172,0,0,1,178.32,159.81Z"/><circle class="cls-3" cx="92.26" cy="159.81" r="47.53"/></svg>