<svg width="167" height="34" viewBox="0 0 167 34" fill="none" xmlns="http://www.w3.org/2000/svg">
<rect y="12" width="167" height="22" fill="#E5BD43" fill-opacity="0.6"/>
<path d="M11.96 15.76H4.96L3.58 19H0.9L7.2 5H9.76L16.08 19H13.36L11.96 15.76ZM11.1 13.72L8.46 7.6L5.84 13.72H11.1ZM32.0841 19L32.0641 9.72L27.4641 17.4H26.3041L21.7041 9.84V19H19.2241V5H21.3641L26.9241 14.28L32.3841 5H34.5241L34.5441 19H32.0841ZM50.1893 16.82V19H39.6893V5H49.9093V7.18H42.2893V10.82H49.0493V12.96H42.2893V16.82H50.1893ZM66.8914 5V19H64.7514L57.0314 9.52V19H54.4514V5H56.5914L64.3114 14.48V5H66.8914ZM72.0064 5H74.6064V19H72.0064V5ZM79.7568 5H85.8768C87.3701 5 88.6968 5.29333 89.8568 5.88C91.0168 6.45333 91.9168 7.27333 92.5568 8.34C93.1968 9.39333 93.5168 10.6133 93.5168 12C93.5168 13.3867 93.1968 14.6133 92.5568 15.68C91.9168 16.7333 91.0168 17.5533 89.8568 18.14C88.6968 18.7133 87.3701 19 85.8768 19H79.7568V5ZM85.7568 16.8C86.7834 16.8 87.6834 16.6067 88.4568 16.22C89.2434 15.82 89.8434 15.26 90.2568 14.54C90.6834 13.8067 90.8968 12.96 90.8968 12C90.8968 11.04 90.6834 10.2 90.2568 9.48C89.8434 8.74667 89.2434 8.18667 88.4568 7.8C87.6834 7.4 86.7834 7.2 85.7568 7.2H82.3568V16.8H85.7568ZM106.529 15.76H99.5285L98.1485 19H95.4685L101.769 5H104.329L110.649 19H107.929L106.529 15.76ZM105.669 13.72L103.029 7.6L100.409 13.72H105.669ZM113.793 5H119.913C121.406 5 122.733 5.29333 123.893 5.88C125.053 6.45333 125.953 7.27333 126.593 8.34C127.233 9.39333 127.553 10.6133 127.553 12C127.553 13.3867 127.233 14.6133 126.593 15.68C125.953 16.7333 125.053 17.5533 123.893 18.14C122.733 18.7133 121.406 19 119.913 19H113.793V5ZM119.793 16.8C120.819 16.8 121.719 16.6067 122.493 16.22C123.279 15.82 123.879 15.26 124.293 14.54C124.719 13.8067 124.933 12.96 124.933 12C124.933 11.04 124.719 10.2 124.293 9.48C123.879 8.74667 123.279 8.18667 122.493 7.8C121.719 7.4 120.819 7.2 119.793 7.2H116.393V16.8H119.793ZM142.18 16.82V19H131.68V5H141.9V7.18H134.28V10.82H141.04V12.96H134.28V16.82H142.18ZM150.782 19.2C149.702 19.2 148.655 19.0467 147.642 18.74C146.642 18.4333 145.848 18.0267 145.262 17.52L146.162 15.5C146.735 15.9533 147.435 16.3267 148.262 16.62C149.102 16.9 149.942 17.04 150.782 17.04C151.822 17.04 152.595 16.8733 153.102 16.54C153.622 16.2067 153.882 15.7667 153.882 15.22C153.882 14.82 153.735 14.4933 153.442 14.24C153.162 13.9733 152.802 13.7667 152.362 13.62C151.922 13.4733 151.322 13.3067 150.562 13.12C149.495 12.8667 148.628 12.6133 147.962 12.36C147.308 12.1067 146.742 11.7133 146.262 11.18C145.795 10.6333 145.562 9.9 145.562 8.98C145.562 8.20667 145.768 7.50667 146.182 6.88C146.608 6.24 147.242 5.73333 148.082 5.36C148.935 4.98667 149.975 4.8 151.202 4.8C152.055 4.8 152.895 4.90667 153.722 5.12C154.548 5.33333 155.262 5.64 155.862 6.04L155.042 8.06C154.428 7.7 153.788 7.42667 153.122 7.24C152.455 7.05333 151.808 6.96 151.182 6.96C150.155 6.96 149.388 7.13333 148.882 7.48C148.388 7.82667 148.142 8.28667 148.142 8.86C148.142 9.26 148.282 9.58667 148.562 9.84C148.855 10.0933 149.222 10.2933 149.662 10.44C150.102 10.5867 150.702 10.7533 151.462 10.94C152.502 11.18 153.355 11.4333 154.022 11.7C154.688 11.9533 155.255 12.3467 155.722 12.88C156.202 13.4133 156.442 14.1333 156.442 15.04C156.442 15.8133 156.228 16.5133 155.802 17.14C155.388 17.7667 154.755 18.2667 153.902 18.64C153.048 19.0133 152.008 19.2 150.782 19.2Z" fill="black"/>
<rect y="12" width="167" height="22" fill="#E5BD43" fill-opacity="0.6"/>
<path d="M11.96 15.76H4.96L3.58 19H0.9L7.2 5H9.76L16.08 19H13.36L11.96 15.76ZM11.1 13.72L8.46 7.6L5.84 13.72H11.1ZM32.0841 19L32.0641 9.72L27.4641 17.4H26.3041L21.7041 9.84V19H19.2241V5H21.3641L26.9241 14.28L32.3841 5H34.5241L34.5441 19H32.0841ZM50.1893 16.82V19H39.6893V5H49.9093V7.18H42.2893V10.82H49.0493V12.96H42.2893V16.82H50.1893ZM66.8914 5V19H64.7514L57.0314 9.52V19H54.4514V5H56.5914L64.3114 14.48V5H66.8914ZM72.0064 5H74.6064V19H72.0064V5ZM79.7568 5H85.8768C87.3701 5 88.6968 5.29333 89.8568 5.88C91.0168 6.45333 91.9168 7.27333 92.5568 8.34C93.1968 9.39333 93.5168 10.6133 93.5168 12C93.5168 13.3867 93.1968 14.6133 92.5568 15.68C91.9168 16.7333 91.0168 17.5533 89.8568 18.14C88.6968 18.7133 87.3701 19 85.8768 19H79.7568V5ZM85.7568 16.8C86.7834 16.8 87.6834 16.6067 88.4568 16.22C89.2434 15.82 89.8434 15.26 90.2568 14.54C90.6834 13.8067 90.8968 12.96 90.8968 12C90.8968 11.04 90.6834 10.2 90.2568 9.48C89.8434 8.74667 89.2434 8.18667 88.4568 7.8C87.6834 7.4 86.7834 7.2 85.7568 7.2H82.3568V16.8H85.7568ZM106.529 15.76H99.5285L98.1485 19H95.4685L101.769 5H104.329L110.649 19H107.929L106.529 15.76ZM105.669 13.72L103.029 7.6L100.409 13.72H105.669ZM113.793 5H119.913C121.406 5 122.733 5.29333 123.893 5.88C125.053 6.45333 125.953 7.27333 126.593 8.34C127.233 9.39333 127.553 10.6133 127.553 12C127.553 13.3867 127.233 14.6133 126.593 15.68C125.953 16.7333 125.053 17.5533 123.893 18.14C122.733 18.7133 121.406 19 119.913 19H113.793V5ZM119.793 16.8C120.819 16.8 121.719 16.6067 122.493 16.22C123.279 15.82 123.879 15.26 124.293 14.54C124.719 13.8067 124.933 12.96 124.933 12C124.933 11.04 124.719 10.2 124.293 9.48C123.879 8.74667 123.279 8.18667 122.493 7.8C121.719 7.4 120.819 7.2 119.793 7.2H116.393V16.8H119.793ZM142.18 16.82V19H131.68V5H141.9V7.18H134.28V10.82H141.04V12.96H134.28V16.82H142.18ZM150.782 19.2C149.702 19.2 148.655 19.0467 147.642 18.74C146.642 18.4333 145.848 18.0267 145.262 17.52L146.162 15.5C146.735 15.9533 147.435 16.3267 148.262 16.62C149.102 16.9 149.942 17.04 150.782 17.04C151.822 17.04 152.595 16.8733 153.102 16.54C153.622 16.2067 153.882 15.7667 153.882 15.22C153.882 14.82 153.735 14.4933 153.442 14.24C153.162 13.9733 152.802 13.7667 152.362 13.62C151.922 13.4733 151.322 13.3067 150.562 13.12C149.495 12.8667 148.628 12.6133 147.962 12.36C147.308 12.1067 146.742 11.7133 146.262 11.18C145.795 10.6333 145.562 9.9 145.562 8.98C145.562 8.20667 145.768 7.50667 146.182 6.88C146.608 6.24 147.242 5.73333 148.082 5.36C148.935 4.98667 149.975 4.8 151.202 4.8C152.055 4.8 152.895 4.90667 153.722 5.12C154.548 5.33333 155.262 5.64 155.862 6.04L155.042 8.06C154.428 7.7 153.788 7.42667 153.122 7.24C152.455 7.05333 151.808 6.96 151.182 6.96C150.155 6.96 149.388 7.13333 148.882 7.48C148.388 7.82667 148.142 8.28667 148.142 8.86C148.142 9.26 148.282 9.58667 148.562 9.84C148.855 10.0933 149.222 10.2933 149.662 10.44C150.102 10.5867 150.702 10.7533 151.462 10.94C152.502 11.18 153.355 11.4333 154.022 11.7C154.688 11.9533 155.255 12.3467 155.722 12.88C156.202 13.4133 156.442 14.1333 156.442 15.04C156.442 15.8133 156.228 16.5133 155.802 17.14C155.388 17.7667 154.755 18.2667 153.902 18.64C153.048 19.0133 152.008 19.2 150.782 19.2Z" fill="black"/>
</svg>
