<svg width="116" height="85" viewBox="0 0 116 85" fill="none" xmlns="http://www.w3.org/2000/svg">
<rect y="28" width="116" height="57" fill="#E6E6E6"/>
<path d="M12.8097 76.732H7.9097L6.9437 79H5.0677L9.4777 69.2H11.2697L15.6937 79H13.7897L12.8097 76.732ZM12.2077 75.304L10.3597 71.02L8.5257 75.304H12.2077ZM11.0877 66.484H13.1457L10.7097 68.402H9.1977L11.0877 66.484ZM18.438 72.616C18.942 71.832 19.8287 71.44 21.098 71.44V73.106C20.9487 73.078 20.8134 73.064 20.692 73.064C20.0107 73.064 19.4787 73.2647 19.096 73.666C18.7134 74.058 18.522 74.6273 18.522 75.374V79H16.772V71.524H18.438V72.616ZM29.5422 75.304C29.5422 75.4253 29.5329 75.598 29.5142 75.822H23.6482C23.7509 76.3727 24.0169 76.8113 24.4462 77.138C24.8849 77.4553 25.4262 77.614 26.0702 77.614C26.8915 77.614 27.5682 77.3433 28.1002 76.802L29.0382 77.88C28.7022 78.2813 28.2775 78.5847 27.7642 78.79C27.2509 78.9953 26.6722 79.098 26.0282 79.098C25.2069 79.098 24.4835 78.9347 23.8582 78.608C23.2329 78.2813 22.7475 77.8287 22.4022 77.25C22.0662 76.662 21.8982 75.9993 21.8982 75.262C21.8982 74.534 22.0615 73.8807 22.3882 73.302C22.7242 72.714 23.1862 72.2567 23.7742 71.93C24.3622 71.6033 25.0249 71.44 25.7622 71.44C26.4902 71.44 27.1389 71.6033 27.7082 71.93C28.2869 72.2473 28.7349 72.7 29.0522 73.288C29.3789 73.8667 29.5422 74.5387 29.5422 75.304ZM25.7622 72.84C25.2022 72.84 24.7262 73.008 24.3342 73.344C23.9515 73.6707 23.7182 74.1093 23.6342 74.66H27.8762C27.8015 74.1187 27.5729 73.68 27.1902 73.344C26.8075 73.008 26.3315 72.84 25.7622 72.84ZM33.8741 71.44C34.9755 71.44 35.8155 71.706 36.3941 72.238C36.9821 72.7607 37.2761 73.554 37.2761 74.618V79H35.6241V78.09C35.4095 78.4167 35.1015 78.6687 34.7001 78.846C34.3081 79.014 33.8321 79.098 33.2721 79.098C32.7121 79.098 32.2221 79.0047 31.8021 78.818C31.3821 78.622 31.0555 78.356 30.8221 78.02C30.5981 77.6747 30.4861 77.2873 30.4861 76.858C30.4861 76.186 30.7335 75.6493 31.2281 75.248C31.7321 74.8373 32.5208 74.632 33.5941 74.632H35.5261V74.52C35.5261 73.9973 35.3675 73.596 35.0501 73.316C34.7421 73.036 34.2801 72.896 33.6641 72.896C33.2441 72.896 32.8288 72.9613 32.4181 73.092C32.0168 73.2227 31.6761 73.4047 31.3961 73.638L30.7101 72.364C31.1021 72.0653 31.5735 71.8367 32.1241 71.678C32.6748 71.5193 33.2581 71.44 33.8741 71.44ZM33.6361 77.824C34.0748 77.824 34.4621 77.726 34.7981 77.53C35.1435 77.3247 35.3861 77.0353 35.5261 76.662V75.794H33.7201C32.7121 75.794 32.2081 76.1253 32.2081 76.788C32.2081 77.1053 32.3341 77.3573 32.5861 77.544C32.8381 77.7307 33.1881 77.824 33.6361 77.824ZM50.7132 68.612V79H49.0332V78.034C48.7438 78.3887 48.3845 78.6547 47.9552 78.832C47.5352 79.0093 47.0685 79.098 46.5552 79.098C45.8365 79.098 45.1878 78.9393 44.6092 78.622C44.0398 78.3047 43.5918 77.8567 43.2652 77.278C42.9385 76.69 42.7752 76.018 42.7752 75.262C42.7752 74.506 42.9385 73.8387 43.2652 73.26C43.5918 72.6813 44.0398 72.2333 44.6092 71.916C45.1878 71.5987 45.8365 71.44 46.5552 71.44C47.0498 71.44 47.5025 71.524 47.9132 71.692C48.3238 71.86 48.6738 72.112 48.9632 72.448V68.612H50.7132ZM46.7652 77.6C47.1852 77.6 47.5632 77.5067 47.8992 77.32C48.2352 77.124 48.5012 76.8487 48.6972 76.494C48.8932 76.1393 48.9912 75.7287 48.9912 75.262C48.9912 74.7953 48.8932 74.3847 48.6972 74.03C48.5012 73.6753 48.2352 73.4047 47.8992 73.218C47.5632 73.022 47.1852 72.924 46.7652 72.924C46.3452 72.924 45.9672 73.022 45.6312 73.218C45.2952 73.4047 45.0292 73.6753 44.8332 74.03C44.6372 74.3847 44.5392 74.7953 44.5392 75.262C44.5392 75.7287 44.6372 76.1393 44.8332 76.494C45.0292 76.8487 45.2952 77.124 45.6312 77.32C45.9672 77.5067 46.3452 77.6 46.7652 77.6ZM60.0305 75.304C60.0305 75.4253 60.0212 75.598 60.0025 75.822H54.1365C54.2392 76.3727 54.5052 76.8113 54.9345 77.138C55.3732 77.4553 55.9145 77.614 56.5585 77.614C57.3798 77.614 58.0565 77.3433 58.5885 76.802L59.5265 77.88C59.1905 78.2813 58.7658 78.5847 58.2525 78.79C57.7392 78.9953 57.1605 79.098 56.5165 79.098C55.6952 79.098 54.9718 78.9347 54.3465 78.608C53.7212 78.2813 53.2358 77.8287 52.8905 77.25C52.5545 76.662 52.3865 75.9993 52.3865 75.262C52.3865 74.534 52.5498 73.8807 52.8765 73.302C53.2125 72.714 53.6745 72.2567 54.2625 71.93C54.8505 71.6033 55.5132 71.44 56.2505 71.44C56.9785 71.44 57.6272 71.6033 58.1965 71.93C58.7752 72.2473 59.2232 72.7 59.5405 73.288C59.8672 73.8667 60.0305 74.5387 60.0305 75.304ZM56.2505 72.84C55.6905 72.84 55.2145 73.008 54.8225 73.344C54.4398 73.6707 54.2065 74.1093 54.1225 74.66H58.3645C58.2898 74.1187 58.0612 73.68 57.6785 73.344C57.2958 73.008 56.8198 72.84 56.2505 72.84ZM75.0166 71.44C75.9593 71.44 76.706 71.7153 77.2566 72.266C77.8073 72.8073 78.0826 73.624 78.0826 74.716V79H76.3326V74.94C76.3326 74.2867 76.188 73.7967 75.8986 73.47C75.6093 73.134 75.194 72.966 74.6526 72.966C74.0646 72.966 73.5933 73.162 73.2386 73.554C72.884 73.9367 72.7066 74.4873 72.7066 75.206V79H70.9566V74.94C70.9566 74.2867 70.812 73.7967 70.5226 73.47C70.2333 73.134 69.818 72.966 69.2766 72.966C68.6793 72.966 68.2033 73.1573 67.8486 73.54C67.5033 73.9227 67.3306 74.478 67.3306 75.206V79H65.5806V71.524H67.2466V72.476C67.5266 72.14 67.8766 71.8833 68.2966 71.706C68.7166 71.5287 69.1833 71.44 69.6966 71.44C70.2566 71.44 70.7513 71.5473 71.1806 71.762C71.6193 71.9673 71.9646 72.2753 72.2166 72.686C72.5246 72.294 72.9213 71.9907 73.4066 71.776C73.892 71.552 74.4286 71.44 75.0166 71.44ZM87.4153 75.304C87.4153 75.4253 87.4059 75.598 87.3873 75.822H81.5213C81.6239 76.3727 81.8899 76.8113 82.3193 77.138C82.7579 77.4553 83.2993 77.614 83.9433 77.614C84.7646 77.614 85.4413 77.3433 85.9733 76.802L86.9113 77.88C86.5753 78.2813 86.1506 78.5847 85.6373 78.79C85.1239 78.9953 84.5453 79.098 83.9013 79.098C83.0799 79.098 82.3566 78.9347 81.7313 78.608C81.1059 78.2813 80.6206 77.8287 80.2753 77.25C79.9393 76.662 79.7713 75.9993 79.7713 75.262C79.7713 74.534 79.9346 73.8807 80.2613 73.302C80.5973 72.714 81.0593 72.2567 81.6473 71.93C82.2353 71.6033 82.8979 71.44 83.6353 71.44C84.3633 71.44 85.0119 71.6033 85.5813 71.93C86.1599 72.2473 86.6079 72.7 86.9253 73.288C87.2519 73.8667 87.4153 74.5387 87.4153 75.304ZM83.6353 72.84C83.0753 72.84 82.5993 73.008 82.2073 73.344C81.8246 73.6707 81.5913 74.1093 81.5073 74.66H85.7493C85.6746 74.1187 85.4459 73.68 85.0633 73.344C84.6806 73.008 84.2046 72.84 83.6353 72.84ZM91.4062 79.098C90.7996 79.098 90.2069 79.0187 89.6282 78.86C89.0496 78.7013 88.5876 78.5007 88.2422 78.258L88.9142 76.928C89.2502 77.152 89.6516 77.334 90.1182 77.474C90.5942 77.6047 91.0609 77.67 91.5182 77.67C92.5636 77.67 93.0862 77.3947 93.0862 76.844C93.0862 76.5827 92.9509 76.4007 92.6802 76.298C92.4189 76.1953 91.9942 76.0973 91.4062 76.004C90.7902 75.9107 90.2862 75.8033 89.8942 75.682C89.5116 75.5607 89.1756 75.3507 88.8862 75.052C88.6062 74.744 88.4662 74.3193 88.4662 73.778C88.4662 73.0687 88.7602 72.504 89.3482 72.084C89.9456 71.6547 90.7482 71.44 91.7562 71.44C92.2696 71.44 92.7829 71.5007 93.2962 71.622C93.8096 71.734 94.2296 71.888 94.5562 72.084L93.8842 73.414C93.2496 73.0407 92.5356 72.854 91.7422 72.854C91.2289 72.854 90.8369 72.9333 90.5662 73.092C90.3049 73.2413 90.1742 73.442 90.1742 73.694C90.1742 73.974 90.3142 74.1747 90.5942 74.296C90.8836 74.408 91.3269 74.5153 91.9242 74.618C92.5216 74.7113 93.0116 74.8187 93.3942 74.94C93.7769 75.0613 94.1036 75.2667 94.3742 75.556C94.6542 75.8453 94.7942 76.256 94.7942 76.788C94.7942 77.488 94.4909 78.048 93.8842 78.468C93.2776 78.888 92.4516 79.098 91.4062 79.098ZM99.1573 71.44C100.259 71.44 101.099 71.706 101.677 72.238C102.265 72.7607 102.559 73.554 102.559 74.618V79H100.907V78.09C100.693 78.4167 100.385 78.6687 99.9833 78.846C99.5913 79.014 99.1153 79.098 98.5553 79.098C97.9953 79.098 97.5053 79.0047 97.0853 78.818C96.6653 78.622 96.3387 78.356 96.1053 78.02C95.8813 77.6747 95.7693 77.2873 95.7693 76.858C95.7693 76.186 96.0167 75.6493 96.5113 75.248C97.0153 74.8373 97.804 74.632 98.8773 74.632H100.809V74.52C100.809 73.9973 100.651 73.596 100.333 73.316C100.025 73.036 99.5633 72.896 98.9473 72.896C98.5273 72.896 98.112 72.9613 97.7013 73.092C97.3 73.2227 96.9593 73.4047 96.6793 73.638L95.9933 72.364C96.3853 72.0653 96.8567 71.8367 97.4073 71.678C97.958 71.5193 98.5413 71.44 99.1573 71.44ZM98.9193 77.824C99.358 77.824 99.7453 77.726 100.081 77.53C100.427 77.3247 100.669 77.0353 100.809 76.662V75.794H99.0033C97.9953 75.794 97.4913 76.1253 97.4913 76.788C97.4913 77.1053 97.6173 77.3573 97.8693 77.544C98.1213 77.7307 98.4713 77.824 98.9193 77.824ZM107.115 79.098C106.509 79.098 105.916 79.0187 105.337 78.86C104.759 78.7013 104.297 78.5007 103.951 78.258L104.623 76.928C104.959 77.152 105.361 77.334 105.827 77.474C106.303 77.6047 106.77 77.67 107.227 77.67C108.273 77.67 108.795 77.3947 108.795 76.844C108.795 76.5827 108.66 76.4007 108.389 76.298C108.128 76.1953 107.703 76.0973 107.115 76.004C106.499 75.9107 105.995 75.8033 105.603 75.682C105.221 75.5607 104.885 75.3507 104.595 75.052C104.315 74.744 104.175 74.3193 104.175 73.778C104.175 73.0687 104.469 72.504 105.057 72.084C105.655 71.6547 106.457 71.44 107.465 71.44C107.979 71.44 108.492 71.5007 109.005 71.622C109.519 71.734 109.939 71.888 110.265 72.084L109.593 73.414C108.959 73.0407 108.245 72.854 107.451 72.854C106.938 72.854 106.546 72.9333 106.275 73.092C106.014 73.2413 105.883 73.442 105.883 73.694C105.883 73.974 106.023 74.1747 106.303 74.296C106.593 74.408 107.036 74.5153 107.633 74.618C108.231 74.7113 108.721 74.8187 109.103 74.94C109.486 75.0613 109.813 75.2667 110.083 75.556C110.363 75.8453 110.503 76.256 110.503 76.788C110.503 77.488 110.2 78.048 109.593 78.468C108.987 78.888 108.161 79.098 107.115 79.098Z" fill="black"/>
<path d="M58.3276 50.03C58.2192 50.0338 58.1111 50.0153 58.0102 49.9755C57.9092 49.9358 57.8175 49.8757 57.7408 49.7989C57.6641 49.7222 57.604 49.6305 57.5642 49.5296C57.5244 49.4286 57.5059 49.3205 57.5097 49.2121V21.4297C57.5097 21.2128 57.5959 21.0048 57.7493 20.8514C57.9027 20.698 58.1107 20.6118 58.3276 20.6118C58.5424 20.6186 58.7465 20.707 58.8984 20.8589C59.0504 21.0109 59.1387 21.215 59.1456 21.4297V49.2121C59.1456 49.429 59.0594 49.6371 58.906 49.7905C58.7526 49.9438 58.5446 50.03 58.3276 50.03Z" fill="black"/>
<path d="M72.2324 22.2477H44.9681C44.8597 22.2515 44.7516 22.2329 44.6507 22.1932C44.5497 22.1534 44.458 22.0933 44.3813 22.0166C44.3046 21.9399 44.2444 21.8482 44.2047 21.7472C44.1649 21.6462 44.1464 21.5382 44.1502 21.4297C44.1502 21.2128 44.2364 21.0048 44.3898 20.8514C44.5431 20.698 44.7512 20.6118 44.9681 20.6118H72.2324C72.4472 20.6186 72.6513 20.707 72.8032 20.8589C72.9552 21.0109 73.0436 21.215 73.0504 21.4297C73.0504 21.5372 73.0292 21.6435 72.9881 21.7428C72.947 21.842 72.8868 21.9322 72.8108 22.0081C72.7349 22.0841 72.6447 22.1443 72.5455 22.1854C72.4462 22.2265 72.3399 22.2477 72.2324 22.2477Z" fill="black"/>
<path d="M51.4298 50.03C51.2128 50.03 51.0048 49.9438 50.8514 49.7904C50.698 49.637 50.6118 49.429 50.6118 49.2121V29.9907H35.9436C35.8352 29.9945 35.7271 29.976 35.6262 29.9362C35.5252 29.8965 35.4335 29.8363 35.3568 29.7596C35.2801 29.6829 35.22 29.5912 35.1802 29.4902C35.1404 29.3893 35.1219 29.2812 35.1257 29.1728C35.1257 28.9559 35.2119 28.7478 35.3653 28.5944C35.5187 28.441 35.7267 28.3549 35.9436 28.3549H50.8845C51.246 28.3549 51.5928 28.4985 51.8484 28.7541C52.1041 29.0098 52.2477 29.3565 52.2477 29.7181V49.103C52.2683 49.22 52.2623 49.3401 52.2302 49.4544C52.198 49.5688 52.1405 49.6744 52.0619 49.7634C51.9833 49.8525 51.8857 49.9227 51.7763 49.9688C51.6668 50.015 51.5484 50.0359 51.4298 50.03Z" fill="black"/>
<path d="M65.4436 50.0301C65.2267 50.0301 65.0187 49.9439 64.8653 49.7905C64.7119 49.6371 64.6257 49.4291 64.6257 49.2121V29.8272C64.6327 29.4678 64.7785 29.1251 65.0327 28.871C65.2869 28.6168 65.6296 28.471 65.9889 28.464H80.957C81.1718 28.4708 81.3759 28.5592 81.5278 28.7111C81.6798 28.8631 81.7681 29.0672 81.775 29.2819C81.775 29.4988 81.6888 29.7069 81.5354 29.8603C81.382 30.0137 81.174 30.0998 80.957 30.0998H66.1252V49.1849C66.141 49.3861 66.0792 49.5858 65.9525 49.743C65.8257 49.9001 65.6437 50.0028 65.4436 50.0301Z" fill="black"/>
<path d="M35.9436 50.03C35.8352 50.0338 35.7271 50.0153 35.6262 49.9755C35.5252 49.9358 35.4335 49.8756 35.3568 49.7989C35.2801 49.7222 35.22 49.6305 35.1802 49.5295C35.1404 49.4286 35.1219 49.3205 35.1257 49.2121V19.9302C35.138 16.196 34.4347 12.494 33.0536 9.02447C32.9806 8.82155 32.988 8.59843 33.0742 8.40076C33.1603 8.20309 33.3188 8.04582 33.5171 7.96116C33.6173 7.92147 33.7244 7.90197 33.8322 7.9038C33.94 7.90563 34.0463 7.92875 34.1451 7.97182C34.2439 8.0149 34.3333 8.07708 34.408 8.15479C34.4827 8.2325 34.5413 8.32421 34.5804 8.42465C36.0233 12.0794 36.7634 15.9737 36.7616 19.9029V49.2121C36.7654 49.3205 36.7468 49.4286 36.7071 49.5295C36.6673 49.6305 36.6072 49.7222 36.5305 49.7989C36.4537 49.8756 36.362 49.9358 36.2611 49.9755C36.1601 50.0153 36.0521 50.0338 35.9436 50.03Z" fill="black"/>
<path d="M81.1479 50.03C80.9309 50.03 80.7229 49.9439 80.5695 49.7905C80.4161 49.6371 80.3299 49.429 80.3299 49.2121V19.9302C80.3281 16.001 81.0682 12.1067 82.5111 8.45195C82.5958 8.25363 82.753 8.09517 82.9507 8.00901C83.1484 7.92284 83.3715 7.91549 83.5744 7.98845C83.6748 8.02759 83.7666 8.08619 83.8443 8.1609C83.922 8.2356 83.9842 8.32492 84.0272 8.42374C84.0703 8.52255 84.0934 8.62891 84.0953 8.73669C84.0971 8.84446 84.0776 8.95154 84.0379 9.05176C82.6696 12.525 81.9667 16.2245 81.9658 19.9575V49.2121C81.9696 49.3205 81.9511 49.4286 81.9113 49.5296C81.8716 49.6305 81.8114 49.7222 81.7347 49.799C81.658 49.8757 81.5663 49.9358 81.4653 49.9755C81.3644 50.0153 81.2563 50.0339 81.1479 50.03Z" fill="black"/>
<path d="M50.9117 35.6617H35.9436C35.8352 35.6655 35.7271 35.647 35.6262 35.6072C35.5252 35.5675 35.4335 35.5074 35.3568 35.4306C35.2801 35.3539 35.22 35.2622 35.1802 35.1613C35.1404 35.0603 35.1219 34.9522 35.1257 34.8438C35.1257 34.7364 35.1469 34.63 35.188 34.5308C35.2291 34.4316 35.2893 34.3414 35.3653 34.2654C35.4412 34.1895 35.5314 34.1292 35.6306 34.0881C35.7299 34.047 35.8362 34.0259 35.9436 34.0259H50.9117C51.0192 34.0259 51.1255 34.047 51.2248 34.0881C51.324 34.1292 51.4142 34.1895 51.4901 34.2654C51.5661 34.3414 51.6263 34.4316 51.6674 34.5308C51.7085 34.63 51.7297 34.7364 51.7297 34.8438C51.7335 34.9522 51.7149 35.0603 51.6752 35.1613C51.6354 35.2622 51.5753 35.3539 51.4986 35.4306C51.4219 35.5074 51.3302 35.5675 51.2292 35.6072C51.1282 35.647 51.0202 35.6655 50.9117 35.6617Z" fill="black"/>
<path d="M81.1479 35.6617H65.6072C65.4988 35.6655 65.3907 35.647 65.2898 35.6072C65.1888 35.5675 65.0971 35.5074 65.0204 35.4306C64.9437 35.3539 64.8835 35.2622 64.8438 35.1613C64.804 35.0603 64.7855 34.9522 64.7893 34.8438C64.7893 34.7364 64.8104 34.63 64.8516 34.5308C64.8927 34.4316 64.9529 34.3414 65.0289 34.2654C65.1048 34.1895 65.195 34.1292 65.2942 34.0881C65.3934 34.047 65.4998 34.0259 65.6072 34.0259H81.1479C81.2553 34.0259 81.3617 34.047 81.4609 34.0881C81.5601 34.1292 81.6503 34.1895 81.7262 34.2654C81.8022 34.3414 81.8625 34.4316 81.9036 34.5308C81.9447 34.63 81.9658 34.7364 81.9658 34.8438C81.9696 34.9522 81.9511 35.0603 81.9113 35.1613C81.8716 35.2622 81.8114 35.3539 81.7347 35.4306C81.658 35.5074 81.5663 35.5675 81.4653 35.6072C81.3644 35.647 81.2563 35.6655 81.1479 35.6617Z" fill="black"/>
<rect y="28" width="116" height="57" fill="#E6E6E6"/>
<path d="M12.8097 76.732H7.9097L6.9437 79H5.0677L9.4777 69.2H11.2697L15.6937 79H13.7897L12.8097 76.732ZM12.2077 75.304L10.3597 71.02L8.5257 75.304H12.2077ZM11.0877 66.484H13.1457L10.7097 68.402H9.1977L11.0877 66.484ZM18.438 72.616C18.942 71.832 19.8287 71.44 21.098 71.44V73.106C20.9487 73.078 20.8134 73.064 20.692 73.064C20.0107 73.064 19.4787 73.2647 19.096 73.666C18.7134 74.058 18.522 74.6273 18.522 75.374V79H16.772V71.524H18.438V72.616ZM29.5422 75.304C29.5422 75.4253 29.5329 75.598 29.5142 75.822H23.6482C23.7509 76.3727 24.0169 76.8113 24.4462 77.138C24.8849 77.4553 25.4262 77.614 26.0702 77.614C26.8915 77.614 27.5682 77.3433 28.1002 76.802L29.0382 77.88C28.7022 78.2813 28.2775 78.5847 27.7642 78.79C27.2509 78.9953 26.6722 79.098 26.0282 79.098C25.2069 79.098 24.4835 78.9347 23.8582 78.608C23.2329 78.2813 22.7475 77.8287 22.4022 77.25C22.0662 76.662 21.8982 75.9993 21.8982 75.262C21.8982 74.534 22.0615 73.8807 22.3882 73.302C22.7242 72.714 23.1862 72.2567 23.7742 71.93C24.3622 71.6033 25.0249 71.44 25.7622 71.44C26.4902 71.44 27.1389 71.6033 27.7082 71.93C28.2869 72.2473 28.7349 72.7 29.0522 73.288C29.3789 73.8667 29.5422 74.5387 29.5422 75.304ZM25.7622 72.84C25.2022 72.84 24.7262 73.008 24.3342 73.344C23.9515 73.6707 23.7182 74.1093 23.6342 74.66H27.8762C27.8015 74.1187 27.5729 73.68 27.1902 73.344C26.8075 73.008 26.3315 72.84 25.7622 72.84ZM33.8741 71.44C34.9755 71.44 35.8155 71.706 36.3941 72.238C36.9821 72.7607 37.2761 73.554 37.2761 74.618V79H35.6241V78.09C35.4095 78.4167 35.1015 78.6687 34.7001 78.846C34.3081 79.014 33.8321 79.098 33.2721 79.098C32.7121 79.098 32.2221 79.0047 31.8021 78.818C31.3821 78.622 31.0555 78.356 30.8221 78.02C30.5981 77.6747 30.4861 77.2873 30.4861 76.858C30.4861 76.186 30.7335 75.6493 31.2281 75.248C31.7321 74.8373 32.5208 74.632 33.5941 74.632H35.5261V74.52C35.5261 73.9973 35.3675 73.596 35.0501 73.316C34.7421 73.036 34.2801 72.896 33.6641 72.896C33.2441 72.896 32.8288 72.9613 32.4181 73.092C32.0168 73.2227 31.6761 73.4047 31.3961 73.638L30.7101 72.364C31.1021 72.0653 31.5735 71.8367 32.1241 71.678C32.6748 71.5193 33.2581 71.44 33.8741 71.44ZM33.6361 77.824C34.0748 77.824 34.4621 77.726 34.7981 77.53C35.1435 77.3247 35.3861 77.0353 35.5261 76.662V75.794H33.7201C32.7121 75.794 32.2081 76.1253 32.2081 76.788C32.2081 77.1053 32.3341 77.3573 32.5861 77.544C32.8381 77.7307 33.1881 77.824 33.6361 77.824ZM50.7132 68.612V79H49.0332V78.034C48.7438 78.3887 48.3845 78.6547 47.9552 78.832C47.5352 79.0093 47.0685 79.098 46.5552 79.098C45.8365 79.098 45.1878 78.9393 44.6092 78.622C44.0398 78.3047 43.5918 77.8567 43.2652 77.278C42.9385 76.69 42.7752 76.018 42.7752 75.262C42.7752 74.506 42.9385 73.8387 43.2652 73.26C43.5918 72.6813 44.0398 72.2333 44.6092 71.916C45.1878 71.5987 45.8365 71.44 46.5552 71.44C47.0498 71.44 47.5025 71.524 47.9132 71.692C48.3238 71.86 48.6738 72.112 48.9632 72.448V68.612H50.7132ZM46.7652 77.6C47.1852 77.6 47.5632 77.5067 47.8992 77.32C48.2352 77.124 48.5012 76.8487 48.6972 76.494C48.8932 76.1393 48.9912 75.7287 48.9912 75.262C48.9912 74.7953 48.8932 74.3847 48.6972 74.03C48.5012 73.6753 48.2352 73.4047 47.8992 73.218C47.5632 73.022 47.1852 72.924 46.7652 72.924C46.3452 72.924 45.9672 73.022 45.6312 73.218C45.2952 73.4047 45.0292 73.6753 44.8332 74.03C44.6372 74.3847 44.5392 74.7953 44.5392 75.262C44.5392 75.7287 44.6372 76.1393 44.8332 76.494C45.0292 76.8487 45.2952 77.124 45.6312 77.32C45.9672 77.5067 46.3452 77.6 46.7652 77.6ZM60.0305 75.304C60.0305 75.4253 60.0212 75.598 60.0025 75.822H54.1365C54.2392 76.3727 54.5052 76.8113 54.9345 77.138C55.3732 77.4553 55.9145 77.614 56.5585 77.614C57.3798 77.614 58.0565 77.3433 58.5885 76.802L59.5265 77.88C59.1905 78.2813 58.7658 78.5847 58.2525 78.79C57.7392 78.9953 57.1605 79.098 56.5165 79.098C55.6952 79.098 54.9718 78.9347 54.3465 78.608C53.7212 78.2813 53.2358 77.8287 52.8905 77.25C52.5545 76.662 52.3865 75.9993 52.3865 75.262C52.3865 74.534 52.5498 73.8807 52.8765 73.302C53.2125 72.714 53.6745 72.2567 54.2625 71.93C54.8505 71.6033 55.5132 71.44 56.2505 71.44C56.9785 71.44 57.6272 71.6033 58.1965 71.93C58.7752 72.2473 59.2232 72.7 59.5405 73.288C59.8672 73.8667 60.0305 74.5387 60.0305 75.304ZM56.2505 72.84C55.6905 72.84 55.2145 73.008 54.8225 73.344C54.4398 73.6707 54.2065 74.1093 54.1225 74.66H58.3645C58.2898 74.1187 58.0612 73.68 57.6785 73.344C57.2958 73.008 56.8198 72.84 56.2505 72.84ZM75.0166 71.44C75.9593 71.44 76.706 71.7153 77.2566 72.266C77.8073 72.8073 78.0826 73.624 78.0826 74.716V79H76.3326V74.94C76.3326 74.2867 76.188 73.7967 75.8986 73.47C75.6093 73.134 75.194 72.966 74.6526 72.966C74.0646 72.966 73.5933 73.162 73.2386 73.554C72.884 73.9367 72.7066 74.4873 72.7066 75.206V79H70.9566V74.94C70.9566 74.2867 70.812 73.7967 70.5226 73.47C70.2333 73.134 69.818 72.966 69.2766 72.966C68.6793 72.966 68.2033 73.1573 67.8486 73.54C67.5033 73.9227 67.3306 74.478 67.3306 75.206V79H65.5806V71.524H67.2466V72.476C67.5266 72.14 67.8766 71.8833 68.2966 71.706C68.7166 71.5287 69.1833 71.44 69.6966 71.44C70.2566 71.44 70.7513 71.5473 71.1806 71.762C71.6193 71.9673 71.9646 72.2753 72.2166 72.686C72.5246 72.294 72.9213 71.9907 73.4066 71.776C73.892 71.552 74.4286 71.44 75.0166 71.44ZM87.4153 75.304C87.4153 75.4253 87.4059 75.598 87.3873 75.822H81.5213C81.6239 76.3727 81.8899 76.8113 82.3193 77.138C82.7579 77.4553 83.2993 77.614 83.9433 77.614C84.7646 77.614 85.4413 77.3433 85.9733 76.802L86.9113 77.88C86.5753 78.2813 86.1506 78.5847 85.6373 78.79C85.1239 78.9953 84.5453 79.098 83.9013 79.098C83.0799 79.098 82.3566 78.9347 81.7313 78.608C81.1059 78.2813 80.6206 77.8287 80.2753 77.25C79.9393 76.662 79.7713 75.9993 79.7713 75.262C79.7713 74.534 79.9346 73.8807 80.2613 73.302C80.5973 72.714 81.0593 72.2567 81.6473 71.93C82.2353 71.6033 82.8979 71.44 83.6353 71.44C84.3633 71.44 85.0119 71.6033 85.5813 71.93C86.1599 72.2473 86.6079 72.7 86.9253 73.288C87.2519 73.8667 87.4153 74.5387 87.4153 75.304ZM83.6353 72.84C83.0753 72.84 82.5993 73.008 82.2073 73.344C81.8246 73.6707 81.5913 74.1093 81.5073 74.66H85.7493C85.6746 74.1187 85.4459 73.68 85.0633 73.344C84.6806 73.008 84.2046 72.84 83.6353 72.84ZM91.4062 79.098C90.7996 79.098 90.2069 79.0187 89.6282 78.86C89.0496 78.7013 88.5876 78.5007 88.2422 78.258L88.9142 76.928C89.2502 77.152 89.6516 77.334 90.1182 77.474C90.5942 77.6047 91.0609 77.67 91.5182 77.67C92.5636 77.67 93.0862 77.3947 93.0862 76.844C93.0862 76.5827 92.9509 76.4007 92.6802 76.298C92.4189 76.1953 91.9942 76.0973 91.4062 76.004C90.7902 75.9107 90.2862 75.8033 89.8942 75.682C89.5116 75.5607 89.1756 75.3507 88.8862 75.052C88.6062 74.744 88.4662 74.3193 88.4662 73.778C88.4662 73.0687 88.7602 72.504 89.3482 72.084C89.9456 71.6547 90.7482 71.44 91.7562 71.44C92.2696 71.44 92.7829 71.5007 93.2962 71.622C93.8096 71.734 94.2296 71.888 94.5562 72.084L93.8842 73.414C93.2496 73.0407 92.5356 72.854 91.7422 72.854C91.2289 72.854 90.8369 72.9333 90.5662 73.092C90.3049 73.2413 90.1742 73.442 90.1742 73.694C90.1742 73.974 90.3142 74.1747 90.5942 74.296C90.8836 74.408 91.3269 74.5153 91.9242 74.618C92.5216 74.7113 93.0116 74.8187 93.3942 74.94C93.7769 75.0613 94.1036 75.2667 94.3742 75.556C94.6542 75.8453 94.7942 76.256 94.7942 76.788C94.7942 77.488 94.4909 78.048 93.8842 78.468C93.2776 78.888 92.4516 79.098 91.4062 79.098ZM99.1573 71.44C100.259 71.44 101.099 71.706 101.677 72.238C102.265 72.7607 102.559 73.554 102.559 74.618V79H100.907V78.09C100.693 78.4167 100.385 78.6687 99.9833 78.846C99.5913 79.014 99.1153 79.098 98.5553 79.098C97.9953 79.098 97.5053 79.0047 97.0853 78.818C96.6653 78.622 96.3387 78.356 96.1053 78.02C95.8813 77.6747 95.7693 77.2873 95.7693 76.858C95.7693 76.186 96.0167 75.6493 96.5113 75.248C97.0153 74.8373 97.804 74.632 98.8773 74.632H100.809V74.52C100.809 73.9973 100.651 73.596 100.333 73.316C100.025 73.036 99.5633 72.896 98.9473 72.896C98.5273 72.896 98.112 72.9613 97.7013 73.092C97.3 73.2227 96.9593 73.4047 96.6793 73.638L95.9933 72.364C96.3853 72.0653 96.8567 71.8367 97.4073 71.678C97.958 71.5193 98.5413 71.44 99.1573 71.44ZM98.9193 77.824C99.358 77.824 99.7453 77.726 100.081 77.53C100.427 77.3247 100.669 77.0353 100.809 76.662V75.794H99.0033C97.9953 75.794 97.4913 76.1253 97.4913 76.788C97.4913 77.1053 97.6173 77.3573 97.8693 77.544C98.1213 77.7307 98.4713 77.824 98.9193 77.824ZM107.115 79.098C106.509 79.098 105.916 79.0187 105.337 78.86C104.759 78.7013 104.297 78.5007 103.951 78.258L104.623 76.928C104.959 77.152 105.361 77.334 105.827 77.474C106.303 77.6047 106.77 77.67 107.227 77.67C108.273 77.67 108.795 77.3947 108.795 76.844C108.795 76.5827 108.66 76.4007 108.389 76.298C108.128 76.1953 107.703 76.0973 107.115 76.004C106.499 75.9107 105.995 75.8033 105.603 75.682C105.221 75.5607 104.885 75.3507 104.595 75.052C104.315 74.744 104.175 74.3193 104.175 73.778C104.175 73.0687 104.469 72.504 105.057 72.084C105.655 71.6547 106.457 71.44 107.465 71.44C107.979 71.44 108.492 71.5007 109.005 71.622C109.519 71.734 109.939 71.888 110.265 72.084L109.593 73.414C108.959 73.0407 108.245 72.854 107.451 72.854C106.938 72.854 106.546 72.9333 106.275 73.092C106.014 73.2413 105.883 73.442 105.883 73.694C105.883 73.974 106.023 74.1747 106.303 74.296C106.593 74.408 107.036 74.5153 107.633 74.618C108.231 74.7113 108.721 74.8187 109.103 74.94C109.486 75.0613 109.813 75.2667 110.083 75.556C110.363 75.8453 110.503 76.256 110.503 76.788C110.503 77.488 110.2 78.048 109.593 78.468C108.987 78.888 108.161 79.098 107.115 79.098Z" fill="black"/>
<path d="M58.3276 50.03C58.2192 50.0338 58.1111 50.0153 58.0102 49.9755C57.9092 49.9358 57.8175 49.8757 57.7408 49.7989C57.6641 49.7222 57.604 49.6305 57.5642 49.5296C57.5244 49.4286 57.5059 49.3205 57.5097 49.2121V21.4297C57.5097 21.2128 57.5959 21.0048 57.7493 20.8514C57.9027 20.698 58.1107 20.6118 58.3276 20.6118C58.5424 20.6186 58.7465 20.707 58.8984 20.8589C59.0504 21.0109 59.1387 21.215 59.1456 21.4297V49.2121C59.1456 49.429 59.0594 49.6371 58.906 49.7905C58.7526 49.9438 58.5446 50.03 58.3276 50.03Z" fill="black"/>
<path d="M72.2324 22.2477H44.9681C44.8597 22.2515 44.7516 22.2329 44.6507 22.1932C44.5497 22.1534 44.458 22.0933 44.3813 22.0166C44.3046 21.9399 44.2444 21.8482 44.2047 21.7472C44.1649 21.6462 44.1464 21.5382 44.1502 21.4297C44.1502 21.2128 44.2364 21.0048 44.3898 20.8514C44.5431 20.698 44.7512 20.6118 44.9681 20.6118H72.2324C72.4472 20.6186 72.6513 20.707 72.8032 20.8589C72.9552 21.0109 73.0436 21.215 73.0504 21.4297C73.0504 21.5372 73.0292 21.6435 72.9881 21.7428C72.947 21.842 72.8868 21.9322 72.8108 22.0081C72.7349 22.0841 72.6447 22.1443 72.5455 22.1854C72.4462 22.2265 72.3399 22.2477 72.2324 22.2477Z" fill="black"/>
<path d="M51.4298 50.03C51.2128 50.03 51.0048 49.9438 50.8514 49.7904C50.698 49.637 50.6118 49.429 50.6118 49.2121V29.9907H35.9436C35.8352 29.9945 35.7271 29.976 35.6262 29.9362C35.5252 29.8965 35.4335 29.8363 35.3568 29.7596C35.2801 29.6829 35.22 29.5912 35.1802 29.4902C35.1404 29.3893 35.1219 29.2812 35.1257 29.1728C35.1257 28.9559 35.2119 28.7478 35.3653 28.5944C35.5187 28.441 35.7267 28.3549 35.9436 28.3549H50.8845C51.246 28.3549 51.5928 28.4985 51.8484 28.7541C52.1041 29.0098 52.2477 29.3565 52.2477 29.7181V49.103C52.2683 49.22 52.2623 49.3401 52.2302 49.4544C52.198 49.5688 52.1405 49.6744 52.0619 49.7634C51.9833 49.8525 51.8857 49.9227 51.7763 49.9688C51.6668 50.015 51.5484 50.0359 51.4298 50.03Z" fill="black"/>
<path d="M65.4436 50.0301C65.2267 50.0301 65.0187 49.9439 64.8653 49.7905C64.7119 49.6371 64.6257 49.4291 64.6257 49.2121V29.8272C64.6327 29.4678 64.7785 29.1251 65.0327 28.871C65.2869 28.6168 65.6296 28.471 65.9889 28.464H80.957C81.1718 28.4708 81.3759 28.5592 81.5278 28.7111C81.6798 28.8631 81.7681 29.0672 81.775 29.2819C81.775 29.4988 81.6888 29.7069 81.5354 29.8603C81.382 30.0137 81.174 30.0998 80.957 30.0998H66.1252V49.1849C66.141 49.3861 66.0792 49.5858 65.9525 49.743C65.8257 49.9001 65.6437 50.0028 65.4436 50.0301Z" fill="black"/>
<path d="M35.9436 50.03C35.8352 50.0338 35.7271 50.0153 35.6262 49.9755C35.5252 49.9358 35.4335 49.8756 35.3568 49.7989C35.2801 49.7222 35.22 49.6305 35.1802 49.5295C35.1404 49.4286 35.1219 49.3205 35.1257 49.2121V19.9302C35.138 16.196 34.4347 12.494 33.0536 9.02447C32.9806 8.82155 32.988 8.59843 33.0742 8.40076C33.1603 8.20309 33.3188 8.04582 33.5171 7.96116C33.6173 7.92147 33.7244 7.90197 33.8322 7.9038C33.94 7.90563 34.0463 7.92875 34.1451 7.97182C34.2439 8.0149 34.3333 8.07708 34.408 8.15479C34.4827 8.2325 34.5413 8.32421 34.5804 8.42465C36.0233 12.0794 36.7634 15.9737 36.7616 19.9029V49.2121C36.7654 49.3205 36.7468 49.4286 36.7071 49.5295C36.6673 49.6305 36.6072 49.7222 36.5305 49.7989C36.4537 49.8756 36.362 49.9358 36.2611 49.9755C36.1601 50.0153 36.0521 50.0338 35.9436 50.03Z" fill="black"/>
<path d="M81.1479 50.03C80.9309 50.03 80.7229 49.9439 80.5695 49.7905C80.4161 49.6371 80.3299 49.429 80.3299 49.2121V19.9302C80.3281 16.001 81.0682 12.1067 82.5111 8.45195C82.5958 8.25363 82.753 8.09517 82.9507 8.00901C83.1484 7.92284 83.3715 7.91549 83.5744 7.98845C83.6748 8.02759 83.7666 8.08619 83.8443 8.1609C83.922 8.2356 83.9842 8.32492 84.0272 8.42374C84.0703 8.52255 84.0934 8.62891 84.0953 8.73669C84.0971 8.84446 84.0776 8.95154 84.0379 9.05176C82.6696 12.525 81.9667 16.2245 81.9658 19.9575V49.2121C81.9696 49.3205 81.9511 49.4286 81.9113 49.5296C81.8716 49.6305 81.8114 49.7222 81.7347 49.799C81.658 49.8757 81.5663 49.9358 81.4653 49.9755C81.3644 50.0153 81.2563 50.0339 81.1479 50.03Z" fill="black"/>
<path d="M50.9117 35.6617H35.9436C35.8352 35.6655 35.7271 35.647 35.6262 35.6072C35.5252 35.5675 35.4335 35.5074 35.3568 35.4306C35.2801 35.3539 35.22 35.2622 35.1802 35.1613C35.1404 35.0603 35.1219 34.9522 35.1257 34.8438C35.1257 34.7364 35.1469 34.63 35.188 34.5308C35.2291 34.4316 35.2893 34.3414 35.3653 34.2654C35.4412 34.1895 35.5314 34.1292 35.6306 34.0881C35.7299 34.047 35.8362 34.0259 35.9436 34.0259H50.9117C51.0192 34.0259 51.1255 34.047 51.2248 34.0881C51.324 34.1292 51.4142 34.1895 51.4901 34.2654C51.5661 34.3414 51.6263 34.4316 51.6674 34.5308C51.7085 34.63 51.7297 34.7364 51.7297 34.8438C51.7335 34.9522 51.7149 35.0603 51.6752 35.1613C51.6354 35.2622 51.5753 35.3539 51.4986 35.4306C51.4219 35.5074 51.3302 35.5675 51.2292 35.6072C51.1282 35.647 51.0202 35.6655 50.9117 35.6617Z" fill="black"/>
<path d="M81.1479 35.6617H65.6072C65.4988 35.6655 65.3907 35.647 65.2898 35.6072C65.1888 35.5675 65.0971 35.5074 65.0204 35.4306C64.9437 35.3539 64.8835 35.2622 64.8438 35.1613C64.804 35.0603 64.7855 34.9522 64.7893 34.8438C64.7893 34.7364 64.8104 34.63 64.8516 34.5308C64.8927 34.4316 64.9529 34.3414 65.0289 34.2654C65.1048 34.1895 65.195 34.1292 65.2942 34.0881C65.3934 34.047 65.4998 34.0259 65.6072 34.0259H81.1479C81.2553 34.0259 81.3617 34.047 81.4609 34.0881C81.5601 34.1292 81.6503 34.1895 81.7262 34.2654C81.8022 34.3414 81.8625 34.4316 81.9036 34.5308C81.9447 34.63 81.9658 34.7364 81.9658 34.8438C81.9696 34.9522 81.9511 35.0603 81.9113 35.1613C81.8716 35.2622 81.8114 35.3539 81.7347 35.4306C81.658 35.5074 81.5663 35.5675 81.4653 35.6072C81.3644 35.647 81.2563 35.6655 81.1479 35.6617Z" fill="black"/>
</svg>
