<svg width="110" height="87" viewBox="0 0 110 87" fill="none" xmlns="http://www.w3.org/2000/svg">
<rect y="30" width="110" height="57" fill="#E6E6E6"/>
<path d="M15.8116 78.732H10.9116L9.94565 81H8.06965L12.4796 71.2H14.2716L18.6956 81H16.7916L15.8116 78.732ZM15.2096 77.304L13.3616 73.02L11.5276 77.304H15.2096ZM14.0896 68.484H16.1476L13.7116 70.402H12.1996L14.0896 68.484ZM21.44 74.616C21.944 73.832 22.8306 73.44 24.1 73.44V75.106C23.9506 75.078 23.8153 75.064 23.694 75.064C23.0126 75.064 22.4806 75.2647 22.098 75.666C21.7153 76.058 21.524 76.6273 21.524 77.374V81H19.774V73.524H21.44V74.616ZM32.5442 77.304C32.5442 77.4253 32.5348 77.598 32.5162 77.822H26.6502C26.7528 78.3727 27.0188 78.8113 27.4482 79.138C27.8868 79.4553 28.4282 79.614 29.0722 79.614C29.8935 79.614 30.5702 79.3433 31.1022 78.802L32.0402 79.88C31.7042 80.2813 31.2795 80.5847 30.7662 80.79C30.2528 80.9953 29.6742 81.098 29.0302 81.098C28.2088 81.098 27.4855 80.9347 26.8602 80.608C26.2348 80.2813 25.7495 79.8287 25.4042 79.25C25.0682 78.662 24.9002 77.9993 24.9002 77.262C24.9002 76.534 25.0635 75.8807 25.3902 75.302C25.7262 74.714 26.1882 74.2567 26.7762 73.93C27.3642 73.6033 28.0268 73.44 28.7642 73.44C29.4922 73.44 30.1408 73.6033 30.7102 73.93C31.2888 74.2473 31.7368 74.7 32.0542 75.288C32.3808 75.8667 32.5442 76.5387 32.5442 77.304ZM28.7642 74.84C28.2042 74.84 27.7282 75.008 27.3362 75.344C26.9535 75.6707 26.7202 76.1093 26.6362 76.66H30.8782C30.8035 76.1187 30.5748 75.68 30.1922 75.344C29.8095 75.008 29.3335 74.84 28.7642 74.84ZM36.8761 73.44C37.9774 73.44 38.8174 73.706 39.3961 74.238C39.9841 74.7607 40.2781 75.554 40.2781 76.618V81H38.6261V80.09C38.4114 80.4167 38.1034 80.6687 37.7021 80.846C37.3101 81.014 36.8341 81.098 36.2741 81.098C35.7141 81.098 35.2241 81.0047 34.8041 80.818C34.3841 80.622 34.0574 80.356 33.8241 80.02C33.6001 79.6747 33.4881 79.2873 33.4881 78.858C33.4881 78.186 33.7354 77.6493 34.2301 77.248C34.7341 76.8373 35.5227 76.632 36.5961 76.632H38.5281V76.52C38.5281 75.9973 38.3694 75.596 38.0521 75.316C37.7441 75.036 37.2821 74.896 36.6661 74.896C36.2461 74.896 35.8307 74.9613 35.4201 75.092C35.0187 75.2227 34.6781 75.4047 34.3981 75.638L33.7121 74.364C34.1041 74.0653 34.5754 73.8367 35.1261 73.678C35.6767 73.5193 36.2601 73.44 36.8761 73.44ZM36.6381 79.824C37.0767 79.824 37.4641 79.726 37.8001 79.53C38.1454 79.3247 38.3881 79.0353 38.5281 78.662V77.794H36.7221C35.7141 77.794 35.2101 78.1253 35.2101 78.788C35.2101 79.1053 35.3361 79.3573 35.5881 79.544C35.8401 79.7307 36.1901 79.824 36.6381 79.824ZM44.834 81.098C44.2273 81.098 43.6346 81.0187 43.056 80.86C42.4773 80.7013 42.0153 80.5007 41.67 80.258L42.342 78.928C42.678 79.152 43.0793 79.334 43.546 79.474C44.022 79.6047 44.4886 79.67 44.946 79.67C45.9913 79.67 46.514 79.3947 46.514 78.844C46.514 78.5827 46.3786 78.4007 46.108 78.298C45.8466 78.1953 45.422 78.0973 44.834 78.004C44.218 77.9107 43.714 77.8033 43.322 77.682C42.9393 77.5607 42.6033 77.3507 42.314 77.052C42.034 76.744 41.894 76.3193 41.894 75.778C41.894 75.0687 42.188 74.504 42.776 74.084C43.3733 73.6547 44.176 73.44 45.184 73.44C45.6973 73.44 46.2106 73.5007 46.724 73.622C47.2373 73.734 47.6573 73.888 47.984 74.084L47.312 75.414C46.6773 75.0407 45.9633 74.854 45.17 74.854C44.6566 74.854 44.2646 74.9333 43.994 75.092C43.7326 75.2413 43.602 75.442 43.602 75.694C43.602 75.974 43.742 76.1747 44.022 76.296C44.3113 76.408 44.7546 76.5153 45.352 76.618C45.9493 76.7113 46.4393 76.8187 46.822 76.94C47.2046 77.0613 47.5313 77.2667 47.802 77.556C48.082 77.8453 48.222 78.256 48.222 78.788C48.222 79.488 47.9186 80.048 47.312 80.468C46.7053 80.888 45.8793 81.098 44.834 81.098ZM62.7262 71.2L58.4562 81H56.6642L52.3802 71.2H54.3542L57.6162 78.76L60.9062 71.2H62.7262ZM70.0598 77.304C70.0598 77.4253 70.0505 77.598 70.0318 77.822H64.1658C64.2685 78.3727 64.5345 78.8113 64.9638 79.138C65.4025 79.4553 65.9438 79.614 66.5878 79.614C67.4091 79.614 68.0858 79.3433 68.6178 78.802L69.5558 79.88C69.2198 80.2813 68.7951 80.5847 68.2818 80.79C67.7685 80.9953 67.1898 81.098 66.5458 81.098C65.7245 81.098 65.0011 80.9347 64.3758 80.608C63.7505 80.2813 63.2651 79.8287 62.9198 79.25C62.5838 78.662 62.4158 77.9993 62.4158 77.262C62.4158 76.534 62.5791 75.8807 62.9058 75.302C63.2418 74.714 63.7038 74.2567 64.2918 73.93C64.8798 73.6033 65.5425 73.44 66.2798 73.44C67.0078 73.44 67.6565 73.6033 68.2258 73.93C68.8045 74.2473 69.2525 74.7 69.5698 75.288C69.8965 75.8667 70.0598 76.5387 70.0598 77.304ZM66.2798 74.84C65.7198 74.84 65.2438 75.008 64.8518 75.344C64.4691 75.6707 64.2358 76.1093 64.1518 76.66H68.3938C68.3191 76.1187 68.0905 75.68 67.7078 75.344C67.3251 75.008 66.8491 74.84 66.2798 74.84ZM73.4068 74.616C73.9108 73.832 74.7974 73.44 76.0668 73.44V75.106C75.9174 75.078 75.7821 75.064 75.6608 75.064C74.9794 75.064 74.4474 75.2647 74.0648 75.666C73.6821 76.058 73.4908 76.6273 73.4908 77.374V81H71.7408V73.524H73.4068V74.616ZM84.805 70.612V81H83.125V80.034C82.8356 80.3887 82.4763 80.6547 82.047 80.832C81.627 81.0093 81.1603 81.098 80.647 81.098C79.9283 81.098 79.2796 80.9393 78.701 80.622C78.1316 80.3047 77.6836 79.8567 77.357 79.278C77.0303 78.69 76.867 78.018 76.867 77.262C76.867 76.506 77.0303 75.8387 77.357 75.26C77.6836 74.6813 78.1316 74.2333 78.701 73.916C79.2796 73.5987 79.9283 73.44 80.647 73.44C81.1416 73.44 81.5943 73.524 82.005 73.692C82.4156 73.86 82.7656 74.112 83.055 74.448V70.612H84.805ZM80.857 79.6C81.277 79.6 81.655 79.5067 81.991 79.32C82.327 79.124 82.593 78.8487 82.789 78.494C82.985 78.1393 83.083 77.7287 83.083 77.262C83.083 76.7953 82.985 76.3847 82.789 76.03C82.593 75.6753 82.327 75.4047 81.991 75.218C81.655 75.022 81.277 74.924 80.857 74.924C80.437 74.924 80.059 75.022 79.723 75.218C79.387 75.4047 79.121 75.6753 78.925 76.03C78.729 76.3847 78.631 76.7953 78.631 77.262C78.631 77.7287 78.729 78.1393 78.925 78.494C79.121 78.8487 79.387 79.124 79.723 79.32C80.059 79.5067 80.437 79.6 80.857 79.6ZM94.1223 77.304C94.1223 77.4253 94.113 77.598 94.0943 77.822H88.2283C88.331 78.3727 88.597 78.8113 89.0263 79.138C89.465 79.4553 90.0063 79.614 90.6503 79.614C91.4716 79.614 92.1483 79.3433 92.6803 78.802L93.6183 79.88C93.2823 80.2813 92.8576 80.5847 92.3443 80.79C91.831 80.9953 91.2523 81.098 90.6083 81.098C89.787 81.098 89.0636 80.9347 88.4383 80.608C87.813 80.2813 87.3276 79.8287 86.9823 79.25C86.6463 78.662 86.4783 77.9993 86.4783 77.262C86.4783 76.534 86.6416 75.8807 86.9683 75.302C87.3043 74.714 87.7663 74.2567 88.3543 73.93C88.9423 73.6033 89.605 73.44 90.3423 73.44C91.0703 73.44 91.719 73.6033 92.2883 73.93C92.867 74.2473 93.315 74.7 93.6323 75.288C93.959 75.8667 94.1223 76.5387 94.1223 77.304ZM90.3423 74.84C89.7823 74.84 89.3063 75.008 88.9143 75.344C88.5316 75.6707 88.2983 76.1093 88.2143 76.66H92.4563C92.3816 76.1187 92.153 75.68 91.7703 75.344C91.3876 75.008 90.9116 74.84 90.3423 74.84ZM98.1133 81.098C97.5066 81.098 96.9139 81.0187 96.3353 80.86C95.7566 80.7013 95.2946 80.5007 94.9493 80.258L95.6213 78.928C95.9573 79.152 96.3586 79.334 96.8253 79.474C97.3013 79.6047 97.7679 79.67 98.2253 79.67C99.2706 79.67 99.7933 79.3947 99.7933 78.844C99.7933 78.5827 99.6579 78.4007 99.3873 78.298C99.1259 78.1953 98.7013 78.0973 98.1133 78.004C97.4973 77.9107 96.9933 77.8033 96.6013 77.682C96.2186 77.5607 95.8826 77.3507 95.5933 77.052C95.3133 76.744 95.1733 76.3193 95.1733 75.778C95.1733 75.0687 95.4673 74.504 96.0553 74.084C96.6526 73.6547 97.4553 73.44 98.4633 73.44C98.9766 73.44 99.4899 73.5007 100.003 73.622C100.517 73.734 100.937 73.888 101.263 74.084L100.591 75.414C99.9566 75.0407 99.2426 74.854 98.4493 74.854C97.9359 74.854 97.5439 74.9333 97.2733 75.092C97.0119 75.2413 96.8813 75.442 96.8813 75.694C96.8813 75.974 97.0213 76.1747 97.3013 76.296C97.5906 76.408 98.0339 76.5153 98.6313 76.618C99.2286 76.7113 99.7186 76.8187 100.101 76.94C100.484 77.0613 100.811 77.2667 101.081 77.556C101.361 77.8453 101.501 78.256 101.501 78.788C101.501 79.488 101.198 80.048 100.591 80.468C99.9846 80.888 99.1586 81.098 98.1133 81.098Z" fill="black"/>
<path d="M44.2671 49.5121C44.1586 49.5159 44.0506 49.4973 43.9496 49.4576C43.8487 49.4178 43.757 49.3577 43.6802 49.281C43.6035 49.2042 43.5434 49.1125 43.5037 49.0116C43.4639 48.9106 43.4453 48.8026 43.4492 48.6941V28.4913C43.4453 28.3828 43.4639 28.2748 43.5037 28.1738C43.5434 28.0729 43.6035 27.9812 43.6802 27.9044C43.757 27.8277 43.8487 27.7676 43.9496 27.7278C44.0506 27.6881 44.1586 27.6695 44.2671 27.6733C44.3745 27.6733 44.4809 27.6945 44.5801 27.7356C44.6793 27.7767 44.7695 27.837 44.8455 27.9129C44.9214 27.9889 44.9816 28.079 45.0228 28.1783C45.0639 28.2775 45.085 28.3839 45.085 28.4913V48.6941C45.085 48.9111 44.9988 49.1191 44.8455 49.2725C44.6921 49.4259 44.484 49.5121 44.2671 49.5121Z" fill="black"/>
<path d="M44.2671 35.7163C44.154 35.7133 44.0426 35.6876 43.9395 35.6408C43.8365 35.594 43.7439 35.5269 43.6673 35.4436L40.6409 32.3355C40.4891 32.18 40.4052 31.9706 40.4078 31.7533C40.4103 31.536 40.4991 31.3286 40.6546 31.1768C40.81 31.0249 41.0195 30.9411 41.2368 30.9436C41.4541 30.9462 41.6615 31.0349 41.8133 31.1904L43.4492 32.8808V30.6724C43.4353 30.5498 43.4475 30.4257 43.4851 30.3082C43.5227 30.1907 43.5848 30.0825 43.6673 29.9908L45.7121 27.8096C45.7883 27.7313 45.8795 27.6691 45.9801 27.6265C46.0808 27.584 46.189 27.5621 46.2983 27.5621C46.4076 27.5621 46.5157 27.584 46.6164 27.6265C46.7171 27.6691 46.8082 27.7313 46.8845 27.8096C47.0343 27.9625 47.1183 28.1681 47.1183 28.3822C47.1183 28.5963 47.0343 28.8018 46.8845 28.9547L45.085 30.9996V34.8984C45.0786 35.0613 45.0267 35.2192 44.9352 35.3541C44.8436 35.4891 44.7161 35.5956 44.567 35.6618L44.2671 35.7163Z" fill="black"/>
<path d="M58.9626 49.5121C58.8541 49.5159 58.7461 49.4973 58.6451 49.4576C58.5441 49.4178 58.4524 49.3577 58.3757 49.281C58.299 49.2042 58.2389 49.1125 58.1991 49.0116C58.1594 48.9106 58.1408 48.8026 58.1446 48.6941V27.0735L55.6363 25.0287C55.5588 24.9548 55.497 24.866 55.4549 24.7676C55.4127 24.6692 55.3909 24.5632 55.3909 24.4561C55.3909 24.3491 55.4127 24.2431 55.4549 24.1447C55.497 24.0463 55.5588 23.9574 55.6363 23.8836C55.7892 23.7337 55.9948 23.6498 56.2089 23.6498C56.423 23.6498 56.6285 23.7337 56.7814 23.8836L59.5078 26.1738C59.6854 26.336 59.7929 26.5609 59.8078 26.8009V48.8304C59.7746 49.0278 59.6703 49.2061 59.5146 49.3317C59.3588 49.4573 59.1624 49.5215 58.9626 49.5121Z" fill="black"/>
<path d="M58.9626 28.8457C58.8642 28.8711 58.761 28.8711 58.6627 28.8457C58.5095 28.7853 58.3782 28.6802 58.2858 28.544C58.1933 28.4078 58.1442 28.2469 58.1447 28.0823V23.0384C58.1408 22.93 58.1594 22.8219 58.1992 22.7209C58.2389 22.62 58.299 22.5283 58.3757 22.4516C58.4525 22.3748 58.5442 22.3147 58.6451 22.275C58.7461 22.2352 58.8541 22.2166 58.9626 22.2205C59.07 22.2205 59.1764 22.2416 59.2756 22.2827C59.3748 22.3238 59.465 22.3841 59.5409 22.46C59.6169 22.536 59.6771 22.6261 59.7182 22.7254C59.7594 22.8246 59.7805 22.931 59.7805 23.0384V25.7648L60.7893 24.5379C60.9453 24.3942 61.1497 24.3145 61.3618 24.3145C61.574 24.3145 61.7783 24.3942 61.9344 24.5379C62.0843 24.6908 62.1682 24.8964 62.1682 25.1105C62.1682 25.3246 62.0843 25.5301 61.9344 25.683L59.4806 28.6548C59.3342 28.7746 59.1518 28.8418 58.9626 28.8457Z" fill="black"/>
<path d="M68.1234 49.5121C68.0149 49.5159 67.9069 49.4973 67.8059 49.4576C67.705 49.4178 67.6133 49.3577 67.5365 49.281C67.4598 49.2043 67.3997 49.1126 67.36 49.0116C67.3202 48.9106 67.3016 48.8026 67.3054 48.6941V34.2986C67.3054 34.1924 67.3267 34.0873 67.3681 33.9896C67.4096 33.8918 67.4703 33.8034 67.5466 33.7296C67.6229 33.6558 67.7133 33.5982 67.8124 33.5601C67.9115 33.522 68.0173 33.5043 68.1234 33.5079C68.3357 33.5078 68.5397 33.5902 68.6923 33.7378C68.8449 33.8853 68.9342 34.0864 68.9413 34.2986V48.6941C68.9413 48.9111 68.8551 49.1191 68.7017 49.2725C68.5484 49.4259 68.3403 49.5121 68.1234 49.5121Z" fill="black"/>
<path d="M68.1234 38.5245C67.8866 38.5197 67.6613 38.4217 67.4963 38.2519C67.4188 38.178 67.357 38.0892 67.3148 37.9908C67.2727 37.8924 67.2509 37.7864 67.2509 37.6793C67.2509 37.5722 67.2727 37.4663 67.3148 37.3679C67.357 37.2694 67.4188 37.1806 67.4963 37.1068L69.7865 35.0619C69.9394 34.9121 70.145 34.8281 70.359 34.8281C70.5731 34.8281 70.7787 34.9121 70.9316 35.0619C71.0099 35.1382 71.0722 35.2293 71.1147 35.33C71.1572 35.4307 71.1791 35.5388 71.1791 35.6481C71.1791 35.7574 71.1572 35.8656 71.1147 35.9663C71.0722 36.0669 71.0099 36.1581 70.9316 36.2343L68.6414 38.2519C68.5783 38.3303 68.4998 38.395 68.4107 38.4419C68.3215 38.4888 68.2238 38.5169 68.1234 38.5245Z" fill="black"/>
<path d="M43.6673 40.6239C38.4598 40.6239 34.3701 35.6618 34.3701 29.3092C34.3701 22.9566 38.8415 10.524 44.2671 10.524C49.6927 10.524 52.9372 23.8563 52.9372 29.3092C52.9372 35.6618 48.8748 40.6239 43.6673 40.6239ZM44.2671 12.1599C40.3683 12.1599 36.0878 23.3383 36.0878 29.3092C36.0878 34.762 39.4413 39.0153 43.7491 39.0153C48.0568 39.0153 51.4104 34.7348 51.4104 29.3092C51.2806 25.5821 50.5534 21.9 49.2565 18.4034C47.8115 14.4228 45.9302 12.1599 44.2671 12.1599Z" fill="black"/>
<path d="M59.0989 34.6257C56.3511 34.6599 53.6852 33.6905 51.6012 31.8993C51.5237 31.8254 51.4619 31.7366 51.4197 31.6382C51.3776 31.5398 51.3558 31.4338 51.3558 31.3267C51.3558 31.2197 51.3776 31.1137 51.4197 31.0153C51.4619 30.9169 51.5237 30.828 51.6012 30.7542C51.7541 30.6043 51.9597 30.5204 52.1737 30.5204C52.3878 30.5204 52.5934 30.6043 52.7463 30.7542C54.5284 32.3059 56.8178 33.1498 59.1807 33.1262C60.3794 33.1699 61.5748 32.9741 62.697 32.5504C63.8191 32.1267 64.8456 31.4836 65.7163 30.6585C66.587 29.8335 67.2845 28.8432 67.768 27.7455C68.2516 26.6477 68.5114 25.4646 68.5323 24.2653C68.5323 19.0305 64.7971 8.5883 59.8896 8.5883C56.427 8.5883 52.7736 13.7685 50.9469 18.867C50.9134 18.9688 50.8595 19.0628 50.7886 19.1432C50.7176 19.2237 50.6311 19.2888 50.5342 19.3347C50.4373 19.3806 50.332 19.4063 50.2249 19.4103C50.1177 19.4142 50.0108 19.3963 49.9108 19.3577C49.8089 19.3242 49.7149 19.2704 49.6345 19.1994C49.5541 19.1285 49.489 19.0419 49.4431 18.945C49.3971 18.8481 49.3714 18.7429 49.3675 18.6357C49.3635 18.5285 49.3814 18.4217 49.4201 18.3217C51.3558 12.5416 55.3637 6.84338 59.8078 6.84338C66.0786 6.84338 70.0864 18.2126 70.0864 24.1562C70.0692 25.5702 69.7693 26.9664 69.2045 28.2628C68.6397 29.5592 67.8214 30.7296 66.7976 31.7051C65.7739 32.6806 64.5654 33.4415 63.2433 33.943C61.9211 34.4446 60.512 34.6767 59.0989 34.6257Z" fill="black"/>
<path d="M68.1234 41.1146C67.2488 41.1218 66.3814 40.9557 65.5713 40.626C64.7612 40.2963 64.0244 39.8094 63.4034 39.1935C62.7824 38.5776 62.2895 37.8448 61.9531 37.0374C61.6168 36.23 61.4436 35.364 61.4436 34.4894V33.3443C61.4436 33.2369 61.4648 33.1305 61.5059 33.0313C61.547 32.932 61.6072 32.8419 61.6832 32.7659C61.7592 32.6899 61.8493 32.6297 61.9486 32.5886C62.0478 32.5475 62.1542 32.5263 62.2616 32.5263C62.4763 32.5332 62.6804 32.6215 62.8324 32.7735C62.9843 32.9254 63.0727 33.1295 63.0795 33.3443V34.4894C63.0795 35.4762 63.3721 36.4408 63.9204 37.2613C64.4686 38.0818 65.2478 38.7213 66.1595 39.0989C67.0712 39.4766 68.0744 39.5754 69.0422 39.3829C70.0101 39.1904 70.8991 38.7152 71.5969 38.0174C72.2947 37.3196 72.7698 36.4306 72.9624 35.4627C73.1549 34.4949 73.0561 33.4917 72.6784 32.58C72.3008 31.6683 71.6613 30.8891 70.8408 30.3409C70.0203 29.7926 69.0557 29.5 68.0689 29.5C67.9604 29.5038 67.8524 29.4853 67.7514 29.4455C67.6504 29.4057 67.5588 29.3456 67.482 29.2689C67.4053 29.1922 67.3452 29.1005 67.3054 28.9995C67.2657 28.8986 67.2471 28.7905 67.2509 28.6821C67.2509 28.5747 67.2721 28.4683 67.3132 28.3691C67.3543 28.2698 67.4145 28.1797 67.4905 28.1037C67.5665 28.0277 67.6566 27.9675 67.7559 27.9264C67.8551 27.8853 67.9615 27.8641 68.0689 27.8641C69.826 27.8641 71.5111 28.5621 72.7536 29.8046C73.9961 31.0471 74.6941 32.7322 74.6941 34.4894C74.6941 36.2465 73.9961 37.9316 72.7536 39.1741C71.5111 40.4166 69.826 41.1146 68.0689 41.1146H68.1234Z" fill="black"/>
<rect y="30" width="110" height="57" fill="#E6E6E6"/>
<path d="M15.8116 78.732H10.9116L9.94565 81H8.06965L12.4796 71.2H14.2716L18.6956 81H16.7916L15.8116 78.732ZM15.2096 77.304L13.3616 73.02L11.5276 77.304H15.2096ZM14.0896 68.484H16.1476L13.7116 70.402H12.1996L14.0896 68.484ZM21.44 74.616C21.944 73.832 22.8306 73.44 24.1 73.44V75.106C23.9506 75.078 23.8153 75.064 23.694 75.064C23.0126 75.064 22.4806 75.2647 22.098 75.666C21.7153 76.058 21.524 76.6273 21.524 77.374V81H19.774V73.524H21.44V74.616ZM32.5442 77.304C32.5442 77.4253 32.5348 77.598 32.5162 77.822H26.6502C26.7528 78.3727 27.0188 78.8113 27.4482 79.138C27.8868 79.4553 28.4282 79.614 29.0722 79.614C29.8935 79.614 30.5702 79.3433 31.1022 78.802L32.0402 79.88C31.7042 80.2813 31.2795 80.5847 30.7662 80.79C30.2528 80.9953 29.6742 81.098 29.0302 81.098C28.2088 81.098 27.4855 80.9347 26.8602 80.608C26.2348 80.2813 25.7495 79.8287 25.4042 79.25C25.0682 78.662 24.9002 77.9993 24.9002 77.262C24.9002 76.534 25.0635 75.8807 25.3902 75.302C25.7262 74.714 26.1882 74.2567 26.7762 73.93C27.3642 73.6033 28.0268 73.44 28.7642 73.44C29.4922 73.44 30.1408 73.6033 30.7102 73.93C31.2888 74.2473 31.7368 74.7 32.0542 75.288C32.3808 75.8667 32.5442 76.5387 32.5442 77.304ZM28.7642 74.84C28.2042 74.84 27.7282 75.008 27.3362 75.344C26.9535 75.6707 26.7202 76.1093 26.6362 76.66H30.8782C30.8035 76.1187 30.5748 75.68 30.1922 75.344C29.8095 75.008 29.3335 74.84 28.7642 74.84ZM36.8761 73.44C37.9774 73.44 38.8174 73.706 39.3961 74.238C39.9841 74.7607 40.2781 75.554 40.2781 76.618V81H38.6261V80.09C38.4114 80.4167 38.1034 80.6687 37.7021 80.846C37.3101 81.014 36.8341 81.098 36.2741 81.098C35.7141 81.098 35.2241 81.0047 34.8041 80.818C34.3841 80.622 34.0574 80.356 33.8241 80.02C33.6001 79.6747 33.4881 79.2873 33.4881 78.858C33.4881 78.186 33.7354 77.6493 34.2301 77.248C34.7341 76.8373 35.5227 76.632 36.5961 76.632H38.5281V76.52C38.5281 75.9973 38.3694 75.596 38.0521 75.316C37.7441 75.036 37.2821 74.896 36.6661 74.896C36.2461 74.896 35.8307 74.9613 35.4201 75.092C35.0187 75.2227 34.6781 75.4047 34.3981 75.638L33.7121 74.364C34.1041 74.0653 34.5754 73.8367 35.1261 73.678C35.6767 73.5193 36.2601 73.44 36.8761 73.44ZM36.6381 79.824C37.0767 79.824 37.4641 79.726 37.8001 79.53C38.1454 79.3247 38.3881 79.0353 38.5281 78.662V77.794H36.7221C35.7141 77.794 35.2101 78.1253 35.2101 78.788C35.2101 79.1053 35.3361 79.3573 35.5881 79.544C35.8401 79.7307 36.1901 79.824 36.6381 79.824ZM44.834 81.098C44.2273 81.098 43.6346 81.0187 43.056 80.86C42.4773 80.7013 42.0153 80.5007 41.67 80.258L42.342 78.928C42.678 79.152 43.0793 79.334 43.546 79.474C44.022 79.6047 44.4886 79.67 44.946 79.67C45.9913 79.67 46.514 79.3947 46.514 78.844C46.514 78.5827 46.3786 78.4007 46.108 78.298C45.8466 78.1953 45.422 78.0973 44.834 78.004C44.218 77.9107 43.714 77.8033 43.322 77.682C42.9393 77.5607 42.6033 77.3507 42.314 77.052C42.034 76.744 41.894 76.3193 41.894 75.778C41.894 75.0687 42.188 74.504 42.776 74.084C43.3733 73.6547 44.176 73.44 45.184 73.44C45.6973 73.44 46.2106 73.5007 46.724 73.622C47.2373 73.734 47.6573 73.888 47.984 74.084L47.312 75.414C46.6773 75.0407 45.9633 74.854 45.17 74.854C44.6566 74.854 44.2646 74.9333 43.994 75.092C43.7326 75.2413 43.602 75.442 43.602 75.694C43.602 75.974 43.742 76.1747 44.022 76.296C44.3113 76.408 44.7546 76.5153 45.352 76.618C45.9493 76.7113 46.4393 76.8187 46.822 76.94C47.2046 77.0613 47.5313 77.2667 47.802 77.556C48.082 77.8453 48.222 78.256 48.222 78.788C48.222 79.488 47.9186 80.048 47.312 80.468C46.7053 80.888 45.8793 81.098 44.834 81.098ZM62.7262 71.2L58.4562 81H56.6642L52.3802 71.2H54.3542L57.6162 78.76L60.9062 71.2H62.7262ZM70.0598 77.304C70.0598 77.4253 70.0505 77.598 70.0318 77.822H64.1658C64.2685 78.3727 64.5345 78.8113 64.9638 79.138C65.4025 79.4553 65.9438 79.614 66.5878 79.614C67.4091 79.614 68.0858 79.3433 68.6178 78.802L69.5558 79.88C69.2198 80.2813 68.7951 80.5847 68.2818 80.79C67.7685 80.9953 67.1898 81.098 66.5458 81.098C65.7245 81.098 65.0011 80.9347 64.3758 80.608C63.7505 80.2813 63.2651 79.8287 62.9198 79.25C62.5838 78.662 62.4158 77.9993 62.4158 77.262C62.4158 76.534 62.5791 75.8807 62.9058 75.302C63.2418 74.714 63.7038 74.2567 64.2918 73.93C64.8798 73.6033 65.5425 73.44 66.2798 73.44C67.0078 73.44 67.6565 73.6033 68.2258 73.93C68.8045 74.2473 69.2525 74.7 69.5698 75.288C69.8965 75.8667 70.0598 76.5387 70.0598 77.304ZM66.2798 74.84C65.7198 74.84 65.2438 75.008 64.8518 75.344C64.4691 75.6707 64.2358 76.1093 64.1518 76.66H68.3938C68.3191 76.1187 68.0905 75.68 67.7078 75.344C67.3251 75.008 66.8491 74.84 66.2798 74.84ZM73.4068 74.616C73.9108 73.832 74.7974 73.44 76.0668 73.44V75.106C75.9174 75.078 75.7821 75.064 75.6608 75.064C74.9794 75.064 74.4474 75.2647 74.0648 75.666C73.6821 76.058 73.4908 76.6273 73.4908 77.374V81H71.7408V73.524H73.4068V74.616ZM84.805 70.612V81H83.125V80.034C82.8356 80.3887 82.4763 80.6547 82.047 80.832C81.627 81.0093 81.1603 81.098 80.647 81.098C79.9283 81.098 79.2796 80.9393 78.701 80.622C78.1316 80.3047 77.6836 79.8567 77.357 79.278C77.0303 78.69 76.867 78.018 76.867 77.262C76.867 76.506 77.0303 75.8387 77.357 75.26C77.6836 74.6813 78.1316 74.2333 78.701 73.916C79.2796 73.5987 79.9283 73.44 80.647 73.44C81.1416 73.44 81.5943 73.524 82.005 73.692C82.4156 73.86 82.7656 74.112 83.055 74.448V70.612H84.805ZM80.857 79.6C81.277 79.6 81.655 79.5067 81.991 79.32C82.327 79.124 82.593 78.8487 82.789 78.494C82.985 78.1393 83.083 77.7287 83.083 77.262C83.083 76.7953 82.985 76.3847 82.789 76.03C82.593 75.6753 82.327 75.4047 81.991 75.218C81.655 75.022 81.277 74.924 80.857 74.924C80.437 74.924 80.059 75.022 79.723 75.218C79.387 75.4047 79.121 75.6753 78.925 76.03C78.729 76.3847 78.631 76.7953 78.631 77.262C78.631 77.7287 78.729 78.1393 78.925 78.494C79.121 78.8487 79.387 79.124 79.723 79.32C80.059 79.5067 80.437 79.6 80.857 79.6ZM94.1223 77.304C94.1223 77.4253 94.113 77.598 94.0943 77.822H88.2283C88.331 78.3727 88.597 78.8113 89.0263 79.138C89.465 79.4553 90.0063 79.614 90.6503 79.614C91.4716 79.614 92.1483 79.3433 92.6803 78.802L93.6183 79.88C93.2823 80.2813 92.8576 80.5847 92.3443 80.79C91.831 80.9953 91.2523 81.098 90.6083 81.098C89.787 81.098 89.0636 80.9347 88.4383 80.608C87.813 80.2813 87.3276 79.8287 86.9823 79.25C86.6463 78.662 86.4783 77.9993 86.4783 77.262C86.4783 76.534 86.6416 75.8807 86.9683 75.302C87.3043 74.714 87.7663 74.2567 88.3543 73.93C88.9423 73.6033 89.605 73.44 90.3423 73.44C91.0703 73.44 91.719 73.6033 92.2883 73.93C92.867 74.2473 93.315 74.7 93.6323 75.288C93.959 75.8667 94.1223 76.5387 94.1223 77.304ZM90.3423 74.84C89.7823 74.84 89.3063 75.008 88.9143 75.344C88.5316 75.6707 88.2983 76.1093 88.2143 76.66H92.4563C92.3816 76.1187 92.153 75.68 91.7703 75.344C91.3876 75.008 90.9116 74.84 90.3423 74.84ZM98.1133 81.098C97.5066 81.098 96.9139 81.0187 96.3353 80.86C95.7566 80.7013 95.2946 80.5007 94.9493 80.258L95.6213 78.928C95.9573 79.152 96.3586 79.334 96.8253 79.474C97.3013 79.6047 97.7679 79.67 98.2253 79.67C99.2706 79.67 99.7933 79.3947 99.7933 78.844C99.7933 78.5827 99.6579 78.4007 99.3873 78.298C99.1259 78.1953 98.7013 78.0973 98.1133 78.004C97.4973 77.9107 96.9933 77.8033 96.6013 77.682C96.2186 77.5607 95.8826 77.3507 95.5933 77.052C95.3133 76.744 95.1733 76.3193 95.1733 75.778C95.1733 75.0687 95.4673 74.504 96.0553 74.084C96.6526 73.6547 97.4553 73.44 98.4633 73.44C98.9766 73.44 99.4899 73.5007 100.003 73.622C100.517 73.734 100.937 73.888 101.263 74.084L100.591 75.414C99.9566 75.0407 99.2426 74.854 98.4493 74.854C97.9359 74.854 97.5439 74.9333 97.2733 75.092C97.0119 75.2413 96.8813 75.442 96.8813 75.694C96.8813 75.974 97.0213 76.1747 97.3013 76.296C97.5906 76.408 98.0339 76.5153 98.6313 76.618C99.2286 76.7113 99.7186 76.8187 100.101 76.94C100.484 77.0613 100.811 77.2667 101.081 77.556C101.361 77.8453 101.501 78.256 101.501 78.788C101.501 79.488 101.198 80.048 100.591 80.468C99.9846 80.888 99.1586 81.098 98.1133 81.098Z" fill="black"/>
<path d="M44.2671 49.5121C44.1586 49.5159 44.0506 49.4973 43.9496 49.4576C43.8487 49.4178 43.757 49.3577 43.6802 49.281C43.6035 49.2042 43.5434 49.1125 43.5037 49.0116C43.4639 48.9106 43.4453 48.8026 43.4492 48.6941V28.4913C43.4453 28.3828 43.4639 28.2748 43.5037 28.1738C43.5434 28.0729 43.6035 27.9812 43.6802 27.9044C43.757 27.8277 43.8487 27.7676 43.9496 27.7278C44.0506 27.6881 44.1586 27.6695 44.2671 27.6733C44.3745 27.6733 44.4809 27.6945 44.5801 27.7356C44.6793 27.7767 44.7695 27.837 44.8455 27.9129C44.9214 27.9889 44.9816 28.079 45.0228 28.1783C45.0639 28.2775 45.085 28.3839 45.085 28.4913V48.6941C45.085 48.9111 44.9988 49.1191 44.8455 49.2725C44.6921 49.4259 44.484 49.5121 44.2671 49.5121Z" fill="black"/>
<path d="M44.2671 35.7163C44.154 35.7133 44.0426 35.6876 43.9395 35.6408C43.8365 35.594 43.7439 35.5269 43.6673 35.4436L40.6409 32.3355C40.4891 32.18 40.4052 31.9706 40.4078 31.7533C40.4103 31.536 40.4991 31.3286 40.6546 31.1768C40.81 31.0249 41.0195 30.9411 41.2368 30.9436C41.4541 30.9462 41.6615 31.0349 41.8133 31.1904L43.4492 32.8808V30.6724C43.4353 30.5498 43.4475 30.4257 43.4851 30.3082C43.5227 30.1907 43.5848 30.0825 43.6673 29.9908L45.7121 27.8096C45.7883 27.7313 45.8795 27.6691 45.9801 27.6265C46.0808 27.584 46.189 27.5621 46.2983 27.5621C46.4076 27.5621 46.5157 27.584 46.6164 27.6265C46.7171 27.6691 46.8082 27.7313 46.8845 27.8096C47.0343 27.9625 47.1183 28.1681 47.1183 28.3822C47.1183 28.5963 47.0343 28.8018 46.8845 28.9547L45.085 30.9996V34.8984C45.0786 35.0613 45.0267 35.2192 44.9352 35.3541C44.8436 35.4891 44.7161 35.5956 44.567 35.6618L44.2671 35.7163Z" fill="black"/>
<path d="M58.9626 49.5121C58.8541 49.5159 58.7461 49.4973 58.6451 49.4576C58.5441 49.4178 58.4524 49.3577 58.3757 49.281C58.299 49.2042 58.2389 49.1125 58.1991 49.0116C58.1594 48.9106 58.1408 48.8026 58.1446 48.6941V27.0735L55.6363 25.0287C55.5588 24.9548 55.497 24.866 55.4549 24.7676C55.4127 24.6692 55.3909 24.5632 55.3909 24.4561C55.3909 24.3491 55.4127 24.2431 55.4549 24.1447C55.497 24.0463 55.5588 23.9574 55.6363 23.8836C55.7892 23.7337 55.9948 23.6498 56.2089 23.6498C56.423 23.6498 56.6285 23.7337 56.7814 23.8836L59.5078 26.1738C59.6854 26.336 59.7929 26.5609 59.8078 26.8009V48.8304C59.7746 49.0278 59.6703 49.2061 59.5146 49.3317C59.3588 49.4573 59.1624 49.5215 58.9626 49.5121Z" fill="black"/>
<path d="M58.9626 28.8457C58.8642 28.8711 58.761 28.8711 58.6627 28.8457C58.5095 28.7853 58.3782 28.6802 58.2858 28.544C58.1933 28.4078 58.1442 28.2469 58.1447 28.0823V23.0384C58.1408 22.93 58.1594 22.8219 58.1992 22.7209C58.2389 22.62 58.299 22.5283 58.3757 22.4516C58.4525 22.3748 58.5442 22.3147 58.6451 22.275C58.7461 22.2352 58.8541 22.2166 58.9626 22.2205C59.07 22.2205 59.1764 22.2416 59.2756 22.2827C59.3748 22.3238 59.465 22.3841 59.5409 22.46C59.6169 22.536 59.6771 22.6261 59.7182 22.7254C59.7594 22.8246 59.7805 22.931 59.7805 23.0384V25.7648L60.7893 24.5379C60.9453 24.3942 61.1497 24.3145 61.3618 24.3145C61.574 24.3145 61.7783 24.3942 61.9344 24.5379C62.0843 24.6908 62.1682 24.8964 62.1682 25.1105C62.1682 25.3246 62.0843 25.5301 61.9344 25.683L59.4806 28.6548C59.3342 28.7746 59.1518 28.8418 58.9626 28.8457Z" fill="black"/>
<path d="M68.1234 49.5121C68.0149 49.5159 67.9069 49.4973 67.8059 49.4576C67.705 49.4178 67.6133 49.3577 67.5365 49.281C67.4598 49.2043 67.3997 49.1126 67.36 49.0116C67.3202 48.9106 67.3016 48.8026 67.3054 48.6941V34.2986C67.3054 34.1924 67.3267 34.0873 67.3681 33.9896C67.4096 33.8918 67.4703 33.8034 67.5466 33.7296C67.6229 33.6558 67.7133 33.5982 67.8124 33.5601C67.9115 33.522 68.0173 33.5043 68.1234 33.5079C68.3357 33.5078 68.5397 33.5902 68.6923 33.7378C68.8449 33.8853 68.9342 34.0864 68.9413 34.2986V48.6941C68.9413 48.9111 68.8551 49.1191 68.7017 49.2725C68.5484 49.4259 68.3403 49.5121 68.1234 49.5121Z" fill="black"/>
<path d="M68.1234 38.5245C67.8866 38.5197 67.6613 38.4217 67.4963 38.2519C67.4188 38.178 67.357 38.0892 67.3148 37.9908C67.2727 37.8924 67.2509 37.7864 67.2509 37.6793C67.2509 37.5722 67.2727 37.4663 67.3148 37.3679C67.357 37.2694 67.4188 37.1806 67.4963 37.1068L69.7865 35.0619C69.9394 34.9121 70.145 34.8281 70.359 34.8281C70.5731 34.8281 70.7787 34.9121 70.9316 35.0619C71.0099 35.1382 71.0722 35.2293 71.1147 35.33C71.1572 35.4307 71.1791 35.5388 71.1791 35.6481C71.1791 35.7574 71.1572 35.8656 71.1147 35.9663C71.0722 36.0669 71.0099 36.1581 70.9316 36.2343L68.6414 38.2519C68.5783 38.3303 68.4998 38.395 68.4107 38.4419C68.3215 38.4888 68.2238 38.5169 68.1234 38.5245Z" fill="black"/>
<path d="M43.6673 40.6239C38.4598 40.6239 34.3701 35.6618 34.3701 29.3092C34.3701 22.9566 38.8415 10.524 44.2671 10.524C49.6927 10.524 52.9372 23.8563 52.9372 29.3092C52.9372 35.6618 48.8748 40.6239 43.6673 40.6239ZM44.2671 12.1599C40.3683 12.1599 36.0878 23.3383 36.0878 29.3092C36.0878 34.762 39.4413 39.0153 43.7491 39.0153C48.0568 39.0153 51.4104 34.7348 51.4104 29.3092C51.2806 25.5821 50.5534 21.9 49.2565 18.4034C47.8115 14.4228 45.9302 12.1599 44.2671 12.1599Z" fill="black"/>
<path d="M59.0989 34.6257C56.3511 34.6599 53.6852 33.6905 51.6012 31.8993C51.5237 31.8254 51.4619 31.7366 51.4197 31.6382C51.3776 31.5398 51.3558 31.4338 51.3558 31.3267C51.3558 31.2197 51.3776 31.1137 51.4197 31.0153C51.4619 30.9169 51.5237 30.828 51.6012 30.7542C51.7541 30.6043 51.9597 30.5204 52.1737 30.5204C52.3878 30.5204 52.5934 30.6043 52.7463 30.7542C54.5284 32.3059 56.8178 33.1498 59.1807 33.1262C60.3794 33.1699 61.5748 32.9741 62.697 32.5504C63.8191 32.1267 64.8456 31.4836 65.7163 30.6585C66.587 29.8335 67.2845 28.8432 67.768 27.7455C68.2516 26.6477 68.5114 25.4646 68.5323 24.2653C68.5323 19.0305 64.7971 8.5883 59.8896 8.5883C56.427 8.5883 52.7736 13.7685 50.9469 18.867C50.9134 18.9688 50.8595 19.0628 50.7886 19.1432C50.7176 19.2237 50.6311 19.2888 50.5342 19.3347C50.4373 19.3806 50.332 19.4063 50.2249 19.4103C50.1177 19.4142 50.0108 19.3963 49.9108 19.3577C49.8089 19.3242 49.7149 19.2704 49.6345 19.1994C49.5541 19.1285 49.489 19.0419 49.4431 18.945C49.3971 18.8481 49.3714 18.7429 49.3675 18.6357C49.3635 18.5285 49.3814 18.4217 49.4201 18.3217C51.3558 12.5416 55.3637 6.84338 59.8078 6.84338C66.0786 6.84338 70.0864 18.2126 70.0864 24.1562C70.0692 25.5702 69.7693 26.9664 69.2045 28.2628C68.6397 29.5592 67.8214 30.7296 66.7976 31.7051C65.7739 32.6806 64.5654 33.4415 63.2433 33.943C61.9211 34.4446 60.512 34.6767 59.0989 34.6257Z" fill="black"/>
<path d="M68.1234 41.1146C67.2488 41.1218 66.3814 40.9557 65.5713 40.626C64.7612 40.2963 64.0244 39.8094 63.4034 39.1935C62.7824 38.5776 62.2895 37.8448 61.9531 37.0374C61.6168 36.23 61.4436 35.364 61.4436 34.4894V33.3443C61.4436 33.2369 61.4648 33.1305 61.5059 33.0313C61.547 32.932 61.6072 32.8419 61.6832 32.7659C61.7592 32.6899 61.8493 32.6297 61.9486 32.5886C62.0478 32.5475 62.1542 32.5263 62.2616 32.5263C62.4763 32.5332 62.6804 32.6215 62.8324 32.7735C62.9843 32.9254 63.0727 33.1295 63.0795 33.3443V34.4894C63.0795 35.4762 63.3721 36.4408 63.9204 37.2613C64.4686 38.0818 65.2478 38.7213 66.1595 39.0989C67.0712 39.4766 68.0744 39.5754 69.0422 39.3829C70.0101 39.1904 70.8991 38.7152 71.5969 38.0174C72.2947 37.3196 72.7698 36.4306 72.9624 35.4627C73.1549 34.4949 73.0561 33.4917 72.6784 32.58C72.3008 31.6683 71.6613 30.8891 70.8408 30.3409C70.0203 29.7926 69.0557 29.5 68.0689 29.5C67.9604 29.5038 67.8524 29.4853 67.7514 29.4455C67.6504 29.4057 67.5588 29.3456 67.482 29.2689C67.4053 29.1922 67.3452 29.1005 67.3054 28.9995C67.2657 28.8986 67.2471 28.7905 67.2509 28.6821C67.2509 28.5747 67.2721 28.4683 67.3132 28.3691C67.3543 28.2698 67.4145 28.1797 67.4905 28.1037C67.5665 28.0277 67.6566 27.9675 67.7559 27.9264C67.8551 27.8853 67.9615 27.8641 68.0689 27.8641C69.826 27.8641 71.5111 28.5621 72.7536 29.8046C73.9961 31.0471 74.6941 32.7322 74.6941 34.4894C74.6941 36.2465 73.9961 37.9316 72.7536 39.1741C71.5111 40.4166 69.826 41.1146 68.0689 41.1146H68.1234Z" fill="black"/>
</svg>
