<svg width="88" height="89" viewBox="0 0 88 89" fill="none" xmlns="http://www.w3.org/2000/svg">
<rect y="32" width="88" height="57" fill="#E6E6E6"/>
<path d="M30.7424 77.904C31.2838 78.0813 31.7131 78.38 32.0304 78.8C32.3478 79.2107 32.5064 79.724 32.5064 80.34C32.5064 81.1893 32.1798 81.8473 31.5264 82.314C30.8731 82.7713 29.9211 83 28.6704 83H23.7984V73.2H28.3904C29.5478 73.2 30.4391 73.4287 31.0644 73.886C31.6898 74.334 32.0024 74.9547 32.0024 75.748C32.0024 76.2333 31.8904 76.6627 31.6664 77.036C31.4424 77.4093 31.1344 77.6987 30.7424 77.904ZM25.6184 74.628V77.33H28.1944C28.8291 77.33 29.3144 77.218 29.6504 76.994C29.9958 76.7607 30.1684 76.4247 30.1684 75.986C30.1684 75.538 29.9958 75.202 29.6504 74.978C29.3144 74.7447 28.8291 74.628 28.1944 74.628H25.6184ZM28.5584 81.572C29.9678 81.572 30.6724 81.1007 30.6724 80.158C30.6724 79.2153 29.9678 78.744 28.5584 78.744H25.6184V81.572H28.5584ZM37.1368 75.44C38.2381 75.44 39.0781 75.706 39.6568 76.238C40.2448 76.7607 40.5388 77.554 40.5388 78.618V83H38.8868V82.09C38.6721 82.4167 38.3641 82.6687 37.9628 82.846C37.5708 83.014 37.0948 83.098 36.5348 83.098C35.9748 83.098 35.4848 83.0047 35.0648 82.818C34.6448 82.622 34.3181 82.356 34.0848 82.02C33.8608 81.6747 33.7488 81.2873 33.7488 80.858C33.7488 80.186 33.9961 79.6493 34.4908 79.248C34.9948 78.8373 35.7835 78.632 36.8568 78.632H38.7888V78.52C38.7888 77.9973 38.6301 77.596 38.3128 77.316C38.0048 77.036 37.5428 76.896 36.9268 76.896C36.5068 76.896 36.0915 76.9613 35.6808 77.092C35.2795 77.2227 34.9388 77.4047 34.6588 77.638L33.9728 76.364C34.3648 76.0653 34.8361 75.8367 35.3868 75.678C35.9375 75.5193 36.5208 75.44 37.1368 75.44ZM36.8988 81.824C37.3375 81.824 37.7248 81.726 38.0608 81.53C38.4061 81.3247 38.6488 81.0353 38.7888 80.662V79.794H36.9828C35.9748 79.794 35.4708 80.1253 35.4708 80.788C35.4708 81.1053 35.5968 81.3573 35.8488 81.544C36.1008 81.7307 36.4508 81.824 36.8988 81.824ZM47.0267 75.44C47.9694 75.44 48.7254 75.7153 49.2947 76.266C49.8641 76.8167 50.1487 77.6333 50.1487 78.716V83H48.3987V78.94C48.3987 78.2867 48.2447 77.7967 47.9367 77.47C47.6287 77.134 47.1901 76.966 46.6207 76.966C45.9767 76.966 45.4681 77.162 45.0947 77.554C44.7214 77.9367 44.5347 78.492 44.5347 79.22V83H42.7847V75.524H44.4507V76.49C44.7401 76.1447 45.1041 75.8833 45.5427 75.706C45.9814 75.5287 46.4761 75.44 47.0267 75.44ZM47.4747 74.502C47.2414 74.502 47.0361 74.4553 46.8587 74.362C46.6907 74.2687 46.4807 74.1287 46.2287 73.942C46.0794 73.8207 45.9534 73.732 45.8507 73.676C45.7574 73.6107 45.6641 73.578 45.5707 73.578C45.3747 73.578 45.2114 73.6527 45.0807 73.802C44.9594 73.9513 44.8941 74.1567 44.8847 74.418H43.9467C43.9561 73.8487 44.0961 73.396 44.3667 73.06C44.6467 72.7147 45.0107 72.542 45.4587 72.542C45.6921 72.542 45.8927 72.5887 46.0607 72.682C46.2381 72.7753 46.4527 72.9153 46.7047 73.102C46.8541 73.2233 46.9754 73.3167 47.0687 73.382C47.1714 73.438 47.2694 73.466 47.3627 73.466C47.5587 73.466 47.7174 73.396 47.8387 73.256C47.9694 73.116 48.0394 72.92 48.0487 72.668H48.9867C48.9681 73.2187 48.8234 73.662 48.5527 73.998C48.2821 74.334 47.9227 74.502 47.4747 74.502ZM55.7971 83.098C55.0411 83.098 54.3597 82.9347 53.7531 82.608C53.1464 82.2813 52.6704 81.8287 52.3251 81.25C51.9891 80.662 51.8211 79.9993 51.8211 79.262C51.8211 78.5247 51.9891 77.8667 52.3251 77.288C52.6704 76.7093 53.1464 76.2567 53.7531 75.93C54.3597 75.6033 55.0411 75.44 55.7971 75.44C56.5624 75.44 57.2484 75.6033 57.8551 75.93C58.4617 76.2567 58.9331 76.7093 59.2691 77.288C59.6144 77.8667 59.7871 78.5247 59.7871 79.262C59.7871 79.9993 59.6144 80.662 59.2691 81.25C58.9331 81.8287 58.4617 82.2813 57.8551 82.608C57.2484 82.9347 56.5624 83.098 55.7971 83.098ZM55.7971 81.6C56.4411 81.6 56.9731 81.3853 57.3931 80.956C57.8131 80.5267 58.0231 79.962 58.0231 79.262C58.0231 78.562 57.8131 77.9973 57.3931 77.568C56.9731 77.1387 56.4411 76.924 55.7971 76.924C55.1531 76.924 54.6211 77.1387 54.2011 77.568C53.7904 77.9973 53.5851 78.562 53.5851 79.262C53.5851 79.962 53.7904 80.5267 54.2011 80.956C54.6211 81.3853 55.1531 81.6 55.7971 81.6ZM63.7705 83.098C63.1638 83.098 62.5712 83.0187 61.9925 82.86C61.4138 82.7013 60.9518 82.5007 60.6065 82.258L61.2785 80.928C61.6145 81.152 62.0158 81.334 62.4825 81.474C62.9585 81.6047 63.4252 81.67 63.8825 81.67C64.9278 81.67 65.4505 81.3947 65.4505 80.844C65.4505 80.5827 65.3152 80.4007 65.0445 80.298C64.7832 80.1953 64.3585 80.0973 63.7705 80.004C63.1545 79.9107 62.6505 79.8033 62.2585 79.682C61.8758 79.5607 61.5398 79.3507 61.2505 79.052C60.9705 78.744 60.8305 78.3193 60.8305 77.778C60.8305 77.0687 61.1245 76.504 61.7125 76.084C62.3098 75.6547 63.1125 75.44 64.1205 75.44C64.6338 75.44 65.1472 75.5007 65.6605 75.622C66.1738 75.734 66.5938 75.888 66.9205 76.084L66.2485 77.414C65.6138 77.0407 64.8998 76.854 64.1065 76.854C63.5932 76.854 63.2012 76.9333 62.9305 77.092C62.6692 77.2413 62.5385 77.442 62.5385 77.694C62.5385 77.974 62.6785 78.1747 62.9585 78.296C63.2478 78.408 63.6912 78.5153 64.2885 78.618C64.8858 78.7113 65.3758 78.8187 65.7585 78.94C66.1412 79.0613 66.4678 79.2667 66.7385 79.556C67.0185 79.8453 67.1585 80.256 67.1585 80.788C67.1585 81.488 66.8552 82.048 66.2485 82.468C65.6418 82.888 64.8158 83.098 63.7705 83.098Z" fill="black"/>
<path d="M39.4737 38.6881H25.8415C25.6273 38.6978 25.4139 38.6558 25.2193 38.5656C25.0247 38.4754 24.8547 38.3398 24.7237 38.17C24.592 38.0031 24.5013 37.8076 24.4587 37.5993C24.4161 37.391 24.4228 37.1757 24.4783 36.9704L28.5407 22.2477C28.6183 21.9594 28.7883 21.7046 29.0247 21.5224C29.2612 21.3402 29.5509 21.2406 29.8493 21.2389H35.3022C35.6007 21.2406 35.8904 21.3402 36.1268 21.5224C36.3632 21.7046 36.5333 21.9594 36.6109 22.2477L40.6733 36.9704C40.7288 37.1757 40.7355 37.391 40.6929 37.5993C40.6503 37.8076 40.5595 38.0031 40.4279 38.17C40.314 38.3184 40.1702 38.4411 40.0058 38.5304C39.8414 38.6196 39.6601 38.6733 39.4737 38.6881ZM26.1687 37.0795H39.1192L35.2204 22.8748H30.0675L26.1687 37.0795Z" fill="black"/>
<path d="M34.8115 49.3484H31.2398C30.883 49.3485 30.5403 49.2086 30.2854 48.9588C30.0305 48.709 29.8838 48.3692 29.8766 48.0124V37.8701C29.8837 37.6579 29.973 37.4568 30.1256 37.3093C30.2782 37.1618 30.4823 37.0793 30.6945 37.0794H35.275C35.3811 37.0758 35.4868 37.0935 35.5859 37.1316C35.685 37.1697 35.7754 37.2274 35.8517 37.3012C35.9281 37.375 35.9888 37.4634 36.0302 37.5611C36.0716 37.6589 36.0929 37.7639 36.0929 37.8701V48.0124C36.0932 48.3575 35.9599 48.6893 35.7211 48.9383C35.4822 49.1874 35.1562 49.3343 34.8115 49.3484ZM31.5943 47.7398H34.457V38.688H31.5125L31.5943 47.7398Z" fill="black"/>
<path d="M32.6303 19.9029C31.6974 19.9029 30.7855 19.6263 30.0098 19.108C29.2342 18.5897 28.6296 17.8531 28.2726 16.9912C27.9156 16.1294 27.8222 15.181 28.0042 14.266C28.1862 13.3511 28.6354 12.5106 29.2951 11.851C29.9547 11.1913 30.7952 10.7421 31.7101 10.5601C32.6251 10.3781 33.5734 10.4715 34.4353 10.8285C35.2972 11.1855 36.0338 11.7901 36.5521 12.5657C37.0704 13.3414 37.347 14.2533 37.347 15.1862C37.347 16.4372 36.8501 17.6369 35.9655 18.5214C35.081 19.406 33.8813 19.9029 32.6303 19.9029ZM32.6303 12.0781C32.0156 12.0781 31.4146 12.2604 30.9035 12.6019C30.3924 12.9434 29.994 13.4288 29.7588 13.9968C29.5235 14.5647 29.462 15.1897 29.5819 15.7926C29.7018 16.3955 29.9978 16.9493 30.4325 17.384C30.8672 17.8187 31.421 18.1147 32.0239 18.2346C32.6269 18.3546 33.2518 18.293 33.8197 18.0578C34.3877 17.8225 34.8731 17.4241 35.2146 16.913C35.5561 16.4019 35.7384 15.8009 35.7384 15.1862C35.7421 14.777 35.6642 14.3712 35.5093 13.9925C35.3543 13.6138 35.1255 13.2697 34.8362 12.9803C34.5468 12.691 34.2028 12.4622 33.824 12.3073C33.4453 12.1524 33.0395 12.0744 32.6303 12.0781Z" fill="black"/>
<path d="M53.8965 49.3484H50.4884C50.1341 49.3484 49.7943 49.2077 49.5438 48.9571C49.2932 48.7066 49.1525 48.3668 49.1525 48.0125V37.8701C49.1525 37.6604 49.2358 37.4593 49.3841 37.311C49.5324 37.1628 49.7335 37.0795 49.9432 37.0795H54.5508C54.7631 37.0793 54.9671 37.1618 55.1198 37.3093C55.2724 37.4569 55.3617 37.658 55.3688 37.8701V48.0125C55.3656 48.1987 55.3244 48.3824 55.2475 48.5521C55.1706 48.7218 55.0598 48.8739 54.9218 48.9991C54.7838 49.1243 54.6217 49.2199 54.4453 49.28C54.269 49.3401 54.0822 49.3633 53.8965 49.3484ZM50.652 47.7398H53.6238V38.6881H50.7611L50.652 47.7398Z" fill="black"/>
<path d="M58.0134 38.6881H46.4806C46.1237 38.6881 45.781 38.5483 45.5262 38.2985C45.2713 38.0487 45.1245 37.7089 45.1174 37.3521V22.6021C45.1244 22.2427 45.2702 21.9 45.5244 21.6459C45.7785 21.3917 46.1212 21.2459 46.4806 21.2389H58.0134C58.3728 21.2459 58.7155 21.3917 58.9696 21.6459C59.2238 21.9 59.3696 22.2427 59.3766 22.6021V37.3521C59.3695 37.7089 59.2227 38.0487 58.9678 38.2985C58.7129 38.5483 58.3703 38.6881 58.0134 38.6881ZM46.7532 37.0795H57.659V22.8748H46.7532V37.0795Z" fill="black"/>
<path d="M52.2606 19.9029C51.3277 19.9029 50.4158 19.6263 49.6402 19.108C48.8645 18.5897 48.2599 17.8531 47.9029 16.9912C47.5459 16.1294 47.4525 15.181 47.6345 14.266C47.8165 13.3511 48.2658 12.5106 48.9254 11.851C49.585 11.1913 50.4255 10.7421 51.3404 10.5601C52.2554 10.3781 53.2038 10.4715 54.0656 10.8285C54.9275 11.1855 55.6642 11.7901 56.1824 12.5657C56.7007 13.3414 56.9774 14.2533 56.9774 15.1862C56.9774 16.4372 56.4804 17.6369 55.5959 18.5214C54.7113 19.406 53.5116 19.9029 52.2606 19.9029ZM52.2606 12.0781C51.6448 12.0727 51.0412 12.2504 50.5265 12.5886C50.0118 12.9268 49.6092 13.4103 49.3697 13.9778C49.1303 14.5452 49.0648 15.171 49.1817 15.7757C49.2985 16.3804 49.5923 16.9368 50.0259 17.3742C50.4595 17.8116 51.0133 18.1103 51.6169 18.2325C52.2206 18.3546 52.8469 18.2947 53.4164 18.0603C53.9859 17.8258 54.473 17.4275 54.8157 16.9158C55.1585 16.4041 55.3415 15.8021 55.3415 15.1862C55.3415 14.3666 55.0178 13.5801 54.4408 12.998C53.8638 12.4159 53.0802 12.0853 52.2606 12.0781Z" fill="black"/>
</svg>
