<svg width="88" height="87" viewBox="0 0 88 87" fill="none" xmlns="http://www.w3.org/2000/svg">
<rect y="30" width="88" height="57" fill="#E6E6E6"/>
<path d="M20.5481 75.904C21.0894 76.0813 21.5188 76.38 21.8361 76.8C22.1534 77.2107 22.3121 77.724 22.3121 78.34C22.3121 79.1893 21.9854 79.8473 21.3321 80.314C20.6788 80.7713 19.7268 81 18.4761 81H13.6041V71.2H18.1961C19.3534 71.2 20.2448 71.4287 20.8701 71.886C21.4954 72.334 21.8081 72.9547 21.8081 73.748C21.8081 74.2333 21.6961 74.6627 21.4721 75.036C21.2481 75.4093 20.9401 75.6987 20.5481 75.904ZM15.4241 72.628V75.33H18.0001C18.6348 75.33 19.1201 75.218 19.4561 74.994C19.8014 74.7607 19.9741 74.4247 19.9741 73.986C19.9741 73.538 19.8014 73.202 19.4561 72.978C19.1201 72.7447 18.6348 72.628 18.0001 72.628H15.4241ZM18.3641 79.572C19.7734 79.572 20.4781 79.1007 20.4781 78.158C20.4781 77.2153 19.7734 76.744 18.3641 76.744H15.4241V79.572H18.3641ZM27.4465 81.098C26.6905 81.098 26.0091 80.9347 25.4025 80.608C24.7958 80.2813 24.3198 79.8287 23.9745 79.25C23.6385 78.662 23.4705 77.9993 23.4705 77.262C23.4705 76.5247 23.6385 75.8667 23.9745 75.288C24.3198 74.7093 24.7958 74.2567 25.4025 73.93C26.0091 73.6033 26.6905 73.44 27.4465 73.44C28.2118 73.44 28.8978 73.6033 29.5045 73.93C30.1111 74.2567 30.5825 74.7093 30.9185 75.288C31.2638 75.8667 31.4365 76.5247 31.4365 77.262C31.4365 77.9993 31.2638 78.662 30.9185 79.25C30.5825 79.8287 30.1111 80.2813 29.5045 80.608C28.8978 80.9347 28.2118 81.098 27.4465 81.098ZM27.4465 79.6C28.0905 79.6 28.6225 79.3853 29.0425 78.956C29.4625 78.5267 29.6725 77.962 29.6725 77.262C29.6725 76.562 29.4625 75.9973 29.0425 75.568C28.6225 75.1387 28.0905 74.924 27.4465 74.924C26.8025 74.924 26.2705 75.1387 25.8505 75.568C25.4398 75.9973 25.2345 76.562 25.2345 77.262C25.2345 77.962 25.4398 78.5267 25.8505 78.956C26.2705 79.3853 26.8025 79.6 27.4465 79.6ZM40.4319 70.612V81H38.7519V80.034C38.4626 80.3887 38.1032 80.6547 37.6739 80.832C37.2539 81.0093 36.7872 81.098 36.2739 81.098C35.5552 81.098 34.9066 80.9393 34.3279 80.622C33.7586 80.3047 33.3106 79.8567 32.9839 79.278C32.6572 78.69 32.4939 78.018 32.4939 77.262C32.4939 76.506 32.6572 75.8387 32.9839 75.26C33.3106 74.6813 33.7586 74.2333 34.3279 73.916C34.9066 73.5987 35.5552 73.44 36.2739 73.44C36.7686 73.44 37.2212 73.524 37.6319 73.692C38.0426 73.86 38.3926 74.112 38.6819 74.448V70.612H40.4319ZM36.4839 79.6C36.9039 79.6 37.2819 79.5067 37.6179 79.32C37.9539 79.124 38.2199 78.8487 38.4159 78.494C38.6119 78.1393 38.7099 77.7287 38.7099 77.262C38.7099 76.7953 38.6119 76.3847 38.4159 76.03C38.2199 75.6753 37.9539 75.4047 37.6179 75.218C37.2819 75.022 36.9039 74.924 36.4839 74.924C36.0639 74.924 35.6859 75.022 35.3499 75.218C35.0139 75.4047 34.7479 75.6753 34.5519 76.03C34.3559 76.3847 34.2579 76.7953 34.2579 77.262C34.2579 77.7287 34.3559 78.1393 34.5519 78.494C34.7479 78.8487 35.0139 79.124 35.3499 79.32C35.6859 79.5067 36.0639 79.6 36.4839 79.6ZM49.7492 77.304C49.7492 77.4253 49.7399 77.598 49.7212 77.822H43.8552C43.9579 78.3727 44.2239 78.8113 44.6532 79.138C45.0919 79.4553 45.6332 79.614 46.2772 79.614C47.0986 79.614 47.7752 79.3433 48.3072 78.802L49.2452 79.88C48.9092 80.2813 48.4846 80.5847 47.9712 80.79C47.4579 80.9953 46.8792 81.098 46.2352 81.098C45.4139 81.098 44.6906 80.9347 44.0652 80.608C43.4399 80.2813 42.9546 79.8287 42.6092 79.25C42.2732 78.662 42.1052 77.9993 42.1052 77.262C42.1052 76.534 42.2686 75.8807 42.5952 75.302C42.9312 74.714 43.3932 74.2567 43.9812 73.93C44.5692 73.6033 45.2319 73.44 45.9692 73.44C46.6972 73.44 47.3459 73.6033 47.9152 73.93C48.4939 74.2473 48.9419 74.7 49.2592 75.288C49.5859 75.8667 49.7492 76.5387 49.7492 77.304ZM45.9692 74.84C45.4092 74.84 44.9332 75.008 44.5412 75.344C44.1586 75.6707 43.9252 76.1093 43.8412 76.66H48.0832C48.0086 76.1187 47.7799 75.68 47.3972 75.344C47.0146 75.008 46.5386 74.84 45.9692 74.84ZM58.8502 73.524V79.866C58.8502 82.498 57.5062 83.814 54.8182 83.814C54.0996 83.814 53.4182 83.7207 52.7742 83.534C52.1302 83.3567 51.5982 83.0953 51.1782 82.75L51.9622 81.434C52.2889 81.7047 52.6996 81.9193 53.1942 82.078C53.6982 82.246 54.2069 82.33 54.7202 82.33C55.5416 82.33 56.1436 82.1433 56.5262 81.77C56.9089 81.3967 57.1002 80.8273 57.1002 80.062V79.67C56.8016 79.9967 56.4376 80.244 56.0082 80.412C55.5789 80.58 55.1076 80.664 54.5942 80.664C53.8849 80.664 53.2409 80.5147 52.6622 80.216C52.0929 79.908 51.6402 79.4787 51.3042 78.928C50.9776 78.3773 50.8142 77.7473 50.8142 77.038C50.8142 76.3287 50.9776 75.7033 51.3042 75.162C51.6402 74.6113 52.0929 74.1867 52.6622 73.888C53.2409 73.5893 53.8849 73.44 54.5942 73.44C55.1356 73.44 55.6256 73.5287 56.0642 73.706C56.5122 73.8833 56.8856 74.154 57.1842 74.518V73.524H58.8502ZM54.8602 79.18C55.5229 79.18 56.0642 78.984 56.4842 78.592C56.9136 78.1907 57.1282 77.6727 57.1282 77.038C57.1282 76.4127 56.9136 75.904 56.4842 75.512C56.0642 75.12 55.5229 74.924 54.8602 74.924C54.1882 74.924 53.6376 75.12 53.2082 75.512C52.7882 75.904 52.5782 76.4127 52.5782 77.038C52.5782 77.6727 52.7882 78.1907 53.2082 78.592C53.6376 78.984 54.1882 79.18 54.8602 79.18ZM64.0069 73.44C65.1083 73.44 65.9483 73.706 66.5269 74.238C67.1149 74.7607 67.4089 75.554 67.4089 76.618V81H65.7569V80.09C65.5423 80.4167 65.2343 80.6687 64.8329 80.846C64.4409 81.014 63.9649 81.098 63.4049 81.098C62.8449 81.098 62.3549 81.0047 61.9349 80.818C61.5149 80.622 61.1883 80.356 60.9549 80.02C60.7309 79.6747 60.6189 79.2873 60.6189 78.858C60.6189 78.186 60.8663 77.6493 61.3609 77.248C61.8649 76.8373 62.6536 76.632 63.7269 76.632H65.6589V76.52C65.6589 75.9973 65.5003 75.596 65.1829 75.316C64.8749 75.036 64.4129 74.896 63.7969 74.896C63.3769 74.896 62.9616 74.9613 62.5509 75.092C62.1496 75.2227 61.8089 75.4047 61.5289 75.638L60.8429 74.364C61.2349 74.0653 61.7063 73.8367 62.2569 73.678C62.8076 73.5193 63.3909 73.44 64.0069 73.44ZM63.7689 79.824C64.2076 79.824 64.5949 79.726 64.9309 79.53C65.2763 79.3247 65.5189 79.0353 65.6589 78.662V77.794H63.8529C62.8449 77.794 62.3409 78.1253 62.3409 78.788C62.3409 79.1053 62.4669 79.3573 62.7189 79.544C62.9709 79.7307 63.3209 79.824 63.7689 79.824ZM71.9648 81.098C71.3582 81.098 70.7655 81.0187 70.1868 80.86C69.6082 80.7013 69.1462 80.5007 68.8008 80.258L69.4728 78.928C69.8088 79.152 70.2102 79.334 70.6768 79.474C71.1528 79.6047 71.6195 79.67 72.0768 79.67C73.1222 79.67 73.6448 79.3947 73.6448 78.844C73.6448 78.5827 73.5095 78.4007 73.2388 78.298C72.9775 78.1953 72.5528 78.0973 71.9648 78.004C71.3488 77.9107 70.8448 77.8033 70.4528 77.682C70.0702 77.5607 69.7342 77.3507 69.4448 77.052C69.1648 76.744 69.0248 76.3193 69.0248 75.778C69.0248 75.0687 69.3188 74.504 69.9068 74.084C70.5042 73.6547 71.3068 73.44 72.3148 73.44C72.8282 73.44 73.3415 73.5007 73.8548 73.622C74.3682 73.734 74.7882 73.888 75.1148 74.084L74.4428 75.414C73.8082 75.0407 73.0942 74.854 72.3008 74.854C71.7875 74.854 71.3955 74.9333 71.1248 75.092C70.8635 75.2413 70.7328 75.442 70.7328 75.694C70.7328 75.974 70.8728 76.1747 71.1528 76.296C71.4422 76.408 71.8855 76.5153 72.4828 76.618C73.0802 76.7113 73.5702 76.8187 73.9528 76.94C74.3355 77.0613 74.6622 77.2667 74.9328 77.556C75.2128 77.8453 75.3528 78.256 75.3528 78.788C75.3528 79.488 75.0495 80.048 74.4428 80.468C73.8362 80.888 73.0102 81.098 71.9648 81.098Z" fill="black"/>
<path d="M58.4954 50.03H26.8415C26.4799 50.03 26.1332 49.8864 25.8776 49.6308C25.6219 49.3751 25.4783 49.0284 25.4783 48.6668V23.2292C25.4565 23.1112 25.4609 22.9898 25.4912 22.8737C25.5216 22.7576 25.5771 22.6496 25.6538 22.5573C25.7306 22.4651 25.8267 22.3909 25.9354 22.3399C26.044 22.289 26.1626 22.2626 26.2826 22.2626C26.4026 22.2626 26.5211 22.289 26.6298 22.3399C26.7384 22.3909 26.8346 22.4651 26.9113 22.5573C26.9881 22.6496 27.0436 22.7576 27.0739 22.8737C27.1043 22.9898 27.1087 23.1112 27.0869 23.2292V48.3942H58.2227V24.1017C58.2227 23.9955 58.244 23.8904 58.2854 23.7927C58.3268 23.6949 58.3875 23.6065 58.4639 23.5327C58.5402 23.4589 58.6306 23.4013 58.7297 23.3632C58.8288 23.3251 58.9346 23.3073 59.0407 23.311C59.2529 23.3109 59.457 23.3933 59.6096 23.5409C59.7622 23.6884 59.8515 23.8895 59.8586 24.1017V48.6396C59.8622 48.8209 59.8296 49.0011 59.7628 49.1696C59.6959 49.3382 59.596 49.4917 59.4691 49.6212C59.3421 49.7507 59.1906 49.8535 59.0234 49.9237C58.8562 49.9939 58.6767 50.0301 58.4954 50.03Z" fill="black"/>
<path d="M60.3494 25.7375C60.0673 25.7362 59.792 25.6508 59.5587 25.4921L42.5457 13.6322L24.9057 25.2468C24.612 25.4346 24.2583 25.5053 23.915 25.4447C23.5716 25.3841 23.2635 25.1967 23.0518 24.9196L20.6252 21.457C20.4119 21.1567 20.3239 20.7851 20.3798 20.421C20.4045 20.2352 20.4713 20.0574 20.5753 19.9015C20.6793 19.7455 20.8176 19.6154 20.9797 19.5213L42.3549 5.45287C42.587 5.26703 42.8755 5.16577 43.1728 5.16577C43.4702 5.16577 43.7586 5.26703 43.9908 5.45287L64.1664 19.903C64.3235 20.0128 64.4558 20.1546 64.5544 20.319C64.6531 20.4834 64.716 20.6668 64.7389 20.8572C64.7567 21.043 64.7369 21.2305 64.6807 21.4085C64.6245 21.5865 64.533 21.7514 64.4117 21.8933L61.3854 25.3013C61.1113 25.578 60.7388 25.7349 60.3494 25.7375ZM42.5457 11.8872C42.8289 11.8813 43.1064 11.9674 43.3364 12.1326L60.3494 24.0199L63.0758 21.0481L43.091 6.84335L22.1793 20.7209L24.415 23.7472L41.8096 12.1054C42.0308 11.9676 42.2852 11.8922 42.5457 11.8872Z" fill="black"/>
<path d="M33.7394 46.0222C33.5246 46.0154 33.3205 45.927 33.1686 45.7751C33.0166 45.6231 32.9283 45.419 32.9214 45.2043V24.2925C32.9283 24.0778 33.0166 23.8737 33.1686 23.7217C33.3205 23.5698 33.5246 23.4814 33.7394 23.4746C33.9563 23.4746 34.1643 23.5608 34.3177 23.7142C34.4711 23.8676 34.5573 24.0756 34.5573 24.2925V45.2043C34.5573 45.4212 34.4711 45.6292 34.3177 45.7826C34.1643 45.936 33.9563 46.0222 33.7394 46.0222Z" fill="black"/>
<path d="M51.4067 36.4252H33.7394C33.5246 36.4183 33.3205 36.33 33.1686 36.178C33.0166 36.0261 32.9283 35.822 32.9214 35.6072C32.9214 35.3903 33.0076 35.1823 33.161 35.0289C33.3144 34.8755 33.5224 34.7893 33.7394 34.7893H51.4067C51.5128 34.7892 51.6179 34.8106 51.7157 34.852C51.8134 34.8934 51.9018 34.9541 51.9756 35.0304C52.0494 35.1068 52.1071 35.1972 52.1451 35.2963C52.1832 35.3954 52.201 35.5011 52.1973 35.6072C52.1974 35.8195 52.115 36.0235 51.9675 36.1762C51.8199 36.3288 51.6188 36.4181 51.4067 36.4252Z" fill="black"/>
<path d="M51.4067 43.3776H33.7394C33.6214 43.3994 33.5 43.395 33.3839 43.3647C33.2678 43.3343 33.1598 43.2788 33.0675 43.202C32.9753 43.1253 32.901 43.0292 32.8501 42.9205C32.7991 42.8118 32.7727 42.6933 32.7727 42.5733C32.7727 42.4533 32.7991 42.3348 32.8501 42.2261C32.901 42.1174 32.9753 42.0213 33.0675 41.9446C33.1598 41.8678 33.2678 41.8123 33.3839 41.7819C33.5 41.7516 33.6214 41.7472 33.7394 41.769H51.4067C51.5946 41.8038 51.7644 41.9032 51.8867 42.0501C52.0089 42.1971 52.0759 42.3822 52.0759 42.5733C52.0759 42.7644 52.0089 42.9495 51.8867 43.0964C51.7644 43.2434 51.5946 43.3428 51.4067 43.3776Z" fill="black"/>
<path d="M51.4067 28.3549H33.7394C33.632 28.3549 33.5256 28.3337 33.4264 28.2926C33.3271 28.2515 33.237 28.1912 33.161 28.1153C33.0851 28.0393 33.0248 27.9492 32.9837 27.8499C32.9426 27.7507 32.9214 27.6443 32.9214 27.5369C32.9283 27.3222 33.0166 27.1181 33.1686 26.9661C33.3205 26.8142 33.5246 26.7258 33.7394 26.719H51.4067C51.6188 26.7261 51.8199 26.8154 51.9675 26.968C52.115 27.1206 52.1974 27.3246 52.1973 27.5369C52.201 27.643 52.1832 27.7488 52.1451 27.8479C52.1071 27.947 52.0494 28.0374 51.9756 28.1137C51.9018 28.19 51.8134 28.2507 51.7157 28.2922C51.6179 28.3336 51.5128 28.3549 51.4067 28.3549Z" fill="black"/>
<path d="M51.4067 46.0222C51.1897 46.0222 50.9817 45.9361 50.8283 45.7827C50.6749 45.6293 50.5887 45.4212 50.5887 45.2043V24.2926C50.5669 24.1746 50.5713 24.0532 50.6017 23.9371C50.632 23.821 50.6875 23.713 50.7643 23.6207C50.841 23.5285 50.9372 23.4542 51.0458 23.4033C51.1545 23.3523 51.273 23.3259 51.393 23.3259C51.513 23.3259 51.6316 23.3523 51.7402 23.4033C51.8489 23.4542 51.945 23.5285 52.0218 23.6207C52.0985 23.713 52.154 23.821 52.1844 23.9371C52.2147 24.0532 52.2191 24.1746 52.1973 24.2926V45.2043C52.1974 45.4166 52.115 45.6206 51.9675 45.7732C51.8199 45.9259 51.6188 46.0152 51.4067 46.0222Z" fill="black"/>
<rect y="30" width="88" height="57" fill="#E6E6E6"/>
<path d="M20.5481 75.904C21.0894 76.0813 21.5188 76.38 21.8361 76.8C22.1534 77.2107 22.3121 77.724 22.3121 78.34C22.3121 79.1893 21.9854 79.8473 21.3321 80.314C20.6788 80.7713 19.7268 81 18.4761 81H13.6041V71.2H18.1961C19.3534 71.2 20.2448 71.4287 20.8701 71.886C21.4954 72.334 21.8081 72.9547 21.8081 73.748C21.8081 74.2333 21.6961 74.6627 21.4721 75.036C21.2481 75.4093 20.9401 75.6987 20.5481 75.904ZM15.4241 72.628V75.33H18.0001C18.6348 75.33 19.1201 75.218 19.4561 74.994C19.8014 74.7607 19.9741 74.4247 19.9741 73.986C19.9741 73.538 19.8014 73.202 19.4561 72.978C19.1201 72.7447 18.6348 72.628 18.0001 72.628H15.4241ZM18.3641 79.572C19.7734 79.572 20.4781 79.1007 20.4781 78.158C20.4781 77.2153 19.7734 76.744 18.3641 76.744H15.4241V79.572H18.3641ZM27.4465 81.098C26.6905 81.098 26.0091 80.9347 25.4025 80.608C24.7958 80.2813 24.3198 79.8287 23.9745 79.25C23.6385 78.662 23.4705 77.9993 23.4705 77.262C23.4705 76.5247 23.6385 75.8667 23.9745 75.288C24.3198 74.7093 24.7958 74.2567 25.4025 73.93C26.0091 73.6033 26.6905 73.44 27.4465 73.44C28.2118 73.44 28.8978 73.6033 29.5045 73.93C30.1111 74.2567 30.5825 74.7093 30.9185 75.288C31.2638 75.8667 31.4365 76.5247 31.4365 77.262C31.4365 77.9993 31.2638 78.662 30.9185 79.25C30.5825 79.8287 30.1111 80.2813 29.5045 80.608C28.8978 80.9347 28.2118 81.098 27.4465 81.098ZM27.4465 79.6C28.0905 79.6 28.6225 79.3853 29.0425 78.956C29.4625 78.5267 29.6725 77.962 29.6725 77.262C29.6725 76.562 29.4625 75.9973 29.0425 75.568C28.6225 75.1387 28.0905 74.924 27.4465 74.924C26.8025 74.924 26.2705 75.1387 25.8505 75.568C25.4398 75.9973 25.2345 76.562 25.2345 77.262C25.2345 77.962 25.4398 78.5267 25.8505 78.956C26.2705 79.3853 26.8025 79.6 27.4465 79.6ZM40.4319 70.612V81H38.7519V80.034C38.4626 80.3887 38.1032 80.6547 37.6739 80.832C37.2539 81.0093 36.7872 81.098 36.2739 81.098C35.5552 81.098 34.9066 80.9393 34.3279 80.622C33.7586 80.3047 33.3106 79.8567 32.9839 79.278C32.6572 78.69 32.4939 78.018 32.4939 77.262C32.4939 76.506 32.6572 75.8387 32.9839 75.26C33.3106 74.6813 33.7586 74.2333 34.3279 73.916C34.9066 73.5987 35.5552 73.44 36.2739 73.44C36.7686 73.44 37.2212 73.524 37.6319 73.692C38.0426 73.86 38.3926 74.112 38.6819 74.448V70.612H40.4319ZM36.4839 79.6C36.9039 79.6 37.2819 79.5067 37.6179 79.32C37.9539 79.124 38.2199 78.8487 38.4159 78.494C38.6119 78.1393 38.7099 77.7287 38.7099 77.262C38.7099 76.7953 38.6119 76.3847 38.4159 76.03C38.2199 75.6753 37.9539 75.4047 37.6179 75.218C37.2819 75.022 36.9039 74.924 36.4839 74.924C36.0639 74.924 35.6859 75.022 35.3499 75.218C35.0139 75.4047 34.7479 75.6753 34.5519 76.03C34.3559 76.3847 34.2579 76.7953 34.2579 77.262C34.2579 77.7287 34.3559 78.1393 34.5519 78.494C34.7479 78.8487 35.0139 79.124 35.3499 79.32C35.6859 79.5067 36.0639 79.6 36.4839 79.6ZM49.7492 77.304C49.7492 77.4253 49.7399 77.598 49.7212 77.822H43.8552C43.9579 78.3727 44.2239 78.8113 44.6532 79.138C45.0919 79.4553 45.6332 79.614 46.2772 79.614C47.0986 79.614 47.7752 79.3433 48.3072 78.802L49.2452 79.88C48.9092 80.2813 48.4846 80.5847 47.9712 80.79C47.4579 80.9953 46.8792 81.098 46.2352 81.098C45.4139 81.098 44.6906 80.9347 44.0652 80.608C43.4399 80.2813 42.9546 79.8287 42.6092 79.25C42.2732 78.662 42.1052 77.9993 42.1052 77.262C42.1052 76.534 42.2686 75.8807 42.5952 75.302C42.9312 74.714 43.3932 74.2567 43.9812 73.93C44.5692 73.6033 45.2319 73.44 45.9692 73.44C46.6972 73.44 47.3459 73.6033 47.9152 73.93C48.4939 74.2473 48.9419 74.7 49.2592 75.288C49.5859 75.8667 49.7492 76.5387 49.7492 77.304ZM45.9692 74.84C45.4092 74.84 44.9332 75.008 44.5412 75.344C44.1586 75.6707 43.9252 76.1093 43.8412 76.66H48.0832C48.0086 76.1187 47.7799 75.68 47.3972 75.344C47.0146 75.008 46.5386 74.84 45.9692 74.84ZM58.8502 73.524V79.866C58.8502 82.498 57.5062 83.814 54.8182 83.814C54.0996 83.814 53.4182 83.7207 52.7742 83.534C52.1302 83.3567 51.5982 83.0953 51.1782 82.75L51.9622 81.434C52.2889 81.7047 52.6996 81.9193 53.1942 82.078C53.6982 82.246 54.2069 82.33 54.7202 82.33C55.5416 82.33 56.1436 82.1433 56.5262 81.77C56.9089 81.3967 57.1002 80.8273 57.1002 80.062V79.67C56.8016 79.9967 56.4376 80.244 56.0082 80.412C55.5789 80.58 55.1076 80.664 54.5942 80.664C53.8849 80.664 53.2409 80.5147 52.6622 80.216C52.0929 79.908 51.6402 79.4787 51.3042 78.928C50.9776 78.3773 50.8142 77.7473 50.8142 77.038C50.8142 76.3287 50.9776 75.7033 51.3042 75.162C51.6402 74.6113 52.0929 74.1867 52.6622 73.888C53.2409 73.5893 53.8849 73.44 54.5942 73.44C55.1356 73.44 55.6256 73.5287 56.0642 73.706C56.5122 73.8833 56.8856 74.154 57.1842 74.518V73.524H58.8502ZM54.8602 79.18C55.5229 79.18 56.0642 78.984 56.4842 78.592C56.9136 78.1907 57.1282 77.6727 57.1282 77.038C57.1282 76.4127 56.9136 75.904 56.4842 75.512C56.0642 75.12 55.5229 74.924 54.8602 74.924C54.1882 74.924 53.6376 75.12 53.2082 75.512C52.7882 75.904 52.5782 76.4127 52.5782 77.038C52.5782 77.6727 52.7882 78.1907 53.2082 78.592C53.6376 78.984 54.1882 79.18 54.8602 79.18ZM64.0069 73.44C65.1083 73.44 65.9483 73.706 66.5269 74.238C67.1149 74.7607 67.4089 75.554 67.4089 76.618V81H65.7569V80.09C65.5423 80.4167 65.2343 80.6687 64.8329 80.846C64.4409 81.014 63.9649 81.098 63.4049 81.098C62.8449 81.098 62.3549 81.0047 61.9349 80.818C61.5149 80.622 61.1883 80.356 60.9549 80.02C60.7309 79.6747 60.6189 79.2873 60.6189 78.858C60.6189 78.186 60.8663 77.6493 61.3609 77.248C61.8649 76.8373 62.6536 76.632 63.7269 76.632H65.6589V76.52C65.6589 75.9973 65.5003 75.596 65.1829 75.316C64.8749 75.036 64.4129 74.896 63.7969 74.896C63.3769 74.896 62.9616 74.9613 62.5509 75.092C62.1496 75.2227 61.8089 75.4047 61.5289 75.638L60.8429 74.364C61.2349 74.0653 61.7063 73.8367 62.2569 73.678C62.8076 73.5193 63.3909 73.44 64.0069 73.44ZM63.7689 79.824C64.2076 79.824 64.5949 79.726 64.9309 79.53C65.2763 79.3247 65.5189 79.0353 65.6589 78.662V77.794H63.8529C62.8449 77.794 62.3409 78.1253 62.3409 78.788C62.3409 79.1053 62.4669 79.3573 62.7189 79.544C62.9709 79.7307 63.3209 79.824 63.7689 79.824ZM71.9648 81.098C71.3582 81.098 70.7655 81.0187 70.1868 80.86C69.6082 80.7013 69.1462 80.5007 68.8008 80.258L69.4728 78.928C69.8088 79.152 70.2102 79.334 70.6768 79.474C71.1528 79.6047 71.6195 79.67 72.0768 79.67C73.1222 79.67 73.6448 79.3947 73.6448 78.844C73.6448 78.5827 73.5095 78.4007 73.2388 78.298C72.9775 78.1953 72.5528 78.0973 71.9648 78.004C71.3488 77.9107 70.8448 77.8033 70.4528 77.682C70.0702 77.5607 69.7342 77.3507 69.4448 77.052C69.1648 76.744 69.0248 76.3193 69.0248 75.778C69.0248 75.0687 69.3188 74.504 69.9068 74.084C70.5042 73.6547 71.3068 73.44 72.3148 73.44C72.8282 73.44 73.3415 73.5007 73.8548 73.622C74.3682 73.734 74.7882 73.888 75.1148 74.084L74.4428 75.414C73.8082 75.0407 73.0942 74.854 72.3008 74.854C71.7875 74.854 71.3955 74.9333 71.1248 75.092C70.8635 75.2413 70.7328 75.442 70.7328 75.694C70.7328 75.974 70.8728 76.1747 71.1528 76.296C71.4422 76.408 71.8855 76.5153 72.4828 76.618C73.0802 76.7113 73.5702 76.8187 73.9528 76.94C74.3355 77.0613 74.6622 77.2667 74.9328 77.556C75.2128 77.8453 75.3528 78.256 75.3528 78.788C75.3528 79.488 75.0495 80.048 74.4428 80.468C73.8362 80.888 73.0102 81.098 71.9648 81.098Z" fill="black"/>
<path d="M58.4954 50.03H26.8415C26.4799 50.03 26.1332 49.8864 25.8776 49.6308C25.6219 49.3751 25.4783 49.0284 25.4783 48.6668V23.2292C25.4565 23.1112 25.4609 22.9898 25.4912 22.8737C25.5216 22.7576 25.5771 22.6496 25.6538 22.5573C25.7306 22.4651 25.8267 22.3909 25.9354 22.3399C26.044 22.289 26.1626 22.2626 26.2826 22.2626C26.4026 22.2626 26.5211 22.289 26.6298 22.3399C26.7384 22.3909 26.8346 22.4651 26.9113 22.5573C26.9881 22.6496 27.0436 22.7576 27.0739 22.8737C27.1043 22.9898 27.1087 23.1112 27.0869 23.2292V48.3942H58.2227V24.1017C58.2227 23.9955 58.244 23.8904 58.2854 23.7927C58.3268 23.6949 58.3875 23.6065 58.4639 23.5327C58.5402 23.4589 58.6306 23.4013 58.7297 23.3632C58.8288 23.3251 58.9346 23.3073 59.0407 23.311C59.2529 23.3109 59.457 23.3933 59.6096 23.5409C59.7622 23.6884 59.8515 23.8895 59.8586 24.1017V48.6396C59.8622 48.8209 59.8296 49.0011 59.7628 49.1696C59.6959 49.3382 59.596 49.4917 59.4691 49.6212C59.3421 49.7507 59.1906 49.8535 59.0234 49.9237C58.8562 49.9939 58.6767 50.0301 58.4954 50.03Z" fill="black"/>
<path d="M60.3494 25.7375C60.0673 25.7362 59.792 25.6508 59.5587 25.4921L42.5457 13.6322L24.9057 25.2468C24.612 25.4346 24.2583 25.5053 23.915 25.4447C23.5716 25.3841 23.2635 25.1967 23.0518 24.9196L20.6252 21.457C20.4119 21.1567 20.3239 20.7851 20.3798 20.421C20.4045 20.2352 20.4713 20.0574 20.5753 19.9015C20.6793 19.7455 20.8176 19.6154 20.9797 19.5213L42.3549 5.45287C42.587 5.26703 42.8755 5.16577 43.1728 5.16577C43.4702 5.16577 43.7586 5.26703 43.9908 5.45287L64.1664 19.903C64.3235 20.0128 64.4558 20.1546 64.5544 20.319C64.6531 20.4834 64.716 20.6668 64.7389 20.8572C64.7567 21.043 64.7369 21.2305 64.6807 21.4085C64.6245 21.5865 64.533 21.7514 64.4117 21.8933L61.3854 25.3013C61.1113 25.578 60.7388 25.7349 60.3494 25.7375ZM42.5457 11.8872C42.8289 11.8813 43.1064 11.9674 43.3364 12.1326L60.3494 24.0199L63.0758 21.0481L43.091 6.84335L22.1793 20.7209L24.415 23.7472L41.8096 12.1054C42.0308 11.9676 42.2852 11.8922 42.5457 11.8872Z" fill="black"/>
<path d="M33.7394 46.0222C33.5246 46.0154 33.3205 45.927 33.1686 45.7751C33.0166 45.6231 32.9283 45.419 32.9214 45.2043V24.2925C32.9283 24.0778 33.0166 23.8737 33.1686 23.7217C33.3205 23.5698 33.5246 23.4814 33.7394 23.4746C33.9563 23.4746 34.1643 23.5608 34.3177 23.7142C34.4711 23.8676 34.5573 24.0756 34.5573 24.2925V45.2043C34.5573 45.4212 34.4711 45.6292 34.3177 45.7826C34.1643 45.936 33.9563 46.0222 33.7394 46.0222Z" fill="black"/>
<path d="M51.4067 36.4252H33.7394C33.5246 36.4183 33.3205 36.33 33.1686 36.178C33.0166 36.0261 32.9283 35.822 32.9214 35.6072C32.9214 35.3903 33.0076 35.1823 33.161 35.0289C33.3144 34.8755 33.5224 34.7893 33.7394 34.7893H51.4067C51.5128 34.7892 51.6179 34.8106 51.7157 34.852C51.8134 34.8934 51.9018 34.9541 51.9756 35.0304C52.0494 35.1068 52.1071 35.1972 52.1451 35.2963C52.1832 35.3954 52.201 35.5011 52.1973 35.6072C52.1974 35.8195 52.115 36.0235 51.9675 36.1762C51.8199 36.3288 51.6188 36.4181 51.4067 36.4252Z" fill="black"/>
<path d="M51.4067 43.3776H33.7394C33.6214 43.3994 33.5 43.395 33.3839 43.3647C33.2678 43.3343 33.1598 43.2788 33.0675 43.202C32.9753 43.1253 32.901 43.0292 32.8501 42.9205C32.7991 42.8118 32.7727 42.6933 32.7727 42.5733C32.7727 42.4533 32.7991 42.3348 32.8501 42.2261C32.901 42.1174 32.9753 42.0213 33.0675 41.9446C33.1598 41.8678 33.2678 41.8123 33.3839 41.7819C33.5 41.7516 33.6214 41.7472 33.7394 41.769H51.4067C51.5946 41.8038 51.7644 41.9032 51.8867 42.0501C52.0089 42.1971 52.0759 42.3822 52.0759 42.5733C52.0759 42.7644 52.0089 42.9495 51.8867 43.0964C51.7644 43.2434 51.5946 43.3428 51.4067 43.3776Z" fill="black"/>
<path d="M51.4067 28.3549H33.7394C33.632 28.3549 33.5256 28.3337 33.4264 28.2926C33.3271 28.2515 33.237 28.1912 33.161 28.1153C33.0851 28.0393 33.0248 27.9492 32.9837 27.8499C32.9426 27.7507 32.9214 27.6443 32.9214 27.5369C32.9283 27.3222 33.0166 27.1181 33.1686 26.9661C33.3205 26.8142 33.5246 26.7258 33.7394 26.719H51.4067C51.6188 26.7261 51.8199 26.8154 51.9675 26.968C52.115 27.1206 52.1974 27.3246 52.1973 27.5369C52.201 27.643 52.1832 27.7488 52.1451 27.8479C52.1071 27.947 52.0494 28.0374 51.9756 28.1137C51.9018 28.19 51.8134 28.2507 51.7157 28.2922C51.6179 28.3336 51.5128 28.3549 51.4067 28.3549Z" fill="black"/>
<path d="M51.4067 46.0222C51.1897 46.0222 50.9817 45.9361 50.8283 45.7827C50.6749 45.6293 50.5887 45.4212 50.5887 45.2043V24.2926C50.5669 24.1746 50.5713 24.0532 50.6017 23.9371C50.632 23.821 50.6875 23.713 50.7643 23.6207C50.841 23.5285 50.9372 23.4542 51.0458 23.4033C51.1545 23.3523 51.273 23.3259 51.393 23.3259C51.513 23.3259 51.6316 23.3523 51.7402 23.4033C51.8489 23.4542 51.945 23.5285 52.0218 23.6207C52.0985 23.713 52.154 23.821 52.1844 23.9371C52.2147 24.0532 52.2191 24.1746 52.1973 24.2926V45.2043C52.1974 45.4166 52.115 45.6206 51.9675 45.7732C51.8199 45.9259 51.6188 46.0152 51.4067 46.0222Z" fill="black"/>
</svg>
