<svg width="88" height="87" viewBox="0 0 88 87" fill="none" xmlns="http://www.w3.org/2000/svg">
<rect y="30" width="88" height="57" fill="#E6E6E6"/>
<path d="M21.1933 79.474V81H13.8433V71.2H20.9973V72.726H15.6633V75.274H20.3953V76.772H15.6633V79.474H21.1933ZM23.0543 70.612H24.8043V81H23.0543V70.612ZM34.1291 77.304C34.1291 77.4253 34.1198 77.598 34.1011 77.822H28.2351C28.3378 78.3727 28.6038 78.8113 29.0331 79.138C29.4718 79.4553 30.0131 79.614 30.6571 79.614C31.4785 79.614 32.1551 79.3433 32.6871 78.802L33.6251 79.88C33.2891 80.2813 32.8645 80.5847 32.3511 80.79C31.8378 80.9953 31.2591 81.098 30.6151 81.098C29.7938 81.098 29.0705 80.9347 28.4451 80.608C27.8198 80.2813 27.3345 79.8287 26.9891 79.25C26.6531 78.662 26.4851 77.9993 26.4851 77.262C26.4851 76.534 26.6485 75.8807 26.9751 75.302C27.3111 74.714 27.7731 74.2567 28.3611 73.93C28.9491 73.6033 29.6118 73.44 30.3491 73.44C31.0771 73.44 31.7258 73.6033 32.2951 73.93C32.8738 74.2473 33.3218 74.7 33.6391 75.288C33.9658 75.8667 34.1291 76.5387 34.1291 77.304ZM30.3491 74.84C29.7891 74.84 29.3131 75.008 28.9211 75.344C28.5385 75.6707 28.3051 76.1093 28.2211 76.66H32.4631C32.3885 76.1187 32.1598 75.68 31.7771 75.344C31.3945 75.008 30.9185 74.84 30.3491 74.84ZM42.6734 73.524L39.4674 81H37.6614L34.4554 73.524H36.2754L38.5994 79.068L40.9934 73.524H42.6734ZM46.3907 73.44C47.4921 73.44 48.3321 73.706 48.9107 74.238C49.4987 74.7607 49.7927 75.554 49.7927 76.618V81H48.1407V80.09C47.9261 80.4167 47.6181 80.6687 47.2167 80.846C46.8247 81.014 46.3487 81.098 45.7887 81.098C45.2287 81.098 44.7387 81.0047 44.3187 80.818C43.8987 80.622 43.5721 80.356 43.3387 80.02C43.1147 79.6747 43.0027 79.2873 43.0027 78.858C43.0027 78.186 43.2501 77.6493 43.7447 77.248C44.2487 76.8373 45.0374 76.632 46.1107 76.632H48.0427V76.52C48.0427 75.9973 47.8841 75.596 47.5667 75.316C47.2587 75.036 46.7967 74.896 46.1807 74.896C45.7607 74.896 45.3454 74.9613 44.9347 75.092C44.5334 75.2227 44.1927 75.4047 43.9127 75.638L43.2267 74.364C43.6187 74.0653 44.0901 73.8367 44.6407 73.678C45.1914 73.5193 45.7747 73.44 46.3907 73.44ZM46.1527 79.824C46.5914 79.824 46.9787 79.726 47.3147 79.53C47.6601 79.3247 47.9027 79.0353 48.0427 78.662V77.794H46.2367C45.2287 77.794 44.7247 78.1253 44.7247 78.788C44.7247 79.1053 44.8507 79.3573 45.1027 79.544C45.3547 79.7307 45.7047 79.824 46.1527 79.824ZM59.429 70.612V81H57.749V80.034C57.4597 80.3887 57.1003 80.6547 56.671 80.832C56.251 81.0093 55.7843 81.098 55.271 81.098C54.5523 81.098 53.9037 80.9393 53.325 80.622C52.7557 80.3047 52.3077 79.8567 51.981 79.278C51.6543 78.69 51.491 78.018 51.491 77.262C51.491 76.506 51.6543 75.8387 51.981 75.26C52.3077 74.6813 52.7557 74.2333 53.325 73.916C53.9037 73.5987 54.5523 73.44 55.271 73.44C55.7657 73.44 56.2183 73.524 56.629 73.692C57.0397 73.86 57.3897 74.112 57.679 74.448V70.612H59.429ZM55.481 79.6C55.901 79.6 56.279 79.5067 56.615 79.32C56.951 79.124 57.217 78.8487 57.413 78.494C57.609 78.1393 57.707 77.7287 57.707 77.262C57.707 76.7953 57.609 76.3847 57.413 76.03C57.217 75.6753 56.951 75.4047 56.615 75.218C56.279 75.022 55.901 74.924 55.481 74.924C55.061 74.924 54.683 75.022 54.347 75.218C54.011 75.4047 53.745 75.6753 53.549 76.03C53.353 76.3847 53.255 76.7953 53.255 77.262C53.255 77.7287 53.353 78.1393 53.549 78.494C53.745 78.8487 54.011 79.124 54.347 79.32C54.683 79.5067 55.061 79.6 55.481 79.6ZM65.0783 81.098C64.3223 81.098 63.641 80.9347 63.0343 80.608C62.4276 80.2813 61.9516 79.8287 61.6063 79.25C61.2703 78.662 61.1023 77.9993 61.1023 77.262C61.1023 76.5247 61.2703 75.8667 61.6063 75.288C61.9516 74.7093 62.4276 74.2567 63.0343 73.93C63.641 73.6033 64.3223 73.44 65.0783 73.44C65.8436 73.44 66.5296 73.6033 67.1363 73.93C67.743 74.2567 68.2143 74.7093 68.5503 75.288C68.8956 75.8667 69.0683 76.5247 69.0683 77.262C69.0683 77.9993 68.8956 78.662 68.5503 79.25C68.2143 79.8287 67.743 80.2813 67.1363 80.608C66.5296 80.9347 65.8436 81.098 65.0783 81.098ZM65.0783 79.6C65.7223 79.6 66.2543 79.3853 66.6743 78.956C67.0943 78.5267 67.3043 77.962 67.3043 77.262C67.3043 76.562 67.0943 75.9973 66.6743 75.568C66.2543 75.1387 65.7223 74.924 65.0783 74.924C64.4343 74.924 63.9023 75.1387 63.4823 75.568C63.0716 75.9973 62.8663 76.562 62.8663 77.262C62.8663 77.962 63.0716 78.5267 63.4823 78.956C63.9023 79.3853 64.4343 79.6 65.0783 79.6ZM72.4078 74.616C72.9118 73.832 73.7984 73.44 75.0678 73.44V75.106C74.9184 75.078 74.7831 75.064 74.6618 75.064C73.9804 75.064 73.4484 75.2647 73.0658 75.666C72.6831 76.058 72.4918 76.6273 72.4918 77.374V81H70.7418V73.524H72.4078V74.616Z" fill="black"/>
<path d="M62.6132 51.3932H27.3059C26.9444 51.3932 26.5976 51.2496 26.342 50.994C26.0863 50.7383 25.9427 50.3916 25.9427 50.03V7.93389C25.9497 7.57453 26.0955 7.23183 26.3497 6.97768C26.6039 6.72352 26.9466 6.57766 27.3059 6.57068H62.7495C63.1089 6.57766 63.4516 6.72352 63.7058 6.97768C63.9599 7.23183 64.1058 7.57453 64.1128 7.93389V50.03C64.1137 50.2211 64.0745 50.4103 63.9976 50.5852C63.9207 50.7602 63.808 50.917 63.6666 51.0455C63.5252 51.1741 63.3583 51.2715 63.1768 51.3314C62.9954 51.3913 62.8034 51.4123 62.6132 51.3932ZM27.5786 49.7574H62.3406V8.17927H27.5786V49.7574Z" fill="black"/>
<path d="M59.3415 51.3932H30.4686C30.107 51.3932 29.7603 51.2496 29.5046 50.9939C29.249 50.7383 29.1054 50.3915 29.1054 50.03V10.9057C29.1054 10.5441 29.249 10.1974 29.5046 9.94176C29.7603 9.6861 30.107 9.54248 30.4686 9.54248H59.3415C59.6887 9.56335 60.0148 9.71613 60.253 9.96956C60.4912 10.223 60.6235 10.5579 60.6229 10.9057V50.03C60.6235 50.3778 60.4912 50.7127 60.253 50.9661C60.0148 51.2196 59.6887 51.3723 59.3415 51.3932ZM30.6322 49.7574H59.0689V11.2601H30.6322V49.7574Z" fill="black"/>
<path d="M47.8087 27.9459H42.6285C42.4119 27.9441 42.1995 27.8861 42.0119 27.7778C41.8244 27.6694 41.6681 27.5144 41.5583 27.3277C41.4485 27.141 41.3889 26.9291 41.3853 26.7125C41.3817 26.496 41.4343 26.2822 41.5379 26.092L44.2643 21.6206C44.3771 21.4403 44.5338 21.2917 44.7198 21.1886C44.9058 21.0856 45.115 21.0315 45.3276 21.0315C45.5403 21.0315 45.7494 21.0856 45.9354 21.1886C46.1214 21.2917 46.2782 21.4403 46.3909 21.6206L48.9811 26.092C49.0837 26.2801 49.1363 26.4915 49.134 26.7058C49.1317 26.9202 49.0745 27.1304 48.9679 27.3163C48.8612 27.5022 48.7087 27.6577 48.5249 27.768C48.341 27.8782 48.132 27.9395 47.9177 27.9459H47.8087ZM43.3373 26.3101H46.9908L45.1095 23.0656L43.3373 26.3101Z" fill="black"/>
<path d="M45.2186 36.9977C45.0017 36.9964 44.7891 36.9377 44.6023 36.8276C44.4155 36.7174 44.2613 36.5597 44.1553 36.3706L41.5379 31.8992C41.4302 31.7127 41.3735 31.5011 41.3735 31.2858C41.3735 31.0704 41.4302 30.8588 41.5379 30.6723C41.6362 30.4669 41.791 30.2937 41.9841 30.173C42.1772 30.0523 42.4007 29.9891 42.6285 29.9907H47.8087C48.0234 29.9864 48.2353 30.0398 48.4223 30.1453C48.6094 30.2508 48.7647 30.4045 48.872 30.5905C48.9797 30.7771 49.0364 30.9886 49.0364 31.204C49.0364 31.4193 48.9797 31.6309 48.872 31.8174L46.2819 36.2888C46.1869 36.4932 46.0374 36.6675 45.8498 36.7926C45.6622 36.9176 45.4438 36.9886 45.2186 36.9977ZM43.3373 31.7084L45.2186 34.9528L46.9908 31.7084H43.3373Z" fill="black"/>
</svg>
