<svg width="140" height="89" viewBox="0 0 140 89" fill="none" xmlns="http://www.w3.org/2000/svg">
<rect y="32" width="140" height="57" fill="#E6E6E6"/>
<path d="M17.6142 81.474V83H10.2642V73.2H17.4182V74.726H12.0842V77.274H16.8162V78.772H12.0842V81.474H17.6142ZM21.7168 83.098C21.1101 83.098 20.5175 83.0187 19.9388 82.86C19.3601 82.7013 18.8981 82.5007 18.5528 82.258L19.2248 80.928C19.5608 81.152 19.9621 81.334 20.4288 81.474C20.9048 81.6047 21.3715 81.67 21.8288 81.67C22.8741 81.67 23.3968 81.3947 23.3968 80.844C23.3968 80.5827 23.2615 80.4007 22.9908 80.298C22.7295 80.1953 22.3048 80.0973 21.7168 80.004C21.1008 79.9107 20.5968 79.8033 20.2048 79.682C19.8221 79.5607 19.4861 79.3507 19.1968 79.052C18.9168 78.744 18.7768 78.3193 18.7768 77.778C18.7768 77.0687 19.0708 76.504 19.6588 76.084C20.2561 75.6547 21.0588 75.44 22.0668 75.44C22.5801 75.44 23.0935 75.5007 23.6068 75.622C24.1201 75.734 24.5401 75.888 24.8668 76.084L24.1948 77.414C23.5601 77.0407 22.8461 76.854 22.0528 76.854C21.5395 76.854 21.1475 76.9333 20.8768 77.092C20.6155 77.2413 20.4848 77.442 20.4848 77.694C20.4848 77.974 20.6248 78.1747 20.9048 78.296C21.1941 78.408 21.6375 78.5153 22.2348 78.618C22.8321 78.7113 23.3221 78.8187 23.7048 78.94C24.0875 79.0613 24.4141 79.2667 24.6848 79.556C24.9648 79.8453 25.1048 80.256 25.1048 80.788C25.1048 81.488 24.8015 82.048 24.1948 82.468C23.5881 82.888 22.7621 83.098 21.7168 83.098ZM31.1059 82.594C30.9005 82.762 30.6485 82.888 30.3499 82.972C30.0605 83.056 29.7525 83.098 29.4259 83.098C28.6045 83.098 27.9699 82.8833 27.5219 82.454C27.0739 82.0247 26.8499 81.3993 26.8499 80.578V76.98H25.6179V75.58H26.8499V73.872H28.5999V75.58H30.6019V76.98H28.5999V80.536C28.5999 80.9 28.6885 81.18 28.8659 81.376C29.0432 81.5627 29.2999 81.656 29.6359 81.656C30.0279 81.656 30.3545 81.5533 30.6159 81.348L31.1059 82.594ZM35.4015 75.44C36.5028 75.44 37.3428 75.706 37.9215 76.238C38.5095 76.7607 38.8035 77.554 38.8035 78.618V83H37.1515V82.09C36.9368 82.4167 36.6288 82.6687 36.2275 82.846C35.8355 83.014 35.3595 83.098 34.7995 83.098C34.2395 83.098 33.7495 83.0047 33.3295 82.818C32.9095 82.622 32.5828 82.356 32.3495 82.02C32.1255 81.6747 32.0135 81.2873 32.0135 80.858C32.0135 80.186 32.2608 79.6493 32.7555 79.248C33.2595 78.8373 34.0481 78.632 35.1215 78.632H37.0535V78.52C37.0535 77.9973 36.8948 77.596 36.5775 77.316C36.2695 77.036 35.8075 76.896 35.1915 76.896C34.7715 76.896 34.3561 76.9613 33.9455 77.092C33.5441 77.2227 33.2035 77.4047 32.9235 77.638L32.2375 76.364C32.6295 76.0653 33.1008 75.8367 33.6515 75.678C34.2021 75.5193 34.7855 75.44 35.4015 75.44ZM35.1635 81.824C35.6021 81.824 35.9895 81.726 36.3255 81.53C36.6708 81.3247 36.9135 81.0353 37.0535 80.662V79.794H35.2475C34.2395 79.794 33.7355 80.1253 33.7355 80.788C33.7355 81.1053 33.8615 81.3573 34.1135 81.544C34.3655 81.7307 34.7155 81.824 35.1635 81.824ZM44.5477 83.098C43.7731 83.098 43.0777 82.9347 42.4617 82.608C41.8457 82.2813 41.3651 81.8287 41.0197 81.25C40.6744 80.662 40.5017 79.9993 40.5017 79.262C40.5017 78.5247 40.6744 77.8667 41.0197 77.288C41.3651 76.7093 41.8411 76.2567 42.4477 75.93C43.0637 75.6033 43.7637 75.44 44.5477 75.44C45.2851 75.44 45.9291 75.5893 46.4797 75.888C47.0397 76.1867 47.4597 76.616 47.7397 77.176L46.3957 77.96C46.1811 77.6147 45.9104 77.358 45.5837 77.19C45.2664 77.0127 44.9164 76.924 44.5337 76.924C43.8804 76.924 43.3391 77.1387 42.9097 77.568C42.4804 77.988 42.2657 78.5527 42.2657 79.262C42.2657 79.9713 42.4757 80.5407 42.8957 80.97C43.3251 81.39 43.8711 81.6 44.5337 81.6C44.9164 81.6 45.2664 81.516 45.5837 81.348C45.9104 81.1707 46.1811 80.9093 46.3957 80.564L47.7397 81.348C47.4504 81.908 47.0257 82.342 46.4657 82.65C45.9151 82.9487 45.2757 83.098 44.5477 83.098ZM49.2525 75.524H51.0025V83H49.2525V75.524ZM50.1345 74.292C49.8172 74.292 49.5512 74.194 49.3365 73.998C49.1218 73.7927 49.0145 73.5407 49.0145 73.242C49.0145 72.9433 49.1218 72.696 49.3365 72.5C49.5512 72.2947 49.8172 72.192 50.1345 72.192C50.4518 72.192 50.7178 72.29 50.9325 72.486C51.1472 72.6727 51.2545 72.9107 51.2545 73.2C51.2545 73.508 51.1472 73.7693 50.9325 73.984C50.7272 74.1893 50.4612 74.292 50.1345 74.292ZM56.6594 83.098C55.9034 83.098 55.222 82.9347 54.6154 82.608C54.0087 82.2813 53.5327 81.8287 53.1874 81.25C52.8514 80.662 52.6834 79.9993 52.6834 79.262C52.6834 78.5247 52.8514 77.8667 53.1874 77.288C53.5327 76.7093 54.0087 76.2567 54.6154 75.93C55.222 75.6033 55.9034 75.44 56.6594 75.44C57.4247 75.44 58.1107 75.6033 58.7174 75.93C59.324 76.2567 59.7954 76.7093 60.1314 77.288C60.4767 77.8667 60.6494 78.5247 60.6494 79.262C60.6494 79.9993 60.4767 80.662 60.1314 81.25C59.7954 81.8287 59.324 82.2813 58.7174 82.608C58.1107 82.9347 57.4247 83.098 56.6594 83.098ZM56.6594 81.6C57.3034 81.6 57.8354 81.3853 58.2554 80.956C58.6754 80.5267 58.8854 79.962 58.8854 79.262C58.8854 78.562 58.6754 77.9973 58.2554 77.568C57.8354 77.1387 57.3034 76.924 56.6594 76.924C56.0154 76.924 55.4834 77.1387 55.0634 77.568C54.6527 77.9973 54.4474 78.562 54.4474 79.262C54.4474 79.962 54.6527 80.5267 55.0634 80.956C55.4834 81.3853 56.0154 81.6 56.6594 81.6ZM66.5648 75.44C67.5075 75.44 68.2635 75.7153 68.8328 76.266C69.4021 76.8167 69.6868 77.6333 69.6868 78.716V83H67.9368V78.94C67.9368 78.2867 67.7828 77.7967 67.4748 77.47C67.1668 77.134 66.7281 76.966 66.1588 76.966C65.5148 76.966 65.0061 77.162 64.6328 77.554C64.2595 77.9367 64.0728 78.492 64.0728 79.22V83H62.3228V75.524H63.9888V76.49C64.2781 76.1447 64.6421 75.8833 65.0808 75.706C65.5195 75.5287 66.0141 75.44 66.5648 75.44ZM74.7628 75.44C75.8641 75.44 76.7041 75.706 77.2828 76.238C77.8708 76.7607 78.1648 77.554 78.1648 78.618V83H76.5128V82.09C76.2981 82.4167 75.9901 82.6687 75.5888 82.846C75.1968 83.014 74.7208 83.098 74.1608 83.098C73.6008 83.098 73.1108 83.0047 72.6908 82.818C72.2708 82.622 71.9441 82.356 71.7108 82.02C71.4868 81.6747 71.3748 81.2873 71.3748 80.858C71.3748 80.186 71.6221 79.6493 72.1168 79.248C72.6208 78.8373 73.4095 78.632 74.4828 78.632H76.4148V78.52C76.4148 77.9973 76.2561 77.596 75.9388 77.316C75.6308 77.036 75.1688 76.896 74.5528 76.896C74.1328 76.896 73.7175 76.9613 73.3068 77.092C72.9055 77.2227 72.5648 77.4047 72.2848 77.638L71.5988 76.364C71.9908 76.0653 72.4621 75.8367 73.0128 75.678C73.5635 75.5193 74.1468 75.44 74.7628 75.44ZM74.5248 81.824C74.9635 81.824 75.3508 81.726 75.6868 81.53C76.0321 81.3247 76.2748 81.0353 76.4148 80.662V79.794H74.6088C73.6008 79.794 73.0968 80.1253 73.0968 80.788C73.0968 81.1053 73.2228 81.3573 73.4748 81.544C73.7268 81.7307 74.0768 81.824 74.5248 81.824ZM89.8467 75.44C90.7894 75.44 91.536 75.7153 92.0867 76.266C92.6374 76.8073 92.9127 77.624 92.9127 78.716V83H91.1627V78.94C91.1627 78.2867 91.018 77.7967 90.7287 77.47C90.4394 77.134 90.024 76.966 89.4827 76.966C88.8947 76.966 88.4234 77.162 88.0687 77.554C87.714 77.9367 87.5367 78.4873 87.5367 79.206V83H85.7867V78.94C85.7867 78.2867 85.642 77.7967 85.3527 77.47C85.0634 77.134 84.648 76.966 84.1067 76.966C83.5094 76.966 83.0334 77.1573 82.6787 77.54C82.3334 77.9227 82.1607 78.478 82.1607 79.206V83H80.4107V75.524H82.0767V76.476C82.3567 76.14 82.7067 75.8833 83.1267 75.706C83.5467 75.5287 84.0134 75.44 84.5267 75.44C85.0867 75.44 85.5814 75.5473 86.0107 75.762C86.4494 75.9673 86.7947 76.2753 87.0467 76.686C87.3547 76.294 87.7514 75.9907 88.2367 75.776C88.722 75.552 89.2587 75.44 89.8467 75.44ZM95.149 75.524H96.899V83H95.149V75.524ZM96.031 74.292C95.7136 74.292 95.4476 74.194 95.233 73.998C95.0183 73.7927 94.911 73.5407 94.911 73.242C94.911 72.9433 95.0183 72.696 95.233 72.5C95.4476 72.2947 95.7136 72.192 96.031 72.192C96.3483 72.192 96.6143 72.29 96.829 72.486C97.0436 72.6727 97.151 72.9107 97.151 73.2C97.151 73.508 97.0436 73.7693 96.829 73.984C96.6236 74.1893 96.3576 74.292 96.031 74.292ZM106.224 79.304C106.224 79.4253 106.215 79.598 106.196 79.822H100.33C100.433 80.3727 100.699 80.8113 101.128 81.138C101.567 81.4553 102.108 81.614 102.752 81.614C103.573 81.614 104.25 81.3433 104.782 80.802L105.72 81.88C105.384 82.2813 104.959 82.5847 104.446 82.79C103.933 82.9953 103.354 83.098 102.71 83.098C101.889 83.098 101.165 82.9347 100.54 82.608C99.9145 82.2813 99.4292 81.8287 99.0839 81.25C98.7479 80.662 98.5799 79.9993 98.5799 79.262C98.5799 78.534 98.7432 77.8807 99.0699 77.302C99.4059 76.714 99.8679 76.2567 100.456 75.93C101.044 75.6033 101.707 75.44 102.444 75.44C103.172 75.44 103.821 75.6033 104.39 75.93C104.969 76.2473 105.417 76.7 105.734 77.288C106.061 77.8667 106.224 78.5387 106.224 79.304ZM102.444 76.84C101.884 76.84 101.408 77.008 101.016 77.344C100.633 77.6707 100.4 78.1093 100.316 78.66H104.558C104.483 78.1187 104.255 77.68 103.872 77.344C103.489 77.008 103.013 76.84 102.444 76.84ZM112.147 75.44C113.09 75.44 113.846 75.7153 114.415 76.266C114.984 76.8167 115.269 77.6333 115.269 78.716V83H113.519V78.94C113.519 78.2867 113.365 77.7967 113.057 77.47C112.749 77.134 112.31 76.966 111.741 76.966C111.097 76.966 110.588 77.162 110.215 77.554C109.842 77.9367 109.655 78.492 109.655 79.22V83H107.905V75.524H109.571V76.49C109.86 76.1447 110.224 75.8833 110.663 75.706C111.102 75.5287 111.596 75.44 112.147 75.44ZM121.983 82.594C121.777 82.762 121.525 82.888 121.227 82.972C120.937 83.056 120.629 83.098 120.303 83.098C119.481 83.098 118.847 82.8833 118.399 82.454C117.951 82.0247 117.727 81.3993 117.727 80.578V76.98H116.495V75.58H117.727V73.872H119.477V75.58H121.479V76.98H119.477V80.536C119.477 80.9 119.565 81.18 119.743 81.376C119.92 81.5627 120.177 81.656 120.513 81.656C120.905 81.656 121.231 81.5533 121.493 81.348L121.983 82.594ZM126.536 83.098C125.78 83.098 125.099 82.9347 124.492 82.608C123.886 82.2813 123.41 81.8287 123.064 81.25C122.728 80.662 122.56 79.9993 122.56 79.262C122.56 78.5247 122.728 77.8667 123.064 77.288C123.41 76.7093 123.886 76.2567 124.492 75.93C125.099 75.6033 125.78 75.44 126.536 75.44C127.302 75.44 127.988 75.6033 128.594 75.93C129.201 76.2567 129.672 76.7093 130.008 77.288C130.354 77.8667 130.526 78.5247 130.526 79.262C130.526 79.9993 130.354 80.662 130.008 81.25C129.672 81.8287 129.201 82.2813 128.594 82.608C127.988 82.9347 127.302 83.098 126.536 83.098ZM126.536 81.6C127.18 81.6 127.712 81.3853 128.132 80.956C128.552 80.5267 128.762 79.962 128.762 79.262C128.762 78.562 128.552 77.9973 128.132 77.568C127.712 77.1387 127.18 76.924 126.536 76.924C125.892 76.924 125.36 77.1387 124.94 77.568C124.53 77.9973 124.324 78.562 124.324 79.262C124.324 79.962 124.53 80.5267 124.94 80.956C125.36 81.3853 125.892 81.6 126.536 81.6Z" fill="black"/>
<path d="M91.3124 51.8022H51.7791C51.4176 51.8022 51.0708 51.6586 50.8152 51.4029C50.5595 51.1472 50.4159 50.8005 50.4159 50.439V8.17926C50.4159 7.81771 50.5595 7.47097 50.8152 7.21532C51.0708 6.95966 51.4176 6.81604 51.7791 6.81604H91.3124C91.6739 6.81604 92.0207 6.95966 92.2763 7.21532C92.532 7.47097 92.6756 7.81771 92.6756 8.17926V50.439C92.6756 50.8005 92.532 51.1472 92.2763 51.4029C92.0207 51.6586 91.6739 51.8022 91.3124 51.8022ZM52.0518 50.1663H91.0397V8.47916H52.0518V50.1663Z" fill="black"/>
<path d="M82.2061 44.768H60.3946C59.9969 44.768 59.6155 44.61 59.3343 44.3288C59.0531 44.0476 58.8951 43.6661 58.8951 43.2684V14.7499C58.8915 14.5507 58.9276 14.3528 59.0013 14.1677C59.0751 13.9826 59.1849 13.8141 59.3246 13.6719C59.4642 13.5298 59.6307 13.4169 59.8144 13.3398C59.9982 13.2628 60.1954 13.2231 60.3946 13.2231H81.7153C82.1203 13.2231 82.5086 13.384 82.795 13.6703C83.0813 13.9567 83.2421 14.345 83.2421 14.7499V19.085C83.235 19.4852 83.071 19.8665 82.7854 20.147C82.4999 20.4275 82.1156 20.5846 81.7153 20.5845H67.2107V25.3285H80.134C80.5343 25.3284 80.9185 25.4856 81.2041 25.766C81.4897 26.0465 81.6537 26.4279 81.6608 26.828V31.0268C81.6608 31.4317 81.5 31.82 81.2136 32.1064C80.9273 32.3927 80.5389 32.5536 80.134 32.5536H67.2107V37.5429H82.2061C82.403 37.5429 82.598 37.5817 82.7799 37.6571C82.9619 37.7324 83.1272 37.8429 83.2664 37.9821C83.4057 38.1214 83.5161 38.2867 83.5915 38.4686C83.6669 38.6505 83.7056 38.8455 83.7056 39.0425V43.2684C83.7056 43.4654 83.6669 43.6604 83.5915 43.8423C83.5161 44.0242 83.4057 44.1895 83.2664 44.3288C83.1272 44.468 82.9619 44.5785 82.7799 44.6538C82.598 44.7292 82.403 44.768 82.2061 44.768ZM60.3946 43.1321H82.0152V39.1788H67.1017C66.6967 39.1788 66.3084 39.0179 66.0221 38.7316C65.7357 38.4453 65.5749 38.0569 65.5749 37.652V32.4172C65.582 32.017 65.746 31.6357 66.0316 31.3552C66.3171 31.0747 66.7014 30.9176 67.1017 30.9177H80.025V26.9371H67.1017C66.9025 26.9407 66.7045 26.9046 66.5194 26.8309C66.3343 26.7571 66.1658 26.6473 66.0237 26.5077C65.8815 26.368 65.7686 26.2015 65.6916 26.0178C65.6145 25.834 65.5748 25.6368 65.5749 25.4376V20.3391C65.5749 19.9342 65.7357 19.5459 66.0221 19.2595C66.3084 18.9732 66.6967 18.8123 67.1017 18.8123H81.6063V14.859H60.4492L60.3946 43.1321Z" fill="black"/>
</svg>
