<svg width="88" height="86" viewBox="0 0 88 86" fill="none" xmlns="http://www.w3.org/2000/svg">
<rect y="29" width="88" height="57" fill="#E6E6E6"/>
<path d="M18.9717 78.474V80H11.6217V70.2H18.7757V71.726H13.4417V74.274H18.1737V75.772H13.4417V78.474H18.9717ZM23.0742 80.098C22.4675 80.098 21.8749 80.0187 21.2962 79.86C20.7175 79.7013 20.2555 79.5007 19.9102 79.258L20.5822 77.928C20.9182 78.152 21.3195 78.334 21.7862 78.474C22.2622 78.6047 22.7289 78.67 23.1862 78.67C24.2315 78.67 24.7542 78.3947 24.7542 77.844C24.7542 77.5827 24.6189 77.4007 24.3482 77.298C24.0869 77.1953 23.6622 77.0973 23.0742 77.004C22.4582 76.9107 21.9542 76.8033 21.5622 76.682C21.1795 76.5607 20.8435 76.3507 20.5542 76.052C20.2742 75.744 20.1342 75.3193 20.1342 74.778C20.1342 74.0687 20.4282 73.504 21.0162 73.084C21.6135 72.6547 22.4162 72.44 23.4242 72.44C23.9375 72.44 24.4509 72.5007 24.9642 72.622C25.4775 72.734 25.8975 72.888 26.2242 73.084L25.5522 74.414C24.9175 74.0407 24.2035 73.854 23.4102 73.854C22.8969 73.854 22.5049 73.9333 22.2342 74.092C21.9729 74.2413 21.8422 74.442 21.8422 74.694C21.8422 74.974 21.9822 75.1747 22.2622 75.296C22.5515 75.408 22.9949 75.5153 23.5922 75.618C24.1895 75.7113 24.6795 75.8187 25.0622 75.94C25.4449 76.0613 25.7715 76.2667 26.0422 76.556C26.3222 76.8453 26.4622 77.256 26.4622 77.788C26.4622 78.488 26.1589 79.048 25.5522 79.468C24.9455 79.888 24.1195 80.098 23.0742 80.098ZM31.3993 80.098C30.6246 80.098 29.9293 79.9347 29.3133 79.608C28.6973 79.2813 28.2166 78.8287 27.8713 78.25C27.526 77.662 27.3533 76.9993 27.3533 76.262C27.3533 75.5247 27.526 74.8667 27.8713 74.288C28.2166 73.7093 28.6926 73.2567 29.2993 72.93C29.9153 72.6033 30.6153 72.44 31.3993 72.44C32.1366 72.44 32.7806 72.5893 33.3313 72.888C33.8913 73.1867 34.3113 73.616 34.5913 74.176L33.2473 74.96C33.0326 74.6147 32.762 74.358 32.4353 74.19C32.118 74.0127 31.768 73.924 31.3853 73.924C30.732 73.924 30.1906 74.1387 29.7613 74.568C29.332 74.988 29.1173 75.5527 29.1173 76.262C29.1173 76.9713 29.3273 77.5407 29.7473 77.97C30.1766 78.39 30.7226 78.6 31.3853 78.6C31.768 78.6 32.118 78.516 32.4353 78.348C32.762 78.1707 33.0326 77.9093 33.2473 77.564L34.5913 78.348C34.302 78.908 33.8773 79.342 33.3173 79.65C32.7666 79.9487 32.1273 80.098 31.3993 80.098ZM38.9601 72.44C40.0614 72.44 40.9014 72.706 41.4801 73.238C42.0681 73.7607 42.3621 74.554 42.3621 75.618V80H40.7101V79.09C40.4954 79.4167 40.1874 79.6687 39.7861 79.846C39.3941 80.014 38.9181 80.098 38.3581 80.098C37.7981 80.098 37.3081 80.0047 36.8881 79.818C36.4681 79.622 36.1414 79.356 35.9081 79.02C35.6841 78.6747 35.5721 78.2873 35.5721 77.858C35.5721 77.186 35.8194 76.6493 36.3141 76.248C36.8181 75.8373 37.6067 75.632 38.6801 75.632H40.6121V75.52C40.6121 74.9973 40.4534 74.596 40.1361 74.316C39.8281 74.036 39.3661 73.896 38.7501 73.896C38.3301 73.896 37.9147 73.9613 37.5041 74.092C37.1027 74.2227 36.7621 74.4047 36.4821 74.638L35.7961 73.364C36.1881 73.0653 36.6594 72.8367 37.2101 72.678C37.7607 72.5193 38.3441 72.44 38.9601 72.44ZM38.7221 78.824C39.1607 78.824 39.5481 78.726 39.8841 78.53C40.2294 78.3247 40.4721 78.0353 40.6121 77.662V76.794H38.8061C37.7981 76.794 37.2941 77.1253 37.2941 77.788C37.2941 78.1053 37.4201 78.3573 37.6721 78.544C37.9241 78.7307 38.2741 78.824 38.7221 78.824ZM44.608 69.612H46.358V80H44.608V69.612ZM55.6828 76.304C55.6828 76.4253 55.6735 76.598 55.6548 76.822H49.7888C49.8915 77.3727 50.1575 77.8113 50.5868 78.138C51.0255 78.4553 51.5668 78.614 52.2108 78.614C53.0322 78.614 53.7088 78.3433 54.2408 77.802L55.1788 78.88C54.8428 79.2813 54.4182 79.5847 53.9048 79.79C53.3915 79.9953 52.8128 80.098 52.1688 80.098C51.3475 80.098 50.6242 79.9347 49.9988 79.608C49.3735 79.2813 48.8882 78.8287 48.5428 78.25C48.2068 77.662 48.0388 76.9993 48.0388 76.262C48.0388 75.534 48.2022 74.8807 48.5288 74.302C48.8648 73.714 49.3268 73.2567 49.9148 72.93C50.5028 72.6033 51.1655 72.44 51.9028 72.44C52.6308 72.44 53.2795 72.6033 53.8488 72.93C54.4275 73.2473 54.8755 73.7 55.1928 74.288C55.5195 74.8667 55.6828 75.5387 55.6828 76.304ZM51.9028 73.84C51.3428 73.84 50.8668 74.008 50.4748 74.344C50.0922 74.6707 49.8588 75.1093 49.7748 75.66H54.0168C53.9422 75.1187 53.7135 74.68 53.3308 74.344C52.9482 74.008 52.4722 73.84 51.9028 73.84ZM59.0298 73.616C59.5338 72.832 60.4205 72.44 61.6898 72.44V74.106C61.5405 74.078 61.4052 74.064 61.2838 74.064C60.6025 74.064 60.0705 74.2647 59.6878 74.666C59.3052 75.058 59.1138 75.6273 59.1138 76.374V80H57.3638V72.524H59.0298V73.616ZM65.9894 72.44C67.0907 72.44 67.9307 72.706 68.5094 73.238C69.0974 73.7607 69.3914 74.554 69.3914 75.618V80H67.7394V79.09C67.5247 79.4167 67.2167 79.6687 66.8154 79.846C66.4234 80.014 65.9474 80.098 65.3874 80.098C64.8274 80.098 64.3374 80.0047 63.9174 79.818C63.4974 79.622 63.1707 79.356 62.9374 79.02C62.7134 78.6747 62.6014 78.2873 62.6014 77.858C62.6014 77.186 62.8487 76.6493 63.3434 76.248C63.8474 75.8373 64.636 75.632 65.7094 75.632H67.6414V75.52C67.6414 74.9973 67.4827 74.596 67.1654 74.316C66.8574 74.036 66.3954 73.896 65.7794 73.896C65.3594 73.896 64.944 73.9613 64.5334 74.092C64.132 74.2227 63.7914 74.4047 63.5114 74.638L62.8254 73.364C63.2174 73.0653 63.6887 72.8367 64.2394 72.678C64.79 72.5193 65.3734 72.44 65.9894 72.44ZM65.7514 78.824C66.19 78.824 66.5774 78.726 66.9134 78.53C67.2587 78.3247 67.5014 78.0353 67.6414 77.662V76.794H65.8354C64.8274 76.794 64.3234 77.1253 64.3234 77.788C64.3234 78.1053 64.4494 78.3573 64.7014 78.544C64.9534 78.7307 65.3034 78.824 65.7514 78.824ZM73.9473 80.098C73.3406 80.098 72.7479 80.0187 72.1693 79.86C71.5906 79.7013 71.1286 79.5007 70.7833 79.258L71.4553 77.928C71.7913 78.152 72.1926 78.334 72.6593 78.474C73.1353 78.6047 73.6019 78.67 74.0593 78.67C75.1046 78.67 75.6273 78.3947 75.6273 77.844C75.6273 77.5827 75.4919 77.4007 75.2213 77.298C74.9599 77.1953 74.5353 77.0973 73.9473 77.004C73.3313 76.9107 72.8273 76.8033 72.4353 76.682C72.0526 76.5607 71.7166 76.3507 71.4273 76.052C71.1473 75.744 71.0073 75.3193 71.0073 74.778C71.0073 74.0687 71.3013 73.504 71.8893 73.084C72.4866 72.6547 73.2893 72.44 74.2973 72.44C74.8106 72.44 75.3239 72.5007 75.8373 72.622C76.3506 72.734 76.7706 72.888 77.0973 73.084L76.4253 74.414C75.7906 74.0407 75.0766 73.854 74.2833 73.854C73.7699 73.854 73.3779 73.9333 73.1073 74.092C72.8459 74.2413 72.7153 74.442 72.7153 74.694C72.7153 74.974 72.8553 75.1747 73.1353 75.296C73.4246 75.408 73.8679 75.5153 74.4653 75.618C75.0626 75.7113 75.5526 75.8187 75.9353 75.94C76.3179 76.0613 76.6446 76.2667 76.9153 76.556C77.1953 76.8453 77.3353 77.256 77.3353 77.788C77.3353 78.488 77.0319 79.048 76.4253 79.468C75.8186 79.888 74.9926 80.098 73.9473 80.098Z" fill="black"/>
<path d="M64.5841 50.4662H22.1608C21.7993 50.4662 21.4525 50.3226 21.1969 50.0669C20.9412 49.8113 20.7976 49.4645 20.7976 49.103V42.6413C20.7976 42.2798 20.9412 41.933 21.1969 41.6774C21.4525 41.4217 21.7993 41.2781 22.1608 41.2781H31.2398V34.2712C31.2398 33.9096 31.3835 33.5629 31.6391 33.3072C31.8948 33.0516 32.2415 32.908 32.6031 32.908H42.2546V26.1737C42.2546 25.8121 42.3982 25.4654 42.6539 25.2097C42.9096 24.9541 43.2563 24.8105 43.6178 24.8105H52.8059V17.8853C52.8059 17.5238 52.9495 17.177 53.2052 16.9214C53.4608 16.6657 53.8076 16.5221 54.1691 16.5221H64.5841C64.9457 16.5221 65.2924 16.6657 65.548 16.9214C65.8037 17.177 65.9473 17.5238 65.9473 17.8853V49.0757C65.9474 49.4398 65.8046 49.7894 65.5497 50.0494C65.2948 50.3094 64.9481 50.459 64.5841 50.4662ZM22.4335 48.8303H64.3115V18.158H54.4418V25.0831C54.4418 25.4446 54.2982 25.7914 54.0425 26.047C53.7868 26.3027 53.4401 26.4463 53.0786 26.4463H43.8905V33.1806C43.8905 33.5421 43.7469 33.8889 43.4912 34.1445C43.2356 34.4002 42.8888 34.5438 42.5273 34.5438H32.8757V41.5507C32.8757 41.9123 32.7321 42.259 32.4764 42.5147C32.2208 42.7703 31.874 42.914 31.5125 42.914H22.4335V48.8303Z" fill="black"/>
<path d="M17.9894 34.2985C17.8612 34.3057 17.7335 34.2793 17.6187 34.2219C17.5039 34.1645 17.4061 34.0781 17.335 33.9713C17.2472 33.8856 17.1806 33.7806 17.1404 33.6646C17.1002 33.5487 17.0875 33.425 17.1034 33.3033C17.1193 33.1817 17.1632 33.0653 17.2318 32.9636C17.3004 32.8619 17.3918 32.7775 17.4986 32.7171L51.1701 7.79754C51.4007 7.6107 51.6913 7.51384 51.988 7.5249H60.658C60.875 7.5249 61.083 7.61108 61.2364 7.76447C61.3898 7.91786 61.476 8.1259 61.476 8.34283C61.4691 8.55759 61.3808 8.7617 61.2288 8.91363C61.0769 9.06557 60.8728 9.15394 60.658 9.16076H52.0698L18.4529 34.1349C18.3172 34.2327 18.1564 34.2895 17.9894 34.2985Z" fill="black"/>
<path d="M25.7324 42.914C25.624 42.9178 25.5159 42.8992 25.415 42.8595C25.314 42.8197 25.2223 42.7596 25.1456 42.6829C25.0689 42.6062 25.0088 42.5145 24.969 42.4135C24.9293 42.3126 24.9107 42.2045 24.9145 42.0961V27.7823C24.9145 27.5654 25.0007 27.3573 25.1541 27.2039C25.3075 27.0505 25.5155 26.9644 25.7324 26.9644C25.9472 26.9712 26.1513 27.0595 26.3032 27.2115C26.4552 27.3634 26.5435 27.5675 26.5504 27.7823V42.0961C26.5504 42.313 26.4642 42.521 26.3108 42.6744C26.1574 42.8278 25.9494 42.914 25.7324 42.914Z" fill="black"/>
<path d="M59.8674 18.158C59.6526 18.1512 59.4485 18.0628 59.2966 17.9109C59.1446 17.7589 59.0563 17.5548 59.0494 17.3401V8.34283C59.0494 8.1259 59.1356 7.91786 59.289 7.76447C59.4424 7.61108 59.6504 7.5249 59.8674 7.5249C59.9758 7.52109 60.0839 7.53964 60.1848 7.5794C60.2858 7.61916 60.3775 7.67927 60.4542 7.75599C60.5309 7.83272 60.591 7.92441 60.6308 8.02537C60.6706 8.12633 60.6891 8.23439 60.6853 8.34283V17.3401C60.6853 17.4475 60.6641 17.5538 60.623 17.6531C60.5819 17.7523 60.5217 17.8425 60.4457 17.9184C60.3698 17.9944 60.2796 18.0546 60.1804 18.0957C60.0811 18.1368 59.9748 18.158 59.8674 18.158Z" fill="black"/>
</svg>
