<svg width="88" height="89" viewBox="0 0 88 89" fill="none" xmlns="http://www.w3.org/2000/svg">
<rect y="32" width="88" height="57" fill="#E6E6E6"/>
<path d="M28.8404 73.2V83H27.0204V78.8H21.9524V83H20.1324V73.2H21.9524V77.246H27.0204V73.2H28.8404ZM38.5364 75.524V83H36.8704V82.048C36.5904 82.384 36.2404 82.6453 35.8204 82.832C35.4004 83.0093 34.9477 83.098 34.4624 83.098C33.4637 83.098 32.6751 82.8227 32.0964 82.272C31.5271 81.712 31.2424 80.886 31.2424 79.794V75.524H32.9924V79.556C32.9924 80.228 33.1417 80.732 33.4404 81.068C33.7484 81.3947 34.1824 81.558 34.7424 81.558C35.3677 81.558 35.8624 81.3667 36.2264 80.984C36.5997 80.592 36.7864 80.032 36.7864 79.304V75.524H38.5364ZM47.8557 79.304C47.8557 79.4253 47.8464 79.598 47.8277 79.822H41.9617C42.0644 80.3727 42.3304 80.8113 42.7597 81.138C43.1984 81.4553 43.7397 81.614 44.3837 81.614C45.205 81.614 45.8817 81.3433 46.4137 80.802L47.3517 81.88C47.0157 82.2813 46.591 82.5847 46.0777 82.79C45.5644 82.9953 44.9857 83.098 44.3417 83.098C43.5204 83.098 42.797 82.9347 42.1717 82.608C41.5464 82.2813 41.061 81.8287 40.7157 81.25C40.3797 80.662 40.2117 79.9993 40.2117 79.262C40.2117 78.534 40.375 77.8807 40.7017 77.302C41.0377 76.714 41.4997 76.2567 42.0877 75.93C42.6757 75.6033 43.3384 75.44 44.0757 75.44C44.8037 75.44 45.4524 75.6033 46.0217 75.93C46.6004 76.2473 47.0484 76.7 47.3657 77.288C47.6924 77.8667 47.8557 78.5387 47.8557 79.304ZM44.0757 76.84C43.5157 76.84 43.0397 77.008 42.6477 77.344C42.265 77.6707 42.0317 78.1093 41.9477 78.66H46.1897C46.115 78.1187 45.8864 77.68 45.5037 77.344C45.121 77.008 44.645 76.84 44.0757 76.84ZM51.2027 76.616C51.7067 75.832 52.5933 75.44 53.8627 75.44V77.106C53.7133 77.078 53.578 77.064 53.4567 77.064C52.7753 77.064 52.2433 77.2647 51.8607 77.666C51.478 78.058 51.2867 78.6273 51.2867 79.374V83H49.5367V75.524H51.2027V76.616ZM60.1147 82.594C59.9093 82.762 59.6573 82.888 59.3587 82.972C59.0693 83.056 58.7613 83.098 58.4347 83.098C57.6133 83.098 56.9787 82.8833 56.5307 82.454C56.0827 82.0247 55.8587 81.3993 55.8587 80.578V76.98H54.6267V75.58H55.8587V73.872H57.6087V75.58H59.6107V76.98H57.6087V80.536C57.6087 80.9 57.6973 81.18 57.8747 81.376C58.052 81.5627 58.3087 81.656 58.6447 81.656C59.0367 81.656 59.3633 81.5533 59.6247 81.348L60.1147 82.594ZM64.6682 83.098C63.9122 83.098 63.2308 82.9347 62.6242 82.608C62.0175 82.2813 61.5415 81.8287 61.1962 81.25C60.8602 80.662 60.6922 79.9993 60.6922 79.262C60.6922 78.5247 60.8602 77.8667 61.1962 77.288C61.5415 76.7093 62.0175 76.2567 62.6242 75.93C63.2308 75.6033 63.9122 75.44 64.6682 75.44C65.4335 75.44 66.1195 75.6033 66.7262 75.93C67.3328 76.2567 67.8042 76.7093 68.1402 77.288C68.4855 77.8667 68.6582 78.5247 68.6582 79.262C68.6582 79.9993 68.4855 80.662 68.1402 81.25C67.8042 81.8287 67.3328 82.2813 66.7262 82.608C66.1195 82.9347 65.4335 83.098 64.6682 83.098ZM64.6682 81.6C65.3122 81.6 65.8442 81.3853 66.2642 80.956C66.6842 80.5267 66.8942 79.962 66.8942 79.262C66.8942 78.562 66.6842 77.9973 66.2642 77.568C65.8442 77.1387 65.3122 76.924 64.6682 76.924C64.0242 76.924 63.4922 77.1387 63.0722 77.568C62.6615 77.9973 62.4562 78.562 62.4562 79.262C62.4562 79.962 62.6615 80.5267 63.0722 80.956C63.4922 81.3853 64.0242 81.6 64.6682 81.6Z" fill="black"/>
<path d="M60.7782 41.7491H51.5328C51.409 41.749 51.2865 41.7231 51.1732 41.6733C51.0598 41.6234 50.9581 41.5506 50.8743 41.4594C50.7186 41.2755 50.6345 41.0417 50.6372 40.8009C51.4801 29.5273 46.1594 18.1747 44.5 14.9876C44.3888 14.7649 44.3358 14.5177 44.3459 14.269C44.356 14.0203 44.4289 13.7782 44.5577 13.5653C44.6865 13.3523 44.8671 13.1754 45.0827 13.0511C45.2983 12.9267 45.5418 12.8589 45.7907 12.854H52.8762C53.16 12.8543 53.4377 12.9365 53.6759 13.0906C53.9142 13.2448 54.1029 13.4645 54.2195 13.7232C58.1385 22.2847 60.6213 31.4329 61.5684 40.8009C61.5865 40.9217 61.5743 41.0451 61.5329 41.16C61.4916 41.275 61.4223 41.3778 61.3313 41.4594C61.1908 41.6232 60.9929 41.7269 60.7782 41.7491ZM52.5337 39.9843H59.8299C58.8157 31.2247 56.4708 22.6711 52.8762 14.6188H46.2911C50.3105 22.4721 52.4221 31.1623 52.4547 39.9843H52.5337Z" fill="black"/>
<path d="M60.7782 41.7491C60.5718 41.7507 60.3719 41.6765 60.2165 41.5406C60.0612 41.4046 59.9611 41.2164 59.9353 41.0116C59.1978 36.5338 62.3323 20.0975 63.4385 14.6715H57.1959L56.2477 18.9649C56.226 19.0769 56.1818 19.1833 56.1177 19.2778C56.0537 19.3722 55.9711 19.4526 55.8751 19.5142C55.779 19.5757 55.6715 19.6171 55.559 19.6359C55.4464 19.6547 55.3313 19.6505 55.2204 19.6234C54.9978 19.573 54.8039 19.437 54.6806 19.2447C54.5574 19.0525 54.5148 18.8195 54.5619 18.5961L55.5102 14.013C55.5815 13.6875 55.761 13.3959 56.0192 13.1854C56.2775 12.975 56.5994 12.8582 56.9325 12.854H63.6756C63.8911 12.8554 64.1039 12.9031 64.2993 12.994C64.4947 13.0849 64.6683 13.2168 64.8082 13.3808C64.9482 13.5463 65.0492 13.741 65.1039 13.9507C65.1586 14.1604 65.1656 14.3797 65.1243 14.5925C63.1225 24.5227 60.9889 37.324 61.5421 40.7218C61.5802 40.9488 61.5267 41.1817 61.3934 41.3694C61.2601 41.557 61.0578 41.6841 60.8309 41.7228L60.7782 41.7491Z" fill="black"/>
<path d="M51.0587 14.6187C50.8462 14.6062 50.6457 14.5162 50.4952 14.3657C50.3447 14.2152 50.2547 14.0147 50.2421 13.8022L49.8734 8.32346C49.8553 8.12763 49.8788 7.9302 49.9424 7.74409C50.0059 7.55798 50.1081 7.3874 50.2421 7.24352C50.3758 7.09644 50.5384 6.97844 50.7196 6.89688C50.9009 6.81531 51.097 6.77192 51.2957 6.76939H59.6719C59.869 6.76697 60.0644 6.80552 60.2457 6.88261C60.4271 6.95969 60.5905 7.07362 60.7255 7.21718C60.8678 7.36179 60.9769 7.53568 61.0451 7.72674C61.1133 7.9178 61.1391 8.12143 61.1206 8.32346L60.7782 13.7759C60.7782 14.0064 60.6866 14.2275 60.5236 14.3905C60.3606 14.5535 60.1395 14.6451 59.909 14.6451C59.6784 14.6451 59.4573 14.5535 59.2943 14.3905C59.1313 14.2275 59.0397 14.0064 59.0397 13.7759L59.3295 8.63954H51.5855L51.9279 13.9076C51.935 14.0218 51.9196 14.1362 51.8823 14.2444C51.8451 14.3526 51.7869 14.4524 51.7111 14.5381C51.6352 14.6237 51.5432 14.6936 51.4403 14.7436C51.3374 14.7936 51.2256 14.8228 51.1114 14.8295L51.0587 14.6187Z" fill="black"/>
<path d="M65.6248 50.2305C65.3942 50.2305 65.1731 50.1389 65.0101 49.9759C64.8471 49.8129 64.7555 49.5918 64.7555 49.3613V41.9597H22.6114V49.3613C22.6114 49.5918 22.5198 49.8129 22.3568 49.9759C22.1938 50.1389 21.9727 50.2305 21.7421 50.2305C21.5116 50.2305 21.2905 50.1389 21.1275 49.9759C20.9645 49.8129 20.8729 49.5918 20.8729 49.3613V41.0642C20.8729 40.8336 20.9645 40.6125 21.1275 40.4495C21.2905 40.2865 21.5116 40.1949 21.7421 40.1949H65.6248C65.8553 40.1949 66.0764 40.2865 66.2394 40.4495C66.4024 40.6125 66.494 40.8336 66.494 41.0642V49.3613C66.494 49.5918 66.4024 49.8129 66.2394 49.9759C66.0764 50.1389 65.8553 50.2305 65.6248 50.2305Z" fill="black"/>
<path d="M38.1784 41.9598H37.8886C37.6719 41.8819 37.4934 41.7235 37.3904 41.5175C37.2874 41.3114 37.2677 41.0737 37.3355 40.8535C37.3355 40.8535 39.7061 34.0841 37.0721 31.0023C36.3972 30.3208 35.5568 29.8265 34.6332 29.5679C33.7096 29.3093 32.7347 29.2953 31.8041 29.5273C30.7144 29.5314 29.6421 29.7996 28.6787 30.3088C27.7154 30.818 26.8898 31.553 26.2726 32.451C24.4288 35.7172 26.6414 40.6691 26.6677 40.7218C26.7254 40.8269 26.7607 40.9429 26.7714 41.0623C26.7821 41.1817 26.7679 41.3021 26.7299 41.4158C26.6918 41.5295 26.6306 41.6341 26.5501 41.723C26.4697 41.8119 26.3717 41.8833 26.2623 41.9325C26.153 41.9817 26.0346 42.0077 25.9147 42.009C25.7948 42.0102 25.6759 41.9867 25.5656 41.9397C25.4552 41.8928 25.3558 41.8236 25.2735 41.7364C25.1912 41.6492 25.1278 41.5459 25.0873 41.433C24.9556 41.1959 22.4533 35.6382 24.7713 31.5818C25.5313 30.4104 26.5738 29.449 27.8028 28.7862C29.0318 28.1234 30.4078 27.7804 31.8041 27.7888C33.0164 27.5199 34.2782 27.5756 35.4621 27.9502C36.646 28.3248 37.7101 29.0051 38.5471 29.9224C41.6289 33.7417 39.1793 41.0379 39.0739 41.354C39.015 41.5412 38.8944 41.7031 38.7318 41.8131C38.5692 41.9231 38.3741 41.9748 38.1784 41.9598Z" fill="black"/>
<path d="M28.9857 30.1595C28.8228 30.1624 28.6623 30.1196 28.5226 30.0357C28.3829 29.9519 28.2695 29.8305 28.1955 29.6853C27.0204 27.3929 26.6619 24.7685 27.1791 22.2449C27.6962 19.7214 29.0582 17.4495 31.0402 15.8041C31.2956 15.592 31.617 15.476 31.9489 15.476C32.2809 15.476 32.6023 15.592 32.8577 15.8041C34.201 16.7787 38.3891 20.6507 36.756 29.2902C36.754 29.4202 36.7237 29.5482 36.6673 29.6654C36.6108 29.7825 36.5295 29.8859 36.4291 29.9684C36.3286 30.051 36.2114 30.1107 36.0856 30.1433C35.9597 30.176 35.8283 30.1809 35.7003 30.1576C35.5724 30.1343 35.4511 30.0835 35.3448 30.0086C35.2385 29.9338 35.1498 29.8366 35.0848 29.724C35.0199 29.6114 34.9802 29.486 34.9686 29.3565C34.957 29.227 34.9737 29.0965 35.0176 28.9741C36.4136 21.7043 33.2791 18.4381 32.0148 17.3318C30.3823 18.7348 29.2725 20.6489 28.866 22.7627C28.4595 24.8765 28.7802 27.0657 29.7759 28.9741C29.8774 29.1843 29.893 29.4257 29.8192 29.6471C29.7454 29.8685 29.5881 30.0523 29.3808 30.1595H28.9857Z" fill="black"/>
<path d="M37.4935 31.0023C37.3318 30.9996 37.1736 30.9543 37.0349 30.8711C36.8962 30.7878 36.7819 30.6696 36.7033 30.5282C36.5997 30.3213 36.5803 30.0823 36.649 29.8613C36.7178 29.6403 36.8694 29.4545 37.0721 29.3429C37.3092 29.3429 42.103 26.7089 41.866 18.4381C39.6959 18.6039 37.6239 19.4107 35.9131 20.756C35.8433 20.8492 35.7555 20.9273 35.6549 20.9859C35.5544 21.0445 35.443 21.0823 35.3276 21.097C35.2121 21.1118 35.0949 21.1032 34.9828 21.0717C34.8707 21.0403 34.7661 20.9867 34.6751 20.9141C34.5157 20.7474 34.4268 20.5257 34.4268 20.2951C34.4268 20.0644 34.5157 19.8427 34.6751 19.6761C36.7052 17.8909 39.2728 16.8341 41.9713 16.6733C42.1717 16.6455 42.3757 16.6592 42.5705 16.7136C42.7654 16.768 42.9469 16.8618 43.104 16.9894C43.2584 17.1185 43.3831 17.2795 43.4695 17.4614C43.5559 17.6433 43.6019 17.8417 43.6044 18.043C44.0522 27.7888 38.1257 30.7916 37.8886 30.9233L37.4935 31.0023Z" fill="black"/>
<path d="M26.7468 31.6081C26.6076 31.6351 26.4645 31.6351 26.3253 31.6081C26.0356 31.45 19.6613 27.7624 20.7939 18.1219C20.8402 17.7446 21.0305 17.3997 21.3249 17.1592C21.6194 16.9188 21.9953 16.8013 22.3743 16.8313C24.9578 16.908 27.4419 17.8442 29.4335 19.4916C29.5155 19.5725 29.5806 19.6688 29.6251 19.7751C29.6695 19.8814 29.6924 19.9954 29.6924 20.1106C29.6924 20.2258 29.6695 20.3398 29.6251 20.4461C29.5806 20.5524 29.5155 20.6487 29.4335 20.7296C29.2668 20.889 29.0451 20.9779 28.8145 20.9779C28.5839 20.9779 28.3621 20.889 28.1955 20.7296C26.5931 19.3765 24.5989 18.5733 22.506 18.438C22.1 20.5978 22.3236 22.8288 23.1502 24.865C23.9768 26.9012 25.3716 28.6567 27.1682 29.9223C27.2688 29.9773 27.3576 30.0517 27.4293 30.1412C27.501 30.2307 27.5544 30.3335 27.5862 30.4437C27.618 30.5538 27.6277 30.6692 27.6148 30.7832C27.6018 30.8971 27.5664 31.0074 27.5106 31.1076C27.4399 31.2519 27.3317 31.3745 27.1973 31.4625C27.0629 31.5506 26.9073 31.6008 26.7468 31.6081Z" fill="black"/>
<rect y="32" width="88" height="57" fill="#E6E6E6"/>
<path d="M28.8404 73.2V83H27.0204V78.8H21.9524V83H20.1324V73.2H21.9524V77.246H27.0204V73.2H28.8404ZM38.5364 75.524V83H36.8704V82.048C36.5904 82.384 36.2404 82.6453 35.8204 82.832C35.4004 83.0093 34.9477 83.098 34.4624 83.098C33.4637 83.098 32.6751 82.8227 32.0964 82.272C31.5271 81.712 31.2424 80.886 31.2424 79.794V75.524H32.9924V79.556C32.9924 80.228 33.1417 80.732 33.4404 81.068C33.7484 81.3947 34.1824 81.558 34.7424 81.558C35.3677 81.558 35.8624 81.3667 36.2264 80.984C36.5997 80.592 36.7864 80.032 36.7864 79.304V75.524H38.5364ZM47.8557 79.304C47.8557 79.4253 47.8464 79.598 47.8277 79.822H41.9617C42.0644 80.3727 42.3304 80.8113 42.7597 81.138C43.1984 81.4553 43.7397 81.614 44.3837 81.614C45.205 81.614 45.8817 81.3433 46.4137 80.802L47.3517 81.88C47.0157 82.2813 46.591 82.5847 46.0777 82.79C45.5644 82.9953 44.9857 83.098 44.3417 83.098C43.5204 83.098 42.797 82.9347 42.1717 82.608C41.5464 82.2813 41.061 81.8287 40.7157 81.25C40.3797 80.662 40.2117 79.9993 40.2117 79.262C40.2117 78.534 40.375 77.8807 40.7017 77.302C41.0377 76.714 41.4997 76.2567 42.0877 75.93C42.6757 75.6033 43.3384 75.44 44.0757 75.44C44.8037 75.44 45.4524 75.6033 46.0217 75.93C46.6004 76.2473 47.0484 76.7 47.3657 77.288C47.6924 77.8667 47.8557 78.5387 47.8557 79.304ZM44.0757 76.84C43.5157 76.84 43.0397 77.008 42.6477 77.344C42.265 77.6707 42.0317 78.1093 41.9477 78.66H46.1897C46.115 78.1187 45.8864 77.68 45.5037 77.344C45.121 77.008 44.645 76.84 44.0757 76.84ZM51.2027 76.616C51.7067 75.832 52.5933 75.44 53.8627 75.44V77.106C53.7133 77.078 53.578 77.064 53.4567 77.064C52.7753 77.064 52.2433 77.2647 51.8607 77.666C51.478 78.058 51.2867 78.6273 51.2867 79.374V83H49.5367V75.524H51.2027V76.616ZM60.1147 82.594C59.9093 82.762 59.6573 82.888 59.3587 82.972C59.0693 83.056 58.7613 83.098 58.4347 83.098C57.6133 83.098 56.9787 82.8833 56.5307 82.454C56.0827 82.0247 55.8587 81.3993 55.8587 80.578V76.98H54.6267V75.58H55.8587V73.872H57.6087V75.58H59.6107V76.98H57.6087V80.536C57.6087 80.9 57.6973 81.18 57.8747 81.376C58.052 81.5627 58.3087 81.656 58.6447 81.656C59.0367 81.656 59.3633 81.5533 59.6247 81.348L60.1147 82.594ZM64.6682 83.098C63.9122 83.098 63.2308 82.9347 62.6242 82.608C62.0175 82.2813 61.5415 81.8287 61.1962 81.25C60.8602 80.662 60.6922 79.9993 60.6922 79.262C60.6922 78.5247 60.8602 77.8667 61.1962 77.288C61.5415 76.7093 62.0175 76.2567 62.6242 75.93C63.2308 75.6033 63.9122 75.44 64.6682 75.44C65.4335 75.44 66.1195 75.6033 66.7262 75.93C67.3328 76.2567 67.8042 76.7093 68.1402 77.288C68.4855 77.8667 68.6582 78.5247 68.6582 79.262C68.6582 79.9993 68.4855 80.662 68.1402 81.25C67.8042 81.8287 67.3328 82.2813 66.7262 82.608C66.1195 82.9347 65.4335 83.098 64.6682 83.098ZM64.6682 81.6C65.3122 81.6 65.8442 81.3853 66.2642 80.956C66.6842 80.5267 66.8942 79.962 66.8942 79.262C66.8942 78.562 66.6842 77.9973 66.2642 77.568C65.8442 77.1387 65.3122 76.924 64.6682 76.924C64.0242 76.924 63.4922 77.1387 63.0722 77.568C62.6615 77.9973 62.4562 78.562 62.4562 79.262C62.4562 79.962 62.6615 80.5267 63.0722 80.956C63.4922 81.3853 64.0242 81.6 64.6682 81.6Z" fill="black"/>
<path d="M60.7782 41.7491H51.5328C51.409 41.749 51.2865 41.7231 51.1732 41.6733C51.0598 41.6234 50.9581 41.5506 50.8743 41.4594C50.7186 41.2755 50.6345 41.0417 50.6372 40.8009C51.4801 29.5273 46.1594 18.1747 44.5 14.9876C44.3888 14.7649 44.3358 14.5177 44.3459 14.269C44.356 14.0203 44.4289 13.7782 44.5577 13.5653C44.6865 13.3523 44.8671 13.1754 45.0827 13.0511C45.2983 12.9267 45.5418 12.8589 45.7907 12.854H52.8762C53.16 12.8543 53.4377 12.9365 53.6759 13.0906C53.9142 13.2448 54.1029 13.4645 54.2195 13.7232C58.1385 22.2847 60.6213 31.4329 61.5684 40.8009C61.5865 40.9217 61.5743 41.0451 61.5329 41.16C61.4916 41.275 61.4223 41.3778 61.3313 41.4594C61.1908 41.6232 60.9929 41.7269 60.7782 41.7491ZM52.5337 39.9843H59.8299C58.8157 31.2247 56.4708 22.6711 52.8762 14.6188H46.2911C50.3105 22.4721 52.4221 31.1623 52.4547 39.9843H52.5337Z" fill="black"/>
<path d="M60.7782 41.7491C60.5718 41.7507 60.3719 41.6765 60.2165 41.5406C60.0612 41.4046 59.9611 41.2164 59.9353 41.0116C59.1978 36.5338 62.3323 20.0975 63.4385 14.6715H57.1959L56.2477 18.9649C56.226 19.0769 56.1818 19.1833 56.1177 19.2778C56.0537 19.3722 55.9711 19.4526 55.8751 19.5142C55.779 19.5757 55.6715 19.6171 55.559 19.6359C55.4464 19.6547 55.3313 19.6505 55.2204 19.6234C54.9978 19.573 54.8039 19.437 54.6806 19.2447C54.5574 19.0525 54.5148 18.8195 54.5619 18.5961L55.5102 14.013C55.5815 13.6875 55.761 13.3959 56.0192 13.1854C56.2775 12.975 56.5994 12.8582 56.9325 12.854H63.6756C63.8911 12.8554 64.1039 12.9031 64.2993 12.994C64.4947 13.0849 64.6683 13.2168 64.8082 13.3808C64.9482 13.5463 65.0492 13.741 65.1039 13.9507C65.1586 14.1604 65.1656 14.3797 65.1243 14.5925C63.1225 24.5227 60.9889 37.324 61.5421 40.7218C61.5802 40.9488 61.5267 41.1817 61.3934 41.3694C61.2601 41.557 61.0578 41.6841 60.8309 41.7228L60.7782 41.7491Z" fill="black"/>
<path d="M51.0587 14.6187C50.8462 14.6062 50.6457 14.5162 50.4952 14.3657C50.3447 14.2152 50.2547 14.0147 50.2421 13.8022L49.8734 8.32346C49.8553 8.12763 49.8788 7.9302 49.9424 7.74409C50.0059 7.55798 50.1081 7.3874 50.2421 7.24352C50.3758 7.09644 50.5384 6.97844 50.7196 6.89688C50.9009 6.81531 51.097 6.77192 51.2957 6.76939H59.6719C59.869 6.76697 60.0644 6.80552 60.2457 6.88261C60.4271 6.95969 60.5905 7.07362 60.7255 7.21718C60.8678 7.36179 60.9769 7.53568 61.0451 7.72674C61.1133 7.9178 61.1391 8.12143 61.1206 8.32346L60.7782 13.7759C60.7782 14.0064 60.6866 14.2275 60.5236 14.3905C60.3606 14.5535 60.1395 14.6451 59.909 14.6451C59.6784 14.6451 59.4573 14.5535 59.2943 14.3905C59.1313 14.2275 59.0397 14.0064 59.0397 13.7759L59.3295 8.63954H51.5855L51.9279 13.9076C51.935 14.0218 51.9196 14.1362 51.8823 14.2444C51.8451 14.3526 51.7869 14.4524 51.7111 14.5381C51.6352 14.6237 51.5432 14.6936 51.4403 14.7436C51.3374 14.7936 51.2256 14.8228 51.1114 14.8295L51.0587 14.6187Z" fill="black"/>
<path d="M65.6248 50.2305C65.3942 50.2305 65.1731 50.1389 65.0101 49.9759C64.8471 49.8129 64.7555 49.5918 64.7555 49.3613V41.9597H22.6114V49.3613C22.6114 49.5918 22.5198 49.8129 22.3568 49.9759C22.1938 50.1389 21.9727 50.2305 21.7421 50.2305C21.5116 50.2305 21.2905 50.1389 21.1275 49.9759C20.9645 49.8129 20.8729 49.5918 20.8729 49.3613V41.0642C20.8729 40.8336 20.9645 40.6125 21.1275 40.4495C21.2905 40.2865 21.5116 40.1949 21.7421 40.1949H65.6248C65.8553 40.1949 66.0764 40.2865 66.2394 40.4495C66.4024 40.6125 66.494 40.8336 66.494 41.0642V49.3613C66.494 49.5918 66.4024 49.8129 66.2394 49.9759C66.0764 50.1389 65.8553 50.2305 65.6248 50.2305Z" fill="black"/>
<path d="M38.1784 41.9598H37.8886C37.6719 41.8819 37.4934 41.7235 37.3904 41.5175C37.2874 41.3114 37.2677 41.0737 37.3355 40.8535C37.3355 40.8535 39.7061 34.0841 37.0721 31.0023C36.3972 30.3208 35.5568 29.8265 34.6332 29.5679C33.7096 29.3093 32.7347 29.2953 31.8041 29.5273C30.7144 29.5314 29.6421 29.7996 28.6787 30.3088C27.7154 30.818 26.8898 31.553 26.2726 32.451C24.4288 35.7172 26.6414 40.6691 26.6677 40.7218C26.7254 40.8269 26.7607 40.9429 26.7714 41.0623C26.7821 41.1817 26.7679 41.3021 26.7299 41.4158C26.6918 41.5295 26.6306 41.6341 26.5501 41.723C26.4697 41.8119 26.3717 41.8833 26.2623 41.9325C26.153 41.9817 26.0346 42.0077 25.9147 42.009C25.7948 42.0102 25.6759 41.9867 25.5656 41.9397C25.4552 41.8928 25.3558 41.8236 25.2735 41.7364C25.1912 41.6492 25.1278 41.5459 25.0873 41.433C24.9556 41.1959 22.4533 35.6382 24.7713 31.5818C25.5313 30.4104 26.5738 29.449 27.8028 28.7862C29.0318 28.1234 30.4078 27.7804 31.8041 27.7888C33.0164 27.5199 34.2782 27.5756 35.4621 27.9502C36.646 28.3248 37.7101 29.0051 38.5471 29.9224C41.6289 33.7417 39.1793 41.0379 39.0739 41.354C39.015 41.5412 38.8944 41.7031 38.7318 41.8131C38.5692 41.9231 38.3741 41.9748 38.1784 41.9598Z" fill="black"/>
<path d="M28.9857 30.1595C28.8228 30.1624 28.6623 30.1196 28.5226 30.0357C28.3829 29.9519 28.2695 29.8305 28.1955 29.6853C27.0204 27.3929 26.6619 24.7685 27.1791 22.2449C27.6962 19.7214 29.0582 17.4495 31.0402 15.8041C31.2956 15.592 31.617 15.476 31.9489 15.476C32.2809 15.476 32.6023 15.592 32.8577 15.8041C34.201 16.7787 38.3891 20.6507 36.756 29.2902C36.754 29.4202 36.7237 29.5482 36.6673 29.6654C36.6108 29.7825 36.5295 29.8859 36.4291 29.9684C36.3286 30.051 36.2114 30.1107 36.0856 30.1433C35.9597 30.176 35.8283 30.1809 35.7003 30.1576C35.5724 30.1343 35.4511 30.0835 35.3448 30.0086C35.2385 29.9338 35.1498 29.8366 35.0848 29.724C35.0199 29.6114 34.9802 29.486 34.9686 29.3565C34.957 29.227 34.9737 29.0965 35.0176 28.9741C36.4136 21.7043 33.2791 18.4381 32.0148 17.3318C30.3823 18.7348 29.2725 20.6489 28.866 22.7627C28.4595 24.8765 28.7802 27.0657 29.7759 28.9741C29.8774 29.1843 29.893 29.4257 29.8192 29.6471C29.7454 29.8685 29.5881 30.0523 29.3808 30.1595H28.9857Z" fill="black"/>
<path d="M37.4935 31.0023C37.3318 30.9996 37.1736 30.9543 37.0349 30.8711C36.8962 30.7878 36.7819 30.6696 36.7033 30.5282C36.5997 30.3213 36.5803 30.0823 36.649 29.8613C36.7178 29.6403 36.8694 29.4545 37.0721 29.3429C37.3092 29.3429 42.103 26.7089 41.866 18.4381C39.6959 18.6039 37.6239 19.4107 35.9131 20.756C35.8433 20.8492 35.7555 20.9273 35.6549 20.9859C35.5544 21.0445 35.443 21.0823 35.3276 21.097C35.2121 21.1118 35.0949 21.1032 34.9828 21.0717C34.8707 21.0403 34.7661 20.9867 34.6751 20.9141C34.5157 20.7474 34.4268 20.5257 34.4268 20.2951C34.4268 20.0644 34.5157 19.8427 34.6751 19.6761C36.7052 17.8909 39.2728 16.8341 41.9713 16.6733C42.1717 16.6455 42.3757 16.6592 42.5705 16.7136C42.7654 16.768 42.9469 16.8618 43.104 16.9894C43.2584 17.1185 43.3831 17.2795 43.4695 17.4614C43.5559 17.6433 43.6019 17.8417 43.6044 18.043C44.0522 27.7888 38.1257 30.7916 37.8886 30.9233L37.4935 31.0023Z" fill="black"/>
<path d="M26.7468 31.6081C26.6076 31.6351 26.4645 31.6351 26.3253 31.6081C26.0356 31.45 19.6613 27.7624 20.7939 18.1219C20.8402 17.7446 21.0305 17.3997 21.3249 17.1592C21.6194 16.9188 21.9953 16.8013 22.3743 16.8313C24.9578 16.908 27.4419 17.8442 29.4335 19.4916C29.5155 19.5725 29.5806 19.6688 29.6251 19.7751C29.6695 19.8814 29.6924 19.9954 29.6924 20.1106C29.6924 20.2258 29.6695 20.3398 29.6251 20.4461C29.5806 20.5524 29.5155 20.6487 29.4335 20.7296C29.2668 20.889 29.0451 20.9779 28.8145 20.9779C28.5839 20.9779 28.3621 20.889 28.1955 20.7296C26.5931 19.3765 24.5989 18.5733 22.506 18.438C22.1 20.5978 22.3236 22.8288 23.1502 24.865C23.9768 26.9012 25.3716 28.6567 27.1682 29.9223C27.2688 29.9773 27.3576 30.0517 27.4293 30.1412C27.501 30.2307 27.5544 30.3335 27.5862 30.4437C27.618 30.5538 27.6277 30.6692 27.6148 30.7832C27.6018 30.8971 27.5664 31.0074 27.5106 31.1076C27.4399 31.2519 27.3317 31.3745 27.1973 31.4625C27.0629 31.5506 26.9073 31.6008 26.7468 31.6081Z" fill="black"/>
</svg>
