<svg width="88" height="87" viewBox="0 0 88 87" fill="none" xmlns="http://www.w3.org/2000/svg">
<rect y="30" width="88" height="57" fill="#E6E6E6"/>
<path d="M18.3482 71.2H20.1682V79.46H25.2922V81H18.3482V71.2ZM29.8527 81.098C29.0967 81.098 28.4154 80.9347 27.8087 80.608C27.2021 80.2813 26.7261 79.8287 26.3807 79.25C26.0447 78.662 25.8767 77.9993 25.8767 77.262C25.8767 76.5247 26.0447 75.8667 26.3807 75.288C26.7261 74.7093 27.2021 74.2567 27.8087 73.93C28.4154 73.6033 29.0967 73.44 29.8527 73.44C30.6181 73.44 31.3041 73.6033 31.9107 73.93C32.5174 74.2567 32.9887 74.7093 33.3247 75.288C33.6701 75.8667 33.8427 76.5247 33.8427 77.262C33.8427 77.9993 33.6701 78.662 33.3247 79.25C32.9887 79.8287 32.5174 80.2813 31.9107 80.608C31.3041 80.9347 30.6181 81.098 29.8527 81.098ZM29.8527 79.6C30.4967 79.6 31.0287 79.3853 31.4487 78.956C31.8687 78.5267 32.0787 77.962 32.0787 77.262C32.0787 76.562 31.8687 75.9973 31.4487 75.568C31.0287 75.1387 30.4967 74.924 29.8527 74.924C29.2087 74.924 28.6767 75.1387 28.2567 75.568C27.8461 75.9973 27.6407 76.562 27.6407 77.262C27.6407 77.962 27.8461 78.5267 28.2567 78.956C28.6767 79.3853 29.2087 79.6 29.8527 79.6ZM38.9462 81.098C38.1715 81.098 37.4762 80.9347 36.8602 80.608C36.2442 80.2813 35.7635 79.8287 35.4182 79.25C35.0728 78.662 34.9002 77.9993 34.9002 77.262C34.9002 76.5247 35.0728 75.8667 35.4182 75.288C35.7635 74.7093 36.2395 74.2567 36.8462 73.93C37.4622 73.6033 38.1622 73.44 38.9462 73.44C39.6835 73.44 40.3275 73.5893 40.8782 73.888C41.4382 74.1867 41.8582 74.616 42.1382 75.176L40.7942 75.96C40.5795 75.6147 40.3088 75.358 39.9822 75.19C39.6648 75.0127 39.3148 74.924 38.9322 74.924C38.2788 74.924 37.7375 75.1387 37.3082 75.568C36.8788 75.988 36.6642 76.5527 36.6642 77.262C36.6642 77.9713 36.8742 78.5407 37.2942 78.97C37.7235 79.39 38.2695 79.6 38.9322 79.6C39.3148 79.6 39.6648 79.516 39.9822 79.348C40.3088 79.1707 40.5795 78.9093 40.7942 78.564L42.1382 79.348C41.8488 79.908 41.4242 80.342 40.8642 80.65C40.3135 80.9487 39.6742 81.098 38.9462 81.098ZM46.5069 73.44C47.6083 73.44 48.4483 73.706 49.0269 74.238C49.6149 74.7607 49.9089 75.554 49.9089 76.618V81H48.2569V80.09C48.0423 80.4167 47.7343 80.6687 47.3329 80.846C46.9409 81.014 46.4649 81.098 45.9049 81.098C45.3449 81.098 44.8549 81.0047 44.4349 80.818C44.0149 80.622 43.6883 80.356 43.4549 80.02C43.2309 79.6747 43.1189 79.2873 43.1189 78.858C43.1189 78.186 43.3663 77.6493 43.8609 77.248C44.3649 76.8373 45.1536 76.632 46.2269 76.632H48.1589V76.52C48.1589 75.9973 48.0003 75.596 47.6829 75.316C47.3749 75.036 46.9129 74.896 46.2969 74.896C45.8769 74.896 45.4616 74.9613 45.0509 75.092C44.6496 75.2227 44.3089 75.4047 44.0289 75.638L43.3429 74.364C43.7349 74.0653 44.2063 73.8367 44.7569 73.678C45.3076 73.5193 45.8909 73.44 46.5069 73.44ZM46.2689 79.824C46.7076 79.824 47.0949 79.726 47.4309 79.53C47.7763 79.3247 48.0189 79.0353 48.1589 78.662V77.794H46.3529C45.3449 77.794 44.8409 78.1253 44.8409 78.788C44.8409 79.1053 44.9669 79.3573 45.2189 79.544C45.4709 79.7307 45.8209 79.824 46.2689 79.824ZM52.1548 70.612H53.9048V81H52.1548V70.612ZM63.2297 77.304C63.2297 77.4253 63.2204 77.598 63.2017 77.822H57.3357C57.4384 78.3727 57.7044 78.8113 58.1337 79.138C58.5724 79.4553 59.1137 79.614 59.7577 79.614C60.579 79.614 61.2557 79.3433 61.7877 78.802L62.7257 79.88C62.3897 80.2813 61.965 80.5847 61.4517 80.79C60.9384 80.9953 60.3597 81.098 59.7157 81.098C58.8944 81.098 58.171 80.9347 57.5457 80.608C56.9204 80.2813 56.435 79.8287 56.0897 79.25C55.7537 78.662 55.5857 77.9993 55.5857 77.262C55.5857 76.534 55.749 75.8807 56.0757 75.302C56.4117 74.714 56.8737 74.2567 57.4617 73.93C58.0497 73.6033 58.7124 73.44 59.4497 73.44C60.1777 73.44 60.8264 73.6033 61.3957 73.93C61.9744 74.2473 62.4224 74.7 62.7397 75.288C63.0664 75.8667 63.2297 76.5387 63.2297 77.304ZM59.4497 74.84C58.8897 74.84 58.4137 75.008 58.0217 75.344C57.639 75.6707 57.4057 76.1093 57.3217 76.66H61.5637C61.489 76.1187 61.2604 75.68 60.8777 75.344C60.495 75.008 60.019 74.84 59.4497 74.84ZM67.2207 81.098C66.614 81.098 66.0214 81.0187 65.4427 80.86C64.864 80.7013 64.402 80.5007 64.0567 80.258L64.7287 78.928C65.0647 79.152 65.466 79.334 65.9327 79.474C66.4087 79.6047 66.8754 79.67 67.3327 79.67C68.378 79.67 68.9007 79.3947 68.9007 78.844C68.9007 78.5827 68.7654 78.4007 68.4947 78.298C68.2334 78.1953 67.8087 78.0973 67.2207 78.004C66.6047 77.9107 66.1007 77.8033 65.7087 77.682C65.326 77.5607 64.99 77.3507 64.7007 77.052C64.4207 76.744 64.2807 76.3193 64.2807 75.778C64.2807 75.0687 64.5747 74.504 65.1627 74.084C65.76 73.6547 66.5627 73.44 67.5707 73.44C68.084 73.44 68.5974 73.5007 69.1107 73.622C69.624 73.734 70.044 73.888 70.3707 74.084L69.6987 75.414C69.064 75.0407 68.35 74.854 67.5567 74.854C67.0434 74.854 66.6514 74.9333 66.3807 75.092C66.1194 75.2413 65.9887 75.442 65.9887 75.694C65.9887 75.974 66.1287 76.1747 66.4087 76.296C66.698 76.408 67.1414 76.5153 67.7387 76.618C68.336 76.7113 68.826 76.8187 69.2087 76.94C69.5914 77.0613 69.918 77.2667 70.1887 77.556C70.4687 77.8453 70.6087 78.256 70.6087 78.788C70.6087 79.488 70.3054 80.048 69.6987 80.468C69.092 80.888 68.266 81.098 67.2207 81.098Z" fill="black"/>
<path d="M59.5227 51.475H27.787C27.4254 51.475 27.0787 51.3314 26.823 51.0758C26.5674 50.8201 26.4238 50.4734 26.4238 50.1118V24.5379C26.4238 24.4305 26.4449 24.3241 26.486 24.2249C26.5271 24.1257 26.5874 24.0355 26.6633 23.9595C26.7393 23.8836 26.8295 23.8233 26.9287 23.7822C27.0279 23.7411 27.1343 23.72 27.2417 23.72C27.3491 23.72 27.4555 23.7411 27.5547 23.7822C27.6539 23.8233 27.7441 23.8836 27.8201 23.9595C27.896 24.0355 27.9563 24.1257 27.9974 24.2249C28.0385 24.3241 28.0596 24.4305 28.0596 24.5379V49.7574H59.25V25.4922C59.25 25.3847 59.2712 25.2784 59.3123 25.1791C59.3534 25.0799 59.4136 24.9897 59.4896 24.9138C59.5655 24.8378 59.6557 24.7776 59.7549 24.7365C59.8542 24.6954 59.9605 24.6742 60.068 24.6742C60.1764 24.6704 60.2844 24.689 60.3854 24.7287C60.4864 24.7685 60.5781 24.8286 60.6548 24.9053C60.7315 24.982 60.7916 25.0737 60.8314 25.1747C60.8711 25.2757 60.8897 25.3837 60.8859 25.4922V50.03C60.897 50.2158 60.8701 50.4019 60.8066 50.5769C60.7431 50.7518 60.6444 50.9119 60.5167 51.0473C60.389 51.1827 60.2349 51.2905 60.064 51.364C59.893 51.4376 59.7088 51.4754 59.5227 51.475Z" fill="black"/>
<path d="M61.3494 27.2643C61.0752 27.2663 60.8076 27.1803 60.586 27.019L43.5458 14.9136L25.9057 26.61C25.6161 26.8112 25.2586 26.8898 24.9113 26.8285C24.564 26.7672 24.255 26.571 24.0518 26.2828L21.5707 22.8203C21.3643 22.5271 21.2766 22.1667 21.3253 21.8115C21.3499 21.6257 21.4168 21.4479 21.5208 21.292C21.6248 21.136 21.7631 21.0059 21.9252 20.9118L43.3549 6.73431C43.5829 6.58864 43.8478 6.51123 44.1183 6.51123C44.3889 6.51123 44.6537 6.58864 44.8817 6.73431L65.2209 21.2662C65.3781 21.376 65.5103 21.5178 65.609 21.6822C65.7076 21.8467 65.7705 22.0301 65.7935 22.2204C65.8151 22.4107 65.7971 22.6033 65.7408 22.7862C65.6846 22.9692 65.5911 23.1386 65.4663 23.2838L62.4399 26.6645C62.3158 26.8409 62.153 26.9866 61.964 27.0905C61.775 27.1945 61.5648 27.2539 61.3494 27.2643ZM43.5185 13.3595C43.7921 13.3612 44.0586 13.4469 44.2819 13.6049L61.3494 25.4104L64.0758 22.4113L44.0911 8.17932L23.1793 22.0841L25.415 25.1105L42.8096 13.4686C43.0313 13.3072 43.2989 13.2212 43.573 13.2232L43.5185 13.3595Z" fill="black"/>
</svg>
