<svg width="88" height="88" viewBox="0 0 88 88" fill="none" xmlns="http://www.w3.org/2000/svg">
<rect y="31" width="88" height="57" fill="#E6E6E6"/>
<path d="M20.5892 72.2C21.4385 72.2 22.1759 72.34 22.8012 72.62C23.4359 72.9 23.9212 73.3013 24.2572 73.824C24.5932 74.3467 24.7612 74.9673 24.7612 75.686C24.7612 76.3953 24.5932 77.016 24.2572 77.548C23.9212 78.0707 23.4359 78.472 22.8012 78.752C22.1759 79.032 21.4385 79.172 20.5892 79.172H18.3772V82H16.5572V72.2H20.5892ZM20.5052 77.632C21.2985 77.632 21.9005 77.464 22.3112 77.128C22.7219 76.792 22.9272 76.3113 22.9272 75.686C22.9272 75.0607 22.7219 74.58 22.3112 74.244C21.9005 73.908 21.2985 73.74 20.5052 73.74H18.3772V77.632H20.5052ZM33.7854 74.524V82H32.1194V81.048C31.8394 81.384 31.4894 81.6453 31.0694 81.832C30.6494 82.0093 30.1967 82.098 29.7114 82.098C28.7127 82.098 27.9241 81.8227 27.3454 81.272C26.7761 80.712 26.4914 79.886 26.4914 78.794V74.524H28.2414V78.556C28.2414 79.228 28.3907 79.732 28.6894 80.068C28.9974 80.3947 29.4314 80.558 29.9914 80.558C30.6167 80.558 31.1114 80.3667 31.4754 79.984C31.8487 79.592 32.0354 79.032 32.0354 78.304V74.524H33.7854ZM43.1047 78.304C43.1047 78.4253 43.0954 78.598 43.0767 78.822H37.2107C37.3134 79.3727 37.5794 79.8113 38.0087 80.138C38.4474 80.4553 38.9887 80.614 39.6327 80.614C40.454 80.614 41.1307 80.3433 41.6627 79.802L42.6007 80.88C42.2647 81.2813 41.84 81.5847 41.3267 81.79C40.8134 81.9953 40.2347 82.098 39.5907 82.098C38.7694 82.098 38.046 81.9347 37.4207 81.608C36.7954 81.2813 36.31 80.8287 35.9647 80.25C35.6287 79.662 35.4607 78.9993 35.4607 78.262C35.4607 77.534 35.624 76.8807 35.9507 76.302C36.2867 75.714 36.7487 75.2567 37.3367 74.93C37.9247 74.6033 38.5874 74.44 39.3247 74.44C40.0527 74.44 40.7014 74.6033 41.2707 74.93C41.8494 75.2473 42.2974 75.7 42.6147 76.288C42.9414 76.8667 43.1047 77.5387 43.1047 78.304ZM39.3247 75.84C38.7647 75.84 38.2887 76.008 37.8967 76.344C37.514 76.6707 37.2807 77.1093 37.1967 77.66H41.4387C41.364 77.1187 41.1354 76.68 40.7527 76.344C40.37 76.008 39.894 75.84 39.3247 75.84ZM47.0957 82.098C46.489 82.098 45.8964 82.0187 45.3177 81.86C44.739 81.7013 44.277 81.5007 43.9317 81.258L44.6037 79.928C44.9397 80.152 45.341 80.334 45.8077 80.474C46.2837 80.6047 46.7504 80.67 47.2077 80.67C48.253 80.67 48.7757 80.3947 48.7757 79.844C48.7757 79.5827 48.6404 79.4007 48.3697 79.298C48.1084 79.1953 47.6837 79.0973 47.0957 79.004C46.4797 78.9107 45.9757 78.8033 45.5837 78.682C45.201 78.5607 44.865 78.3507 44.5757 78.052C44.2957 77.744 44.1557 77.3193 44.1557 76.778C44.1557 76.0687 44.4497 75.504 45.0377 75.084C45.635 74.6547 46.4377 74.44 47.4457 74.44C47.959 74.44 48.4724 74.5007 48.9857 74.622C49.499 74.734 49.919 74.888 50.2457 75.084L49.5737 76.414C48.939 76.0407 48.225 75.854 47.4317 75.854C46.9184 75.854 46.5264 75.9333 46.2557 76.092C45.9944 76.2413 45.8637 76.442 45.8637 76.694C45.8637 76.974 46.0037 77.1747 46.2837 77.296C46.573 77.408 47.0164 77.5153 47.6137 77.618C48.211 77.7113 48.701 77.8187 49.0837 77.94C49.4664 78.0613 49.793 78.2667 50.0637 78.556C50.3437 78.8453 50.4837 79.256 50.4837 79.788C50.4837 80.488 50.1804 81.048 49.5737 81.468C48.967 81.888 48.141 82.098 47.0957 82.098ZM56.4848 81.594C56.2794 81.762 56.0274 81.888 55.7288 81.972C55.4394 82.056 55.1314 82.098 54.8048 82.098C53.9834 82.098 53.3488 81.8833 52.9008 81.454C52.4528 81.0247 52.2288 80.3993 52.2288 79.578V75.98H50.9968V74.58H52.2288V72.872H53.9788V74.58H55.9808V75.98H53.9788V79.536C53.9788 79.9 54.0674 80.18 54.2448 80.376C54.4221 80.5627 54.6788 80.656 55.0148 80.656C55.4068 80.656 55.7334 80.5533 55.9948 80.348L56.4848 81.594ZM61.0383 82.098C60.2823 82.098 59.6009 81.9347 58.9943 81.608C58.3876 81.2813 57.9116 80.8287 57.5663 80.25C57.2303 79.662 57.0623 78.9993 57.0623 78.262C57.0623 77.5247 57.2303 76.8667 57.5663 76.288C57.9116 75.7093 58.3876 75.2567 58.9943 74.93C59.6009 74.6033 60.2823 74.44 61.0383 74.44C61.8036 74.44 62.4896 74.6033 63.0963 74.93C63.7029 75.2567 64.1743 75.7093 64.5103 76.288C64.8556 76.8667 65.0283 77.5247 65.0283 78.262C65.0283 78.9993 64.8556 79.662 64.5103 80.25C64.1743 80.8287 63.7029 81.2813 63.0963 81.608C62.4896 81.9347 61.8036 82.098 61.0383 82.098ZM61.0383 80.6C61.6823 80.6 62.2143 80.3853 62.6343 79.956C63.0543 79.5267 63.2643 78.962 63.2643 78.262C63.2643 77.562 63.0543 76.9973 62.6343 76.568C62.2143 76.1387 61.6823 75.924 61.0383 75.924C60.3943 75.924 59.8623 76.1387 59.4423 76.568C59.0316 76.9973 58.8263 77.562 58.8263 78.262C58.8263 78.962 59.0316 79.5267 59.4423 79.956C59.8623 80.3853 60.3943 80.6 61.0383 80.6ZM69.0117 82.098C68.405 82.098 67.8124 82.0187 67.2337 81.86C66.655 81.7013 66.193 81.5007 65.8477 81.258L66.5197 79.928C66.8557 80.152 67.257 80.334 67.7237 80.474C68.1997 80.6047 68.6664 80.67 69.1237 80.67C70.169 80.67 70.6917 80.3947 70.6917 79.844C70.6917 79.5827 70.5564 79.4007 70.2857 79.298C70.0244 79.1953 69.5997 79.0973 69.0117 79.004C68.3957 78.9107 67.8917 78.8033 67.4997 78.682C67.117 78.5607 66.781 78.3507 66.4917 78.052C66.2117 77.744 66.0717 77.3193 66.0717 76.778C66.0717 76.0687 66.3657 75.504 66.9537 75.084C67.551 74.6547 68.3537 74.44 69.3617 74.44C69.875 74.44 70.3884 74.5007 70.9017 74.622C71.415 74.734 71.835 74.888 72.1617 75.084L71.4897 76.414C70.855 76.0407 70.141 75.854 69.3477 75.854C68.8344 75.854 68.4424 75.9333 68.1717 76.092C67.9104 76.2413 67.7797 76.442 67.7797 76.694C67.7797 76.974 67.9197 77.1747 68.1997 77.296C68.489 77.408 68.9324 77.5153 69.5297 77.618C70.127 77.7113 70.617 77.8187 70.9997 77.94C71.3824 78.0613 71.709 78.2667 71.9797 78.556C72.2597 78.8453 72.3997 79.256 72.3997 79.788C72.3997 80.488 72.0964 81.048 71.4897 81.468C70.883 81.888 70.057 82.098 69.0117 82.098Z" fill="black"/>
<path d="M56.6608 13.4085H31.3623C30.9824 13.4085 30.618 13.2575 30.3493 12.9889C30.0807 12.7202 29.9298 12.3559 29.9298 11.9759V9.88444C29.9298 9.50451 30.0807 9.14013 30.3493 8.87148C30.618 8.60283 30.9824 8.4519 31.3623 8.4519H56.6608C57.0407 8.4519 57.4051 8.60283 57.6738 8.87148C57.9424 9.14013 58.0933 9.50451 58.0933 9.88444V11.9759C58.0933 12.3559 57.9424 12.7202 57.6738 12.9889C57.4051 13.2575 57.0407 13.4085 56.6608 13.4085ZM31.6488 11.6894H56.3743V10.1709H31.6488V11.6894Z" fill="black"/>
<path d="M59.268 24.0379H28.7551C28.525 24.0416 28.2975 23.9886 28.0926 23.8837C27.8878 23.7788 27.7119 23.6251 27.5804 23.4362C27.4427 23.249 27.3547 23.0299 27.3247 22.7994C27.2946 22.5689 27.3235 22.3346 27.4085 22.1183L30.9898 12.6349C31.0847 12.3603 31.2624 12.1219 31.4984 11.9526C31.7345 11.7833 32.0173 11.6913 32.3078 11.6895H55.6867C55.9801 11.6936 56.2655 11.786 56.5057 11.9546C56.7459 12.1233 56.9297 12.3603 57.0333 12.6349L60.6146 22.1183C60.6857 22.3369 60.7071 22.5687 60.6774 22.7967C60.6476 23.0246 60.5675 23.2431 60.4427 23.4362C60.3078 23.6216 60.1312 23.7727 59.9272 23.8772C59.7231 23.9818 59.4973 24.0368 59.268 24.0379ZM29.1562 22.3188H58.8383L55.4861 13.4085H32.5656L29.1562 22.3188Z" fill="black"/>
<path d="M57.8068 52.4593H29.9584C29.5785 52.4593 29.2141 52.3084 28.9455 52.0398C28.6768 51.7711 28.5259 51.4067 28.5259 51.0268V38.9649C28.5259 38.5849 28.6768 38.2206 28.9455 37.9519C29.2141 37.6833 29.5785 37.5323 29.9584 37.5323H57.8068C57.9936 37.5323 58.1786 37.5695 58.3508 37.6419C58.523 37.7142 58.6791 37.8202 58.8098 37.9536C58.9405 38.087 59.0434 38.2452 59.1122 38.4188C59.181 38.5925 59.2145 38.7781 59.2107 38.9649V51.0268C59.2145 51.2136 59.181 51.3992 59.1122 51.5728C59.0434 51.7465 58.9405 51.9047 58.8098 52.0381C58.6791 52.1715 58.523 52.2775 58.3508 52.3498C58.1786 52.4221 57.9936 52.4594 57.8068 52.4593ZM30.2449 50.7403H57.5203V39.28H30.2449V50.7403Z" fill="black"/>
<path d="M56.6895 39.2514C56.4638 39.2442 56.2493 39.1514 56.0896 38.9917C55.93 38.832 55.8371 38.6175 55.83 38.3919V23.1784C55.8371 22.9527 55.93 22.7382 56.0896 22.5785C56.2493 22.4189 56.4638 22.326 56.6895 22.3188C56.9174 22.3188 57.1361 22.4094 57.2972 22.5706C57.4584 22.7318 57.549 22.9504 57.549 23.1784V38.3919C57.549 38.6198 57.4584 38.8384 57.2972 38.9996C57.1361 39.1608 56.9174 39.2514 56.6895 39.2514Z" fill="black"/>
<path d="M31.9926 39.2514C31.7669 39.2442 31.5524 39.1514 31.3928 38.9917C31.2331 38.832 31.1403 38.6175 31.1331 38.3919V23.1784C31.1403 22.9527 31.2331 22.7382 31.3928 22.5785C31.5524 22.4189 31.7669 22.326 31.9926 22.3188C32.2206 22.3188 32.4392 22.4094 32.6004 22.5706C32.7616 22.7318 32.8521 22.9504 32.8521 23.1784V38.3919C32.8521 38.6198 32.7616 38.8384 32.6004 38.9996C32.4392 39.1608 32.2206 39.2514 31.9926 39.2514Z" fill="black"/>
<path d="M33.7403 24.0379H33.5111C33.3929 24.013 33.2815 23.9626 33.1848 23.8902C33.088 23.8178 33.0083 23.7252 32.951 23.6188C32.8937 23.5124 32.8603 23.3949 32.8531 23.2743C32.846 23.1537 32.8652 23.0329 32.9094 22.9205L35.7745 12.2911C35.802 12.1718 35.8555 12.0601 35.9313 11.9639C36.007 11.8677 36.103 11.7894 36.2125 11.7347C36.322 11.6799 36.4423 11.6501 36.5647 11.6472C36.6871 11.6443 36.8086 11.6686 36.9205 11.7181C37.0298 11.7479 37.1321 11.7991 37.2216 11.8686C37.311 11.9381 37.3858 12.0245 37.4418 12.1231C37.4977 12.2216 37.5336 12.3302 37.5474 12.4426C37.5612 12.555 37.5526 12.6691 37.5222 12.7782L34.6571 23.4076C34.6155 23.6108 34.4967 23.79 34.3257 23.9075C34.1548 24.025 33.945 24.0718 33.7403 24.0379Z" fill="black"/>
<path d="M41.6765 24.0378C41.451 24.0233 41.2396 23.9233 41.0852 23.7583C40.9309 23.5933 40.8452 23.3756 40.8457 23.1497L41.3614 12.5203C41.3614 12.2923 41.4519 12.0737 41.6131 11.9125C41.7743 11.7513 41.9929 11.6608 42.2209 11.6608C42.4489 11.6608 42.6675 11.7513 42.8287 11.9125C42.9899 12.0737 43.0804 12.2923 43.0804 12.5203L42.6507 23.2356C42.6438 23.3539 42.6126 23.4696 42.559 23.5752C42.5053 23.6809 42.4304 23.7743 42.339 23.8497C42.2475 23.925 42.1414 23.9806 42.0274 24.013C41.9134 24.0454 41.794 24.0538 41.6765 24.0378Z" fill="black"/>
<path d="M48.61 24.0378C48.4033 24.0469 48.2006 23.9785 48.0416 23.846C47.8826 23.7135 47.7788 23.5265 47.7505 23.3215L46.2033 12.6635C46.1777 12.4407 46.2373 12.2164 46.3701 12.0357C46.503 11.855 46.6993 11.7313 46.9196 11.6894C47.0326 11.6733 47.1477 11.6799 47.2582 11.7087C47.3686 11.7376 47.4722 11.7882 47.5629 11.8575C47.6536 11.9269 47.7295 12.0136 47.7863 12.1126C47.8431 12.2117 47.8796 12.321 47.8937 12.4343L49.4695 23.0637C49.4856 23.1767 49.479 23.2918 49.4501 23.4022C49.4213 23.5127 49.3707 23.6163 49.3013 23.707C49.232 23.7976 49.1453 23.8736 49.0462 23.9304C48.9472 23.9872 48.8379 24.0237 48.7246 24.0378H48.61Z" fill="black"/>
<path d="M55.0564 24.0378C54.8529 24.0672 54.6456 24.0227 54.4721 23.9123C54.2986 23.8019 54.1705 23.633 54.1109 23.4362L51.2458 12.7781C51.2157 12.669 51.2074 12.555 51.2214 12.4427C51.2353 12.3304 51.2713 12.2219 51.3271 12.1235C51.383 12.025 51.4577 11.9386 51.547 11.869C51.6363 11.7994 51.7384 11.7481 51.8475 11.718C52.0679 11.6573 52.3034 11.6865 52.5022 11.7993C52.6006 11.8552 52.6871 11.9299 52.7566 12.0192C52.8262 12.1085 52.8775 12.2106 52.9076 12.3197L55.7727 22.9491C55.8031 23.0582 55.8116 23.1723 55.7978 23.2847C55.784 23.3971 55.7481 23.5057 55.6922 23.6042C55.6363 23.7028 55.5615 23.7892 55.472 23.8587C55.3826 23.9282 55.2803 23.9794 55.171 24.0092L55.0564 24.0378Z" fill="black"/>
<rect y="31" width="88" height="57" fill="#E6E6E6"/>
<path d="M20.5892 72.2C21.4385 72.2 22.1759 72.34 22.8012 72.62C23.4359 72.9 23.9212 73.3013 24.2572 73.824C24.5932 74.3467 24.7612 74.9673 24.7612 75.686C24.7612 76.3953 24.5932 77.016 24.2572 77.548C23.9212 78.0707 23.4359 78.472 22.8012 78.752C22.1759 79.032 21.4385 79.172 20.5892 79.172H18.3772V82H16.5572V72.2H20.5892ZM20.5052 77.632C21.2985 77.632 21.9005 77.464 22.3112 77.128C22.7219 76.792 22.9272 76.3113 22.9272 75.686C22.9272 75.0607 22.7219 74.58 22.3112 74.244C21.9005 73.908 21.2985 73.74 20.5052 73.74H18.3772V77.632H20.5052ZM33.7854 74.524V82H32.1194V81.048C31.8394 81.384 31.4894 81.6453 31.0694 81.832C30.6494 82.0093 30.1967 82.098 29.7114 82.098C28.7127 82.098 27.9241 81.8227 27.3454 81.272C26.7761 80.712 26.4914 79.886 26.4914 78.794V74.524H28.2414V78.556C28.2414 79.228 28.3907 79.732 28.6894 80.068C28.9974 80.3947 29.4314 80.558 29.9914 80.558C30.6167 80.558 31.1114 80.3667 31.4754 79.984C31.8487 79.592 32.0354 79.032 32.0354 78.304V74.524H33.7854ZM43.1047 78.304C43.1047 78.4253 43.0954 78.598 43.0767 78.822H37.2107C37.3134 79.3727 37.5794 79.8113 38.0087 80.138C38.4474 80.4553 38.9887 80.614 39.6327 80.614C40.454 80.614 41.1307 80.3433 41.6627 79.802L42.6007 80.88C42.2647 81.2813 41.84 81.5847 41.3267 81.79C40.8134 81.9953 40.2347 82.098 39.5907 82.098C38.7694 82.098 38.046 81.9347 37.4207 81.608C36.7954 81.2813 36.31 80.8287 35.9647 80.25C35.6287 79.662 35.4607 78.9993 35.4607 78.262C35.4607 77.534 35.624 76.8807 35.9507 76.302C36.2867 75.714 36.7487 75.2567 37.3367 74.93C37.9247 74.6033 38.5874 74.44 39.3247 74.44C40.0527 74.44 40.7014 74.6033 41.2707 74.93C41.8494 75.2473 42.2974 75.7 42.6147 76.288C42.9414 76.8667 43.1047 77.5387 43.1047 78.304ZM39.3247 75.84C38.7647 75.84 38.2887 76.008 37.8967 76.344C37.514 76.6707 37.2807 77.1093 37.1967 77.66H41.4387C41.364 77.1187 41.1354 76.68 40.7527 76.344C40.37 76.008 39.894 75.84 39.3247 75.84ZM47.0957 82.098C46.489 82.098 45.8964 82.0187 45.3177 81.86C44.739 81.7013 44.277 81.5007 43.9317 81.258L44.6037 79.928C44.9397 80.152 45.341 80.334 45.8077 80.474C46.2837 80.6047 46.7504 80.67 47.2077 80.67C48.253 80.67 48.7757 80.3947 48.7757 79.844C48.7757 79.5827 48.6404 79.4007 48.3697 79.298C48.1084 79.1953 47.6837 79.0973 47.0957 79.004C46.4797 78.9107 45.9757 78.8033 45.5837 78.682C45.201 78.5607 44.865 78.3507 44.5757 78.052C44.2957 77.744 44.1557 77.3193 44.1557 76.778C44.1557 76.0687 44.4497 75.504 45.0377 75.084C45.635 74.6547 46.4377 74.44 47.4457 74.44C47.959 74.44 48.4724 74.5007 48.9857 74.622C49.499 74.734 49.919 74.888 50.2457 75.084L49.5737 76.414C48.939 76.0407 48.225 75.854 47.4317 75.854C46.9184 75.854 46.5264 75.9333 46.2557 76.092C45.9944 76.2413 45.8637 76.442 45.8637 76.694C45.8637 76.974 46.0037 77.1747 46.2837 77.296C46.573 77.408 47.0164 77.5153 47.6137 77.618C48.211 77.7113 48.701 77.8187 49.0837 77.94C49.4664 78.0613 49.793 78.2667 50.0637 78.556C50.3437 78.8453 50.4837 79.256 50.4837 79.788C50.4837 80.488 50.1804 81.048 49.5737 81.468C48.967 81.888 48.141 82.098 47.0957 82.098ZM56.4848 81.594C56.2794 81.762 56.0274 81.888 55.7288 81.972C55.4394 82.056 55.1314 82.098 54.8048 82.098C53.9834 82.098 53.3488 81.8833 52.9008 81.454C52.4528 81.0247 52.2288 80.3993 52.2288 79.578V75.98H50.9968V74.58H52.2288V72.872H53.9788V74.58H55.9808V75.98H53.9788V79.536C53.9788 79.9 54.0674 80.18 54.2448 80.376C54.4221 80.5627 54.6788 80.656 55.0148 80.656C55.4068 80.656 55.7334 80.5533 55.9948 80.348L56.4848 81.594ZM61.0383 82.098C60.2823 82.098 59.6009 81.9347 58.9943 81.608C58.3876 81.2813 57.9116 80.8287 57.5663 80.25C57.2303 79.662 57.0623 78.9993 57.0623 78.262C57.0623 77.5247 57.2303 76.8667 57.5663 76.288C57.9116 75.7093 58.3876 75.2567 58.9943 74.93C59.6009 74.6033 60.2823 74.44 61.0383 74.44C61.8036 74.44 62.4896 74.6033 63.0963 74.93C63.7029 75.2567 64.1743 75.7093 64.5103 76.288C64.8556 76.8667 65.0283 77.5247 65.0283 78.262C65.0283 78.9993 64.8556 79.662 64.5103 80.25C64.1743 80.8287 63.7029 81.2813 63.0963 81.608C62.4896 81.9347 61.8036 82.098 61.0383 82.098ZM61.0383 80.6C61.6823 80.6 62.2143 80.3853 62.6343 79.956C63.0543 79.5267 63.2643 78.962 63.2643 78.262C63.2643 77.562 63.0543 76.9973 62.6343 76.568C62.2143 76.1387 61.6823 75.924 61.0383 75.924C60.3943 75.924 59.8623 76.1387 59.4423 76.568C59.0316 76.9973 58.8263 77.562 58.8263 78.262C58.8263 78.962 59.0316 79.5267 59.4423 79.956C59.8623 80.3853 60.3943 80.6 61.0383 80.6ZM69.0117 82.098C68.405 82.098 67.8124 82.0187 67.2337 81.86C66.655 81.7013 66.193 81.5007 65.8477 81.258L66.5197 79.928C66.8557 80.152 67.257 80.334 67.7237 80.474C68.1997 80.6047 68.6664 80.67 69.1237 80.67C70.169 80.67 70.6917 80.3947 70.6917 79.844C70.6917 79.5827 70.5564 79.4007 70.2857 79.298C70.0244 79.1953 69.5997 79.0973 69.0117 79.004C68.3957 78.9107 67.8917 78.8033 67.4997 78.682C67.117 78.5607 66.781 78.3507 66.4917 78.052C66.2117 77.744 66.0717 77.3193 66.0717 76.778C66.0717 76.0687 66.3657 75.504 66.9537 75.084C67.551 74.6547 68.3537 74.44 69.3617 74.44C69.875 74.44 70.3884 74.5007 70.9017 74.622C71.415 74.734 71.835 74.888 72.1617 75.084L71.4897 76.414C70.855 76.0407 70.141 75.854 69.3477 75.854C68.8344 75.854 68.4424 75.9333 68.1717 76.092C67.9104 76.2413 67.7797 76.442 67.7797 76.694C67.7797 76.974 67.9197 77.1747 68.1997 77.296C68.489 77.408 68.9324 77.5153 69.5297 77.618C70.127 77.7113 70.617 77.8187 70.9997 77.94C71.3824 78.0613 71.709 78.2667 71.9797 78.556C72.2597 78.8453 72.3997 79.256 72.3997 79.788C72.3997 80.488 72.0964 81.048 71.4897 81.468C70.883 81.888 70.057 82.098 69.0117 82.098Z" fill="black"/>
<path d="M56.6608 13.4085H31.3623C30.9824 13.4085 30.618 13.2575 30.3493 12.9889C30.0807 12.7202 29.9298 12.3559 29.9298 11.9759V9.88444C29.9298 9.50451 30.0807 9.14013 30.3493 8.87148C30.618 8.60283 30.9824 8.4519 31.3623 8.4519H56.6608C57.0407 8.4519 57.4051 8.60283 57.6738 8.87148C57.9424 9.14013 58.0933 9.50451 58.0933 9.88444V11.9759C58.0933 12.3559 57.9424 12.7202 57.6738 12.9889C57.4051 13.2575 57.0407 13.4085 56.6608 13.4085ZM31.6488 11.6894H56.3743V10.1709H31.6488V11.6894Z" fill="black"/>
<path d="M59.268 24.0379H28.7551C28.525 24.0416 28.2975 23.9886 28.0926 23.8837C27.8878 23.7788 27.7119 23.6251 27.5804 23.4362C27.4427 23.249 27.3547 23.0299 27.3247 22.7994C27.2946 22.5689 27.3235 22.3346 27.4085 22.1183L30.9898 12.6349C31.0847 12.3603 31.2624 12.1219 31.4984 11.9526C31.7345 11.7833 32.0173 11.6913 32.3078 11.6895H55.6867C55.9801 11.6936 56.2655 11.786 56.5057 11.9546C56.7459 12.1233 56.9297 12.3603 57.0333 12.6349L60.6146 22.1183C60.6857 22.3369 60.7071 22.5687 60.6774 22.7967C60.6476 23.0246 60.5675 23.2431 60.4427 23.4362C60.3078 23.6216 60.1312 23.7727 59.9272 23.8772C59.7231 23.9818 59.4973 24.0368 59.268 24.0379ZM29.1562 22.3188H58.8383L55.4861 13.4085H32.5656L29.1562 22.3188Z" fill="black"/>
<path d="M57.8068 52.4593H29.9584C29.5785 52.4593 29.2141 52.3084 28.9455 52.0398C28.6768 51.7711 28.5259 51.4067 28.5259 51.0268V38.9649C28.5259 38.5849 28.6768 38.2206 28.9455 37.9519C29.2141 37.6833 29.5785 37.5323 29.9584 37.5323H57.8068C57.9936 37.5323 58.1786 37.5695 58.3508 37.6419C58.523 37.7142 58.6791 37.8202 58.8098 37.9536C58.9405 38.087 59.0434 38.2452 59.1122 38.4188C59.181 38.5925 59.2145 38.7781 59.2107 38.9649V51.0268C59.2145 51.2136 59.181 51.3992 59.1122 51.5728C59.0434 51.7465 58.9405 51.9047 58.8098 52.0381C58.6791 52.1715 58.523 52.2775 58.3508 52.3498C58.1786 52.4221 57.9936 52.4594 57.8068 52.4593ZM30.2449 50.7403H57.5203V39.28H30.2449V50.7403Z" fill="black"/>
<path d="M56.6895 39.2514C56.4638 39.2442 56.2493 39.1514 56.0896 38.9917C55.93 38.832 55.8371 38.6175 55.83 38.3919V23.1784C55.8371 22.9527 55.93 22.7382 56.0896 22.5785C56.2493 22.4189 56.4638 22.326 56.6895 22.3188C56.9174 22.3188 57.1361 22.4094 57.2972 22.5706C57.4584 22.7318 57.549 22.9504 57.549 23.1784V38.3919C57.549 38.6198 57.4584 38.8384 57.2972 38.9996C57.1361 39.1608 56.9174 39.2514 56.6895 39.2514Z" fill="black"/>
<path d="M31.9926 39.2514C31.7669 39.2442 31.5524 39.1514 31.3928 38.9917C31.2331 38.832 31.1403 38.6175 31.1331 38.3919V23.1784C31.1403 22.9527 31.2331 22.7382 31.3928 22.5785C31.5524 22.4189 31.7669 22.326 31.9926 22.3188C32.2206 22.3188 32.4392 22.4094 32.6004 22.5706C32.7616 22.7318 32.8521 22.9504 32.8521 23.1784V38.3919C32.8521 38.6198 32.7616 38.8384 32.6004 38.9996C32.4392 39.1608 32.2206 39.2514 31.9926 39.2514Z" fill="black"/>
<path d="M33.7403 24.0379H33.5111C33.3929 24.013 33.2815 23.9626 33.1848 23.8902C33.088 23.8178 33.0083 23.7252 32.951 23.6188C32.8937 23.5124 32.8603 23.3949 32.8531 23.2743C32.846 23.1537 32.8652 23.0329 32.9094 22.9205L35.7745 12.2911C35.802 12.1718 35.8555 12.0601 35.9313 11.9639C36.007 11.8677 36.103 11.7894 36.2125 11.7347C36.322 11.6799 36.4423 11.6501 36.5647 11.6472C36.6871 11.6443 36.8086 11.6686 36.9205 11.7181C37.0298 11.7479 37.1321 11.7991 37.2216 11.8686C37.311 11.9381 37.3858 12.0245 37.4418 12.1231C37.4977 12.2216 37.5336 12.3302 37.5474 12.4426C37.5612 12.555 37.5526 12.6691 37.5222 12.7782L34.6571 23.4076C34.6155 23.6108 34.4967 23.79 34.3257 23.9075C34.1548 24.025 33.945 24.0718 33.7403 24.0379Z" fill="black"/>
<path d="M41.6765 24.0378C41.451 24.0233 41.2396 23.9233 41.0852 23.7583C40.9309 23.5933 40.8452 23.3756 40.8457 23.1497L41.3614 12.5203C41.3614 12.2923 41.4519 12.0737 41.6131 11.9125C41.7743 11.7513 41.9929 11.6608 42.2209 11.6608C42.4489 11.6608 42.6675 11.7513 42.8287 11.9125C42.9899 12.0737 43.0804 12.2923 43.0804 12.5203L42.6507 23.2356C42.6438 23.3539 42.6126 23.4696 42.559 23.5752C42.5053 23.6809 42.4304 23.7743 42.339 23.8497C42.2475 23.925 42.1414 23.9806 42.0274 24.013C41.9134 24.0454 41.794 24.0538 41.6765 24.0378Z" fill="black"/>
<path d="M48.61 24.0378C48.4033 24.0469 48.2006 23.9785 48.0416 23.846C47.8826 23.7135 47.7788 23.5265 47.7505 23.3215L46.2033 12.6635C46.1777 12.4407 46.2373 12.2164 46.3701 12.0357C46.503 11.855 46.6993 11.7313 46.9196 11.6894C47.0326 11.6733 47.1477 11.6799 47.2582 11.7087C47.3686 11.7376 47.4722 11.7882 47.5629 11.8575C47.6536 11.9269 47.7295 12.0136 47.7863 12.1126C47.8431 12.2117 47.8796 12.321 47.8937 12.4343L49.4695 23.0637C49.4856 23.1767 49.479 23.2918 49.4501 23.4022C49.4213 23.5127 49.3707 23.6163 49.3013 23.707C49.232 23.7976 49.1453 23.8736 49.0462 23.9304C48.9472 23.9872 48.8379 24.0237 48.7246 24.0378H48.61Z" fill="black"/>
<path d="M55.0564 24.0378C54.8529 24.0672 54.6456 24.0227 54.4721 23.9123C54.2986 23.8019 54.1705 23.633 54.1109 23.4362L51.2458 12.7781C51.2157 12.669 51.2074 12.555 51.2214 12.4427C51.2353 12.3304 51.2713 12.2219 51.3271 12.1235C51.383 12.025 51.4577 11.9386 51.547 11.869C51.6363 11.7994 51.7384 11.7481 51.8475 11.718C52.0679 11.6573 52.3034 11.6865 52.5022 11.7993C52.6006 11.8552 52.6871 11.9299 52.7566 12.0192C52.8262 12.1085 52.8775 12.2106 52.9076 12.3197L55.7727 22.9491C55.8031 23.0582 55.8116 23.1723 55.7978 23.2847C55.784 23.3971 55.7481 23.5057 55.6922 23.6042C55.6363 23.7028 55.5615 23.7892 55.472 23.8587C55.3826 23.9282 55.2803 23.9794 55.171 24.0092L55.0564 24.0378Z" fill="black"/>
</svg>
