<svg width="88" height="87" viewBox="0 0 88 87" fill="none" xmlns="http://www.w3.org/2000/svg">
<rect y="30" width="88" height="57" fill="#E6E6E6"/>
<path d="M22.1019 72.74H18.8539V71.2H27.1699V72.74H23.9219V81H22.1019V72.74ZM34.6301 77.304C34.6301 77.4253 34.6208 77.598 34.6021 77.822H28.7361C28.8388 78.3727 29.1048 78.8113 29.5341 79.138C29.9728 79.4553 30.5141 79.614 31.1581 79.614C31.9794 79.614 32.6561 79.3433 33.1881 78.802L34.1261 79.88C33.7901 80.2813 33.3654 80.5847 32.8521 80.79C32.3388 80.9953 31.7601 81.098 31.1161 81.098C30.2948 81.098 29.5714 80.9347 28.9461 80.608C28.3208 80.2813 27.8354 79.8287 27.4901 79.25C27.1541 78.662 26.9861 77.9993 26.9861 77.262C26.9861 76.534 27.1494 75.8807 27.4761 75.302C27.8121 74.714 28.2741 74.2567 28.8621 73.93C29.4501 73.6033 30.1128 73.44 30.8501 73.44C31.5781 73.44 32.2268 73.6033 32.7961 73.93C33.3748 74.2473 33.8228 74.7 34.1401 75.288C34.4668 75.8667 34.6301 76.5387 34.6301 77.304ZM30.8501 74.84C30.2901 74.84 29.8141 75.008 29.4221 75.344C29.0394 75.6707 28.8061 76.1093 28.7221 76.66H32.9641C32.8894 76.1187 32.6608 75.68 32.2781 75.344C31.8954 75.008 31.4194 74.84 30.8501 74.84ZM37.9771 74.616C38.4811 73.832 39.3678 73.44 40.6371 73.44V75.106C40.4878 75.078 40.3524 75.064 40.2311 75.064C39.5498 75.064 39.0178 75.2647 38.6351 75.666C38.2524 76.058 38.0611 76.6273 38.0611 77.374V81H36.3111V73.524H37.9771V74.616ZM43.7876 74.616C44.2916 73.832 45.1783 73.44 46.4476 73.44V75.106C46.2983 75.078 46.163 75.064 46.0416 75.064C45.3603 75.064 44.8283 75.2647 44.4456 75.666C44.063 76.058 43.8716 76.6273 43.8716 77.374V81H42.1216V73.524H43.7876V74.616ZM50.7472 73.44C51.8485 73.44 52.6885 73.706 53.2672 74.238C53.8552 74.7607 54.1492 75.554 54.1492 76.618V81H52.4972V80.09C52.2825 80.4167 51.9745 80.6687 51.5732 80.846C51.1812 81.014 50.7052 81.098 50.1452 81.098C49.5852 81.098 49.0952 81.0047 48.6752 80.818C48.2552 80.622 47.9285 80.356 47.6952 80.02C47.4712 79.6747 47.3592 79.2873 47.3592 78.858C47.3592 78.186 47.6065 77.6493 48.1012 77.248C48.6052 76.8373 49.3938 76.632 50.4672 76.632H52.3992V76.52C52.3992 75.9973 52.2405 75.596 51.9232 75.316C51.6152 75.036 51.1532 74.896 50.5372 74.896C50.1172 74.896 49.7018 74.9613 49.2912 75.092C48.8898 75.2227 48.5492 75.4047 48.2692 75.638L47.5832 74.364C47.9752 74.0653 48.4465 73.8367 48.9972 73.678C49.5478 73.5193 50.1312 73.44 50.7472 73.44ZM50.5092 79.824C50.9478 79.824 51.3352 79.726 51.6712 79.53C52.0165 79.3247 52.2592 79.0353 52.3992 78.662V77.794H50.5932C49.5852 77.794 49.0812 78.1253 49.0812 78.788C49.0812 79.1053 49.2072 79.3573 49.4592 79.544C49.7112 79.7307 50.0612 79.824 50.5092 79.824ZM62.2331 79.6V81H55.7791V79.894L59.8811 74.924H55.8631V73.524H62.1211V74.63L58.0051 79.6H62.2331ZM66.7022 73.44C67.8036 73.44 68.6436 73.706 69.2222 74.238C69.8102 74.7607 70.1042 75.554 70.1042 76.618V81H68.4522V80.09C68.2376 80.4167 67.9296 80.6687 67.5282 80.846C67.1362 81.014 66.6602 81.098 66.1002 81.098C65.5402 81.098 65.0502 81.0047 64.6302 80.818C64.2102 80.622 63.8836 80.356 63.6502 80.02C63.4262 79.6747 63.3142 79.2873 63.3142 78.858C63.3142 78.186 63.5616 77.6493 64.0562 77.248C64.5602 76.8373 65.3489 76.632 66.4222 76.632H68.3542V76.52C68.3542 75.9973 68.1956 75.596 67.8782 75.316C67.5702 75.036 67.1082 74.896 66.4922 74.896C66.0722 74.896 65.6569 74.9613 65.2462 75.092C64.8449 75.2227 64.5042 75.4047 64.2242 75.638L63.5382 74.364C63.9302 74.0653 64.4016 73.8367 64.9522 73.678C65.5029 73.5193 66.0862 73.44 66.7022 73.44ZM66.4642 79.824C66.9029 79.824 67.2902 79.726 67.6262 79.53C67.9716 79.3247 68.2142 79.0353 68.3542 78.662V77.794H66.5482C65.5402 77.794 65.0362 78.1253 65.0362 78.788C65.0362 79.1053 65.1622 79.3573 65.4142 79.544C65.6662 79.7307 66.0162 79.824 66.4642 79.824Z" fill="black"/>
<path d="M64.8863 54.6973H21.4228C21.0245 54.6973 20.6425 54.5391 20.3609 54.2575C20.0792 53.9758 19.921 53.5938 19.921 53.1955V33.4912C19.9168 33.3718 19.9372 33.2527 19.981 33.1415C20.0248 33.0303 20.091 32.9293 20.1756 32.8447C20.2601 32.7602 20.3611 32.694 20.4723 32.6502C20.5836 32.6064 20.7026 32.5859 20.8221 32.5901H65.4871C65.7261 32.5901 65.9553 32.6851 66.1243 32.8541C66.2932 33.0231 66.3882 33.2523 66.3882 33.4912V53.1955C66.3882 53.5938 66.23 53.9758 65.9483 54.2575C65.6667 54.5391 65.2846 54.6973 64.8863 54.6973ZM21.7232 52.8951H64.586V34.3924H21.7232V52.8951Z" fill="black"/>
<path d="M65.4871 34.2421H20.8221C20.7026 34.2463 20.5836 34.2258 20.4723 34.182C20.3611 34.1382 20.2601 34.072 20.1756 33.9875C20.091 33.903 20.0248 33.8019 19.981 33.6907C19.9372 33.5795 19.9168 33.4604 19.921 33.341V25.6515C19.921 25.2532 20.0792 24.8712 20.3609 24.5895C20.6425 24.3079 21.0245 24.1497 21.4228 24.1497H64.8863C65.2846 24.1497 65.6667 24.3079 65.9483 24.5895C66.23 24.8712 66.3882 25.2532 66.3882 25.6515V33.341C66.3882 33.58 66.2932 33.8092 66.1243 33.9782C65.9553 34.1471 65.7261 34.2421 65.4871 34.2421ZM21.7232 32.4699H64.586V25.9519H21.7232V32.4699Z" fill="black"/>
<path d="M38.0333 33.281C37.9149 33.281 37.7978 33.2577 37.6884 33.2124C37.5791 33.1671 37.4798 33.1008 37.3961 33.0171C37.3124 32.9334 37.246 32.8341 37.2008 32.7247C37.1555 32.6154 37.1322 32.4982 37.1322 32.3799V25.1109C37.1322 24.9926 37.1555 24.8754 37.2008 24.7661C37.246 24.6568 37.3124 24.5574 37.3961 24.4738C37.4798 24.3901 37.5791 24.3237 37.6884 24.2784C37.7978 24.2331 37.9149 24.2098 38.0333 24.2098C38.1516 24.2098 38.2688 24.2331 38.3781 24.2784C38.4874 24.3237 38.5868 24.3901 38.6705 24.4738C38.7541 24.5574 38.8205 24.6568 38.8658 24.7661C38.9111 24.8754 38.9344 24.9926 38.9344 25.1109V32.3799C38.9344 32.4982 38.9111 32.6154 38.8658 32.7247C38.8205 32.8341 38.7541 32.9334 38.6705 33.0171C38.5868 33.1008 38.4874 33.1671 38.3781 33.2124C38.2688 33.2577 38.1516 33.281 38.0333 33.281Z" fill="black"/>
<path d="M47.555 33.281C47.3184 33.2735 47.0935 33.1761 46.9261 33.0087C46.7588 32.8414 46.6614 32.6165 46.6539 32.3799V25.1109C46.6614 24.8743 46.7588 24.6495 46.9261 24.4821C47.0935 24.3147 47.3184 24.2174 47.555 24.2098C47.794 24.2098 48.0232 24.3048 48.1922 24.4738C48.3612 24.6428 48.4561 24.872 48.4561 25.1109V32.3799C48.4561 32.4982 48.4328 32.6154 48.3875 32.7247C48.3422 32.8341 48.2758 32.9334 48.1922 33.0171C48.1085 33.1008 48.0092 33.1671 47.8998 33.2124C47.7905 33.2577 47.6733 33.281 47.555 33.281Z" fill="black"/>
<path d="M28.5716 33.281C28.4533 33.281 28.3361 33.2577 28.2268 33.2124C28.1175 33.1671 28.0181 33.1008 27.9344 33.0171C27.8508 32.9334 27.7844 32.8341 27.7391 32.7247C27.6938 32.6154 27.6705 32.4982 27.6705 32.3799V25.1109C27.6705 24.872 27.7655 24.6428 27.9344 24.4738C28.1034 24.3048 28.3326 24.2098 28.5716 24.2098C28.8082 24.2174 29.0331 24.3147 29.2005 24.4821C29.3679 24.6495 29.4652 24.8743 29.4727 25.1109V32.3799C29.4652 32.6165 29.3679 32.8414 29.2005 33.0087C29.0331 33.1761 28.8082 33.2735 28.5716 33.281Z" fill="black"/>
<path d="M57.0767 33.281C56.9584 33.281 56.8412 33.2577 56.7319 33.2124C56.6225 33.1671 56.5232 33.1008 56.4395 33.0171C56.3559 32.9334 56.2895 32.8341 56.2442 32.7247C56.1989 32.6154 56.1756 32.4982 56.1756 32.3799V25.1109C56.1756 24.872 56.2705 24.6428 56.4395 24.4738C56.6085 24.3048 56.8377 24.2098 57.0767 24.2098C57.3133 24.2174 57.5382 24.3147 57.7056 24.4821C57.873 24.6495 57.9703 24.8743 57.9778 25.1109V32.3799C57.9703 32.6165 57.873 32.8414 57.7056 33.0087C57.5382 33.1761 57.3133 33.2735 57.0767 33.281Z" fill="black"/>
<path d="M51.1294 19.8845H35.4201C35.1261 19.8803 34.8398 19.79 34.5967 19.6247C34.3536 19.4594 34.1644 19.2264 34.0524 18.9546C33.9405 18.6828 33.9108 18.384 33.967 18.0955C34.0233 17.8069 34.163 17.5412 34.3688 17.3313L42.2084 9.58178C42.4892 9.3066 42.8666 9.15247 43.2597 9.15247C43.6528 9.15247 44.0303 9.3066 44.311 9.58178L52.1807 17.3313C52.3865 17.5412 52.5262 17.8069 52.5824 18.0955C52.6387 18.384 52.609 18.6828 52.497 18.9546C52.3851 19.2264 52.1958 19.4594 51.9527 19.6247C51.7096 19.79 51.4233 19.8803 51.1294 19.8845ZM36.1109 18.0822H50.3484L43.2597 11.0836L36.1109 18.0822Z" fill="black"/>
<path d="M42.9593 34.0018C42.7203 34.0018 42.4911 33.9069 42.3222 33.7379C42.1532 33.5689 42.0582 33.3397 42.0582 33.1007V19.4038C42.054 19.2844 42.0745 19.1653 42.1183 19.0541C42.1621 18.9429 42.2283 18.8419 42.3128 18.7573C42.3974 18.6728 42.4984 18.6066 42.6096 18.5628C42.7208 18.519 42.8399 18.4985 42.9593 18.5027C43.1983 18.5027 43.4275 18.5977 43.5965 18.7667C43.7655 18.9357 43.8604 19.1649 43.8604 19.4038V33.0406C43.8645 33.1629 43.8443 33.2848 43.8012 33.3993C43.7581 33.5138 43.6928 33.6187 43.6091 33.708C43.5254 33.7973 43.425 33.8691 43.3135 33.9196C43.202 33.97 43.0816 33.9979 42.9593 34.0018Z" fill="black"/>
<rect y="30" width="88" height="57" fill="#E6E6E6"/>
<path d="M22.1019 72.74H18.8539V71.2H27.1699V72.74H23.9219V81H22.1019V72.74ZM34.6301 77.304C34.6301 77.4253 34.6208 77.598 34.6021 77.822H28.7361C28.8388 78.3727 29.1048 78.8113 29.5341 79.138C29.9728 79.4553 30.5141 79.614 31.1581 79.614C31.9794 79.614 32.6561 79.3433 33.1881 78.802L34.1261 79.88C33.7901 80.2813 33.3654 80.5847 32.8521 80.79C32.3388 80.9953 31.7601 81.098 31.1161 81.098C30.2948 81.098 29.5714 80.9347 28.9461 80.608C28.3208 80.2813 27.8354 79.8287 27.4901 79.25C27.1541 78.662 26.9861 77.9993 26.9861 77.262C26.9861 76.534 27.1494 75.8807 27.4761 75.302C27.8121 74.714 28.2741 74.2567 28.8621 73.93C29.4501 73.6033 30.1128 73.44 30.8501 73.44C31.5781 73.44 32.2268 73.6033 32.7961 73.93C33.3748 74.2473 33.8228 74.7 34.1401 75.288C34.4668 75.8667 34.6301 76.5387 34.6301 77.304ZM30.8501 74.84C30.2901 74.84 29.8141 75.008 29.4221 75.344C29.0394 75.6707 28.8061 76.1093 28.7221 76.66H32.9641C32.8894 76.1187 32.6608 75.68 32.2781 75.344C31.8954 75.008 31.4194 74.84 30.8501 74.84ZM37.9771 74.616C38.4811 73.832 39.3678 73.44 40.6371 73.44V75.106C40.4878 75.078 40.3524 75.064 40.2311 75.064C39.5498 75.064 39.0178 75.2647 38.6351 75.666C38.2524 76.058 38.0611 76.6273 38.0611 77.374V81H36.3111V73.524H37.9771V74.616ZM43.7876 74.616C44.2916 73.832 45.1783 73.44 46.4476 73.44V75.106C46.2983 75.078 46.163 75.064 46.0416 75.064C45.3603 75.064 44.8283 75.2647 44.4456 75.666C44.063 76.058 43.8716 76.6273 43.8716 77.374V81H42.1216V73.524H43.7876V74.616ZM50.7472 73.44C51.8485 73.44 52.6885 73.706 53.2672 74.238C53.8552 74.7607 54.1492 75.554 54.1492 76.618V81H52.4972V80.09C52.2825 80.4167 51.9745 80.6687 51.5732 80.846C51.1812 81.014 50.7052 81.098 50.1452 81.098C49.5852 81.098 49.0952 81.0047 48.6752 80.818C48.2552 80.622 47.9285 80.356 47.6952 80.02C47.4712 79.6747 47.3592 79.2873 47.3592 78.858C47.3592 78.186 47.6065 77.6493 48.1012 77.248C48.6052 76.8373 49.3938 76.632 50.4672 76.632H52.3992V76.52C52.3992 75.9973 52.2405 75.596 51.9232 75.316C51.6152 75.036 51.1532 74.896 50.5372 74.896C50.1172 74.896 49.7018 74.9613 49.2912 75.092C48.8898 75.2227 48.5492 75.4047 48.2692 75.638L47.5832 74.364C47.9752 74.0653 48.4465 73.8367 48.9972 73.678C49.5478 73.5193 50.1312 73.44 50.7472 73.44ZM50.5092 79.824C50.9478 79.824 51.3352 79.726 51.6712 79.53C52.0165 79.3247 52.2592 79.0353 52.3992 78.662V77.794H50.5932C49.5852 77.794 49.0812 78.1253 49.0812 78.788C49.0812 79.1053 49.2072 79.3573 49.4592 79.544C49.7112 79.7307 50.0612 79.824 50.5092 79.824ZM62.2331 79.6V81H55.7791V79.894L59.8811 74.924H55.8631V73.524H62.1211V74.63L58.0051 79.6H62.2331ZM66.7022 73.44C67.8036 73.44 68.6436 73.706 69.2222 74.238C69.8102 74.7607 70.1042 75.554 70.1042 76.618V81H68.4522V80.09C68.2376 80.4167 67.9296 80.6687 67.5282 80.846C67.1362 81.014 66.6602 81.098 66.1002 81.098C65.5402 81.098 65.0502 81.0047 64.6302 80.818C64.2102 80.622 63.8836 80.356 63.6502 80.02C63.4262 79.6747 63.3142 79.2873 63.3142 78.858C63.3142 78.186 63.5616 77.6493 64.0562 77.248C64.5602 76.8373 65.3489 76.632 66.4222 76.632H68.3542V76.52C68.3542 75.9973 68.1956 75.596 67.8782 75.316C67.5702 75.036 67.1082 74.896 66.4922 74.896C66.0722 74.896 65.6569 74.9613 65.2462 75.092C64.8449 75.2227 64.5042 75.4047 64.2242 75.638L63.5382 74.364C63.9302 74.0653 64.4016 73.8367 64.9522 73.678C65.5029 73.5193 66.0862 73.44 66.7022 73.44ZM66.4642 79.824C66.9029 79.824 67.2902 79.726 67.6262 79.53C67.9716 79.3247 68.2142 79.0353 68.3542 78.662V77.794H66.5482C65.5402 77.794 65.0362 78.1253 65.0362 78.788C65.0362 79.1053 65.1622 79.3573 65.4142 79.544C65.6662 79.7307 66.0162 79.824 66.4642 79.824Z" fill="black"/>
<path d="M64.8863 54.6973H21.4228C21.0245 54.6973 20.6425 54.5391 20.3609 54.2575C20.0792 53.9758 19.921 53.5938 19.921 53.1955V33.4912C19.9168 33.3718 19.9372 33.2527 19.981 33.1415C20.0248 33.0303 20.091 32.9293 20.1756 32.8447C20.2601 32.7602 20.3611 32.694 20.4723 32.6502C20.5836 32.6064 20.7026 32.5859 20.8221 32.5901H65.4871C65.7261 32.5901 65.9553 32.6851 66.1243 32.8541C66.2932 33.0231 66.3882 33.2523 66.3882 33.4912V53.1955C66.3882 53.5938 66.23 53.9758 65.9483 54.2575C65.6667 54.5391 65.2846 54.6973 64.8863 54.6973ZM21.7232 52.8951H64.586V34.3924H21.7232V52.8951Z" fill="black"/>
<path d="M65.4871 34.2421H20.8221C20.7026 34.2463 20.5836 34.2258 20.4723 34.182C20.3611 34.1382 20.2601 34.072 20.1756 33.9875C20.091 33.903 20.0248 33.8019 19.981 33.6907C19.9372 33.5795 19.9168 33.4604 19.921 33.341V25.6515C19.921 25.2532 20.0792 24.8712 20.3609 24.5895C20.6425 24.3079 21.0245 24.1497 21.4228 24.1497H64.8863C65.2846 24.1497 65.6667 24.3079 65.9483 24.5895C66.23 24.8712 66.3882 25.2532 66.3882 25.6515V33.341C66.3882 33.58 66.2932 33.8092 66.1243 33.9782C65.9553 34.1471 65.7261 34.2421 65.4871 34.2421ZM21.7232 32.4699H64.586V25.9519H21.7232V32.4699Z" fill="black"/>
<path d="M38.0333 33.281C37.9149 33.281 37.7978 33.2577 37.6884 33.2124C37.5791 33.1671 37.4798 33.1008 37.3961 33.0171C37.3124 32.9334 37.246 32.8341 37.2008 32.7247C37.1555 32.6154 37.1322 32.4982 37.1322 32.3799V25.1109C37.1322 24.9926 37.1555 24.8754 37.2008 24.7661C37.246 24.6568 37.3124 24.5574 37.3961 24.4738C37.4798 24.3901 37.5791 24.3237 37.6884 24.2784C37.7978 24.2331 37.9149 24.2098 38.0333 24.2098C38.1516 24.2098 38.2688 24.2331 38.3781 24.2784C38.4874 24.3237 38.5868 24.3901 38.6705 24.4738C38.7541 24.5574 38.8205 24.6568 38.8658 24.7661C38.9111 24.8754 38.9344 24.9926 38.9344 25.1109V32.3799C38.9344 32.4982 38.9111 32.6154 38.8658 32.7247C38.8205 32.8341 38.7541 32.9334 38.6705 33.0171C38.5868 33.1008 38.4874 33.1671 38.3781 33.2124C38.2688 33.2577 38.1516 33.281 38.0333 33.281Z" fill="black"/>
<path d="M47.555 33.281C47.3184 33.2735 47.0935 33.1761 46.9261 33.0087C46.7588 32.8414 46.6614 32.6165 46.6539 32.3799V25.1109C46.6614 24.8743 46.7588 24.6495 46.9261 24.4821C47.0935 24.3147 47.3184 24.2174 47.555 24.2098C47.794 24.2098 48.0232 24.3048 48.1922 24.4738C48.3612 24.6428 48.4561 24.872 48.4561 25.1109V32.3799C48.4561 32.4982 48.4328 32.6154 48.3875 32.7247C48.3422 32.8341 48.2758 32.9334 48.1922 33.0171C48.1085 33.1008 48.0092 33.1671 47.8998 33.2124C47.7905 33.2577 47.6733 33.281 47.555 33.281Z" fill="black"/>
<path d="M28.5716 33.281C28.4533 33.281 28.3361 33.2577 28.2268 33.2124C28.1175 33.1671 28.0181 33.1008 27.9344 33.0171C27.8508 32.9334 27.7844 32.8341 27.7391 32.7247C27.6938 32.6154 27.6705 32.4982 27.6705 32.3799V25.1109C27.6705 24.872 27.7655 24.6428 27.9344 24.4738C28.1034 24.3048 28.3326 24.2098 28.5716 24.2098C28.8082 24.2174 29.0331 24.3147 29.2005 24.4821C29.3679 24.6495 29.4652 24.8743 29.4727 25.1109V32.3799C29.4652 32.6165 29.3679 32.8414 29.2005 33.0087C29.0331 33.1761 28.8082 33.2735 28.5716 33.281Z" fill="black"/>
<path d="M57.0767 33.281C56.9584 33.281 56.8412 33.2577 56.7319 33.2124C56.6225 33.1671 56.5232 33.1008 56.4395 33.0171C56.3559 32.9334 56.2895 32.8341 56.2442 32.7247C56.1989 32.6154 56.1756 32.4982 56.1756 32.3799V25.1109C56.1756 24.872 56.2705 24.6428 56.4395 24.4738C56.6085 24.3048 56.8377 24.2098 57.0767 24.2098C57.3133 24.2174 57.5382 24.3147 57.7056 24.4821C57.873 24.6495 57.9703 24.8743 57.9778 25.1109V32.3799C57.9703 32.6165 57.873 32.8414 57.7056 33.0087C57.5382 33.1761 57.3133 33.2735 57.0767 33.281Z" fill="black"/>
<path d="M51.1294 19.8845H35.4201C35.1261 19.8803 34.8398 19.79 34.5967 19.6247C34.3536 19.4594 34.1644 19.2264 34.0524 18.9546C33.9405 18.6828 33.9108 18.384 33.967 18.0955C34.0233 17.8069 34.163 17.5412 34.3688 17.3313L42.2084 9.58178C42.4892 9.3066 42.8666 9.15247 43.2597 9.15247C43.6528 9.15247 44.0303 9.3066 44.311 9.58178L52.1807 17.3313C52.3865 17.5412 52.5262 17.8069 52.5824 18.0955C52.6387 18.384 52.609 18.6828 52.497 18.9546C52.3851 19.2264 52.1958 19.4594 51.9527 19.6247C51.7096 19.79 51.4233 19.8803 51.1294 19.8845ZM36.1109 18.0822H50.3484L43.2597 11.0836L36.1109 18.0822Z" fill="black"/>
<path d="M42.9593 34.0018C42.7203 34.0018 42.4911 33.9069 42.3222 33.7379C42.1532 33.5689 42.0582 33.3397 42.0582 33.1007V19.4038C42.054 19.2844 42.0745 19.1653 42.1183 19.0541C42.1621 18.9429 42.2283 18.8419 42.3128 18.7573C42.3974 18.6728 42.4984 18.6066 42.6096 18.5628C42.7208 18.519 42.8399 18.4985 42.9593 18.5027C43.1983 18.5027 43.4275 18.5977 43.5965 18.7667C43.7655 18.9357 43.8604 19.1649 43.8604 19.4038V33.0406C43.8645 33.1629 43.8443 33.2848 43.8012 33.3993C43.7581 33.5138 43.6928 33.6187 43.6091 33.708C43.5254 33.7973 43.425 33.8691 43.3135 33.9196C43.202 33.97 43.0816 33.9979 42.9593 34.0018Z" fill="black"/>
</svg>
