<svg id="Layer_1" data-name="Layer 1" xmlns="http://www.w3.org/2000/svg" viewBox="0 0 16 16"><defs><style>.cls-1,.cls-2,.cls-3,.cls-4,.cls-5,.cls-6,.cls-7,.cls-8{fill:#fd5f08;}.cls-1,.cls-23,.cls-9{opacity:0.9;}.cls-10,.cls-18,.cls-2{opacity:0.3;}.cls-17,.cls-3{opacity:0.2;}.cls-13,.cls-22,.cls-4{opacity:0.6;}.cls-11,.cls-24,.cls-5{opacity:0.8;}.cls-12,.cls-21,.cls-6{opacity:0.7;}.cls-15,.cls-20,.cls-7{opacity:0.4;}.cls-14,.cls-19,.cls-8{opacity:0.5;}.cls-10,.cls-11,.cls-12,.cls-13,.cls-14,.cls-15,.cls-9{fill:#b0075a;}.cls-16{fill:#fff;}.cls-17,.cls-18,.cls-19,.cls-20,.cls-21,.cls-22,.cls-23,.cls-24{fill:#e5bd43;}.cls-25{fill:#08231a;}.cls-26{fill:none;}.cls-27{fill:#254e35;}.cls-28{fill:#53733b;}.cls-29{fill:#a7c05f;}</style></defs><path class="cls-1" d="M13.75,10.2a8.58,8.58,0,0,1,1.1,1.51,8.57,8.57,0,0,1-1.49,1.9c.05-.15.09-.31.13-.47A9.12,9.12,0,0,0,13.75,10.2Z"/><path class="cls-2" d="M2.62,8.89a20.74,20.74,0,0,1-1,4.8A7.47,7.47,0,0,1,1,13.05a8.58,8.58,0,0,1-1-1.34,8.39,8.39,0,0,1,1.22-1.62h0A8.89,8.89,0,0,1,2.62,8.89Z"/><path class="cls-3" d="M3.66,8.3a8.12,8.12,0,0,1,.4,3.88,7.85,7.85,0,0,1-.92,2.67c-.21-.12-.42-.25-.62-.39a8.75,8.75,0,0,1-.94-.77,20.74,20.74,0,0,0,1-4.8l.25-.15A6.69,6.69,0,0,1,3.66,8.3Z"/><path class="cls-4" d="M7,7.43a9.1,9.1,0,0,1,.73,2.64,25.83,25.83,0,0,1-.21,4.58c0,.51-.07,1-.1,1.35H7.26a8.58,8.58,0,0,1-2.65-.48,12.33,12.33,0,0,0,1.26-4.24A12,12,0,0,0,5.71,7.6a7,7,0,0,1,.92-.14Z"/><path class="cls-5" d="M8.7,7.52a8.33,8.33,0,0,1,2.52.79,5.86,5.86,0,0,1,.74.41c.09.33.15.63.2.89a8.21,8.21,0,0,1,.11,2.3,8.46,8.46,0,0,1-.64,2.52l-.32.64-.51.24a8.59,8.59,0,0,1-2,.57A8.43,8.43,0,0,0,9.56,14a8.51,8.51,0,0,0,.08-3.51A9.8,9.8,0,0,0,8.7,7.52Z"/><path class="cls-6" d="M12,8.72a8.2,8.2,0,0,1,1.15.86c.22.2.44.41.64.62a9.12,9.12,0,0,1-.26,2.94c0,.16-.08.32-.13.47a10,10,0,0,1-.86.73,9.73,9.73,0,0,1-1.19.73l.32-.64a8.46,8.46,0,0,0,.64-2.52,8.21,8.21,0,0,0-.11-2.3C12.11,9.35,12.05,9.05,12,8.72Z"/><path class="cls-7" d="M5.71,7.6a12,12,0,0,1,.16,3.68,12.33,12.33,0,0,1-1.26,4.24l-.67-.26a7.53,7.53,0,0,1-.8-.41,7.85,7.85,0,0,0,.92-2.67,8.12,8.12,0,0,0-.4-3.88,6.87,6.87,0,0,1,1.16-.47A6.84,6.84,0,0,1,5.71,7.6Z"/><path class="cls-8" d="M7.43,7.42q.35,0,.69,0l.58.07h0a9.8,9.8,0,0,1,.94,2.93A8.51,8.51,0,0,1,9.56,14a8.43,8.43,0,0,1-.71,1.92l-.39,0a7,7,0,0,1-1,.07h0c0-.39.06-.84.1-1.35a25.83,25.83,0,0,0,.21-4.58A9.1,9.1,0,0,0,7,7.43Z"/><path class="cls-9" d="M11.71,0a8.58,8.58,0,0,0,0,14.85A8.57,8.57,0,0,0,11.71,0Zm0,14.35a8,8,0,0,1,0-13.86,8,8,0,0,1,0,13.86Z"/><path class="cls-10" d="M11.71.49a8,8,0,0,0,0,13.86,8,8,0,0,0,0-13.86Zm0,13.37A7.44,7.44,0,0,1,11.71,1a7.43,7.43,0,0,1,0,12.87Z"/><path class="cls-11" d="M11.71,1a7.44,7.44,0,0,0,0,12.87A7.43,7.43,0,0,0,11.71,1Zm0,12.37a6.86,6.86,0,0,1,0-11.88,6.86,6.86,0,0,1,0,11.88Z"/><path class="cls-10" d="M11.71,1.48a6.86,6.86,0,0,0,0,11.88,6.86,6.86,0,0,0,0-11.88Zm0,11.39A6.29,6.29,0,0,1,11.71,2a6.28,6.28,0,0,1,0,10.89Z"/><path class="cls-12" d="M11.71,2a6.29,6.29,0,0,0,0,10.89A6.28,6.28,0,0,0,11.71,2Zm0,10.39a5.72,5.72,0,0,1,0-9.9,5.71,5.71,0,0,1,0,9.9Z"/><path class="cls-10" d="M11.71,2.47a5.72,5.72,0,0,0,0,9.9,5.71,5.71,0,0,0,0-9.9Zm0,9.41a5.15,5.15,0,0,1,0-8.91,5.14,5.14,0,0,1,0,8.91Z"/><path class="cls-13" d="M11.71,3a5.15,5.15,0,0,0,0,8.91,5.14,5.14,0,0,0,0-8.91Zm0,8.41a4.58,4.58,0,0,1,0-7.92,4.57,4.57,0,0,1,0,7.92Z"/><path class="cls-10" d="M11.71,3.46a4.58,4.58,0,0,0,0,7.92,4.57,4.57,0,0,0,0-7.92Zm0,7.43a4,4,0,0,1,0-6.93,4,4,0,0,1,0,6.93Z"/><path class="cls-14" d="M11.71,4a4,4,0,0,0,0,6.93,4,4,0,0,0,0-6.93Zm0,6.43a3.43,3.43,0,0,1,0-5.94,3.42,3.42,0,0,1,0,5.94Z"/><path class="cls-10" d="M11.71,4.45a3.43,3.43,0,0,0,0,5.94,3.42,3.42,0,0,0,0-5.94Zm0,5.45a2.86,2.86,0,0,1,0-4.95,2.86,2.86,0,0,1,0,5Z"/><path class="cls-15" d="M13.14,7.42A2.85,2.85,0,0,1,11.71,9.9a2.86,2.86,0,0,1,0-4.95A2.84,2.84,0,0,1,13.14,7.42Z"/><path class="cls-16" d="M11.27,5.2a8.61,8.61,0,0,1,2.22,8.29A8.58,8.58,0,0,1,3,3,8.58,8.58,0,0,1,11.27,5.2Z"/><path class="cls-17" d="M3,3A13.5,13.5,0,0,0,3.4,4.67l-.7.7A8.42,8.42,0,0,1,3,3Z"/><path class="cls-18" d="M5.37,2.69l-.7.71A13.65,13.65,0,0,0,3,3,8.72,8.72,0,0,1,5.37,2.69Z"/><path class="cls-19" d="M3.4,4.67A12.28,12.28,0,0,0,4,6.18L2.94,7.23A8.32,8.32,0,0,1,2.7,5.37Z"/><path class="cls-20" d="M7.23,2.93,6.18,4A13.94,13.94,0,0,0,4.67,3.4l.7-.71A9.67,9.67,0,0,1,7.23,2.93Z"/><path class="cls-21" d="M8.79,3.48,7.55,4.72A12.32,12.32,0,0,0,6.18,4l1.05-1A7.81,7.81,0,0,1,8.79,3.48Z"/><path class="cls-22" d="M4,6.18a13.13,13.13,0,0,0,.73,1.37L3.48,8.79a8.73,8.73,0,0,1-.54-1.56Z"/><path class="cls-21" d="M4.72,7.55c.18.28.37.56.58.85.09.13.19.26.29.38L4.25,10.12a8.06,8.06,0,0,1-.77-1.33Z"/><path class="cls-22" d="M10.13,4.24,8.78,5.59l-.38-.3c-.28-.2-.57-.4-.85-.57L8.79,3.48A8.09,8.09,0,0,1,10.13,4.24Z"/><path class="cls-21" d="M11.27,5.2,9.89,6.58a13.45,13.45,0,0,0-1.11-1l1.35-1.35A10.35,10.35,0,0,1,11.27,5.2Z"/><path class="cls-22" d="M5.59,8.78a11.91,11.91,0,0,0,1,1.1L5.21,11.27a8,8,0,0,1-1-1.15Z"/><path class="cls-21" d="M7.71,10.86,6.35,12.23a9.49,9.49,0,0,1-1.14-1L6.59,9.88A12.46,12.46,0,0,0,7.71,10.86Z"/><path class="cls-22" d="M11.27,5.2a8.53,8.53,0,0,1,1,1.14L10.87,7.71a14.38,14.38,0,0,0-1-1.13Z"/><path class="cls-21" d="M12.23,6.34A9.46,9.46,0,0,1,13,7.68L11.72,9a13.05,13.05,0,0,0-.85-1.24Z"/><path class="cls-22" d="M9,11.72,7.68,13a8.78,8.78,0,0,1-1.33-.76l1.36-1.37A10.73,10.73,0,0,0,9,11.72Z"/><path class="cls-21" d="M10.33,12.45,9.24,13.53A8.24,8.24,0,0,1,7.68,13L9,11.72A15.34,15.34,0,0,0,10.33,12.45Z"/><path class="cls-22" d="M13,7.68a8.46,8.46,0,0,1,.54,1.56l-1.09,1.08A12.3,12.3,0,0,0,11.72,9Z"/><path class="cls-19" d="M13.54,9.24a8.32,8.32,0,0,1,.24,1.86l-.73.73a13.86,13.86,0,0,0-.6-1.51Z"/><path class="cls-20" d="M11.83,13l-.73.73a8.39,8.39,0,0,1-1.86-.24l1.09-1.08A14.37,14.37,0,0,0,11.83,13Z"/><path class="cls-18" d="M13.49,13.49a8.78,8.78,0,0,1-2.39.28l.73-.73A13.3,13.3,0,0,0,13.49,13.49Z"/><path class="cls-17" d="M13.78,11.1a8.79,8.79,0,0,1-.29,2.39,14.76,14.76,0,0,0-.44-1.66Z"/><path class="cls-21" d="M5.09,5.08l1,1L4.72,7.55A13.13,13.13,0,0,1,4,6.18Z"/><path class="cls-23" d="M7.19,7.18l1,1.05L6.59,9.88a11.91,11.91,0,0,1-1-1.1Z"/><path class="cls-23" d="M9.29,9.29l1.05,1.05L9,11.72a10.73,10.73,0,0,1-1.25-.86Z"/><path class="cls-19" d="M11.39,11.39l1,1-.61.6a14.37,14.37,0,0,1-1.5-.59Z"/><path class="cls-17" d="M12.44,12.44l1.05,1.05A13.3,13.3,0,0,1,11.83,13Z"/><path class="cls-17" d="M4.67,3.4,4,4,3,3A13.65,13.65,0,0,1,4.67,3.4Z"/><path class="cls-19" d="M6.18,4,5.09,5.08,4,4l.63-.63A13.94,13.94,0,0,1,6.18,4Z"/><path class="cls-23" d="M8.78,5.59,7.19,7.18l-1.05-1L7.55,4.72c.28.17.57.37.85.57Z"/><path class="cls-23" d="M9.89,6.58a14.38,14.38,0,0,1,1,1.13L9.29,9.29l-1-1.06Z"/><path class="cls-21" d="M11.72,9a12.3,12.3,0,0,1,.73,1.37l-1.06,1.07-1.05-1.05Z"/><path class="cls-18" d="M13.05,11.83a14.76,14.76,0,0,1,.44,1.66l-1.05-1.05Z"/><path class="cls-18" d="M3,3,4,4l-.64.64A13.5,13.5,0,0,1,3,3Z"/><path class="cls-20" d="M4,4l1,1L4,6.18A12.28,12.28,0,0,1,3.4,4.67Z"/><path class="cls-22" d="M7.55,4.72,6.14,6.13l-1-1L6.18,4A12.32,12.32,0,0,1,7.55,4.72Z"/><path class="cls-24" d="M6.14,6.13l1.05,1-1.6,1.6c-.1-.12-.2-.25-.29-.38-.21-.29-.4-.57-.58-.85Z"/><path class="cls-24" d="M9.89,6.58,8.24,8.23l-1-1.05L8.78,5.59A13.45,13.45,0,0,1,9.89,6.58Z"/><path class="cls-24" d="M8.24,8.23l1,1.06L7.71,10.86a12.46,12.46,0,0,1-1.12-1Z"/><path class="cls-24" d="M10.87,7.71A13.05,13.05,0,0,1,11.72,9l-1.38,1.39L9.29,9.29Z"/><path class="cls-22" d="M10.34,10.34l1.05,1.05-1.06,1.06A15.34,15.34,0,0,1,9,11.72Z"/><path class="cls-20" d="M12.45,10.32a13.86,13.86,0,0,1,.6,1.51l-.61.61-1-1Z"/><path class="cls-25" d="M13.49,13.49a8.59,8.59,0,0,1-8.28,2.22,9.12,9.12,0,0,0,4.3-.49,9.21,9.21,0,0,0,4-2.91A10.58,10.58,0,0,0,15.71,5.2,8.61,8.61,0,0,1,13.49,13.49Z"/><path class="cls-26" d="M7.16,11.29a10.19,10.19,0,0,0-1.95,4.42A8.58,8.58,0,0,1,15.71,5.2c-.86.53-2.06,1.28-3.49,2.21C8.4,9.91,7.69,10.62,7.16,11.29Z"/><path class="cls-27" d="M9.51,15.22a9.12,9.12,0,0,1-4.3.49,21.76,21.76,0,0,1,4.65-2.84c1.88-.85,2.72-.91,3.67-1.7s2.1-2.46,2.18-6a10.58,10.58,0,0,1-2.23,7.11A9.21,9.21,0,0,1,9.51,15.22Z"/><path class="cls-28" d="M13.53,11.17c-.95.79-1.79.85-3.67,1.7a21.76,21.76,0,0,0-4.65,2.84,9,9,0,0,1,3.48-4.83A10.2,10.2,0,0,1,11.1,9.82,6.82,6.82,0,0,0,14.21,8a6.66,6.66,0,0,0,1.5-2.84C15.63,8.71,14.53,10.34,13.53,11.17Z"/><path class="cls-29" d="M8.69,10.88a9,9,0,0,0-3.48,4.83,10.19,10.19,0,0,1,2-4.42c.53-.67,1.24-1.38,5.06-3.88,1.43-.93,2.63-1.68,3.49-2.21A6.66,6.66,0,0,1,14.21,8,6.82,6.82,0,0,1,11.1,9.82,10.2,10.2,0,0,0,8.69,10.88Z"/></svg>