<svg xmlns="http://www.w3.org/2000/svg" viewBox="0 0 20.06 20.07"><defs><style>.cls-1,.cls-2{fill:#fff;}.cls-1{fill-rule:evenodd;}</style></defs><g id="Layer_7" data-name="Layer 7"><g id="mask0_176_6824" data-name="mask0 176 6824"><path class="cls-1" d="M7.23,16.61H3.5V12.87A3.75,3.75,0,0,0,7.23,16.61Z"/><path class="cls-1" d="M3.5,7V3.28H7.23A3.75,3.75,0,0,0,3.5,7Z"/><path class="cls-1" d="M12.59,9.92a2.4,2.4,0,0,1-2.41,2.41,2.41,2.41,0,1,1,2.41-2.41Z"/><path class="cls-1" d="M13.1,4.38H7.23A2.62,2.62,0,0,0,4.6,7v5.86a2.63,2.63,0,0,0,2.63,2.64H13.1a2.64,2.64,0,0,0,2.63-2.64V7A2.63,2.63,0,0,0,13.1,4.38ZM13.65,10a3.49,3.49,0,1,1-3.5-3.51A3.48,3.48,0,0,1,13.65,10Zm0-2.88a.63.63,0,1,1,.64-.63A.62.62,0,0,1,13.65,7.08Z"/><path class="cls-1" d="M16.83,3.28V7A3.76,3.76,0,0,0,13.1,3.28Z"/><path class="cls-1" d="M16.83,12.87v3.74H13.1A3.73,3.73,0,0,0,16.83,12.87Z"/></g><path class="cls-2" d="M12.59,9.92a2.4,2.4,0,0,1-2.41,2.41,2.41,2.41,0,1,1,2.41-2.41Z"/><path class="cls-2" d="M13.1,4.38H7.23A2.62,2.62,0,0,0,4.6,7v5.86a2.63,2.63,0,0,0,2.63,2.64H13.1a2.64,2.64,0,0,0,2.63-2.64V7A2.63,2.63,0,0,0,13.1,4.38ZM13.65,10a3.49,3.49,0,1,1-3.5-3.51A3.48,3.48,0,0,1,13.65,10Zm0-2.88a.63.63,0,1,1,.64-.63A.62.62,0,0,1,13.65,7.08Z"/><path class="cls-2" d="M10,0a10,10,0,1,0,10,10A10,10,0,0,0,10,0Zm6.8,12.87a3.73,3.73,0,0,1-3.73,3.74H7.23A3.75,3.75,0,0,1,3.5,12.87V7A3.75,3.75,0,0,1,7.23,3.28H13.1A3.76,3.76,0,0,1,16.83,7Z"/></g></svg>