<svg id="Layer_1" data-name="Layer 1" xmlns="http://www.w3.org/2000/svg" viewBox="0 0 674.33 227.93"><defs><style>.cls-1,.cls-3{fill:#fff;}.cls-1,.cls-2{opacity:0.75;}</style></defs><path class="cls-1" d="M215.45,80.4a1.48,1.48,0,0,1,0,.21c0,.06,0,.12,0,.18v.08L215.37,82c0,.1,0,.2,0,.3q-.06,1.19-.15,2.34a1.79,1.79,0,0,1,0,.23c-.06.9-.13,1.8-.21,2.68s-.13,1.52-.21,2.27a.78.78,0,0,1,0,.16c-.08.9-.18,1.8-.28,2.68s-.18,1.55-.28,2.31-.17,1.35-.27,2l0,.19c0,.38-.1.74-.16,1.11l0,.22s0,0,0,0l-.15,1c0,.09,0,.17,0,.26s0,.17,0,.25c-.08.5-.16,1-.25,1.48,0,.3-.09.6-.15.89s-.13.74-.2,1.1c0,.18-.06.37-.1.55s-.08.37-.11.55,0,.2,0,.3-.08.42-.13.63c-.11.57-.22,1.13-.34,1.68,0,0,0,0,0,0-.17.81-.35,1.6-.53,2.39,0,0,0,0,0,.06-.21.88-.42,1.75-.64,2.61a1.33,1.33,0,0,1-.05.19s0,.1,0,.15l0,.12q-.31,1.24-.66,2.46c-.22.78-.44,1.56-.68,2.32,0,0,0,0,0,.06q-.45,1.48-.93,2.94l0,.12c-.28.82-.57,1.64-.86,2.44-.18.49-.36,1-.55,1.47s-.26.69-.4,1c-.32.82-.65,1.62-1,2.42l0,.06c-.32.75-.65,1.49-1,2.22l-.18.38c-.29.63-.6,1.26-.91,1.88l-.18.37c-.32.64-.65,1.28-1,1.91l-.13.23c-.32.6-.65,1.2-1,1.78l-.34.6c-.28.47-.56.94-.85,1.4l-.41.67c-.29.47-.59.93-.9,1.39l-.36.54c-.34.51-.69,1-1.05,1.52l-.29.39c-.26.37-.53.74-.81,1.1s-.56.74-.85,1.11l-.39.48c-.28.36-.58.73-.88,1.08s-.47.56-.72.84-.58.68-.88,1l-.08.08,0,0-6.21,6c-8.09,6.75-15.41,9.48-26.49,13.6-6.5,2.43-13.87,5.17-23.31,9.42q-2.12,1-4.23,1.95l-.47.22c-1.24.59-2.49,1.18-3.72,1.79-1,.48-2,1-3,1.48l-.24.12c-.88.44-1.75.88-2.62,1.34s-1.63.83-2.43,1.26l0,0c-1.09.57-2.17,1.15-3.25,1.74l-.13.07-1.57.86c-.52.28-1,.58-1.55.87-1,.53-1.93,1.07-2.89,1.63L108,192.82l-.88.51-.87.53-.2.11-2,1.2c-.49.29-1,.59-1.47.91l-.54.33,0,0c-.73.43-1.46.89-2.18,1.35l-.06,0c-.27.16-.55.34-.83.53-.82.51-1.64,1-2.45,1.56l0,0c-.83.53-1.66,1.07-2.49,1.63l-.08.05-1.06.7-.28.19c-.64.43-1.29.86-1.92,1.3l-.21.14L88.82,205l-.34.24c-.66.45-1.3.9-1.94,1.36-.43.3-.86.6-1.28.91-.75.52-1.5,1.06-2.24,1.61l-.35.25-1,.76c-.93.67-1.86,1.36-2.78,2.06l-.62.47-1.5,1.14c-.5.38-1,.76-1.5,1.16l-.29.22c.33-.9.67-1.79,1-2.67.22-.59.45-1.17.69-1.75l.54-1.34c.36-.89.73-1.77,1.1-2.65.46-1.08.93-2.15,1.4-3.2l.45-1,.45-1q.7-1.52,1.44-3c.32-.66.65-1.31,1-2s.74-1.43,1.11-2.14l.41-.76.9-1.66c.36-.64.71-1.27,1.07-1.89.23-.4.45-.79.68-1.17l.09-.14c.31-.53.62-1.06.94-1.58q.67-1.12,1.38-2.22c.46-.73.93-1.45,1.4-2.16s1-1.42,1.44-2.12,1-1.39,1.46-2.07,1-1.36,1.49-2,1-1.32,1.52-2,1-1.29,1.56-1.93l.78-.94.8-.93c.37-.44.76-.88,1.15-1.31.06-.08.13-.15.2-.23l.24-.26,1-1.06.06-.06,1-1,.41-.42c.38-.4.76-.79,1.15-1.18l1.49-1.46,1.1-1,9.76-8q1.83-1.32,3.72-2.53c11.13-7.17,22-10.89,32.58-14.5,15.12-5.17,29.4-10,42.72-24.44.48-.52.95-1,1.42-1.58l.18-.21,0,0c.23-.26.46-.52.66-.79.06-.06.11-.13.16-.19s.12-.13.17-.2l.1-.11c.11-.12.21-.24.31-.37l.12-.15.1-.12c.27-.32.54-.65.79-1,0,0,0,0,0,0,.24-.3.48-.6.7-.9l.16-.21c.33-.42.65-.85,1-1.28a.18.18,0,0,0,.05-.07l0-.06.12-.16c.38-.51.74-1,1.1-1.54l.34-.5c.32-.47.63-.94.94-1.42.13-.18.24-.37.35-.55l.22-.35.06-.1c.26-.38.5-.77.73-1.16.41-.68.82-1.36,1.21-2.05s.78-1.39,1.16-2.09.65-1.23,1-1.86c.06-.13.13-.25.19-.38.24-.48.48-1,.71-1.47s.4-.82.58-1.23.33-.71.48-1.07c0,0,0,0,0,0,.16-.33.3-.66.43-1l.09-.2c.18-.41.36-.82.53-1.24s.33-.82.49-1.24c0,0,0,0,0,0,.17-.41.33-.82.48-1.24.29-.77.57-1.54.85-2.32.15-.43.29-.85.43-1.28l.21-.64C215.32,80.81,215.39,80.6,215.45,80.4Z"/><path class="cls-1" d="M37.33,126.11q0,.69-.09,1.41c-.07,1-.15,1.93-.25,2.93-.05.5-.1,1-.16,1.52s-.08.74-.13,1.12c-.1.88-.22,1.79-.34,2.71s-.25,1.72-.38,2.6q-.58,3.81-1.39,8c-.38,1.92-.79,3.91-1.23,6-.3,1.36-.61,2.75-.94,4.16-.16.7-.33,1.41-.5,2.13s-.35,1.45-.53,2.18q-2.1,8.47-4.9,18.09c-.23.79-.46,1.58-.71,2.38-.7,2.4-1.45,4.84-2.23,7.34-2.57-2.44-5.1-5.09-7.53-7.87A116.1,116.1,0,0,1,3.29,163a116.73,116.73,0,0,1,34-36.88Z"/><path class="cls-1" d="M58.09,153.66a105,105,0,0,1-1.16,15.61q-.7,4.74-1.84,9.39c-.18.77-.38,1.54-.59,2.31s-.41,1.52-.63,2.27c-.15.51-.3,1-.46,1.52s-.3,1-.46,1.47c-.11.33-.21.66-.33,1s-.27.82-.42,1.23-.38,1.09-.58,1.64c-.27.75-.56,1.49-.85,2.24s-.55,1.39-.85,2.09c-.52,1.28-1.08,2.56-1.67,3.82-.2.44-.41.87-.62,1.3q-1.25,2.64-2.67,5.22c-2.64-1.54-5.24-3.22-7.76-5a115.16,115.16,0,0,1-12.43-10q3.7-11.87,6.46-22.27c.37-1.4.73-2.79,1.07-4.15,1-3.73,1.79-7.32,2.54-10.74.29-1.32.56-2.62.82-3.89l0-.14c.25-1.25.49-2.48.71-3.69.74-4,1.32-7.74,1.75-11.22l.15-1.33c.14-1.2.25-2.36.34-3.49,0-.41.07-.82.09-1.23s.08-1,.1-1.49c0-.18,0-.36,0-.54l0-.53c1-.66,2-1.31,3-1.94,1.86-1.16,3.74-2.28,5.64-3.32.38.92.78,1.84,1.19,2.75l.24.53.65,1.46,0,0c.2.44.41.87.62,1.29s.44.91.67,1.33c.85,1.74,1.8,3.52,2.82,5.31.41.7.81,1.4,1.22,2.07s.69,1.15,1,1.69l.88,1.4c.16.94.29,1.88.4,2.82s.23,1.92.33,2.88c0,.17,0,.33,0,.49,0,.4.08.8.11,1.2.08.93.14,1.86.19,2.79,0,.46,0,.92.07,1.37,0,.77.06,1.53.07,2.3S58.09,152.92,58.09,153.66Z"/><path class="cls-1" d="M89.57,171.37l-.15.25c-.22.38-.44.76-.65,1.14-.31.54-.61,1.08-.91,1.63-.82,1.5-1.62,3-2.38,4.56-.31.61-.61,1.23-.9,1.85q-1.78,3.7-3.36,7.57l-.78,1.94-.75,2,0,.07c-.31.82-.6,1.64-.9,2.46q-.87,2.47-1.68,5c-.26.85-.53,1.69-.78,2.55-.41,1.38-.8,2.77-1.18,4.17-.19.7-.37,1.41-.55,2.11s-.36,1.42-.53,2.14-.34,1.43-.5,2.15c-.09.38-.17.76-.26,1.15l-.36,1.68-.15.74q-3.28-.9-6.51-2c.44-.89.88-1.78,1.31-2.68.28-.57.55-1.15.82-1.73.54-1.16,1.07-2.32,1.58-3.48.26-.59.51-1.17.76-1.76s.5-1.17.74-1.76l.72-1.76c.47-1.18.93-2.36,1.37-3.55s.88-2.38,1.3-3.58.82-2.39,1.21-3.6c.29-.9.57-1.81.85-2.71q.84-2.73,1.56-5.47c.24-.92.48-1.83.71-2.75l.45-1.84c.29-1.23.57-2.46.83-3.7,0-.08,0-.15,0-.23q.28-1.34.54-2.67c.17-.89.34-1.79.5-2.68l0-.15c.15-.88.3-1.76.44-2.64.62.51,1.25,1,1.87,1.48s1.33,1,2,1.53l1,.73.84.61.21.15,1,.72h0l.22.16Z"/><path class="cls-1" d="M69.75,203.32c-.13.32-.26.63-.4,1-.37.87-.75,1.74-1.14,2.6s-.78,1.73-1.18,2.59c-.26.58-.53,1.15-.81,1.72s-.55,1.14-.84,1.71c-.18.37-.37.75-.56,1.12-2.95-1-5.79-2.19-8.47-3.4-3.44-1.53-6.82-3.24-10.08-5.1.28-.51.55-1,.82-1.54s.47-.89.69-1.34c.89-1.73,1.73-3.49,2.51-5.26.27-.6.53-1.2.78-1.81s.5-1.18.73-1.77a.67.67,0,0,0,.07-.18c.25-.59.48-1.19.7-1.79.74-1.92,1.42-3.87,2-5.82.09-.28.19-.57.27-.86.19-.63.38-1.25.56-1.88s.31-1.11.46-1.67.36-1.35.53-2c.12-.5.25-1,.36-1.52s.26-1.11.38-1.67q.24-1.08.45-2.19c.15-.77.3-1.55.43-2.34s.26-1.56.38-2.35c.19-1.31.37-2.63.51-4s.28-2.63.37-3.95c.19-2.63.29-5.27.29-7.9,0-1.54,0-3.09-.1-4.63V149c0-.74-.08-1.48-.13-2.22,0-.54-.07-1.07-.12-1.6,0-.3,0-.6-.07-.89-.06-.78-.14-1.56-.23-2.34,0-.31-.07-.63-.12-.94l-.06-.51c.27.42.56.83.85,1.24a.05.05,0,0,0,0,.05s0,0,0,0a118,118,0,0,0,12.92,15.4A117.76,117.76,0,0,0,69.75,203.32Z"/><path class="cls-1" d="M80.69,164.66q-.57,3.71-1.31,7.38c-.25,1.21-.51,2.42-.78,3.62s-.52,2.28-.8,3.42c-.17.68-.34,1.37-.53,2q-.48,1.81-1,3.63c-.17.6-.34,1.2-.53,1.8s-.36,1.2-.55,1.8c-.28.9-.56,1.79-.86,2.69-.88,2.68-1.83,5.33-2.85,8-.19.49-.39,1-.59,1.47-.12.33-.26.66-.39,1-.24.62-.5,1.23-.76,1.84a117.76,117.76,0,0,1,2.83-46.1l.24.25c.33.33.66.66,1,1C76,160.61,78.32,162.69,80.69,164.66Z"/><path class="cls-1" d="M215.51,74l-.09,0-.89.55-1.27.79A110.17,110.17,0,0,0,162.37,9.51a.72.72,0,0,0-.75,0,109.82,109.82,0,0,0-40.1,40.18c-.88-.41-1.77-.79-2.67-1.16A116.23,116.23,0,0,1,162,4.28,116.5,116.5,0,0,1,215.51,74Z"/><path class="cls-1" d="M211.93,76.24l-2.24,1.39a102.39,102.39,0,0,0-47.32-61.38.77.77,0,0,0-.75,0,102.06,102.06,0,0,0-36.07,35.34c-.88-.45-1.77-.87-2.66-1.28A108.33,108.33,0,0,1,162,11,108.69,108.69,0,0,1,211.93,76.24Z"/><path class="cls-1" d="M208.37,78.45l-2.24,1.39A94.56,94.56,0,0,0,162.37,23a.77.77,0,0,0-.75,0,94.16,94.16,0,0,0-32.08,30.66c-.87-.48-1.76-.95-2.65-1.4l.08-.13c.35-.58.71-1.15,1.08-1.72s.88-1.36,1.34-2q1.37-2,2.82-4c.49-.65,1-1.3,1.48-1.94.67-.85,1.36-1.69,2.05-2.53,1-1.24,2.13-2.47,3.23-3.66.74-.81,1.49-1.6,2.26-2.36.38-.39.76-.78,1.15-1.15l1.17-1.14A100.53,100.53,0,0,1,162,17.77,101,101,0,0,1,208.37,78.45Z"/><path class="cls-1" d="M204.8,80.67l-1.71,1.07-.54.34a86.61,86.61,0,0,0-40.18-52.33.72.72,0,0,0-.75,0,86.36,86.36,0,0,0-28.13,26.16c-.87-.52-1.75-1-2.64-1.52A92.79,92.79,0,0,1,162,24.52,93.08,93.08,0,0,1,204.8,80.67Z"/><path class="cls-1" d="M201.22,82.91,199,84.31a79,79,0,0,0-36.63-47.82.77.77,0,0,0-.75,0A78.25,78.25,0,0,0,137.4,58.36c-.86-.58-1.74-1.13-2.62-1.67A84.78,84.78,0,0,1,162,31.26,85.15,85.15,0,0,1,201.22,82.91Z"/><path class="cls-1" d="M197.67,85.14l-.33.21-1.92,1.22a71.09,71.09,0,0,0-33-43.34.77.77,0,0,0-.75,0A70.71,70.71,0,0,0,141.27,61l-.45-.32c-.71-.5-1.43-1-2.16-1.48A77.05,77.05,0,0,1,162,38,77.44,77.44,0,0,1,197.67,85.14Z"/><path class="cls-1" d="M194.1,87.4l-2.24,1.42A63.28,63.28,0,0,0,162.37,50a.72.72,0,0,0-.75,0A62.65,62.65,0,0,0,145.1,63.82c-.86-.68-1.73-1.33-2.61-2A69.1,69.1,0,0,1,162,44.75,69.6,69.6,0,0,1,194.1,87.4Z"/><path class="cls-1" d="M190.54,89.66l-2.24,1.43a55.44,55.44,0,0,0-25.93-34.36.72.72,0,0,0-.75,0,55.46,55.46,0,0,0-12.73,10.14q-1.29-1.09-2.61-2.13A61.12,61.12,0,0,1,162,51.5,61.74,61.74,0,0,1,190.54,89.66Z"/><path class="cls-1" d="M187,91.94l-2.23,1.43a47.54,47.54,0,0,0-22.36-29.9.77.77,0,0,0-.75,0,47,47,0,0,0-9,6.71c-.86-.79-1.74-1.57-2.63-2.33a53.22,53.22,0,0,1,12-9.6A53.9,53.9,0,0,1,187,91.94Z"/><path class="cls-1" d="M183.4,94.23c-.74.46-1.48.94-2.22,1.42a39.83,39.83,0,0,0-18.81-25.44.77.77,0,0,0-.75,0,39,39,0,0,0-5.17,3.58c-.88-.88-1.77-1.74-2.68-2.59A45.37,45.37,0,0,1,162,65,46.1,46.1,0,0,1,183.4,94.23Z"/><path class="cls-1" d="M179.84,96.51l-4.1,2.65a113.62,113.62,0,0,0-6.11-9.7,119.36,119.36,0,0,0-12.13-14.6A37.1,37.1,0,0,1,162,71.73,38.35,38.35,0,0,1,179.84,96.51Z"/><path class="cls-1" d="M47.91,66.83l-8,8A115.88,115.88,0,0,1,43,47.58c0,.26.11.52.17.78a.4.4,0,0,0,0,.15s0,.07,0,.11,0,.05,0,.08l.15.7c0,.17.07.33.11.5h0c.17.85.36,1.7.55,2.55.31,1.35.63,2.69,1,4,.18.72.36,1.44.55,2.16a1.54,1.54,0,0,0,0,.17c.24.93.49,1.87.76,2.79s.54,1.9.82,2.84v0l.36,1.18Z"/><path class="cls-1" d="M73.86,40.89l-8,8c-1.17-.36-2.35-.72-3.53-1.06s-2.38-.68-3.58-1c-.79-.22-1.6-.43-2.4-.63s-1.51-.38-2.28-.57l-.44-.1c-.68-.17-1.36-.33-2-.48q-2.48-.57-5-1.06A115.77,115.77,0,0,1,73.86,40.89Z"/><path class="cls-1" d="M55.86,87.5h0l-13,13a115.76,115.76,0,0,1-2.94-23.55l8.5-8.5c0,.14.09.27.13.4.19.57.37,1.13.57,1.7s.46,1.34.69,2c.15.44.31.88.47,1.31l.48,1.32c.21.56.42,1.13.64,1.7,0,.12.09.23.13.35.17.45.35.9.53,1.35a1.22,1.22,0,0,0,.07.17q.33.87.69,1.74c.43,1.05.86,2.1,1.31,3.13.11.26.21.51.33.76C54.92,85.43,55.38,86.47,55.86,87.5Z"/><path class="cls-1" d="M99.5,43.86l-13,13-.34-.15-.28-.13-.24-.1-1.18-.53c-.84-.38-1.69-.74-2.54-1.1l-.08,0q-2.35-1-4.74-1.92l-.88-.34-2-.77-2.42-.88-2-.67-2.37-.79L76,40.91A116.56,116.56,0,0,1,99.5,43.86Z"/><path class="cls-1" d="M120.92,51.06l-.41.41v0L115,57l-.7.69h0l-9.12,9.12-.58-.35c-.71-.43-1.42-.86-2.14-1.27l-.06,0-.65-.39c-1-.58-2-1.14-3-1.69s-2-1.08-2.94-1.6c-.28-.16-.57-.31-.86-.45-.92-.49-1.84-1-2.76-1.42l-1.62-.8a2.44,2.44,0,0,0-.28-.14l-.08,0c-.75-.38-1.52-.73-2.28-1.09l13.25-13.25q1.11.27,2.22.57c1.52.4,3,.84,4.55,1.32.42.12.84.25,1.25.4.56.17,1.13.36,1.69.56.32.1.64.22.95.33.71.24,1.4.5,2.1.76,1.39.52,2.78,1.07,4.15,1.64l.76.32Z"/><g class="cls-2"><path class="cls-3" d="M65.81,106.17l-9,9h0l-6.77,6.77a115.06,115.06,0,0,1-6.79-19.71L56.53,89c.16.35.33.71.5,1.06.08.18.16.35.25.52.17.35.34.71.52,1.06.26.54.53,1.08.8,1.62.35.69.7,1.38,1.06,2.07.24.47.49.93.73,1.39.35.68.72,1.35,1.09,2,.48.88,1,1.76,1.48,2.64l.06.11c.5.88,1,1.75,1.53,2.62C65,104.78,65.38,105.48,65.81,106.17Z"/></g><g class="cls-2"><path class="cls-3" d="M77.59,123,60.38,140.22c-.32-.46-.63-.92-.94-1.39a.94.94,0,0,1-.12-.18c-.35-.52-.69-1.05-1-1.58s-.71-1.1-1-1.66-.69-1.11-1-1.67-.81-1.37-1.21-2.06q-1.47-2.58-2.78-5.22-.34-.66-.66-1.32c-.29-.58-.57-1.17-.84-1.76l15.89-15.89c.45.7.89,1.41,1.35,2.11.13.21.27.42.41.63.5.77,1,1.53,1.52,2.29,1.31,1.94,2.69,3.88,4.1,5.8C75.13,119.85,76.34,121.43,77.59,123Z"/></g><path class="cls-1" d="M139.22,61.38l-5.53,5.53-3.54,3.54-5.06,5.06-2.42,2.42-.65.65c-1.58-1.25-3.15-2.46-4.69-3.59-.89-.66-1.79-1.31-2.69-1.94l-.2-.15-1.45-1-.76-.52L112,71.2c-1.82-1.25-3.65-2.44-5.48-3.59l15.88-15.89q3.23,1.5,6.36,3.21c.44.24.88.48,1.31.73.78.44,1.57.89,2.34,1.35s1.25.74,1.86,1.13Q136.77,59.69,139.22,61.38Z"/><path class="cls-1" d="M154.87,74.35,143.42,85.8l-2.71,2.71-3.59,3.59L137,92l-1.55-1.54-1.87-1.81-.7-.66c-.46-.44-.93-.88-1.41-1.31-.18-.17-.36-.34-.55-.5-.63-.58-1.27-1.15-1.91-1.72s-1.47-1.29-2.21-1.92l-.9-.76-.15-.13L125,81l-1.81-1.48,17.28-17.28q3.6,2.56,7,5.42c.51.42,1,.85,1.52,1.29l1.18,1c.53.47,1.06.94,1.58,1.42l.49.46,1.28,1.21C154,73.49,154.44,73.92,154.87,74.35Z"/><path class="cls-1" d="M91.11,138.11l-8.64,8.64-9.12,9.12a116.43,116.43,0,0,1-12.09-14.4l17.28-17.28L80,125.91q2.94,3.54,6.08,6.94l1.8,1.91c.5.53,1,1.05,1.51,1.57S90.51,137.53,91.11,138.11Z"/><g class="cls-2"><path class="cls-3" d="M105,150.45l-1,1.09c-.73.79-1.41,1.54-2,2.28h0c-.89,1-1.7,2-2.48,3q-2.3,2.92-4.43,6s0,0,0,0L88.82,169c-.34-.24-.68-.48-1-.73l-1-.73c-.67-.5-1.33-1-2-1.51q-2.83-2.19-5.55-4.59c-.56-.49-1.11-1-1.65-1.48q-1.63-1.5-3.21-3.06l17.76-17.76,1.29,1.24,1.85,1.73,1.32,1.21c.81.74,1.64,1.47,2.47,2.2S101,147.22,102,148l1,.82C103.66,149.39,104.31,149.92,105,150.45Z"/></g><path class="cls-1" d="M168,89.8l-17.51,17.51c-.48-.62-1-1.23-1.46-1.84s-1.2-1.47-1.8-2.2c-.4-.48-.8-1-1.21-1.43-.63-.75-1.28-1.49-1.93-2.23s-1.3-1.47-2-2.19q-.51-.57-1-1.11c-.57-.63-1.15-1.24-1.73-1.85l-1.24-1.29,17.76-17.76q.8.8,1.56,1.62c.25.26.5.52.74.79l1.24,1.34c.39.43.77.85,1.14,1.28s.51.59.76.88c.87,1,1.72,2,2.55,3.05.44.55.88,1.11,1.31,1.67Q166.68,87.9,168,89.8Z"/><path class="cls-1" d="M174.48,100l-5.92,3.85q-7.45,4.88-13.8,9.11c-.15-.22-.31-.43-.47-.65-.93-1.28-1.88-2.54-2.83-3.78l17.45-17.45c1.16,1.68,2.28,3.39,3.34,5.13.39.63.77,1.27,1.15,1.9l.24.41C173.93,99,174.21,99.48,174.48,100Z"/><g class="cls-2"><path class="cls-3" d="M91,169c-.08.13-.16.25-.23.38l-.44.73-.26-.18Z"/></g><path class="cls-1" d="M85,87,66.9,105.08c-1-1.58-1.91-3.19-2.83-4.81-.3-.51-.58-1-.87-1.54C61.62,95.87,60.11,93,58.7,90c-.35-.72-.69-1.44-1-2.17,0,0,0,0,0,0l14-14.06Z"/><path class="cls-1" d="M113.58,115.64,92.17,137.05c-1.66-1.65-3.29-3.33-4.89-5.06q-1.56-1.68-3.07-3.4c-.14-.15-.27-.31-.41-.47-.92-1.05-1.82-2.12-2.72-3.19l-.31-.38c-.39-.47-.78-1-1.16-1.43l20.73-20.73Z"/><path class="cls-1" d="M64.63,50.11,57.4,57.34l-12-12.05.53.1c.9.17,1.79.36,2.69.55l3.1.68.16,0c1.77.4,3.52.84,5.26,1.29l2.26.61,1.48.42.39.11,1.81.53.8.24Z"/><path class="cls-1" d="M85.38,58,71.71,71.65,58.47,58.4l7.79-7.79c.9.29,1.81.59,2.71.9l1.37.46.19.07,2.55.91,2,.75q3,1.13,5.93,2.37l2,.88C83.84,57.28,84.61,57.63,85.38,58Z"/><path class="cls-1" d="M121,79.65l-20.61,20.62L87.09,87,105.41,68.7c2,1.26,4.07,2.6,6.1,4,.81.55,1.62,1.12,2.43,1.7s1.67,1.19,2.5,1.8C117.92,77.29,119.43,78.45,121,79.65Z"/><path class="cls-1" d="M149.46,108.38,129,128.89l-13.25-13.25,21.41-21.41q1.49,1.53,2.93,3.1c.57.61,1.14,1.23,1.7,1.86l.39.44c.36.4.72.8,1.07,1.21.2.22.39.45.58.67l.06.06c.24.27.48.55.71.83q1,1.14,1.95,2.31l1,1.24C148.18,106.75,148.82,107.56,149.46,108.38Z"/><path class="cls-1" d="M56.34,58.4l-7.22,7.23h0c-.48-1.57-1-3.15-1.39-4.74s-.87-3.2-1.27-4.81q-.35-1.35-.66-2.7c-.12-.53-.25-1.07-.37-1.61-.07-.34-.15-.69-.22-1-.14-.63-.28-1.26-.41-1.89-.17-.84-.34-1.67-.5-2.51Z"/><path class="cls-1" d="M70.65,72.71,57,86.37h0c-.13-.27-.25-.54-.37-.82q-.34-.73-.66-1.5c-.27-.6-.53-1.21-.78-1.82,0-.11-.1-.22-.14-.33q-.45-1.05-.87-2.1c-.24-.58-.47-1.17-.7-1.76s-.35-.89-.52-1.34c-.37-1-.74-1.93-1.09-2.91l-.08-.21a0,0,0,0,0,0,0c-.29-.79-.57-1.58-.84-2.38-.45-1.3-.89-2.61-1.31-3.92h0l7.78-7.78Z"/><path class="cls-1" d="M104.09,67.89h0L86,86h0L72.78,72.71l14-14.06,1.91.89,1.9.92c.93.46,1.86.93,2.78,1.41,1.22.63,2.43,1.28,3.63,1.94l.09,0,1.52.84,1.3.74,1,.59C102,66.64,103.06,67.26,104.09,67.89Z"/><path class="cls-1" d="M99.27,101.33,78.66,121.94l-.89-1.14-1.31-1.7q-.64-.84-1.26-1.68c-.59-.79-1.16-1.59-1.73-2.39-2-2.86-4-5.75-5.76-8.63L86,88.08Z"/><path class="cls-1" d="M136.06,93.16l-21.41,21.42L101.4,101.33,122.13,80.6l.1.07.18.15c.74.6,1.47,1.2,2.19,1.81.23.19.46.38.69.59,0,0,0,0,0,0a.75.75,0,0,1,.14.12c.37.3.75.62,1.11.94l.44.38,1.34,1.19q.58.51,1.17,1c.5.45,1,.9,1.49,1.36l1,1,.69.65C133.85,91,135,92.06,136.06,93.16Z"/><path class="cls-1" d="M127.9,130l-6.16,6.16h0A168.18,168.18,0,0,0,107.42,148c-.48.46-.94.9-1.38,1.34l-.6-.48-1.11-.91-1-.83-.1-.08c-.56-.46-1.12-.93-1.67-1.41l-.84-.72-.33-.28c-.73-.64-1.46-1.28-2.18-1.93S97,141.61,96.34,141l-1.84-1.72-1.25-1.22,21.4-21.4Z"/><path class="cls-1" d="M153.51,113.78c-9.49,6.34-17.17,11.66-23.46,16.2l0,0,20.37-20.37c.48.62,1,1.25,1.42,1.88s1.14,1.53,1.69,2.31A0,0,0,0,0,153.51,113.78Z"/><path class="cls-1" d="M185.65,186.65A116.48,116.48,0,0,1,84.72,219.1l1.52,0,1.19,0c.58,0,1.15,0,1.72,0l2.25,0,1,0,1.82-.06c.25,0,.49,0,.73,0L96.4,219l.43,0,.8-.05.77-.06h.16l1.25-.1.31,0,.25,0h0l1.63-.16.33,0q.56,0,1.11-.12l1.13-.13.33,0,1.12-.15c1.54-.2,3.07-.44,4.59-.71l.46-.08h.08q5.76-1,11.39-2.59l2-.56c.84-.26,1.68-.51,2.52-.78,1.74-.56,3.47-1.15,5.18-1.79a125.68,125.68,0,0,0,54.41-39.88c25.9-31.83,30.7-67.71,30.68-90A116.51,116.51,0,0,1,185.65,186.65Z"/><path class="cls-1" d="M214.08,105.11c-.1.68-.22,1.37-.33,2.07q-.47,2.71-1,5.52a.32.32,0,0,0,0,.14c-.21,1-.43,2-.67,3s-.43,1.85-.67,2.78c-.17.66-.34,1.33-.52,2s-.36,1.35-.56,2h0c-.19.67-.38,1.34-.59,2-.13.47-.28.94-.43,1.41-.09.32-.2.64-.3,1,0,.07,0,.15-.07.23a2.09,2.09,0,0,1-.08.23c-.26.83-.54,1.67-.82,2.5l0,.05c-.32.93-.65,1.86-1,2.8-.27.75-.56,1.5-.85,2.25s-.52,1.32-.79,2-.63,1.55-1,2.33l0,.1-.13.3-.65,1.47q-.47,1-1,2.1l-.06.14c-.32.67-.64,1.34-1,2s-.71,1.44-1.08,2.16c-.73,1.44-1.51,2.87-2.31,4.31l-.54,1-.56,1c-.33.57-.67,1.14-1,1.71s-.61,1-.93,1.51-.63,1-1,1.51-.65,1-1,1.53-.66,1-1,1.48c-.21.32-.44.65-.66,1-.41.59-.83,1.17-1.25,1.76l-.19.27c-.48.66-1,1.32-1.46,2l0,.05-1.17,1.53c-.62.8-1.25,1.59-1.89,2.38a132.08,132.08,0,0,1-17.32,18c-.55.47-1.12,1-1.7,1.42s-.9.74-1.36,1.11l-1,.75-1.3,1-.23.17-1.58,1.18c-.53.39-1.07.78-1.63,1.17l-1.51,1.06-.17.11c-.59.41-1.2.82-1.81,1.22l-.14.09c-.59.39-1.2.78-1.81,1.16s-1.33.83-2,1.24-1.62,1-2.45,1.44l-1.76,1-2.47,1.32c-1.26.65-2.54,1.29-3.86,1.92l-1.33.62-1.34.61-1.72.74c-.57.25-1.15.49-1.74.73l-1.67.67-1.91.73q-2.53.94-5.12,1.77c-.86.27-1.72.54-2.59.79s-1.64.48-2.47.7l-.31.09c-.73.2-1.47.39-2.21.57l-.52.13c-.64.16-1.29.31-1.94.45s-1.43.32-2.15.47-1.29.27-1.94.39c-1.15.23-2.3.43-3.45.61l-2.47.38-2.48.32c-.69.09-1.38.17-2.07.23-.38.05-.77.09-1.16.12l-1.21.11-1.37.11-1.63.11h-.18l-2.15.11c-.32,0-.64,0-1,0-.58,0-1.15,0-1.73.05-.84,0-1.67,0-2.51,0l-1.93,0-1.52,0-1.45,0-.41,0-1.6-.08-1.74-.11c-1.17-.08-2.33-.18-3.49-.29l-1.72-.19.54-.43.55-.42.25-.2c1-.81,2.1-1.62,3.16-2.41.66-.51,1.33-1,2-1.5l.1-.07,1.38-1,1.38-1,.31-.23,0,0,.24-.17,1.33-.95c.44-.31.88-.63,1.33-.93,1-.75,2.09-1.47,3.15-2.19.7-.49,1.41-1,2.12-1.44l2.39-1.58,1.2-.79c.8-.53,1.61-1,2.42-1.55,1.15-.75,2.31-1.47,3.47-2.18l1.64-1,.29-.17.31-.19c.36-.23.72-.44,1.08-.65,1-.59,1.94-1.17,2.92-1.74L109,194c.85-.5,1.7-1,2.56-1.47l.22-.13.56-.32,1.79-1c.59-.34,1.19-.66,1.79-1l1.66-.91,2.88-1.54c.39-.22.8-.42,1.19-.63l.08,0,2-1.06.79-.4q2.07-1.05,4.15-2.07,4.15-2,8.38-3.94c9.39-4.23,16.73-7,23.21-9.38,10.82-4,18.64-6.94,26.93-13.86.49-.41,1-.83,1.46-1.26.29-.25.57-.51.85-.77l.44-.41c.31-.28.62-.58.92-.88s.79-.77,1.17-1.17.51-.52.75-.79.57-.6.84-.91c.15-.15.28-.3.41-.45l.39-.44c.33-.37.65-.75,1-1.14a1,1,0,0,0,.13-.16c.42-.5.84-1,1.25-1.54l.33-.44.6-.79c.2-.26.4-.53.59-.8l.22-.3c.42-.59.84-1.2,1.25-1.81s.9-1.36,1.34-2.06.81-1.32,1.2-2a2,2,0,0,0,.11-.2c.41-.7.81-1.42,1.2-2.14s.8-1.5,1.18-2.26.71-1.45,1-2.18.6-1.3.89-2l.12-.27h0l.21-.49.38-.89.09-.22a.17.17,0,0,1,0-.05l.06-.16.39-1c.07-.16.13-.33.2-.5s.26-.65.38-1l.25-.69c.09-.22.17-.44.25-.67.28-.75.54-1.52.8-2.29.05-.13.09-.26.13-.39.18-.52.35-1,.51-1.58a1.72,1.72,0,0,0,.07-.21c.11-.34.22-.69.32-1s.3-1,.44-1.5c.3-1,.58-2,.85-3.1.11-.4.21-.81.31-1.22s.23-.91.34-1.38l.27-1.17c.08-.31.15-.64.21-1,0-.13.06-.25.08-.38.08-.35.16-.69.23-1l.3-1.46C214,105.55,214,105.33,214.08,105.11Z"/><path class="cls-1" d="M215.2,76a.79.79,0,0,1-.06.22l-.06.22c-.14.5-.28,1-.43,1.47s-.25.84-.38,1.25-.24.77-.37,1.16c-.23.71-.47,1.42-.72,2.12s-.59,1.68-.91,2.5c-.06.16-.12.31-.19.47a1.34,1.34,0,0,1-.07.18c-.16.44-.33.87-.51,1.3-.09.22-.17.44-.27.66s-.18.45-.28.66a1.11,1.11,0,0,1-.07.16l0,.1c-.16.39-.33.78-.52,1.17h0l-.15.33a2.6,2.6,0,0,1-.19.42l-.09.2,0,.07c-.25.56-.51,1.12-.78,1.67-.09.19-.18.37-.28.56a.91.91,0,0,1-.07.14.54.54,0,0,0,0,.11c-.25.52-.52,1-.79,1.55-.11.24-.24.47-.37.7-.25.48-.5,1-.78,1.42-.16.31-.33.62-.51.92l0,0c-.39.68-.79,1.35-1.2,2s-.94,1.51-1.43,2.25c-.34.53-.7,1.06-1.06,1.57a.83.83,0,0,0-.08.12l-.1.15-.6.84,0,0c-.38.55-.78,1.08-1.18,1.61s-.77,1-1.17,1.5c-.27.34-.53.68-.81,1l0,.05-.12.15q-.67.83-1.38,1.62c-.51.58-1,1.16-1.54,1.72-13.07,14.11-27.17,18.94-42.14,24-5.31,1.81-10.7,3.66-16.18,6l-2.06.88-1.47.66-1.29.6-.69.33-.7.33-2.08,1c-.7.36-1.39.73-2.09,1.11-.52.28-1.05.57-1.57.87q-2.35,1.33-4.74,2.87c-.86.55-1.71,1.12-2.54,1.7l-.25.18c-.53.36-1,.73-1.57,1.11h0l-.07,0-.92.68-.16.12-.6.45-1.17.91-.09.07-.5.39-1.33,1.09-.11.09a1.74,1.74,0,0,0-.22.18c-.59.48-1.17,1-1.74,1.49s-.88.77-1.31,1.17l-.63.57c-.86.79-1.7,1.59-2.53,2.42-.19.18-.37.36-.55.55l-.5.5-.49.51a1.37,1.37,0,0,0-.17.17c-.9.93-1.79,1.88-2.66,2.86-.38.42-.75.83-1.11,1.26s-.92,1-1.37,1.59c-.32.39-.65.78-1,1.17l-.08.09-.67.84-.67.84c-.6.76-1.19,1.53-1.76,2.31s-1.15,1.56-1.71,2.35l0,0,0,0c-.31.43-.61.86-.9,1.3s-.72,1-1.07,1.57-.71,1.07-1,1.61-.61.94-.9,1.41c-.39.62-.78,1.24-1.16,1.87l0,.08c-.32.52-.63,1.05-.94,1.58l-.13.23-1,1.77c-.34.59-.68,1.19-1,1.8s-.66,1.21-1,1.83l-1,1.85c-.27.52-.53,1-.79,1.57s-.47.94-.7,1.42l-.69,1.45q-.42.87-.81,1.74T78,203.65q-.47,1-.9,2.07l-.63,1.47c.31-1.18.64-2.35,1-3.51s.68-2.31,1-3.45.73-2.28,1.12-3.4a.64.64,0,0,1,0-.07c.38-1.1.77-2.19,1.17-3.28.32-.87.65-1.74,1-2.6.51-1.32,1-2.63,1.6-3.92q.69-1.61,1.41-3.18c.47-1,1-2,1.44-3.05a1,1,0,0,1,.07-.15c.49-1,1-2,1.5-3s1-1.83,1.46-2.72c.1-.2.21-.4.32-.59.42-.76.85-1.5,1.28-2.24.23-.4.46-.79.7-1.18q.51-.88,1-1.74c.3-.48.6-1,.91-1.44.12-.2.25-.39.37-.58l.87-1.33c.43-.65.87-1.3,1.32-1.94.25-.37.51-.74.77-1.1.43-.61.86-1.22,1.31-1.81q.48-.66,1-1.32c.45-.61.92-1.22,1.39-1.82,7.08-9,16.65-18.62,68.79-52.7,9.53-6.23,19.13-12.39,28.68-18.42l5.73-3.6,5.72-3.57Z"/><g class="cls-2"><path class="cls-3" d="M308.85,136.49v2.94h5.33v1.65h-5.33v3H315v1.65h-8v-10.9h7.79v1.65Z"/><path class="cls-3" d="M337,144.58v1.16h-4.59v-7.62h1.29v6.46Z"/><path class="cls-3" d="M376.52,135.88l-.76,1.62a6.5,6.5,0,0,0-3.2-1c-1.07,0-1.77.4-1.77,1.14,0,2.38,5.89,1.1,5.87,5,0,2-1.71,3.15-4.11,3.15a6.74,6.74,0,0,1-4.46-1.73l.8-1.59a5.73,5.73,0,0,0,3.69,1.59c1.28,0,2-.49,2-1.33,0-2.43-5.89-1.07-5.89-4.95,0-1.87,1.6-3,4-3A7.1,7.1,0,0,1,376.52,135.88Z"/><path class="cls-3" d="M395,144l-.73,1.72H393l3.36-7.62h1.32l3.34,7.62H399.6l-.73-1.72Zm1.92-4.53-1.44,3.39h2.87Z"/><path class="cls-3" d="M418.24,145.74l-4.06-5.47v5.47H412.9v-7.62h1.26l4.08,5.48v-5.48h1.27v7.62Z"/><path class="cls-3" d="M435.22,139.27v6.47h-1.29v-6.47h-2.4v-1.15h6.11v1.15Z"/><path class="cls-3" d="M456.64,141.93a4,4,0,1,1-4-3.85A3.91,3.91,0,0,1,456.64,141.93Zm-6.78,0a2.73,2.73,0,0,0,2.75,2.71,2.7,2.7,0,1,0-2.75-2.71Z"/><path class="cls-3" d="M498.77,145.74l0-8.14-3.44,7h-1.2l-3.44-7v8.14h-1.73v-10.9h2.18l3.6,7.24,3.58-7.24h2.17v10.9Z"/><path class="cls-3" d="M519.77,139.27v2.06h3.73v1.16h-3.73v2.1h4.3v1.15h-5.58v-7.62h5.44v1.15Z"/><path class="cls-3" d="M540,143.43h-2.15v2.3h-1.29v-7.62h3.09c2,0,3.08.94,3.08,2.6a2.45,2.45,0,0,1-1.58,2.47l1.71,2.55h-1.46Zm-.35-1.14c1.18,0,1.86-.5,1.86-1.54s-.68-1.48-1.86-1.48h-1.8v3Z"/><path class="cls-3" d="M561.6,139.26l-.75.94a3,3,0,0,0-2.13-1,2.69,2.69,0,1,0,0,5.37,3.18,3.18,0,0,0,2.13-.9l.76.84a4.29,4.29,0,0,1-3,1.26,3.86,3.86,0,1,1,0-7.72A4.21,4.21,0,0,1,561.6,139.26Z"/><path class="cls-3" d="M574.85,144l-.73,1.72h-1.34l3.36-7.62h1.32l3.34,7.62h-1.38l-.73-1.72Zm1.91-4.53-1.43,3.39h2.87Z"/><path class="cls-3" d="M595.84,138.12a3.81,3.81,0,1,1,0,7.62h-3.1v-7.62ZM594,144.59h1.87a2.56,2.56,0,0,0,2.62-2.65,2.6,2.6,0,0,0-2.67-2.67H594Z"/><path class="cls-3" d="M619.21,141.93a4,4,0,1,1-4-3.85A3.9,3.9,0,0,1,619.21,141.93Zm-6.77,0a2.73,2.73,0,0,0,5.45,0,2.73,2.73,0,0,0-5.45,0Z"/></g><g class="cls-2"><path class="cls-3" d="M261,105.8a1.25,1.25,0,0,1,1.3-1.13h6.92a1.31,1.31,0,0,1,1.31,1.13c.12,2.67,2.3,4,4.73,4s4.73-1.68,4.73-4.23c0-2.8-2.55-4.49-4.73-4.67a17.27,17.27,0,0,1-6.79-1.5A12.24,12.24,0,0,1,261,87.86c0-8.54,7-13.77,14.26-13.77,7.85,0,14,5.3,14.14,13a1.32,1.32,0,0,1-1.37,1.06h-6.79a1.43,1.43,0,0,1-1.37-1.06c-.13-2.62-2.18-3.92-4.61-3.92a4.42,4.42,0,0,0-4.73,4.67c0,2.74,2.3,4.17,4.73,4.17a16.89,16.89,0,0,1,6.73,1.5,12.69,12.69,0,0,1,7.53,12.08c0,8.53-6.91,13.33-14.26,13.33C267.39,118.75,261.16,114.14,261,105.8Z"/><path class="cls-3" d="M319.47,113.33H307l-1.56,4.3v-.06a1.32,1.32,0,0,1-1.31.75h-7.41c-1.06,0-1.49-.75-1.18-1.5,5.35-13.7,11.15-28.65,16.5-42.35a1.4,1.4,0,0,1,2.43,0L331,116.82a1.08,1.08,0,0,1-1.12,1.5h-7.54a1.25,1.25,0,0,1-1.18-.75v.06Zm-10-7.53H317l-2.18-6.48a47.57,47.57,0,0,1-1.49-6,46,46,0,0,1-1.56,6Z"/><path class="cls-3" d="M375.34,117.26a1.21,1.21,0,0,1-1.31,1.06h-7a1.58,1.58,0,0,1-1.06-.44c-6.36-9.1-11.77-16.88-18.19-26v25.42a1.26,1.26,0,0,1-1.31,1.06h-7a1.26,1.26,0,0,1-1.31-1.06V75.84a1.26,1.26,0,0,1,1.31-1.13h7a1.58,1.58,0,0,1,1.06.44c6.23,9,12,16.94,18.25,26V75.84a1.22,1.22,0,0,1,1.31-1.13H374a1.22,1.22,0,0,1,1.31,1.13Z"/><path class="cls-3" d="M441.93,88.42c0,13-13.83,13.08-14.88,13.08h-5.49v15.88a1.16,1.16,0,0,1-1.3,1.06h-6.79a1.19,1.19,0,0,1-1.25-1.06V76.27a1.15,1.15,0,0,1,1.25-1.06h13.58C428.79,75.21,441.93,75.46,441.93,88.42Zm-9.34,0c0-4-4.67-4.3-5.54-4.3h-5.49v8.47h5.49C428,92.59,432.59,92.47,432.59,88.42Z"/><path class="cls-3" d="M492.89,96.7c0,11-7.23,22.18-21.43,22.18-14.39,0-21.49-11.15-21.49-22.18s7.1-22.11,21.49-22.11C485.66,74.59,492.89,85.68,492.89,96.7Zm-9.53.13c0-6.73-4.05-13.46-11.9-13.46s-11.9,6.73-11.9,13.46,4,13.26,11.9,13.26S483.36,103.49,483.36,96.83Z"/><path class="cls-3" d="M551.81,117.26a1.28,1.28,0,0,1-1.37,1.06h-6.85a1.28,1.28,0,0,1-1.37-1.06V97.08c-3.11,6.29-6.29,12.58-9.4,18.87a1.75,1.75,0,0,1-1.12.68h-6.54A1.66,1.66,0,0,1,524,116V116L513.82,96.39v20.87a1.26,1.26,0,0,1-1.31,1.06h-7a1.11,1.11,0,0,1-1.25-1.06V75.77a1.11,1.11,0,0,1,1.25-1.12h7.1a1.73,1.73,0,0,1,1.18.69L528.39,105l13.83-29.65a1.8,1.8,0,0,1,1.25-.69h7a1.27,1.27,0,0,1,1.37,1.12Z"/><path class="cls-3" d="M594.11,88.42c0,13-13.83,13.08-14.88,13.08h-5.49v15.88a1.16,1.16,0,0,1-1.3,1.06h-6.79a1.19,1.19,0,0,1-1.25-1.06V76.27a1.15,1.15,0,0,1,1.25-1.06h13.58C581,75.21,594.11,75.46,594.11,88.42Zm-9.34,0c0-4-4.67-4.3-5.54-4.3h-5.49v8.47h5.49C580.16,92.59,584.77,92.47,584.77,88.42Z"/><path class="cls-3" d="M599.85,66.87c-.5-.5-.25-1.25.5-1.5,3.67-2.05,7.22-3.92,11-6,.81-.31,1.68-.43,1.87-.12l3.48,5.54a1.16,1.16,0,0,1-.68,1.31H616L605,71.91c-.87.31-1.8.38-2.05.06Zm3.55,9.4a1.21,1.21,0,0,1,1.31-1.06h6.78a1.17,1.17,0,0,1,1.31,1.06v41a1.21,1.21,0,0,1-1.31,1.06h-6.78a1.26,1.26,0,0,1-1.31-1.06Z"/><path class="cls-3" d="M661.26,117.26a1.2,1.2,0,0,1-1.3,1.06h-7a1.58,1.58,0,0,1-1.06-.44c-6.35-9.1-11.77-16.88-18.19-26v25.42a1.25,1.25,0,0,1-1.3,1.06h-7a1.26,1.26,0,0,1-1.31-1.06V75.84a1.26,1.26,0,0,1,1.31-1.13h7a1.58,1.58,0,0,1,1.06.44c6.23,9,12,16.94,18.25,26V75.84a1.21,1.21,0,0,1,1.3-1.13H660a1.21,1.21,0,0,1,1.3,1.13Z"/></g></svg>