<svg id="Layer_1" data-name="Layer 1" xmlns="http://www.w3.org/2000/svg" viewBox="0 0 319.95 75.51"><defs><style>.cls-1{fill:#fff;}</style></defs><path class="cls-1" d="M16.19,68.48v.8H10V60.56h6v.8H11v3.1h4.51v.78H11v3.24Z"/><path class="cls-1" d="M30.69,62.24h.9v6.29h3.92v.75H30.69Z"/><path class="cls-1" d="M64.36,68.22l.36-.71a4.27,4.27,0,0,0,2.87,1.06c1.64,0,2.35-.69,2.35-1.54,0-2.4-5.37-.93-5.37-4.15,0-1.28,1-2.39,3.21-2.39a4.84,4.84,0,0,1,2.7.77l-.31.74a4.45,4.45,0,0,0-2.39-.73c-1.59,0-2.3.71-2.3,1.58,0,2.39,5.36.95,5.36,4.13,0,1.28-1,2.37-3.25,2.37A4.72,4.72,0,0,1,64.36,68.22Z"/><path class="cls-1" d="M89.57,67.46H85.62l-.82,1.82h-.9l3.25-7H88l3.25,7h-.9Zm-.33-.72L87.6,63.09l-1.66,3.65Z"/><path class="cls-1" d="M111.14,62.24v7h-.74L106,63.79v5.49h-.9v-7h.75l4.42,5.5v-5.5Z"/><path class="cls-1" d="M127.43,63H125v-.75h5.85V63h-2.48v6.29h-.89Z"/><path class="cls-1" d="M143.77,65.76a3.78,3.78,0,1,1,3.78,3.59A3.6,3.6,0,0,1,143.77,65.76Zm6.65,0a2.88,2.88,0,1,0-2.87,2.81A2.78,2.78,0,0,0,150.42,65.77Z"/><path class="cls-1" d="M190.55,60.56v8.72h-.89v-7l-3.42,5.86h-.44l-3.42-5.83v6.94h-.88V60.56h.75L186,67l3.75-6.47Z"/><path class="cls-1" d="M210.84,68.53v.75h-5.12v-7h5V63h-4.07v2.35h3.63v.74h-3.63v2.45Z"/><path class="cls-1" d="M230,69.28l-1.6-2.22a3.87,3.87,0,0,1-.48,0h-1.85v2.19h-.89v-7H228c1.8,0,2.94.89,2.94,2.43a2.23,2.23,0,0,1-1.61,2.22L231,69.28Zm0-4.61c0-1.08-.74-1.68-2.09-1.68h-1.8v3.36h1.8C229.26,66.35,230,65.74,230,64.67Z"/><path class="cls-1" d="M244.73,65.76a3.59,3.59,0,0,1,3.76-3.6,3.48,3.48,0,0,1,2.67,1l-.57.59a2.86,2.86,0,1,0-2.08,4.78,2.73,2.73,0,0,0,2.08-.85l.57.59a3.42,3.42,0,0,1-2.67,1A3.59,3.59,0,0,1,244.73,65.76Z"/><path class="cls-1" d="M269.54,67.46h-4l-.82,1.82h-.9l3.25-7H268l3.25,7h-.9Zm-.32-.72-1.65-3.65-1.65,3.65Z"/><path class="cls-1" d="M285.05,62.24H288c2.37,0,3.85,1.42,3.85,3.52s-1.48,3.52-3.85,3.52h-2.95ZM288,68.53A2.78,2.78,0,1,0,288,63h-2v5.54Z"/><path class="cls-1" d="M305.49,65.76a3.78,3.78,0,1,1,3.78,3.59A3.6,3.6,0,0,1,305.49,65.76Zm6.65,0a2.88,2.88,0,1,0-2.87,2.81A2.78,2.78,0,0,0,312.14,65.77Z"/><path class="cls-1" d="M0,37.34a1,1,0,0,1,1.05-.89H6.57a1,1,0,0,1,1,.89c.1,2.15,1.84,3.24,3.78,3.24a3.52,3.52,0,0,0,3.79-3.38,4,4,0,0,0-3.79-3.74A13.79,13.79,0,0,1,6,32.26,9.77,9.77,0,0,1,0,23c0-6.82,5.58-11,11.4-11,6.28,0,11.21,4.23,11.31,10.4a1.06,1.06,0,0,1-1.1.85H16.18a1.15,1.15,0,0,1-1.09-.85c-.1-2.09-1.74-3.13-3.69-3.13A3.53,3.53,0,0,0,7.62,23c0,2.19,1.84,3.34,3.78,3.34a13.58,13.58,0,0,1,5.38,1.19,10.16,10.16,0,0,1,6,9.67c0,6.82-5.53,10.65-11.41,10.65C5.08,47.7.1,44,0,37.34Z"/><path class="cls-1" d="M36.75,43.37l-1.24,3.44v-.05a1,1,0,0,1-1,.59H28.53c-.84,0-1.19-.59-.94-1.19L40.79,12.3a1.12,1.12,0,0,1,1.94,0L55.92,46.16A.85.85,0,0,1,55,47.35H49a1,1,0,0,1-.94-.59v.05l-1.35-3.44Zm8-6L43,32.17a38,38,0,0,1-1.2-4.84,37.36,37.36,0,0,1-1.24,4.84l-1.8,5.17Z"/><path class="cls-1" d="M90.33,47.35H84.76a1.29,1.29,0,0,1-.85-.34L69.37,26.19V46.51a1,1,0,0,1-1.05.84H62.75a1,1,0,0,1-1-.84V13.39a1,1,0,0,1,1-.9h5.62a1.25,1.25,0,0,1,.85.35c5,7.17,9.56,13.55,14.59,20.77V13.39a1,1,0,0,1,1-.9h5.47a1,1,0,0,1,1,.9V46.51A1,1,0,0,1,90.33,47.35Z"/><path class="cls-1" d="M144.61,23.45c0,10.36-11.05,10.46-11.9,10.46h-4.38v12.7c0,.4-.35.84-1.05.84h-5.42a.94.94,0,0,1-1-.84V13.74a.92.92,0,0,1,1-.85h10.85C134.11,12.89,144.61,13.09,144.61,23.45Zm-7.47,0c0-3.24-3.73-3.44-4.43-3.44h-4.38v6.78h4.38C133.46,26.79,137.14,26.69,137.14,23.45Z"/><path class="cls-1" d="M185.35,30.07c0,8.82-5.78,17.73-17.13,17.73C156.71,47.8,151,38.89,151,30.07s5.67-17.68,17.18-17.68C179.57,12.39,185.35,21.26,185.35,30.07Zm-7.62.1c0-5.37-3.24-10.75-9.51-10.75s-9.51,5.38-9.51,10.75,3.18,10.61,9.51,10.61S177.73,35.5,177.73,30.17Z"/><path class="cls-1" d="M231.36,47.35h-5.48a1,1,0,0,1-1.09-.84V30.37l-7.52,15.09a1.4,1.4,0,0,1-.9.55h-5.23a1.31,1.31,0,0,1-.94-.55v0l-8.12-15.69V46.51a1,1,0,0,1-1.05.84h-5.57a.88.88,0,0,1-1-.84V13.34a.89.89,0,0,1,1-.9h5.67a1.39,1.39,0,0,1,1,.55L213.73,36.7,224.79,13a1.43,1.43,0,0,1,1-.55h5.57a1,1,0,0,1,1.1.9V46.51A1,1,0,0,1,231.36,47.35Z"/><path class="cls-1" d="M266.27,23.45c0,10.36-11.06,10.46-11.9,10.46H250v12.7c0,.4-.35.84-1.05.84h-5.43a.93.93,0,0,1-1-.84V13.74a.91.91,0,0,1,1-.85h10.86C255.76,12.89,266.27,13.09,266.27,23.45Zm-7.47,0c0-3.24-3.73-3.44-4.43-3.44H250v6.78h4.38C255.11,26.79,258.8,26.69,258.8,23.45Z"/><path class="cls-1" d="M271.25,5C274.19,3.38,277,1.89,280,.24c.65-.25,1.35-.34,1.5-.1l2.79,4.44c.15.34-.15.84-.55,1h.05l-8.87,4.63c-.69.25-1.44.3-1.64.05l-2.44-4.08C270.45,5.82,270.65,5.22,271.25,5Zm3.48,7.87h5.43a.94.94,0,0,1,1,.85V46.51a1,1,0,0,1-1,.84h-5.43a1,1,0,0,1-1-.84V13.74A1,1,0,0,1,274.73,12.89Z"/><path class="cls-1" d="M318.91,47.35h-5.58a1.29,1.29,0,0,1-.85-.34L297.94,26.19V46.51a1,1,0,0,1-1,.84h-5.58a1,1,0,0,1-1.05-.84V13.39a1,1,0,0,1,1.05-.9h5.62a1.25,1.25,0,0,1,.85.35c5,7.17,9.56,13.55,14.59,20.77V13.39a1,1,0,0,1,1.05-.9h5.48a1,1,0,0,1,1,.9V46.51A1,1,0,0,1,318.91,47.35Z"/></svg>