<svg id="Layer_1" data-name="Layer 1" xmlns="http://www.w3.org/2000/svg" viewBox="0 0 635.98 147.98"><defs><style>.cls-1{fill:#fff;}</style></defs><path class="cls-1" d="M86.26,123.39v4.46h8.06v2.5H86.26v4.55h9.29v2.49H83.48V120.9H95.27v2.49Z"/><path class="cls-1" d="M128.78,135.63v1.76h-6.94V125.86h2v9.77Z"/><path class="cls-1" d="M188.63,122.48l-1.15,2.45a9.84,9.84,0,0,0-4.84-1.54c-1.62,0-2.68.62-2.68,1.72,0,3.61,8.91,1.68,8.88,7.62,0,2.94-2.59,4.76-6.22,4.76a10.14,10.14,0,0,1-6.74-2.62l1.2-2.4a8.73,8.73,0,0,0,5.59,2.4c1.93,0,3.08-.73,3.08-2,0-3.68-8.9-1.63-8.9-7.5,0-2.82,2.42-4.59,6-4.59A10.68,10.68,0,0,1,188.63,122.48Z"/><path class="cls-1" d="M216.63,134.79l-1.1,2.6h-2l5.09-11.53h2l5,11.53h-2.08l-1.1-2.6Zm2.9-6.86-2.17,5.13h4.35Z"/><path class="cls-1" d="M251.76,137.39l-6.15-8.27v8.27h-2V125.86h1.91l6.19,8.29v-8.29h1.91v11.53Z"/><path class="cls-1" d="M277.44,127.6v9.79h-1.95V127.6h-3.64v-1.74h9.25v1.74Z"/><path class="cls-1" d="M309.84,131.63a6.12,6.12,0,1,1-6.12-5.82A5.91,5.91,0,0,1,309.84,131.63Zm-10.25,0a4.13,4.13,0,0,0,8.26,0,4.13,4.13,0,0,0-8.26,0Z"/><path class="cls-1" d="M373.58,137.39l0-12.32-5.21,10.6h-1.82l-5.21-10.6v12.32h-2.61V120.9H362l5.44,11,5.42-11h3.28v16.49Z"/><path class="cls-1" d="M405.36,127.6v3.12H411v1.75h-5.63v3.18h6.49v1.74h-8.44V125.86h8.24v1.74Z"/><path class="cls-1" d="M435.93,133.9a4.52,4.52,0,0,1-.53,0h-2.73v3.47h-1.95V125.86h4.68c3,0,4.65,1.43,4.65,3.94a3.72,3.72,0,0,1-2.39,3.74l2.59,3.85H438Zm-.53-1.73c1.78,0,2.8-.76,2.8-2.33s-1-2.24-2.8-2.24h-2.73v4.57Z"/><path class="cls-1" d="M468.63,127.59,467.49,129a4.51,4.51,0,0,0-3.21-1.46,4.06,4.06,0,1,0,0,8.12,4.74,4.74,0,0,0,3.21-1.36l1.16,1.28a6.54,6.54,0,0,1-4.47,1.9,5.84,5.84,0,1,1,.07-11.67A6.33,6.33,0,0,1,468.63,127.59Z"/><path class="cls-1" d="M488.68,134.79l-1.11,2.6h-2l5.1-11.53h2l5.05,11.53H495.6l-1.11-2.6Zm2.9-6.86-2.18,5.13h4.35Z"/><path class="cls-1" d="M520.44,125.86a5.77,5.77,0,1,1-.05,11.53h-4.68V125.86Zm-2.79,9.79h2.84a3.87,3.87,0,0,0,4-4,3.93,3.93,0,0,0-4-4h-2.76Z"/><path class="cls-1" d="M555.8,131.63a6.12,6.12,0,1,1-6.12-5.82A5.91,5.91,0,0,1,555.8,131.63Zm-10.26,0a4.14,4.14,0,0,0,4.16,4.1,4.09,4.09,0,1,0-4.16-4.1Z"/><path class="cls-1" d="M13.92,77a1.89,1.89,0,0,1,2-1.7H26.36a2,2,0,0,1,2,1.7c.19,4.05,3.48,6.13,7.16,6.13,3.86,0,7.16-2.55,7.16-6.41,0-4.24-3.86-6.79-7.16-7.07a26.18,26.18,0,0,1-10.27-2.26C18.07,64,13.92,57.93,13.92,49.82,13.92,36.91,24.47,29,35.5,29c11.87,0,21.2,8,21.39,19.69a2,2,0,0,1-2.07,1.6H44.55c-1,0-2.08-.94-2.08-1.6-.19-4-3.3-5.94-7-5.94-3.86,0-7.16,2.36-7.16,7.07,0,4.15,3.48,6.32,7.16,6.32A25.63,25.63,0,0,1,45.68,58.4c7.44,3.39,11.4,10.17,11.4,18.28,0,12.91-10.46,20.16-21.58,20.16C23.53,96.56,14.11,89.59,13.92,77Z"/><path class="cls-1" d="M102.31,88.36H83.47l-2.36,6.5v-.09a2,2,0,0,1-2,1.13H67.92c-1.6,0-2.26-1.13-1.79-2.26,8.1-20.73,16.87-43.35,25-64.08a2.13,2.13,0,0,1,3.68,0l25,64.08a1.63,1.63,0,0,1-1.7,2.26h-11.4a1.9,1.9,0,0,1-1.79-1.13v.09ZM87.24,77H98.55l-3.3-9.8A71.36,71.36,0,0,1,93,58a68.05,68.05,0,0,1-2.36,9.14Z"/><path class="cls-1" d="M186.85,94.3a1.83,1.83,0,0,1-2,1.6H174.31a2.38,2.38,0,0,1-1.6-.66C163.1,81.48,154.9,69.71,145.2,55.85V94.3a1.89,1.89,0,0,1-2,1.6H132.66a1.89,1.89,0,0,1-2-1.6V31.64a1.89,1.89,0,0,1,2-1.7h10.65a2.35,2.35,0,0,1,1.6.66c9.43,13.57,18.1,25.63,27.61,39.29V31.64a1.83,1.83,0,0,1,2-1.7h10.37a1.83,1.83,0,0,1,2,1.7Z"/><path class="cls-1" d="M287.59,50.67c0,19.6-20.92,19.79-22.52,19.79h-8.29v24a1.77,1.77,0,0,1-2,1.6H244.53a1.8,1.8,0,0,1-1.89-1.6V32.3a1.74,1.74,0,0,1,1.89-1.61h20.54C267.71,30.69,287.59,31.07,287.59,50.67Zm-14.13,0c0-6.12-7.07-6.5-8.39-6.5h-8.29V57h8.29C266.48,57,273.46,56.8,273.46,50.67Z"/><path class="cls-1" d="M364.68,63.2c0,16.68-10.93,33.55-32.42,33.55-21.77,0-32.51-16.87-32.51-33.55s10.74-33.45,32.51-33.45C353.75,29.75,364.68,46.52,364.68,63.2Zm-14.42.19c0-10.18-6.13-20.35-18-20.35s-18,10.17-18,20.35,6,20.07,18,20.07S350.26,73.47,350.26,63.39Z"/><path class="cls-1" d="M453.83,94.3a1.93,1.93,0,0,1-2.07,1.6H441.39a1.93,1.93,0,0,1-2.07-1.6V63.77c-4.71,9.52-9.52,19-14.23,28.55a2.63,2.63,0,0,1-1.7,1H413.5a2.5,2.5,0,0,1-1.79-1v.09L396.35,62.73V94.3a1.89,1.89,0,0,1-2,1.6H383.82a1.68,1.68,0,0,1-1.89-1.6V31.54a1.69,1.69,0,0,1,1.89-1.7h10.74a2.66,2.66,0,0,1,1.79,1l22,44.86,20.92-44.86a2.71,2.71,0,0,1,1.88-1h10.56a1.92,1.92,0,0,1,2.07,1.7Z"/><path class="cls-1" d="M517.82,50.67c0,19.6-20.92,19.79-22.52,19.79H487v24a1.77,1.77,0,0,1-2,1.6H474.76a1.8,1.8,0,0,1-1.89-1.6V32.3a1.74,1.74,0,0,1,1.89-1.61H495.3C497.94,30.69,517.82,31.07,517.82,50.67Zm-14.13,0c0-6.12-7.07-6.5-8.39-6.5H487V57h8.29C496.71,57,503.69,56.8,503.69,50.67Z"/><path class="cls-1" d="M526.5,18.07c-.76-.76-.38-1.89.75-2.27,5.56-3.11,10.93-5.93,16.59-9,1.22-.47,2.54-.66,2.82-.19L551.94,15a1.78,1.78,0,0,1-1,2h.1L534.22,25.7c-1.32.47-2.73.56-3.11.09Zm5.37,14.23a1.83,1.83,0,0,1,2-1.61h10.27a1.77,1.77,0,0,1,2,1.61v62a1.83,1.83,0,0,1-2,1.6H533.85a1.89,1.89,0,0,1-2-1.6Z"/><path class="cls-1" d="M619.41,94.3a1.82,1.82,0,0,1-2,1.6H606.88a2.35,2.35,0,0,1-1.6-.66c-9.61-13.76-17.81-25.53-27.52-39.39V94.3a1.89,1.89,0,0,1-2,1.6H565.23a1.89,1.89,0,0,1-2-1.6V31.64a1.89,1.89,0,0,1,2-1.7h10.65a2.38,2.38,0,0,1,1.6.66c9.42,13.57,18.09,25.63,27.61,39.29V31.64a1.83,1.83,0,0,1,2-1.7h10.36a1.83,1.83,0,0,1,2,1.7Z"/></svg>