<svg id="Layer_1" data-name="Layer 1" xmlns="http://www.w3.org/2000/svg" viewBox="0 0 285.03 287.91"><defs><style>.cls-1,.cls-2,.cls-3,.cls-4,.cls-5,.cls-6,.cls-7,.cls-8{fill:#fd5f08;}.cls-1,.cls-23,.cls-9{opacity:0.9;}.cls-10,.cls-18,.cls-2{opacity:0.3;}.cls-17,.cls-3{opacity:0.2;}.cls-13,.cls-22,.cls-4{opacity:0.6;}.cls-11,.cls-24,.cls-5{opacity:0.8;}.cls-12,.cls-21,.cls-6{opacity:0.7;}.cls-15,.cls-20,.cls-7{opacity:0.4;}.cls-14,.cls-19,.cls-8{opacity:0.5;}.cls-10,.cls-11,.cls-12,.cls-13,.cls-14,.cls-15,.cls-9{fill:#b0075a;}.cls-16{fill:#fff;}.cls-17,.cls-18,.cls-19,.cls-20,.cls-21,.cls-22,.cls-23,.cls-24{fill:#e5bd43;}.cls-25{fill:#08231a;}.cls-26{fill:none;}.cls-27{fill:#254e35;}.cls-28{fill:#53733b;}.cls-29{fill:#a7c05f;}</style></defs><path class="cls-1" d="M242.1,182.49a150.16,150.16,0,0,1,19.35,26.35,150.27,150.27,0,0,1-26.1,33.25c.82-2.63,1.6-5.35,2.32-8.16A158.64,158.64,0,0,0,242.1,182.49Z"/><path class="cls-2" d="M47.48,159.58c-1,23-9.19,54.87-18.29,83.92a150,150,0,0,1-27.6-34.66,150.12,150.12,0,0,1,21.3-28.43h0A150.16,150.16,0,0,1,47.48,159.58Z"/><path class="cls-3" d="M65.54,149.1a139.56,139.56,0,0,1,7,68A138.26,138.26,0,0,1,56.6,263.81q-5.61-3.22-10.9-6.94A148.38,148.38,0,0,1,29.19,243.5c9.1-29.05,17.33-60.92,18.29-83.92q2.1-1.43,4.25-2.78A147.52,147.52,0,0,1,65.54,149.1Z"/><path class="cls-4" d="M123.92,134a159.37,159.37,0,0,1,12.76,46.18c1.63,14.1.72,23.5-3.66,80.15-.68,8.82-1.29,16.76-1.8,23.48l-2.55,0a149.75,149.75,0,0,1-46.46-8.26,213.92,213.92,0,0,0,22.12-74.16,213.4,213.4,0,0,0-2.88-64.53,148,148,0,0,1,16.14-2.38C119.69,134.28,121.8,134.14,123.92,134Z"/><path class="cls-5" d="M153.84,135.49a149.23,149.23,0,0,1,57.08,21.07c1.55,5.79,2.62,11,3.38,15.49a148.94,148.94,0,0,1,2,40.22A140.84,140.84,0,0,1,205,256.43c-1.81,4.08-3.73,7.82-5.64,11.21q-4.38,2.24-8.91,4.17a148.34,148.34,0,0,1-34.05,10,147.33,147.33,0,0,0,12.41-33.51c6.6-27.76,3.32-50,1.5-61.5A175.62,175.62,0,0,0,153.84,135.49Z"/><path class="cls-6" d="M210.92,156.56a150.3,150.3,0,0,1,31.18,25.93,158.64,158.64,0,0,1-4.43,51.44c-.72,2.81-1.5,5.53-2.32,8.16a150.08,150.08,0,0,1-15.09,12.69,147.57,147.57,0,0,1-20.88,12.86c1.91-3.39,3.83-7.13,5.64-11.21a140.84,140.84,0,0,0,11.25-44.16,148.94,148.94,0,0,0-2-40.22C213.54,167.57,212.47,162.35,210.92,156.56Z"/><path class="cls-7" d="M101.45,136.86a213.4,213.4,0,0,1,2.88,64.53,213.92,213.92,0,0,1-22.12,74.16c-4-1.4-7.93-2.95-11.76-4.67a146.53,146.53,0,0,1-13.85-7.07,138.26,138.26,0,0,0,15.95-46.76,139.56,139.56,0,0,0-7-68,148,148,0,0,1,35.91-12.24Z"/><path class="cls-8" d="M131.52,133.84q6.14,0,12.16.49,5.13.4,10.15,1.16h0a175.62,175.62,0,0,1,16.49,51.28c1.82,11.5,5.1,33.74-1.5,61.5a147.33,147.33,0,0,1-12.41,33.51c-2.23.38-4.47.7-6.74,1a151.12,151.12,0,0,1-18.16,1.09h-.3c.51-6.72,1.12-14.66,1.8-23.48,4.38-56.65,5.29-66.05,3.66-80.15A159.37,159.37,0,0,0,123.92,134Q127.7,133.84,131.52,133.84Z"/><path class="cls-9" d="M206.52,3.91a150,150,0,0,0,0,259.86,150,150,0,0,0,0-259.86Zm0,251.2a140,140,0,0,1,0-242.54,140,140,0,0,1,0,242.54Z"/><path class="cls-10" d="M206.52,12.57a140,140,0,0,0,0,242.54,140,140,0,0,0,0-242.54Zm0,233.88a130,130,0,0,1,0-225.22,130,130,0,0,1,0,225.22Z"/><path class="cls-11" d="M206.52,21.23a130,130,0,0,0,0,225.22,130,130,0,0,0,0-225.22Zm0,216.55a120,120,0,0,1,0-207.88,120,120,0,0,1,0,207.88Z"/><path class="cls-10" d="M206.52,29.9a120,120,0,0,0,0,207.88,120,120,0,0,0,0-207.88Zm0,199.22a110,110,0,0,1,0-190.56,110,110,0,0,1,0,190.56Z"/><path class="cls-12" d="M206.52,38.56a110,110,0,0,0,0,190.56,110,110,0,0,0,0-190.56Zm0,181.9a100,100,0,0,1,0-173.24,100,100,0,0,1,0,173.24Z"/><path class="cls-10" d="M206.52,47.22a100,100,0,0,0,0,173.24,100,100,0,0,0,0-173.24Zm0,164.58a90,90,0,0,1,0-155.92,90,90,0,0,1,0,155.92Z"/><path class="cls-13" d="M206.52,55.88a90,90,0,0,0,0,155.92,90,90,0,0,0,0-155.92Zm0,147.26a80,80,0,0,1,0-138.6,80,80,0,0,1,0,138.6Z"/><path class="cls-10" d="M206.52,64.54a80,80,0,0,0,0,138.6,80,80,0,0,0,0-138.6Zm0,129.93a70,70,0,0,1,0-121.26,70,70,0,0,1,0,121.26Z"/><path class="cls-14" d="M206.52,73.21a70,70,0,0,0,0,121.26,70,70,0,0,0,0-121.26Zm0,112.6a60,60,0,0,1,0-103.94,60,60,0,0,1,0,103.94Z"/><path class="cls-10" d="M206.52,81.87a60,60,0,0,0,0,103.94,60,60,0,0,0,0-103.94Zm0,95.28a50,50,0,0,1,0-86.62,50,50,0,0,1,0,86.62Z"/><path class="cls-15" d="M231.52,133.84a50,50,0,0,1-25,43.31,50,50,0,0,1,0-86.62A50,50,0,0,1,231.52,133.84Z"/><path class="cls-16" d="M198.76,95A149.94,149.94,0,0,1,237.6,239.91,150.05,150.05,0,0,1,53.85,56.16,149.9,149.9,0,0,1,198.76,95Z"/><path class="cls-17" d="M53.84,56.16a237.4,237.4,0,0,0,7.27,29.46L48.79,97.94A149.93,149.93,0,0,1,53.84,56.16Z"/><path class="cls-18" d="M95.63,51.1,83.31,63.42a235.47,235.47,0,0,0-29.47-7.26A150.34,150.34,0,0,1,95.63,51.1Z"/><path class="cls-19" d="M61.11,85.62a227.89,227.89,0,0,0,10.26,26.49L53,130.49a150.37,150.37,0,0,1-4.2-32.55Z"/><path class="cls-20" d="M128.17,55.31,109.8,73.68A229.28,229.28,0,0,0,83.31,63.42L95.63,51.1A150.29,150.29,0,0,1,128.17,55.31Z"/><path class="cls-21" d="M155.45,64.79,133.71,86.53A219.14,219.14,0,0,0,109.8,73.68l18.37-18.37A148.72,148.72,0,0,1,155.45,64.79Z"/><path class="cls-22" d="M71.37,112.11A219.14,219.14,0,0,0,84.22,136L62.48,157.77A148,148,0,0,1,53,130.49Z"/><path class="cls-21" d="M84.22,136c3,4.94,6.41,9.92,10.07,14.88,1.68,2.28,3.4,4.5,5.13,6.67L75.9,181.1a147.83,147.83,0,0,1-13.42-23.33Z"/><path class="cls-22" d="M178.78,78.22l-23.52,23.51c-2.17-1.73-4.39-3.45-6.67-5.13q-7.46-5.49-14.88-10.07l21.74-21.74A147.89,147.89,0,0,1,178.78,78.22Z"/><path class="cls-21" d="M198.75,95l-24.17,24.17a219,219,0,0,0-19.32-17.44l23.52-23.51A150,150,0,0,1,198.75,95Z"/><path class="cls-22" d="M99.42,157.57a218.67,218.67,0,0,0,17.44,19.32L92.68,201.07a151.27,151.27,0,0,1-16.78-20Z"/><path class="cls-21" d="M136.48,194l-23.83,23.83a152.12,152.12,0,0,1-20-16.79l24.18-24.18A223.52,223.52,0,0,0,136.48,194Z"/><path class="cls-22" d="M198.75,95a150.58,150.58,0,0,1,16.79,20l-23.83,23.82a223.37,223.37,0,0,0-17.13-19.62Z"/><path class="cls-21" d="M215.54,115A147.48,147.48,0,0,1,229,138.31l-22.28,22.28a229.52,229.52,0,0,0-15-21.8Z"/><path class="cls-22" d="M158.28,209,136,231.28a148.71,148.71,0,0,1-23.34-13.42L136.48,194A229.37,229.37,0,0,0,158.28,209Z"/><path class="cls-21" d="M182.27,221.74l-19,19A148.63,148.63,0,0,1,136,231.28L158.28,209A239.27,239.27,0,0,0,182.27,221.74Z"/><path class="cls-22" d="M229,138.31a148.37,148.37,0,0,1,9.48,27.27l-19,19a238.18,238.18,0,0,0-12.75-24Z"/><path class="cls-19" d="M238.44,165.58a149.67,149.67,0,0,1,4.21,32.54l-12.79,12.79a247.71,247.71,0,0,0-10.43-26.32Z"/><path class="cls-20" d="M208.6,232.17,195.81,245a151.08,151.08,0,0,1-32.55-4.21l19-19A248.66,248.66,0,0,0,208.6,232.17Z"/><path class="cls-18" d="M237.59,239.91A150.31,150.31,0,0,1,195.81,245l12.79-12.8A242.46,242.46,0,0,0,237.59,239.91Z"/><path class="cls-17" d="M242.65,198.12a150.34,150.34,0,0,1-5.06,41.79,242.47,242.47,0,0,0-7.73-29Z"/><path class="cls-21" d="M90.58,92.9,109,111.28,84.22,136a219.14,219.14,0,0,1-12.85-23.91Z"/><path class="cls-23" d="M127.34,129.66,145.72,148l-28.86,28.85a218.67,218.67,0,0,1-17.44-19.32Z"/><path class="cls-23" d="M164.1,166.41l18.37,18.38L158.28,209a229.37,229.37,0,0,1-21.8-15Z"/><path class="cls-19" d="M200.85,203.17l18.38,18.38L208.6,232.17a248.66,248.66,0,0,1-26.33-10.43Z"/><path class="cls-17" d="M219.23,221.55l18.36,18.36a242.46,242.46,0,0,1-29-7.74Z"/><path class="cls-17" d="M83.31,63.42l-11.1,11.1L53.84,56.16A235.47,235.47,0,0,1,83.31,63.42Z"/><path class="cls-19" d="M109.8,73.68,90.58,92.9,72.21,74.52l11.1-11.1A229.28,229.28,0,0,1,109.8,73.68Z"/><path class="cls-23" d="M155.26,101.73l-27.92,27.93L109,111.28l24.75-24.75q7.41,4.57,14.88,10.07C150.87,98.28,153.09,100,155.26,101.73Z"/><path class="cls-23" d="M174.58,119.17a223.37,223.37,0,0,1,17.13,19.62L164.1,166.41,145.72,148Z"/><path class="cls-21" d="M206.68,160.59a238.18,238.18,0,0,1,12.75,24l-18.58,18.58-18.38-18.38Z"/><path class="cls-18" d="M229.86,210.91a242.47,242.47,0,0,1,7.73,29l-18.36-18.36Z"/><path class="cls-18" d="M53.84,56.16,72.21,74.52l-11.1,11.1A237.4,237.4,0,0,1,53.84,56.16Z"/><path class="cls-20" d="M72.21,74.52,90.58,92.9,71.37,112.11A227.89,227.89,0,0,1,61.11,85.62Z"/><path class="cls-22" d="M133.71,86.53,109,111.28,90.58,92.9,109.8,73.68A219.14,219.14,0,0,1,133.71,86.53Z"/><path class="cls-24" d="M109,111.28l18.38,18.38L99.42,157.57c-1.73-2.17-3.45-4.39-5.13-6.67-3.66-5-7-9.94-10.07-14.88Z"/><path class="cls-24" d="M174.58,119.17,145.72,148l-18.38-18.38,27.92-27.93A219,219,0,0,1,174.58,119.17Z"/><path class="cls-24" d="M145.72,148l18.38,18.37L136.48,194a223.52,223.52,0,0,1-19.62-17.14Z"/><path class="cls-24" d="M191.71,138.79a229.52,229.52,0,0,1,15,21.8l-24.21,24.2L164.1,166.41Z"/><path class="cls-22" d="M182.47,184.79l18.38,18.38-18.58,18.57a239.27,239.27,0,0,1-24-12.75Z"/><path class="cls-20" d="M219.43,184.59a247.71,247.71,0,0,1,10.43,26.32l-10.63,10.64-18.38-18.38Z"/><path class="cls-25" d="M237.59,239.91A149.93,149.93,0,0,1,92.68,278.75,159.2,159.2,0,0,0,168,270.24c39.39-14.62,61.29-40.85,69.47-50.92C278,169.51,277.26,111.78,276.43,95A149.93,149.93,0,0,1,237.59,239.91Z"/><path class="cls-26" d="M126.91,201.57c-11.35,14.44-26.6,38.92-34.23,77.18A150,150,0,0,1,276.43,95c-15,9.23-36,22.39-61,38.68C148.56,177.42,136.19,189.76,126.91,201.57Z"/><path class="cls-27" d="M168,270.24a159.2,159.2,0,0,1-75.33,8.51,387.28,387.28,0,0,1,81.43-49.61c32.93-14.84,47.55-15.84,64.17-29.7C255.85,184.79,275,156.31,276.43,95c.83,16.78,1.58,74.51-39,124.32C229.3,229.39,207.4,255.62,168,270.24Z"/><path class="cls-28" d="M238.28,199.44c-16.62,13.86-31.24,14.86-64.17,29.7a387.28,387.28,0,0,0-81.43,49.61c17-48.08,41.33-71.67,61-84.35,14.41-9.27,28.48-14.07,42.05-18.71,19.26-6.59,37.54-12.85,54.47-31.14,15.65-16.9,22.71-36.06,26.22-49.55C275,156.31,255.85,184.79,238.28,199.44Z"/><path class="cls-29" d="M153.69,194.4c-19.68,12.68-44,36.27-61,84.35,7.63-38.26,22.88-62.74,34.23-77.18,9.28-11.81,21.65-24.15,88.57-67.89,24.91-16.29,46-29.45,61-38.68-3.51,13.49-10.57,32.65-26.22,49.55-16.93,18.29-35.21,24.55-54.47,31.14C182.17,180.33,168.1,185.13,153.69,194.4Z"/></svg>