<svg width="90" height="104" viewBox="0 0 90 104" fill="none" xmlns="http://www.w3.org/2000/svg">
<rect y="29.9" width="90" height="74.1" fill="#E6E6E6"/>
<path d="M20.0441 89.732H15.1441L14.1781 92H12.3021L16.7121 82.2H18.5041L22.9281 92H21.0241L20.0441 89.732ZM19.4421 88.304L17.5941 84.02L15.7601 88.304H19.4421ZM28.432 91.594C28.2267 91.762 27.9747 91.888 27.676 91.972C27.3867 92.056 27.0787 92.098 26.752 92.098C25.9307 92.098 25.296 91.8833 24.848 91.454C24.4 91.0247 24.176 90.3993 24.176 89.578V85.98H22.944V84.58H24.176V82.872H25.926V84.58H27.928V85.98H25.926V89.536C25.926 89.9 26.0147 90.18 26.192 90.376C26.3694 90.5627 26.626 90.656 26.962 90.656C27.354 90.656 27.6807 90.5533 27.942 90.348L28.432 91.594ZM36.6535 88.304C36.6535 88.4253 36.6442 88.598 36.6255 88.822H30.7595C30.8622 89.3727 31.1282 89.8113 31.5575 90.138C31.9962 90.4553 32.5375 90.614 33.1815 90.614C34.0029 90.614 34.6795 90.3433 35.2115 89.802L36.1495 90.88C35.8135 91.2813 35.3889 91.5847 34.8755 91.79C34.3622 91.9953 33.7835 92.098 33.1395 92.098C32.3182 92.098 31.5949 91.9347 30.9695 91.608C30.3442 91.2813 29.8589 90.8287 29.5135 90.25C29.1775 89.662 29.0095 88.9993 29.0095 88.262C29.0095 87.534 29.1729 86.8807 29.4995 86.302C29.8355 85.714 30.2975 85.2567 30.8855 84.93C31.4735 84.6033 32.1362 84.44 32.8735 84.44C33.6015 84.44 34.2502 84.6033 34.8195 84.93C35.3982 85.2473 35.8462 85.7 36.1635 86.288C36.4902 86.8667 36.6535 87.5387 36.6535 88.304ZM32.8735 85.84C32.3135 85.84 31.8375 86.008 31.4455 86.344C31.0629 86.6707 30.8295 87.1093 30.7455 87.66H34.9875C34.9129 87.1187 34.6842 86.68 34.3015 86.344C33.9189 86.008 33.4429 85.84 32.8735 85.84ZM42.5765 84.44C43.5192 84.44 44.2752 84.7153 44.8445 85.266C45.4139 85.8167 45.6985 86.6333 45.6985 87.716V92H43.9485V87.94C43.9485 87.2867 43.7945 86.7967 43.4865 86.47C43.1785 86.134 42.7399 85.966 42.1705 85.966C41.5265 85.966 41.0179 86.162 40.6445 86.554C40.2712 86.9367 40.0845 87.492 40.0845 88.22V92H38.3345V84.524H40.0005V85.49C40.2899 85.1447 40.6539 84.8833 41.0925 84.706C41.5312 84.5287 42.0259 84.44 42.5765 84.44ZM51.4169 92.098C50.6422 92.098 49.9469 91.9347 49.3309 91.608C48.7149 91.2813 48.2342 90.8287 47.8889 90.25C47.5435 89.662 47.3709 88.9993 47.3709 88.262C47.3709 87.5247 47.5435 86.8667 47.8889 86.288C48.2342 85.7093 48.7102 85.2567 49.3169 84.93C49.9329 84.6033 50.6329 84.44 51.4169 84.44C52.1542 84.44 52.7982 84.5893 53.3489 84.888C53.9089 85.1867 54.3289 85.616 54.6089 86.176L53.2649 86.96C53.0502 86.6147 52.7795 86.358 52.4529 86.19C52.1355 86.0127 51.7855 85.924 51.4029 85.924C50.7495 85.924 50.2082 86.1387 49.7789 86.568C49.3495 86.988 49.1349 87.5527 49.1349 88.262C49.1349 88.9713 49.3449 89.5407 49.7649 89.97C50.1942 90.39 50.7402 90.6 51.4029 90.6C51.7855 90.6 52.1355 90.516 52.4529 90.348C52.7795 90.1707 53.0502 89.9093 53.2649 89.564L54.6089 90.348C54.3195 90.908 53.8949 91.342 53.3349 91.65C52.7842 91.9487 52.1449 92.098 51.4169 92.098ZM56.1216 84.524H57.8716V92H56.1216V84.524ZM57.0036 83.292C56.6863 83.292 56.4203 83.194 56.2056 82.998C55.991 82.7927 55.8836 82.5407 55.8836 82.242C55.8836 81.9433 55.991 81.696 56.2056 81.5C56.4203 81.2947 56.6863 81.192 57.0036 81.192C57.321 81.192 57.587 81.29 57.8016 81.486C58.0163 81.6727 58.1236 81.9107 58.1236 82.2C58.1236 82.508 58.0163 82.7693 57.8016 82.984C57.5963 83.1893 57.3303 83.292 57.0036 83.292ZM63.5285 92.098C62.7725 92.098 62.0912 91.9347 61.4845 91.608C60.8778 91.2813 60.4018 90.8287 60.0565 90.25C59.7205 89.662 59.5525 88.9993 59.5525 88.262C59.5525 87.5247 59.7205 86.8667 60.0565 86.288C60.4018 85.7093 60.8778 85.2567 61.4845 84.93C62.0912 84.6033 62.7725 84.44 63.5285 84.44C64.2938 84.44 64.9798 84.6033 65.5865 84.93C66.1932 85.2567 66.6645 85.7093 67.0005 86.288C67.3458 86.8667 67.5185 87.5247 67.5185 88.262C67.5185 88.9993 67.3458 89.662 67.0005 90.25C66.6645 90.8287 66.1932 91.2813 65.5865 91.608C64.9798 91.9347 64.2938 92.098 63.5285 92.098ZM63.5285 90.6C64.1725 90.6 64.7045 90.3853 65.1245 89.956C65.5445 89.5267 65.7545 88.962 65.7545 88.262C65.7545 87.562 65.5445 86.9973 65.1245 86.568C64.7045 86.1387 64.1725 85.924 63.5285 85.924C62.8845 85.924 62.3525 86.1387 61.9325 86.568C61.5218 86.9973 61.3165 87.562 61.3165 88.262C61.3165 88.962 61.5218 89.5267 61.9325 89.956C62.3525 90.3853 62.8845 90.6 63.5285 90.6ZM64.2285 81.584H66.2865L63.8505 83.502H62.3385L64.2285 81.584ZM73.4339 84.44C74.3766 84.44 75.1326 84.7153 75.7019 85.266C76.2713 85.8167 76.5559 86.6333 76.5559 87.716V92H74.8059V87.94C74.8059 87.2867 74.6519 86.7967 74.3439 86.47C74.0359 86.134 73.5973 85.966 73.0279 85.966C72.3839 85.966 71.8753 86.162 71.5019 86.554C71.1286 86.9367 70.9419 87.492 70.9419 88.22V92H69.1919V84.524H70.8579V85.49C71.1473 85.1447 71.5113 84.8833 71.9499 84.706C72.3886 84.5287 72.8833 84.44 73.4339 84.44Z" fill="black"/>
<path d="M66.7967 29.1127C66.4591 29.1043 66.1383 28.9642 65.9026 28.7225C65.6669 28.4807 65.535 28.1564 65.5351 27.8188C65.5351 25.6948 65.1168 23.5917 64.304 21.6294C63.4911 19.6671 62.2998 17.8841 60.7979 16.3822C59.2961 14.8804 57.5131 13.689 55.5508 12.8762C53.5885 12.0634 51.4853 11.645 49.3613 11.645H43.3771C39.0875 11.645 34.9737 13.3491 31.9405 16.3822C28.9073 19.4154 27.2033 23.5293 27.2033 27.8188C27.2033 28.162 27.067 28.4911 26.8243 28.7337C26.5817 28.9764 26.2526 29.1127 25.9094 29.1127C25.5662 29.1127 25.2371 28.9764 24.9945 28.7337C24.7518 28.4911 24.6155 28.162 24.6155 27.8188C24.6068 22.8253 26.5756 18.0316 30.0913 14.4855C33.607 10.9395 38.3837 8.9297 43.3771 8.89551H49.232C54.2309 8.90406 59.0227 10.8937 62.5576 14.4285C66.0924 17.9633 68.082 22.7551 68.0906 27.7541C68.0993 27.9294 68.0724 28.1046 68.0113 28.2691C67.9502 28.4337 67.8563 28.5841 67.7352 28.7111C67.6142 28.8382 67.4686 28.9394 67.3072 29.0084C67.1459 29.0774 66.9722 29.1129 66.7967 29.1127Z" fill="black"/>
<path d="M66.2145 50.6885H62.0093C61.8409 50.6886 61.6741 50.6549 61.5189 50.5895C61.3637 50.5241 61.2232 50.4282 61.1056 50.3076C60.988 50.187 60.8958 50.0441 60.8343 49.8873C60.7729 49.7305 60.7434 49.563 60.7477 49.3946V28.0776C60.7434 27.9092 60.7729 27.7417 60.8343 27.5849C60.8958 27.4281 60.988 27.2851 61.1056 27.1646C61.2232 27.044 61.3637 26.9481 61.5189 26.8827C61.6741 26.8173 61.8409 26.7836 62.0093 26.7837H66.2145C69.2574 26.7922 72.1733 28.0048 74.325 30.1565C76.4767 32.3082 77.6893 35.2241 77.6978 38.2671V39.2051C77.6893 42.2481 76.4767 45.164 74.325 47.3157C72.1733 49.4674 69.2574 50.68 66.2145 50.6885ZM63.3032 48.1331H66.2145C68.5767 48.1245 70.8392 47.1801 72.5065 45.5067C74.1739 43.8333 75.11 41.5674 75.11 39.2051V38.2671C75.11 35.9078 74.1728 33.6452 72.5046 31.9769C70.8363 30.3087 68.5737 29.3715 66.2145 29.3715H63.3032V48.1331Z" fill="black"/>
<path d="M31.635 50.6885H27.4621C24.4165 50.6885 21.4957 49.4787 19.3422 47.3251C17.1886 45.1716 15.9788 42.2507 15.9788 39.2051V38.2671C15.9873 35.2241 17.1999 32.3082 19.3516 30.1565C21.5033 28.0048 24.4192 26.7922 27.4621 26.7837H31.635C31.9781 26.7837 32.3072 26.92 32.5499 27.1627C32.7925 27.4053 32.9289 27.7344 32.9289 28.0776V49.3946C32.9289 49.7378 32.7925 50.0669 32.5499 50.3095C32.3072 50.5522 31.9781 50.6885 31.635 50.6885ZM27.4621 29.3715C26.287 29.363 25.1217 29.5865 24.0332 30.0294C22.9446 30.4722 21.9542 31.1256 21.1187 31.952C20.2833 32.7785 19.6192 33.7618 19.1646 34.8454C18.7099 35.9291 18.4737 37.0919 18.4695 38.2671V39.2051C18.478 41.5703 19.4214 43.8362 21.0939 45.5087C22.7663 47.1812 25.0322 48.1245 27.3974 48.1331H30.3087V29.3715H27.4621Z" fill="black"/>
<path d="M49.5554 61.1367C48.5389 61.1335 47.5235 61.0687 46.5147 60.9426C46.2031 60.9105 45.9145 60.7635 45.7052 60.5303C45.4959 60.2971 45.3809 59.9944 45.3826 59.6811V54.9907C45.3826 54.6475 45.5189 54.3184 45.7616 54.0758C46.0042 53.8331 46.3333 53.6968 46.6765 53.6968H48.1321C48.4753 53.6968 48.8044 53.8331 49.0471 54.0758C49.2897 54.3184 49.426 54.6475 49.426 54.9907V58.2254C49.426 58.2254 49.426 58.4195 49.426 58.5166C52.3235 58.688 55.1883 57.8286 57.5129 56.0905C59.3195 54.503 60.4722 52.3013 60.7477 49.9121C60.7558 49.7435 60.7977 49.5782 60.8709 49.426C60.9441 49.2739 61.0471 49.138 61.1738 49.0264C61.3005 48.9147 61.4483 48.8297 61.6085 48.7763C61.7687 48.7228 61.9379 48.7021 62.1062 48.7153C62.4438 48.7402 62.7582 48.8964 62.9819 49.1504C63.2056 49.4043 63.3209 49.7359 63.3031 50.0739C63.0173 53.2281 61.5219 56.1492 59.1303 58.2254C56.3896 60.3098 52.9925 61.3427 49.5554 61.1367Z" fill="black"/>
</svg>
