<svg width="90" height="104" viewBox="0 0 90 104" fill="none" xmlns="http://www.w3.org/2000/svg">
<rect y="29.9" width="90" height="74.1" fill="#E6E6E6"/>
<path d="M28.2681 82.2V92H26.4481V87.8H21.3801V92H19.5601V82.2H21.3801V86.246H26.4481V82.2H28.2681ZM34.0861 92.098C33.3301 92.098 32.6488 91.9347 32.0421 91.608C31.4355 91.2813 30.9595 90.8287 30.6141 90.25C30.2781 89.662 30.1101 88.9993 30.1101 88.262C30.1101 87.5247 30.2781 86.8667 30.6141 86.288C30.9595 85.7093 31.4355 85.2567 32.0421 84.93C32.6488 84.6033 33.3301 84.44 34.0861 84.44C34.8515 84.44 35.5375 84.6033 36.1441 84.93C36.7508 85.2567 37.2221 85.7093 37.5581 86.288C37.9035 86.8667 38.0761 87.5247 38.0761 88.262C38.0761 88.9993 37.9035 89.662 37.5581 90.25C37.2221 90.8287 36.7508 91.2813 36.1441 91.608C35.5375 91.9347 34.8515 92.098 34.0861 92.098ZM34.0861 90.6C34.7301 90.6 35.2621 90.3853 35.6821 89.956C36.1021 89.5267 36.3121 88.962 36.3121 88.262C36.3121 87.562 36.1021 86.9973 35.6821 86.568C35.2621 86.1387 34.7301 85.924 34.0861 85.924C33.4421 85.924 32.9101 86.1387 32.4901 86.568C32.0795 86.9973 31.8741 87.562 31.8741 88.262C31.8741 88.962 32.0795 89.5267 32.4901 89.956C32.9101 90.3853 33.4421 90.6 34.0861 90.6ZM41.4156 85.616C41.9196 84.832 42.8062 84.44 44.0756 84.44V86.106C43.9262 86.078 43.7909 86.064 43.6696 86.064C42.9882 86.064 42.4562 86.2647 42.0736 86.666C41.6909 87.058 41.4996 87.6273 41.4996 88.374V92H39.7496V84.524H41.4156V85.616ZM48.3751 84.44C49.4764 84.44 50.3164 84.706 50.8951 85.238C51.4831 85.7607 51.7771 86.554 51.7771 87.618V92H50.1251V91.09C49.9104 91.4167 49.6024 91.6687 49.2011 91.846C48.8091 92.014 48.3331 92.098 47.7731 92.098C47.2131 92.098 46.7231 92.0047 46.3031 91.818C45.8831 91.622 45.5564 91.356 45.3231 91.02C45.0991 90.6747 44.9871 90.2873 44.9871 89.858C44.9871 89.186 45.2344 88.6493 45.7291 88.248C46.2331 87.8373 47.0218 87.632 48.0951 87.632H50.0271V87.52C50.0271 86.9973 49.8684 86.596 49.5511 86.316C49.2431 86.036 48.7811 85.896 48.1651 85.896C47.7451 85.896 47.3298 85.9613 46.9191 86.092C46.5178 86.2227 46.1771 86.4047 45.8971 86.638L45.2111 85.364C45.6031 85.0653 46.0744 84.8367 46.6251 84.678C47.1758 84.5193 47.7591 84.44 48.3751 84.44ZM48.1371 90.824C48.5758 90.824 48.9631 90.726 49.2991 90.53C49.6444 90.3247 49.8871 90.0353 50.0271 89.662V88.794H48.2211C47.2131 88.794 46.7091 89.1253 46.7091 89.788C46.7091 90.1053 46.8351 90.3573 47.0871 90.544C47.3391 90.7307 47.6891 90.824 48.1371 90.824ZM55.689 85.616C56.193 84.832 57.0797 84.44 58.349 84.44V86.106C58.1997 86.078 58.0643 86.064 57.943 86.064C57.2617 86.064 56.7297 86.2647 56.347 86.666C55.9643 87.058 55.773 87.6273 55.773 88.374V92H54.023V84.524H55.689V85.616ZM59.8335 84.524H61.5835V92H59.8335V84.524ZM60.7155 83.292C60.3982 83.292 60.1322 83.194 59.9175 82.998C59.7029 82.7927 59.5955 82.5407 59.5955 82.242C59.5955 81.9433 59.7029 81.696 59.9175 81.5C60.1322 81.2947 60.3982 81.192 60.7155 81.192C61.0329 81.192 61.2989 81.29 61.5135 81.486C61.7282 81.6727 61.8355 81.9107 61.8355 82.2C61.8355 82.508 61.7282 82.7693 61.5135 82.984C61.3082 83.1893 61.0422 83.292 60.7155 83.292ZM67.2404 92.098C66.4844 92.098 65.8031 91.9347 65.1964 91.608C64.5898 91.2813 64.1138 90.8287 63.7684 90.25C63.4324 89.662 63.2644 88.9993 63.2644 88.262C63.2644 87.5247 63.4324 86.8667 63.7684 86.288C64.1138 85.7093 64.5898 85.2567 65.1964 84.93C65.8031 84.6033 66.4844 84.44 67.2404 84.44C68.0058 84.44 68.6918 84.6033 69.2984 84.93C69.9051 85.2567 70.3764 85.7093 70.7124 86.288C71.0578 86.8667 71.2304 87.5247 71.2304 88.262C71.2304 88.9993 71.0578 89.662 70.7124 90.25C70.3764 90.8287 69.9051 91.2813 69.2984 91.608C68.6918 91.9347 68.0058 92.098 67.2404 92.098ZM67.2404 90.6C67.8844 90.6 68.4164 90.3853 68.8364 89.956C69.2564 89.5267 69.4664 88.962 69.4664 88.262C69.4664 87.562 69.2564 86.9973 68.8364 86.568C68.4164 86.1387 67.8844 85.924 67.2404 85.924C66.5964 85.924 66.0644 86.1387 65.6444 86.568C65.2338 86.9973 65.0284 87.562 65.0284 88.262C65.0284 88.962 65.2338 89.5267 65.6444 89.956C66.0644 90.3853 66.5964 90.6 67.2404 90.6Z" fill="black"/>
<path d="M46 61.4603C40.6899 61.4603 35.4991 59.8857 31.0839 56.9355C26.6687 53.9854 23.2274 49.7922 21.1953 44.8863C19.1632 39.9804 18.6316 34.5821 19.6675 29.374C20.7035 24.1659 23.2605 19.382 27.0153 15.6272C30.7702 11.8723 35.5541 9.31528 40.7622 8.27932C45.9703 7.24337 51.3686 7.77506 56.2745 9.80715C61.1804 11.8392 65.3736 15.2805 68.3237 19.6957C71.2738 24.1109 72.8485 29.3018 72.8485 34.6119C72.8399 41.7299 70.0085 48.5539 64.9753 53.5871C59.9421 58.6203 53.1181 61.4517 46 61.4603ZM46 10.2865C41.1798 10.2801 36.466 11.7041 32.4555 14.3781C28.4449 17.0521 25.3179 20.8559 23.4704 25.308C21.6228 29.7601 21.1377 34.6603 22.0765 39.3882C23.0153 44.1161 25.3358 48.4592 28.7443 51.8677C32.1527 55.2761 36.4958 57.5966 41.2237 58.5354C45.9516 59.4742 50.8518 58.9891 55.3039 57.1416C59.756 55.294 63.5599 52.167 66.2338 48.1564C68.9078 44.1459 70.3318 39.4321 70.3254 34.6119C70.2912 28.1828 67.7132 22.0288 63.1551 17.4949C58.5969 12.9609 52.4292 10.4158 46 10.4159V10.2865Z" fill="black"/>
<path d="M46.0647 17.5647C45.8876 17.5657 45.7122 17.5293 45.5501 17.458C45.3879 17.3866 45.2426 17.2819 45.1236 17.1507C45.0046 17.0195 44.9146 16.8647 44.8593 16.6964C44.8041 16.5281 44.785 16.35 44.8032 16.1738V14.33C44.774 14.1496 44.7844 13.9651 44.8335 13.7891C44.8827 13.6132 44.9695 13.45 45.0879 13.3109C45.2064 13.1717 45.3536 13.06 45.5195 12.9834C45.6853 12.9067 45.8658 12.8671 46.0485 12.8671C46.2312 12.8671 46.4118 12.9067 46.5776 12.9834C46.7435 13.06 46.8907 13.1717 47.0092 13.3109C47.1276 13.45 47.2144 13.6132 47.2636 13.7891C47.3127 13.9651 47.3231 14.1496 47.2939 14.33V16.1738C47.3119 16.3473 47.2936 16.5227 47.2403 16.6888C47.187 16.8549 47.0999 17.0081 46.9844 17.1388C46.8689 17.2696 46.7275 17.3749 46.5692 17.4482C46.4109 17.5215 46.2391 17.5612 46.0647 17.5647Z" fill="black"/>
<path d="M36.5222 19.8614C36.3273 19.8646 36.1339 19.8258 35.9553 19.7477C35.7767 19.6695 35.617 19.5539 35.4871 19.4085L34.2902 17.6618C34.0929 17.3915 34.011 17.054 34.0626 16.7234C34.1141 16.3928 34.2949 16.0962 34.5652 15.8988C34.8354 15.7015 35.173 15.6196 35.5036 15.6712C35.8342 15.7228 36.1308 15.9036 36.3281 16.1738L37.525 17.8235C37.6236 17.9562 37.6944 18.1074 37.7332 18.2681C37.772 18.4289 37.778 18.5957 37.7509 18.7588C37.7237 18.9219 37.6639 19.0778 37.575 19.2172C37.4862 19.3567 37.3701 19.4767 37.2338 19.5703C37.0316 19.7372 36.7834 19.8387 36.5222 19.8614Z" fill="black"/>
<path d="M64.2117 47.1627C63.9328 47.1562 63.6623 47.0661 63.4354 46.9039L61.818 45.61C61.5648 45.4013 61.403 45.1021 61.3667 44.776C61.3305 44.4499 61.4227 44.1225 61.6239 43.8632C61.7224 43.7319 61.8462 43.6215 61.988 43.5388C62.1297 43.456 62.2867 43.4025 62.4495 43.3814C62.6123 43.3603 62.7777 43.372 62.9359 43.4159C63.0941 43.4598 63.242 43.5349 63.3707 43.6368L64.988 44.9307C65.1858 45.0948 65.3287 45.3154 65.3977 45.563C65.4666 45.8105 65.4583 46.0732 65.3739 46.3159C65.2895 46.5586 65.1329 46.7698 64.9253 46.9211C64.7176 47.0724 64.4686 47.1567 64.2117 47.1627Z" fill="black"/>
<path d="M29.4058 27.0102C29.1662 27.0066 28.9318 26.9396 28.7265 26.8162L27.3355 25.8781C27.0606 25.6989 26.8662 25.4197 26.7937 25.0996C26.7212 24.7795 26.7764 24.4438 26.9474 24.1637C27.1325 23.8864 27.4174 23.6913 27.7428 23.619C28.0683 23.5466 28.409 23.6027 28.6941 23.7755L30.0851 24.6812C30.3585 24.8709 30.5458 25.1609 30.6064 25.488C30.667 25.8152 30.5959 26.153 30.4086 26.428C30.3022 26.6 30.1551 26.7432 29.9801 26.8448C29.8052 26.9464 29.6079 27.0032 29.4058 27.0102Z" fill="black"/>
<path d="M56.0278 54.0204C55.8346 54.0216 55.6438 53.9785 55.4699 53.8944C55.2961 53.8103 55.1439 53.6874 55.025 53.5351L53.9899 52.2412C53.7905 51.9729 53.7026 51.6378 53.7449 51.3061C53.7871 50.9744 53.956 50.672 54.2163 50.4621C54.345 50.3602 54.4928 50.2851 54.6511 50.2412C54.8093 50.1974 54.9747 50.1856 55.1375 50.2067C55.3003 50.2278 55.4572 50.2813 55.599 50.3641C55.7408 50.4469 55.8646 50.5572 55.9631 50.6886L56.9982 51.9825C57.1994 52.2417 57.2916 52.5691 57.2554 52.8952C57.2191 53.2213 57.0573 53.5205 56.8041 53.7292C56.5869 53.9132 56.3125 54.0161 56.0278 54.0204Z" fill="black"/>
<path d="M67.2201 36.6498H65.6027C65.4385 36.6499 65.276 36.617 65.1247 36.5532C64.9734 36.4895 64.8364 36.396 64.7219 36.2784C64.6073 36.1608 64.5174 36.0215 64.4576 35.8686C64.3978 35.7157 64.3692 35.5524 64.3735 35.3883C64.3734 35.0592 64.5018 34.7431 64.7315 34.5075C64.9611 34.2718 65.2737 34.1351 65.6027 34.1267H67.2201C67.5546 34.1267 67.8755 34.2596 68.1121 34.4962C68.3487 34.7328 68.4816 35.0537 68.4816 35.3883C68.4861 35.5551 68.4565 35.7212 68.3947 35.8763C68.3328 36.0313 68.2401 36.1722 68.122 36.2902C68.004 36.4083 67.8631 36.501 67.7081 36.5629C67.553 36.6247 67.3869 36.6543 67.2201 36.6498Z" fill="black"/>
<path d="M26.9151 36.6498H25.4594C25.1248 36.6498 24.804 36.5169 24.5674 36.2803C24.3308 36.0437 24.1979 35.7228 24.1979 35.3883C24.2061 35.0563 24.3416 34.7401 24.5765 34.5053C24.8113 34.2705 25.1274 34.1349 25.4594 34.1267H26.9151C27.2471 34.1349 27.5632 34.2705 27.798 34.5053C28.0329 34.7401 28.1684 35.0563 28.1766 35.3883C28.1766 35.7228 28.0437 36.0437 27.8071 36.2803C27.5705 36.5169 27.2497 36.6498 26.9151 36.6498Z" fill="black"/>
<path d="M46.0647 57.0934C45.8978 57.0979 45.7318 57.0683 45.5767 57.0065C45.4216 56.9447 45.2808 56.8519 45.1627 56.7339C45.0447 56.6158 44.9519 56.475 44.8901 56.3199C44.8283 56.1648 44.7987 55.9988 44.8032 55.8319V54.6674C44.774 54.487 44.7844 54.3025 44.8335 54.1265C44.8827 53.9506 44.9695 53.7874 45.0879 53.6483C45.2064 53.5091 45.3536 53.3974 45.5195 53.3208C45.6853 53.2442 45.8658 53.2045 46.0485 53.2045C46.2312 53.2045 46.4118 53.2442 46.5776 53.3208C46.7435 53.3974 46.8907 53.5091 47.0092 53.6483C47.1276 53.7874 47.2144 53.9506 47.2636 54.1265C47.3127 54.3025 47.3231 54.487 47.2939 54.6674V55.8319C47.2982 55.996 47.2696 56.1593 47.2098 56.3122C47.15 56.4651 47.0601 56.6045 46.9455 56.7221C46.831 56.8396 46.694 56.9331 46.5427 56.9969C46.3914 57.0607 46.2289 57.0935 46.0647 57.0934Z" fill="black"/>
<path d="M56.2865 19.4085C56.0702 19.4163 55.8564 19.36 55.6719 19.2468C55.3891 19.0837 55.1806 18.8173 55.0901 18.5036C54.9996 18.1899 55.0342 17.8534 55.1867 17.5647L55.9307 16.1738C56.0093 16.0315 56.1151 15.906 56.2422 15.8046C56.3693 15.7032 56.5151 15.6279 56.6713 15.5828C56.8274 15.5377 56.991 15.5239 57.1525 15.542C57.3141 15.5602 57.4705 15.61 57.6128 15.6886C57.7551 15.7671 57.8805 15.873 57.9819 16.0001C58.0833 16.1271 58.1587 16.2729 58.2038 16.4291C58.2488 16.5853 58.2627 16.7488 58.2445 16.9104C58.2264 17.0719 58.1766 17.2283 58.098 17.3706L57.354 18.7616C57.25 18.9549 57.0962 19.1169 56.9085 19.2306C56.7208 19.3444 56.506 19.4058 56.2865 19.4085Z" fill="black"/>
<path d="M63.4031 26.7837C63.1317 26.7783 62.8692 26.6856 62.6547 26.5192C62.4403 26.3528 62.2852 26.1216 62.2125 25.8601C62.1399 25.5985 62.1535 25.3205 62.2515 25.0673C62.3494 24.8141 62.5264 24.5993 62.7561 24.4547L64.2441 23.549C64.3827 23.4548 64.5392 23.39 64.7038 23.3585C64.8684 23.3271 65.0377 23.3296 65.2013 23.3659C65.3649 23.4023 65.5193 23.4717 65.6551 23.5699C65.7909 23.6682 65.9052 23.7931 65.9909 23.9371C66.0806 24.0772 66.1417 24.2336 66.1707 24.3973C66.1998 24.561 66.1961 24.7289 66.1601 24.8912C66.124 25.0536 66.0562 25.2072 65.9605 25.3432C65.8649 25.4793 65.7433 25.595 65.6027 25.6839L64.0824 26.5896C63.8815 26.7231 63.6441 26.7909 63.4031 26.7837Z" fill="black"/>
<path d="M28.403 46.7098C28.1899 46.7137 27.9794 46.662 27.7923 46.5599C27.6051 46.4578 27.4477 46.3088 27.3356 46.1276C27.2473 45.9856 27.1881 45.8275 27.1615 45.6625C27.1349 45.4974 27.1413 45.3287 27.1804 45.1662C27.2196 45.0037 27.2906 44.8506 27.3894 44.7157C27.4882 44.5809 27.6129 44.467 27.7561 44.3808L29.0176 43.6044C29.3016 43.4364 29.6401 43.3863 29.9606 43.4649C30.2811 43.5435 30.5581 43.7446 30.732 44.025C30.8196 44.1644 30.8782 44.32 30.9044 44.4826C30.9306 44.6451 30.9239 44.8113 30.8847 44.9712C30.8455 45.1311 30.7745 45.2815 30.6761 45.4135C30.5776 45.5454 30.4536 45.6563 30.3115 45.7394L29.05 46.5157C28.8582 46.6429 28.6331 46.7104 28.403 46.7098Z" fill="black"/>
<path d="M36.037 54.5056C35.8221 54.5023 35.6111 54.4468 35.4224 54.3438C35.2749 54.2662 35.1447 54.1595 35.0398 54.03C34.9349 53.9005 34.8573 53.7511 34.812 53.5907C34.7666 53.4304 34.7543 53.2625 34.7758 53.0972C34.7973 52.932 34.8522 52.7728 34.9372 52.6294L35.4224 51.756C35.5855 51.4732 35.8519 51.2647 36.1656 51.1742C36.4793 51.0837 36.8158 51.1183 37.1045 51.2708C37.252 51.3484 37.3821 51.4552 37.4871 51.5847C37.592 51.7141 37.6695 51.8636 37.7149 52.0239C37.7603 52.1843 37.7726 52.3522 37.7511 52.5175C37.7295 52.6827 37.6746 52.8419 37.5897 52.9852L37.1368 53.8586C37.0276 54.0545 36.868 54.2177 36.6747 54.3314C36.4814 54.4451 36.2613 54.5052 36.037 54.5056Z" fill="black"/>
<path d="M46 48.5213C45.668 48.5131 45.3519 48.3776 45.117 48.1428C44.8822 47.9079 44.7466 47.5918 44.7384 47.2598V36.294H38.463C38.2988 36.294 38.1363 36.2612 37.985 36.1974C37.8338 36.1336 37.6968 36.0402 37.5822 35.9226C37.4676 35.805 37.3778 35.6657 37.3179 35.5128C37.2581 35.3599 37.2295 35.1966 37.2338 35.0324C37.2337 34.7034 37.3622 34.3873 37.5918 34.1516C37.8215 33.9159 38.1341 33.7793 38.463 33.7709H46C46.332 33.7791 46.6481 33.9146 46.883 34.1495C47.1178 34.3843 47.2534 34.7004 47.2616 35.0324V47.0981C47.2795 47.2758 47.2603 47.4554 47.2054 47.6254C47.1505 47.7954 47.061 47.9522 46.9425 48.086C46.8239 48.2197 46.679 48.3274 46.5168 48.4023C46.3546 48.4772 46.1786 48.5178 46 48.5213Z" fill="black"/>
</svg>
