<svg width="90" height="99" viewBox="0 0 90 99" fill="none" xmlns="http://www.w3.org/2000/svg">
<rect y="24.9" width="90" height="74.1" fill="#E6E6E6"/>
<path d="M12.6129 77.2H14.4329V85.46H19.5569V87H12.6129V77.2ZM20.8257 79.524H22.5757V87H20.8257V79.524ZM21.7077 78.292C21.3904 78.292 21.1244 78.194 20.9097 77.998C20.6951 77.7927 20.5877 77.5407 20.5877 77.242C20.5877 76.9433 20.6951 76.696 20.9097 76.5C21.1244 76.2947 21.3904 76.192 21.7077 76.192C22.0251 76.192 22.2911 76.29 22.5057 76.486C22.7204 76.6727 22.8277 76.9107 22.8277 77.2C22.8277 77.508 22.7204 77.7693 22.5057 77.984C22.3004 78.1893 22.0344 78.292 21.7077 78.292ZM34.3086 79.44C35.2513 79.44 35.9979 79.7153 36.5486 80.266C37.0993 80.8073 37.3746 81.624 37.3746 82.716V87H35.6246V82.94C35.6246 82.2867 35.4799 81.7967 35.1906 81.47C34.9013 81.134 34.4859 80.966 33.9446 80.966C33.3566 80.966 32.8853 81.162 32.5306 81.554C32.1759 81.9367 31.9986 82.4873 31.9986 83.206V87H30.2486V82.94C30.2486 82.2867 30.1039 81.7967 29.8146 81.47C29.5253 81.134 29.1099 80.966 28.5686 80.966C27.9713 80.966 27.4953 81.1573 27.1406 81.54C26.7953 81.9227 26.6226 82.478 26.6226 83.206V87H24.8726V79.524H26.5386V80.476C26.8186 80.14 27.1686 79.8833 27.5886 79.706C28.0086 79.5287 28.4753 79.44 28.9886 79.44C29.5486 79.44 30.0433 79.5473 30.4726 79.762C30.9113 79.9673 31.2566 80.2753 31.5086 80.686C31.8166 80.294 32.2133 79.9907 32.6986 79.776C33.1839 79.552 33.7206 79.44 34.3086 79.44ZM43.7549 79.44C44.4829 79.44 45.1316 79.5987 45.7009 79.916C46.2796 80.2333 46.7322 80.6813 47.0589 81.26C47.3856 81.8387 47.5489 82.506 47.5489 83.262C47.5489 84.018 47.3856 84.69 47.0589 85.278C46.7322 85.8567 46.2796 86.3047 45.7009 86.622C45.1316 86.9393 44.4829 87.098 43.7549 87.098C42.7469 87.098 41.9489 86.762 41.3609 86.09V89.716H39.6109V79.524H41.2769V80.504C41.5662 80.1493 41.9209 79.8833 42.3409 79.706C42.7702 79.5287 43.2416 79.44 43.7549 79.44ZM43.5589 85.6C44.2029 85.6 44.7302 85.3853 45.1409 84.956C45.5609 84.5267 45.7709 83.962 45.7709 83.262C45.7709 82.562 45.5609 81.9973 45.1409 81.568C44.7302 81.1387 44.2029 80.924 43.5589 80.924C43.1389 80.924 42.7609 81.022 42.4249 81.218C42.0889 81.4047 41.8229 81.6753 41.6269 82.03C41.4309 82.3847 41.3329 82.7953 41.3329 83.262C41.3329 83.7287 41.4309 84.1393 41.6269 84.494C41.8229 84.8487 42.0889 85.124 42.4249 85.32C42.7609 85.5067 43.1389 85.6 43.5589 85.6ZM49.2085 79.524H50.9585V87H49.2085V79.524ZM50.0905 78.292C49.7732 78.292 49.5072 78.194 49.2925 77.998C49.0779 77.7927 48.9705 77.5407 48.9705 77.242C48.9705 76.9433 49.0779 76.696 49.2925 76.5C49.5072 76.2947 49.7732 76.192 50.0905 76.192C50.4079 76.192 50.6739 76.29 50.8885 76.486C51.1032 76.6727 51.2105 76.9107 51.2105 77.2C51.2105 77.508 51.1032 77.7693 50.8885 77.984C50.6832 78.1893 50.4172 78.292 50.0905 78.292ZM60.2834 83.304C60.2834 83.4253 60.2741 83.598 60.2554 83.822H54.3894C54.4921 84.3727 54.7581 84.8113 55.1874 85.138C55.6261 85.4553 56.1674 85.614 56.8114 85.614C57.6328 85.614 58.3094 85.3433 58.8414 84.802L59.7794 85.88C59.4434 86.2813 59.0188 86.5847 58.5054 86.79C57.9921 86.9953 57.4134 87.098 56.7694 87.098C55.9481 87.098 55.2248 86.9347 54.5994 86.608C53.9741 86.2813 53.4888 85.8287 53.1434 85.25C52.8074 84.662 52.6394 83.9993 52.6394 83.262C52.6394 82.534 52.8028 81.8807 53.1294 81.302C53.4654 80.714 53.9274 80.2567 54.5154 79.93C55.1034 79.6033 55.7661 79.44 56.5034 79.44C57.2314 79.44 57.8801 79.6033 58.4494 79.93C59.0281 80.2473 59.4761 80.7 59.7934 81.288C60.1201 81.8667 60.2834 82.5387 60.2834 83.304ZM56.5034 80.84C55.9434 80.84 55.4674 81.008 55.0754 81.344C54.6928 81.6707 54.4594 82.1093 54.3754 82.66H58.6174C58.5428 82.1187 58.3141 81.68 57.9314 81.344C57.5488 81.008 57.0728 80.84 56.5034 80.84ZM67.734 85.6V87H61.28V85.894L65.382 80.924H61.364V79.524H67.622V80.63L63.506 85.6H67.734ZM72.2032 79.44C73.3046 79.44 74.1446 79.706 74.7232 80.238C75.3112 80.7607 75.6052 81.554 75.6052 82.618V87H73.9532V86.09C73.7386 86.4167 73.4306 86.6687 73.0292 86.846C72.6372 87.014 72.1612 87.098 71.6012 87.098C71.0412 87.098 70.5512 87.0047 70.1312 86.818C69.7112 86.622 69.3846 86.356 69.1512 86.02C68.9272 85.6747 68.8152 85.2873 68.8152 84.858C68.8152 84.186 69.0626 83.6493 69.5572 83.248C70.0612 82.8373 70.8499 82.632 71.9232 82.632H73.8552V82.52C73.8552 81.9973 73.6966 81.596 73.3792 81.316C73.0712 81.036 72.6092 80.896 71.9932 80.896C71.5732 80.896 71.1579 80.9613 70.7472 81.092C70.3459 81.2227 70.0052 81.4047 69.7252 81.638L69.0392 80.364C69.4312 80.0653 69.9026 79.8367 70.4532 79.678C71.0039 79.5193 71.5872 79.44 72.2032 79.44ZM71.9652 85.824C72.4039 85.824 72.7912 85.726 73.1272 85.53C73.4726 85.3247 73.7152 85.0353 73.8552 84.662V83.794H72.0492C71.0412 83.794 70.5372 84.1253 70.5372 84.788C70.5372 85.1053 70.6632 85.3573 70.9152 85.544C71.1672 85.7307 71.5172 85.824 71.9652 85.824Z" fill="black"/>
<path d="M75.2745 34.256C75.2958 37.0948 74.7567 39.9099 73.688 42.5399C72.6194 45.17 71.0422 47.5633 69.0468 49.5827C67.0515 51.6021 64.6772 53.2078 62.0602 54.3079C59.4431 55.408 56.6346 55.9808 53.7958 55.9935C49.12 55.9679 44.5791 54.424 40.8568 51.5942C41.3995 50.8985 42.1287 50.3713 42.9594 50.0739C46.1662 52.3391 49.999 53.5489 53.9252 53.5351C59.004 53.5351 63.8748 51.5175 67.4661 47.9263C71.0573 44.335 73.0749 39.4642 73.0749 34.3854C73.0749 29.3065 71.0573 24.4357 67.4661 20.8445C63.8748 17.2532 59.004 15.2356 53.9252 15.2356C50.6972 15.2571 47.5266 16.0914 44.7061 17.6617C43.9635 18.0759 43.2502 18.5407 42.5712 19.0526C41.7031 19.6116 40.8811 20.239 40.1128 20.9288C38.3417 22.7177 36.9414 24.8387 35.9922 27.1701C35.0429 29.5016 34.5635 31.9975 34.5814 34.5147C34.5814 35.3881 34.5814 36.1968 34.7754 37.0379C35.1238 39.3964 35.9139 41.6681 37.1045 43.7338C36.8326 44.6154 36.3301 45.4083 35.6488 46.0305C33.9658 43.4749 32.8618 40.5824 32.4141 37.5554C32.4141 36.7791 32.22 35.9704 32.1553 35.1294V34.4177C32.1312 30.9334 32.9513 27.4951 34.5455 24.3969C36.1397 21.2986 38.4606 18.6325 41.3096 16.6266C41.9679 16.1464 42.6598 15.7139 43.3799 15.3327C46.5169 13.7107 50.0059 12.8884 53.537 12.939C59.2376 12.9128 64.7183 15.137 68.7884 19.1284C72.8586 23.1198 75.1894 28.556 75.2745 34.256Z" fill="black"/>
<path d="M30.4085 7.828C26.4278 7.828 22.6102 9.40933 19.7954 12.2241C16.9806 15.0389 15.3993 18.8565 15.3993 22.8372C15.3993 26.8179 16.9806 30.6356 19.7954 33.4504C22.6102 36.2652 26.4278 37.8465 30.4085 37.8465C31.0761 37.8958 31.7465 37.8958 32.4141 37.8465C32.4141 37.0701 32.22 36.2615 32.1553 35.4204C31.5633 35.4698 30.9682 35.4698 30.3762 35.4204C28.6722 35.5069 26.9685 35.246 25.3685 34.6534C23.7686 34.0609 22.3058 33.1492 21.0692 31.9738C19.8325 30.7983 18.8479 29.3837 18.175 27.8158C17.5022 26.2479 17.1552 24.5596 17.1552 22.8534C17.1552 21.1473 17.5022 19.4589 18.175 17.8911C18.8479 16.3232 19.8325 14.9085 21.0692 13.7331C22.3058 12.5576 23.7686 11.6459 25.3685 11.0534C26.9685 10.4609 28.6722 10.1999 30.3762 10.2864H30.4085C33.6696 10.3177 36.7904 11.6171 39.11 13.9093C39.9478 14.7567 40.6661 15.7144 41.2449 16.7559C41.9032 16.2757 42.5951 15.8433 43.3152 15.462C42.0221 13.1696 40.1489 11.2576 37.8835 9.9177C35.6182 8.57779 33.0403 7.85713 30.4085 7.828Z" fill="black"/>
<path d="M71.4898 62.1719C70.4072 62.1718 69.349 61.8504 68.4493 61.2483C67.5497 60.6461 66.849 59.7904 66.4362 58.7896C66.0234 57.7888 65.9171 56.688 66.1306 55.6267C66.3442 54.5654 66.8681 53.5914 67.6358 52.8281C68.4036 52.0649 69.3807 51.5468 70.4433 51.3395C71.5059 51.1323 72.606 51.2452 73.6044 51.6639C74.6027 52.0826 75.4542 52.7883 76.051 53.6916C76.6478 54.5948 76.963 55.6549 76.9565 56.7375C76.948 58.1817 76.3683 59.5639 75.344 60.5821C74.3197 61.6004 72.9341 62.1719 71.4898 62.1719ZM71.4898 53.6968C70.8871 53.6904 70.2961 53.8633 69.7918 54.1935C69.2875 54.5237 68.8928 54.9963 68.6577 55.5513C68.4226 56.1063 68.3577 56.7187 68.4713 57.3106C68.585 57.9026 68.872 58.4474 69.2959 58.8759C69.7199 59.3043 70.2616 59.5972 70.8523 59.7171C71.443 59.8371 72.056 59.7788 72.6135 59.5497C73.171 59.3205 73.6478 58.9308 73.9834 58.4301C74.3189 57.9294 74.4981 57.3402 74.4981 56.7375C74.4982 55.9366 74.1823 55.1681 73.619 54.5988C73.0558 54.0294 72.2906 53.7053 71.4898 53.6968Z" fill="black"/>
<path d="M64.9234 14.1682C64.5999 14.16 64.292 14.0278 64.0632 13.7991C63.8345 13.5703 63.7023 13.2624 63.6942 12.939C63.6796 12.2277 63.3993 11.5476 62.9083 11.0327C62.4174 10.5178 61.7514 10.2054 61.0417 10.1571C60.8817 10.1571 60.7234 10.1251 60.576 10.063C60.4287 10.0008 60.2953 9.90975 60.1837 9.79516C60.0721 9.68058 59.9847 9.54479 59.9264 9.39582C59.8682 9.24686 59.8405 9.08774 59.8448 8.92787C59.8447 8.76793 59.8767 8.60961 59.9389 8.46225C60.0011 8.31489 60.0921 8.18149 60.2067 8.06992C60.3213 7.95834 60.4571 7.87087 60.606 7.81266C60.755 7.75445 60.9141 7.72669 61.074 7.73101C63.0472 7.73101 63.6618 4.94912 63.6618 4.91678C63.6878 4.64299 63.8074 4.38653 64.0003 4.19053C64.1932 3.99453 64.4478 3.87095 64.7211 3.84057C64.9944 3.8102 65.2699 3.87489 65.5011 4.02377C65.7324 4.17264 65.9053 4.39661 65.9908 4.658C65.9908 4.658 67.0259 7.56927 69.0315 7.56927C69.3357 7.57634 69.6266 7.69602 69.8477 7.90517C70.0688 8.11431 70.2044 8.39804 70.2283 8.70144C70.2651 9.00566 70.1804 9.3121 69.9927 9.55431C69.805 9.79652 69.5293 9.95498 69.2256 9.99533C69.2256 9.99533 65.9908 10.6423 65.9908 12.6478C65.9751 12.7225 65.9751 12.7996 65.9908 12.8743C66.0001 13.1897 65.8877 13.4966 65.677 13.7314C65.4662 13.9662 65.1732 14.111 64.8587 14.1358L64.9234 14.1682ZM64.2441 8.76613C64.5138 8.99304 64.7531 9.254 64.9557 9.54247C65.2761 9.25237 65.6226 8.99249 65.9908 8.76613C65.6666 8.47407 65.3738 8.14882 65.1174 7.79571C64.8645 8.1516 64.5714 8.47722 64.2441 8.76613Z" fill="black"/>
<path d="M38.7542 53.5674C38.4529 53.5684 38.1623 53.4557 37.9405 53.2518C37.7186 53.048 37.5818 52.7679 37.5574 52.4676C37.5574 52.4676 37.5574 52.4676 37.5574 52.2735C37.5503 51.5599 37.2725 50.8756 36.78 50.3592C36.2876 49.8427 35.6173 49.5326 34.9049 49.4916C34.5703 49.4916 34.2494 49.3587 34.0128 49.1221C33.7762 48.8855 33.6433 48.5646 33.6433 48.2301C33.6599 47.9068 33.8001 47.6023 34.0349 47.3795C34.2697 47.1568 34.5812 47.0328 34.9049 47.0332C36.9104 47.0332 37.4927 44.2513 37.4927 44.219C37.5538 43.9579 37.6964 43.7231 37.9 43.5486C38.1036 43.3741 38.3575 43.269 38.6248 43.2485C38.8924 43.2401 39.1558 43.3171 39.3768 43.4683C39.5978 43.6195 39.7649 43.8371 39.854 44.0896C39.854 44.0896 40.8892 47.0009 42.8624 47.0009C43.1671 46.9992 43.4617 47.1108 43.6888 47.314C43.9159 47.5172 44.0595 47.7976 44.0916 48.1007C44.1136 48.4057 44.024 48.7084 43.8396 48.9524C43.6551 49.1963 43.3883 49.365 43.0888 49.4269C43.0888 49.4269 39.854 50.0415 39.854 52.0794V52.3059C39.8633 52.6213 39.7509 52.9282 39.5402 53.163C39.3294 53.3978 39.0364 53.5426 38.7219 53.5674H38.7542ZM38.0749 48.1654C38.348 48.4107 38.5971 48.6815 38.8189 48.9741C39.1015 48.681 39.4162 48.4205 39.757 48.1977C39.4226 47.9062 39.1191 47.581 38.8513 47.2273C38.6201 47.5619 38.3604 47.8758 38.0749 48.1654Z" fill="black"/>
<path d="M58.2921 51.756C58.005 51.7654 57.7237 51.6741 57.497 51.4977C57.2703 51.3214 57.1125 51.0712 57.051 50.7906C56.9895 50.5101 57.0282 50.2168 57.1603 49.9618C57.2925 49.7068 57.5098 49.5061 57.7745 49.3946C70.7136 43.7015 67.8023 33.0268 67.6729 32.5739C67.583 32.2608 67.6211 31.9248 67.7788 31.6397C67.9365 31.3546 68.2009 31.1438 68.5139 31.0536C68.6669 31.0095 68.827 30.9963 68.9851 31.0149C69.1432 31.0334 69.296 31.0833 69.4345 31.1616C69.5731 31.2399 69.6946 31.3451 69.7921 31.471C69.8895 31.5968 69.9608 31.7409 70.0019 31.8946C70.0019 31.8946 73.6572 45.0277 58.7773 51.6266C58.625 51.6995 58.4605 51.7434 58.2921 51.756Z" fill="black"/>
</svg>
