<svg xmlns="http://www.w3.org/2000/svg" viewBox="0 0 846.29 581.62"><defs><style>.cls-1,.cls-17,.cls-23,.cls-26,.cls-4{fill:#fff;}.cls-1{stroke:#c3e06f;}.cls-1,.cls-19,.cls-21,.cls-23,.cls-24,.cls-26,.cls-27,.cls-5{stroke-miterlimit:10;}.cls-2{fill:#d4a000;}.cls-14,.cls-2,.cls-3,.cls-5{opacity:0.5;}.cls-15,.cls-3{fill:#888f88;}.cls-19,.cls-21,.cls-24,.cls-27,.cls-5{fill:none;}.cls-5{stroke:#d4a000;}.cls-10,.cls-6{fill:#f2bf45;}.cls-7{fill:#afc07d;}.cls-11,.cls-17,.cls-18,.cls-24,.cls-7,.cls-8,.cls-9{opacity:0.7;}.cls-8{fill:#bbd17b;}.cls-9{fill:#d0e09f;}.cls-10{opacity:0.6;}.cls-11{fill:#e0bb00;}.cls-12,.cls-22{fill:#fff2ba;}.cls-12,.cls-13,.cls-27{opacity:0.8;}.cls-13{fill:#ffd55e;}.cls-16{fill:#707570;}.cls-19{stroke:#999;stroke-width:3px;}.cls-20{fill:#999;}.cls-21{stroke:#888f88;}.cls-23{stroke:#f2bf45;}.cls-24{stroke:#e0bb00;}.cls-25{opacity:0.3;}.cls-26{stroke:#fff2ba;}.cls-27{stroke:#ffd55e;}</style></defs><g id="Layer_7" data-name="Layer 7"><path class="cls-1" d="M506.42,108.25a13.09,13.09,0,1,1-26.18,0c0-.12,0-.25,0-.37h26.16C506.42,108,506.42,108.13,506.42,108.25Z"/><path d="M490.6,113.91a.22.22,0,0,1-.21-.22v-5.36a.22.22,0,1,1,.43,0v5.36A.22.22,0,0,1,490.6,113.91Z"/><path d="M490.6,110.25a.23.23,0,0,1-.15-.07l-.81-.83a.22.22,0,1,1,.32-.3l.43.45v-.59a.2.2,0,0,1,.06-.15l.54-.58a.22.22,0,0,1,.31,0,.23.23,0,0,1,0,.31l-.49.51v1a.21.21,0,0,1-.13.2Z"/><path d="M494.71,107.88v5.81a.21.21,0,0,1-.21.22.22.22,0,0,1-.22-.22V108l-.1-.08Z"/><path d="M495.06,107.88l-.35.41,0,.06a.21.21,0,0,1-.16.08h-.08a.22.22,0,0,1-.14-.21v-.33Z"/><path d="M496.93,113.91a.22.22,0,0,1-.22-.22v-3.82a.22.22,0,0,1,.44,0v3.82A.22.22,0,0,1,496.93,113.91Z"/><path d="M496.93,111a.2.2,0,0,1-.16-.07.22.22,0,0,1,0-.31l.6-.54a.22.22,0,1,1,.29.33l-.61.54A.24.24,0,0,1,496.93,111Z"/><path d="M492.87,107.88h-.44a5.44,5.44,0,0,1,0,.67,2.47,2.47,0,0,1-1.65,2.53,1.58,1.58,0,0,1-.38,0h-.05a2.34,2.34,0,0,1-2-2.57,5.58,5.58,0,0,1,0-.67H488a5.58,5.58,0,0,0,0,.67,2.74,2.74,0,0,0,2.41,3h.05a1.58,1.58,0,0,0,.38,0,2.63,2.63,0,0,0,2-2.08c0-.16.06-.31.08-.48s0-.26,0-.4A5.67,5.67,0,0,0,492.87,107.88Z"/><path d="M497.36,107.88c0,.11-.06.22-.1.33a2.24,2.24,0,0,1-.22.4,2.8,2.8,0,0,1-1.44,1.17,3,3,0,0,1-.43.12,2.31,2.31,0,0,1-.46,0h-.43a2.9,2.9,0,0,1-1.47-.52l-.26-.2a.21.21,0,0,1,.28-.32l.06,0a2.5,2.5,0,0,0,1.39.57h.43a2.44,2.44,0,0,0,2-1.22,1.94,1.94,0,0,0,.17-.42Z"/><path d="M496.93,111.68a1.76,1.76,0,0,1-1.76-1.76v-.3a.22.22,0,0,1,.44,0v.3a1.32,1.32,0,1,0,1.32-1.32.22.22,0,0,1-.22-.22.21.21,0,0,1,.22-.21,1.76,1.76,0,0,1,0,3.51Z"/><polygon class="cls-2" points="825 484.81 825 363.29 709.62 363.29 709.62 484.77 825 484.81"/><circle class="cls-1" cx="493.33" cy="276.79" r="13.09"/><path d="M490.6,282.45a.22.22,0,0,1-.21-.21v-5.37a.21.21,0,0,1,.21-.21.21.21,0,0,1,.22.21v5.37A.22.22,0,0,1,490.6,282.45Z"/><path d="M490.6,278.79a.22.22,0,0,1-.15-.06l-.81-.83a.22.22,0,0,1,0-.31.23.23,0,0,1,.31,0l.43.45v-.59a.22.22,0,0,1,.06-.15l.54-.57a.21.21,0,0,1,.31,0,.22.22,0,0,1,0,.3l-.49.52v1a.22.22,0,0,1-.13.2Z"/><path d="M494.5,282.45a.22.22,0,0,1-.22-.21V276.5l-.66-.54a.22.22,0,1,1,.28-.34l.74.61a.21.21,0,0,1,.08.17v5.84A.22.22,0,0,1,494.5,282.45Z"/><path d="M494.5,277h-.07a.21.21,0,0,1-.15-.2v-1.33a.22.22,0,0,1,.44,0v.73l.27-.33a.22.22,0,0,1,.3,0,.22.22,0,0,1,0,.31l-.65.78A.25.25,0,0,1,494.5,277Z"/><path d="M496.93,282.45a.22.22,0,0,1-.22-.21v-3.82a.22.22,0,1,1,.44,0v3.82A.22.22,0,0,1,496.93,282.45Z"/><path d="M496.93,279.54a.22.22,0,0,1-.14-.38l.6-.54a.22.22,0,0,1,.31,0,.21.21,0,0,1,0,.3l-.61.54A.2.2,0,0,1,496.93,279.54Z"/><path d="M490.45,280.1a2.75,2.75,0,0,1-2.47-3c0-1.68,1.19-5,2.62-5s2.31,3.54,2.31,5A2.75,2.75,0,0,1,490.45,280.1Zm.15-7.55c-1,0-2.18,3-2.18,4.54a2.09,2.09,0,1,0,4.06,0,9.36,9.36,0,0,0-.57-2.91C491.53,273.14,491.05,272.55,490.6,272.55Z"/><path d="M494.54,278.51a3,3,0,0,1-2-.74.21.21,0,1,1,.28-.32,2.6,2.6,0,0,0,1.71.62,2.39,2.39,0,0,0,2.48-2.34c0-1.39-1-4.16-2.29-4.16-.92,0-1.89,1.37-2.37,2.73a.22.22,0,0,1-.28.13.22.22,0,0,1-.13-.28c.54-1.5,1.6-3,2.78-3,1.66,0,2.72,3,2.72,4.59A2.82,2.82,0,0,1,494.54,278.51Z"/><path d="M496.93,280.22a1.76,1.76,0,0,1-1.76-1.75v-.31a.22.22,0,0,1,.44,0v.31a1.32,1.32,0,1,0,1.32-1.33.21.21,0,0,1-.22-.21.22.22,0,0,1,.22-.22,1.76,1.76,0,0,1,0,3.51Z"/><circle class="cls-1" cx="170.31" cy="243.43" r="13.09"/><path d="M175.4,248.1H164.18a.36.36,0,0,1-.36-.36V246a.36.36,0,0,1,.36-.36h2.41v-1.86a.36.36,0,0,1,.36-.36h2.55v-1.78a.36.36,0,0,1,.36-.36h2.43v-1.83a.36.36,0,0,1,.36-.36h2.75a.36.36,0,0,1,.36.36v8.25A.36.36,0,0,1,175.4,248.1Zm-11.15-.43h11.08v-8.11h-2.61v1.83a.36.36,0,0,1-.36.36h-2.43v1.78a.36.36,0,0,1-.36.36H167v1.86a.36.36,0,0,1-.36.36h-2.41Z"/><path d="M163.08,243.83a.23.23,0,0,1-.18-.09.21.21,0,0,1,0-.3l8.9-6.62a.36.36,0,0,1,.22-.07h2.29a.21.21,0,0,1,.22.21.22.22,0,0,1-.22.22h-2.27l-8.88,6.61A.22.22,0,0,1,163.08,243.83Z"/><path d="M165.13,246.11a.22.22,0,0,1-.22-.22v-3.78a.22.22,0,1,1,.43,0v3.78A.22.22,0,0,1,165.13,246.11Z"/><path d="M174.16,239.56a.22.22,0,0,1-.22-.22V237a.21.21,0,0,1,.22-.21.21.21,0,0,1,.21.21v2.38A.21.21,0,0,1,174.16,239.56Z"/><rect class="cls-3" x="78.83" y="13.83" width="109.24" height="349.4"/><path class="cls-3" d="M823.39,106.91V362.53H681.16V107.36H321V72H746V71.9H681.16V13.83H649.07v57.8H219.29a30,30,0,0,1-30-30V13.83h-1.22V161.28H290v83.15a30,30,0,0,1-30,30H225.31v30h29.35v58.81h569V106.91ZM290,164.77H189.53V137.48a30,30,0,0,1,30-30H260a30,30,0,0,1,30,30Zm160,79.6a30,30,0,0,1-30,30H321V107.48H420a30,30,0,0,1,30,30Zm206.28,30H557.23a30,30,0,0,1-30-30V137.48a30,30,0,0,1,30-30h99.09Z"/><circle class="cls-4" cx="766.46" cy="428.17" r="13.55"/><path d="M770.8,430.46h-2.27a.24.24,0,0,1-.16-.07.27.27,0,0,1-.06-.17,13.12,13.12,0,0,0-1.52-6.38h0a.36.36,0,0,1,0-.35.35.35,0,0,1,.3-.18h1.77a.37.37,0,0,1,.33.22,21.77,21.77,0,0,1,1.81,6.7.25.25,0,0,1-.06.16A.24.24,0,0,1,770.8,430.46Zm-2-.44h1.8a21.32,21.32,0,0,0-1.73-6.27h-1.6A13.77,13.77,0,0,1,768.76,430Z"/><path d="M770.8,430.46a.21.21,0,0,1-.21-.19c-.19-1.1.59-5.16.87-6.52h-1.53l-.23,1.07a.22.22,0,0,1-.26.17.22.22,0,0,1-.16-.26l.24-1.13a.37.37,0,0,1,.36-.29h1.66a.35.35,0,0,1,.28.14.36.36,0,0,1,.08.3,32.94,32.94,0,0,0-.89,6.45.22.22,0,0,1-.17.25Z"/><path d="M768.41,423.75a.21.21,0,0,1-.21-.2l-.09-1.36a.34.34,0,0,1,.36-.38h2.07a.36.36,0,0,1,.26.11.38.38,0,0,1,.1.27l-.08,1.35a.23.23,0,0,1-.23.21.21.21,0,0,1-.2-.23l.07-1.28h-1.92l.09,1.28a.21.21,0,0,1-.2.23Z"/><path d="M772,432.56a.22.22,0,0,1-.22-.22v-1.83H761.39v1.83a.22.22,0,0,1-.44,0v-2a.21.21,0,0,1,.22-.21H772a.21.21,0,0,1,.21.21v2A.21.21,0,0,1,772,432.56Z"/><path d="M765.23,430.51h-.07a.23.23,0,0,1-.14-.28s.55-1.66-.06-2.42a1.37,1.37,0,0,0-1.28-.37,1.69,1.69,0,0,0-1.37.73,2.67,2.67,0,0,0,.1,2,.22.22,0,0,1-.11.29.21.21,0,0,1-.28-.11,3,3,0,0,1-.08-2.43,2.07,2.07,0,0,1,1.69-.95,1.78,1.78,0,0,1,1.67.53c.76,1,.16,2.75.13,2.83A.21.21,0,0,1,765.23,430.51Z"/><path d="M763,427.59a.22.22,0,0,1-.2-.12,2.79,2.79,0,0,1,.7-3.43.38.38,0,0,1,.46,0,3.17,3.17,0,0,1,1,3.34.22.22,0,0,1-.26.17.22.22,0,0,1-.17-.25,2.79,2.79,0,0,0-.75-2.88,2.37,2.37,0,0,0-.55,2.88.22.22,0,0,1-.1.29A.15.15,0,0,1,763,427.59Z"/><path d="M765.06,427.8a.2.2,0,0,1-.19-.12.21.21,0,0,1,.09-.29c.06,0,1.25-.65,1.18-2.69a2.62,2.62,0,0,0-1.46.57.22.22,0,0,1-.31,0,.21.21,0,0,1,0-.3,3,3,0,0,1,1.83-.74.32.32,0,0,1,.28.08.36.36,0,0,1,.12.26c.11,2.41-1.35,3.15-1.41,3.18A.18.18,0,0,1,765.06,427.8Z"/><path d="M762.4,427.92l-.1,0a3.26,3.26,0,0,1-1.37-3.34.36.36,0,0,1,.39-.31,2.83,2.83,0,0,1,1.75.7.22.22,0,0,1-.31.31,2.41,2.41,0,0,0-1.41-.58,2.8,2.8,0,0,0,1.16,2.84.21.21,0,0,1-.11.4Z"/><circle class="cls-5" cx="766.46" cy="428.17" r="13.09"/><path class="cls-6" d="M385.81,13.94V71.63H219.29a30,30,0,0,1-30-30V13.94Z"/><rect class="cls-6" x="518.39" y="12.94" width="65.77" height="58.69"/><rect class="cls-6" x="452.19" y="12.94" width="66.2" height="58.69"/><rect class="cls-6" x="385.82" y="12.94" width="66.37" height="58.69"/><rect class="cls-6" x="584.16" y="12.94" width="64.92" height="58.69"/><rect class="cls-7" x="254.66" y="303.62" width="66.04" height="0.19"/><rect class="cls-8" x="518.38" y="303.62" width="65.77" height="0.19"/><rect class="cls-8" x="452.18" y="303.62" width="66.2" height="0.19"/><rect class="cls-8" x="385.81" y="303.62" width="66.37" height="0.19"/><rect class="cls-9" x="584.15" y="303.62" width="64.92" height="0.19"/><rect class="cls-10" x="681.17" y="12.21" width="64.82" height="59.69"/><rect class="cls-11" x="745.98" y="12.21" width="77.65" height="94.7"/><rect class="cls-12" x="681.16" y="106.48" width="142.23" height="256.05"/><path class="cls-13" d="M656.32,107.48V274.37H557.23a30,30,0,0,1-30-30V137.48a30,30,0,0,1,30-30Z"/><g class="cls-14"><path class="cls-15" d="M190.53,161V137.48a29,29,0,0,1,29-29H260a29,29,0,0,1,29,29V161Z"/><path class="cls-16" d="M260,109.48a28,28,0,0,1,28,28V160H191.53V137.48a28,28,0,0,1,28-28H260m0-2H219.53a30,30,0,0,0-30,30V162H290V137.48a30,30,0,0,0-30-30Z"/></g><path class="cls-13" d="M450,137.48V244.37a30,30,0,0,1-30,30H321V107.48H420A30,30,0,0,1,450,137.48Z"/><circle class="cls-17" cx="283.06" cy="334.25" r="13.09"/><g class="cls-18"><path d="M285.61,331.55a1.93,1.93,0,0,1-1.24,1.8,2.21,2.21,0,0,1,1.66,2.13c0,1.5-1.24,2.41-3.24,2.41s-3.22-.91-3.22-2.39a2.23,2.23,0,0,1,1.73-2.15A2,2,0,0,1,280,331.5c0-1.32,1.09-2.13,2.8-2.13S285.61,330.2,285.61,331.55Zm-4.7,3.8c0,.91.68,1.42,1.88,1.42s1.9-.51,1.9-1.42-.7-1.39-1.9-1.39S280.91,334.47,280.91,335.35Zm.28-3.72c0,.78.6,1.22,1.6,1.22s1.61-.44,1.61-1.22-.59-1.24-1.61-1.24S281.19,330.85,281.19,331.63Z"/></g><g class="cls-18"><polygon class="cls-4" points="320.7 363.31 254.66 363.31 254.66 363.5 320.7 363.5 320.7 363.31 320.7 363.31"/></g><g class="cls-18"><polygon class="cls-4" points="385.79 363.31 320.71 363.31 320.71 363.5 385.79 363.5 385.79 363.31 385.79 363.31"/></g><g class="cls-18"><polygon class="cls-4" points="518.38 363.31 452.18 363.31 452.18 363.5 518.38 363.5 518.38 363.31 518.38 363.31"/></g><g class="cls-18"><polygon class="cls-4" points="584.4 363.31 518.2 363.31 518.2 363.5 584.4 363.5 584.4 363.31 584.4 363.31"/></g><g class="cls-18"><polygon class="cls-4" points="452.18 363.31 385.81 363.31 385.81 363.5 452.18 363.5 452.18 363.31 452.18 363.31"/></g><g class="cls-18"><polygon class="cls-4" points="649.07 363.31 584.15 363.31 584.15 363.5 649.07 363.5 649.07 363.31 649.07 363.31"/></g><rect class="cls-19" x="78.83" y="13.83" width="744.81" height="349.4"/><polygon class="cls-3" points="709.62 364.68 709.62 484.79 645.5 484.79 645.5 484.81 563.34 484.81 563.34 418.25 645.5 418.25 645.5 364.68 709.62 364.68"/><rect class="cls-20" x="79.18" y="161.28" width="210.82" height="60.8"/><path class="cls-20" d="M290,222.08v22.35a30,30,0,0,1-30,30H225.37V222.08Z"/><polygon class="cls-15" points="649.07 303.8 649.07 361.72 254.66 361.72 254.66 303.8 320.7 303.8 320.7 303.62 385.81 303.62 385.81 303.8 649.07 303.8"/><circle class="cls-1" cx="665.02" cy="41.29" r="13.09"/><path d="M669.69,47.22h-9.34a.36.36,0,0,1-.36-.36V35.73a.36.36,0,0,1,.36-.36h9.34a.36.36,0,0,1,.36.36V46.86A.36.36,0,0,1,669.69,47.22Zm-9.26-.43h9.18v-11h-9.18Z"/><path d="M668.83,47.22h-7.64a.36.36,0,0,1-.36-.36V36.53a.36.36,0,0,1,.36-.36h7.64a.36.36,0,0,1,.36.36V46.86A.36.36,0,0,1,668.83,47.22Zm-7.57-.43h7.49V36.6h-7.49Z"/><path d="M665.77,41H664.4a.33.33,0,0,1-.28-.16.36.36,0,0,1,0-.32l.69-1.19a.34.34,0,0,1,.28-.16.36.36,0,0,1,.28.16l.68,1.19a.32.32,0,0,1-.28.48Zm-1.18-.43h1l-.49-.86Zm.41-1.13Z"/><path d="M665.09,43.41a.32.32,0,0,1-.28-.16l-.69-1.19a.36.36,0,0,1,0-.32.33.33,0,0,1,.28-.16h1.37a.32.32,0,0,1,.28.48l-.68,1.19A.33.33,0,0,1,665.09,43.41Zm-.5-1.4.5.86.49-.86Z"/><polygon class="cls-13" points="745.98 71.99 745.98 106.48 681.16 106.48 681.16 107.36 320.95 107.36 320.95 71.99 745.98 71.99"/><polygon class="cls-15" points="226.13 222.08 225.37 222.08 225.37 219.91 226.13 222.08"/><polygon class="cls-11" points="254.66 304.42 254.66 363.23 188.07 363.23 188.07 222.08 225.37 222.08 225.37 274.43 225.31 274.43 225.31 304.42 254.66 304.42"/><line class="cls-21" x1="288.15" y1="304.42" x2="254.66" y2="304.42"/><circle class="cls-4" cx="402.25" cy="40.8" r="13.09"/><path d="M395,41.84h-2.38v2.53h-1.41V36h3.4c2.15,0,3.39,1,3.39,2.86a2.71,2.71,0,0,1-1.74,2.73l1.88,2.8h-1.61Zm-.39-1.26c1.3,0,2-.55,2-1.69s-.74-1.63-2-1.63h-2v3.32Z"/><path d="M406.2,40.19c0,2.72-1.27,4.23-3.56,4.23s-3.57-1.51-3.57-4.23S400.34,36,402.64,36,406.2,37.46,406.2,40.19Zm-5.68,0c0,2.12.7,3.11,2.12,3.11s2.11-1,2.11-3.11-.71-3.12-2.11-3.12S400.52,38.05,400.52,40.19Z"/><path d="M407.29,43.81l.55-1.07a3.51,3.51,0,0,0,1.86.53c1.63,0,2.38-1.22,2.34-3a2.73,2.73,0,0,1-5-1.48A2.69,2.69,0,0,1,410,35.93c2.12,0,3.41,1.51,3.41,4.09s-1.4,4.42-3.62,4.42A5.54,5.54,0,0,1,407.29,43.81Zm4.52-5.1a1.58,1.58,0,0,0-1.74-1.56,1.55,1.55,0,0,0-1.71,1.61A1.48,1.48,0,0,0,410,40.31,1.63,1.63,0,0,0,411.81,38.71Z"/><circle class="cls-4" cx="435.13" cy="40.8" r="13.09"/><path d="M427.76,41.84h-2.38v2.53H424V36h3.4c2.15,0,3.39,1,3.39,2.86A2.71,2.71,0,0,1,429,41.58l1.88,2.8h-1.61Zm-.39-1.26c1.3,0,2-.55,2-1.69s-.74-1.63-2-1.63h-2v3.32Z"/><path d="M439,40.19c0,2.72-1.27,4.23-3.56,4.23s-3.57-1.51-3.57-4.23S433.15,36,435.45,36,439,37.46,439,40.19Zm-5.68,0c0,2.12.7,3.11,2.12,3.11s2.11-1,2.11-3.11-.71-3.12-2.11-3.12S433.33,38.05,433.33,40.19Z"/><path d="M445.92,38.1a1.92,1.92,0,0,1-1.24,1.8A2.21,2.21,0,0,1,446.34,42c0,1.5-1.24,2.41-3.23,2.41s-3.23-.91-3.23-2.38a2.24,2.24,0,0,1,1.73-2.16,2,2,0,0,1-1.31-1.85c0-1.32,1.09-2.12,2.81-2.12S445.92,36.76,445.92,38.1Zm-4.7,3.8c0,.91.69,1.43,1.89,1.43S445,42.81,445,41.9s-.7-1.39-1.89-1.39S441.22,41,441.22,41.9Zm.28-3.72c0,.78.6,1.23,1.61,1.23s1.6-.45,1.6-1.23-.58-1.23-1.6-1.23S441.5,37.4,441.5,38.18Z"/><circle class="cls-4" cx="469.54" cy="40.8" r="13.09"/><path d="M462.5,41.84h-2.37v2.53h-1.41V36h3.4c2.15,0,3.38,1,3.38,2.86a2.69,2.69,0,0,1-1.74,2.73l1.89,2.8H464Zm-.38-1.26c1.3,0,2-.55,2-1.69s-.74-1.63-2-1.63h-2v3.32Z"/><path d="M473.76,40.19c0,2.72-1.27,4.23-3.56,4.23s-3.58-1.51-3.58-4.23S467.9,36,470.2,36,473.76,37.46,473.76,40.19Zm-5.68,0c0,2.12.7,3.11,2.12,3.11s2.11-1,2.11-3.11-.71-3.12-2.11-3.12S468.08,38.05,468.08,40.19Z"/><path d="M477.3,44.38h-1.5l3.27-7.12H475.8v1.17h-1.25V36h6.11v1.08Z"/><circle class="cls-4" cx="502.41" cy="40.8" r="13.09"/><path d="M495.11,41.84h-2.37v2.53h-1.42V36h3.41c2.14,0,3.38,1,3.38,2.86a2.69,2.69,0,0,1-1.74,2.73l1.88,2.8h-1.6Zm-.38-1.26c1.29,0,2-.55,2-1.69s-.75-1.63-2-1.63h-2v3.32Z"/><path d="M506.37,40.19c0,2.72-1.28,4.23-3.57,4.23s-3.57-1.51-3.57-4.23S500.5,36,502.8,36,506.37,37.46,506.37,40.19Zm-5.69,0c0,2.12.71,3.11,2.12,3.11s2.12-1,2.12-3.11-.71-3.12-2.12-3.12S500.68,38.05,500.68,40.19Z"/><path d="M513.41,36.56l-.55,1.07A3.65,3.65,0,0,0,511,37.1c-1.63,0-2.39,1.23-2.34,3A2.46,2.46,0,0,1,511,39a2.5,2.5,0,0,1,2.7,2.68,2.69,2.69,0,0,1-2.95,2.81c-2.12,0-3.42-1.51-3.42-4.09s1.4-4.42,3.62-4.42A5.59,5.59,0,0,1,513.41,36.56Zm-4.52,5.1a1.58,1.58,0,0,0,1.74,1.56,1.54,1.54,0,0,0,1.7-1.61,1.47,1.47,0,0,0-1.64-1.54A1.62,1.62,0,0,0,508.89,41.66Z"/><circle class="cls-4" cx="535.83" cy="40.8" r="13.09"/><path d="M528.75,41.84h-2.37v2.53H525V36h3.41c2.14,0,3.38,1,3.38,2.86A2.69,2.69,0,0,1,530,41.58l1.88,2.8h-1.6Zm-.38-1.26c1.29,0,2-.55,2-1.69s-.75-1.63-2-1.63h-2v3.32Z"/><path d="M540,40.19c0,2.72-1.28,4.23-3.57,4.23s-3.57-1.51-3.57-4.23S534.14,36,536.44,36,540,37.46,540,40.19Zm-5.69,0c0,2.12.71,3.11,2.12,3.11s2.11-1,2.11-3.11-.7-3.12-2.11-3.12S534.32,38.05,534.32,40.19Z"/><path d="M542.6,37.26v1.81h1.15c1.83,0,3,1.08,3,2.55a2.79,2.79,0,0,1-3.11,2.82,5.55,5.55,0,0,1-3-1l.56-1.15a3.62,3.62,0,0,0,2.27.89c1.09,0,1.75-.57,1.75-1.51s-.66-1.38-1.74-1.38c-.5,0-1.64,0-2.21.11V36h5.11l0,1.27Z"/><circle class="cls-4" cx="567.7" cy="40.8" r="13.09"/><path d="M560.5,41.84h-2.38v2.53h-1.41V36h3.4c2.15,0,3.38,1,3.38,2.86a2.69,2.69,0,0,1-1.74,2.73l1.89,2.8H562Zm-.39-1.26c1.3,0,2-.55,2-1.69s-.74-1.63-2-1.63h-2v3.32Z"/><path d="M571.75,40.19c0,2.72-1.27,4.23-3.56,4.23s-3.58-1.51-3.58-4.23S565.89,36,568.19,36,571.75,37.46,571.75,40.19Zm-5.68,0c0,2.12.7,3.11,2.12,3.11s2.11-1,2.11-3.11-.71-3.12-2.11-3.12S566.07,38.05,566.07,40.19Z"/><path d="M576.46,41.06v-2h1.32v2H579v1.26h-1.22v2.06h-1.32V42.32h-4v-1L575.32,36h1.36L574,41.06Z"/><circle class="cls-4" cx="601" cy="40.8" r="13.09"/><path d="M594.16,41.84h-2.38v2.53h-1.41V36h3.4c2.15,0,3.39,1,3.39,2.86a2.71,2.71,0,0,1-1.74,2.73l1.88,2.8h-1.61Zm-.39-1.26c1.3,0,2-.55,2-1.69s-.74-1.63-2-1.63h-2v3.32Z"/><path d="M605.41,40.19c0,2.72-1.27,4.23-3.56,4.23s-3.57-1.51-3.57-4.23S599.55,36,601.85,36,605.41,37.46,605.41,40.19Zm-5.68,0c0,2.12.7,3.11,2.12,3.11s2.11-1,2.11-3.11-.71-3.12-2.11-3.12S599.73,38.05,599.73,40.19Z"/><path d="M609.33,39.53a2.27,2.27,0,0,1,2.36,2.25c0,1.57-1.19,2.66-3.06,2.66a4.87,4.87,0,0,1-2.83-.91l.59-1.15a3.19,3.19,0,0,0,2.14.88c1.12,0,1.77-.58,1.77-1.44s-.66-1.38-1.78-1.38h-1.16v-.83l2.18-2.35h-3.36V36h5.11v.89l-2.4,2.59Z"/><circle class="cls-4" cx="632.88" cy="40.8" r="13.09"/><path d="M625.74,41.84h-2.38v2.53H622V36h3.41c2.14,0,3.38,1,3.38,2.86A2.71,2.71,0,0,1,627,41.58l1.88,2.8h-1.61Zm-.38-1.26c1.29,0,2-.55,2-1.69s-.74-1.63-2-1.63h-2v3.32Z"/><path d="M637,40.19c0,2.72-1.27,4.23-3.56,4.23s-3.57-1.51-3.57-4.23S631.13,36,633.43,36,637,37.46,637,40.19Zm-5.68,0c0,2.12.71,3.11,2.12,3.11s2.11-1,2.11-3.11-.7-3.12-2.11-3.12S631.31,38.05,631.31,40.19Z"/><path d="M643.46,38a4.7,4.7,0,0,1-1.53,2.76l-2.19,2.31h4.11v1.27h-6v-1L641,40a3.09,3.09,0,0,0,1-1.79c0-.67-.53-1.08-1.41-1.08a3.64,3.64,0,0,0-2.29,1.06l-.56-1.09a4.88,4.88,0,0,1,3.06-1.2C642.37,35.93,643.46,36.76,643.46,38Z"/><circle class="cls-4" cx="713.14" cy="40.8" r="13.09"/><path d="M707.21,41.84h-2.38v2.53h-1.41V36h3.4c2.15,0,3.38,1,3.38,2.86a2.7,2.7,0,0,1-1.73,2.73l1.88,2.8h-1.61Zm-.39-1.26c1.3,0,2-.55,2-1.69s-.74-1.63-2-1.63h-2v3.32Z"/><path d="M718.46,40.19c0,2.72-1.27,4.23-3.56,4.23s-3.58-1.51-3.58-4.23S712.6,36,714.9,36,718.46,37.46,718.46,40.19Zm-5.68,0c0,2.12.7,3.11,2.12,3.11s2.11-1,2.11-3.11-.71-3.12-2.11-3.12S712.78,38.05,712.78,40.19Z"/><path d="M720.6,44.38V37.25H719V36h3v8.39Z"/><circle class="cls-4" cx="290.73" cy="40.8" r="13.09"/><path d="M284.79,41.84h-2.37v2.53H281V36h3.41c2.15,0,3.38,1,3.38,2.86a2.69,2.69,0,0,1-1.74,2.73l1.89,2.8h-1.61Zm-.38-1.26c1.3,0,2-.55,2-1.69s-.74-1.63-2-1.63h-2v3.32Z"/><path d="M290.14,44.38V37.25h-1.65V36h3.06v8.39Z"/><path d="M300.45,40.19c0,2.72-1.27,4.23-3.56,4.23s-3.57-1.51-3.57-4.23S294.59,36,296.89,36,300.45,37.46,300.45,40.19Zm-5.68,0c0,2.12.7,3.11,2.12,3.11s2.11-1,2.11-3.11-.71-3.12-2.11-3.12S294.77,38.05,294.77,40.19Z"/><path class="cls-4" d="M745,16.16V70.9H682.16V16.16H745m1-1H681.16V71.9H746V15.16Z"/><path class="cls-4" d="M517.38,16.3V70.63h-64.2V16.3h64.2m1-1h-66.2V71.63h66.2V15.3Z"/><path class="cls-4" d="M451.18,16.25V70.63H386.81V16.25h64.37m1-1H385.81V71.63h66.37V15.25Z"/><path class="cls-4" d="M648.07,16.3V70.63H585.15V16.3h62.92m1-1H584.15V71.63h64.92V15.3Z"/><path class="cls-4" d="M384.81,16.25V70.63H219.29a29,29,0,0,1-29-29V16.25H384.81m1-1H189.29V41.63a30,30,0,0,0,30,30H385.81V15.25Z"/><path class="cls-4" d="M517.38,16.3V70.63H486.32V16.3h31.06m1-1H485.32V71.63h33.06V15.3Z"/><path class="cls-4" d="M417.85,16.25V70.63h-31V16.25h31m1-1h-33V71.63h33V15.25Z"/><path class="cls-4" d="M583.15,16.31V70.63H519.38V16.31h63.77m1-1H518.38V71.63h65.77V15.31Z"/><path class="cls-4" d="M583.15,16.31V70.63h-30.7V16.31h30.7m1-1h-32.7V71.63h32.7V15.31Z"/><path class="cls-4" d="M648.07,16.3V70.63H617.7V16.3h30.37m1-1H616.7V71.63h32.37V15.3Z"/><path class="cls-4" d="M821.15,107.48V360.71h-139V107.48h139m1-1h-141V361.71h141V106.48Z"/><rect class="cls-6" x="79.95" y="419.41" width="162.13" height="31.34" rx="15.67"/><rect class="cls-22" x="79.95" y="455.59" width="162.13" height="31.34" rx="15.67"/><rect class="cls-2" x="79.95" y="490.92" width="162.13" height="31.34" rx="15.67"/><rect class="cls-13" x="79.95" y="526.53" width="162.13" height="31.34" rx="15.67"/><rect class="cls-11" x="251.89" y="419.41" width="162.13" height="31.34" rx="15.67"/><rect class="cls-11" x="251.89" y="455.59" width="162.13" height="31.34" rx="15.67"/><rect class="cls-11" x="251.89" y="490.92" width="162.13" height="31.34" rx="15.67"/><rect class="cls-11" x="251.89" y="526.53" width="162.13" height="31.34" rx="15.67"/><circle class="cls-23" cx="95.84" cy="434.81" r="13.09"/><path d="M100.07,440.76h-8.4a.36.36,0,0,1-.36-.36v-6.75a.22.22,0,0,1,.44,0v6.67H100v-6.44a.21.21,0,0,1,.21-.21.21.21,0,0,1,.22.21v6.52A.36.36,0,0,1,100.07,440.76Z"/><path d="M100.56,434.31a.36.36,0,0,1-.2-.06l-4.52-3.16-4.65,3.09a.35.35,0,0,1-.49-.09l-.67-.91a.36.36,0,0,1,.09-.52l5.67-3.74a.36.36,0,0,1,.41,0l5.37,3.83h0a.35.35,0,0,1,.15.26.37.37,0,0,1-.09.28l-.8.89A.36.36,0,0,1,100.56,434.31Zm-4.72-3.67a.37.37,0,0,1,.21.06l4.5,3.16.71-.79L96,429.31,90.42,433l.59.8,4.63-3.08A.39.39,0,0,1,95.84,430.64Z"/><circle class="cls-4" cx="267.78" cy="470.92" r="13.58"/><circle class="cls-24" cx="267.78" cy="470.92" r="13.09"/><path d="M272.87,475.59H261.65a.36.36,0,0,1-.36-.36v-1.7a.36.36,0,0,1,.36-.36h2.41v-1.86a.36.36,0,0,1,.36-.36H267v-1.78a.36.36,0,0,1,.36-.36h2.43V467a.36.36,0,0,1,.36-.36h2.75a.36.36,0,0,1,.36.36v8.25A.36.36,0,0,1,272.87,475.59Zm-11.15-.43H272.8v-8.11h-2.61v1.83a.36.36,0,0,1-.36.36H267.4V471a.36.36,0,0,1-.36.36h-2.55v1.86a.36.36,0,0,1-.36.36h-2.41Z"/><path d="M260.55,471.32a.2.2,0,0,1-.17-.09.22.22,0,0,1,0-.3l8.91-6.62a.31.31,0,0,1,.21-.07h2.29a.21.21,0,0,1,.22.21.22.22,0,0,1-.22.22h-2.27l-8.88,6.61A.2.2,0,0,1,260.55,471.32Z"/><path d="M262.6,473.6a.22.22,0,0,1-.22-.22V469.6a.22.22,0,0,1,.22-.22.21.21,0,0,1,.21.22v3.78A.21.21,0,0,1,262.6,473.6Z"/><path d="M271.63,467.05a.22.22,0,0,1-.22-.22v-2.38a.22.22,0,0,1,.44,0v2.38A.22.22,0,0,1,271.63,467.05Z"/><circle class="cls-4" cx="717.63" cy="188.94" r="13.58"/><circle class="cls-24" cx="717.63" cy="188.94" r="13.09"/><path d="M722.72,193.62H711.5a.36.36,0,0,1-.36-.36v-1.71a.36.36,0,0,1,.36-.36h2.41v-1.85a.36.36,0,0,1,.36-.36h2.55v-1.79a.36.36,0,0,1,.36-.36h2.43V185a.36.36,0,0,1,.36-.36h2.75a.36.36,0,0,1,.36.36v8.26A.36.36,0,0,1,722.72,193.62Zm-11.15-.43h11.08v-8.12H720v1.84a.36.36,0,0,1-.36.36h-2.43v1.78a.36.36,0,0,1-.36.36h-2.55v1.86a.36.36,0,0,1-.36.36h-2.41Z"/><path d="M710.4,189.35a.2.2,0,0,1-.17-.09.22.22,0,0,1,0-.3l8.91-6.63a.38.38,0,0,1,.21-.07h2.29a.22.22,0,1,1,0,.44h-2.27l-8.88,6.6A.21.21,0,0,1,710.4,189.35Z"/><path d="M712.45,191.63a.22.22,0,0,1-.22-.22v-3.79a.21.21,0,0,1,.22-.21.21.21,0,0,1,.21.21v3.79A.21.21,0,0,1,712.45,191.63Z"/><path d="M721.48,185.07a.21.21,0,0,1-.22-.21v-2.38a.22.22,0,0,1,.44,0v2.38A.21.21,0,0,1,721.48,185.07Z"/><circle class="cls-4" cx="746.92" cy="89.09" r="13.58"/><circle class="cls-24" cx="746.92" cy="89.09" r="13.09"/><path d="M752,93.77H740.79a.36.36,0,0,1-.36-.36V91.7a.36.36,0,0,1,.36-.36h2.41V89.49a.36.36,0,0,1,.36-.36h2.55V87.35a.36.36,0,0,1,.36-.36h2.43V85.15a.36.36,0,0,1,.36-.36H752a.36.36,0,0,1,.36.36v8.26A.36.36,0,0,1,752,93.77Zm-11.15-.43h11.08V85.23h-2.61v1.83a.36.36,0,0,1-.36.36h-2.43V89.2a.36.36,0,0,1-.36.36h-2.55v1.86a.36.36,0,0,1-.36.36h-2.41Z"/><path d="M739.69,89.5a.23.23,0,0,1-.18-.09.21.21,0,0,1,0-.3l8.9-6.62a.35.35,0,0,1,.22-.08H751a.22.22,0,1,1,0,.44H748.7l-8.88,6.6A.24.24,0,0,1,739.69,89.5Z"/><path d="M741.73,91.78a.22.22,0,0,1-.21-.22V87.77a.22.22,0,0,1,.43,0v3.79A.22.22,0,0,1,741.73,91.78Z"/><path d="M750.77,85.23a.22.22,0,0,1-.22-.22V82.63a.22.22,0,0,1,.22-.22.21.21,0,0,1,.21.22V85A.21.21,0,0,1,750.77,85.23Z"/><circle class="cls-4" cx="209.11" cy="339.82" r="13.58"/><circle class="cls-24" cx="209.11" cy="339.82" r="13.09"/><path d="M214.2,344.5H203a.36.36,0,0,1-.36-.36v-1.71a.36.36,0,0,1,.36-.36h2.4v-1.85a.36.36,0,0,1,.36-.36h2.56v-1.79a.36.36,0,0,1,.36-.36h2.43v-1.83a.36.36,0,0,1,.36-.36h2.75a.36.36,0,0,1,.36.36v8.26A.36.36,0,0,1,214.2,344.5Zm-11.15-.43h11.08V336h-2.61v1.84a.36.36,0,0,1-.36.36h-2.43v1.78a.36.36,0,0,1-.36.36h-2.55v1.86a.37.37,0,0,1-.36.36h-2.41Z"/><path d="M201.88,340.23a.23.23,0,0,1-.18-.09.21.21,0,0,1,.05-.3l8.9-6.63a.41.41,0,0,1,.22-.07h2.29a.22.22,0,0,1,0,.44h-2.27l-8.88,6.6A.24.24,0,0,1,201.88,340.23Z"/><path d="M203.92,342.51a.21.21,0,0,1-.21-.22V338.5a.21.21,0,0,1,.21-.21.21.21,0,0,1,.22.21v3.79A.22.22,0,0,1,203.92,342.51Z"/><path d="M213,336a.21.21,0,0,1-.22-.21v-2.38a.22.22,0,0,1,.22-.22.21.21,0,0,1,.21.22v2.38A.21.21,0,0,1,213,336Z"/><circle class="cls-1" cx="267.78" cy="434.91" r="13.09"/><circle class="cls-4" cx="267.78" cy="434.91" r="13.58"/><circle class="cls-24" cx="267.78" cy="434.91" r="13.09"/><path d="M273.51,438.49H261.39a.37.37,0,0,1-.36-.37V436.2a.35.35,0,0,1,.18-.31l12.12-6.9a.38.38,0,0,1,.36,0,.37.37,0,0,1,.18.31v8.82A.37.37,0,0,1,273.51,438.49Zm-12.05-.44h12v-8.62l-12,6.82Z"/><circle class="cls-1" cx="784.79" cy="59.39" r="13.09"/><circle class="cls-4" cx="784.79" cy="59.4" r="13.58"/><circle class="cls-24" cx="784.79" cy="59.4" r="13.09"/><path d="M790.52,63H778.39a.36.36,0,0,1-.36-.36V60.69a.37.37,0,0,1,.19-.32l12.12-6.9a.36.36,0,0,1,.36,0,.35.35,0,0,1,.18.31v8.82A.36.36,0,0,1,790.52,63Zm-12-.43h12V53.91l-12,6.82Z"/><path d="M115.89,430.28h1.2v7.35h4.54v1h-5.74Z"/><path d="M122.18,435.5a3.3,3.3,0,1,1,3.31,3.25A3.16,3.16,0,0,1,122.18,435.5Zm5.44,0a2.14,2.14,0,1,0-4.28,0,2.14,2.14,0,1,0,4.28,0Z"/><path d="M129.8,435.5a3.17,3.17,0,0,1,3.35-3.24,2.84,2.84,0,0,1,2.59,1.35l-.87.57a2,2,0,0,0-1.73-.91,2.24,2.24,0,0,0,0,4.47,2,2,0,0,0,1.73-.91l.87.55a2.84,2.84,0,0,1-2.59,1.37A3.18,3.18,0,0,1,129.8,435.5Z"/><path d="M142.27,434.84v3.83h-1.09v-.83a2.37,2.37,0,0,1-2.09.91c-1.44,0-2.35-.77-2.35-1.87s.66-1.86,2.56-1.86h1.82v-.23c0-1-.56-1.54-1.7-1.54a3.22,3.22,0,0,0-2,.69l-.48-.87a4.29,4.29,0,0,1,2.63-.81C141.29,432.26,142.27,433.1,142.27,434.84Zm-1.15,1.89v-.89h-1.77c-1.14,0-1.47.45-1.47,1s.53,1,1.41,1A1.85,1.85,0,0,0,141.12,436.73Z"/><path d="M144.41,429.78h1.15v8.89h-1.15Z"/><path d="M153.48,435.88h-5.16a2.16,2.16,0,0,0,2.31,1.86,2.36,2.36,0,0,0,1.83-.77l.64.75a3.47,3.47,0,0,1-5.93-2.22,3.11,3.11,0,0,1,3.19-3.24,3.06,3.06,0,0,1,3.14,3.27C153.5,435.63,153.49,435.77,153.48,435.88Zm-5.16-.83h4.08a2.05,2.05,0,0,0-4.08,0Z"/><path d="M154.3,438l.48-.91a4,4,0,0,0,2.23.66c1.07,0,1.51-.32,1.51-.86,0-1.43-4-.19-4-2.72,0-1.14,1-1.91,2.65-1.91a4.63,4.63,0,0,1,2.32.57l-.49.92a3.29,3.29,0,0,0-1.84-.51c-1,0-1.5.37-1.5.88,0,1.5,4,.27,4,2.74,0,1.15-1,1.89-2.74,1.89A4.59,4.59,0,0,1,154.3,438Z"/><path d="M170.12,438.67l-1.81-2.57-.53,0h-2.07v2.55h-1.2v-8.39h3.27c2.19,0,3.51,1.1,3.51,2.93a2.66,2.66,0,0,1-1.85,2.65l2,2.81Zm0-5.46c0-1.2-.81-1.89-2.34-1.89h-2v3.78h2C169.28,435.1,170.09,434.41,170.09,433.21Z"/><path d="M172.55,434.48c0-2.74,1.46-4.3,3.43-4.3s3.42,1.56,3.42,4.3-1.46,4.29-3.42,4.29S172.55,437.21,172.55,434.48Zm5.65,0c0-2.15-.91-3.23-2.22-3.23s-2.23,1.08-2.23,3.23.91,3.22,2.23,3.22S178.2,436.62,178.2,434.48Z"/><path d="M183.12,430.28v8.39h-1.19v-7.35H180v-1Z"/><path d="M185.07,434.88h3.22v1h-3.22Z"/><path d="M195.85,438.67,194,436.1l-.53,0h-2.07v2.55h-1.2v-8.39h3.27c2.19,0,3.5,1.1,3.5,2.93a2.65,2.65,0,0,1-1.84,2.65l2,2.81Zm0-5.46c0-1.2-.81-1.89-2.34-1.89h-2v3.78h2C195,435.1,195.82,434.41,195.82,433.21Z"/><path d="M200.88,430.28v8.39h-1.19v-7.35H197.8v-1Z"/><path d="M202.72,434.48c0-2.74,1.46-4.3,3.43-4.3s3.42,1.56,3.42,4.3-1.47,4.29-3.42,4.29S202.72,437.21,202.72,434.48Zm5.65,0c0-2.15-.91-3.23-2.22-3.23s-2.23,1.08-2.23,3.23.91,3.22,2.23,3.22S208.37,436.62,208.37,434.48Z"/><path d="M123.11,501.47v8.39h-1.2v-3.74h-4.82v3.74h-1.2v-8.39h1.2v3.61h4.82v-3.61Z"/><path d="M131.39,503.51v6.35H130.3v-1a2.59,2.59,0,0,1-2.16,1,2.5,2.5,0,0,1-2.74-2.77v-3.65h1.15V507c0,1.25.63,1.87,1.72,1.87a1.87,1.87,0,0,0,2-2.11v-3.28Z"/><path d="M139.31,507.07h-5.16a2.15,2.15,0,0,0,2.3,1.86,2.4,2.4,0,0,0,1.84-.77l.63.74a3.46,3.46,0,0,1-5.92-2.22,3.1,3.1,0,0,1,3.19-3.23,3.06,3.06,0,0,1,3.14,3.27C139.33,506.82,139.32,507,139.31,507.07Zm-5.16-.83h4.08a2.05,2.05,0,0,0-4.08,0Z"/><path d="M144.35,503.45v1.11h-.26a1.9,1.9,0,0,0-2,2.15v3.16h-1.15v-6.35H142v1.06A2.44,2.44,0,0,1,144.35,503.45Z"/><path d="M149.61,509.49a2.19,2.19,0,0,1-1.4.44,1.81,1.81,0,0,1-2-2v-3.49h-1.08v-.94h1.08v-1.4h1.15v1.4h1.82v.94h-1.82v3.44a.94.94,0,0,0,1,1.07,1.48,1.48,0,0,0,.9-.3Z"/><path d="M150.2,506.68a3.3,3.3,0,1,1,3.31,3.25A3.16,3.16,0,0,1,150.2,506.68Zm5.44,0a2.14,2.14,0,1,0-4.28,0,2.14,2.14,0,1,0,4.28,0Z"/><path d="M121.24,543.84h-4.47l-.92,2.1h-1.23l3.8-8.39h1.18l3.82,8.39h-1.26Zm-.42-1L119,538.77l-1.81,4.11Zm-1.62-6h-1.08l1.63-1.56h1.46Z"/><path d="M127.92,539.53v1.11h-.26a1.9,1.9,0,0,0-2,2.15v3.16H124.5v-6.35h1.11v1.06A2.42,2.42,0,0,1,127.92,539.53Z"/><path d="M135,543.15h-5.16a2.17,2.17,0,0,0,2.31,1.86,2.39,2.39,0,0,0,1.83-.77l.64.74a3.22,3.22,0,0,1-2.51,1,3.18,3.18,0,0,1-3.42-3.25,3.11,3.11,0,0,1,3.19-3.23A3.06,3.06,0,0,1,135,542.8C135,542.9,135,543,135,543.15Zm-5.16-.83h4.08a2.05,2.05,0,0,0-4.08,0Z"/><path d="M141.48,542.1v3.84h-1.09v-.84a2.36,2.36,0,0,1-2.09.91c-1.44,0-2.35-.76-2.35-1.87s.66-1.86,2.56-1.86h1.82v-.22c0-1-.57-1.54-1.7-1.54a3.21,3.21,0,0,0-2,.68l-.48-.86a4.23,4.23,0,0,1,2.63-.81C140.5,539.53,141.48,540.37,141.48,542.1Zm-1.15,1.9v-.89h-1.78c-1.14,0-1.46.45-1.46,1s.53,1,1.4,1A1.85,1.85,0,0,0,140.33,544Z"/><path d="M152.84,537v8.9h-1.1v-1a2.69,2.69,0,0,1-2.27,1.08,3.24,3.24,0,0,1,0-6.48,2.69,2.69,0,0,1,2.22,1V537Zm-1.14,5.72a2.14,2.14,0,1,0-4.28,0,2.14,2.14,0,1,0,4.28,0Z"/><path d="M160.75,543.15h-5.16A2.17,2.17,0,0,0,157.9,545a2.39,2.39,0,0,0,1.83-.77l.64.74a3.47,3.47,0,0,1-5.93-2.22,3.11,3.11,0,0,1,3.19-3.23,3.07,3.07,0,0,1,3.15,3.27C160.78,542.9,160.76,543,160.75,543.15Zm-5.16-.83h4.08a2.05,2.05,0,0,0-4.08,0Z"/><path d="M176.16,542.28v3.66H175v-3.52c0-1.25-.59-1.86-1.64-1.86s-1.9.73-1.9,2.11v3.27H170.3v-3.52c0-1.25-.6-1.86-1.64-1.86a1.85,1.85,0,0,0-1.91,2.11v3.27H165.6v-6.35h1.11v.94a2.57,2.57,0,0,1,2.19-1,2.36,2.36,0,0,1,2.21,1.17,2.85,2.85,0,0,1,2.44-1.17A2.43,2.43,0,0,1,176.16,542.28Z"/><path d="M184,543.15h-5.15a2.15,2.15,0,0,0,2.3,1.86,2.38,2.38,0,0,0,1.83-.77l.64.74a3.47,3.47,0,0,1-5.93-2.22,3.11,3.11,0,0,1,3.19-3.23,3.07,3.07,0,0,1,3.15,3.27C184.07,542.9,184.05,543,184,543.15Zm-5.15-.83H183a2,2,0,0,0-4.07,0Z"/><path d="M184.86,545.27l.48-.91a4.13,4.13,0,0,0,2.23.66c1.07,0,1.51-.32,1.51-.86,0-1.43-4-.2-4-2.73,0-1.14,1-1.9,2.65-1.9a4.62,4.62,0,0,1,2.31.57l-.49.91a3.34,3.34,0,0,0-1.84-.5c-1,0-1.49.37-1.49.87,0,1.5,4,.28,4,2.75,0,1.15-1.06,1.88-2.75,1.88A4.59,4.59,0,0,1,184.86,545.27Z"/><path d="M196.71,542.1v3.84h-1.09v-.84a2.34,2.34,0,0,1-2.08.91c-1.44,0-2.35-.76-2.35-1.87s.66-1.86,2.55-1.86h1.82v-.22c0-1-.56-1.54-1.7-1.54a3.18,3.18,0,0,0-2,.68l-.48-.86a4.2,4.2,0,0,1,2.62-.81C195.73,539.53,196.71,540.37,196.71,542.1Zm-1.15,1.9v-.89h-1.77c-1.14,0-1.46.45-1.46,1s.52,1,1.4,1A1.84,1.84,0,0,0,195.56,544Z"/><path d="M198.05,545.27l.48-.91a4.11,4.11,0,0,0,2.23.66c1.07,0,1.51-.32,1.51-.86,0-1.43-4-.2-4-2.73,0-1.14,1-1.9,2.65-1.9a4.63,4.63,0,0,1,2.32.57l-.49.91a3.34,3.34,0,0,0-1.84-.5c-1,0-1.5.37-1.5.87,0,1.5,4,.28,4,2.75,0,1.15-1,1.88-2.74,1.88A4.59,4.59,0,0,1,198.05,545.27Z"/><path d="M297.27,543.9v1h-6.1v-8.39h5.93v1h-4.73v2.58h4.21v1h-4.21v2.71Z"/><path d="M298.16,544.27l.48-.91a4.11,4.11,0,0,0,2.23.66c1.07,0,1.51-.32,1.51-.86,0-1.43-4-.2-4-2.73,0-1.14,1-1.9,2.65-1.9a4.63,4.63,0,0,1,2.32.57l-.49.91a3.34,3.34,0,0,0-1.84-.5c-1,0-1.5.37-1.5.87,0,1.5,4,.28,4,2.75,0,1.15-1,1.88-2.74,1.88A4.59,4.59,0,0,1,298.16,544.27Z"/><path d="M308.55,544.57a2.18,2.18,0,0,1-1.39.44,1.81,1.81,0,0,1-2-2v-3.49h-1.08v-.94h1.08v-1.4h1.15v1.4h1.83v.94h-1.83V543a.93.93,0,0,0,1,1.06,1.45,1.45,0,0,0,.9-.3Z"/><path d="M315,541.1v3.84h-1.09v-.84a2.36,2.36,0,0,1-2.09.91c-1.44,0-2.35-.76-2.35-1.87s.66-1.86,2.55-1.86h1.83v-.22c0-1-.57-1.54-1.7-1.54a3.21,3.21,0,0,0-2,.68l-.48-.86a4.23,4.23,0,0,1,2.63-.81C314,538.53,315,539.37,315,541.1Zm-1.15,1.9v-.89h-1.78c-1.14,0-1.46.45-1.46,1s.53,1,1.4,1A1.85,1.85,0,0,0,313.83,543Z"/><path d="M316.57,541.76a3.17,3.17,0,0,1,3.35-3.23,2.82,2.82,0,0,1,2.59,1.35l-.87.56a2,2,0,0,0-1.73-.91,2.24,2.24,0,0,0,0,4.48,2,2,0,0,0,1.73-.91l.87.55a2.85,2.85,0,0,1-2.59,1.36A3.18,3.18,0,0,1,316.57,541.76Z"/><path d="M323.8,536.62a.76.76,0,0,1,.78-.76.75.75,0,1,1-.78.76Zm.21,2h1.15v6.35H324Z"/><path d="M326.77,541.76a3.31,3.31,0,1,1,3.31,3.25A3.16,3.16,0,0,1,326.77,541.76Zm5.44,0a2.14,2.14,0,1,0-4.28,0,2.14,2.14,0,1,0,4.28,0Z"/><path d="M341,541.28v3.66h-1.15v-3.52c0-1.25-.63-1.86-1.72-1.86a1.88,1.88,0,0,0-2,2.11v3.27H335v-6.35h1.11v1a2.72,2.72,0,0,1,2.29-1A2.46,2.46,0,0,1,341,541.28Z"/><path d="M348.18,541.1v3.84h-1.09v-.84A2.34,2.34,0,0,1,345,545c-1.43,0-2.35-.76-2.35-1.87s.66-1.86,2.56-1.86H347v-.22c0-1-.56-1.54-1.7-1.54a3.23,3.23,0,0,0-2,.68l-.47-.86a4.18,4.18,0,0,1,2.62-.81C347.2,538.53,348.18,539.37,348.18,541.1ZM347,543v-.89h-1.77c-1.14,0-1.47.45-1.47,1s.53,1,1.41,1A1.85,1.85,0,0,0,347,543Z"/><path d="M360.88,541.28v3.66h-1.16v-3.52c0-1.25-.59-1.86-1.64-1.86a1.85,1.85,0,0,0-1.91,2.11v3.27H355v-3.52c0-1.25-.6-1.86-1.64-1.86a1.85,1.85,0,0,0-1.91,2.11v3.27h-1.15v-6.35h1.1v.94a2.61,2.61,0,0,1,2.2-1,2.36,2.36,0,0,1,2.21,1.17,2.85,2.85,0,0,1,2.44-1.17A2.43,2.43,0,0,1,360.88,541.28Z"/><path d="M362.8,536.62a.76.76,0,0,1,.78-.76.75.75,0,1,1-.78.76Zm.21,2h1.15v6.35H363Z"/><path d="M372.08,542.15h-5.16a2.15,2.15,0,0,0,2.3,1.86,2.41,2.41,0,0,0,1.84-.77l.63.74a3.46,3.46,0,0,1-5.92-2.22,3.1,3.1,0,0,1,3.19-3.23,3.07,3.07,0,0,1,3.14,3.27C372.1,541.9,372.09,542,372.08,542.15Zm-5.16-.83H371a2.05,2.05,0,0,0-4.08,0Z"/><path d="M379.73,541.28v3.66h-1.15v-3.52c0-1.25-.62-1.86-1.72-1.86a1.88,1.88,0,0,0-2,2.11v3.27H373.7v-6.35h1.1v1a2.73,2.73,0,0,1,2.29-1A2.46,2.46,0,0,1,379.73,541.28Z"/><path d="M385.44,544.57a2.14,2.14,0,0,1-1.39.44,1.81,1.81,0,0,1-2-2v-3.49H381v-.94H382v-1.4h1.15v1.4H385v.94h-1.82V543a.93.93,0,0,0,1,1.06,1.45,1.45,0,0,0,.9-.3Z"/><path d="M386,541.76a3.31,3.31,0,1,1,3.31,3.25A3.16,3.16,0,0,1,386,541.76Zm5.45,0a2.14,2.14,0,1,0-2.14,2.25A2.09,2.09,0,0,0,391.48,541.76Z"/><path d="M297.27,509v1h-6.1v-8.39h5.93v1h-4.73v2.58h4.21v1h-4.21V509Z"/><path d="M299.05,501.11h1.15V510h-1.15Z"/><path d="M308.12,507.22H303a2.15,2.15,0,0,0,2.3,1.86,2.38,2.38,0,0,0,1.84-.77l.63.74a3.46,3.46,0,0,1-5.92-2.21A3.11,3.11,0,0,1,305,503.6a3.07,3.07,0,0,1,3.14,3.27C308.14,507,308.13,507.11,308.12,507.22Zm-5.16-.83H307a2.05,2.05,0,0,0-4.08,0Z"/><path d="M315.24,503.66,312.46,510h-1.18l-2.78-6.35h1.2l2.18,5.09,2.24-5.09Z"/><path d="M321.16,506.18V510h-1.09v-.84a2.36,2.36,0,0,1-2.09.92c-1.44,0-2.35-.77-2.35-1.88s.66-1.85,2.55-1.85H320v-.23c0-1-.57-1.54-1.7-1.54a3.22,3.22,0,0,0-2,.69l-.48-.87a4.29,4.29,0,0,1,2.63-.81C320.18,503.6,321.16,504.44,321.16,506.18ZM320,508.07v-.89h-1.78c-1.14,0-1.46.45-1.46,1s.53,1,1.4,1A1.85,1.85,0,0,0,320,508.07Z"/><path d="M329.33,501.11V510h-1.1v-1a2.69,2.69,0,0,1-2.27,1.08,3.25,3.25,0,0,1,0-6.49,2.69,2.69,0,0,1,2.22,1v-3.51Zm-1.14,5.73a2.14,2.14,0,1,0-2.13,2.24A2.09,2.09,0,0,0,328.19,506.84Z"/><path d="M330.93,506.84a3.31,3.31,0,1,1,3.31,3.25A3.16,3.16,0,0,1,330.93,506.84Zm5.45,0a2.15,2.15,0,1,0-2.14,2.24A2.1,2.1,0,0,0,336.38,506.84Z"/><path d="M342.56,503.6v1.11h-.27a1.9,1.9,0,0,0-2,2.15V510h-1.15v-6.35h1.1v1.06A2.44,2.44,0,0,1,342.56,503.6Z"/><path d="M297.27,473.72v1h-6.1v-8.4h5.93v1h-4.73V470h4.21v1h-4.21v2.71Z"/><path d="M298.16,474.1l.48-.92a4,4,0,0,0,2.23.66c1.07,0,1.51-.32,1.51-.86,0-1.43-4-.19-4-2.72,0-1.14,1-1.91,2.65-1.91a4.63,4.63,0,0,1,2.32.58l-.49.91a3.35,3.35,0,0,0-1.84-.51c-1,0-1.5.38-1.5.88,0,1.5,4,.27,4,2.75,0,1.15-1,1.88-2.74,1.88A4.67,4.67,0,0,1,298.16,474.1Z"/><path d="M304.39,471.59a3.17,3.17,0,0,1,3.36-3.24,2.85,2.85,0,0,1,2.59,1.36l-.88.56a2,2,0,0,0-1.73-.91,2.24,2.24,0,0,0,0,4.47,2,2,0,0,0,1.73-.91l.88.55a2.86,2.86,0,0,1-2.59,1.37A3.19,3.19,0,0,1,304.39,471.59Z"/><path d="M316.86,470.93v3.84h-1.09v-.84a2.37,2.37,0,0,1-2.09.91c-1.43,0-2.34-.77-2.34-1.87s.65-1.86,2.55-1.86h1.82v-.23c0-1-.56-1.53-1.7-1.53a3.23,3.23,0,0,0-2,.68l-.48-.86a4.23,4.23,0,0,1,2.63-.82C315.88,468.35,316.86,469.19,316.86,470.93Zm-1.15,1.89v-.88h-1.77c-1.14,0-1.47.44-1.47,1s.53,1,1.41,1A1.85,1.85,0,0,0,315.71,472.82Z"/><path d="M319,465.87h1.15v8.9H319Z"/><path d="M328.07,472h-5.16a2.16,2.16,0,0,0,2.31,1.86,2.36,2.36,0,0,0,1.83-.77l.64.75a3.47,3.47,0,0,1-5.93-2.22,3.12,3.12,0,0,1,3.19-3.24,3.06,3.06,0,0,1,3.14,3.27C328.09,471.72,328.08,471.86,328.07,472Zm-5.16-.83H327a2.05,2.05,0,0,0-4.08,0Z"/><path d="M333.11,468.35v1.12a1.18,1.18,0,0,0-.26,0,1.9,1.9,0,0,0-2,2.15v3.17h-1.15v-6.36h1.11v1.07A2.42,2.42,0,0,1,333.11,468.35Z"/><path d="M339.56,470.93v3.84h-1.1v-.84a2.36,2.36,0,0,1-2.08.91c-1.44,0-2.35-.77-2.35-1.87s.66-1.86,2.55-1.86h1.82v-.23c0-1-.56-1.53-1.7-1.53a3.2,3.2,0,0,0-2,.68l-.48-.86a4.2,4.2,0,0,1,2.62-.82C338.57,468.35,339.56,469.19,339.56,470.93Zm-1.16,1.89v-.88h-1.77c-1.14,0-1.46.44-1.46,1s.52,1,1.4,1A1.84,1.84,0,0,0,338.4,472.82Z"/><path d="M340.89,474.1l.48-.92a4,4,0,0,0,2.23.66c1.07,0,1.51-.32,1.51-.86,0-1.43-4-.19-4-2.72,0-1.14,1-1.91,2.66-1.91a4.62,4.62,0,0,1,2.31.58l-.49.91a3.35,3.35,0,0,0-1.84-.51c-1,0-1.5.38-1.5.88,0,1.5,4,.27,4,2.75,0,1.15-1.05,1.88-2.74,1.88A4.67,4.67,0,0,1,340.89,474.1Z"/><path d="M296.79,438.15,295,435.57l-.53,0h-2.08v2.56h-1.2v-8.4h3.28c2.18,0,3.5,1.1,3.5,2.93a2.65,2.65,0,0,1-1.85,2.65l2,2.82Zm0-5.47c0-1.2-.8-1.89-2.34-1.89h-2v3.78h2C296,434.57,296.75,433.88,296.75,432.68Z"/><path d="M304.71,434.31v3.84h-1.09v-.84a2.39,2.39,0,0,1-2.09.91c-1.44,0-2.35-.77-2.35-1.87s.66-1.86,2.55-1.86h1.83v-.23c0-1-.57-1.53-1.71-1.53a3.2,3.2,0,0,0-2,.68l-.48-.86a4.23,4.23,0,0,1,2.63-.82C303.72,431.73,304.71,432.57,304.71,434.31Zm-1.15,1.89v-.88h-1.78c-1.14,0-1.46.44-1.46,1s.52,1,1.4,1A1.85,1.85,0,0,0,303.56,436.2Z"/><path d="M317.4,434.49v3.66h-1.15v-3.53c0-1.25-.6-1.86-1.64-1.86a1.84,1.84,0,0,0-1.91,2.11v3.28h-1.15v-3.53c0-1.25-.6-1.86-1.65-1.86s-1.9.73-1.9,2.11v3.28h-1.15v-6.36H308v.95a2.57,2.57,0,0,1,2.19-1,2.34,2.34,0,0,1,2.21,1.18,2.87,2.87,0,0,1,2.45-1.18A2.44,2.44,0,0,1,317.4,434.49Z"/><path d="M326.11,435a3.09,3.09,0,0,1-3.21,3.25,2.73,2.73,0,0,1-2.22-1v3.28h-1.15v-8.68h1.1v1a2.71,2.71,0,0,1,2.27-1.07A3.08,3.08,0,0,1,326.11,435ZM325,435a2.14,2.14,0,1,0-2.15,2.24A2.1,2.1,0,0,0,325,435Z"/><path d="M332.69,434.31v3.84H331.6v-.84a2.37,2.37,0,0,1-2.09.91c-1.44,0-2.35-.77-2.35-1.87s.66-1.86,2.56-1.86h1.82v-.23c0-1-.56-1.53-1.7-1.53a3.21,3.21,0,0,0-2,.68l-.48-.86a4.23,4.23,0,0,1,2.63-.82C331.71,431.73,332.69,432.57,332.69,434.31Zm-1.15,1.89v-.88h-1.78c-1.13,0-1.46.44-1.46,1s.53,1,1.41,1A1.85,1.85,0,0,0,331.54,436.2Z"/><path d="M121.24,472.67h-4.47l-.92,2.1h-1.23l3.8-8.4h1.18l3.82,8.4h-1.26Zm-.42-1L119,467.59l-1.81,4.12Zm-1.62-6h-1.08l1.63-1.56h1.46Z"/><path d="M127.92,468.35v1.12a1.23,1.23,0,0,0-.26,0,1.9,1.9,0,0,0-2,2.15v3.17H124.5v-6.36h1.11v1.07A2.41,2.41,0,0,1,127.92,468.35Z"/><path d="M135,472h-5.16a2.16,2.16,0,0,0,2.31,1.86,2.36,2.36,0,0,0,1.83-.77l.64.75a3.47,3.47,0,0,1-5.93-2.22,3.12,3.12,0,0,1,3.19-3.24,3.06,3.06,0,0,1,3.14,3.27C135,471.72,135,471.86,135,472Zm-5.16-.83h4.08a2.05,2.05,0,0,0-4.08,0Z"/><path d="M141.48,470.93v3.84h-1.09v-.84a2.38,2.38,0,0,1-2.09.91c-1.44,0-2.35-.77-2.35-1.87s.66-1.86,2.56-1.86h1.82v-.23c0-1-.57-1.53-1.7-1.53a3.21,3.21,0,0,0-2,.68l-.48-.86a4.23,4.23,0,0,1,2.63-.82C140.5,468.35,141.48,469.19,141.48,470.93Zm-1.15,1.89v-.88h-1.78c-1.14,0-1.46.44-1.46,1s.53,1,1.4,1A1.85,1.85,0,0,0,140.33,472.82Z"/><path d="M152.84,465.87v8.9h-1.1v-1a2.69,2.69,0,0,1-2.27,1.08,3.25,3.25,0,0,1,0-6.49,2.72,2.72,0,0,1,2.22,1v-3.5Zm-1.14,5.72a2.14,2.14,0,1,0-4.28,0,2.14,2.14,0,1,0,4.28,0Z"/><path d="M160.75,472h-5.16a2.16,2.16,0,0,0,2.31,1.86,2.36,2.36,0,0,0,1.83-.77l.64.75a3.47,3.47,0,0,1-5.93-2.22,3.12,3.12,0,0,1,3.19-3.24,3.07,3.07,0,0,1,3.15,3.27C160.78,471.72,160.76,471.86,160.75,472Zm-5.16-.83h4.08a2.05,2.05,0,0,0-4.08,0Z"/><path d="M172.19,471.59a3.09,3.09,0,0,1-3.22,3.25,2.73,2.73,0,0,1-2.22-1v3.28H165.6v-8.68h1.11v1a2.69,2.69,0,0,1,2.26-1.07A3.09,3.09,0,0,1,172.19,471.59Zm-1.17,0a2.14,2.14,0,1,0-2.14,2.24A2.09,2.09,0,0,0,171,471.59Z"/><path d="M179.71,468.41v6.36h-1.09v-1a2.59,2.59,0,0,1-2.16,1,2.5,2.5,0,0,1-2.73-2.77v-3.66h1.15v3.53c0,1.24.62,1.87,1.71,1.87a1.88,1.88,0,0,0,2-2.11v-3.29Z"/><path d="M187.63,472h-5.16a2.16,2.16,0,0,0,2.31,1.86,2.36,2.36,0,0,0,1.83-.77l.64.75a3.47,3.47,0,0,1-5.93-2.22,3.12,3.12,0,0,1,3.19-3.24,3.07,3.07,0,0,1,3.15,3.27C187.66,471.72,187.64,471.86,187.63,472Zm-5.16-.83h4.08a2.05,2.05,0,0,0-4.08,0Z"/><path d="M188.45,474.1l.48-.92a4,4,0,0,0,2.23.66c1.07,0,1.51-.32,1.51-.86,0-1.43-4-.19-4-2.72,0-1.14,1-1.91,2.65-1.91a4.63,4.63,0,0,1,2.32.58l-.49.91a3.35,3.35,0,0,0-1.84-.51c-1,0-1.5.38-1.5.88,0,1.5,4,.27,4,2.75,0,1.15-1,1.88-2.74,1.88A4.67,4.67,0,0,1,188.45,474.1Z"/><path d="M198.84,474.39a2.19,2.19,0,0,1-1.39.45,1.82,1.82,0,0,1-2-2v-3.49h-1.08v-.95h1.08V467h1.16v1.39h1.82v.95h-1.82v3.44a.93.93,0,0,0,1,1.07,1.45,1.45,0,0,0,.9-.3Z"/><path d="M199.43,471.59a3.31,3.31,0,1,1,3.31,3.25A3.16,3.16,0,0,1,199.43,471.59Zm5.44,0a2.14,2.14,0,1,0-4.28,0,2.14,2.14,0,1,0,4.28,0Z"/><path d="M206.83,474.1l.48-.92a4.05,4.05,0,0,0,2.23.66c1.07,0,1.52-.32,1.52-.86,0-1.43-4-.19-4-2.72,0-1.14,1-1.91,2.65-1.91a4.59,4.59,0,0,1,2.31.58l-.49.91a3.32,3.32,0,0,0-1.83-.51c-1,0-1.5.38-1.5.88,0,1.5,4,.27,4,2.75,0,1.15-1.06,1.88-2.75,1.88A4.67,4.67,0,0,1,206.83,474.1Z"/><circle class="cls-4" cx="267.78" cy="506.32" r="13.58"/><circle class="cls-24" cx="267.78" cy="506.32" r="13.09"/><path d="M272.45,512.27h-9.33a.36.36,0,0,1-.36-.36V500.78a.36.36,0,0,1,.36-.36h9.33a.36.36,0,0,1,.36.36v11.13A.36.36,0,0,1,272.45,512.27Zm-9.26-.43h9.19v-11h-9.19Z"/><path d="M271.59,512.27H264a.36.36,0,0,1-.36-.36V501.58a.36.36,0,0,1,.36-.36h7.64a.36.36,0,0,1,.36.36v10.33A.36.36,0,0,1,271.59,512.27Zm-7.57-.43h7.5V501.65H264Z"/><path d="M268.54,506.07h-1.37a.33.33,0,0,1-.28-.17.31.31,0,0,1,0-.32l.68-1.18a.34.34,0,0,1,.28-.17.33.33,0,0,1,.28.17l.69,1.18a.36.36,0,0,1,0,.32A.34.34,0,0,1,268.54,506.07Zm-1.18-.44h1l-.5-.85Zm.4-1.13Z"/><path d="M267.85,508.46a.33.33,0,0,1-.28-.16l-.68-1.19a.31.31,0,0,1,0-.32.32.32,0,0,1,.28-.16h1.37a.33.33,0,0,1,.28.16.36.36,0,0,1,0,.32l-.69,1.19A.32.32,0,0,1,267.85,508.46Zm-.49-1.4.49.86.5-.86Z"/><circle class="cls-4" cx="267.78" cy="541.92" r="13.58"/><circle class="cls-24" cx="267.78" cy="541.92" r="13.09"/><path d="M273.23,547.56H262.75a.36.36,0,0,1-.36-.36V536a.36.36,0,0,1,.36-.36h10.48a.36.36,0,0,1,.36.36v11.2A.36.36,0,0,1,273.23,547.56Zm-10.41-.43h10.34V536.07H262.82Z"/><path d="M270.81,545.69H265a.4.4,0,0,1-.4-.4v-7.56a.4.4,0,0,1,.4-.4h5.67a.4.4,0,0,1,.4.4v1.12a.4.4,0,0,1-.4.4h-3.85v1.29h3.43a.4.4,0,0,1,.4.4v1.11a.4.4,0,0,1-.4.4h-3.43v1.33h4a.4.4,0,0,1,.4.4v1.11A.4.4,0,0,1,270.81,545.69Zm-5.76-.43h5.73v-1h-4a.4.4,0,0,1-.4-.4v-1.39a.4.4,0,0,1,.4-.4h3.43v-1h-3.43a.4.4,0,0,1-.4-.4v-1.35a.4.4,0,0,1,.4-.41h3.85v-1h-5.61Zm5.22-4.29Z"/><g class="cls-25"><circle class="cls-21" cx="296.27" cy="389.94" r="13.09"/><path class="cls-15" d="M301.34,395.8H290.86a.36.36,0,0,1-.36-.36V384.23a.36.36,0,0,1,.36-.36h10.48a.36.36,0,0,1,.36.36v11.21A.36.36,0,0,1,301.34,395.8Zm-10.41-.44h10.33V384.3H290.93Z"/><path class="cls-15" d="M298.92,393.93h-5.8a.4.4,0,0,1-.4-.4V386a.4.4,0,0,1,.4-.4h5.67a.4.4,0,0,1,.4.4v1.12a.4.4,0,0,1-.4.4H295v1.29h3.42a.4.4,0,0,1,.4.4v1.11a.4.4,0,0,1-.4.41H295V392h4a.4.4,0,0,1,.4.4v1.12A.4.4,0,0,1,298.92,393.93Zm-5.76-.44h5.73v-1.05h-4a.4.4,0,0,1-.4-.4v-1.39a.4.4,0,0,1,.4-.4h3.43V389.2h-3.43a.4.4,0,0,1-.4-.4v-1.35a.4.4,0,0,1,.4-.4h3.85V386h-5.6Zm5.21-4.29h0Z"/></g><g class="cls-25"><circle class="cls-21" cx="717.53" cy="513.77" r="13.09"/><path class="cls-15" d="M722.6,519.63H712.12a.36.36,0,0,1-.36-.36V508.06a.36.36,0,0,1,.36-.36H722.6a.37.37,0,0,1,.36.36v11.21A.36.36,0,0,1,722.6,519.63Zm-10.41-.43h10.33V508.14H712.19Z"/><path class="cls-15" d="M720.18,517.76h-5.8a.4.4,0,0,1-.4-.4V509.8a.4.4,0,0,1,.4-.4h5.67a.4.4,0,0,1,.4.4v1.11a.4.4,0,0,1-.4.4H716.2v1.29h3.43a.4.4,0,0,1,.4.4v1.12a.4.4,0,0,1-.4.4H716.2v1.32h4a.4.4,0,0,1,.4.41v1.11A.4.4,0,0,1,720.18,517.76Zm-5.77-.43h5.74v-1.05h-4a.4.4,0,0,1-.4-.4v-1.39a.4.4,0,0,1,.4-.4h3.43V513h-3.43a.4.4,0,0,1-.4-.4v-1.36a.4.4,0,0,1,.4-.4H720v-1.05h-5.61Zm5.22-4.29Z"/></g><circle class="cls-26" cx="95.82" cy="471.62" r="13.09"/><path d="M99,467.33H92.64a.36.36,0,0,1-.36-.36v-.53a.36.36,0,0,1,.36-.36H99a.36.36,0,0,1,.36.36V467A.36.36,0,0,1,99,467.33Zm-6.29-.43h6.22v-.38H92.71Z"/><path d="M99.66,470H92a.37.37,0,0,1-.3-.16.39.39,0,0,1,0-.33l.9-2.39a.37.37,0,0,1,.34-.23h5.88a.36.36,0,0,1,.34.23l.9,2.39a.39.39,0,0,1,0,.33A.37.37,0,0,1,99.66,470Zm-7.58-.43h7.48l-.85-2.25H92.93Zm6.68-2.25Z"/><path d="M99.29,477.16h-7a.36.36,0,0,1-.36-.36v-3a.36.36,0,0,1,.36-.36h7a.36.36,0,0,1,.36.36v3A.36.36,0,0,1,99.29,477.16Zm-6.93-.43h6.86v-2.9H92.36Z"/><path d="M99,473.83a.21.21,0,0,1-.22-.21v-3.83a.21.21,0,0,1,.22-.21.21.21,0,0,1,.21.21v3.83A.21.21,0,0,1,99,473.83Z"/><path d="M92.8,473.83a.21.21,0,0,1-.21-.21v-3.83a.21.21,0,0,1,.21-.21.21.21,0,0,1,.22.21v3.83A.21.21,0,0,1,92.8,473.83Z"/><path d="M93.23,470h0a.21.21,0,0,1-.15-.27l.73-2.67a.21.21,0,0,1,.27-.15.22.22,0,0,1,.15.26l-.74,2.68A.22.22,0,0,1,93.23,470Z"/><path d="M95.24,470h0a.23.23,0,0,1-.21-.23l.13-2.68a.22.22,0,1,1,.43,0l-.13,2.67A.21.21,0,0,1,95.24,470Z"/><path d="M97,470a.21.21,0,0,1-.21-.19l-.4-2.67a.23.23,0,0,1,.19-.25.22.22,0,0,1,.24.18l.39,2.68A.22.22,0,0,1,97,470Z"/><path d="M98.6,470a.22.22,0,0,1-.21-.16l-.75-2.68a.21.21,0,1,1,.41-.11l.76,2.67a.21.21,0,0,1-.15.27Z"/><circle class="cls-26" cx="752.53" cy="238.3" r="13.09"/><path d="M755.72,234h-6.37a.36.36,0,0,1-.36-.36v-.53a.36.36,0,0,1,.36-.36h6.37a.36.36,0,0,1,.36.36v.53A.37.37,0,0,1,755.72,234Zm-6.3-.44h6.22v-.38h-6.22Z"/><path d="M756.37,236.68h-7.68a.35.35,0,0,1-.29-.15.37.37,0,0,1,0-.34l.91-2.38a.35.35,0,0,1,.33-.24h5.88a.37.37,0,0,1,.34.24l.9,2.38a.37.37,0,0,1,0,.34A.38.38,0,0,1,756.37,236.68Zm-7.57-.43h7.47l-.85-2.24h-5.78Zm6.67-2.24Z"/><path d="M756,243.83h-7a.36.36,0,0,1-.36-.36v-3a.37.37,0,0,1,.36-.37h7a.37.37,0,0,1,.36.37v3A.36.36,0,0,1,756,243.83Zm-6.93-.43h6.86v-2.89h-6.86Z"/><path d="M755.73,240.51a.22.22,0,0,1-.22-.22v-3.82a.22.22,0,0,1,.22-.22.21.21,0,0,1,.21.22v3.82A.21.21,0,0,1,755.73,240.51Z"/><path d="M749.51,240.51a.21.21,0,0,1-.21-.22v-3.82a.21.21,0,0,1,.21-.22.22.22,0,0,1,.22.22v3.82A.22.22,0,0,1,749.51,240.51Z"/><path d="M750,236.68h-.06a.21.21,0,0,1-.15-.26l.73-2.68a.22.22,0,1,1,.42.12l-.74,2.67A.2.2,0,0,1,750,236.68Z"/><path d="M752,236.68h0a.22.22,0,0,1-.21-.22l.13-2.68a.22.22,0,0,1,.44,0l-.14,2.68A.21.21,0,0,1,752,236.68Z"/><path d="M753.69,236.68a.21.21,0,0,1-.21-.18l-.39-2.68a.21.21,0,0,1,.42-.06l.39,2.67a.22.22,0,0,1-.18.25Z"/><path d="M755.31,236.68a.2.2,0,0,1-.2-.16l-.76-2.67a.21.21,0,1,1,.41-.12l.76,2.68a.21.21,0,0,1-.15.26Z"/><circle class="cls-4" cx="96.28" cy="506.88" r="13.55"/><path d="M100.61,509.16H98.34a.2.2,0,0,1-.16-.07.23.23,0,0,1-.06-.16,13.26,13.26,0,0,0-1.51-6.38h0a.34.34,0,0,1,0-.35.35.35,0,0,1,.31-.18h1.76a.37.37,0,0,1,.33.22,21.41,21.41,0,0,1,1.81,6.69.27.27,0,0,1-.06.17A.23.23,0,0,1,100.61,509.16Zm-2-.43h1.81a21.47,21.47,0,0,0-1.74-6.27H97A13.77,13.77,0,0,1,98.57,508.73Z"/><path d="M100.61,509.16a.21.21,0,0,1-.21-.18c-.18-1.1.59-5.16.87-6.52H99.75l-.24,1.07a.21.21,0,1,1-.42-.09l.24-1.13a.37.37,0,0,1,.36-.29h1.66a.36.36,0,0,1,.28.13.38.38,0,0,1,.08.3,33.92,33.92,0,0,0-.89,6.46.22.22,0,0,1-.17.25Z"/><path d="M98.22,502.46a.22.22,0,0,1-.21-.21l-.09-1.35a.34.34,0,0,1,.1-.27.35.35,0,0,1,.26-.11h2.07a.36.36,0,0,1,.26.11.38.38,0,0,1,.1.27l-.08,1.35a.21.21,0,0,1-.23.2.2.2,0,0,1-.2-.22l.07-1.28H98.36l.08,1.27a.21.21,0,0,1-.2.23Z"/><path d="M101.83,511.26a.21.21,0,0,1-.22-.21v-1.83H91.2v1.83a.21.21,0,0,1-.22.21.21.21,0,0,1-.21-.21V509a.21.21,0,0,1,.21-.22h10.85a.21.21,0,0,1,.21.22v2.05A.21.21,0,0,1,101.83,511.26Z"/><path d="M95,509.22l-.07,0a.22.22,0,0,1-.14-.27s.56-1.66,0-2.42a1.39,1.39,0,0,0-1.29-.37,1.67,1.67,0,0,0-1.36.73,2.65,2.65,0,0,0,.09,2,.22.22,0,0,1-.11.29.21.21,0,0,1-.28-.11,3,3,0,0,1-.08-2.44,2.06,2.06,0,0,1,1.7-.94,1.76,1.76,0,0,1,1.66.53c.76.95.16,2.75.13,2.83A.21.21,0,0,1,95,509.22Z"/><path d="M92.77,506.3a.2.2,0,0,1-.19-.12,2.77,2.77,0,0,1,.69-3.43.38.38,0,0,1,.46,0,3.15,3.15,0,0,1,1,3.34.22.22,0,0,1-.43-.08,2.8,2.8,0,0,0-.74-2.88A2.37,2.37,0,0,0,93,506a.21.21,0,0,1-.09.29A.2.2,0,0,1,92.77,506.3Z"/><path d="M94.87,506.51a.21.21,0,0,1-.19-.12.22.22,0,0,1,.1-.29A2.76,2.76,0,0,0,96,503.4a2.74,2.74,0,0,0-1.47.58.22.22,0,0,1-.31,0,.21.21,0,0,1,0-.3A3.06,3.06,0,0,1,96,503a.37.37,0,0,1,.28.09.41.41,0,0,1,.13.26c.1,2.4-1.36,3.15-1.42,3.18Z"/><path d="M92.21,506.63a.19.19,0,0,1-.1,0,3.23,3.23,0,0,1-1.37-3.33.38.38,0,0,1,.39-.32,2.89,2.89,0,0,1,1.75.71.22.22,0,0,1,0,.31.23.23,0,0,1-.31,0,2.34,2.34,0,0,0-1.4-.58,2.8,2.8,0,0,0,1.15,2.84.21.21,0,0,1-.11.4Z"/><circle class="cls-5" cx="96.28" cy="506.88" r="13.09"/><circle class="cls-1" cx="96" cy="542.57" r="13.09"/><circle class="cls-4" cx="96" cy="542.57" r="13.58"/><circle class="cls-27" cx="96" cy="542.57" r="13.09"/><path d="M96,548.16a.21.21,0,0,1-.21-.22V540.6a.21.21,0,0,1,.21-.22.22.22,0,0,1,.22.22v7.34A.22.22,0,0,1,96,548.16Z"/><path d="M99.66,540.81H92.47a.21.21,0,0,1-.22-.21.22.22,0,0,1,.22-.22h7.19a.22.22,0,0,1,.22.22A.21.21,0,0,1,99.66,540.81Z"/><path d="M94.16,548.16a.21.21,0,0,1-.21-.22v-5.05H90.06a.22.22,0,0,1-.21-.22.21.21,0,0,1,.21-.21h4a.36.36,0,0,1,.36.36v5.12A.22.22,0,0,1,94.16,548.16Z"/><path d="M97.83,548.16a.21.21,0,0,1-.21-.22v-5.12a.36.36,0,0,1,.36-.36h4a.21.21,0,0,1,.21.21.21.21,0,0,1-.21.22H98.05v5.05A.22.22,0,0,1,97.83,548.16Z"/><path d="M90.06,548.16a.22.22,0,0,1-.21-.22V540.2a7.88,7.88,0,0,0-.55-2.88.22.22,0,0,1,.13-.28.22.22,0,0,1,.28.12,8.29,8.29,0,0,1,.57,3v7.74A.22.22,0,0,1,90.06,548.16Z"/><path d="M102,548.16a.21.21,0,0,1-.21-.22V540.2a8.29,8.29,0,0,1,.57-3,.22.22,0,0,1,.28-.12.21.21,0,0,1,.12.28,7.87,7.87,0,0,0-.54,2.88v7.74A.22.22,0,0,1,102,548.16Z"/><path d="M94,544.36h-4a.22.22,0,0,1,0-.43h4a.22.22,0,1,1,0,.43Z"/><path d="M102,544.36H97.91a.22.22,0,1,1,0-.43H102a.22.22,0,1,1,0,.43Z"/><circle class="cls-1" cx="385.98" cy="186.36" r="13.09"/><circle class="cls-4" cx="385.98" cy="186.37" r="13.58"/><circle class="cls-27" cx="385.98" cy="186.37" r="13.09"/><path d="M386,192a.21.21,0,0,1-.22-.21v-7.35a.21.21,0,0,1,.22-.21.21.21,0,0,1,.21.21v7.35A.21.21,0,0,1,386,192Z"/><path d="M389.64,184.61h-7.19a.22.22,0,0,1-.22-.22.21.21,0,0,1,.22-.21h7.19a.21.21,0,0,1,.22.21A.22.22,0,0,1,389.64,184.61Z"/><path d="M384.15,192a.21.21,0,0,1-.22-.21v-5.06h-3.88a.21.21,0,0,1-.22-.21.22.22,0,0,1,.22-.22H384a.36.36,0,0,1,.36.36v5.13A.21.21,0,0,1,384.15,192Z"/><path d="M387.82,192a.21.21,0,0,1-.22-.21v-5.13a.36.36,0,0,1,.36-.36h4a.22.22,0,0,1,.22.22.21.21,0,0,1-.22.21H388v5.06A.21.21,0,0,1,387.82,192Z"/><path d="M380.05,192a.21.21,0,0,1-.22-.21V184a7.82,7.82,0,0,0-.54-2.87.22.22,0,1,1,.4-.16,8.28,8.28,0,0,1,.58,3v7.75A.21.21,0,0,1,380.05,192Z"/><path d="M392,192a.21.21,0,0,1-.22-.21V184a8.08,8.08,0,0,1,.58-3,.21.21,0,0,1,.28-.12.22.22,0,0,1,.12.28,7.83,7.83,0,0,0-.55,2.87v7.75A.21.21,0,0,1,392,192Z"/><path d="M384,188.16h-4a.22.22,0,0,1,0-.44h4a.22.22,0,1,1,0,.44Z"/><path d="M392,188.16h-4.12a.22.22,0,0,1,0-.44H392a.22.22,0,0,1,0,.44Z"/><circle class="cls-1" cx="594.82" cy="186.36" r="13.09"/><circle class="cls-4" cx="594.82" cy="186.37" r="13.58"/><circle class="cls-27" cx="594.82" cy="186.37" r="13.09"/><path d="M594.8,192a.21.21,0,0,1-.21-.21v-7.35a.21.21,0,0,1,.21-.21.21.21,0,0,1,.22.21v7.35A.21.21,0,0,1,594.8,192Z"/><path d="M598.48,184.61h-7.19a.22.22,0,0,1-.22-.22.21.21,0,0,1,.22-.21h7.19a.21.21,0,0,1,.22.21A.22.22,0,0,1,598.48,184.61Z"/><path d="M593,192a.21.21,0,0,1-.21-.21v-5.06h-3.88a.21.21,0,0,1-.22-.21.22.22,0,0,1,.22-.22h4a.36.36,0,0,1,.36.36v5.13A.21.21,0,0,1,593,192Z"/><path d="M596.65,192a.21.21,0,0,1-.21-.21v-5.13a.36.36,0,0,1,.36-.36h4a.22.22,0,0,1,.22.22.21.21,0,0,1-.22.21h-3.88v5.06A.21.21,0,0,1,596.65,192Z"/><path d="M588.89,192a.21.21,0,0,1-.22-.21V184a7.82,7.82,0,0,0-.54-2.87.21.21,0,0,1,.12-.28.21.21,0,0,1,.28.12,8.27,8.27,0,0,1,.57,3v7.75A.21.21,0,0,1,588.89,192Z"/><path d="M600.84,192a.21.21,0,0,1-.21-.21V184a8.27,8.27,0,0,1,.57-3,.21.21,0,0,1,.28-.12.21.21,0,0,1,.12.28,7.82,7.82,0,0,0-.54,2.87v7.75A.21.21,0,0,1,600.84,192Z"/><path d="M592.85,188.16h-4a.22.22,0,0,1,0-.44h4a.22.22,0,0,1,0,.44Z"/><path d="M600.84,188.16h-4.11a.22.22,0,0,1,0-.44h4.11a.22.22,0,0,1,0,.44Z"/><polygon class="cls-19" points="823.65 484.81 823.65 363.29 709.62 363.29 709.62 484.77 823.65 484.81"/><polygon class="cls-19" points="709.62 363.68 709.62 484.79 645.5 484.79 645.5 484.81 563.34 484.81 563.34 418.25 645.5 418.25 645.5 363.68 709.62 363.68"/></g></svg>