<svg xmlns="http://www.w3.org/2000/svg" viewBox="0 0 859.21 581.76"><defs><style>.cls-1{isolation:isolate;}.cls-2{fill:#d0e09f;}.cls-3{fill:#7d9047;}.cls-4{fill:#999;}.cls-11,.cls-14,.cls-5,.cls-6,.cls-7,.cls-8{fill:#fff;}.cls-6{opacity:0.7;}.cls-7{stroke:#c3e06f;}.cls-11,.cls-12,.cls-14,.cls-7,.cls-8{stroke-miterlimit:10;}.cls-8{stroke:#7d9047;}.cls-9{fill:#eaffa1;}.cls-10{fill:#c3e06f;}.cls-11{stroke:#d0e09f;}.cls-12,.cls-15{fill:none;}.cls-12{stroke:#999;stroke-width:3px;}.cls-13{mix-blend-mode:multiply;}.cls-14{stroke:#eaffa1;}.cls-15{stroke:#000;stroke-linecap:round;stroke-linejoin:round;stroke-width:0.5px;}.cls-16{fill:#231f20;}</style></defs><g class="cls-1"><g id="Layer_7" data-name="Layer 7"><rect class="cls-2" x="584.16" y="303.62" width="64.92" height="59.69"/><rect class="cls-2" x="681.17" y="303.54" width="64.82" height="59.69"/><rect class="cls-2" x="79.95" y="419.41" width="162.13" height="31.34" rx="15.67"/><rect class="cls-2" x="320.71" y="11.94" width="65.11" height="59.69"/><rect class="cls-2" x="254.67" y="11.94" width="66.04" height="59.69"/><path class="cls-2" d="M254.67,11.94V71.63H219.3a30,30,0,0,1-30-30V11.94Z"/><rect class="cls-2" x="518.39" y="11.94" width="65.77" height="59.69"/><rect class="cls-2" x="452.19" y="11.94" width="66.2" height="59.69"/><rect class="cls-2" x="385.82" y="11.94" width="66.37" height="59.69"/><rect class="cls-2" x="584.16" y="11.94" width="64.92" height="59.69"/><rect class="cls-2" x="320.71" y="303.62" width="65.11" height="59.69"/><rect class="cls-2" x="254.67" y="303.62" width="66.04" height="59.69"/><path class="cls-2" d="M254.67,363.31V303.62H219.3a30,30,0,0,0-30,30v29.69Z"/><rect class="cls-2" x="518.39" y="303.62" width="65.77" height="59.69"/><rect class="cls-2" x="452.19" y="303.62" width="66.2" height="59.69"/><rect class="cls-2" x="385.82" y="303.62" width="66.37" height="59.69"/><rect class="cls-2" x="681.17" y="12.21" width="64.82" height="59.69"/><rect class="cls-3" x="745.99" y="12.21" width="77.65" height="59.69"/><rect class="cls-2" x="681.17" y="210.1" width="64.82" height="63.91"/><rect class="cls-3" x="745.99" y="210.1" width="77.65" height="63.91"/><rect class="cls-3" x="745.99" y="303.54" width="77.65" height="59.69"/><rect class="cls-2" x="681.17" y="106.48" width="64.82" height="63.91"/><rect class="cls-3" x="745.99" y="106.48" width="53.09" height="63.91"/><path class="cls-2" d="M604,107.48v83.36H527.24V137.48a30,30,0,0,1,30-30Z"/><rect class="cls-2" x="603.97" y="107.48" width="52.36" height="83.36"/><path class="cls-2" d="M604,191v83.36H557.24a30,30,0,0,1-30-30V191Z"/><rect class="cls-2" x="603.97" y="191.01" width="52.36" height="83.36"/><path class="cls-2" d="M219.53,107.48H260a30,30,0,0,1,30,30V160a0,0,0,0,1,0,0H189.53a0,0,0,0,1,0,0V137.48A30,30,0,0,1,219.53,107.48Z"/><path class="cls-2" d="M219.53,222H260a30,30,0,0,1,30,30v22.48a0,0,0,0,1,0,0H189.53a0,0,0,0,1,0,0V252A30,30,0,0,1,219.53,222Z" transform="translate(479.53 496.38) rotate(180)"/><rect class="cls-4" x="79.18" y="160.22" width="210.82" height="61.86"/><path class="cls-2" d="M373.31,274.37V191H450v53.36a30,30,0,0,1-30,30Z"/><rect class="cls-2" x="320.95" y="191.01" width="52.36" height="83.36"/><path class="cls-2" d="M373.31,190.84V107.48H420a30,30,0,0,1,30,30v53.36Z"/><rect class="cls-2" x="320.95" y="107.48" width="52.36" height="83.36"/><circle class="cls-5" cx="419.73" cy="40.8" r="13.09"/><path d="M414.67,43.1v1.28h-5.05V36H411V43.1Z"/><path d="M422.64,40.19c0,2.72-1.27,4.23-3.56,4.23s-3.58-1.51-3.58-4.23S416.77,36,419.08,36,422.64,37.46,422.64,40.19Zm-5.69,0c0,2.12.71,3.11,2.13,3.11s2.11-1,2.11-3.11-.71-3.12-2.11-3.12S417,38.05,417,40.19Z"/><path d="M427.59,41.06v-2h1.31v2h1.23v1.26H428.9v2.06h-1.31V42.32h-4v-1L426.45,36h1.36l-2.72,5.07Z"/><circle class="cls-5" cx="484.4" cy="40.8" r="13.09"/><path d="M479.47,43.1v1.28h-5V36h1.41V43.1Z"/><path d="M487.44,40.19c0,2.72-1.27,4.23-3.56,4.23s-3.57-1.51-3.57-4.23S481.58,36,483.88,36,487.44,37.46,487.44,40.19Zm-5.68,0c0,2.12.7,3.11,2.12,3.11s2.11-1,2.11-3.11-.71-3.12-2.11-3.12S481.76,38.05,481.76,40.19Z"/><path d="M490.28,37.26v1.81h1.15c1.82,0,3,1.08,3,2.55a2.79,2.79,0,0,1-3.11,2.82,5.55,5.55,0,0,1-3-1l.57-1.15a3.61,3.61,0,0,0,2.26.89c1.1,0,1.75-.57,1.75-1.51s-.65-1.38-1.73-1.38c-.51,0-1.65,0-2.21.11V36h5.11v1.27Z"/><circle class="cls-5" cx="550.07" cy="40.8" r="13.09"/><path d="M544.92,43.1v1.28h-5V36h1.41V43.1Z"/><path d="M552.88,40.19c0,2.72-1.27,4.23-3.56,4.23s-3.57-1.51-3.57-4.23S547,36,549.32,36,552.88,37.46,552.88,40.19Zm-5.68,0c0,2.12.71,3.11,2.12,3.11s2.11-1,2.11-3.11-.71-3.12-2.11-3.12S547.2,38.05,547.2,40.19Z"/><path d="M560.17,36.56l-.55,1.07a3.65,3.65,0,0,0-1.86-.53c-1.63,0-2.39,1.23-2.34,3A2.45,2.45,0,0,1,557.71,39a2.5,2.5,0,0,1,2.7,2.68,2.7,2.7,0,0,1-2.95,2.81c-2.13,0-3.42-1.51-3.42-4.09s1.4-4.42,3.62-4.42A5.62,5.62,0,0,1,560.17,36.56Zm-4.52,5.1a1.57,1.57,0,0,0,1.74,1.56,1.54,1.54,0,0,0,1.7-1.61,1.47,1.47,0,0,0-1.64-1.54A1.62,1.62,0,0,0,555.65,41.66Z"/><circle class="cls-6" cx="225.28" cy="40.8" r="13.09"/><circle class="cls-5" cx="714.83" cy="333.2" r="13.09"/><path d="M713,335.49v1.29h-5v-8.4h1.42v7.11Z"/><path d="M715,336.78v-7.14H713.4v-1.26h3.06v8.4Z"/><path d="M719.69,336.78v-7.14h-1.64v-1.26h3.05v8.4Z"/><circle class="cls-5" cx="714.83" cy="237.83" r="13.09"/><path d="M711.17,240.13v1.28h-5V233h1.41v7.12Z"/><path d="M713.22,241.41v-7.14h-1.64V233h3.06v8.4Z"/><path d="M723.78,237.21c0,2.72-1.27,4.24-3.56,4.24s-3.58-1.52-3.58-4.24,1.27-4.23,3.58-4.23S723.78,234.49,723.78,237.21Zm-5.69,0c0,2.12.71,3.12,2.13,3.12s2.11-1,2.11-3.12-.71-3.12-2.11-3.12S718.09,235.08,718.09,237.21Z"/><circle class="cls-5" cx="714.82" cy="138.51" r="13.09"/><path d="M709.79,140.81v1.28h-5V133.7h1.42v7.11Z"/><path d="M717.76,137.89c0,2.73-1.27,4.24-3.56,4.24s-3.58-1.51-3.58-4.24,1.27-4.23,3.58-4.23S717.76,135.17,717.76,137.89Zm-5.69,0c0,2.13.71,3.12,2.13,3.12s2.11-1,2.11-3.12-.71-3.12-2.11-3.12S712.07,135.76,712.07,137.89Z"/><path d="M719.08,141.51l.55-1.06a3.65,3.65,0,0,0,1.86.53c1.63,0,2.39-1.23,2.34-3a2.45,2.45,0,0,1-2.29,1.19,2.5,2.5,0,0,1-2.7-2.68,2.69,2.69,0,0,1,2.95-2.81c2.13,0,3.42,1.51,3.42,4.08s-1.4,4.43-3.62,4.43A5.5,5.5,0,0,1,719.08,141.51Zm4.52-5.09a1.57,1.57,0,0,0-1.74-1.56,1.54,1.54,0,0,0-1.7,1.61A1.47,1.47,0,0,0,721.8,138,1.62,1.62,0,0,0,723.6,136.42Z"/><circle class="cls-7" cx="296.27" cy="389.94" r="13.09"/><path d="M301.34,395.8H290.86a.36.36,0,0,1-.36-.36V384.23a.36.36,0,0,1,.36-.36h10.48a.36.36,0,0,1,.36.36v11.21A.36.36,0,0,1,301.34,395.8Zm-10.41-.44h10.33V384.3H290.93Z"/><path d="M298.92,393.93h-5.8a.4.4,0,0,1-.4-.4V386a.4.4,0,0,1,.4-.4h5.67a.4.4,0,0,1,.4.4v1.12a.4.4,0,0,1-.4.4H295v1.29h3.42a.4.4,0,0,1,.4.4v1.11a.4.4,0,0,1-.4.41H295V392h4a.4.4,0,0,1,.4.4v1.12A.4.4,0,0,1,298.92,393.93Zm-5.76-.44h5.73v-1.05h-4a.4.4,0,0,1-.4-.4v-1.39a.4.4,0,0,1,.4-.4h3.43V389.2h-3.43a.4.4,0,0,1-.4-.4v-1.35a.4.4,0,0,1,.4-.4h3.85V386h-5.6Zm5.21-4.29h0Z"/><circle class="cls-7" cx="717.53" cy="513.77" r="13.09"/><path d="M722.6,519.63H712.12a.36.36,0,0,1-.36-.36V508.06a.36.36,0,0,1,.36-.36H722.6a.37.37,0,0,1,.36.36v11.21A.36.36,0,0,1,722.6,519.63Zm-10.41-.43h10.33V508.14H712.19Z"/><path d="M720.18,517.76h-5.8a.4.4,0,0,1-.4-.4V509.8a.4.4,0,0,1,.4-.4h5.67a.4.4,0,0,1,.4.4v1.11a.4.4,0,0,1-.4.4H716.2v1.29h3.43a.4.4,0,0,1,.4.4v1.12a.4.4,0,0,1-.4.4H716.2v1.32h4a.4.4,0,0,1,.4.41v1.11A.4.4,0,0,1,720.18,517.76Zm-5.77-.43h5.74v-1.05h-4a.4.4,0,0,1-.4-.4v-1.39a.4.4,0,0,1,.4-.4h3.43V513h-3.43a.4.4,0,0,1-.4-.4v-1.36a.4.4,0,0,1,.4-.4H720v-1.05h-5.61Zm5.22-4.29Z"/><rect class="cls-3" x="79.95" y="455.59" width="162.13" height="31.34" rx="15.67"/><circle class="cls-8" cx="95.89" cy="470.92" r="13.09"/><path d="M100.11,476.86H91.72a.36.36,0,0,1-.36-.36v-6.74a.21.21,0,0,1,.21-.22.22.22,0,0,1,.22.22v6.67H100V470a.22.22,0,0,1,.22-.22.21.21,0,0,1,.21.22v6.51A.36.36,0,0,1,100.11,476.86Z"/><path d="M100.61,470.42a.42.42,0,0,1-.21-.06l-4.51-3.16-4.65,3.09a.36.36,0,0,1-.49-.09l-.68-.91A.35.35,0,0,1,90,469a.38.38,0,0,1,.15-.24L95.83,465a.38.38,0,0,1,.41,0l5.38,3.84h0a.37.37,0,0,1,.06.54l-.8.89A.36.36,0,0,1,100.61,470.42Zm-4.72-3.67a.42.42,0,0,1,.21.06l4.5,3.16.7-.79L96,465.42l-5.56,3.67.58.8,4.64-3.08A.36.36,0,0,1,95.89,466.75Zm0,.42Z"/><path d="M93.55,475.8a.22.22,0,0,1-.22-.22V470a.22.22,0,1,1,.44,0v5.54A.22.22,0,0,1,93.55,475.8Z"/><path d="M98.23,473.25H93.55a.21.21,0,0,1-.22-.21.22.22,0,0,1,.22-.22h4.68a.22.22,0,0,1,.22.22A.21.21,0,0,1,98.23,473.25Z"/><path d="M98.23,475.1H93.55a.22.22,0,1,1,0-.43h4.68a.22.22,0,1,1,0,.43Z"/><path d="M98.23,471.12H93.55a.22.22,0,0,1,0-.44h4.68a.22.22,0,0,1,0,.44Z"/><path d="M98.23,475.8a.22.22,0,0,1-.22-.22V470a.22.22,0,1,1,.44,0v5.54A.22.22,0,0,1,98.23,475.8Z"/><rect class="cls-9" x="79.95" y="490.92" width="162.13" height="31.34" rx="15.67"/><rect class="cls-10" x="79.95" y="526.53" width="162.13" height="31.34" rx="15.67"/><rect class="cls-10" x="251.89" y="419.41" width="162.13" height="31.34" rx="15.67"/><rect class="cls-10" x="251.89" y="455.59" width="162.13" height="31.34" rx="15.67"/><rect class="cls-10" x="251.89" y="490.92" width="162.13" height="31.34" rx="15.67"/><rect class="cls-10" x="251.89" y="526.53" width="162.13" height="31.34" rx="15.67"/><circle class="cls-11" cx="95.84" cy="434.81" r="13.09"/><path d="M100.07,440.76h-8.4a.36.36,0,0,1-.36-.36v-6.75a.22.22,0,0,1,.44,0v6.67H100v-6.44a.21.21,0,0,1,.21-.21.21.21,0,0,1,.22.21v6.52A.36.36,0,0,1,100.07,440.76Z"/><path d="M100.56,434.31a.36.36,0,0,1-.2-.06l-4.52-3.16-4.65,3.09a.35.35,0,0,1-.49-.09l-.67-.91a.36.36,0,0,1,.09-.52l5.67-3.74a.36.36,0,0,1,.41,0l5.37,3.83h0a.35.35,0,0,1,.15.26.37.37,0,0,1-.09.28l-.8.89A.36.36,0,0,1,100.56,434.31Zm-4.72-3.67a.37.37,0,0,1,.21.06l4.5,3.16.71-.79L96,429.31,90.42,433l.59.8,4.63-3.08A.39.39,0,0,1,95.84,430.64Z"/><circle class="cls-7" cx="267.78" cy="470.92" r="13.09"/><path d="M272.87,475.59H261.65a.36.36,0,0,1-.36-.36v-1.7a.36.36,0,0,1,.36-.36h2.41v-1.86a.36.36,0,0,1,.36-.36H267v-1.78a.36.36,0,0,1,.36-.36h2.43V467a.36.36,0,0,1,.36-.36h2.75a.36.36,0,0,1,.36.36v8.25A.36.36,0,0,1,272.87,475.59Zm-11.15-.43H272.8v-8.11h-2.61v1.83a.36.36,0,0,1-.36.36H267.4V471a.36.36,0,0,1-.36.36h-2.55v1.86a.36.36,0,0,1-.36.36h-2.41Z"/><path d="M260.55,471.32a.2.2,0,0,1-.17-.09.22.22,0,0,1,0-.3l8.91-6.62a.31.31,0,0,1,.21-.07h2.29a.21.21,0,0,1,.22.21.22.22,0,0,1-.22.22h-2.27l-8.88,6.61A.2.2,0,0,1,260.55,471.32Z"/><path d="M262.6,473.6a.22.22,0,0,1-.22-.22V469.6a.22.22,0,0,1,.22-.22.21.21,0,0,1,.21.22v3.78A.21.21,0,0,1,262.6,473.6Z"/><path d="M271.63,467.05a.22.22,0,0,1-.22-.22v-2.38a.22.22,0,0,1,.44,0v2.38A.22.22,0,0,1,271.63,467.05Z"/><circle class="cls-7" cx="170.31" cy="243.43" r="13.09"/><path d="M175.4,248.1H164.18a.36.36,0,0,1-.36-.36V246a.36.36,0,0,1,.36-.36h2.41v-1.86a.36.36,0,0,1,.36-.36h2.55v-1.78a.36.36,0,0,1,.36-.36h2.43v-1.83a.36.36,0,0,1,.36-.36h2.75a.36.36,0,0,1,.36.36v8.25A.36.36,0,0,1,175.4,248.1Zm-11.15-.43h11.08v-8.11h-2.61v1.83a.36.36,0,0,1-.36.36h-2.43v1.78a.36.36,0,0,1-.36.36H167v1.86a.36.36,0,0,1-.36.36h-2.41Z"/><path d="M163.08,243.83a.23.23,0,0,1-.18-.09.21.21,0,0,1,0-.3l8.9-6.62a.36.36,0,0,1,.22-.07h2.29a.21.21,0,0,1,.22.21.22.22,0,0,1-.22.22h-2.27l-8.88,6.61A.22.22,0,0,1,163.08,243.83Z"/><path d="M165.13,246.11a.22.22,0,0,1-.22-.22v-3.78a.22.22,0,1,1,.43,0v3.78A.22.22,0,0,1,165.13,246.11Z"/><path d="M174.16,239.56a.22.22,0,0,1-.22-.22V237a.21.21,0,0,1,.22-.21.21.21,0,0,1,.21.21v2.38A.21.21,0,0,1,174.16,239.56Z"/><circle class="cls-7" cx="718.07" cy="188.94" r="13.09"/><path d="M723.16,193.62H711.94a.37.37,0,0,1-.37-.36v-1.71a.37.37,0,0,1,.37-.36h2.4v-1.85a.36.36,0,0,1,.36-.36h2.55v-1.79a.37.37,0,0,1,.36-.36H720V185a.36.36,0,0,1,.36-.36h2.76a.36.36,0,0,1,.36.36v8.26A.36.36,0,0,1,723.16,193.62ZM712,193.19h11.07v-8.12h-2.6v1.84a.36.36,0,0,1-.36.36h-2.43v1.78a.36.36,0,0,1-.36.36h-2.56v1.86a.36.36,0,0,1-.36.36H712Z"/><path d="M710.83,189.35a.21.21,0,0,1-.17-.09.22.22,0,0,1,0-.3l8.91-6.63a.4.4,0,0,1,.21-.07h2.3a.22.22,0,0,1,0,.44h-2.27L711,189.3A.21.21,0,0,1,710.83,189.35Z"/><path d="M712.88,191.63a.22.22,0,0,1-.22-.22v-3.79a.22.22,0,0,1,.44,0v3.79A.22.22,0,0,1,712.88,191.63Z"/><path d="M721.91,185.07a.21.21,0,0,1-.21-.21v-2.38a.21.21,0,0,1,.21-.22.22.22,0,0,1,.22.22v2.38A.21.21,0,0,1,721.91,185.07Z"/><circle class="cls-7" cx="267.78" cy="434.91" r="13.09"/><path d="M265.05,440.56a.21.21,0,0,1-.21-.21V435a.22.22,0,1,1,.43,0v5.36A.21.21,0,0,1,265.05,440.56Z"/><path d="M265.05,436.91a.23.23,0,0,1-.15-.07l-.81-.83a.22.22,0,1,1,.32-.3l.43.45v-.59a.2.2,0,0,1,.06-.15l.54-.58a.22.22,0,0,1,.31,0,.22.22,0,0,1,0,.3l-.49.52v1a.21.21,0,0,1-.13.2Z"/><path d="M269,440.56a.21.21,0,0,1-.22-.21v-5.74l-.66-.54a.22.22,0,1,1,.28-.34l.74.61a.21.21,0,0,1,.08.17v5.84A.21.21,0,0,1,269,440.56Z"/><path d="M269,435.08h-.07a.21.21,0,0,1-.15-.2v-1.33a.22.22,0,0,1,.44,0v.73l.27-.33a.22.22,0,0,1,.3,0,.22.22,0,0,1,0,.31l-.65.79A.23.23,0,0,1,269,435.08Z"/><path d="M271.38,440.56a.21.21,0,0,1-.22-.21v-3.82a.22.22,0,0,1,.44,0v3.82A.21.21,0,0,1,271.38,440.56Z"/><path d="M271.38,437.65a.24.24,0,0,1-.16-.07.22.22,0,0,1,0-.31l.6-.54a.22.22,0,0,1,.31,0,.21.21,0,0,1,0,.3l-.61.54A.2.2,0,0,1,271.38,437.65Z"/><path d="M264.9,438.21a2.75,2.75,0,0,1-2.47-3c0-1.68,1.19-5,2.62-5s2.31,3.53,2.31,5A2.75,2.75,0,0,1,264.9,438.21Zm.15-7.55c-1,0-2.18,3-2.18,4.54a2.09,2.09,0,1,0,4.06,0,9.25,9.25,0,0,0-.57-2.9C266,431.26,265.5,430.66,265.05,430.66Z"/><path d="M269,436.62a3,3,0,0,1-2-.73.22.22,0,0,1,0-.31.21.21,0,0,1,.3,0,2.61,2.61,0,0,0,1.71.63,2.39,2.39,0,0,0,2.48-2.35c0-1.39-1-4.16-2.29-4.16-.92,0-1.89,1.37-2.37,2.73a.22.22,0,0,1-.28.13.21.21,0,0,1-.13-.27c.54-1.51,1.6-3,2.78-3,1.66,0,2.72,3,2.72,4.59A2.82,2.82,0,0,1,269,436.62Z"/><path d="M271.38,438.33a1.75,1.75,0,0,1-1.76-1.75v-.3a.22.22,0,0,1,.44,0v.3a1.32,1.32,0,1,0,1.32-1.32.22.22,0,1,1,0-.44,1.76,1.76,0,0,1,0,3.51Z"/><circle class="cls-7" cx="493.33" cy="107.74" r="13.09"/><path d="M490.6,113.4a.22.22,0,0,1-.21-.22v-5.36a.22.22,0,1,1,.43,0v5.36A.22.22,0,0,1,490.6,113.4Z"/><path d="M490.6,109.74a.19.19,0,0,1-.15-.07l-.81-.83a.21.21,0,0,1,0-.3.22.22,0,0,1,.31,0l.43.45v-.59a.2.2,0,0,1,.06-.15l.54-.58a.22.22,0,1,1,.32.3l-.49.52v1a.21.21,0,0,1-.13.2A.15.15,0,0,1,490.6,109.74Z"/><path d="M494.5,113.4a.22.22,0,0,1-.22-.22v-5.73l-.66-.55a.22.22,0,0,1,0-.3.22.22,0,0,1,.31,0l.74.61a.21.21,0,0,1,.08.16v5.84A.22.22,0,0,1,494.5,113.4Z"/><path d="M494.5,107.92h-.07a.23.23,0,0,1-.15-.21v-1.32a.22.22,0,0,1,.44,0v.72l.27-.32a.21.21,0,0,1,.33.27l-.65.79A.25.25,0,0,1,494.5,107.92Z"/><path d="M496.93,113.4a.22.22,0,0,1-.22-.22v-3.81a.22.22,0,1,1,.44,0v3.81A.22.22,0,0,1,496.93,113.4Z"/><path d="M496.93,110.48a.2.2,0,0,1-.16-.07.22.22,0,0,1,0-.31l.6-.53a.22.22,0,1,1,.29.32l-.61.54A.24.24,0,0,1,496.93,110.48Z"/><path d="M490.45,111a2.75,2.75,0,0,1-2.47-3c0-1.68,1.19-5,2.62-5s2.31,3.53,2.31,5A2.74,2.74,0,0,1,490.45,111Zm.15-7.55c-1,0-2.18,3-2.18,4.55a2.09,2.09,0,1,0,4.06,0,9.26,9.26,0,0,0-.57-2.91C491.53,104.09,491.05,103.49,490.6,103.49Z"/><path d="M494.54,109.45a3,3,0,0,1-2-.73.21.21,0,1,1,.28-.32,2.6,2.6,0,0,0,1.71.62,2.39,2.39,0,0,0,2.48-2.35c0-1.38-1-4.15-2.29-4.15-.92,0-1.89,1.37-2.37,2.72a.22.22,0,0,1-.28.14.22.22,0,0,1-.13-.28c.54-1.5,1.6-3,2.78-3,1.66,0,2.72,3,2.72,4.59A2.82,2.82,0,0,1,494.54,109.45Z"/><path d="M496.93,111.17a1.76,1.76,0,0,1-1.76-1.76v-.3a.22.22,0,0,1,.44,0v.3a1.32,1.32,0,1,0,1.32-1.32.22.22,0,1,1,0-.43,1.76,1.76,0,0,1,0,3.51Z"/><circle class="cls-7" cx="493.33" cy="276.79" r="13.09"/><path d="M490.6,282.45a.22.22,0,0,1-.21-.21v-5.37a.21.21,0,0,1,.21-.21.21.21,0,0,1,.22.21v5.37A.22.22,0,0,1,490.6,282.45Z"/><path d="M490.6,278.79a.22.22,0,0,1-.15-.06l-.81-.83a.22.22,0,0,1,0-.31.23.23,0,0,1,.31,0l.43.45v-.59a.22.22,0,0,1,.06-.15l.54-.57a.21.21,0,0,1,.31,0,.22.22,0,0,1,0,.3l-.49.52v1a.22.22,0,0,1-.13.2Z"/><path d="M494.5,282.45a.22.22,0,0,1-.22-.21V276.5l-.66-.54a.22.22,0,1,1,.28-.34l.74.61a.21.21,0,0,1,.08.17v5.84A.22.22,0,0,1,494.5,282.45Z"/><path d="M494.5,277h-.07a.21.21,0,0,1-.15-.2v-1.33a.22.22,0,0,1,.44,0v.73l.27-.33a.22.22,0,0,1,.3,0,.22.22,0,0,1,0,.31l-.65.78A.25.25,0,0,1,494.5,277Z"/><path d="M496.93,282.45a.22.22,0,0,1-.22-.21v-3.82a.22.22,0,1,1,.44,0v3.82A.22.22,0,0,1,496.93,282.45Z"/><path d="M496.93,279.54a.22.22,0,0,1-.14-.38l.6-.54a.22.22,0,0,1,.31,0,.21.21,0,0,1,0,.3l-.61.54A.2.2,0,0,1,496.93,279.54Z"/><path d="M490.45,280.1a2.75,2.75,0,0,1-2.47-3c0-1.68,1.19-5,2.62-5s2.31,3.54,2.31,5A2.75,2.75,0,0,1,490.45,280.1Zm.15-7.55c-1,0-2.18,3-2.18,4.54a2.09,2.09,0,1,0,4.06,0,9.36,9.36,0,0,0-.57-2.91C491.53,273.14,491.05,272.55,490.6,272.55Z"/><path d="M494.54,278.51a3,3,0,0,1-2-.74.21.21,0,1,1,.28-.32,2.6,2.6,0,0,0,1.71.62,2.39,2.39,0,0,0,2.48-2.34c0-1.39-1-4.16-2.29-4.16-.92,0-1.89,1.37-2.37,2.73a.22.22,0,0,1-.28.13.22.22,0,0,1-.13-.28c.54-1.5,1.6-3,2.78-3,1.66,0,2.72,3,2.72,4.59A2.82,2.82,0,0,1,494.54,278.51Z"/><path d="M496.93,280.22a1.76,1.76,0,0,1-1.76-1.75v-.31a.22.22,0,0,1,.44,0v.31a1.32,1.32,0,1,0,1.32-1.33.21.21,0,0,1-.22-.21.22.22,0,0,1,.22-.22,1.76,1.76,0,0,1,0,3.51Z"/><rect class="cls-12" x="78.83" y="13.83" width="744.81" height="349.4"/><polyline class="cls-12" points="681.16 363.23 709.63 363.23 709.63 484.79 645.5 484.79 645.5 363.23"/><rect class="cls-4" x="563.35" y="418.25" width="82.16" height="68.06"/><polygon class="cls-12" points="823.63 363.49 823.63 484.81 645.5 484.81 645.5 484.77 709.63 484.77 709.63 363.49 823.63 363.49"/><rect class="cls-9" x="710.39" y="364.45" width="113.25" height="120.36"/><g class="cls-13"><path class="cls-2" d="M327.11,43.54l-1.3,3.06h-2.39l6-13.58h2.35l5.94,13.58h-2.45L334,43.54Zm3.42-8.08-2.56,6h5.12Z"/></g><g class="cls-13"><path class="cls-2" d="M374.54,33c2.82,0,4.56,1.28,4.56,3.39a3,3,0,0,1-2.39,3,3.3,3.3,0,0,1,2.92,3.44c0,2.33-1.89,3.72-4.95,3.72h-6V33Zm-3.61,5.63h3.49c1.46,0,2.33-.68,2.33-1.83s-.87-1.76-2.33-1.76h-3.49Zm0,5.92h3.49c1.79,0,2.86-.7,2.86-2s-1.07-1.93-2.86-1.93h-3.49Z"/></g><g class="cls-13"><path class="cls-2" d="M592.24,43.54l-1.3,3.06h-2.39l6-13.58h2.35l5.94,13.58h-2.45l-1.3-3.06Zm3.42-8.08-2.57,6h5.13Z"/></g><g class="cls-13"><path class="cls-2" d="M638.67,33c2.81,0,4.56,1.28,4.56,3.39a3,3,0,0,1-2.39,3,3.29,3.29,0,0,1,2.91,3.44c0,2.33-1.88,3.72-5,3.72h-6V33Zm-3.61,5.63h3.49c1.46,0,2.33-.68,2.33-1.83s-.87-1.76-2.33-1.76h-3.49Zm0,5.92h3.49c1.79,0,2.85-.7,2.85-2s-1.06-1.93-2.85-1.93h-3.49Z"/></g><path class="cls-5" d="M384.82,16.3V70.63H321.71V16.3h63.11m1-1H320.71V71.63h65.11V15.3Z"/><path class="cls-5" d="M319.71,16.29V70.63h-64V16.29h64m1-1h-66V71.63h66V15.29Z"/><path class="cls-5" d="M253.67,16.29V70.63H219.3a29,29,0,0,1-29-29V16.29h63.37m1-1H189.3V41.63a30,30,0,0,0,30,30h35.37V15.29Z"/><path class="cls-5" d="M583.16,16.4V70.63H519.39V16.4h63.77m1-1H518.39V71.63h65.77V15.4Z"/><path class="cls-5" d="M517.39,16.4V70.63h-64.2V16.4h64.2m1-1h-66.2V71.63h66.2V15.4Z"/><path class="cls-5" d="M451.19,16.3V70.63H386.82V16.3h64.37m1-1H385.82V71.63h66.37V15.3Z"/><path class="cls-5" d="M648.08,16.29V70.63H585.16V16.29h62.92m1-1H584.16V71.63h64.92V15.29Z"/><path class="cls-5" d="M319.71,304.81v55.92h-64V304.81h64m1-1h-66v57.92h66V303.81Z"/><path class="cls-5" d="M384.8,304.81v55.92H321.72V304.81H384.8m1-1H320.72v57.92H385.8V303.81Z"/><path class="cls-5" d="M253.67,304.81v55.92H190.3V332.92c0-15.5,13-28.11,29-28.11h34.37m1-1H219.3c-16.57,0-30,13-30,29.11v28.81h65.37V303.81Z"/><path class="cls-5" d="M517.39,304.81v55.92h-64.2V304.81h64.2m1-1h-66.2v57.92h66.2V303.81Z"/><path class="cls-5" d="M583.4,304.81v55.92H519.2V304.81h64.2m1-1H518.2v57.92h66.2V303.81Z"/><path class="cls-5" d="M451.19,304.81v55.92H386.82V304.81h64.37m1-1H385.82v57.92h66.37V303.81Z"/><path class="cls-5" d="M745.33,16.3V70.9H682.17V16.3h63.16m1-1H681.17V71.9h65.16V15.3Z"/><path class="cls-5" d="M449,192v52.36a29,29,0,0,1-29,29H374.31V192H449m1-1H373.31v83.36H420a30,30,0,0,0,30-30V191Z"/><path class="cls-5" d="M372.31,192v81.36H322V192h50.36m1-1H321v83.36h52.36V191Z"/><path class="cls-5" d="M420,108.48a29,29,0,0,1,29,29v52.36H374.31V108.48H420m0-1H373.31v83.36H450V137.48a30,30,0,0,0-30-30Z"/><path class="cls-5" d="M372.31,108.48v81.36H322V108.48h50.36m1-1H321v83.36h52.36V107.48Z"/><path class="cls-5" d="M745,211.1V273H682.17V211.1H745m1-1H681.17V274H746V210.1Z"/><path class="cls-5" d="M745,107.48v61.91H682.17V107.48H745m1-1H681.17v63.91H746V106.48Z"/><path class="cls-5" d="M603,108.48v81.36H528.24V137.48a29,29,0,0,1,29-29H603m1-1H557.24a30,30,0,0,0-30,30v53.36H604V107.48Z"/><path class="cls-5" d="M655.33,108.48v81.36H605V108.48h50.36m1-1H604v83.36h52.36V107.48Z"/><path class="cls-5" d="M603,192v81.36H557.24a29,29,0,0,1-29-29V192H603m1-1H527.24v53.36a30,30,0,0,0,30,30H604V191Z"/><path class="cls-5" d="M655.33,192v81.36H605V192h50.36m1-1H604v83.36h52.36V191Z"/><path class="cls-5" d="M286.39,16.29V70.63H255.67V16.29h30.72m1-1H254.67V71.63h32.72V15.29Z"/><path class="cls-5" d="M352,16.29V70.63H321.74V16.29H352m1-1H320.74V71.63H353V15.29Z"/><path class="cls-5" d="M616.14,16.29V70.63H585.26V16.29h30.88m1-1H584.26V71.63h32.88V15.29Z"/><path class="cls-5" d="M648.08,304.81v55.93H585.16V304.81h62.92m1-1H584.16v57.93h64.92V303.81Z"/><path class="cls-5" d="M745,304.54v56H682.17v-56H745m1-1H681.17v58H746v-58Z"/><path class="cls-5" d="M648.08,304.81v55.92H585.16V304.81h62.92m1-1H584.16v57.92h64.92V303.81Z"/><path class="cls-5" d="M745,304.54v56.18H682.17V304.54H745m1-1H681.17v58.18H746V303.54Z"/><path class="cls-5" d="M615.67,304.81v55.92H585.16V304.81h30.51m1-1H584.16v57.92h32.51V303.81Z"/><path class="cls-5" d="M319.71,304.81v55.92H288.42V304.81h31.29m1-1H287.42v57.92h33.29V303.81Z"/><path class="cls-5" d="M384.8,304.81v55.92H354.34V304.81H384.8m1-1H353.34v57.92H385.8V303.81Z"/><path class="cls-5" d="M655.33,192v40H605V192h50.36m1-1H604v42h52.36V191Z"/><path class="cls-5" d="M655.33,150.13v39.71H605V150.13h50.36m1-1H604v41.71h52.36V149.13Z"/><path class="cls-5" d="M821.1,16.3V70.9H747V16.3H821.1m1-1H746V71.9H822.1V15.3Z"/><path class="cls-5" d="M771.69,16.3V70.9H746.38V16.3h25.31m1-1H745.38V71.9h27.31V15.3Z"/><path class="cls-5" d="M797.7,16.3V70.9h-25V16.3h25m1-1h-27V71.9h27V15.3Z"/><path class="cls-5" d="M771.92,107.48v61.91H746.1V107.48h25.82m1-1H745.1v63.91h27.82V106.48Z"/><path class="cls-5" d="M798.55,107.48v61.91H772.93V107.48h25.62m1-1H771.93v63.91h27.62V106.48Z"/><path class="cls-5" d="M798.08,139.72v29.67H746.3V139.72h51.78m1-1H745.3v31.67h53.78V138.72Z"/><path class="cls-5" d="M821.05,211.1V273H747V211.1h74.06m1-1H746V274h76.06V210.1Z"/><path class="cls-5" d="M821.05,243.09V273H747V243.09h74.06m1-1H746V274h76.06V242.09Z"/><path class="cls-5" d="M772.8,211.1V273H747V211.1H772.8m1-1H746V274H773.8V210.1Z"/><path class="cls-5" d="M773.25,211.1V273H746.07V211.1h27.18m1-1H745.07V274h29.18V210.1Z"/><path class="cls-5" d="M798.26,211.1V273H773.74V211.1h24.52m1-1H772.74V274h26.52V210.1Z"/><path class="cls-5" d="M821,304.54v56.24H746V304.54H821m1-1H745v58.24H822V303.54Z"/><path class="cls-5" d="M772.8,304.54v56.12H746.09V304.54H772.8m1-1H745.09v58.12H773.8V303.54Z"/><path class="cls-5" d="M798.26,304.54v56H773.71v-56h24.55m1-1H772.71v58h26.55v-58Z"/><path class="cls-5" d="M260,108.48a29,29,0,0,1,29,29V159H190.53V137.48a29,29,0,0,1,29-29H260m0-1H219.53a30,30,0,0,0-30,30V160H290V137.48a30,30,0,0,0-30-30Z"/><path class="cls-5" d="M289,223v21.48a29,29,0,0,1-29,29H219.53a29,29,0,0,1-29-29V223H289m1-1H189.53v22.48a30,30,0,0,0,30,30H260a30,30,0,0,0,30-30V222Z"/><circle class="cls-6" cx="287.06" cy="40.8" r="13.09"/><circle class="cls-5" cx="352.35" cy="40.8" r="13.09"/><path d="M347.66,43.1v1.28h-5.05V36H344V43.1Z"/><path d="M355.62,40.19c0,2.72-1.27,4.23-3.56,4.23s-3.57-1.51-3.57-4.23S349.76,36,352.06,36,355.62,37.46,355.62,40.19Zm-5.68,0c0,2.12.71,3.11,2.12,3.11s2.11-1,2.11-3.11-.7-3.12-2.11-3.12S349.94,38.05,349.94,40.19Z"/><path d="M359.78,39.53a2.27,2.27,0,0,1,2.36,2.25c0,1.57-1.19,2.66-3.06,2.66a4.87,4.87,0,0,1-2.83-.91l.59-1.15a3.2,3.2,0,0,0,2.15.88c1.11,0,1.76-.58,1.76-1.44s-.66-1.38-1.77-1.38h-1.17v-.83L360,37.26h-3.35V36h5.11v.89l-2.4,2.59Z"/><circle class="cls-5" cx="616.58" cy="40.8" r="13.09"/><path d="M611.7,43.1v1.28h-5.05V36h1.42V43.1Z"/><path d="M619.67,40.19c0,2.72-1.27,4.23-3.56,4.23s-3.58-1.51-3.58-4.23S613.8,36,616.11,36,619.67,37.46,619.67,40.19Zm-5.69,0c0,2.12.71,3.11,2.13,3.11s2.11-1,2.11-3.11-.71-3.12-2.11-3.12S614,38.05,614,40.19Z"/><path d="M623.45,44.38H622l3.26-7.12H622v1.17h-1.25V36h6.11v1.08Z"/><circle class="cls-5" cx="714.82" cy="40.8" r="13.09"/><path d="M709.94,43.1v1.28h-5.05V36h1.42V43.1Z"/><path d="M717.91,40.19c0,2.72-1.27,4.23-3.56,4.23s-3.58-1.51-3.58-4.23S712,36,714.35,36,717.91,37.46,717.91,40.19Zm-5.69,0c0,2.12.71,3.11,2.13,3.11s2.11-1,2.11-3.11-.71-3.12-2.11-3.12S712.22,38.05,712.22,40.19Z"/><path d="M721.69,44.38h-1.5l3.26-7.12h-3.26v1.17h-1.25V36H725v1.08Z"/><circle class="cls-5" cx="759.57" cy="40.8" r="9.68"/><path d="M755.38,37.24c1.29,0,2.09.58,2.09,1.55a1.38,1.38,0,0,1-1.09,1.39,1.5,1.5,0,0,1,1.33,1.57c0,1.06-.86,1.7-2.26,1.7h-2.77V37.24Zm-1.65,2.57h1.6c.67,0,1.07-.31,1.07-.83s-.4-.81-1.07-.81h-1.6Zm0,2.71h1.6c.82,0,1.31-.32,1.31-.91s-.49-.88-1.31-.88h-1.6Z"/><path d="M759.47,43.45V38.17h-1.22v-.93h2.26v6.21Z"/><path d="M764.8,41V39.52h1V41h.9v.93h-.9v1.53h-1V41.92h-3v-.78l2.13-3.9h1L763,41Z"/><circle class="cls-5" cx="759.57" cy="123.78" r="9.68"/><path d="M755.65,120.21c1.29,0,2.09.59,2.09,1.56a1.36,1.36,0,0,1-1.09,1.38,1.51,1.51,0,0,1,1.33,1.57c0,1.07-.86,1.71-2.27,1.71H753v-6.22ZM754,122.79h1.6c.66,0,1.06-.31,1.06-.84s-.4-.81-1.06-.81H754Zm0,2.71h1.6c.81,0,1.3-.32,1.3-.91s-.49-.88-1.3-.88H754Z"/><path d="M759.73,126.43v-5.29h-1.21v-.93h2.26v6.22Z"/><path d="M764.48,122.83a1.69,1.69,0,0,1,1.75,1.67,2,2,0,0,1-2.26,2,3.58,3.58,0,0,1-2.1-.67l.44-.85a2.36,2.36,0,0,0,1.58.64c.83,0,1.31-.42,1.31-1.06s-.49-1-1.31-1H763v-.62l1.62-1.74h-2.49v-.93h3.79v.66l-1.78,1.92Z"/><circle class="cls-5" cx="759.57" cy="154.2" r="9.68"/><path d="M755,150.63c1.28,0,2.08.59,2.08,1.55a1.35,1.35,0,0,1-1.09,1.39,1.5,1.5,0,0,1,1.33,1.57c0,1.07-.86,1.71-2.26,1.71h-2.76v-6.22Zm-1.66,2.58h1.6c.67,0,1.07-.32,1.07-.84s-.4-.81-1.07-.81h-1.6Zm0,2.7h1.6c.82,0,1.31-.32,1.31-.9s-.49-.88-1.31-.88h-1.6Z"/><path d="M759.06,156.85v-5.29h-1.22v-.93h2.27v6.22Z"/><path d="M766.87,153.74c0,2-.94,3.13-2.64,3.13s-2.64-1.12-2.64-3.13.94-3.14,2.64-3.14S766.87,151.72,766.87,153.74Zm-4.21,0c0,1.57.52,2.31,1.57,2.31s1.57-.74,1.57-2.31-.53-2.31-1.57-2.31S762.66,152.16,762.66,153.74Z"/><circle class="cls-5" cx="786.36" cy="123.78" r="9.68"/><path d="M782.22,120.21c1.29,0,2.09.59,2.09,1.56a1.36,1.36,0,0,1-1.09,1.38,1.51,1.51,0,0,1,1.33,1.57c0,1.07-.86,1.71-2.26,1.71h-2.77v-6.22Zm-1.65,2.58h1.6c.67,0,1.07-.31,1.07-.84s-.4-.81-1.07-.81h-1.6Zm0,2.71h1.6c.82,0,1.31-.32,1.31-.91s-.49-.88-1.31-.88h-1.6Z"/><path d="M786.3,126.43v-5.29h-1.21v-.93h2.26v6.22Z"/><path d="M792.94,121.73a3.42,3.42,0,0,1-1.13,2l-1.62,1.72h3v.94h-4.42v-.77l2.29-2.46a2.26,2.26,0,0,0,.75-1.32c0-.5-.39-.8-1-.8a2.67,2.67,0,0,0-1.69.78l-.42-.8a3.58,3.58,0,0,1,2.26-.89C792.14,120.17,792.94,120.78,792.94,121.73Z"/><circle class="cls-5" cx="786.36" cy="154.2" r="9.68"/><path d="M783.11,150.63c1.29,0,2.09.59,2.09,1.55a1.36,1.36,0,0,1-1.09,1.39,1.51,1.51,0,0,1,1.33,1.57c0,1.07-.86,1.71-2.26,1.71h-2.76v-6.22Zm-1.65,2.58h1.6c.67,0,1.07-.32,1.07-.84s-.4-.81-1.07-.81h-1.6Zm0,2.7h1.6c.82,0,1.31-.32,1.31-.9s-.49-.88-1.31-.88h-1.6Z"/><path d="M787.2,156.85v-5.29H786v-.93h2.26v6.22Z"/><path d="M790.63,156.85v-5.29h-1.22v-.93h2.27v6.22Z"/><circle class="cls-5" cx="785.33" cy="40.8" r="9.68"/><path d="M781.25,37.24c1.28,0,2.08.58,2.08,1.55a1.37,1.37,0,0,1-1.09,1.39,1.5,1.5,0,0,1,1.33,1.57c0,1.06-.86,1.7-2.26,1.7h-2.76V37.24Zm-1.66,2.57h1.6c.67,0,1.07-.31,1.07-.83s-.4-.81-1.07-.81h-1.6Zm0,2.71h1.6c.82,0,1.31-.32,1.31-.91s-.49-.88-1.31-.88h-1.6Z"/><path d="M785.33,43.45V38.17h-1.22v-.93h2.27v6.21Z"/><path d="M789.1,38.18v1.34H790a2,2,0,0,1,2.22,1.89,2.07,2.07,0,0,1-2.3,2.09,4.2,4.2,0,0,1-2.21-.71l.42-.86a2.7,2.7,0,0,0,1.68.66c.81,0,1.29-.42,1.29-1.12s-.48-1-1.28-1c-.38,0-1.22,0-1.64.08V37.24h3.79v.94Z"/><circle class="cls-5" cx="809.88" cy="40.8" r="9.68"/><path d="M805.63,37.24c1.29,0,2.08.58,2.08,1.55a1.37,1.37,0,0,1-1.09,1.39A1.5,1.5,0,0,1,808,41.75c0,1.06-.86,1.7-2.26,1.7h-2.76V37.24ZM804,39.81h1.59c.67,0,1.07-.31,1.07-.83s-.4-.81-1.07-.81H804Zm0,2.71h1.59c.82,0,1.31-.32,1.31-.91s-.49-.88-1.31-.88H804Z"/><path d="M809.71,43.45V38.17h-1.22v-.93h2.27v6.21Z"/><path d="M816.78,37.66l-.41.79a2.64,2.64,0,0,0-1.38-.39c-1.21,0-1.77.91-1.73,2.25a1.81,1.81,0,0,1,1.7-.88,1.84,1.84,0,0,1,2,2,2,2,0,0,1-2.18,2.09c-1.57,0-2.53-1.12-2.53-3s1-3.28,2.68-3.28A4.2,4.2,0,0,1,816.78,37.66Zm-3.35,3.78a1.16,1.16,0,0,0,1.29,1.15A1.14,1.14,0,0,0,816,41.4a1.1,1.1,0,0,0-1.22-1.15A1.21,1.21,0,0,0,813.43,41.44Z"/><circle class="cls-5" cx="759.57" cy="225.41" r="9.68"/><path d="M754.52,221.84c1.29,0,2.09.58,2.09,1.55a1.37,1.37,0,0,1-1.1,1.39,1.5,1.5,0,0,1,1.34,1.57c0,1.06-.87,1.7-2.27,1.7h-2.76v-6.21Zm-1.65,2.57h1.6c.66,0,1.06-.31,1.06-.83s-.4-.81-1.06-.81h-1.6Zm0,2.71h1.6c.81,0,1.3-.32,1.3-.9s-.49-.88-1.3-.88h-1.6Z"/><path d="M762.62,225c0,2-.94,3.13-2.63,3.13s-2.65-1.12-2.65-3.13.94-3.14,2.65-3.14S762.62,222.93,762.62,225Zm-4.21,0c0,1.57.53,2.31,1.58,2.31s1.56-.74,1.56-2.31-.53-2.31-1.56-2.31S758.41,223.37,758.41,225Z"/><path d="M765.06,228.05H764l2.42-5.27H764v.87H763v-1.81h4.52v.8Z"/><circle class="cls-5" cx="785.33" cy="225.41" r="9.68"/><path d="M779.86,221.84c1.29,0,2.08.58,2.08,1.55a1.36,1.36,0,0,1-1.09,1.39,1.5,1.5,0,0,1,1.33,1.57c0,1.06-.86,1.7-2.26,1.7h-2.76v-6.21Zm-1.65,2.57h1.59c.67,0,1.07-.31,1.07-.83s-.4-.81-1.07-.81h-1.59Zm0,2.71h1.59c.82,0,1.31-.32,1.31-.9s-.49-.88-1.31-.88h-1.59Z"/><path d="M788.14,225c0,2-.94,3.13-2.64,3.13s-2.64-1.12-2.64-3.13.94-3.14,2.64-3.14S788.14,222.93,788.14,225Zm-4.21,0c0,1.57.52,2.31,1.57,2.31s1.57-.74,1.57-2.31-.53-2.31-1.57-2.31S783.93,223.37,783.93,225Z"/><path d="M793.25,223.4a1.43,1.43,0,0,1-.92,1.33,1.65,1.65,0,0,1,1.23,1.58c0,1.11-.92,1.79-2.4,1.79s-2.38-.68-2.38-1.77a1.66,1.66,0,0,1,1.27-1.6,1.48,1.48,0,0,1-1-1.36c0-1,.8-1.58,2.07-1.58S793.25,222.41,793.25,223.4Zm-3.48,2.82c0,.67.51,1.05,1.39,1.05s1.41-.38,1.41-1.05-.52-1-1.41-1S789.77,225.57,789.77,226.22Zm.2-2.76c0,.58.45.91,1.19.91s1.19-.33,1.19-.91-.43-.91-1.19-.91S790,222.89,790,223.46Z"/><circle class="cls-5" cx="809.88" cy="225.41" r="9.68"/><path d="M804.46,221.84c1.28,0,2.08.58,2.08,1.55a1.36,1.36,0,0,1-1.09,1.39,1.5,1.5,0,0,1,1.33,1.57c0,1.06-.86,1.7-2.26,1.7h-2.76v-6.21Zm-1.66,2.57h1.6c.67,0,1.07-.31,1.07-.83s-.4-.81-1.07-.81h-1.6Zm0,2.71h1.6c.82,0,1.31-.32,1.31-.9s-.49-.88-1.31-.88h-1.6Z"/><path d="M812.74,225c0,2-.94,3.13-2.64,3.13s-2.65-1.12-2.65-3.13.95-3.14,2.65-3.14S812.74,222.93,812.74,225Zm-4.21,0c0,1.57.52,2.31,1.57,2.31s1.56-.74,1.56-2.31-.52-2.31-1.56-2.31S808.53,223.37,808.53,225Z"/><path d="M813.53,227.63l.41-.79a2.64,2.64,0,0,0,1.38.39c1.21,0,1.77-.91,1.73-2.25a1.81,1.81,0,0,1-1.69.88,1.84,1.84,0,0,1-2-2,2,2,0,0,1,2.18-2.09c1.57,0,2.53,1.12,2.53,3s-1,3.28-2.68,3.28A4.2,4.2,0,0,1,813.53,227.63Zm3.35-3.78a1.16,1.16,0,0,0-1.29-1.15,1.14,1.14,0,0,0-1.26,1.19,1.09,1.09,0,0,0,1.22,1.14A1.2,1.2,0,0,0,816.88,223.85Z"/><circle class="cls-5" cx="759.57" cy="257.43" r="9.68"/><path d="M754.14,253.86c1.29,0,2.09.59,2.09,1.56a1.36,1.36,0,0,1-1.09,1.38,1.51,1.51,0,0,1,1.33,1.57c0,1.07-.86,1.71-2.27,1.71h-2.76v-6.22Zm-1.65,2.58h1.6c.66,0,1.06-.31,1.06-.84s-.4-.8-1.06-.8h-1.6Zm0,2.71h1.6c.82,0,1.3-.32,1.3-.91s-.48-.88-1.3-.88h-1.6Z"/><path d="M762.42,257c0,2-.94,3.14-2.63,3.14s-2.65-1.12-2.65-3.14.94-3.13,2.65-3.13S762.42,255,762.42,257Zm-4.21,0c0,1.57.53,2.31,1.58,2.31s1.56-.74,1.56-2.31-.52-2.31-1.56-2.31S758.21,255.39,758.21,257Z"/><path d="M767.63,254.29l-.41.79a2.6,2.6,0,0,0-1.37-.39c-1.21,0-1.77.9-1.73,2.25a1.81,1.81,0,0,1,1.69-.88,1.84,1.84,0,0,1,2,2,2,2,0,0,1-2.18,2.08c-1.58,0-2.53-1.12-2.53-3s1-3.28,2.68-3.28A4.12,4.12,0,0,1,767.63,254.29Zm-3.34,3.77a1.17,1.17,0,0,0,1.28,1.16,1.14,1.14,0,0,0,1.26-1.19,1.09,1.09,0,0,0-1.21-1.15A1.2,1.2,0,0,0,764.29,258.06Z"/><circle class="cls-5" cx="785.33" cy="257.43" r="9.68"/><path d="M780.07,253.86c1.29,0,2.09.59,2.09,1.56a1.36,1.36,0,0,1-1.09,1.38,1.51,1.51,0,0,1,1.33,1.57c0,1.07-.86,1.71-2.26,1.71h-2.76v-6.22Zm-1.65,2.58H780c.67,0,1.07-.31,1.07-.84s-.4-.8-1.07-.8h-1.6Zm0,2.71H780c.82,0,1.31-.32,1.31-.91s-.49-.88-1.31-.88h-1.6Z"/><path d="M788.36,257c0,2-.94,3.14-2.64,3.14s-2.65-1.12-2.65-3.14.94-3.13,2.65-3.13S788.36,255,788.36,257Zm-4.21,0c0,1.57.52,2.31,1.57,2.31s1.56-.74,1.56-2.31-.52-2.31-1.56-2.31S784.15,255.39,784.15,257Z"/><path d="M790.27,254.8v1.34h.85a2,2,0,0,1,2.22,1.89,2.06,2.06,0,0,1-2.3,2.08,4.14,4.14,0,0,1-2.21-.71l.42-.85a2.7,2.7,0,0,0,1.68.66c.81,0,1.3-.42,1.3-1.12s-.49-1-1.29-1c-.38,0-1.22,0-1.64.08v-3.29h3.79v.94Z"/><circle class="cls-5" cx="809.88" cy="257.43" r="9.68"/><path d="M804.53,253.86c1.29,0,2.08.59,2.08,1.56a1.35,1.35,0,0,1-1.09,1.38,1.5,1.5,0,0,1,1.33,1.57c0,1.07-.86,1.71-2.26,1.71h-2.76v-6.22Zm-1.65,2.58h1.59c.67,0,1.07-.31,1.07-.84s-.4-.8-1.07-.8h-1.59Zm0,2.71h1.59c.82,0,1.31-.32,1.31-.91s-.49-.88-1.31-.88h-1.59Z"/><path d="M812.81,257c0,2-.94,3.14-2.64,3.14s-2.64-1.12-2.64-3.14.94-3.13,2.64-3.13S812.81,255,812.81,257Zm-4.21,0c0,1.57.52,2.31,1.57,2.31s1.56-.74,1.56-2.31-.52-2.31-1.56-2.31S808.6,255.39,808.6,257Z"/><path d="M816.29,257.62v-1.48h1v1.48h.91v.93h-.91v1.53h-1v-1.53h-3v-.78l2.12-3.91h1l-2,3.76Z"/><circle class="cls-5" cx="759.57" cy="332.52" r="9.68"/><path d="M755.15,329c1.29,0,2.09.58,2.09,1.55a1.37,1.37,0,0,1-1.09,1.39,1.5,1.5,0,0,1,1.33,1.57c0,1.06-.86,1.7-2.26,1.7h-2.77V329Zm-1.65,2.57h1.6c.67,0,1.07-.31,1.07-.83s-.4-.81-1.07-.81h-1.6Zm0,2.71h1.6c.82,0,1.31-.32,1.31-.91s-.49-.88-1.31-.88h-1.6Z"/><path d="M763.44,332.06c0,2-1,3.14-2.64,3.14s-2.65-1.12-2.65-3.14.94-3.13,2.65-3.13S763.44,330.05,763.44,332.06Zm-4.21,0c0,1.58.52,2.31,1.57,2.31s1.56-.73,1.56-2.31-.52-2.3-1.56-2.3S759.23,330.48,759.23,332.06Z"/><path d="M765,335.17v-5.28H763.8V329h2.26v6.21Z"/><circle class="cls-5" cx="786.33" cy="332.52" r="9.68"/><path d="M781,329c1.28,0,2.08.58,2.08,1.55A1.36,1.36,0,0,1,782,331.9a1.5,1.5,0,0,1,1.33,1.57c0,1.06-.86,1.7-2.26,1.7h-2.76V329Zm-1.66,2.57H781c.67,0,1.07-.31,1.07-.83s-.4-.81-1.07-.81h-1.6Zm0,2.71H781c.82,0,1.31-.32,1.31-.91s-.49-.88-1.31-.88h-1.6Z"/><path d="M789.31,332.06c0,2-.94,3.14-2.64,3.14s-2.65-1.12-2.65-3.14,1-3.13,2.65-3.13S789.31,330.05,789.31,332.06Zm-4.21,0c0,1.58.52,2.31,1.57,2.31s1.56-.73,1.56-2.31-.52-2.3-1.56-2.3S785.1,330.48,785.1,332.06Z"/><path d="M794.09,330.47a3.46,3.46,0,0,1-1.14,2l-1.61,1.71h3v.94H790v-.76l2.29-2.46a2.26,2.26,0,0,0,.76-1.32c0-.5-.39-.8-1-.8a2.72,2.72,0,0,0-1.7.78l-.41-.81a3.62,3.62,0,0,1,2.26-.89C793.28,328.91,794.09,329.52,794.09,330.47Z"/><circle class="cls-5" cx="809.95" cy="332.52" r="9.68"/><path d="M804.86,329c1.29,0,2.09.58,2.09,1.55a1.37,1.37,0,0,1-1.1,1.39,1.5,1.5,0,0,1,1.34,1.57c0,1.06-.87,1.7-2.27,1.7h-2.76V329Zm-1.65,2.57h1.6c.66,0,1.06-.31,1.06-.83s-.4-.81-1.06-.81h-1.6Zm0,2.71h1.6c.81,0,1.3-.32,1.3-.91s-.49-.88-1.3-.88h-1.6Z"/><path d="M813.14,332.06c0,2-.94,3.14-2.64,3.14s-2.64-1.12-2.64-3.14.94-3.13,2.64-3.13S813.14,330.05,813.14,332.06Zm-4.21,0c0,1.58.53,2.31,1.57,2.31s1.57-.73,1.57-2.31-.53-2.3-1.57-2.3S808.93,330.48,808.93,332.06Z"/><path d="M816,331.58a1.68,1.68,0,0,1,1.75,1.66,2,2,0,0,1-2.26,2,3.61,3.61,0,0,1-2.1-.68l.44-.85a2.33,2.33,0,0,0,1.59.65c.82,0,1.3-.43,1.3-1.07s-.49-1-1.31-1h-.86v-.61l1.61-1.74h-2.48V329h3.78v.66l-1.78,1.92Z"/><circle class="cls-5" cx="419.73" cy="334.34" r="13.09"/><path d="M416.63,336.64v1.28h-5.05v-8.4H413v7.12Z"/><path d="M418.68,337.92v-7.14H417v-1.26h3.06v8.4Z"/><path d="M423.78,330.8v1.81l1.15,0c1.83,0,3,1.08,3,2.56a2.79,2.79,0,0,1-3.1,2.82,5.64,5.64,0,0,1-3-1l.56-1.15a3.66,3.66,0,0,0,2.27.88c1.09,0,1.75-.56,1.75-1.51s-.66-1.38-1.74-1.38c-.5,0-1.64,0-2.21.11v-4.44h5.11l0,1.28Z"/><circle class="cls-5" cx="484.4" cy="334.34" r="13.09"/><circle class="cls-5" cx="550.07" cy="334.34" r="13.09"/><circle class="cls-5" cx="225.28" cy="334.34" r="13.09"/><path d="M221.89,336.64v1.28h-5v-8.4h1.41v7.12Z"/><path d="M223.94,337.92v-7.14H222.3v-1.26h3.06v8.4Z"/><path d="M233.36,331.63a1.92,1.92,0,0,1-1.25,1.8,2.24,2.24,0,0,1,1.67,2.14c0,1.5-1.25,2.41-3.24,2.41s-3.23-.91-3.23-2.39a2.25,2.25,0,0,1,1.73-2.16,2,2,0,0,1-1.31-1.84c0-1.32,1.09-2.13,2.81-2.13S233.36,330.29,233.36,331.63Zm-4.7,3.81c0,.91.68,1.42,1.88,1.42s1.89-.51,1.89-1.42-.69-1.39-1.89-1.39S228.66,334.56,228.66,335.44Zm.27-3.72c0,.78.6,1.22,1.61,1.22s1.61-.44,1.61-1.22-.59-1.24-1.61-1.24S228.93,330.94,228.93,331.72Z"/><g class="cls-13"><path class="cls-2" d="M262.14,337.07l-1.3,3.07h-2.39l6-13.59h2.34l5.94,13.59h-2.44l-1.3-3.07Zm3.41-8.07L263,335h5.12Z"/></g><g class="cls-13"><path class="cls-2" d="M310.56,326.55c2.82,0,4.57,1.28,4.57,3.4a3,3,0,0,1-2.39,3,3.3,3.3,0,0,1,2.91,3.43c0,2.33-1.88,3.73-4.95,3.73h-6V326.55ZM307,332.18h3.5c1.45,0,2.33-.68,2.33-1.82s-.88-1.77-2.33-1.77H307Zm0,5.92h3.5c1.78,0,2.85-.7,2.85-2s-1.07-1.92-2.85-1.92H307Z"/></g><g class="cls-13"><path class="cls-2" d="M327.11,337.07l-1.3,3.07h-2.39l6-13.59h2.35l5.94,13.59h-2.45l-1.3-3.07Zm3.42-8.07L328,335h5.12Z"/></g><g class="cls-13"><path class="cls-2" d="M374.54,326.55c2.82,0,4.56,1.28,4.56,3.4a3,3,0,0,1-2.39,3,3.3,3.3,0,0,1,2.92,3.43c0,2.33-1.89,3.73-4.95,3.73h-6V326.55Zm-3.61,5.63h3.49c1.46,0,2.33-.68,2.33-1.82s-.87-1.77-2.33-1.77h-3.49Zm0,5.92h3.49c1.79,0,2.86-.7,2.86-2s-1.07-1.92-2.86-1.92h-3.49Z"/></g><g class="cls-13"><path class="cls-2" d="M592.24,337.07l-1.3,3.07h-2.39l6-13.59h2.35l5.94,13.59h-2.45l-1.3-3.07Zm3.42-8.07-2.57,6h5.13Z"/></g><g class="cls-13"><path class="cls-2" d="M627,130.32l-1.31,3.06h-2.38l6-13.58h2.35l5.94,13.58h-2.44l-1.3-3.06Zm3.41-8.08-2.56,6h5.12Z"/></g><g class="cls-13"><path class="cls-2" d="M631.24,167.81c2.82,0,4.57,1.28,4.57,3.4a3,3,0,0,1-2.39,3,3.3,3.3,0,0,1,2.91,3.43c0,2.33-1.88,3.73-5,3.73h-6V167.81Zm-3.61,5.63h3.5c1.45,0,2.33-.68,2.33-1.82s-.88-1.77-2.33-1.77h-3.5Zm0,5.92h3.5c1.78,0,2.85-.7,2.85-2s-1.07-1.92-2.85-1.92h-3.5Z"/></g><g class="cls-13"><path class="cls-2" d="M627,212.47l-1.31,3.07h-2.38l6-13.59h2.35l5.94,13.59h-2.44l-1.3-3.07Zm3.41-8.07-2.56,6h5.12Z"/></g><g class="cls-13"><path class="cls-2" d="M631.24,250c2.82,0,4.57,1.28,4.57,3.4a3,3,0,0,1-2.39,3,3.3,3.3,0,0,1,2.91,3.44c0,2.33-1.88,3.72-5,3.72h-6V250Zm-3.61,5.63h3.5c1.45,0,2.33-.68,2.33-1.83s-.88-1.76-2.33-1.76h-3.5Zm0,5.92h3.5c1.78,0,2.85-.7,2.85-2s-1.07-1.92-2.85-1.92h-3.5Z"/></g><circle class="cls-6" cx="347.97" cy="150.51" r="13.09"/><circle class="cls-6" cx="411.08" cy="150.51" r="13.09"/><circle class="cls-6" cx="411.08" cy="229.63" r="13.09"/><circle class="cls-6" cx="240.9" cy="135.51" r="13.09"/><circle class="cls-6" cx="236.98" cy="246.11" r="13.09"/><circle class="cls-6" cx="566.77" cy="151.51" r="13.09"/><circle class="cls-6" cx="566.77" cy="229.63" r="13.09"/><circle class="cls-6" cx="347.97" cy="232.78" r="13.09"/><g class="cls-13"><path class="cls-2" d="M638.67,326.55c2.81,0,4.56,1.28,4.56,3.4a3,3,0,0,1-2.39,3,3.29,3.29,0,0,1,2.91,3.43c0,2.33-1.88,3.73-5,3.73h-6V326.55Zm-3.61,5.63h3.49c1.46,0,2.33-.68,2.33-1.82s-.87-1.77-2.33-1.77h-3.49Zm0,5.92h3.49c1.79,0,2.85-.7,2.85-2s-1.06-1.92-2.85-1.92h-3.49Z"/></g><circle class="cls-5" cx="287.06" cy="334.34" r="13.09"/><circle class="cls-5" cx="352.35" cy="334.34" r="13.09"/><path d="M349,336.64v1.28h-5v-8.4h1.41v7.12Z"/><path d="M351.08,337.92v-7.14h-1.64v-1.26h3.06v8.4Z"/><path d="M360.63,330.1l-.55,1.07a3.56,3.56,0,0,0-1.86-.53c-1.63,0-2.39,1.22-2.34,3a2.45,2.45,0,0,1,2.29-1.18,2.49,2.49,0,0,1,2.7,2.67,2.69,2.69,0,0,1-2.95,2.82c-2.12,0-3.42-1.51-3.42-4.09s1.4-4.43,3.62-4.43A5.59,5.59,0,0,1,360.63,330.1Zm-4.52,5.1a1.58,1.58,0,0,0,1.74,1.56,1.54,1.54,0,0,0,1.7-1.61,1.48,1.48,0,0,0-1.64-1.55A1.63,1.63,0,0,0,356.11,335.2Z"/><circle class="cls-5" cx="616.58" cy="334.34" r="13.09"/><path d="M613.42,336.64v1.28h-5v-8.4h1.41v7.12Z"/><path d="M615.47,337.92v-7.14h-1.64v-1.26h3.06v8.4Z"/><path d="M624.45,331.57a4.64,4.64,0,0,1-1.54,2.76l-2.18,2.32h4.1v1.27h-6v-1l3.09-3.32a3.12,3.12,0,0,0,1-1.79c0-.67-.53-1.08-1.4-1.08a3.65,3.65,0,0,0-2.29,1.05l-.57-1.09a4.93,4.93,0,0,1,3.06-1.2C623.35,329.46,624.45,330.29,624.45,331.57Z"/><path d="M284,336.64v1.28H279v-8.4h1.42v7.12Z"/><path d="M286.06,337.92v-7.14h-1.65v-1.26h3.06v8.4Z"/><path d="M292.1,337.92h-1.49l3.26-7.12h-3.26l0,1.17h-1.24v-2.45h6.1v1.08Z"/><path d="M115.89,430.28h1.2v7.35h4.54v1h-5.74Z"/><path d="M122.18,435.5a3.3,3.3,0,1,1,3.31,3.25A3.16,3.16,0,0,1,122.18,435.5Zm5.44,0a2.14,2.14,0,1,0-4.28,0,2.14,2.14,0,1,0,4.28,0Z"/><path d="M129.8,435.5a3.17,3.17,0,0,1,3.35-3.24,2.84,2.84,0,0,1,2.59,1.35l-.87.57a2,2,0,0,0-1.73-.91,2.24,2.24,0,0,0,0,4.47,2,2,0,0,0,1.73-.91l.87.55a2.84,2.84,0,0,1-2.59,1.37A3.18,3.18,0,0,1,129.8,435.5Z"/><path d="M142.27,434.84v3.83h-1.09v-.83a2.37,2.37,0,0,1-2.09.91c-1.44,0-2.35-.77-2.35-1.87s.66-1.86,2.56-1.86h1.82v-.23c0-1-.56-1.54-1.7-1.54a3.22,3.22,0,0,0-2,.69l-.48-.87a4.29,4.29,0,0,1,2.63-.81C141.29,432.26,142.27,433.1,142.27,434.84Zm-1.15,1.89v-.89h-1.77c-1.14,0-1.47.45-1.47,1s.53,1,1.41,1A1.85,1.85,0,0,0,141.12,436.73Z"/><path d="M144.41,429.78h1.15v8.89h-1.15Z"/><path d="M153.48,435.88h-5.16a2.16,2.16,0,0,0,2.31,1.86,2.36,2.36,0,0,0,1.83-.77l.64.75a3.47,3.47,0,0,1-5.93-2.22,3.11,3.11,0,0,1,3.19-3.24,3.06,3.06,0,0,1,3.14,3.27C153.5,435.63,153.49,435.77,153.48,435.88Zm-5.16-.83h4.08a2.05,2.05,0,0,0-4.08,0Z"/><path d="M154.3,438l.48-.91a4,4,0,0,0,2.23.66c1.07,0,1.51-.32,1.51-.86,0-1.43-4-.19-4-2.72,0-1.14,1-1.91,2.65-1.91a4.63,4.63,0,0,1,2.32.57l-.49.92a3.29,3.29,0,0,0-1.84-.51c-1,0-1.5.37-1.5.88,0,1.5,4,.27,4,2.74,0,1.15-1,1.89-2.74,1.89A4.59,4.59,0,0,1,154.3,438Z"/><path d="M164.51,430.28h1.2v7.35h4.54v1h-5.74Z"/><path d="M170.69,434.48c0-2.74,1.46-4.3,3.43-4.3s3.42,1.56,3.42,4.3-1.46,4.29-3.42,4.29S170.69,437.21,170.69,434.48Zm5.65,0c0-2.15-.91-3.23-2.22-3.23s-2.23,1.08-2.23,3.23.91,3.22,2.23,3.22S176.34,436.62,176.34,434.48Z"/><path d="M181.26,430.28v8.39h-1.19v-7.35h-1.89v-1Z"/><path d="M183.21,434.88h3.22v1h-3.22Z"/><path d="M188.38,430.28h1.2v7.35h4.54v1h-5.74Z"/><path d="M200.72,437.63v1h-6v-.81l3.42-3.3c.89-.86,1-1.39,1-1.92,0-.86-.61-1.39-1.78-1.39a2.66,2.66,0,0,0-2.15.91l-.82-.71a3.9,3.9,0,0,1,3.07-1.27c1.76,0,2.88.9,2.88,2.34a3.4,3.4,0,0,1-1.38,2.64l-2.56,2.47Z"/><path d="M208.33,436.3c0,1.52-1.3,2.47-3.35,2.47s-3.32-.95-3.32-2.47a2.09,2.09,0,0,1,1.48-2,1.89,1.89,0,0,1-1.18-1.81c0-1.4,1.21-2.28,3-2.28s3.05.88,3.05,2.28a1.9,1.9,0,0,1-1.19,1.81A2.09,2.09,0,0,1,208.33,436.3Zm-1.2,0c0-.92-.81-1.5-2.15-1.5s-2.12.58-2.12,1.5.79,1.54,2.12,1.54S207.13,437.21,207.13,436.26Zm-4-3.75c0,.83.68,1.34,1.83,1.34s1.87-.51,1.87-1.34-.74-1.36-1.87-1.36S203.15,431.67,203.15,432.51Z"/><path d="M123.11,507.6c0,1.43-1.09,2.26-3.22,2.26h-4v-8.39h3.76c1.93,0,3,.81,3,2.17a2,2,0,0,1-1.12,1.87A2,2,0,0,1,123.11,507.6Zm-6-5.16v2.68h2.45c1.23,0,1.92-.45,1.92-1.34s-.69-1.34-1.92-1.34Zm4.81,5.06c0-1-.72-1.4-2.06-1.4h-2.75v2.79h2.75C121.18,508.89,121.9,508.47,121.9,507.5Z"/><path d="M129.84,506v3.84h-1.09V509a2.36,2.36,0,0,1-2.09.91c-1.44,0-2.35-.76-2.35-1.87s.66-1.86,2.56-1.86h1.82V506c0-1-.56-1.54-1.7-1.54a3.21,3.21,0,0,0-2,.68l-.48-.86a4.23,4.23,0,0,1,2.63-.81C128.86,503.45,129.84,504.28,129.84,506Zm-1.15,1.9V507h-1.78c-1.14,0-1.46.44-1.46,1s.53,1,1.4,1A1.85,1.85,0,0,0,128.69,507.92Z"/><path d="M138,506.2v3.66h-1.15v-3.52c0-1.25-.62-1.86-1.71-1.86a1.89,1.89,0,0,0-2,2.11v3.27H132v-6.35h1.1v.95a2.75,2.75,0,0,1,2.29-1A2.46,2.46,0,0,1,138,506.2Zm-4.38-3.71H133c0-.89.48-1.47,1.17-1.47s1.15.82,1.6.82.58-.28.61-.72H137c0,.85-.48,1.43-1.18,1.43s-1.15-.81-1.59-.81S133.66,502,133.63,502.49Z"/><path d="M139.6,506.68a3.31,3.31,0,1,1,3.31,3.25A3.16,3.16,0,0,1,139.6,506.68Zm5.44,0a2.14,2.14,0,1,0-4.28,0,2.14,2.14,0,1,0,4.28,0Z"/><path d="M147,509.19l.48-.91a4.13,4.13,0,0,0,2.23.66c1.07,0,1.51-.33,1.51-.87,0-1.42-4-.19-4-2.72,0-1.14,1-1.9,2.65-1.9a4.62,4.62,0,0,1,2.31.57l-.49.91a3.33,3.33,0,0,0-1.83-.5c-1,0-1.5.37-1.5.87,0,1.5,4,.28,4,2.75,0,1.15-1.06,1.88-2.75,1.88A4.59,4.59,0,0,1,147,509.19Z"/><path d="M122,543.9v1h-6.09v-8.39h5.92v1h-4.72v2.58h4.21v1h-4.21v2.71Z"/><path d="M129.79,541.28v3.66h-1.15v-3.52c0-1.25-.62-1.86-1.71-1.86a1.89,1.89,0,0,0-2,2.11v3.27h-1.15v-6.35h1.1v1a2.73,2.73,0,0,1,2.29-1A2.46,2.46,0,0,1,129.79,541.28Z"/><path d="M135.5,544.57a2.14,2.14,0,0,1-1.39.44,1.81,1.81,0,0,1-2-2v-3.49H131v-.94h1.08v-1.4h1.15v1.4h1.82v.94h-1.82V543a.93.93,0,0,0,1,1.06,1.48,1.48,0,0,0,.9-.3Z"/><path d="M140.32,538.53v1.11h-.27a1.9,1.9,0,0,0-2,2.15v3.16H136.9v-6.35H138v1.06A2.44,2.44,0,0,1,140.32,538.53Z"/><path d="M146.76,541.1v3.84h-1.09v-.84a2.36,2.36,0,0,1-2.09.91c-1.44,0-2.35-.76-2.35-1.87s.66-1.86,2.56-1.86h1.82v-.22c0-1-.57-1.54-1.7-1.54a3.21,3.21,0,0,0-2,.68l-.48-.86a4.23,4.23,0,0,1,2.63-.81C145.78,538.53,146.76,539.37,146.76,541.1Zm-1.15,1.9v-.89h-1.78c-1.14,0-1.46.45-1.46,1s.53,1,1.4,1A1.85,1.85,0,0,0,145.61,543Z"/><path d="M154.93,536v8.9h-1.1v-1a2.69,2.69,0,0,1-2.27,1.08,3.24,3.24,0,0,1,0-6.48,2.69,2.69,0,0,1,2.22,1V536Zm-1.14,5.72a2.14,2.14,0,1,0-2.13,2.25A2.09,2.09,0,0,0,153.79,541.76Z"/><path d="M162.16,541.1v3.84h-1.1v-.84A2.34,2.34,0,0,1,159,545c-1.44,0-2.35-.76-2.35-1.87s.66-1.86,2.55-1.86H161v-.22c0-1-.56-1.54-1.7-1.54a3.2,3.2,0,0,0-2,.68l-.48-.86a4.2,4.2,0,0,1,2.62-.81C161.17,538.53,162.16,539.37,162.16,541.1ZM161,543v-.89h-1.77c-1.14,0-1.46.45-1.46,1s.52,1,1.4,1A1.84,1.84,0,0,0,161,543Z"/><path d="M297.27,543.9v1h-6.1v-8.39h5.93v1h-4.73v2.58h4.21v1h-4.21v2.71Z"/><path d="M298.16,544.27l.48-.91a4.11,4.11,0,0,0,2.23.66c1.07,0,1.51-.32,1.51-.86,0-1.43-4-.2-4-2.73,0-1.14,1-1.9,2.65-1.9a4.63,4.63,0,0,1,2.32.57l-.49.91a3.34,3.34,0,0,0-1.84-.5c-1,0-1.5.37-1.5.87,0,1.5,4,.28,4,2.75,0,1.15-1,1.88-2.74,1.88A4.59,4.59,0,0,1,298.16,544.27Z"/><path d="M308.55,544.57a2.18,2.18,0,0,1-1.39.44,1.81,1.81,0,0,1-2-2v-3.49h-1.08v-.94h1.08v-1.4h1.15v1.4h1.83v.94h-1.83V543a.93.93,0,0,0,1,1.06,1.45,1.45,0,0,0,.9-.3Z"/><path d="M315,541.1v3.84h-1.09v-.84a2.36,2.36,0,0,1-2.09.91c-1.44,0-2.35-.76-2.35-1.87s.66-1.86,2.55-1.86h1.83v-.22c0-1-.57-1.54-1.7-1.54a3.21,3.21,0,0,0-2,.68l-.48-.86a4.23,4.23,0,0,1,2.63-.81C314,538.53,315,539.37,315,541.1Zm-1.15,1.9v-.89h-1.78c-1.14,0-1.46.45-1.46,1s.53,1,1.4,1A1.85,1.85,0,0,0,313.83,543Z"/><path d="M316.57,541.76a3.17,3.17,0,0,1,3.35-3.23,2.85,2.85,0,0,1,2.6,1.35l-.88.56a2,2,0,0,0-1.73-.91,2.24,2.24,0,0,0,0,4.48,2,2,0,0,0,1.73-.91l.88.55a2.88,2.88,0,0,1-2.6,1.36A3.18,3.18,0,0,1,316.57,541.76Z"/><path d="M323.8,536.62a.76.76,0,0,1,.78-.76.75.75,0,1,1-.78.76Zm.21,2h1.15v6.35H324Z"/><path d="M326.77,541.76a3.31,3.31,0,1,1,3.31,3.25A3.16,3.16,0,0,1,326.77,541.76Zm5.44,0a2.14,2.14,0,1,0-4.28,0,2.14,2.14,0,1,0,4.28,0Z"/><path d="M341,541.28v3.66h-1.15v-3.52c0-1.25-.63-1.86-1.72-1.86a1.88,1.88,0,0,0-2,2.11v3.27H335v-6.35h1.11v1a2.72,2.72,0,0,1,2.29-1A2.46,2.46,0,0,1,341,541.28Z"/><path d="M348.18,541.1v3.84h-1.09v-.84A2.34,2.34,0,0,1,345,545c-1.43,0-2.35-.76-2.35-1.87s.66-1.86,2.56-1.86H347v-.22c0-1-.56-1.54-1.7-1.54a3.23,3.23,0,0,0-2,.68l-.48-.86a4.23,4.23,0,0,1,2.63-.81C347.2,538.53,348.18,539.37,348.18,541.1ZM347,543v-.89h-1.77c-1.14,0-1.47.45-1.47,1s.53,1,1.41,1A1.85,1.85,0,0,0,347,543Z"/><path d="M360.88,541.28v3.66h-1.16v-3.52c0-1.25-.59-1.86-1.64-1.86a1.85,1.85,0,0,0-1.91,2.11v3.27H355v-3.52c0-1.25-.6-1.86-1.64-1.86a1.85,1.85,0,0,0-1.91,2.11v3.27h-1.15v-6.35h1.11v.94a2.57,2.57,0,0,1,2.19-1,2.36,2.36,0,0,1,2.21,1.17,2.85,2.85,0,0,1,2.44-1.17A2.43,2.43,0,0,1,360.88,541.28Z"/><path d="M362.8,536.62a.76.76,0,0,1,.78-.76.75.75,0,1,1-.78.76Zm.21,2h1.15v6.35H363Z"/><path d="M372.08,542.15h-5.16a2.15,2.15,0,0,0,2.3,1.86,2.41,2.41,0,0,0,1.84-.77l.63.74a3.46,3.46,0,0,1-5.92-2.22,3.1,3.1,0,0,1,3.19-3.23,3.07,3.07,0,0,1,3.14,3.27C372.1,541.9,372.09,542,372.08,542.15Zm-5.16-.83H371a2.05,2.05,0,0,0-4.08,0Z"/><path d="M379.73,541.28v3.66h-1.15v-3.52c0-1.25-.62-1.86-1.72-1.86a1.88,1.88,0,0,0-2,2.11v3.27H373.7v-6.35h1.1v1a2.72,2.72,0,0,1,2.29-1A2.46,2.46,0,0,1,379.73,541.28Z"/><path d="M385.44,544.57a2.14,2.14,0,0,1-1.39.44,1.81,1.81,0,0,1-2-2v-3.49H381v-.94H382v-1.4h1.15v1.4H385v.94h-1.82V543a.93.93,0,0,0,1,1.06,1.45,1.45,0,0,0,.9-.3Z"/><path d="M386,541.76a3.31,3.31,0,1,1,3.31,3.25A3.16,3.16,0,0,1,386,541.76Zm5.45,0a2.14,2.14,0,1,0-2.14,2.25A2.09,2.09,0,0,0,391.48,541.76Z"/><path d="M297.27,509v1h-6.1v-8.39h5.93v1h-4.73v2.58h4.21v1h-4.21V509Z"/><path d="M299.05,501.11h1.15V510h-1.15Z"/><path d="M308.12,507.22H303a2.15,2.15,0,0,0,2.3,1.86,2.38,2.38,0,0,0,1.84-.77l.63.74a3.46,3.46,0,0,1-5.92-2.21A3.11,3.11,0,0,1,305,503.6a3.07,3.07,0,0,1,3.14,3.27C308.14,507,308.13,507.11,308.12,507.22Zm-5.16-.83H307a2.05,2.05,0,0,0-4.08,0Z"/><path d="M315.24,503.66,312.46,510h-1.18l-2.78-6.35h1.2l2.18,5.09,2.24-5.09Z"/><path d="M321.16,506.18V510h-1.09v-.84a2.36,2.36,0,0,1-2.09.92c-1.44,0-2.35-.77-2.35-1.88s.66-1.85,2.56-1.85H320v-.23c0-1-.57-1.54-1.7-1.54a3.22,3.22,0,0,0-2,.69l-.48-.87a4.29,4.29,0,0,1,2.63-.81C320.18,503.6,321.16,504.44,321.16,506.18ZM320,508.07v-.89h-1.78c-1.14,0-1.46.45-1.46,1s.53,1,1.4,1A1.85,1.85,0,0,0,320,508.07Z"/><path d="M329.33,501.11V510h-1.1v-1a2.69,2.69,0,0,1-2.27,1.08,3.25,3.25,0,0,1,0-6.49,2.69,2.69,0,0,1,2.22,1v-3.51Zm-1.14,5.73a2.14,2.14,0,1,0-2.13,2.24A2.09,2.09,0,0,0,328.19,506.84Z"/><path d="M330.93,506.84a3.31,3.31,0,1,1,3.31,3.25A3.16,3.16,0,0,1,330.93,506.84Zm5.45,0a2.15,2.15,0,1,0-2.14,2.24A2.1,2.1,0,0,0,336.38,506.84Z"/><path d="M342.56,503.6v1.11h-.27a1.9,1.9,0,0,0-2,2.15V510h-1.15v-6.35h1.1v1.06A2.44,2.44,0,0,1,342.56,503.6Z"/><path d="M297.27,473.72v1h-6.1v-8.4h5.93v1h-4.73V470h4.21v1h-4.21v2.71Z"/><path d="M298.16,474.1l.48-.92a4,4,0,0,0,2.23.66c1.07,0,1.51-.32,1.51-.86,0-1.43-4-.19-4-2.72,0-1.14,1-1.91,2.65-1.91a4.63,4.63,0,0,1,2.32.58l-.49.91a3.35,3.35,0,0,0-1.84-.51c-1,0-1.5.38-1.5.88,0,1.5,4,.27,4,2.75,0,1.15-1,1.88-2.74,1.88A4.67,4.67,0,0,1,298.16,474.1Z"/><path d="M304.39,471.59a3.17,3.17,0,0,1,3.35-3.24,2.86,2.86,0,0,1,2.6,1.36l-.88.56a2,2,0,0,0-1.73-.91,2.24,2.24,0,0,0,0,4.47,2,2,0,0,0,1.73-.91l.88.55a2.86,2.86,0,0,1-2.6,1.37A3.18,3.18,0,0,1,304.39,471.59Z"/><path d="M316.86,470.93v3.84h-1.09v-.84a2.36,2.36,0,0,1-2.08.91c-1.44,0-2.36-.77-2.36-1.87s.66-1.86,2.56-1.86h1.82v-.23c0-1-.56-1.53-1.7-1.53a3.23,3.23,0,0,0-2,.68l-.48-.86a4.23,4.23,0,0,1,2.63-.82C315.88,468.35,316.86,469.19,316.86,470.93Zm-1.15,1.89v-.88h-1.77c-1.14,0-1.47.44-1.47,1s.53,1,1.41,1A1.85,1.85,0,0,0,315.71,472.82Z"/><path d="M319,465.87h1.15v8.9H319Z"/><path d="M328.07,472h-5.16a2.16,2.16,0,0,0,2.31,1.86,2.36,2.36,0,0,0,1.83-.77l.64.75a3.47,3.47,0,0,1-5.93-2.22,3.12,3.12,0,0,1,3.19-3.24,3.07,3.07,0,0,1,3.15,3.27C328.1,471.72,328.08,471.86,328.07,472Zm-5.16-.83H327a2.05,2.05,0,0,0-4.08,0Z"/><path d="M333.11,468.35v1.12a1.18,1.18,0,0,0-.26,0,1.9,1.9,0,0,0-2,2.15v3.17h-1.16v-6.36h1.11v1.07A2.42,2.42,0,0,1,333.11,468.35Z"/><path d="M339.56,470.93v3.84h-1.1v-.84a2.36,2.36,0,0,1-2.08.91c-1.44,0-2.35-.77-2.35-1.87s.66-1.86,2.55-1.86h1.82v-.23c0-1-.56-1.53-1.7-1.53a3.2,3.2,0,0,0-2,.68l-.48-.86a4.2,4.2,0,0,1,2.62-.82C338.57,468.35,339.56,469.19,339.56,470.93Zm-1.16,1.89v-.88h-1.77c-1.14,0-1.46.44-1.46,1s.52,1,1.4,1A1.84,1.84,0,0,0,338.4,472.82Z"/><path d="M340.89,474.1l.48-.92a4,4,0,0,0,2.23.66c1.07,0,1.51-.32,1.51-.86,0-1.43-4-.19-4-2.72,0-1.14,1-1.91,2.65-1.91a4.63,4.63,0,0,1,2.32.58l-.49.91a3.35,3.35,0,0,0-1.84-.51c-1,0-1.5.38-1.5.88,0,1.5,4,.27,4,2.75,0,1.15-1.05,1.88-2.74,1.88A4.67,4.67,0,0,1,340.89,474.1Z"/><path d="M296.52,436.05h-4.46l-.92,2.1H289.9l3.81-8.4h1.18l3.82,8.4h-1.26Zm-.42-1L294.29,431l-1.81,4.12Zm-1.62-6h-1.07l1.63-1.56h1.46Z"/><path d="M303.21,431.73v1.12a1.27,1.27,0,0,0-.27,0,1.9,1.9,0,0,0-2,2.15v3.17h-1.15v-6.36h1.1v1.07A2.42,2.42,0,0,1,303.21,431.73Z"/><path d="M310.29,435.35h-5.16a2.14,2.14,0,0,0,2.3,1.86,2.37,2.37,0,0,0,1.84-.77l.63.75A3.46,3.46,0,0,1,304,435a3.11,3.11,0,0,1,3.19-3.24,3.07,3.07,0,0,1,3.14,3.27C310.31,435.1,310.3,435.24,310.29,435.35Zm-5.16-.83h4.08a2.05,2.05,0,0,0-4.08,0Z"/><path d="M316.77,434.31v3.84h-1.09v-.84a2.38,2.38,0,0,1-2.09.91c-1.44,0-2.35-.77-2.35-1.87s.66-1.86,2.55-1.86h1.83v-.23c0-1-.57-1.53-1.71-1.53a3.2,3.2,0,0,0-2,.68l-.48-.86a4.23,4.23,0,0,1,2.63-.82C315.78,431.73,316.77,432.57,316.77,434.31Zm-1.15,1.89v-.88h-1.78c-1.14,0-1.46.44-1.46,1s.53,1,1.4,1A1.85,1.85,0,0,0,315.62,436.2Z"/><path d="M318.1,437.47l.48-.91a4.05,4.05,0,0,0,2.23.66c1.07,0,1.51-.32,1.51-.86,0-1.43-4-.19-4-2.72,0-1.14,1-1.91,2.65-1.91a4.62,4.62,0,0,1,2.31.58l-.49.91a3.34,3.34,0,0,0-1.83-.51c-1,0-1.5.38-1.5.88,0,1.5,4,.27,4,2.75,0,1.15-1.06,1.88-2.75,1.88A4.59,4.59,0,0,1,318.1,437.47Z"/><path d="M333.77,431.79,331,438.15h-1.18L327,431.79h1.2l2.18,5.1,2.23-5.1Z"/><path d="M340.39,435.35h-5.15a2.14,2.14,0,0,0,2.3,1.86,2.38,2.38,0,0,0,1.84-.77l.63.75a3.46,3.46,0,0,1-5.92-2.22,3.11,3.11,0,0,1,3.19-3.24,3.07,3.07,0,0,1,3.14,3.27A2.16,2.16,0,0,1,340.39,435.35Zm-5.15-.83h4.08a2.05,2.05,0,0,0-4.08,0Z"/><path d="M345.44,431.73v1.12a1.27,1.27,0,0,0-.27,0,1.9,1.9,0,0,0-2,2.15v3.17H342v-6.36h1.1v1.07A2.42,2.42,0,0,1,345.44,431.73Z"/><path d="M352.79,429.25v8.9h-1.1v-1a2.69,2.69,0,0,1-2.27,1.08,3.25,3.25,0,0,1,0-6.49,2.72,2.72,0,0,1,2.22,1v-3.5ZM351.65,435a2.14,2.14,0,1,0-2.13,2.24A2.09,2.09,0,0,0,351.65,435Z"/><path d="M360.7,435.35h-5.16a2.16,2.16,0,0,0,2.3,1.86,2.37,2.37,0,0,0,1.84-.77l.64.75a3.47,3.47,0,0,1-5.93-2.22,3.12,3.12,0,0,1,3.19-3.24,3.06,3.06,0,0,1,3.14,3.27C360.72,435.1,360.71,435.24,360.7,435.35Zm-5.16-.83h4.08a2.05,2.05,0,0,0-4.08,0Z"/><path d="M361.52,437.47l.48-.91a4,4,0,0,0,2.23.66c1.07,0,1.51-.32,1.51-.86,0-1.43-4-.19-4-2.72,0-1.14,1-1.91,2.65-1.91a4.63,4.63,0,0,1,2.32.58l-.49.91a3.38,3.38,0,0,0-1.84-.51c-1,0-1.5.38-1.5.88,0,1.5,4,.27,4,2.75,0,1.15-1.05,1.88-2.74,1.88A4.59,4.59,0,0,1,361.52,437.47Z"/><path class="cls-5" d="M123.11,472.5c0,1.44-1.09,2.27-3.22,2.27h-4v-8.4h3.76c1.93,0,3,.82,3,2.17a2,2,0,0,1-1.12,1.87A2,2,0,0,1,123.11,472.5Zm-6-5.16V470h2.45c1.23,0,1.92-.46,1.92-1.34s-.69-1.35-1.92-1.35Zm4.81,5.06c0-1-.72-1.4-2.06-1.4h-2.75v2.79h2.75C121.18,473.79,121.9,473.38,121.9,472.4Z"/><path class="cls-5" d="M124.22,471.59a3.3,3.3,0,1,1,3.31,3.25A3.16,3.16,0,0,1,124.22,471.59Zm5.44,0a2.14,2.14,0,1,0-4.28,0,2.14,2.14,0,1,0,4.28,0Z"/><path class="cls-5" d="M138.42,465.87v8.9h-1.1v-1a2.7,2.7,0,0,1-2.27,1.08,3.25,3.25,0,0,1,0-6.49,2.72,2.72,0,0,1,2.22,1v-3.5Zm-1.14,5.72a2.14,2.14,0,1,0-2.13,2.24A2.09,2.09,0,0,0,137.28,471.59Z"/><path class="cls-5" d="M146.33,472h-5.16a2.14,2.14,0,0,0,2.3,1.86,2.37,2.37,0,0,0,1.84-.77l.63.75a3.46,3.46,0,0,1-5.92-2.22,3.11,3.11,0,0,1,3.19-3.24,3.07,3.07,0,0,1,3.14,3.27C146.35,471.72,146.34,471.86,146.33,472Zm-5.16-.83h4.08a2.05,2.05,0,0,0-4.08,0Z"/><path class="cls-5" d="M154,468.41v5.49c0,2.25-1.14,3.27-3.3,3.27a4.71,4.71,0,0,1-3-.95l.55-.89a3.91,3.91,0,0,0,2.45.83c1.5,0,2.18-.7,2.18-2.14v-.5a2.9,2.9,0,0,1-2.29,1,3.08,3.08,0,1,1,0-6.15,2.91,2.91,0,0,1,2.35,1v-1Zm-1.13,3a2.19,2.19,0,0,0-4.37,0,2.19,2.19,0,0,0,4.37,0Z"/><path class="cls-5" d="M161.27,470.93v3.84h-1.09v-.84a2.38,2.38,0,0,1-2.09.91c-1.44,0-2.35-.77-2.35-1.87s.66-1.86,2.55-1.86h1.83v-.23c0-1-.57-1.53-1.71-1.53a3.2,3.2,0,0,0-2,.68l-.48-.86a4.23,4.23,0,0,1,2.63-.82C160.28,468.35,161.27,469.19,161.27,470.93Zm-1.15,1.89v-.88h-1.78c-1.14,0-1.46.44-1.46,1s.53,1,1.4,1A1.85,1.85,0,0,0,160.12,472.82Z"/><path class="cls-5" d="M162.6,474.1l.48-.92a4.05,4.05,0,0,0,2.23.66c1.07,0,1.51-.32,1.51-.86,0-1.43-4-.19-4-2.72,0-1.14,1-1.91,2.65-1.91a4.62,4.62,0,0,1,2.31.58l-.49.91a3.34,3.34,0,0,0-1.83-.51c-1,0-1.5.38-1.5.88,0,1.5,4,.27,4,2.75,0,1.15-1.06,1.88-2.75,1.88A4.67,4.67,0,0,1,162.6,474.1Z"/><path class="cls-5" d="M180,472.5c0,1.44-1.09,2.27-3.21,2.27h-4v-8.4h3.77c1.93,0,3,.82,3,2.17a2,2,0,0,1-1.13,1.87A2,2,0,0,1,180,472.5Zm-6-5.16V470h2.46c1.23,0,1.92-.46,1.92-1.34s-.69-1.35-1.92-1.35Zm4.81,5.06c0-1-.72-1.4-2-1.4H174v2.79h2.76C178.1,473.79,178.82,473.38,178.82,472.4Z"/><path class="cls-5" d="M181.32,471h3.23v1h-3.23Z"/><path class="cls-5" d="M185.89,470.57c0-2.74,1.47-4.29,3.43-4.29s3.42,1.55,3.42,4.29-1.46,4.29-3.42,4.29S185.89,473.3,185.89,470.57Zm5.65,0c0-2.15-.91-3.23-2.22-3.23s-2.23,1.08-2.23,3.23.91,3.22,2.23,3.22S191.54,472.72,191.54,470.57Z"/><path class="cls-5" d="M196.46,466.37v8.4h-1.18v-7.36h-1.9v-1Z"/><path class="cls-5" d="M198.41,471h3.23v1h-3.23Z"/><path class="cls-5" d="M210.8,472.5c0,1.44-1.09,2.27-3.21,2.27h-4v-8.4h3.77c1.93,0,3,.82,3,2.17a2,2,0,0,1-1.13,1.87A2,2,0,0,1,210.8,472.5Zm-6-5.16V470h2.46c1.22,0,1.92-.46,1.92-1.34s-.7-1.35-1.92-1.35Zm4.81,5.06c0-1-.72-1.4-2.05-1.4h-2.76v2.79h2.76C208.87,473.79,209.59,473.38,209.59,472.4Z"/><path class="cls-5" d="M214.58,466.37v8.4H213.4v-7.36h-1.9v-1Z"/><path class="cls-5" d="M222.92,472.21a2.71,2.71,0,0,1-3,2.65c-2.26,0-3.53-1.51-3.53-4.18,0-2.87,1.62-4.4,4-4.4a4,4,0,0,1,2.09.49l-.46.93a2.86,2.86,0,0,0-1.6-.39c-1.71,0-2.8,1.06-2.8,3.16,0,.1,0,.19,0,.3a2.79,2.79,0,0,1,2.41-1.1A2.59,2.59,0,0,1,222.92,472.21Zm-1.16.05c0-1-.74-1.62-1.92-1.62a1.74,1.74,0,0,0-1.93,1.63c0,.87.69,1.62,2,1.62A1.66,1.66,0,0,0,221.76,472.26Z"/><circle class="cls-14" cx="95.89" cy="506.34" r="13.09"/><path d="M94.54,508.82H90.92a.36.36,0,0,1-.29-.14.35.35,0,0,1-.06-.31l1.07-3.91a.37.37,0,0,1,.35-.26h1.47a.36.36,0,0,1,.35.26l1.08,3.91a.35.35,0,0,1-.07.31A.34.34,0,0,1,94.54,508.82Zm-.07-.34ZM91,508.39h3.43l-1-3.76H92Z"/><path d="M93.29,511.65h-.93a.36.36,0,0,1-.36-.36v-2.68a.21.21,0,0,1,.21-.22h1.22a.22.22,0,0,1,.22.22v2.68A.36.36,0,0,1,93.29,511.65Zm-.86-.43h.78v-2.4h-.78Z"/><path d="M92.73,503.84A1.25,1.25,0,1,1,94,502.59,1.26,1.26,0,0,1,92.73,503.84Zm0-2.07a.82.82,0,1,0,.82.82A.82.82,0,0,0,92.73,501.77Z"/><path d="M98.39,511.65h-.93a.36.36,0,0,1-.36-.36v-2.68a.22.22,0,0,1,.22-.22h1.22a.22.22,0,0,1,.21.22v2.68A.36.36,0,0,1,98.39,511.65Zm-.85-.43h.78v-2.4h-.78Z"/><path d="M99.45,508.82h-3a.36.36,0,0,1-.36-.36v-3.9a.36.36,0,0,1,.36-.36h3a.36.36,0,0,1,.36.36v3.9A.36.36,0,0,1,99.45,508.82Zm-3-.43h2.91v-3.76H96.47Z"/><path d="M97.93,503.84a1.25,1.25,0,1,1,1.25-1.25A1.26,1.26,0,0,1,97.93,503.84Zm0-2.07a.82.82,0,1,0,.82.82A.82.82,0,0,0,97.93,501.77Z"/><circle class="cls-14" cx="765.7" cy="430.27" r="13.09"/><path d="M764.35,432.75h-3.62a.37.37,0,0,1-.29-.14.4.4,0,0,1-.06-.32l1.08-3.9a.35.35,0,0,1,.34-.27h1.48a.37.37,0,0,1,.35.27l1.07,3.9a.37.37,0,0,1-.06.32A.36.36,0,0,1,764.35,432.75Zm-.07-.34h0Zm-3.46-.09h3.44l-1-3.77h-1.36Z"/><path d="M763.1,435.58h-.93a.36.36,0,0,1-.36-.36v-2.69a.21.21,0,0,1,.22-.21h1.21a.21.21,0,0,1,.22.21v2.69A.36.36,0,0,1,763.1,435.58Zm-.86-.44H763v-2.39h-.79Z"/><path d="M762.54,427.77a1.26,1.26,0,1,1,1.25-1.26A1.25,1.25,0,0,1,762.54,427.77Zm0-2.08a.83.83,0,1,0,.82.82A.82.82,0,0,0,762.54,425.69Z"/><path d="M768.21,435.58h-.93a.36.36,0,0,1-.36-.36v-2.69a.21.21,0,0,1,.21-.21h1.22a.21.21,0,0,1,.22.21v2.69A.36.36,0,0,1,768.21,435.58Zm-.86-.44h.78v-2.39h-.78Z"/><path d="M769.27,432.75h-3a.36.36,0,0,1-.36-.36v-3.91a.36.36,0,0,1,.36-.36h3a.36.36,0,0,1,.36.36v3.91A.36.36,0,0,1,769.27,432.75Zm-3-.43h2.91v-3.77h-2.91Z"/><path d="M767.74,427.77a1.26,1.26,0,1,1,1.26-1.26A1.25,1.25,0,0,1,767.74,427.77Zm0-2.08a.83.83,0,1,0,.82.82A.82.82,0,0,0,767.74,425.69Z"/><circle class="cls-7" cx="267.78" cy="506.34" r="13.09"/><path d="M272.45,512.27h-9.33a.36.36,0,0,1-.36-.36V500.78a.36.36,0,0,1,.36-.36h9.33a.36.36,0,0,1,.36.36v11.13A.36.36,0,0,1,272.45,512.27Zm-9.26-.43h9.19v-11h-9.19Z"/><path d="M271.59,512.27H264a.36.36,0,0,1-.36-.36V501.58a.36.36,0,0,1,.36-.36h7.64a.36.36,0,0,1,.36.36v10.33A.36.36,0,0,1,271.59,512.27Zm-7.57-.43h7.5V501.65H264Z"/><path d="M268.54,506.07h-1.37a.33.33,0,0,1-.28-.17.31.31,0,0,1,0-.32l.68-1.18a.34.34,0,0,1,.28-.17.33.33,0,0,1,.28.17l.69,1.18a.36.36,0,0,1,0,.32A.34.34,0,0,1,268.54,506.07Zm-1.18-.44h1l-.5-.85Zm.4-1.13Z"/><path d="M267.85,508.46a.33.33,0,0,1-.28-.16l-.68-1.19a.31.31,0,0,1,0-.32.32.32,0,0,1,.28-.16h1.37a.33.33,0,0,1,.28.16.36.36,0,0,1,0,.32l-.69,1.19A.32.32,0,0,1,267.85,508.46Zm-.49-1.4.49.86.5-.86Z"/><circle class="cls-7" cx="665.02" cy="41.29" r="13.09"/><path d="M669.69,47.22h-9.34a.36.36,0,0,1-.36-.36V35.73a.36.36,0,0,1,.36-.36h9.34a.36.36,0,0,1,.36.36V46.86A.36.36,0,0,1,669.69,47.22Zm-9.26-.43h9.18v-11h-9.18Z"/><path d="M668.83,47.22h-7.64a.36.36,0,0,1-.36-.36V36.53a.36.36,0,0,1,.36-.36h7.64a.36.36,0,0,1,.36.36V46.86A.36.36,0,0,1,668.83,47.22Zm-7.57-.43h7.49V36.6h-7.49Z"/><path d="M665.77,41H664.4a.33.33,0,0,1-.28-.16.36.36,0,0,1,0-.32l.69-1.19a.34.34,0,0,1,.28-.16.36.36,0,0,1,.28.16l.68,1.19a.32.32,0,0,1-.28.48Zm-1.18-.43h1l-.49-.86Zm.41-1.13Z"/><path d="M665.09,43.41a.32.32,0,0,1-.28-.16l-.69-1.19a.36.36,0,0,1,0-.32.33.33,0,0,1,.28-.16h1.37a.32.32,0,0,1,.28.48l-.68,1.19A.33.33,0,0,1,665.09,43.41Zm-.5-1.4.5.86.49-.86Z"/><circle class="cls-7" cx="95.87" cy="541.7" r="13.09"/><path class="cls-15" d="M99.39,542.6l-3-2.93,3-2.93"/><path class="cls-15" d="M92.77,540.81l3,2.92-3,2.94"/><line class="cls-15" x1="96.37" y1="539.67" x2="103" y2="539.67"/><line class="cls-15" x1="88.74" y1="543.75" x2="95.37" y2="543.75"/><circle class="cls-7" cx="191.61" cy="291.24" r="13.09"/><path class="cls-15" d="M195.13,292.14l-3-2.93,3-2.93"/><path class="cls-15" d="M188.51,290.35l3,2.92-3,2.94"/><line class="cls-15" x1="192.11" y1="289.21" x2="198.74" y2="289.21"/><line class="cls-15" x1="184.48" y1="293.29" x2="191.11" y2="293.29"/><circle class="cls-7" cx="191.61" cy="89.98" r="13.09"/><path class="cls-15" d="M195.13,90.88l-3-2.93,3-2.93"/><path class="cls-15" d="M188.51,89.09l3,2.92-3,2.94"/><line class="cls-15" x1="192.11" y1="87.95" x2="198.74" y2="87.95"/><line class="cls-15" x1="184.48" y1="92.03" x2="191.11" y2="92.03"/><circle class="cls-7" cx="268.16" cy="541.7" r="13.09"/><path d="M273.23,547.56H262.75a.36.36,0,0,1-.36-.36V536a.36.36,0,0,1,.36-.36h10.48a.36.36,0,0,1,.36.36v11.2A.36.36,0,0,1,273.23,547.56Zm-10.41-.43h10.34V536.07H262.82Z"/><path d="M270.81,545.69H265a.4.4,0,0,1-.4-.4v-7.56a.4.4,0,0,1,.4-.4h5.67a.4.4,0,0,1,.4.4v1.12a.4.4,0,0,1-.4.4h-3.85v1.29h3.43a.4.4,0,0,1,.4.4v1.11a.4.4,0,0,1-.4.4h-3.43v1.33h4a.4.4,0,0,1,.4.4v1.11A.4.4,0,0,1,270.81,545.69Zm-5.76-.43h5.73v-1h-4a.4.4,0,0,1-.4-.4v-1.39a.4.4,0,0,1,.4-.4h3.43v-1h-3.43a.4.4,0,0,1-.4-.4v-1.35a.4.4,0,0,1,.4-.41h3.85v-1h-5.61Zm5.22-4.29Z"/><circle class="cls-5" cx="631.17" cy="150.51" r="13.09"/><path d="M627,152.81v1.28h-5V145.7h1.42v7.11Z"/><path d="M633.42,147.75a4.62,4.62,0,0,1-1.54,2.75l-2.18,2.32h4.1v1.27h-6v-1l3.09-3.32a3.12,3.12,0,0,0,1-1.79c0-.67-.53-1.08-1.4-1.08a3.64,3.64,0,0,0-2.29,1.06l-.57-1.1a4.92,4.92,0,0,1,3.06-1.19C632.33,145.64,633.42,146.46,633.42,147.75Z"/><path d="M637.55,154.09h-1.5l3.26-7.12h-3.26l0,1.17h-1.24V145.7h6.1v1.07Z"/><circle class="cls-5" cx="631.17" cy="232.78" r="13.09"/><path d="M626.7,235.07v1.29h-5.05V228h1.41v7.11Z"/><path d="M633.08,230a4.67,4.67,0,0,1-1.54,2.76l-2.18,2.32h4.1v1.27h-6v-1l3.1-3.33a3.07,3.07,0,0,0,1-1.78c0-.68-.53-1.08-1.41-1.08a3.62,3.62,0,0,0-2.29,1.05l-.56-1.09a4.93,4.93,0,0,1,3.06-1.2C632,227.9,633.08,228.73,633.08,230Z"/><path d="M640.58,230.07a1.93,1.93,0,0,1-1.25,1.8A2.24,2.24,0,0,1,641,234c0,1.5-1.25,2.41-3.24,2.41s-3.22-.91-3.22-2.39a2.25,2.25,0,0,1,1.72-2.16A2,2,0,0,1,635,230c0-1.32,1.09-2.12,2.8-2.12S640.58,228.73,640.58,230.07Zm-4.7,3.8c0,.92.68,1.43,1.88,1.43s1.9-.51,1.9-1.43-.7-1.39-1.9-1.39S635.88,233,635.88,233.87Zm.27-3.71c0,.78.6,1.22,1.61,1.22s1.61-.44,1.61-1.22-.59-1.24-1.61-1.24S636.15,229.38,636.15,230.16Z"/><path class="cls-16" d="M210.87,247.67l-3-7.49h1.36l2.31,6.09,2.34-6.09h1.31l-3,7.49Z"/><path class="cls-16" d="M217.48,241.32v2h3.66v1.13h-3.66v2.07h4.22v1.13h-5.48v-7.49h5.35v1.14Z"/><path class="cls-16" d="M227.74,246.53v1.14h-4.5v-7.49h1.26v6.35Z"/><path class="cls-16" d="M230.08,246l-.72,1.69H228l3.31-7.49h1.29l3.28,7.49h-1.35l-.72-1.69Zm1.88-4.45-1.41,3.33h2.82Z"/><path class="cls-16" d="M241.93,240.9l-.52,1.11a4.52,4.52,0,0,0-2.2-.69c-.73,0-1.22.28-1.22.78,0,1.63,4,.76,4,3.45,0,1.34-1.18,2.16-2.83,2.16a4.64,4.64,0,0,1-3.06-1.18l.55-1.09a4,4,0,0,0,2.53,1.09c.88,0,1.41-.33,1.41-.91,0-1.67-4-.74-4-3.4,0-1.29,1.1-2.09,2.73-2.09A4.89,4.89,0,0,1,241.93,240.9Z"/><path class="cls-16" d="M249.67,241.31l-.74.92a2.94,2.94,0,0,0-2.09-1,2.64,2.64,0,1,0,0,5.28,3.09,3.09,0,0,0,2.09-.89l.75.83a4.25,4.25,0,0,1-2.9,1.23,3.79,3.79,0,1,1,0-7.57A4.14,4.14,0,0,1,249.67,241.31Z"/><path class="cls-16" d="M258.12,243.93a4,4,0,1,1-4-3.78A3.82,3.82,0,0,1,258.12,243.93Zm-6.65,0a2.68,2.68,0,0,0,2.69,2.66,2.65,2.65,0,1,0-2.69-2.66Z"/><path class="cls-16" d="M260.24,241.17h-1.09l1.13-1.59,1.26.54Z"/><path class="cls-16" d="M268.29,240.9l-.52,1.11a4.46,4.46,0,0,0-2.19-.69c-.74,0-1.22.28-1.22.78,0,1.63,4,.76,4,3.45,0,1.34-1.18,2.16-2.82,2.16a4.62,4.62,0,0,1-3.06-1.18l.54-1.09a4,4,0,0,0,2.54,1.09c.88,0,1.4-.33,1.4-.91,0-1.67-4-.74-4-3.4,0-1.29,1.1-2.09,2.72-2.09A4.84,4.84,0,0,1,268.29,240.9Z"/><path class="cls-16" d="M222.75,253c1.88,0,3,.93,3,2.56s-1.08,2.67-3,2.67H221v2.26h-1.26V253Zm-1.72,4.1h1.67c1.15,0,1.81-.49,1.81-1.51s-.66-1.45-1.81-1.45H221Z"/><path class="cls-16" d="M227,260.51V253h1.26v7.49Z"/><path class="cls-16" d="M231.32,259.38h4.61v1.13h-6.32v-.91l4.57-5.44h-4.43V253h6.13v.91Z"/><path class="cls-16" d="M238.45,259.38h4.61v1.13h-6.32v-.91l4.56-5.44h-4.42V253H243v.91Z"/><path class="cls-16" d="M245.51,258.82l-.72,1.69h-1.31l3.3-7.49h1.3l3.27,7.49H250l-.71-1.69Zm1.88-4.45L246,257.7h2.82Z"/><path class="cls-16" d="M257.36,253.74l-.52,1.11a4.49,4.49,0,0,0-2.19-.69c-.74,0-1.22.28-1.22.78,0,1.64,4,.76,4,3.45,0,1.34-1.18,2.16-2.82,2.16a4.62,4.62,0,0,1-3.06-1.18l.54-1.09a4,4,0,0,0,2.54,1.09c.88,0,1.4-.33,1.4-.91,0-1.67-4-.74-4-3.4,0-1.29,1.1-2.09,2.72-2.09A4.84,4.84,0,0,1,257.36,253.74Z"/><path class="cls-16" d="M206,128c1.88,0,3,.93,3,2.56s-1.08,2.67-3,2.67H204.3v2.26H203V128Zm-1.73,4.1H206c1.16,0,1.81-.49,1.81-1.51s-.65-1.45-1.81-1.45H204.3Z"/><path class="cls-16" d="M210.83,133.82l-.71,1.69H208.8l3.31-7.49h1.29l3.27,7.49h-1.35l-.71-1.69Zm1.88-4.45-1.41,3.33h2.83Z"/><path class="cls-16" d="M222.69,128.74l-.53,1.11a4.46,4.46,0,0,0-2.19-.69c-.74,0-1.22.27-1.22.78,0,1.63,4,.76,4,3.45,0,1.34-1.17,2.16-2.82,2.16a4.62,4.62,0,0,1-3.06-1.18l.55-1.09a4,4,0,0,0,2.53,1.09c.88,0,1.4-.34,1.4-.91,0-1.67-4-.74-4-3.4,0-1.29,1.1-2.09,2.73-2.09A4.89,4.89,0,0,1,222.69,128.74Z"/><path class="cls-16" d="M227,129.16v6.35h-1.26v-6.35h-2.37V128h6v1.14Z"/><path class="cls-16" d="M231.72,129.16v2h3.66v1.13h-3.66v2.07h4.21v1.13h-5.47V128h5.34v1.14Z"/><path class="cls-16" d="M242,134.37v1.14h-4.5V128h1.26v6.35Z"/><path class="cls-16" d="M244.45,129.16v2h3.66v1.13h-3.66v2.07h4.22v1.13h-5.48V128h5.35v1.14Z"/><path class="cls-16" d="M253.59,133.24h-2.12v2.26h-1.26V128h3c1.91,0,3,.93,3,2.56a2.4,2.4,0,0,1-1.55,2.43l1.68,2.5H255Zm-.34-1.12c1.15,0,1.82-.49,1.82-1.51s-.67-1.45-1.82-1.45h-1.78v3Z"/><path class="cls-16" d="M259,127.21h-1.09l1.13-1.58,1.26.53Zm-1,8.3V128h1.27v7.49Z"/><path class="cls-16" d="M262.23,133.82l-.71,1.69H260.2l3.31-7.49h1.29l3.28,7.49h-1.35l-.72-1.69Zm1.89-4.45-1.41,3.33h2.82Z"/><path class="cls-16" d="M274.09,128.74l-.52,1.11a4.52,4.52,0,0,0-2.2-.69c-.74,0-1.22.27-1.22.78,0,1.63,4.05.76,4,3.45,0,1.34-1.18,2.16-2.83,2.16a4.64,4.64,0,0,1-3.06-1.18l.55-1.09a4,4,0,0,0,2.53,1.09c.88,0,1.4-.34,1.4-.91,0-1.67-4-.74-4-3.4,0-1.29,1.1-2.09,2.73-2.09A4.89,4.89,0,0,1,274.09,128.74Z"/><path class="cls-16" d="M229.27,146.08h-2.12v2.26h-1.26v-7.49h3c1.91,0,3,.93,3,2.56a2.4,2.4,0,0,1-1.55,2.43l1.68,2.5h-1.43Zm-.34-1.12c1.15,0,1.81-.49,1.81-1.51s-.66-1.45-1.81-1.45h-1.78v3Z"/><path class="cls-16" d="M233.62,148.35v-7.49h1.27v7.49Z"/><path class="cls-16" d="M243,142l-.74.92a2.94,2.94,0,0,0-2.09-1,2.64,2.64,0,1,0,0,5.28,3.09,3.09,0,0,0,2.09-.89l.75.83a4.25,4.25,0,0,1-2.9,1.23,3.79,3.79,0,1,1,0-7.57A4.14,4.14,0,0,1,243,142Z"/><path class="cls-16" d="M251.47,144.61a4,4,0,1,1-4-3.78A3.82,3.82,0,0,1,251.47,144.61Zm-6.65,0a2.68,2.68,0,0,0,2.69,2.66,2.65,2.65,0,1,0-2.69-2.66Z"/><path class="cls-16" d="M482.55,329.24v1.15h-4.5V322.9h1.26v6.34Z"/><path class="cls-16" d="M484.89,328.7l-.72,1.69h-1.31l3.3-7.49h1.3l3.27,7.49h-1.35l-.72-1.69Zm1.88-4.45-1.41,3.32h2.82Z"/><path class="cls-16" d="M465.66,341.54l-.72,1.69h-1.31l3.3-7.49h1.3l3.27,7.49h-1.35l-.71-1.69Zm1.88-4.45-1.41,3.32H469Z"/><path class="cls-16" d="M475.88,341h-2.12v2.26H472.5v-7.49h3c1.91,0,3,.93,3,2.56a2.39,2.39,0,0,1-1.55,2.42l1.68,2.51h-1.43Zm-.34-1.12c1.15,0,1.81-.5,1.81-1.51s-.66-1.46-1.81-1.46h-1.78v3Z"/><path class="cls-16" d="M483,336.87v6.36h-1.26v-6.36h-2.36v-1.13h6v1.13Z"/><path class="cls-16" d="M487.69,336.87v2h3.66V340h-3.66v2.06h4.22v1.14h-5.48v-7.49h5.35v1.13Z"/><path class="cls-16" d="M498.53,336.46l-.53,1.11a4.48,4.48,0,0,0-2.19-.7c-.74,0-1.22.28-1.22.78,0,1.64,4.05.76,4,3.46,0,1.34-1.18,2.16-2.83,2.16a4.6,4.6,0,0,1-3.06-1.19l.55-1.09a3.92,3.92,0,0,0,2.53,1.09c.88,0,1.4-.33,1.4-.91,0-1.66-4-.73-4-3.4,0-1.28,1.1-2.08,2.73-2.08A4.89,4.89,0,0,1,498.53,336.46Z"/><path class="cls-16" d="M501.1,341.54l-.72,1.69h-1.31l3.3-7.49h1.3l3.27,7.49h-1.35l-.72-1.69Zm1.88-4.45-1.41,3.32h2.82Z"/><path class="cls-16" d="M548.57,329.24v1.15h-4.5V322.9h1.26v6.34Z"/><path class="cls-16" d="M550.9,328.7l-.71,1.69h-1.32l3.31-7.49h1.29l3.27,7.49H555.4l-.72-1.69Zm1.89-4.45-1.41,3.32h2.82Z"/><path class="cls-16" d="M531.68,341.54l-.72,1.69h-1.32l3.31-7.49h1.29l3.28,7.49h-1.35l-.72-1.69Zm1.88-4.45-1.41,3.32H535Z"/><path class="cls-16" d="M541.89,341h-2.11v2.26h-1.27v-7.49h3c1.92,0,3,.93,3,2.56a2.4,2.4,0,0,1-1.55,2.42l1.68,2.51h-1.44Zm-.34-1.12c1.16,0,1.82-.5,1.82-1.51s-.66-1.46-1.82-1.46h-1.77v3Z"/><path class="cls-16" d="M549,336.87v6.36h-1.26v-6.36h-2.37v-1.13h6v1.13Z"/><path class="cls-16" d="M553.71,336.87v2h3.66V340h-3.66v2.06h4.21v1.14h-5.47v-7.49h5.34v1.13Z"/><path class="cls-16" d="M564.55,336.46l-.53,1.11a4.48,4.48,0,0,0-2.19-.7c-.74,0-1.22.28-1.22.78,0,1.64,4,.76,4,3.46,0,1.34-1.17,2.16-2.82,2.16a4.58,4.58,0,0,1-3.06-1.19l.54-1.09a3.94,3.94,0,0,0,2.54,1.09c.88,0,1.4-.33,1.4-.91,0-1.66-4-.73-4-3.4,0-1.28,1.1-2.08,2.73-2.08A4.89,4.89,0,0,1,564.55,336.46Z"/><path class="cls-16" d="M567.12,341.54l-.72,1.69h-1.32l3.31-7.49h1.29l3.28,7.49h-1.35l-.72-1.69Zm1.88-4.45-1.41,3.32h2.82Z"/><path class="cls-16" d="M543.22,213.76v2.16h3.4V217h-3.4v3.07H542v-7.49h5v1.14Z"/><path class="cls-16" d="M551.49,217.84a1.88,1.88,0,0,1-.34,0h-1.78v2.25h-1.26v-7.49h3c1.91,0,3,.93,3,2.56a2.41,2.41,0,0,1-1.56,2.43l1.68,2.5h-1.43Zm-.34-1.12c1.15,0,1.82-.49,1.82-1.51s-.67-1.45-1.82-1.45h-1.78v3Z"/><path class="cls-16" d="M562.21,217a3.26,3.26,0,0,1-6.51,0v-4.39H557V217a1.87,1.87,0,0,0,2,2,1.84,1.84,0,0,0,2-2v-4.39h1.26Z"/><path class="cls-16" d="M566.76,213.76v6.35H565.5v-6.35h-2.37v-1.14h6v1.14Z"/><path class="cls-16" d="M570.54,218.42l-.72,1.69h-1.31l3.3-7.49h1.3l3.27,7.49H575l-.72-1.69Zm1.88-4.45L571,217.3h2.82Z"/><path class="cls-16" d="M582.39,213.34l-.52,1.11a4.49,4.49,0,0,0-2.19-.69c-.74,0-1.22.28-1.22.78,0,1.64,4,.76,4,3.45,0,1.34-1.18,2.17-2.82,2.17a4.63,4.63,0,0,1-3.06-1.19l.54-1.09a4,4,0,0,0,2.54,1.09c.87,0,1.4-.33,1.4-.91,0-1.67-4.05-.74-4.05-3.4,0-1.29,1.11-2.09,2.73-2.09A4.84,4.84,0,0,1,582.39,213.34Z"/><path class="cls-16" d="M589.8,220.11h-1.25v-2.45l-2.8-5H587l2.14,3.65,2.09-3.65h1.29l-2.75,5Z"/><path class="cls-16" d="M539.37,233l-3-7.48h1.36l2.31,6.08,2.33-6.08h1.32l-3,7.48Z"/><path class="cls-16" d="M546,226.6v2h3.66v1.13H546v2.07h4.22V233h-5.48v-7.48h5.35v1.13Z"/><path class="cls-16" d="M555.12,230.68a1.94,1.94,0,0,1-.34,0H553V233h-1.26v-7.48h3c1.91,0,3,.93,3,2.55a2.4,2.4,0,0,1-1.55,2.43l1.68,2.5h-1.43Zm-.34-1.12c1.15,0,1.81-.49,1.81-1.51s-.66-1.45-1.81-1.45H553v3Z"/><path class="cls-16" d="M562.54,225.47a3.74,3.74,0,1,1,0,7.48h-3v-7.48Zm-1.8,6.35h1.84a2.51,2.51,0,0,0,2.56-2.6,2.55,2.55,0,0,0-2.62-2.62h-1.78Z"/><path class="cls-16" d="M574.13,229.85a3.26,3.26,0,0,1-6.51,0v-4.38h1.26v4.38a1.87,1.87,0,0,0,2,2,1.84,1.84,0,0,0,2-2v-4.38h1.26Z"/><path class="cls-16" d="M579.32,230.68a1.88,1.88,0,0,1-.34,0H577.2V233h-1.26v-7.48h3c1.91,0,3,.93,3,2.55a2.41,2.41,0,0,1-1.56,2.43l1.68,2.5h-1.43Zm-.34-1.12c1.15,0,1.82-.49,1.82-1.51s-.67-1.45-1.82-1.45H577.2v3Z"/><path class="cls-16" d="M584.74,231.26,584,233H582.7l3.31-7.48h1.29l3.28,7.48h-1.35l-.72-1.69Zm1.88-4.45-1.41,3.33H588Z"/><path class="cls-16" d="M596.59,226.18l-.52,1.11a4.52,4.52,0,0,0-2.2-.69c-.73,0-1.22.28-1.22.78,0,1.64,4.05.76,4,3.45,0,1.34-1.18,2.17-2.83,2.17a4.65,4.65,0,0,1-3.06-1.19l.55-1.09a4,4,0,0,0,2.54,1.09c.87,0,1.4-.33,1.4-.91,0-1.67-4-.74-4-3.4,0-1.29,1.1-2.09,2.73-2.09A4.87,4.87,0,0,1,596.59,226.18Z"/><path class="cls-16" d="M538.79,244.65v1.14h-4.5V238.3h1.26v6.35Z"/><path class="cls-16" d="M541.12,244.1l-.71,1.69h-1.32l3.31-7.49h1.29l3.27,7.49h-1.34l-.72-1.69Zm1.89-4.45L541.59,243h2.83Z"/><path class="cls-16" d="M556.88,239.43l-.73.92a2.93,2.93,0,0,0-2.09-.95,2.64,2.64,0,1,0,0,5.27,3.09,3.09,0,0,0,2.09-.89l.74.84a4.29,4.29,0,0,1-2.89,1.23,3.79,3.79,0,1,1,0-7.58A4.09,4.09,0,0,1,556.88,239.43Z"/><path class="cls-16" d="M559.44,239.44v2h3.66v1.13h-3.66v2.07h4.22v1.13h-5.48V238.3h5.35v1.14Z"/><path class="cls-16" d="M570.45,245.79l-4-5.37v5.37H565.2V238.3h1.24l4,5.38V238.3h1.24v7.49Z"/><path class="cls-16" d="M576.41,239.44v6.35h-1.26v-6.35h-2.36V238.3h6v1.14Z"/><path class="cls-16" d="M583.25,243.52a1.94,1.94,0,0,1-.34,0h-1.78v2.25h-1.26V238.3h3c1.91,0,3,.94,3,2.56a2.4,2.4,0,0,1-1.55,2.43l1.68,2.5h-1.43Zm-.34-1.12c1.15,0,1.82-.49,1.82-1.51s-.67-1.45-1.82-1.45h-1.78v3Z"/><path class="cls-16" d="M588.66,244.1l-.71,1.69h-1.32l3.31-7.49h1.29l3.27,7.49h-1.34l-.72-1.69Zm1.89-4.45L589.13,243H592Z"/><path class="cls-16" d="M600,244.65v1.14h-4.5V238.3h1.26v6.35Z"/><path class="cls-16" d="M554.08,138.84v2.76a5.12,5.12,0,0,1-2.91,1,3.79,3.79,0,1,1,.08-7.57,4.48,4.48,0,0,1,2.87,1l-.71.93a3.28,3.28,0,0,0-2.16-.85,2.66,2.66,0,1,0,0,5.31,3.52,3.52,0,0,0,1.72-.51v-2.08Z"/><path class="cls-16" d="M559.25,140.25h-2.12v2.26h-1.26V135h3c1.91,0,3,.93,3,2.55a2.39,2.39,0,0,1-1.55,2.43l1.68,2.51h-1.43Zm-.34-1.13c1.15,0,1.82-.49,1.82-1.5s-.67-1.46-1.82-1.46h-1.78v3Z"/><path class="cls-16" d="M570,139.41a3.26,3.26,0,0,1-6.51,0V135h1.26v4.38a1.86,1.86,0,0,0,2,2,1.84,1.84,0,0,0,2-2V135H570Z"/><path class="cls-16" d="M574.76,135c1.89,0,3,.93,3,2.55s-1.08,2.68-3,2.68H573v2.26h-1.26V135ZM573,139.12h1.67c1.16,0,1.81-.49,1.81-1.5s-.65-1.46-1.81-1.46H573Z"/><path class="cls-16" d="M586.3,138.77a4,4,0,1,1-4-3.77A3.84,3.84,0,0,1,586.3,138.77Zm-6.66,0a2.68,2.68,0,0,0,2.7,2.66,2.65,2.65,0,1,0-2.7-2.66Z"/><path class="cls-16" d="M548.56,149l-.74.92a2.91,2.91,0,0,0-2.09-.95,2.64,2.64,0,1,0,0,5.27,3.13,3.13,0,0,0,2.09-.88l.75.83a4.25,4.25,0,0,1-2.9,1.23,3.79,3.79,0,1,1,0-7.57A4.13,4.13,0,0,1,548.56,149Z"/><path class="cls-16" d="M550.86,153.67l-.72,1.69h-1.31l3.3-7.49h1.3l3.27,7.49h-1.35l-.71-1.69Zm1.88-4.45-1.41,3.32h2.83Z"/><path class="cls-16" d="M561.08,153.09H559v2.26H557.7v-7.49h3c1.91,0,3,.93,3,2.55a2.39,2.39,0,0,1-1.55,2.43l1.68,2.51h-1.43Zm-.34-1.12c1.15,0,1.82-.5,1.82-1.51s-.67-1.46-1.82-1.46H559v3Z"/><path class="cls-16" d="M570.69,155.36l-4-5.37v5.37h-1.27v-7.49h1.25l4,5.38v-5.38h1.24v7.49Z"/><path class="cls-16" d="M573.91,155.36v-7.49h1.26v7.49Z"/><path class="cls-16" d="M583.3,149l-.74.92a2.89,2.89,0,0,0-2.08-.95,2.64,2.64,0,1,0,0,5.27,3.08,3.08,0,0,0,2.08-.88l.75.83a4.25,4.25,0,0,1-2.9,1.23,3.79,3.79,0,1,1,.05-7.57A4.1,4.1,0,0,1,583.3,149Z"/><path class="cls-16" d="M591.75,151.61a4,4,0,1,1-4-3.77A3.83,3.83,0,0,1,591.75,151.61Zm-6.65,0a2.69,2.69,0,0,0,2.7,2.67,2.66,2.66,0,1,0-2.7-2.67Z"/><path class="cls-16" d="M557.55,160.71a3.75,3.75,0,1,1,0,7.49h-3v-7.49Zm-1.81,6.35h1.84a2.52,2.52,0,0,0,2.57-2.6,2.55,2.55,0,0,0-2.62-2.62h-1.79Z"/><path class="cls-16" d="M563.78,159.9h-1.1l1.14-1.59,1.26.54Zm-1,8.3v-7.49H564v7.49Z"/><path class="cls-16" d="M567.06,166.51l-.72,1.69H565l3.3-7.49h1.3l3.27,7.49h-1.35l-.71-1.69Zm1.88-4.45-1.41,3.32h2.83Z"/><path class="cls-16" d="M575,167.06h4.61v1.14h-6.32v-.91l4.57-5.45h-4.43v-1.13h6.13v.91Z"/><path class="cls-16" d="M391,219.76l-.73.92a3,3,0,0,0-2.09-1,2.64,2.64,0,1,0,0,5.28,3.14,3.14,0,0,0,2.09-.89l.75.83a4.25,4.25,0,0,1-2.9,1.23,3.79,3.79,0,1,1,0-7.57A4.13,4.13,0,0,1,391,219.76Z"/><path class="cls-16" d="M393.29,224.44l-.72,1.69h-1.32l3.31-7.49h1.29l3.28,7.49h-1.35l-.72-1.69Zm1.88-4.45-1.41,3.33h2.82Z"/><path class="cls-16" d="M401.39,219.77v2.17h3.4v1.12h-3.4v3.07h-1.26v-7.49h5v1.13Z"/><path class="cls-16" d="M407.54,219.77v2h3.66v1.13h-3.66V225h4.21v1.14h-5.47v-7.49h5.35v1.13Zm1.81-1.94h-1.09l1.13-1.59,1.26.54Z"/><path class="cls-16" d="M422.22,219.76l-.74.92a3,3,0,0,0-2.09-1,2.64,2.64,0,1,0,0,5.28,3.14,3.14,0,0,0,2.09-.89l.75.83a4.25,4.25,0,0,1-2.9,1.23,3.79,3.79,0,1,1,0-7.57A4.17,4.17,0,0,1,422.22,219.76Z"/><path class="cls-16" d="M430.67,222.38a4,4,0,1,1-4-3.77A3.83,3.83,0,0,1,430.67,222.38Zm-6.65,0a2.68,2.68,0,0,0,5.36,0,2.68,2.68,0,0,0-5.36,0Z"/><path class="cls-16" d="M437.27,226.13l-4-5.37v5.37H432v-7.49h1.24l4,5.38v-5.38h1.24v7.49Z"/><path class="cls-16" d="M391.57,231.48c1.88,0,3,.93,3,2.56s-1.08,2.67-3,2.67h-1.72V239h-1.26v-7.49Zm-1.72,4.1h1.67c1.15,0,1.8-.49,1.8-1.51s-.65-1.45-1.8-1.45h-1.67Z"/><path class="cls-16" d="M395.79,239v-7.49h1.26V239Z"/><path class="cls-16" d="M400.28,232.62v2h3.66v1.13h-3.66v2.06h4.21V239H399v-7.49h5.35v1.14Z"/><path class="cls-16" d="M409.42,236.7H407.3V239H406v-7.49h3c1.92,0,3,.93,3,2.56a2.42,2.42,0,0,1-1.55,2.43l1.68,2.5h-1.43Zm-.35-1.12c1.16,0,1.82-.49,1.82-1.51s-.66-1.45-1.82-1.45H407.3v3Z"/><path class="cls-16" d="M419,239l-4-5.37V239h-1.26v-7.49H415l4,5.38v-5.38h1.25V239Z"/><path class="cls-16" d="M423.31,237.28l-.72,1.69h-1.32l3.31-7.49h1.29l3.28,7.49H427.8l-.72-1.69Zm1.88-4.45-1.41,3.33h2.82Z"/><path class="cls-16" d="M435.16,232.2l-.52,1.11a4.52,4.52,0,0,0-2.2-.69c-.73,0-1.22.27-1.22.78,0,1.63,4,.76,4,3.45,0,1.34-1.18,2.16-2.83,2.16a4.6,4.6,0,0,1-3.06-1.19l.55-1.09a3.92,3.92,0,0,0,2.53,1.09c.88,0,1.41-.33,1.41-.91,0-1.66-4.05-.73-4.05-3.4,0-1.28,1.1-2.08,2.73-2.08A4.87,4.87,0,0,1,435.16,232.2Z"/><path class="cls-16" d="M329,227.62v-4.76L327,227h-.7l-2-4.09v4.76h-1v-6.37h1.28l2.1,4.23,2.09-4.23H330v6.37Z"/><path class="cls-16" d="M332.61,226.18l-.61,1.44h-1.12l2.81-6.37h1.1l2.78,6.37h-1.14l-.61-1.44Zm1.6-3.78-1.2,2.82h2.4Z"/><path class="cls-16" d="M341.3,225.69h-1.8v1.92h-1.08v-6.37H341c1.62,0,2.56.79,2.56,2.17a2,2,0,0,1-1.32,2.07l1.43,2.13h-1.22Zm-.29-1c1,0,1.54-.42,1.54-1.28s-.56-1.24-1.54-1.24H339.5v2.52Z"/><path class="cls-16" d="M345,227.62v-6.37h1.07v6.37Z"/><path class="cls-16" d="M352.07,221.86l-.45.94a3.88,3.88,0,0,0-1.86-.59c-.63,0-1,.24-1,.67,0,1.39,3.44.64,3.43,2.93,0,1.14-1,1.84-2.4,1.84a3.91,3.91,0,0,1-2.6-1l.46-.93a3.34,3.34,0,0,0,2.16.93c.74,0,1.19-.28,1.19-.77,0-1.42-3.44-.63-3.44-2.89,0-1.09.94-1.78,2.32-1.78A4.16,4.16,0,0,1,352.07,221.86Z"/><path class="cls-16" d="M358.65,222.2,358,223a2.48,2.48,0,0,0-1.77-.81,2.24,2.24,0,1,0,0,4.48,2.65,2.65,0,0,0,1.77-.75l.64.71a3.66,3.66,0,0,1-2.47,1,3.22,3.22,0,1,1,0-6.44A3.56,3.56,0,0,1,358.65,222.2Z"/><path class="cls-16" d="M365.84,224.43a3.38,3.38,0,1,1-3.38-3.21A3.26,3.26,0,0,1,365.84,224.43Zm-5.66,0a2.28,2.28,0,0,0,2.29,2.27,2.26,2.26,0,1,0-2.29-2.27Z"/><path class="cls-16" d="M371.3,221.86l-.44.94a3.88,3.88,0,0,0-1.87-.59c-.62,0-1,.24-1,.67,0,1.39,3.44.64,3.43,2.93,0,1.14-1,1.84-2.4,1.84a3.93,3.93,0,0,1-2.61-1l.47-.93a3.29,3.29,0,0,0,2.15.93c.75,0,1.19-.28,1.19-.77,0-1.42-3.43-.63-3.43-2.89,0-1.09.93-1.78,2.32-1.78A4.15,4.15,0,0,1,371.3,221.86Z"/><path class="cls-16" d="M336.75,232.78l-.45.94a3.77,3.77,0,0,0-1.86-.59c-.63,0-1,.24-1,.67,0,1.39,3.44.64,3.43,2.93,0,1.14-1,1.84-2.4,1.84a3.91,3.91,0,0,1-2.6-1l.46-.93a3.37,3.37,0,0,0,2.16.93c.74,0,1.19-.28,1.19-.77,0-1.42-3.44-.63-3.44-2.89,0-1.1.94-1.78,2.32-1.78A4.16,4.16,0,0,1,336.75,232.78Z"/><path class="cls-16" d="M339.16,233.13v1.72h3.11v1h-3.11v1.76h3.58v1h-4.65v-6.36h4.54v1Z"/><path class="cls-16" d="M345.78,238.53l-2.53-6.36h1.15l2,5.17,2-5.17h1.12l-2.58,6.36Z"/><path class="cls-16" d="M351.41,233.13v1.72h3.11v1h-3.11v1.76H355v1h-4.66v-6.36h4.55v1Z"/><path class="cls-16" d="M360.77,238.53,357.38,234v4.56H356.3v-6.36h1.06l3.41,4.57v-4.57h1.05v6.36Z"/><path class="cls-16" d="M340.31,243.7l-.44.94a3.78,3.78,0,0,0-1.87-.59c-.62,0-1,.24-1,.66,0,1.4,3.43.65,3.43,2.94,0,1.14-1,1.84-2.41,1.84a3.93,3.93,0,0,1-2.6-1l.47-.93a3.34,3.34,0,0,0,2.15.93c.75,0,1.19-.28,1.19-.77,0-1.42-3.43-.63-3.43-2.9,0-1.09.93-1.77,2.32-1.77A4.15,4.15,0,0,1,340.31,243.7Z"/><path class="cls-16" d="M342.73,244.05v1.72h3.11v1h-3.11v1.76h3.58v1h-4.66v-6.36h4.55v1Z"/><path class="cls-16" d="M348.52,248l-.61,1.43h-1.12l2.82-6.36h1.1l2.78,6.36h-1.15l-.61-1.43Zm1.6-3.79-1.2,2.83h2.4Z"/><path class="cls-16" d="M358.6,243.7l-.44.94a3.81,3.81,0,0,0-1.87-.59c-.62,0-1,.24-1,.66,0,1.4,3.43.65,3.42,2.94,0,1.14-1,1.84-2.4,1.84a3.93,3.93,0,0,1-2.6-1l.47-.93a3.34,3.34,0,0,0,2.15.93c.75,0,1.19-.28,1.19-.77,0-1.42-3.43-.63-3.43-2.9,0-1.09.93-1.77,2.31-1.77A4.16,4.16,0,0,1,358.6,243.7Z"/><path class="cls-16" d="M329,145.11v-4.76l-2,4.09h-.7l-2-4.09v4.76h-1v-6.37h1.28l2.1,4.23,2.09-4.23H330v6.37Z"/><path class="cls-16" d="M332.61,143.67l-.61,1.44h-1.12l2.81-6.37h1.1l2.78,6.37h-1.14l-.61-1.44Zm1.6-3.78-1.2,2.83h2.4Z"/><path class="cls-16" d="M341.3,143.18h-1.8v1.92h-1.08v-6.37H341c1.62,0,2.56.79,2.56,2.17a2,2,0,0,1-1.32,2.07l1.43,2.13h-1.22Zm-.29-1c1,0,1.54-.41,1.54-1.28s-.56-1.23-1.54-1.23H339.5v2.51Z"/><path class="cls-16" d="M345,145.11v-6.37h1.07v6.37Z"/><path class="cls-16" d="M352.07,139.35l-.45,1a3.77,3.77,0,0,0-1.86-.59c-.63,0-1,.23-1,.66,0,1.39,3.44.64,3.43,2.94,0,1.13-1,1.83-2.4,1.83a3.91,3.91,0,0,1-2.6-1l.46-.92a3.37,3.37,0,0,0,2.16.92c.74,0,1.19-.28,1.19-.77,0-1.42-3.44-.63-3.44-2.89,0-1.09.94-1.77,2.32-1.77A4.15,4.15,0,0,1,352.07,139.35Z"/><path class="cls-16" d="M358.65,139.7l-.63.78a2.48,2.48,0,0,0-1.77-.81,2.24,2.24,0,1,0,0,4.48,2.65,2.65,0,0,0,1.77-.75l.64.71a3.66,3.66,0,0,1-2.47,1,3.22,3.22,0,1,1,0-6.44A3.52,3.52,0,0,1,358.65,139.7Z"/><path class="cls-16" d="M365.84,141.92a3.38,3.38,0,1,1-3.38-3.21A3.26,3.26,0,0,1,365.84,141.92Zm-5.66,0a2.28,2.28,0,0,0,2.29,2.27,2.26,2.26,0,1,0-2.29-2.27Z"/><path class="cls-16" d="M371.3,139.35l-.44,1a3.78,3.78,0,0,0-1.87-.59c-.62,0-1,.23-1,.66,0,1.39,3.44.64,3.43,2.94,0,1.13-1,1.83-2.4,1.83a3.93,3.93,0,0,1-2.61-1l.47-.92a3.33,3.33,0,0,0,2.15.92c.75,0,1.19-.28,1.19-.77,0-1.42-3.43-.63-3.43-2.89,0-1.09.93-1.77,2.32-1.77A4.14,4.14,0,0,1,371.3,139.35Z"/><path class="cls-16" d="M336.75,150.27l-.45.94a3.88,3.88,0,0,0-1.86-.59c-.63,0-1,.24-1,.67,0,1.39,3.44.64,3.43,2.93,0,1.14-1,1.84-2.4,1.84a3.91,3.91,0,0,1-2.6-1l.46-.93a3.32,3.32,0,0,0,2.16.93c.74,0,1.19-.28,1.19-.77,0-1.42-3.44-.63-3.44-2.89,0-1.09.94-1.78,2.32-1.78A4.16,4.16,0,0,1,336.75,150.27Z"/><path class="cls-16" d="M339.16,150.62v1.72h3.11v1h-3.11v1.75h3.58v1h-4.65v-6.37h4.54v1Z"/><path class="cls-16" d="M345.78,156l-2.53-6.37h1.15l2,5.17,2-5.17h1.12L346.89,156Z"/><path class="cls-16" d="M351.41,150.62v1.72h3.11v1h-3.11v1.75H355v1h-4.66v-6.37h4.55v1Z"/><path class="cls-16" d="M360.77,156l-3.39-4.57V156H356.3v-6.37h1.06l3.41,4.57v-4.57h1.05V156Z"/><path class="cls-16" d="M340.31,161.19l-.44.94a3.88,3.88,0,0,0-1.87-.59c-.62,0-1,.24-1,.67,0,1.39,3.43.64,3.43,2.93,0,1.14-1,1.84-2.41,1.84a3.93,3.93,0,0,1-2.6-1l.47-.93A3.34,3.34,0,0,0,338,166c.75,0,1.19-.28,1.19-.77,0-1.42-3.43-.63-3.43-2.89,0-1.09.93-1.78,2.32-1.78A4.15,4.15,0,0,1,340.31,161.19Z"/><path class="cls-16" d="M342.73,161.54v1.72h3.11v1h-3.11V166h3.58v1h-4.66v-6.36h4.55v1Z"/><path class="cls-16" d="M348.52,165.51l-.61,1.43h-1.12l2.82-6.36h1.1l2.78,6.36h-1.15l-.61-1.43Zm1.6-3.79-1.2,2.83h2.4Z"/><path class="cls-16" d="M358.6,161.19l-.44.94a3.91,3.91,0,0,0-1.87-.59c-.62,0-1,.24-1,.67,0,1.39,3.43.64,3.42,2.93,0,1.14-1,1.84-2.4,1.84a3.93,3.93,0,0,1-2.6-1l.47-.93a3.34,3.34,0,0,0,2.15.93c.75,0,1.19-.28,1.19-.77,0-1.42-3.43-.63-3.43-2.89,0-1.09.93-1.78,2.31-1.78A4.16,4.16,0,0,1,358.6,161.19Z"/><path class="cls-16" d="M221.77,30.77v1.72h3.11v1h-3.11v1.76h3.59v1H220.7V29.8h4.55v1Z"/><path class="cls-16" d="M230.5,35.2v1h-3.83V29.8h1.07v5.4Z"/><path class="cls-16" d="M207,41.68l-.63.78a2.47,2.47,0,0,0-1.77-.81,2.24,2.24,0,1,0,0,4.48,2.63,2.63,0,0,0,1.77-.75l.64.71a3.59,3.59,0,0,1-2.46,1,3.22,3.22,0,1,1,0-6.43A3.51,3.51,0,0,1,207,41.68Z"/><path class="cls-16" d="M213.54,44.45a2.77,2.77,0,0,1-5.53,0V40.72h1.07v3.73a1.59,1.59,0,0,0,1.71,1.72,1.57,1.57,0,0,0,1.68-1.72V40.72h1.07Z"/><path class="cls-16" d="M217.85,40.72c1.32,0,2.14.6,2.14,1.59a1.39,1.39,0,0,1-1.12,1.42,1.55,1.55,0,0,1,1.36,1.61c0,1.09-.88,1.75-2.32,1.75h-2.82V40.72Zm-1.69,2.64h1.64c.68,0,1.09-.32,1.09-.85s-.41-.83-1.09-.83h-1.64Zm0,2.77h1.64c.83,0,1.33-.32,1.33-.92s-.5-.9-1.33-.9h-1.64Z"/><path class="cls-16" d="M222.41,45.65l-.61,1.44h-1.12l2.81-6.37h1.1l2.79,6.37h-1.15l-.61-1.44Zm1.6-3.78-1.2,2.83h2.4Z"/><path class="cls-16" d="M232.69,47.09l-3.39-4.57v4.57h-1.08V40.72h1.06l3.41,4.58V40.72h1.05v6.37Z"/><path class="cls-16" d="M235.43,47.09V40.72h1.07v6.37Z"/><path class="cls-16" d="M240.51,41.69v5.4h-1.08v-5.4h-2v-1h5.11v1Z"/><path class="cls-16" d="M249.28,43.91a3.37,3.37,0,1,1-3.37-3.21A3.25,3.25,0,0,1,249.28,43.91Zm-5.65,0a2.28,2.28,0,0,0,2.29,2.26,2.26,2.26,0,1,0-2.29-2.26Z"/><path class="cls-16" d="M283.56,30.77v1.72h3.11v1h-3.11v1.76h3.58v1h-4.66V29.8H287v1Z"/><path class="cls-16" d="M292.28,35.2v1h-3.83V29.8h1.07v5.4Z"/><path class="cls-16" d="M268.81,41.68l-.62.78a2.51,2.51,0,0,0-1.78-.81,2.24,2.24,0,1,0,0,4.48,2.67,2.67,0,0,0,1.78-.75l.63.71a3.57,3.57,0,0,1-2.46,1,3.22,3.22,0,1,1,0-6.43A3.51,3.51,0,0,1,268.81,41.68Z"/><path class="cls-16" d="M275.33,44.45a2.77,2.77,0,0,1-5.54,0V40.72h1.07v3.73a1.59,1.59,0,0,0,1.71,1.72,1.57,1.57,0,0,0,1.68-1.72V40.72h1.08Z"/><path class="cls-16" d="M279.63,40.72c1.32,0,2.14.6,2.14,1.59a1.39,1.39,0,0,1-1.12,1.42A1.55,1.55,0,0,1,282,45.34c0,1.09-.89,1.75-2.32,1.75h-2.83V40.72Zm-1.69,2.64h1.64c.68,0,1.09-.32,1.09-.85s-.41-.83-1.09-.83h-1.64Zm0,2.77h1.64c.83,0,1.34-.32,1.34-.92s-.51-.9-1.34-.9h-1.64Z"/><path class="cls-16" d="M284.19,45.65l-.61,1.44h-1.12l2.81-6.37h1.1l2.79,6.37H288l-.61-1.44Zm1.6-3.78-1.2,2.83H287Z"/><path class="cls-16" d="M294.47,47.09l-3.39-4.57v4.57H290V40.72h1.05l3.41,4.58V40.72h1.06v6.37Z"/><path class="cls-16" d="M297.21,47.09V40.72h1.08v6.37Z"/><path class="cls-16" d="M302.29,41.69v5.4h-1.07v-5.4h-2v-1h5.1v1Z"/><path class="cls-16" d="M311.07,43.91a3.38,3.38,0,1,1-3.38-3.21A3.26,3.26,0,0,1,311.07,43.91Zm-5.66,0a2.28,2.28,0,0,0,2.29,2.26,2.26,2.26,0,1,0-2.29-2.26Z"/><path class="cls-16" d="M395.05,147.73l-.74.92a2.94,2.94,0,0,0-2.09-1,2.64,2.64,0,1,0,0,5.28,3.09,3.09,0,0,0,2.09-.89l.75.83a4.25,4.25,0,0,1-2.9,1.23,3.79,3.79,0,1,1,0-7.57A4.14,4.14,0,0,1,395.05,147.73Z"/><path class="cls-16" d="M397.61,147.74v2h3.65v1.13h-3.65V153h4.21v1.13h-5.48V146.6h5.35v1.14Z"/><path class="cls-16" d="M410.11,154.09V148.5l-2.36,4.81h-.83l-2.36-4.81v5.59h-1.19V146.6h1.5l2.47,5,2.46-5h1.49v7.49Z"/><path class="cls-16" d="M413.26,154.09V146.6h1.26v7.49Z"/><path class="cls-16" d="M419.23,147.74v6.35H418v-6.35H415.6V146.6h6v1.14Z"/><path class="cls-16" d="M423,152.4l-.72,1.69H421l3.31-7.49h1.29l3.28,7.49H427.5l-.72-1.69Zm1.88-4.45-1.41,3.33h2.82Z"/><path class="cls-16" d="M434.86,147.32l-.52,1.11a4.52,4.52,0,0,0-2.2-.69c-.73,0-1.22.27-1.22.78,0,1.63,4.05.76,4,3.45,0,1.34-1.18,2.16-2.83,2.16a4.64,4.64,0,0,1-3.06-1.18l.55-1.09a4,4,0,0,0,2.54,1.09c.87,0,1.4-.34,1.4-.91,0-1.67-4.05-.74-4.05-3.4,0-1.29,1.1-2.09,2.73-2.09A4.87,4.87,0,0,1,434.86,147.32Z"/><circle class="cls-7" cx="169.79" cy="339.82" r="13.09"/><path d="M174.46,345.75h-9.33a.37.37,0,0,1-.37-.36V334.26a.37.37,0,0,1,.37-.36h9.33a.36.36,0,0,1,.36.36v11.13A.36.36,0,0,1,174.46,345.75Zm-9.26-.44h9.18v-11H165.2Z"/><path d="M173.6,345.75H166a.36.36,0,0,1-.36-.36V335.06a.36.36,0,0,1,.36-.36h7.64a.36.36,0,0,1,.36.36v10.33A.36.36,0,0,1,173.6,345.75Zm-7.57-.44h7.49V335.13H166Z"/><path d="M170.54,339.54h-1.37a.33.33,0,0,1-.28-.16.36.36,0,0,1,0-.32l.69-1.19a.32.32,0,0,1,.28-.16.33.33,0,0,1,.28.16l.68,1.19a.32.32,0,0,1-.28.48Zm-1.18-.43h1l-.49-.86Zm.41-1.13Z"/><path d="M169.86,341.94a.32.32,0,0,1-.28-.16l-.69-1.19a.33.33,0,0,1,0-.32.3.3,0,0,1,.27-.16h1.37a.32.32,0,0,1,.28.48l-.68,1.19A.33.33,0,0,1,169.86,341.94Zm-.5-1.4.5.86.49-.86Z"/></g></g></svg>