<svg xmlns="http://www.w3.org/2000/svg" viewBox="0 0 846.29 581.62"><defs><style>.cls-1{isolation:isolate;}.cls-14,.cls-16,.cls-19,.cls-2,.cls-21,.cls-23,.cls-27,.cls-31{fill:#fff;}.cls-2{stroke:#c3e06f;}.cls-17,.cls-19,.cls-2,.cls-20,.cls-23,.cls-24,.cls-25,.cls-27,.cls-28{stroke-miterlimit:10;}.cls-3{fill:#f2bf45;}.cls-12,.cls-4{fill:#888f88;}.cls-11,.cls-4{opacity:0.5;}.cls-5{fill:#afc07d;}.cls-14,.cls-15,.cls-24,.cls-5,.cls-6,.cls-7,.cls-8{opacity:0.7;}.cls-6{fill:#bbd17b;}.cls-7{fill:#d0e09f;}.cls-8{fill:#e0bb00;}.cls-22,.cls-9{fill:#fff2ba;}.cls-10,.cls-28,.cls-9{opacity:0.8;}.cls-10{fill:#ffd55e;}.cls-13{fill:#707570;}.cls-17,.cls-20,.cls-24,.cls-25,.cls-28{fill:none;}.cls-17{stroke:#999;stroke-width:3px;}.cls-18{fill:#999;}.cls-19,.cls-24{stroke:#e0bb00;}.cls-20{stroke:#888f88;}.cls-21,.cls-30{opacity:0.4;}.cls-23,.cls-25{stroke:#f2bf45;}.cls-26{opacity:0.3;}.cls-27{stroke:#fff2ba;}.cls-28{stroke:#ffd55e;}.cls-29{mix-blend-mode:multiply;}.cls-31{font-size:11.84px;font-family:Montserrat-Regular, Montserrat;}.cls-32{letter-spacing:-0.02em;}</style></defs><g class="cls-1"><g id="Layer_7" data-name="Layer 7"><path class="cls-2" d="M506.42,108.25a13.09,13.09,0,1,1-26.18,0c0-.12,0-.25,0-.37h26.16C506.42,108,506.42,108.13,506.42,108.25Z"/><path d="M490.6,113.91a.22.22,0,0,1-.21-.22v-5.36a.22.22,0,1,1,.43,0v5.36A.22.22,0,0,1,490.6,113.91Z"/><path d="M490.6,110.25a.23.23,0,0,1-.15-.07l-.81-.83a.22.22,0,1,1,.32-.3l.43.45v-.59a.2.2,0,0,1,.06-.15l.54-.58a.22.22,0,0,1,.31,0,.23.23,0,0,1,0,.31l-.49.51v1a.21.21,0,0,1-.13.2Z"/><path d="M494.71,107.88v5.81a.21.21,0,0,1-.21.22.22.22,0,0,1-.22-.22V108l-.1-.08Z"/><path d="M495.06,107.88l-.35.41,0,.06a.21.21,0,0,1-.16.08h-.08a.22.22,0,0,1-.14-.21v-.33Z"/><path d="M496.93,113.91a.22.22,0,0,1-.22-.22v-3.82a.22.22,0,0,1,.44,0v3.82A.22.22,0,0,1,496.93,113.91Z"/><path d="M496.93,111a.2.2,0,0,1-.16-.07.22.22,0,0,1,0-.31l.6-.54a.22.22,0,1,1,.29.33l-.61.54A.24.24,0,0,1,496.93,111Z"/><path d="M492.87,107.88h-.44a5.44,5.44,0,0,1,0,.67,2.47,2.47,0,0,1-1.65,2.53,1.58,1.58,0,0,1-.38,0h-.05a2.34,2.34,0,0,1-2-2.57,5.58,5.58,0,0,1,0-.67H488a5.58,5.58,0,0,0,0,.67,2.74,2.74,0,0,0,2.41,3h.05a1.58,1.58,0,0,0,.38,0,2.63,2.63,0,0,0,2-2.08c0-.16.06-.31.08-.48s0-.26,0-.4A5.67,5.67,0,0,0,492.87,107.88Z"/><path d="M497.36,107.88c0,.11-.06.22-.1.33a2.24,2.24,0,0,1-.22.4,2.8,2.8,0,0,1-1.44,1.17,3,3,0,0,1-.43.12,2.31,2.31,0,0,1-.46,0h-.43a2.9,2.9,0,0,1-1.47-.52l-.26-.2a.21.21,0,0,1,.28-.32l.06,0a2.5,2.5,0,0,0,1.39.57h.43a2.44,2.44,0,0,0,2-1.22,1.94,1.94,0,0,0,.17-.42Z"/><path d="M496.93,111.68a1.76,1.76,0,0,1-1.76-1.76v-.3a.22.22,0,0,1,.44,0v.3a1.32,1.32,0,1,0,1.32-1.32.22.22,0,0,1-.22-.22.21.21,0,0,1,.22-.21,1.76,1.76,0,0,1,0,3.51Z"/><polygon class="cls-3" points="825 484.81 825 363.29 709.62 363.29 709.62 484.77 825 484.81"/><circle class="cls-2" cx="493.33" cy="276.79" r="13.09"/><path d="M490.6,282.45a.22.22,0,0,1-.21-.21v-5.37a.21.21,0,0,1,.21-.21.21.21,0,0,1,.22.21v5.37A.22.22,0,0,1,490.6,282.45Z"/><path d="M490.6,278.79a.22.22,0,0,1-.15-.06l-.81-.83a.22.22,0,0,1,0-.31.23.23,0,0,1,.31,0l.43.45v-.59a.22.22,0,0,1,.06-.15l.54-.57a.21.21,0,0,1,.31,0,.22.22,0,0,1,0,.3l-.49.52v1a.22.22,0,0,1-.13.2Z"/><path d="M494.5,282.45a.22.22,0,0,1-.22-.21V276.5l-.66-.54a.22.22,0,1,1,.28-.34l.74.61a.21.21,0,0,1,.08.17v5.84A.22.22,0,0,1,494.5,282.45Z"/><path d="M494.5,277h-.07a.21.21,0,0,1-.15-.2v-1.33a.22.22,0,0,1,.44,0v.73l.27-.33a.22.22,0,0,1,.3,0,.22.22,0,0,1,0,.31l-.65.78A.25.25,0,0,1,494.5,277Z"/><path d="M496.93,282.45a.22.22,0,0,1-.22-.21v-3.82a.22.22,0,1,1,.44,0v3.82A.22.22,0,0,1,496.93,282.45Z"/><path d="M496.93,279.54a.22.22,0,0,1-.14-.38l.6-.54a.22.22,0,0,1,.31,0,.21.21,0,0,1,0,.3l-.61.54A.2.2,0,0,1,496.93,279.54Z"/><path d="M490.45,280.1a2.75,2.75,0,0,1-2.47-3c0-1.68,1.19-5,2.62-5s2.31,3.54,2.31,5A2.75,2.75,0,0,1,490.45,280.1Zm.15-7.55c-1,0-2.18,3-2.18,4.54a2.09,2.09,0,1,0,4.06,0,9.36,9.36,0,0,0-.57-2.91C491.53,273.14,491.05,272.55,490.6,272.55Z"/><path d="M494.54,278.51a3,3,0,0,1-2-.74.21.21,0,1,1,.28-.32,2.6,2.6,0,0,0,1.71.62,2.39,2.39,0,0,0,2.48-2.34c0-1.39-1-4.16-2.29-4.16-.92,0-1.89,1.37-2.37,2.73a.22.22,0,0,1-.28.13.22.22,0,0,1-.13-.28c.54-1.5,1.6-3,2.78-3,1.66,0,2.72,3,2.72,4.59A2.82,2.82,0,0,1,494.54,278.51Z"/><path d="M496.93,280.22a1.76,1.76,0,0,1-1.76-1.75v-.31a.22.22,0,0,1,.44,0v.31a1.32,1.32,0,1,0,1.32-1.33.21.21,0,0,1-.22-.21.22.22,0,0,1,.22-.22,1.76,1.76,0,0,1,0,3.51Z"/><circle class="cls-2" cx="170.31" cy="243.43" r="13.09"/><path d="M175.4,248.1H164.18a.36.36,0,0,1-.36-.36V246a.36.36,0,0,1,.36-.36h2.41v-1.86a.36.36,0,0,1,.36-.36h2.55v-1.78a.36.36,0,0,1,.36-.36h2.43v-1.83a.36.36,0,0,1,.36-.36h2.75a.36.36,0,0,1,.36.36v8.25A.36.36,0,0,1,175.4,248.1Zm-11.15-.43h11.08v-8.11h-2.61v1.83a.36.36,0,0,1-.36.36h-2.43v1.78a.36.36,0,0,1-.36.36H167v1.86a.36.36,0,0,1-.36.36h-2.41Z"/><path d="M163.08,243.83a.23.23,0,0,1-.18-.09.21.21,0,0,1,0-.3l8.9-6.62a.36.36,0,0,1,.22-.07h2.29a.21.21,0,0,1,.22.21.22.22,0,0,1-.22.22h-2.27l-8.88,6.61A.22.22,0,0,1,163.08,243.83Z"/><path d="M165.13,246.11a.22.22,0,0,1-.22-.22v-3.78a.22.22,0,1,1,.43,0v3.78A.22.22,0,0,1,165.13,246.11Z"/><path d="M174.16,239.56a.22.22,0,0,1-.22-.22V237a.21.21,0,0,1,.22-.21.21.21,0,0,1,.21.21v2.38A.21.21,0,0,1,174.16,239.56Z"/><rect class="cls-4" x="78.83" y="13.83" width="109.24" height="349.4"/><path class="cls-4" d="M823.39,106.91V362.53H681.16V107.36H321V72H746V71.9H681.16V13.83H649.07v57.8H219.29a30,30,0,0,1-30-30V13.83h-1.22V161.28H290v83.15a30,30,0,0,1-30,30H225.31v30h29.35v58.81h569V106.91ZM290,164.77H189.53V137.48a30,30,0,0,1,30-30H260a30,30,0,0,1,30,30Zm160,79.6a30,30,0,0,1-30,30H321V107.48H420a30,30,0,0,1,30,30Zm206.28,30H557.23a30,30,0,0,1-30-30V137.48a30,30,0,0,1,30-30h99.09Z"/><path class="cls-3" d="M385.81,13.94V71.63H219.29a30,30,0,0,1-30-30V13.94Z"/><rect class="cls-3" x="518.39" y="12.94" width="65.77" height="58.69"/><rect class="cls-3" x="452.19" y="12.94" width="66.2" height="58.69"/><rect class="cls-3" x="385.82" y="12.94" width="66.37" height="58.69"/><rect class="cls-3" x="584.16" y="12.94" width="64.92" height="58.69"/><rect class="cls-5" x="254.66" y="303.62" width="66.04" height="0.19"/><rect class="cls-6" x="518.38" y="303.62" width="65.77" height="0.19"/><rect class="cls-6" x="452.18" y="303.62" width="66.2" height="0.19"/><rect class="cls-6" x="385.81" y="303.62" width="66.37" height="0.19"/><rect class="cls-7" x="584.15" y="303.62" width="64.92" height="0.19"/><rect class="cls-3" x="681.17" y="12.21" width="64.82" height="59.69"/><rect class="cls-8" x="745.98" y="12.21" width="77.65" height="94.7"/><rect class="cls-9" x="681.16" y="106.48" width="142.23" height="256.05"/><path class="cls-10" d="M656.32,107.48V274.37H557.23a30,30,0,0,1-30-30V137.48a30,30,0,0,1,30-30Z"/><g class="cls-11"><path class="cls-12" d="M190.53,161V137.48a29,29,0,0,1,29-29H260a29,29,0,0,1,29,29V161Z"/><path class="cls-13" d="M260,109.48a28,28,0,0,1,28,28V160H191.53V137.48a28,28,0,0,1,28-28H260m0-2H219.53a30,30,0,0,0-30,30V162H290V137.48a30,30,0,0,0-30-30Z"/></g><path class="cls-10" d="M450,137.48V244.37a30,30,0,0,1-30,30H321V107.48H420A30,30,0,0,1,450,137.48Z"/><circle class="cls-14" cx="283.06" cy="334.25" r="13.09"/><g class="cls-15"><path d="M285.61,331.55a1.93,1.93,0,0,1-1.24,1.8,2.21,2.21,0,0,1,1.66,2.13c0,1.5-1.24,2.41-3.24,2.41s-3.22-.91-3.22-2.39a2.23,2.23,0,0,1,1.73-2.15A2,2,0,0,1,280,331.5c0-1.32,1.09-2.13,2.8-2.13S285.61,330.2,285.61,331.55Zm-4.7,3.8c0,.91.68,1.42,1.88,1.42s1.9-.51,1.9-1.42-.7-1.39-1.9-1.39S280.91,334.47,280.91,335.35Zm.28-3.72c0,.78.6,1.22,1.6,1.22s1.61-.44,1.61-1.22-.59-1.24-1.61-1.24S281.19,330.85,281.19,331.63Z"/></g><g class="cls-15"><polygon class="cls-16" points="320.7 363.31 254.66 363.31 254.66 363.5 320.7 363.5 320.7 363.31 320.7 363.31"/></g><g class="cls-15"><polygon class="cls-16" points="385.79 363.31 320.71 363.31 320.71 363.5 385.79 363.5 385.79 363.31 385.79 363.31"/></g><g class="cls-15"><polygon class="cls-16" points="518.38 363.31 452.18 363.31 452.18 363.5 518.38 363.5 518.38 363.31 518.38 363.31"/></g><g class="cls-15"><polygon class="cls-16" points="584.4 363.31 518.2 363.31 518.2 363.5 584.4 363.5 584.4 363.31 584.4 363.31"/></g><g class="cls-15"><polygon class="cls-16" points="452.18 363.31 385.81 363.31 385.81 363.5 452.18 363.5 452.18 363.31 452.18 363.31"/></g><g class="cls-15"><polygon class="cls-16" points="649.07 363.31 584.15 363.31 584.15 363.5 649.07 363.5 649.07 363.31 649.07 363.31"/></g><rect class="cls-17" x="78.83" y="13.83" width="744.81" height="349.4"/><polygon class="cls-4" points="709.62 364.68 709.62 484.79 645.5 484.79 645.5 484.81 563.34 484.81 563.34 418.25 645.5 418.25 645.5 364.68 709.62 364.68"/><rect class="cls-18" x="79.18" y="161.28" width="210.82" height="60.8"/><path class="cls-18" d="M290,222.08v22.35a30,30,0,0,1-30,30H225.37V222.08Z"/><polygon class="cls-12" points="649.07 303.8 649.07 361.72 254.66 361.72 254.66 303.8 320.7 303.8 320.7 303.62 385.81 303.62 385.81 303.8 649.07 303.8"/><circle class="cls-19" cx="665.02" cy="41.29" r="13.09"/><path d="M669.69,47.22h-9.34a.36.36,0,0,1-.36-.36V35.73a.36.36,0,0,1,.36-.36h9.34a.36.36,0,0,1,.36.36V46.86A.36.36,0,0,1,669.69,47.22Zm-9.26-.43h9.18v-11h-9.18Z"/><path d="M668.83,47.22h-7.64a.36.36,0,0,1-.36-.36V36.53a.36.36,0,0,1,.36-.36h7.64a.36.36,0,0,1,.36.36V46.86A.36.36,0,0,1,668.83,47.22Zm-7.57-.43h7.49V36.6h-7.49Z"/><path d="M665.77,41H664.4a.33.33,0,0,1-.28-.16.36.36,0,0,1,0-.32l.69-1.19a.34.34,0,0,1,.28-.16.36.36,0,0,1,.28.16l.68,1.19a.32.32,0,0,1-.28.48Zm-1.18-.43h1l-.49-.86Zm.41-1.13Z"/><path d="M665.09,43.41a.32.32,0,0,1-.28-.16l-.69-1.19a.36.36,0,0,1,0-.32.33.33,0,0,1,.28-.16h1.37a.32.32,0,0,1,.28.48l-.68,1.19A.33.33,0,0,1,665.09,43.41Zm-.5-1.4.5.86.49-.86Z"/><polygon class="cls-10" points="745.98 71.99 745.98 106.48 681.16 106.48 681.16 107.36 320.95 107.36 320.95 71.99 745.98 71.99"/><polygon class="cls-12" points="226.13 222.08 225.37 222.08 225.37 219.91 226.13 222.08"/><polygon class="cls-8" points="254.66 304.42 254.66 363.23 188.07 363.23 188.07 222.08 225.37 222.08 225.37 274.43 225.31 274.43 225.31 304.42 254.66 304.42"/><line class="cls-20" x1="288.15" y1="304.42" x2="254.66" y2="304.42"/><circle class="cls-14" cx="713.14" cy="40.8" r="13.09"/><circle class="cls-21" cx="290.73" cy="40.8" r="13.09"/><path d="M243.13,31.44l-.74.92a2.93,2.93,0,0,0-2.09-.95,2.64,2.64,0,1,0,0,5.27,3.09,3.09,0,0,0,2.09-.89l.75.84a4.25,4.25,0,0,1-2.9,1.23,3.79,3.79,0,1,1,0-7.58A4.14,4.14,0,0,1,243.13,31.44Z"/><path d="M245.69,31.45v2h3.65v1.14h-3.65v2.06h4.21V37.8h-5.48V30.32h5.35v1.13Z"/><path d="M254.82,35.54h-2.11V37.8h-1.27V30.32h3c1.92,0,3,.93,3,2.55A2.41,2.41,0,0,1,256,35.3l1.68,2.5h-1.44Zm-.34-1.13c1.16,0,1.82-.49,1.82-1.5s-.66-1.46-1.82-1.46h-1.77v3Z"/><path d="M261.13,37.8l-3-7.48h1.36l2.31,6.08,2.33-6.08h1.32l-3,7.48Z"/><path d="M267.74,31.45v2h3.66v1.14h-3.66v2.06H272V37.8h-5.47V30.32h5.35v1.13Z"/><path d="M279.66,31.44l-.74.92a2.93,2.93,0,0,0-2.09-.95,2.64,2.64,0,1,0,0,5.27,3.09,3.09,0,0,0,2.09-.89l.75.84a4.25,4.25,0,0,1-2.9,1.23,3.79,3.79,0,1,1,0-7.58A4.14,4.14,0,0,1,279.66,31.44Z"/><path d="M282.22,31.45v2h3.65v1.14h-3.65v2.06h4.21V37.8H281V30.32h5.35v1.13Z"/><path d="M291.35,35.54h-2.11V37.8H288V30.32h3c1.92,0,3,.93,3,2.55a2.41,2.41,0,0,1-1.55,2.43l1.68,2.5h-1.44ZM291,34.41c1.16,0,1.82-.49,1.82-1.5s-.66-1.46-1.82-1.46h-1.77v3Z"/><path d="M296.71,29.5h-1.09l1.14-1.58,1.26.54Zm-1,8.3V30.32H297V37.8Z"/><path d="M300,36.11l-.72,1.69H298l3.3-7.48h1.3l3.27,7.48h-1.35l-.71-1.69Zm1.88-4.45L300.47,35h2.82Z"/><path d="M316.35,37.8V32.21L314,37h-.82l-2.36-4.81V37.8H309.6V30.32h1.49l2.48,5,2.46-5h1.48V37.8Z"/><path d="M320.55,36.11l-.71,1.69h-1.32l3.31-7.48h1.29l3.27,7.48h-1.34l-.72-1.69Zm1.89-4.45L321,35h2.83Z"/><path d="M331.9,36.66V37.8h-4.51V30.32h1.26v6.34Z"/><path d="M335.84,31.45V37.8h-1.26V31.45h-2.36V30.32h6v1.13Z"/><path d="M339.62,36.11l-.71,1.69h-1.32l3.3-7.48h1.3l3.27,7.48h-1.35l-.71-1.69Zm1.88-4.45L340.09,35h2.83Z"/><path d="M266.76,44.28l-.74.92a2.93,2.93,0,0,0-2.09-1,2.64,2.64,0,1,0,0,5.27,3.09,3.09,0,0,0,2.09-.89l.75.84a4.25,4.25,0,0,1-2.9,1.23,3.79,3.79,0,1,1,0-7.58A4.14,4.14,0,0,1,266.76,44.28Z"/><path d="M269.06,49l-.72,1.69H267l3.3-7.48h1.3l3.27,7.48h-1.35L272.84,49Zm1.88-4.45-1.41,3.33h2.82Z"/><path d="M279.28,48.38h-2.12v2.25H275.9V43.16h3c1.91,0,3,.93,3,2.55a2.39,2.39,0,0,1-1.55,2.43l1.68,2.5h-1.43Zm-.34-1.13c1.15,0,1.81-.49,1.81-1.5s-.66-1.46-1.81-1.46h-1.78v3Z"/><path d="M284.69,49,284,50.64h-1.32L286,43.16h1.29l3.27,7.48h-1.34L288.47,49Zm1.89-4.45-1.42,3.33H288Z"/><path d="M298.28,50.64V45.05l-2.36,4.81h-.83l-2.36-4.81v5.59h-1.19V43.16H293l2.47,5,2.46-5h1.49v7.48Z"/><path d="M302.69,44.29v2h3.66v1.14h-3.66v2.06h4.22v1.13h-5.48V43.16h5.35v1.13Z"/><path d="M313,49.5v1.14h-4.5V43.16h1.26V49.5Z"/><path d="M321.48,46.9a4,4,0,1,1-4-3.78A3.83,3.83,0,0,1,321.48,46.9Zm-6.65,0a2.68,2.68,0,0,0,5.35,0,2.68,2.68,0,0,0-5.35,0Z"/><path class="cls-16" d="M745,16.16V70.9H682.16V16.16H745m1-1H681.16V71.9H746V15.16Z"/><path class="cls-16" d="M517.38,16.3V70.63h-64.2V16.3h64.2m1-1h-66.2V71.63h66.2V15.3Z"/><path class="cls-16" d="M451.18,16.25V70.63H386.81V16.25h64.37m1-1H385.81V71.63h66.37V15.25Z"/><path class="cls-16" d="M648.07,16.3V70.63H585.15V16.3h62.92m1-1H584.15V71.63h64.92V15.3Z"/><path class="cls-16" d="M384.81,16.25V70.63H219.29a29,29,0,0,1-29-29V16.25H384.81m1-1H189.29V41.63a30,30,0,0,0,30,30H385.81V15.25Z"/><path class="cls-16" d="M517.38,16.3V70.63H486.32V16.3h31.06m1-1H485.32V71.63h33.06V15.3Z"/><path class="cls-16" d="M417.85,16.25V70.63h-31V16.25h31m1-1h-33V71.63h33V15.25Z"/><path class="cls-16" d="M583.15,16.31V70.63H519.38V16.31h63.77m1-1H518.38V71.63h65.77V15.31Z"/><path class="cls-16" d="M583.15,16.31V70.63h-30.7V16.31h30.7m1-1h-32.7V71.63h32.7V15.31Z"/><path class="cls-16" d="M648.07,16.3V70.63H617.7V16.3h30.37m1-1H616.7V71.63h32.37V15.3Z"/><path class="cls-16" d="M821.15,107.48V360.71h-139V107.48h139m1-1h-141V361.71h141V106.48Z"/><rect class="cls-3" x="79.95" y="419.41" width="162.13" height="31.34" rx="15.67"/><rect class="cls-22" x="79.95" y="455.59" width="162.13" height="31.34" rx="15.67"/><rect class="cls-10" x="79.95" y="490.96" width="162.13" height="31.34" rx="15.67"/><rect class="cls-8" x="251.89" y="419.41" width="162.13" height="31.34" rx="15.67"/><rect class="cls-8" x="251.89" y="455.59" width="162.13" height="31.34" rx="15.67"/><rect class="cls-8" x="251.89" y="490.92" width="162.13" height="31.34" rx="15.67"/><rect class="cls-8" x="251.89" y="526.53" width="162.13" height="31.34" rx="15.67"/><circle class="cls-23" cx="95.84" cy="434.81" r="13.09"/><path d="M100.07,440.76h-8.4a.36.36,0,0,1-.36-.36v-6.75a.22.22,0,0,1,.44,0v6.67H100v-6.44a.21.21,0,0,1,.21-.21.21.21,0,0,1,.22.21v6.52A.36.36,0,0,1,100.07,440.76Z"/><path d="M100.56,434.31a.36.36,0,0,1-.2-.06l-4.52-3.16-4.65,3.09a.35.35,0,0,1-.49-.09l-.67-.91a.36.36,0,0,1,.09-.52l5.67-3.74a.36.36,0,0,1,.41,0l5.37,3.83h0a.35.35,0,0,1,.15.26.37.37,0,0,1-.09.28l-.8.89A.36.36,0,0,1,100.56,434.31Zm-4.72-3.67a.37.37,0,0,1,.21.06l4.5,3.16.71-.79L96,429.31,90.42,433l.59.8,4.63-3.08A.39.39,0,0,1,95.84,430.64Z"/><circle class="cls-16" cx="267.78" cy="470.92" r="13.58"/><circle class="cls-24" cx="267.78" cy="470.92" r="13.09"/><path d="M272.87,475.59H261.65a.36.36,0,0,1-.36-.36v-1.7a.36.36,0,0,1,.36-.36h2.41v-1.86a.36.36,0,0,1,.36-.36H267v-1.78a.36.36,0,0,1,.36-.36h2.43V467a.36.36,0,0,1,.36-.36h2.75a.36.36,0,0,1,.36.36v8.25A.36.36,0,0,1,272.87,475.59Zm-11.15-.43H272.8v-8.11h-2.61v1.83a.36.36,0,0,1-.36.36H267.4V471a.36.36,0,0,1-.36.36h-2.55v1.86a.36.36,0,0,1-.36.36h-2.41Z"/><path d="M260.55,471.32a.2.2,0,0,1-.17-.09.22.22,0,0,1,0-.3l8.91-6.62a.31.31,0,0,1,.21-.07h2.29a.21.21,0,0,1,.22.21.22.22,0,0,1-.22.22h-2.27l-8.88,6.61A.2.2,0,0,1,260.55,471.32Z"/><path d="M262.6,473.6a.22.22,0,0,1-.22-.22V469.6a.22.22,0,0,1,.22-.22.21.21,0,0,1,.21.22v3.78A.21.21,0,0,1,262.6,473.6Z"/><path d="M271.63,467.05a.22.22,0,0,1-.22-.22v-2.38a.22.22,0,0,1,.44,0v2.38A.22.22,0,0,1,271.63,467.05Z"/><circle class="cls-16" cx="717.63" cy="188.94" r="13.58"/><circle class="cls-24" cx="717.63" cy="188.94" r="13.09"/><path d="M722.72,193.62H711.5a.36.36,0,0,1-.36-.36v-1.71a.36.36,0,0,1,.36-.36h2.41v-1.85a.36.36,0,0,1,.36-.36h2.55v-1.79a.36.36,0,0,1,.36-.36h2.43V185a.36.36,0,0,1,.36-.36h2.75a.36.36,0,0,1,.36.36v8.26A.36.36,0,0,1,722.72,193.62Zm-11.15-.43h11.08v-8.12H720v1.84a.36.36,0,0,1-.36.36h-2.43v1.78a.36.36,0,0,1-.36.36h-2.55v1.86a.36.36,0,0,1-.36.36h-2.41Z"/><path d="M710.4,189.35a.2.2,0,0,1-.17-.09.22.22,0,0,1,0-.3l8.91-6.63a.38.38,0,0,1,.21-.07h2.29a.22.22,0,1,1,0,.44h-2.27l-8.88,6.6A.21.21,0,0,1,710.4,189.35Z"/><path d="M712.45,191.63a.22.22,0,0,1-.22-.22v-3.79a.21.21,0,0,1,.22-.21.21.21,0,0,1,.21.21v3.79A.21.21,0,0,1,712.45,191.63Z"/><path d="M721.48,185.07a.21.21,0,0,1-.22-.21v-2.38a.22.22,0,0,1,.44,0v2.38A.21.21,0,0,1,721.48,185.07Z"/><circle class="cls-16" cx="746.92" cy="89.09" r="13.58"/><circle class="cls-24" cx="746.92" cy="89.09" r="13.09"/><path d="M752,93.77H740.79a.36.36,0,0,1-.36-.36V91.7a.36.36,0,0,1,.36-.36h2.41V89.49a.36.36,0,0,1,.36-.36h2.55V87.35a.36.36,0,0,1,.36-.36h2.43V85.15a.36.36,0,0,1,.36-.36H752a.36.36,0,0,1,.36.36v8.26A.36.36,0,0,1,752,93.77Zm-11.15-.43h11.08V85.23h-2.61v1.83a.36.36,0,0,1-.36.36h-2.43V89.2a.36.36,0,0,1-.36.36h-2.55v1.86a.36.36,0,0,1-.36.36h-2.41Z"/><path d="M739.69,89.5a.23.23,0,0,1-.18-.09.21.21,0,0,1,0-.3l8.9-6.62a.35.35,0,0,1,.22-.08H751a.22.22,0,1,1,0,.44H748.7l-8.88,6.6A.24.24,0,0,1,739.69,89.5Z"/><path d="M741.73,91.78a.22.22,0,0,1-.21-.22V87.77a.22.22,0,0,1,.43,0v3.79A.22.22,0,0,1,741.73,91.78Z"/><path d="M750.77,85.23a.22.22,0,0,1-.22-.22V82.63a.22.22,0,0,1,.22-.22.21.21,0,0,1,.21.22V85A.21.21,0,0,1,750.77,85.23Z"/><circle class="cls-16" cx="209.11" cy="339.82" r="13.58"/><circle class="cls-24" cx="209.11" cy="339.82" r="13.09"/><path d="M214.2,344.5H203a.36.36,0,0,1-.36-.36v-1.71a.36.36,0,0,1,.36-.36h2.4v-1.85a.36.36,0,0,1,.36-.36h2.56v-1.79a.36.36,0,0,1,.36-.36h2.43v-1.83a.36.36,0,0,1,.36-.36h2.75a.36.36,0,0,1,.36.36v8.26A.36.36,0,0,1,214.2,344.5Zm-11.15-.43h11.08V336h-2.61v1.84a.36.36,0,0,1-.36.36h-2.43v1.78a.36.36,0,0,1-.36.36h-2.55v1.86a.37.37,0,0,1-.36.36h-2.41Z"/><path d="M201.88,340.23a.23.23,0,0,1-.18-.09.21.21,0,0,1,.05-.3l8.9-6.63a.41.41,0,0,1,.22-.07h2.29a.22.22,0,0,1,0,.44h-2.27l-8.88,6.6A.24.24,0,0,1,201.88,340.23Z"/><path d="M203.92,342.51a.21.21,0,0,1-.21-.22V338.5a.21.21,0,0,1,.21-.21.21.21,0,0,1,.22.21v3.79A.22.22,0,0,1,203.92,342.51Z"/><path d="M213,336a.21.21,0,0,1-.22-.21v-2.38a.22.22,0,0,1,.22-.22.21.21,0,0,1,.21.22v2.38A.21.21,0,0,1,213,336Z"/><circle class="cls-2" cx="267.78" cy="434.91" r="13.09"/><circle class="cls-16" cx="267.78" cy="434.91" r="13.58"/><circle class="cls-24" cx="267.78" cy="434.91" r="13.09"/><path d="M273.51,438.49H261.39a.37.37,0,0,1-.36-.37V436.2a.35.35,0,0,1,.18-.31l12.12-6.9a.38.38,0,0,1,.36,0,.37.37,0,0,1,.18.31v8.82A.37.37,0,0,1,273.51,438.49Zm-12.05-.44h12v-8.62l-12,6.82Z"/><circle class="cls-2" cx="784.79" cy="59.39" r="13.09"/><circle class="cls-16" cx="784.79" cy="59.4" r="13.58"/><circle class="cls-24" cx="784.79" cy="59.4" r="13.09"/><path d="M790.52,63H778.39a.36.36,0,0,1-.36-.36V60.69a.37.37,0,0,1,.19-.32l12.12-6.9a.36.36,0,0,1,.36,0,.35.35,0,0,1,.18.31v8.82A.36.36,0,0,1,790.52,63Zm-12-.43h12V53.91l-12,6.82Z"/><path class="cls-16" d="M115.89,430.28h1.2v7.35h4.54v1h-5.74Z"/><path class="cls-16" d="M122.18,435.5a3.3,3.3,0,1,1,3.31,3.25A3.16,3.16,0,0,1,122.18,435.5Zm5.44,0a2.14,2.14,0,1,0-4.28,0,2.14,2.14,0,1,0,4.28,0Z"/><path class="cls-16" d="M129.8,435.5a3.17,3.17,0,0,1,3.35-3.24,2.84,2.84,0,0,1,2.59,1.35l-.87.57a2,2,0,0,0-1.73-.91,2.24,2.24,0,0,0,0,4.47,2,2,0,0,0,1.73-.91l.87.55a2.84,2.84,0,0,1-2.59,1.37A3.18,3.18,0,0,1,129.8,435.5Z"/><path class="cls-16" d="M142.27,434.84v3.83h-1.09v-.83a2.37,2.37,0,0,1-2.09.91c-1.44,0-2.35-.77-2.35-1.87s.66-1.86,2.56-1.86h1.82v-.23c0-1-.56-1.54-1.7-1.54a3.22,3.22,0,0,0-2,.69l-.48-.87a4.29,4.29,0,0,1,2.63-.81C141.29,432.26,142.27,433.1,142.27,434.84Zm-1.15,1.89v-.89h-1.77c-1.14,0-1.47.45-1.47,1s.53,1,1.41,1A1.85,1.85,0,0,0,141.12,436.73Z"/><path class="cls-16" d="M144.41,429.78h1.15v8.89h-1.15Z"/><path class="cls-16" d="M153.48,435.88h-5.16a2.16,2.16,0,0,0,2.31,1.86,2.36,2.36,0,0,0,1.83-.77l.64.75a3.47,3.47,0,0,1-5.93-2.22,3.11,3.11,0,0,1,3.19-3.24,3.06,3.06,0,0,1,3.14,3.27C153.5,435.63,153.49,435.77,153.48,435.88Zm-5.16-.83h4.08a2.05,2.05,0,0,0-4.08,0Z"/><path class="cls-16" d="M154.3,438l.48-.91a4,4,0,0,0,2.23.66c1.07,0,1.51-.32,1.51-.86,0-1.43-4-.19-4-2.72,0-1.14,1-1.91,2.65-1.91a4.63,4.63,0,0,1,2.32.57l-.49.92a3.29,3.29,0,0,0-1.84-.51c-1,0-1.5.37-1.5.88,0,1.5,4,.27,4,2.74,0,1.15-1,1.89-2.74,1.89A4.59,4.59,0,0,1,154.3,438Z"/><path class="cls-16" d="M170.12,438.67l-1.81-2.57-.53,0h-2.07v2.55h-1.2v-8.39h3.27c2.19,0,3.51,1.1,3.51,2.93a2.66,2.66,0,0,1-1.85,2.65l2,2.81Zm0-5.46c0-1.2-.81-1.89-2.34-1.89h-2v3.78h2C169.28,435.1,170.09,434.41,170.09,433.21Z"/><path class="cls-16" d="M172.55,434.48c0-2.74,1.46-4.3,3.43-4.3s3.42,1.56,3.42,4.3-1.46,4.29-3.42,4.29S172.55,437.21,172.55,434.48Zm5.65,0c0-2.15-.91-3.23-2.22-3.23s-2.23,1.08-2.23,3.23.91,3.22,2.23,3.22S178.2,436.62,178.2,434.48Z"/><path class="cls-16" d="M183.12,430.28v8.39h-1.19v-7.35H180v-1Z"/><path class="cls-16" d="M185.07,434.88h3.22v1h-3.22Z"/><path class="cls-16" d="M195.85,438.67,194,436.1l-.53,0h-2.07v2.55h-1.2v-8.39h3.27c2.19,0,3.5,1.1,3.5,2.93a2.65,2.65,0,0,1-1.84,2.65l2,2.81Zm0-5.46c0-1.2-.81-1.89-2.34-1.89h-2v3.78h2C195,435.1,195.82,434.41,195.82,433.21Z"/><path class="cls-16" d="M200.88,430.28v8.39h-1.19v-7.35H197.8v-1Z"/><path class="cls-16" d="M206.42,430.28v8.39h-1.19v-7.35h-1.9v-1Z"/><path d="M121.24,508.27h-4.47l-.92,2.09h-1.23l3.8-8.39h1.18l3.82,8.39h-1.26Zm-.42-1L119,503.19l-1.81,4.12Zm-1.62-6h-1.08l1.63-1.56h1.46Z"/><path d="M127.92,504v1.11h-.26a1.9,1.9,0,0,0-2,2.15v3.16H124.5V504h1.11v1.07A2.41,2.41,0,0,1,127.92,504Z"/><path d="M135,507.57h-5.16a2.16,2.16,0,0,0,2.31,1.86,2.36,2.36,0,0,0,1.83-.77l.64.75a3.47,3.47,0,0,1-5.93-2.22,3.11,3.11,0,0,1,3.19-3.24,3.06,3.06,0,0,1,3.14,3.27C135,507.32,135,507.46,135,507.57Zm-5.16-.83h4.08a2.05,2.05,0,0,0-4.08,0Z"/><path d="M141.48,506.53v3.83h-1.09v-.83a2.38,2.38,0,0,1-2.09.91c-1.44,0-2.35-.77-2.35-1.87s.66-1.86,2.56-1.86h1.82v-.23c0-1-.57-1.54-1.7-1.54a3.22,3.22,0,0,0-2,.69l-.48-.87a4.29,4.29,0,0,1,2.63-.81C140.5,504,141.48,504.79,141.48,506.53Zm-1.15,1.89v-.89h-1.78c-1.14,0-1.46.45-1.46,1s.53,1,1.4,1A1.85,1.85,0,0,0,140.33,508.42Z"/><path d="M152.84,501.47v8.89h-1.1v-1a2.69,2.69,0,0,1-2.27,1.08,3.25,3.25,0,0,1,0-6.49,2.69,2.69,0,0,1,2.22,1v-3.5Zm-1.14,5.72a2.14,2.14,0,1,0-4.28,0,2.14,2.14,0,1,0,4.28,0Z"/><path d="M160.75,507.57h-5.16a2.16,2.16,0,0,0,2.31,1.86,2.36,2.36,0,0,0,1.83-.77l.64.75a3.47,3.47,0,0,1-5.93-2.22,3.11,3.11,0,0,1,3.19-3.24,3.07,3.07,0,0,1,3.15,3.27C160.78,507.32,160.76,507.46,160.75,507.57Zm-5.16-.83h4.08a2.05,2.05,0,0,0-4.08,0Z"/><path d="M176.16,506.71v3.65H175v-3.52c0-1.25-.59-1.86-1.64-1.86s-1.9.73-1.9,2.11v3.27H170.3v-3.52c0-1.25-.6-1.86-1.64-1.86a1.85,1.85,0,0,0-1.91,2.11v3.27H165.6V504h1.11V505a2.56,2.56,0,0,1,2.19-1,2.36,2.36,0,0,1,2.21,1.17,2.85,2.85,0,0,1,2.44-1.17A2.44,2.44,0,0,1,176.16,506.71Z"/><path d="M184,507.57h-5.15a2.14,2.14,0,0,0,2.3,1.86,2.34,2.34,0,0,0,1.83-.77l.64.75a3.47,3.47,0,0,1-5.93-2.22,3.11,3.11,0,0,1,3.19-3.24,3.07,3.07,0,0,1,3.15,3.27C184.07,507.32,184.05,507.46,184,507.57Zm-5.15-.83H183a2,2,0,0,0-4.07,0Z"/><path d="M184.86,509.69l.48-.91a4.05,4.05,0,0,0,2.23.66c1.07,0,1.51-.32,1.51-.86,0-1.43-4-.19-4-2.72,0-1.14,1-1.91,2.65-1.91a4.62,4.62,0,0,1,2.31.57l-.49.92a3.27,3.27,0,0,0-1.84-.51c-1,0-1.49.37-1.49.88,0,1.5,4,.27,4,2.74,0,1.16-1.06,1.89-2.75,1.89A4.59,4.59,0,0,1,184.86,509.69Z"/><path d="M196.71,506.53v3.83h-1.09v-.83a2.36,2.36,0,0,1-2.08.91c-1.44,0-2.35-.77-2.35-1.87s.66-1.86,2.55-1.86h1.82v-.23c0-1-.56-1.54-1.7-1.54a3.19,3.19,0,0,0-2,.69l-.48-.87A4.26,4.26,0,0,1,194,504C195.73,504,196.71,504.79,196.71,506.53Zm-1.15,1.89v-.89h-1.77c-1.14,0-1.46.45-1.46,1s.52,1,1.4,1A1.84,1.84,0,0,0,195.56,508.42Z"/><path d="M198.05,509.69l.48-.91a4,4,0,0,0,2.23.66c1.07,0,1.51-.32,1.51-.86,0-1.43-4-.19-4-2.72,0-1.14,1-1.91,2.65-1.91a4.63,4.63,0,0,1,2.32.57l-.49.92a3.27,3.27,0,0,0-1.84-.51c-1,0-1.5.37-1.5.88,0,1.5,4,.27,4,2.74,0,1.16-1,1.89-2.74,1.89A4.59,4.59,0,0,1,198.05,509.69Z"/><path d="M297.27,543.9v1h-6.1v-8.39h5.93v1h-4.73v2.58h4.21v1h-4.21v2.71Z"/><path d="M298.16,544.27l.48-.91a4.11,4.11,0,0,0,2.23.66c1.07,0,1.51-.32,1.51-.86,0-1.43-4-.2-4-2.73,0-1.14,1-1.9,2.65-1.9a4.63,4.63,0,0,1,2.32.57l-.49.91a3.34,3.34,0,0,0-1.84-.5c-1,0-1.5.37-1.5.87,0,1.5,4,.28,4,2.75,0,1.15-1,1.88-2.74,1.88A4.59,4.59,0,0,1,298.16,544.27Z"/><path d="M308.55,544.57a2.18,2.18,0,0,1-1.39.44,1.81,1.81,0,0,1-2-2v-3.49h-1.08v-.94h1.08v-1.4h1.15v1.4h1.83v.94h-1.83V543a.93.93,0,0,0,1,1.06,1.45,1.45,0,0,0,.9-.3Z"/><path d="M315,541.1v3.84h-1.09v-.84a2.36,2.36,0,0,1-2.09.91c-1.44,0-2.35-.76-2.35-1.87s.66-1.86,2.55-1.86h1.83v-.22c0-1-.57-1.54-1.7-1.54a3.21,3.21,0,0,0-2,.68l-.48-.86a4.23,4.23,0,0,1,2.63-.81C314,538.53,315,539.37,315,541.1Zm-1.15,1.9v-.89h-1.78c-1.14,0-1.46.45-1.46,1s.53,1,1.4,1A1.85,1.85,0,0,0,313.83,543Z"/><path d="M316.57,541.76a3.17,3.17,0,0,1,3.35-3.23,2.82,2.82,0,0,1,2.59,1.35l-.87.56a2,2,0,0,0-1.73-.91,2.24,2.24,0,0,0,0,4.48,2,2,0,0,0,1.73-.91l.87.55a2.85,2.85,0,0,1-2.59,1.36A3.18,3.18,0,0,1,316.57,541.76Z"/><path d="M323.8,536.62a.76.76,0,0,1,.78-.76.75.75,0,1,1-.78.76Zm.21,2h1.15v6.35H324Z"/><path d="M326.77,541.76a3.31,3.31,0,1,1,3.31,3.25A3.16,3.16,0,0,1,326.77,541.76Zm5.44,0a2.14,2.14,0,1,0-4.28,0,2.14,2.14,0,1,0,4.28,0Z"/><path d="M341,541.28v3.66h-1.15v-3.52c0-1.25-.63-1.86-1.72-1.86a1.88,1.88,0,0,0-2,2.11v3.27H335v-6.35h1.11v1a2.72,2.72,0,0,1,2.29-1A2.46,2.46,0,0,1,341,541.28Z"/><path d="M348.18,541.1v3.84h-1.09v-.84A2.34,2.34,0,0,1,345,545c-1.43,0-2.35-.76-2.35-1.87s.66-1.86,2.56-1.86H347v-.22c0-1-.56-1.54-1.7-1.54a3.23,3.23,0,0,0-2,.68l-.47-.86a4.18,4.18,0,0,1,2.62-.81C347.2,538.53,348.18,539.37,348.18,541.1ZM347,543v-.89h-1.77c-1.14,0-1.47.45-1.47,1s.53,1,1.41,1A1.85,1.85,0,0,0,347,543Z"/><path d="M360.88,541.28v3.66h-1.16v-3.52c0-1.25-.59-1.86-1.64-1.86a1.85,1.85,0,0,0-1.91,2.11v3.27H355v-3.52c0-1.25-.6-1.86-1.64-1.86a1.85,1.85,0,0,0-1.91,2.11v3.27h-1.15v-6.35h1.1v.94a2.61,2.61,0,0,1,2.2-1,2.36,2.36,0,0,1,2.21,1.17,2.85,2.85,0,0,1,2.44-1.17A2.43,2.43,0,0,1,360.88,541.28Z"/><path d="M362.8,536.62a.76.76,0,0,1,.78-.76.75.75,0,1,1-.78.76Zm.21,2h1.15v6.35H363Z"/><path d="M372.08,542.15h-5.16a2.15,2.15,0,0,0,2.3,1.86,2.41,2.41,0,0,0,1.84-.77l.63.74a3.46,3.46,0,0,1-5.92-2.22,3.1,3.1,0,0,1,3.19-3.23,3.07,3.07,0,0,1,3.14,3.27C372.1,541.9,372.09,542,372.08,542.15Zm-5.16-.83H371a2.05,2.05,0,0,0-4.08,0Z"/><path d="M379.73,541.28v3.66h-1.15v-3.52c0-1.25-.62-1.86-1.72-1.86a1.88,1.88,0,0,0-2,2.11v3.27H373.7v-6.35h1.1v1a2.73,2.73,0,0,1,2.29-1A2.46,2.46,0,0,1,379.73,541.28Z"/><path d="M385.44,544.57a2.14,2.14,0,0,1-1.39.44,1.81,1.81,0,0,1-2-2v-3.49H381v-.94H382v-1.4h1.15v1.4H385v.94h-1.82V543a.93.93,0,0,0,1,1.06,1.45,1.45,0,0,0,.9-.3Z"/><path d="M386,541.76a3.31,3.31,0,1,1,3.31,3.25A3.16,3.16,0,0,1,386,541.76Zm5.45,0a2.14,2.14,0,1,0-2.14,2.25A2.09,2.09,0,0,0,391.48,541.76Z"/><path d="M297.27,509v1h-6.1v-8.39h5.93v1h-4.73v2.58h4.21v1h-4.21V509Z"/><path d="M299.05,501.11h1.15V510h-1.15Z"/><path d="M308.12,507.22H303a2.15,2.15,0,0,0,2.3,1.86,2.38,2.38,0,0,0,1.84-.77l.63.74a3.46,3.46,0,0,1-5.92-2.21A3.11,3.11,0,0,1,305,503.6a3.07,3.07,0,0,1,3.14,3.27C308.14,507,308.13,507.11,308.12,507.22Zm-5.16-.83H307a2.05,2.05,0,0,0-4.08,0Z"/><path d="M315.24,503.66,312.46,510h-1.18l-2.78-6.35h1.2l2.18,5.09,2.24-5.09Z"/><path d="M321.16,506.18V510h-1.09v-.84a2.36,2.36,0,0,1-2.09.92c-1.44,0-2.35-.77-2.35-1.88s.66-1.85,2.55-1.85H320v-.23c0-1-.57-1.54-1.7-1.54a3.22,3.22,0,0,0-2,.69l-.48-.87a4.29,4.29,0,0,1,2.63-.81C320.18,503.6,321.16,504.44,321.16,506.18ZM320,508.07v-.89h-1.78c-1.14,0-1.46.45-1.46,1s.53,1,1.4,1A1.85,1.85,0,0,0,320,508.07Z"/><path d="M329.33,501.11V510h-1.1v-1a2.69,2.69,0,0,1-2.27,1.08,3.25,3.25,0,0,1,0-6.49,2.69,2.69,0,0,1,2.22,1v-3.51Zm-1.14,5.73a2.14,2.14,0,1,0-2.13,2.24A2.09,2.09,0,0,0,328.19,506.84Z"/><path d="M330.93,506.84a3.31,3.31,0,1,1,3.31,3.25A3.16,3.16,0,0,1,330.93,506.84Zm5.45,0a2.15,2.15,0,1,0-2.14,2.24A2.1,2.1,0,0,0,336.38,506.84Z"/><path d="M342.56,503.6v1.11h-.27a1.9,1.9,0,0,0-2,2.15V510h-1.15v-6.35h1.1v1.06A2.44,2.44,0,0,1,342.56,503.6Z"/><path d="M297.27,473.72v1h-6.1v-8.4h5.93v1h-4.73V470h4.21v1h-4.21v2.71Z"/><path d="M298.16,474.1l.48-.92a4,4,0,0,0,2.23.66c1.07,0,1.51-.32,1.51-.86,0-1.43-4-.19-4-2.72,0-1.14,1-1.91,2.65-1.91a4.63,4.63,0,0,1,2.32.58l-.49.91a3.35,3.35,0,0,0-1.84-.51c-1,0-1.5.38-1.5.88,0,1.5,4,.27,4,2.75,0,1.15-1,1.88-2.74,1.88A4.67,4.67,0,0,1,298.16,474.1Z"/><path d="M304.39,471.59a3.17,3.17,0,0,1,3.36-3.24,2.85,2.85,0,0,1,2.59,1.36l-.88.56a2,2,0,0,0-1.73-.91,2.24,2.24,0,0,0,0,4.47,2,2,0,0,0,1.73-.91l.88.55a2.86,2.86,0,0,1-2.59,1.37A3.19,3.19,0,0,1,304.39,471.59Z"/><path d="M316.86,470.93v3.84h-1.09v-.84a2.37,2.37,0,0,1-2.09.91c-1.43,0-2.34-.77-2.34-1.87s.65-1.86,2.55-1.86h1.82v-.23c0-1-.56-1.53-1.7-1.53a3.23,3.23,0,0,0-2,.68l-.48-.86a4.23,4.23,0,0,1,2.63-.82C315.88,468.35,316.86,469.19,316.86,470.93Zm-1.15,1.89v-.88h-1.77c-1.14,0-1.47.44-1.47,1s.53,1,1.41,1A1.85,1.85,0,0,0,315.71,472.82Z"/><path d="M319,465.87h1.15v8.9H319Z"/><path d="M328.07,472h-5.16a2.16,2.16,0,0,0,2.31,1.86,2.36,2.36,0,0,0,1.83-.77l.64.75a3.47,3.47,0,0,1-5.93-2.22,3.12,3.12,0,0,1,3.19-3.24,3.06,3.06,0,0,1,3.14,3.27C328.09,471.72,328.08,471.86,328.07,472Zm-5.16-.83H327a2.05,2.05,0,0,0-4.08,0Z"/><path d="M333.11,468.35v1.12a1.18,1.18,0,0,0-.26,0,1.9,1.9,0,0,0-2,2.15v3.17h-1.15v-6.36h1.11v1.07A2.42,2.42,0,0,1,333.11,468.35Z"/><path d="M339.56,470.93v3.84h-1.1v-.84a2.36,2.36,0,0,1-2.08.91c-1.44,0-2.35-.77-2.35-1.87s.66-1.86,2.55-1.86h1.82v-.23c0-1-.56-1.53-1.7-1.53a3.2,3.2,0,0,0-2,.68l-.48-.86a4.2,4.2,0,0,1,2.62-.82C338.57,468.35,339.56,469.19,339.56,470.93Zm-1.16,1.89v-.88h-1.77c-1.14,0-1.46.44-1.46,1s.52,1,1.4,1A1.84,1.84,0,0,0,338.4,472.82Z"/><path d="M340.89,474.1l.48-.92a4,4,0,0,0,2.23.66c1.07,0,1.51-.32,1.51-.86,0-1.43-4-.19-4-2.72,0-1.14,1-1.91,2.66-1.91a4.62,4.62,0,0,1,2.31.58l-.49.91a3.35,3.35,0,0,0-1.84-.51c-1,0-1.5.38-1.5.88,0,1.5,4,.27,4,2.75,0,1.15-1.05,1.88-2.74,1.88A4.67,4.67,0,0,1,340.89,474.1Z"/><rect class="cls-3" x="78.61" y="526.53" width="162.13" height="31.34" rx="15.67"/><circle class="cls-16" cx="94.5" cy="541.86" r="13.58"/><circle class="cls-25" cx="94.5" cy="541.86" r="13.09"/><path d="M296.79,438.15,295,435.57l-.53,0h-2.08v2.56h-1.2v-8.4h3.28c2.18,0,3.5,1.1,3.5,2.93a2.65,2.65,0,0,1-1.85,2.65l2,2.82Zm0-5.47c0-1.2-.8-1.89-2.34-1.89h-2v3.78h2C296,434.57,296.75,433.88,296.75,432.68Z"/><path d="M304.71,434.31v3.84h-1.09v-.84a2.39,2.39,0,0,1-2.09.91c-1.44,0-2.35-.77-2.35-1.87s.66-1.86,2.55-1.86h1.83v-.23c0-1-.57-1.53-1.71-1.53a3.2,3.2,0,0,0-2,.68l-.48-.86a4.23,4.23,0,0,1,2.63-.82C303.72,431.73,304.71,432.57,304.71,434.31Zm-1.15,1.89v-.88h-1.78c-1.14,0-1.46.44-1.46,1s.52,1,1.4,1A1.85,1.85,0,0,0,303.56,436.2Z"/><path d="M317.4,434.49v3.66h-1.15v-3.53c0-1.25-.6-1.86-1.64-1.86a1.84,1.84,0,0,0-1.91,2.11v3.28h-1.15v-3.53c0-1.25-.6-1.86-1.65-1.86s-1.9.73-1.9,2.11v3.28h-1.15v-6.36H308v.95a2.57,2.57,0,0,1,2.19-1,2.34,2.34,0,0,1,2.21,1.18,2.87,2.87,0,0,1,2.45-1.18A2.44,2.44,0,0,1,317.4,434.49Z"/><path d="M326.11,435a3.09,3.09,0,0,1-3.21,3.25,2.73,2.73,0,0,1-2.22-1v3.28h-1.15v-8.68h1.1v1a2.71,2.71,0,0,1,2.27-1.07A3.08,3.08,0,0,1,326.11,435ZM325,435a2.14,2.14,0,1,0-2.15,2.24A2.1,2.1,0,0,0,325,435Z"/><path d="M332.69,434.31v3.84H331.6v-.84a2.37,2.37,0,0,1-2.09.91c-1.44,0-2.35-.77-2.35-1.87s.66-1.86,2.56-1.86h1.82v-.23c0-1-.56-1.53-1.7-1.53a3.21,3.21,0,0,0-2,.68l-.48-.86a4.23,4.23,0,0,1,2.63-.82C331.71,431.73,332.69,432.57,332.69,434.31Zm-1.15,1.89v-.88h-1.78c-1.13,0-1.46.44-1.46,1s.53,1,1.41,1A1.85,1.85,0,0,0,331.54,436.2Z"/><path d="M121.24,472.67h-4.47l-.92,2.1h-1.23l3.8-8.4h1.18l3.82,8.4h-1.26Zm-.42-1L119,467.59l-1.81,4.12Zm-1.62-6h-1.08l1.63-1.56h1.46Z"/><path d="M127.92,468.35v1.12a1.23,1.23,0,0,0-.26,0,1.9,1.9,0,0,0-2,2.15v3.17H124.5v-6.36h1.11v1.07A2.41,2.41,0,0,1,127.92,468.35Z"/><path d="M135,472h-5.16a2.16,2.16,0,0,0,2.31,1.86,2.36,2.36,0,0,0,1.83-.77l.64.75a3.47,3.47,0,0,1-5.93-2.22,3.12,3.12,0,0,1,3.19-3.24,3.06,3.06,0,0,1,3.14,3.27C135,471.72,135,471.86,135,472Zm-5.16-.83h4.08a2.05,2.05,0,0,0-4.08,0Z"/><path d="M141.48,470.93v3.84h-1.09v-.84a2.38,2.38,0,0,1-2.09.91c-1.44,0-2.35-.77-2.35-1.87s.66-1.86,2.56-1.86h1.82v-.23c0-1-.57-1.53-1.7-1.53a3.21,3.21,0,0,0-2,.68l-.48-.86a4.23,4.23,0,0,1,2.63-.82C140.5,468.35,141.48,469.19,141.48,470.93Zm-1.15,1.89v-.88h-1.78c-1.14,0-1.46.44-1.46,1s.53,1,1.4,1A1.85,1.85,0,0,0,140.33,472.82Z"/><path d="M152.84,465.87v8.9h-1.1v-1a2.69,2.69,0,0,1-2.27,1.08,3.25,3.25,0,0,1,0-6.49,2.72,2.72,0,0,1,2.22,1v-3.5Zm-1.14,5.72a2.14,2.14,0,1,0-4.28,0,2.14,2.14,0,1,0,4.28,0Z"/><path d="M160.75,472h-5.16a2.16,2.16,0,0,0,2.31,1.86,2.36,2.36,0,0,0,1.83-.77l.64.75a3.47,3.47,0,0,1-5.93-2.22,3.12,3.12,0,0,1,3.19-3.24,3.07,3.07,0,0,1,3.15,3.27C160.78,471.72,160.76,471.86,160.75,472Zm-5.16-.83h4.08a2.05,2.05,0,0,0-4.08,0Z"/><path d="M172.19,471.59a3.09,3.09,0,0,1-3.22,3.25,2.73,2.73,0,0,1-2.22-1v3.28H165.6v-8.68h1.11v1a2.69,2.69,0,0,1,2.26-1.07A3.09,3.09,0,0,1,172.19,471.59Zm-1.17,0a2.14,2.14,0,1,0-2.14,2.24A2.09,2.09,0,0,0,171,471.59Z"/><path d="M179.71,468.41v6.36h-1.09v-1a2.59,2.59,0,0,1-2.16,1,2.5,2.5,0,0,1-2.73-2.77v-3.66h1.15v3.53c0,1.24.62,1.87,1.71,1.87a1.88,1.88,0,0,0,2-2.11v-3.29Z"/><path d="M187.63,472h-5.16a2.16,2.16,0,0,0,2.31,1.86,2.36,2.36,0,0,0,1.83-.77l.64.75a3.47,3.47,0,0,1-5.93-2.22,3.12,3.12,0,0,1,3.19-3.24,3.07,3.07,0,0,1,3.15,3.27C187.66,471.72,187.64,471.86,187.63,472Zm-5.16-.83h4.08a2.05,2.05,0,0,0-4.08,0Z"/><path d="M188.45,474.1l.48-.92a4,4,0,0,0,2.23.66c1.07,0,1.51-.32,1.51-.86,0-1.43-4-.19-4-2.72,0-1.14,1-1.91,2.65-1.91a4.63,4.63,0,0,1,2.32.58l-.49.91a3.35,3.35,0,0,0-1.84-.51c-1,0-1.5.38-1.5.88,0,1.5,4,.27,4,2.75,0,1.15-1,1.88-2.74,1.88A4.67,4.67,0,0,1,188.45,474.1Z"/><path d="M198.84,474.39a2.19,2.19,0,0,1-1.39.45,1.82,1.82,0,0,1-2-2v-3.49h-1.08v-.95h1.08V467h1.16v1.39h1.82v.95h-1.82v3.44a.93.93,0,0,0,1,1.07,1.45,1.45,0,0,0,.9-.3Z"/><path d="M199.43,471.59a3.31,3.31,0,1,1,3.31,3.25A3.16,3.16,0,0,1,199.43,471.59Zm5.44,0a2.14,2.14,0,1,0-4.28,0,2.14,2.14,0,1,0,4.28,0Z"/><path d="M206.83,474.1l.48-.92a4.05,4.05,0,0,0,2.23.66c1.07,0,1.52-.32,1.52-.86,0-1.43-4-.19-4-2.72,0-1.14,1-1.91,2.65-1.91a4.59,4.59,0,0,1,2.31.58l-.49.91a3.32,3.32,0,0,0-1.83-.51c-1,0-1.5.38-1.5.88,0,1.5,4,.27,4,2.75,0,1.15-1.06,1.88-2.75,1.88A4.67,4.67,0,0,1,206.83,474.1Z"/><circle class="cls-16" cx="267.78" cy="506.32" r="13.58"/><circle class="cls-24" cx="267.78" cy="506.32" r="13.09"/><path d="M272.45,512.27h-9.33a.36.36,0,0,1-.36-.36V500.78a.36.36,0,0,1,.36-.36h9.33a.36.36,0,0,1,.36.36v11.13A.36.36,0,0,1,272.45,512.27Zm-9.26-.43h9.19v-11h-9.19Z"/><path d="M271.59,512.27H264a.36.36,0,0,1-.36-.36V501.58a.36.36,0,0,1,.36-.36h7.64a.36.36,0,0,1,.36.36v10.33A.36.36,0,0,1,271.59,512.27Zm-7.57-.43h7.5V501.65H264Z"/><path d="M268.54,506.07h-1.37a.33.33,0,0,1-.28-.17.31.31,0,0,1,0-.32l.68-1.18a.34.34,0,0,1,.28-.17.33.33,0,0,1,.28.17l.69,1.18a.36.36,0,0,1,0,.32A.34.34,0,0,1,268.54,506.07Zm-1.18-.44h1l-.5-.85Zm.4-1.13Z"/><path d="M267.85,508.46a.33.33,0,0,1-.28-.16l-.68-1.19a.31.31,0,0,1,0-.32.32.32,0,0,1,.28-.16h1.37a.33.33,0,0,1,.28.16.36.36,0,0,1,0,.32l-.69,1.19A.32.32,0,0,1,267.85,508.46Zm-.49-1.4.49.86.5-.86Z"/><circle class="cls-16" cx="267.78" cy="541.92" r="13.58"/><circle class="cls-24" cx="267.78" cy="541.92" r="13.09"/><path d="M273.23,547.56H262.75a.36.36,0,0,1-.36-.36V536a.36.36,0,0,1,.36-.36h10.48a.36.36,0,0,1,.36.36v11.2A.36.36,0,0,1,273.23,547.56Zm-10.41-.43h10.34V536.07H262.82Z"/><path d="M270.81,545.69H265a.4.4,0,0,1-.4-.4v-7.56a.4.4,0,0,1,.4-.4h5.67a.4.4,0,0,1,.4.4v1.12a.4.4,0,0,1-.4.4h-3.85v1.29h3.43a.4.4,0,0,1,.4.4v1.11a.4.4,0,0,1-.4.4h-3.43v1.33h4a.4.4,0,0,1,.4.4v1.11A.4.4,0,0,1,270.81,545.69Zm-5.76-.43h5.73v-1h-4a.4.4,0,0,1-.4-.4v-1.39a.4.4,0,0,1,.4-.4h3.43v-1h-3.43a.4.4,0,0,1-.4-.4v-1.35a.4.4,0,0,1,.4-.41h3.85v-1h-5.61Zm5.22-4.29Z"/><g class="cls-26"><circle class="cls-20" cx="296.27" cy="389.94" r="13.09"/><path class="cls-12" d="M301.34,395.8H290.86a.36.36,0,0,1-.36-.36V384.23a.36.36,0,0,1,.36-.36h10.48a.36.36,0,0,1,.36.36v11.21A.36.36,0,0,1,301.34,395.8Zm-10.41-.44h10.33V384.3H290.93Z"/><path class="cls-12" d="M298.92,393.93h-5.8a.4.4,0,0,1-.4-.4V386a.4.4,0,0,1,.4-.4h5.67a.4.4,0,0,1,.4.4v1.12a.4.4,0,0,1-.4.4H295v1.29h3.42a.4.4,0,0,1,.4.4v1.11a.4.4,0,0,1-.4.41H295V392h4a.4.4,0,0,1,.4.4v1.12A.4.4,0,0,1,298.92,393.93Zm-5.76-.44h5.73v-1.05h-4a.4.4,0,0,1-.4-.4v-1.39a.4.4,0,0,1,.4-.4h3.43V389.2h-3.43a.4.4,0,0,1-.4-.4v-1.35a.4.4,0,0,1,.4-.4h3.85V386h-5.6Zm5.21-4.29h0Z"/></g><g class="cls-26"><circle class="cls-20" cx="717.53" cy="513.77" r="13.09"/><path class="cls-12" d="M722.6,519.63H712.12a.36.36,0,0,1-.36-.36V508.06a.36.36,0,0,1,.36-.36H722.6a.37.37,0,0,1,.36.36v11.21A.36.36,0,0,1,722.6,519.63Zm-10.41-.43h10.33V508.14H712.19Z"/><path class="cls-12" d="M720.18,517.76h-5.8a.4.4,0,0,1-.4-.4V509.8a.4.4,0,0,1,.4-.4h5.67a.4.4,0,0,1,.4.4v1.11a.4.4,0,0,1-.4.4H716.2v1.29h3.43a.4.4,0,0,1,.4.4v1.12a.4.4,0,0,1-.4.4H716.2v1.32h4a.4.4,0,0,1,.4.41v1.11A.4.4,0,0,1,720.18,517.76Zm-5.77-.43h5.74v-1.05h-4a.4.4,0,0,1-.4-.4v-1.39a.4.4,0,0,1,.4-.4h3.43V513h-3.43a.4.4,0,0,1-.4-.4v-1.36a.4.4,0,0,1,.4-.4H720v-1.05h-5.61Zm5.22-4.29Z"/></g><circle class="cls-27" cx="95.82" cy="471.62" r="13.09"/><path d="M99,467.33H92.64a.36.36,0,0,1-.36-.36v-.53a.36.36,0,0,1,.36-.36H99a.36.36,0,0,1,.36.36V467A.36.36,0,0,1,99,467.33Zm-6.29-.43h6.22v-.38H92.71Z"/><path d="M99.66,470H92a.37.37,0,0,1-.3-.16.39.39,0,0,1,0-.33l.9-2.39a.37.37,0,0,1,.34-.23h5.88a.36.36,0,0,1,.34.23l.9,2.39a.39.39,0,0,1,0,.33A.37.37,0,0,1,99.66,470Zm-7.58-.43h7.48l-.85-2.25H92.93Zm6.68-2.25Z"/><path d="M99.29,477.16h-7a.36.36,0,0,1-.36-.36v-3a.36.36,0,0,1,.36-.36h7a.36.36,0,0,1,.36.36v3A.36.36,0,0,1,99.29,477.16Zm-6.93-.43h6.86v-2.9H92.36Z"/><path d="M99,473.83a.21.21,0,0,1-.22-.21v-3.83a.21.21,0,0,1,.22-.21.21.21,0,0,1,.21.21v3.83A.21.21,0,0,1,99,473.83Z"/><path d="M92.8,473.83a.21.21,0,0,1-.21-.21v-3.83a.21.21,0,0,1,.21-.21.21.21,0,0,1,.22.21v3.83A.21.21,0,0,1,92.8,473.83Z"/><path d="M93.23,470h0a.21.21,0,0,1-.15-.27l.73-2.67a.21.21,0,0,1,.27-.15.22.22,0,0,1,.15.26l-.74,2.68A.22.22,0,0,1,93.23,470Z"/><path d="M95.24,470h0a.23.23,0,0,1-.21-.23l.13-2.68a.22.22,0,1,1,.43,0l-.13,2.67A.21.21,0,0,1,95.24,470Z"/><path d="M97,470a.21.21,0,0,1-.21-.19l-.4-2.67a.23.23,0,0,1,.19-.25.22.22,0,0,1,.24.18l.39,2.68A.22.22,0,0,1,97,470Z"/><path d="M98.6,470a.22.22,0,0,1-.21-.16l-.75-2.68a.21.21,0,1,1,.41-.11l.76,2.67a.21.21,0,0,1-.15.27Z"/><circle class="cls-27" cx="752.53" cy="148" r="13.09"/><path d="M755.72,143.71h-6.37a.36.36,0,0,1-.36-.36v-.53a.36.36,0,0,1,.36-.36h6.37a.36.36,0,0,1,.36.36v.53A.36.36,0,0,1,755.72,143.71Zm-6.3-.43h6.22v-.38h-6.22Z"/><path d="M756.37,146.39h-7.68a.34.34,0,0,1-.29-.16.36.36,0,0,1,0-.33l.91-2.39a.35.35,0,0,1,.33-.23h5.88a.36.36,0,0,1,.34.23l.9,2.39a.35.35,0,0,1,0,.33A.37.37,0,0,1,756.37,146.39ZM748.8,146h7.47l-.85-2.24h-5.78Zm6.67-2.24Z"/><path d="M756,153.54h-7a.36.36,0,0,1-.36-.36v-3a.36.36,0,0,1,.36-.36h7a.36.36,0,0,1,.36.36v3A.36.36,0,0,1,756,153.54Zm-6.93-.43h6.86v-2.9h-6.86Z"/><path d="M755.73,150.21a.21.21,0,0,1-.22-.21v-3.83a.22.22,0,0,1,.22-.22.21.21,0,0,1,.21.22V150A.21.21,0,0,1,755.73,150.21Z"/><path d="M749.51,150.21a.21.21,0,0,1-.21-.21v-3.83a.21.21,0,0,1,.21-.22.22.22,0,0,1,.22.22V150A.21.21,0,0,1,749.51,150.21Z"/><path d="M750,146.39h-.06a.21.21,0,0,1-.15-.27l.73-2.67a.21.21,0,0,1,.27-.15.22.22,0,0,1,.15.26l-.74,2.68A.21.21,0,0,1,750,146.39Z"/><path d="M752,146.39h0a.23.23,0,0,1-.21-.23l.13-2.68a.22.22,0,0,1,.44,0l-.14,2.67A.21.21,0,0,1,752,146.39Z"/><path d="M753.69,146.39a.21.21,0,0,1-.21-.19l-.39-2.67a.22.22,0,0,1,.18-.25.21.21,0,0,1,.24.18l.39,2.68a.2.2,0,0,1-.18.24Z"/><path d="M755.31,146.39a.2.2,0,0,1-.2-.16l-.76-2.68a.21.21,0,0,1,.15-.26.2.2,0,0,1,.26.15l.76,2.67a.21.21,0,0,1-.15.27Z"/><circle class="cls-2" cx="96" cy="506.99" r="13.09"/><circle class="cls-16" cx="96" cy="507" r="13.58"/><circle class="cls-28" cx="96" cy="507" r="13.09"/><path d="M96,512.58a.21.21,0,0,1-.21-.21V505a.21.21,0,0,1,.21-.22.22.22,0,0,1,.22.22v7.35A.21.21,0,0,1,96,512.58Z"/><path d="M99.66,505.24H92.47a.22.22,0,0,1,0-.44h7.19a.22.22,0,0,1,0,.44Z"/><path d="M94.16,512.58a.21.21,0,0,1-.21-.21v-5.06H90.06a.21.21,0,0,1-.21-.21.22.22,0,0,1,.21-.22h4a.36.36,0,0,1,.36.36v5.13A.21.21,0,0,1,94.16,512.58Z"/><path d="M97.83,512.58a.21.21,0,0,1-.21-.21v-5.13a.36.36,0,0,1,.36-.36h4a.21.21,0,0,1,.21.22.21.21,0,0,1-.21.21H98.05v5.06A.21.21,0,0,1,97.83,512.58Z"/><path d="M90.06,512.58a.21.21,0,0,1-.21-.21v-7.75a7.79,7.79,0,0,0-.55-2.87.22.22,0,0,1,.41-.16,8.27,8.27,0,0,1,.57,3v7.75A.21.21,0,0,1,90.06,512.58Z"/><path d="M102,512.58a.21.21,0,0,1-.21-.21v-7.75a8.27,8.27,0,0,1,.57-3,.21.21,0,0,1,.28-.12.21.21,0,0,1,.12.28,7.78,7.78,0,0,0-.54,2.87v7.75A.21.21,0,0,1,102,512.58Z"/><path d="M94,508.78h-4a.21.21,0,0,1-.21-.21.22.22,0,0,1,.21-.22h4a.22.22,0,0,1,.22.22A.21.21,0,0,1,94,508.78Z"/><path d="M102,508.78H97.91a.21.21,0,0,1-.22-.21.22.22,0,0,1,.22-.22H102a.22.22,0,0,1,.22.22A.21.21,0,0,1,102,508.78Z"/><circle class="cls-2" cx="385.98" cy="186.36" r="13.09"/><circle class="cls-16" cx="385.98" cy="186.37" r="13.58"/><circle class="cls-28" cx="385.98" cy="186.37" r="13.09"/><path d="M386,192a.21.21,0,0,1-.22-.21v-7.35a.21.21,0,0,1,.22-.21.21.21,0,0,1,.21.21v7.35A.21.21,0,0,1,386,192Z"/><path d="M389.64,184.61h-7.19a.22.22,0,0,1-.22-.22.21.21,0,0,1,.22-.21h7.19a.21.21,0,0,1,.22.21A.22.22,0,0,1,389.64,184.61Z"/><path d="M384.15,192a.21.21,0,0,1-.22-.21v-5.06h-3.88a.21.21,0,0,1-.22-.21.22.22,0,0,1,.22-.22H384a.36.36,0,0,1,.36.36v5.13A.21.21,0,0,1,384.15,192Z"/><path d="M387.82,192a.21.21,0,0,1-.22-.21v-5.13a.36.36,0,0,1,.36-.36h4a.22.22,0,0,1,.22.22.21.21,0,0,1-.22.21H388v5.06A.21.21,0,0,1,387.82,192Z"/><path d="M380.05,192a.21.21,0,0,1-.22-.21V184a7.82,7.82,0,0,0-.54-2.87.22.22,0,1,1,.4-.16,8.28,8.28,0,0,1,.58,3v7.75A.21.21,0,0,1,380.05,192Z"/><path d="M392,192a.21.21,0,0,1-.22-.21V184a8.08,8.08,0,0,1,.58-3,.21.21,0,0,1,.28-.12.22.22,0,0,1,.12.28,7.83,7.83,0,0,0-.55,2.87v7.75A.21.21,0,0,1,392,192Z"/><path d="M384,188.16h-4a.22.22,0,0,1,0-.44h4a.22.22,0,1,1,0,.44Z"/><path d="M392,188.16h-4.12a.22.22,0,0,1,0-.44H392a.22.22,0,0,1,0,.44Z"/><circle class="cls-2" cx="594.82" cy="186.36" r="13.09"/><circle class="cls-16" cx="594.82" cy="186.37" r="13.58"/><circle class="cls-28" cx="594.82" cy="186.37" r="13.09"/><path d="M594.8,192a.21.21,0,0,1-.21-.21v-7.35a.21.21,0,0,1,.21-.21.21.21,0,0,1,.22.21v7.35A.21.21,0,0,1,594.8,192Z"/><path d="M598.48,184.61h-7.19a.22.22,0,0,1-.22-.22.21.21,0,0,1,.22-.21h7.19a.21.21,0,0,1,.22.21A.22.22,0,0,1,598.48,184.61Z"/><path d="M593,192a.21.21,0,0,1-.21-.21v-5.06h-3.88a.21.21,0,0,1-.22-.21.22.22,0,0,1,.22-.22h4a.36.36,0,0,1,.36.36v5.13A.21.21,0,0,1,593,192Z"/><path d="M596.65,192a.21.21,0,0,1-.21-.21v-5.13a.36.36,0,0,1,.36-.36h4a.22.22,0,0,1,.22.22.21.21,0,0,1-.22.21h-3.88v5.06A.21.21,0,0,1,596.65,192Z"/><path d="M588.89,192a.21.21,0,0,1-.22-.21V184a7.82,7.82,0,0,0-.54-2.87.21.21,0,0,1,.12-.28.21.21,0,0,1,.28.12,8.27,8.27,0,0,1,.57,3v7.75A.21.21,0,0,1,588.89,192Z"/><path d="M600.84,192a.21.21,0,0,1-.21-.21V184a8.27,8.27,0,0,1,.57-3,.21.21,0,0,1,.28-.12.21.21,0,0,1,.12.28,7.82,7.82,0,0,0-.54,2.87v7.75A.21.21,0,0,1,600.84,192Z"/><path d="M592.85,188.16h-4a.22.22,0,0,1,0-.44h4a.22.22,0,0,1,0,.44Z"/><path d="M600.84,188.16h-4.11a.22.22,0,0,1,0-.44h4.11a.22.22,0,0,1,0,.44Z"/><polygon class="cls-17" points="823.65 484.81 823.65 363.29 709.62 363.29 709.62 484.77 823.65 484.81"/><polygon class="cls-17" points="709.62 363.68 709.62 484.79 645.5 484.79 645.5 484.81 563.34 484.81 563.34 418.25 645.5 418.25 645.5 363.68 709.62 363.68"/><path class="cls-16" d="M821.15,365.68V482.54L712,482.5V365.68H821.15m1-1H711V483.5l111.11,0V364.68Z"/><circle class="cls-19" cx="169.79" cy="339.82" r="13.09"/><path d="M174.46,345.75h-9.33a.37.37,0,0,1-.37-.36V334.26a.37.37,0,0,1,.37-.36h9.33a.36.36,0,0,1,.36.36v11.13A.36.36,0,0,1,174.46,345.75Zm-9.26-.44h9.18v-11H165.2Z"/><path d="M173.6,345.75H166a.36.36,0,0,1-.36-.36V335.06a.36.36,0,0,1,.36-.36h7.64a.36.36,0,0,1,.36.36v10.33A.36.36,0,0,1,173.6,345.75Zm-7.57-.44h7.49V335.13H166Z"/><path d="M170.54,339.54h-1.37a.33.33,0,0,1-.28-.16.36.36,0,0,1,0-.32l.69-1.19a.32.32,0,0,1,.28-.16.33.33,0,0,1,.28.16l.68,1.19a.32.32,0,0,1-.28.48Zm-1.18-.43h1l-.49-.86Zm.41-1.13Z"/><path d="M169.86,341.94a.32.32,0,0,1-.28-.16l-.69-1.19a.33.33,0,0,1,0-.32.3.3,0,0,1,.27-.16h1.37a.32.32,0,0,1,.28.48l-.68,1.19A.33.33,0,0,1,169.86,341.94Zm-.5-1.4.5.86.49-.86Z"/><g class="cls-29"><path class="cls-3" d="M394.59,63.1l-1.3,3.06H390.9l6-13.58h2.35l5.93,13.58h-2.44l-1.3-3.06ZM398,55l-2.56,6h5.13Z"/></g><g class="cls-29"><path class="cls-3" d="M442,52.58c2.81,0,4.56,1.28,4.56,3.39a3,3,0,0,1-2.39,3,3.3,3.3,0,0,1,2.91,3.44c0,2.33-1.88,3.72-5,3.72h-6V52.58Zm-3.61,5.63h3.49c1.45,0,2.33-.68,2.33-1.83s-.88-1.76-2.33-1.76h-3.49Zm0,5.92h3.49c1.78,0,2.85-.7,2.85-2s-1.07-1.93-2.85-1.93h-3.49Z"/></g><g class="cls-29"><path class="cls-3" d="M460.73,63.1l-1.3,3.06h-2.38l6-13.58h2.35l5.94,13.58h-2.44l-1.3-3.06ZM464.15,55l-2.56,6h5.12Z"/></g><g class="cls-29"><path class="cls-3" d="M508.16,52.58c2.82,0,4.56,1.28,4.56,3.39a3,3,0,0,1-2.38,3,3.3,3.3,0,0,1,2.91,3.44c0,2.33-1.88,3.72-4.95,3.72h-6V52.58Zm-3.61,5.63h3.5c1.45,0,2.33-.68,2.33-1.83s-.88-1.76-2.33-1.76h-3.5Zm0,5.92h3.5c1.78,0,2.85-.7,2.85-2s-1.07-1.93-2.85-1.93h-3.5Z"/></g><g class="cls-29"><path class="cls-3" d="M528.65,63.1l-1.3,3.06H525l6-13.58h2.35l5.94,13.58H536.8l-1.3-3.06ZM532.07,55l-2.57,6h5.13Z"/></g><g class="cls-29"><path class="cls-3" d="M576.08,52.58c2.81,0,4.56,1.28,4.56,3.39a3,3,0,0,1-2.39,3,3.29,3.29,0,0,1,2.91,3.44c0,2.33-1.88,3.72-4.95,3.72h-6V52.58Zm-3.61,5.63H576c1.46,0,2.33-.68,2.33-1.83s-.87-1.76-2.33-1.76h-3.49Zm0,5.92H576c1.79,0,2.85-.7,2.85-2s-1.06-1.93-2.85-1.93h-3.49Z"/></g><circle class="cls-16" cx="418.13" cy="40.8" r="13.09"/><path d="M410.76,41.84h-2.38v2.53H407V36h3.4c2.15,0,3.39,1,3.39,2.86A2.71,2.71,0,0,1,412,41.58l1.88,2.8h-1.61Zm-.39-1.26c1.3,0,2-.55,2-1.69s-.74-1.63-2-1.63h-2v3.32Z"/><path d="M422,40.19c0,2.72-1.27,4.23-3.56,4.23s-3.57-1.51-3.57-4.23S416.15,36,418.45,36,422,37.46,422,40.19Zm-5.68,0c0,2.12.7,3.11,2.12,3.11s2.11-1,2.11-3.11-.71-3.12-2.11-3.12S416.33,38.05,416.33,40.19Z"/><path d="M425,37.26v1.81h1.15c1.83,0,3,1.08,3,2.55a2.79,2.79,0,0,1-3.1,2.82,5.55,5.55,0,0,1-3-1l.56-1.15a3.64,3.64,0,0,0,2.27.89c1.09,0,1.75-.57,1.75-1.51s-.66-1.38-1.74-1.38c-.5,0-1.64,0-2.2.11V36h5.1l0,1.27Z"/><circle class="cls-16" cx="485.32" cy="40.8" r="13.09"/><path d="M478.12,41.84h-2.38v2.53h-1.41V36h3.4c2.15,0,3.38,1,3.38,2.86a2.69,2.69,0,0,1-1.74,2.73l1.89,2.8h-1.61Zm-.39-1.26c1.3,0,2-.55,2-1.69s-.74-1.63-2-1.63h-2v3.32Z"/><path d="M489.37,40.19c0,2.72-1.27,4.23-3.56,4.23s-3.58-1.51-3.58-4.23S483.51,36,485.81,36,489.37,37.46,489.37,40.19Zm-5.68,0c0,2.12.7,3.11,2.12,3.11s2.11-1,2.11-3.11-.71-3.12-2.11-3.12S483.69,38.05,483.69,40.19Z"/><path d="M494.08,41.06v-2h1.32v2h1.22v1.26H495.4v2.06h-1.32V42.32h-4v-1L492.94,36h1.36l-2.72,5.07Z"/><circle class="cls-16" cx="551.84" cy="40.8" r="13.09"/><path d="M545,41.84h-2.38v2.53h-1.41V36h3.4c2.15,0,3.38,1,3.38,2.86a2.7,2.7,0,0,1-1.73,2.73l1.88,2.8h-1.61Zm-.39-1.26c1.3,0,2-.55,2-1.69s-.74-1.63-2-1.63h-2v3.32Z"/><path d="M556.25,40.19c0,2.72-1.27,4.23-3.56,4.23s-3.58-1.51-3.58-4.23S550.39,36,552.69,36,556.25,37.46,556.25,40.19Zm-5.68,0c0,2.12.7,3.11,2.12,3.11s2.11-1,2.11-3.11-.71-3.12-2.11-3.12S550.57,38.05,550.57,40.19Z"/><path d="M560.16,39.53a2.28,2.28,0,0,1,2.37,2.25c0,1.57-1.19,2.66-3.06,2.66a4.87,4.87,0,0,1-2.83-.91l.59-1.15a3.19,3.19,0,0,0,2.14.88c1.12,0,1.77-.58,1.77-1.44s-.66-1.38-1.78-1.38H558.2v-.83l2.18-2.35H557V36h5.11v.89l-2.4,2.59Z"/><g class="cls-30"><circle class="cls-16" cx="616.88" cy="40.8" r="13.09"/></g><path d="M600.9,38.5a2.69,2.69,0,0,1-1.73.7,2.43,2.43,0,0,1-2-1.35,3.22,3.22,0,1,1,3.38-3.23,3.18,3.18,0,0,1-2.29,3.07,1.54,1.54,0,0,0,1.07.59,2.1,2.1,0,0,0,1.17-.53Zm-3.74-1.61a2.26,2.26,0,1,0-2.29-2.27A2.26,2.26,0,0,0,597.16,36.89Z"/><path d="M607.22,35.17a2.77,2.77,0,0,1-5.54,0V31.44h1.07v3.73a1.59,1.59,0,0,0,1.71,1.72,1.57,1.57,0,0,0,1.69-1.72V31.44h1.07Z"/><path d="M609.83,32.4v1.72h3.11v1h-3.11v1.76h3.59v1h-4.66V31.44h4.55v1Z"/><path d="M619.05,32.05l-.45.94a3.88,3.88,0,0,0-1.86-.59c-.63,0-1,.24-1,.67,0,1.39,3.44.64,3.43,2.93,0,1.14-1,1.84-2.4,1.84a3.91,3.91,0,0,1-2.6-1l.46-.93a3.39,3.39,0,0,0,2.16.93c.74,0,1.19-.28,1.19-.77,0-1.42-3.44-.63-3.44-2.89,0-1.1.94-1.78,2.32-1.78A4.16,4.16,0,0,1,619.05,32.05Z"/><path d="M626.61,34.62a3.38,3.38,0,1,1-3.37-3.21A3.26,3.26,0,0,1,626.61,34.62Zm-5.66,0a2.29,2.29,0,0,0,2.3,2.27,2.26,2.26,0,1,0-2.3-2.27Z"/><path d="M632.08,32.05l-.45.94a3.88,3.88,0,0,0-1.86-.59c-.63,0-1,.24-1,.67,0,1.39,3.44.64,3.43,2.93,0,1.14-1,1.84-2.4,1.84a3.91,3.91,0,0,1-2.6-1l.46-.93a3.39,3.39,0,0,0,2.16.93c.74,0,1.19-.28,1.19-.77,0-1.42-3.44-.63-3.44-2.89,0-1.1.94-1.78,2.32-1.78A4.16,4.16,0,0,1,632.08,32.05Z"/><path d="M638.38,37.8h-1.07V35.72l-2.37-4.28H636l1.82,3.1,1.78-3.1h1.09l-2.33,4.24Z"/><path d="M591.2,43.32V45h3.11v1H591.2v1.76h3.59v1h-4.66V42.36h4.55v1Z"/><path d="M601.84,48.72V44l-2,4.09h-.7l-2-4.09v4.75h-1V42.36h1.27l2.1,4.23,2.1-4.23h1.26v6.36Z"/><path d="M607.28,42.36c1.32,0,2.14.6,2.14,1.59a1.4,1.4,0,0,1-1.12,1.42A1.54,1.54,0,0,1,609.66,47c0,1.09-.88,1.74-2.32,1.74h-2.82V42.36ZM605.59,45h1.64c.68,0,1.09-.31,1.09-.85s-.41-.83-1.09-.83h-1.64Zm0,2.78h1.64c.83,0,1.33-.33,1.33-.93s-.5-.9-1.33-.9h-1.64Z"/><path d="M616.35,46.09a2.77,2.77,0,0,1-5.54,0V42.36h1.08v3.73a1.58,1.58,0,0,0,1.71,1.71,1.56,1.56,0,0,0,1.68-1.71V42.36h1.07Z"/><path d="M620.22,43.32v5.4h-1.07v-5.4h-2v-1h5.1v1Z"/><path d="M623.16,48.72V42.36h1.07v6.36Z"/><path d="M628.52,42.36a3.18,3.18,0,1,1,0,6.36h-2.58V42.36ZM627,47.76h1.56a2.14,2.14,0,0,0,2.19-2.21,2.18,2.18,0,0,0-2.23-2.23H627Z"/><path d="M638.92,45.54a3.37,3.37,0,1,1-3.37-3.21A3.26,3.26,0,0,1,638.92,45.54Zm-5.65,0a2.28,2.28,0,0,0,2.29,2.26,2.26,2.26,0,1,0-2.29-2.26Z"/><path d="M644.39,43l-.44.94a3.77,3.77,0,0,0-1.86-.59c-.63,0-1,.24-1,.66,0,1.4,3.44.65,3.43,2.94,0,1.14-1,1.84-2.4,1.84a4,4,0,0,1-2.61-1l.47-.93a3.34,3.34,0,0,0,2.15.93c.75,0,1.2-.28,1.2-.77,0-1.42-3.44-.63-3.44-2.9,0-1.09.93-1.77,2.32-1.77A4.06,4.06,0,0,1,644.39,43Z"/><path d="M599.54,56.51v2.35a4.31,4.31,0,0,1-2.47.83,3.22,3.22,0,1,1,.06-6.44,3.81,3.81,0,0,1,2.45.89l-.61.79a2.81,2.81,0,0,0-1.84-.73,2.26,2.26,0,1,0,0,4.52,3,3,0,0,0,1.46-.43V56.51Z"/><path d="M607.28,56.46a3.37,3.37,0,1,1-3.37-3.21A3.26,3.26,0,0,1,607.28,56.46Zm-5.65,0a2.28,2.28,0,0,0,2.29,2.26,2.26,2.26,0,1,0-2.29-2.26Z"/><path d="M613.84,57a2.77,2.77,0,0,1-5.53,0V53.28h1.07V57a1.58,1.58,0,0,0,1.71,1.72A1.56,1.56,0,0,0,612.77,57V53.28h1.07Z"/><path d="M618.26,57.71h-1.8v1.92h-1.08V53.28H618c1.63,0,2.56.79,2.56,2.17a2,2,0,0,1-1.32,2.06l1.43,2.13h-1.22Zm-.29-1c1,0,1.54-.42,1.54-1.28S619,54.24,618,54.24h-1.51v2.52Z"/><path d="M627.7,59.64V54.89l-2,4.09H625l-2-4.09v4.75h-1V53.28h1.28l2.1,4.22,2.09-4.22h1.26v6.36Z"/><path d="M631.45,54.24V56h3.11v1h-3.11v1.76H635v1h-4.66V53.28h4.55v1Z"/><path d="M638.68,54.24v5.4H637.6v-5.4h-2v-1h5.11v1Z"/><path d="M688,38.83v1H684.2V33.44h1.08v5.39Z"/><path d="M690,38.37l-.61,1.43h-1.12l2.81-6.36h1.1L695,39.8h-1.14l-.61-1.43Zm1.6-3.79-1.2,2.83h2.4Z"/><path d="M700.72,33.44c1.6,0,2.52.79,2.52,2.17s-.92,2.28-2.52,2.28h-1.47V39.8h-1.07V33.44Zm-1.47,3.48h1.42c1,0,1.54-.42,1.54-1.28s-.56-1.24-1.54-1.24h-1.42Z"/><path d="M705.38,34.4v1.72h3.11v1h-3.11v1.76H709v1H704.3V33.44h4.55v1Z"/><path d="M716.87,40.5a2.71,2.71,0,0,1-1.73.7,2.43,2.43,0,0,1-2-1.35,3.22,3.22,0,1,1,3.38-3.23,3.18,3.18,0,0,1-2.29,3.07,1.54,1.54,0,0,0,1.06.59,2.1,2.1,0,0,0,1.18-.53Zm-3.74-1.61a2.26,2.26,0,1,0-2.29-2.27A2.26,2.26,0,0,0,713.13,38.89Z"/><path d="M723.19,37.17a2.77,2.77,0,0,1-5.54,0V33.44h1.07v3.73a1.59,1.59,0,0,0,1.71,1.72,1.57,1.57,0,0,0,1.69-1.72V33.44h1.07Z"/><path d="M725.8,34.4v1.72h3.11v1H725.8v1.76h3.59v1h-4.66V33.44h4.55v1Z"/><path d="M735.16,39.8l-3.39-4.56V39.8H730.7V33.44h1L735.16,38V33.44h1.06V39.8Zm-1.24-7.92c.22,0,.34-.15.34-.44h.67c0,.79-.28,1.19-.83,1.19s-.77-.5-1.09-.5-.34.15-.34.44H732c0-.79.29-1.19.84-1.19S733.61,31.88,733.92,31.88Z"/><path d="M738.8,38.37l-.6,1.43h-1.12l2.81-6.36H741l2.78,6.36h-1.14L742,38.37Zm1.61-3.79-1.2,2.83h2.4Z"/><path d="M698.37,50.72V48.09H695v2.63h-1.07V44.36H695v2.76h3.37V44.36h1.08v6.36Z"/><path d="M702,49.29l-.61,1.43H700.3l2.81-6.36h1.1L707,50.72h-1.15l-.61-1.43Zm1.6-3.79-1.2,2.83h2.4Z"/><path d="M710.6,44.36c1.32,0,2.14.6,2.14,1.59a1.4,1.4,0,0,1-1.12,1.42A1.54,1.54,0,0,1,713,49c0,1.09-.89,1.74-2.32,1.74h-2.83V44.36ZM708.91,47h1.64c.68,0,1.09-.31,1.09-.85s-.41-.83-1.09-.83h-1.64Zm0,2.78h1.64c.83,0,1.33-.33,1.33-.93s-.5-.9-1.33-.9h-1.64Z"/><path d="M715.16,49.29l-.61,1.43h-1.12l2.81-6.36h1.1l2.79,6.36H719l-.61-1.43Zm1.6-3.79-1.2,2.83H718Z"/><path d="M725.44,50.72l-3.39-4.56v4.56H721V44.36h1l3.41,4.57V44.36h1.06v6.36Z"/><path d="M729.08,49.29l-.61,1.43h-1.11l2.81-6.36h1.1l2.78,6.36H732.9l-.61-1.43Zm1.6-3.79-1.2,2.83h2.4Z"/><polygon class="cls-3" points="820.43 360.43 820.43 226.13 682.24 226.13 682.24 360.38 820.43 360.43"/><g class="cls-29"><path class="cls-3" d="M765.17,454.66l-1.3,3.06h-2.39l6-13.58h2.35l5.94,13.58h-2.45l-1.3-3.06Zm3.42-8.08-2.57,6h5.13Z"/></g><g class="cls-29"><path class="cls-3" d="M754.31,310.71c2.82,0,4.57,1.28,4.57,3.4a3,3,0,0,1-2.39,3,3.31,3.31,0,0,1,2.91,3.44c0,2.33-1.88,3.73-4.95,3.73h-6V310.71Zm-3.61,5.63h3.5c1.45,0,2.33-.68,2.33-1.83s-.88-1.76-2.33-1.76h-3.5Zm0,5.92h3.5c1.78,0,2.85-.7,2.85-2s-1.07-1.92-2.85-1.92h-3.5Z"/></g><path d="M98.73,546.69h-8.4a.36.36,0,0,1-.36-.36v-6.74a.22.22,0,0,1,.44,0v6.67h8.25v-6.44a.21.21,0,0,1,.21-.22.22.22,0,0,1,.22.22v6.51A.36.36,0,0,1,98.73,546.69Z"/><path d="M99.23,540.25a.37.37,0,0,1-.21-.06L94.5,537l-4.65,3.1a.36.36,0,0,1-.49-.09l-.67-.92a.37.37,0,0,1,.09-.51l5.67-3.74a.36.36,0,0,1,.41,0l5.38,3.84h0a.35.35,0,0,1,.14.25.34.34,0,0,1-.08.28l-.8.9A.37.37,0,0,1,99.23,540.25Zm-4.72-3.67a.36.36,0,0,1,.2.06l4.51,3.16.7-.79-5.27-3.77-5.57,3.68.59.8,4.64-3.08A.36.36,0,0,1,94.51,536.58Z"/><circle class="cls-16" cx="768.62" cy="362.94" r="13.09"/><path d="M765.22,366.5v-3.43h-4.39v3.43h-1.4v-8.29h1.4v3.6h4.39v-3.6h1.4v8.29Z"/><path d="M774.84,362.36c0,2.68-1.25,4.18-3.52,4.18s-3.52-1.5-3.52-4.18,1.25-4.18,3.52-4.18S774.84,359.67,774.84,362.36Zm-5.61,0c0,2.09.7,3.07,2.09,3.07s2.09-1,2.09-3.07-.7-3.08-2.09-3.08S769.23,360.25,769.23,362.36Z"/><path d="M776.71,366.5v-7h-1.62v-1.25h3v8.29Z"/><text class="cls-31" transform="translate(115.42 546.14)">Lo<tspan class="cls-32" x="13.72" y="0">c</tspan><tspan x="20.13" y="0">ales H01</tspan></text></g></g></svg>