<svg xmlns="http://www.w3.org/2000/svg" viewBox="0 0 840.62 581.44"><defs><style>.cls-1{fill:#c2bcb6;}.cls-2{fill:#ff9100;}.cls-15,.cls-2,.cls-20{opacity:0.6;}.cls-3{fill:#fd9a63;}.cls-4{fill:#bbd17b;}.cls-10,.cls-22,.cls-4,.cls-5,.cls-6,.cls-9{opacity:0.7;}.cls-5{fill:#d0e09f;}.cls-14,.cls-19,.cls-21,.cls-22,.cls-7{fill:#fff;}.cls-13,.cls-15,.cls-17,.cls-20,.cls-8{fill:none;}.cls-8{stroke:#999;stroke-width:3px;}.cls-13,.cls-14,.cls-15,.cls-17,.cls-19,.cls-20,.cls-21,.cls-22,.cls-8{stroke-miterlimit:10;}.cls-9{fill:#e1f5a4;}.cls-10{fill:#a7c05f;}.cls-11{fill:#a5a09f;}.cls-12{fill:#fd6714;}.cls-13{stroke:#c2bcb6;}.cls-14{stroke:#c3e06f;}.cls-15{stroke:#a7c05f;}.cls-16{opacity:0.3;}.cls-17{stroke:#888f88;}.cls-18{fill:#888f88;}.cls-19{stroke:#fd9a63;}.cls-20{stroke:#ff9100;}.cls-21,.cls-22{stroke:#fd6714;}</style></defs><g id="Layer_7" data-name="Layer 7"><rect class="cls-1" x="291.81" y="13.83" width="531.83" height="349.4"/><path class="cls-1" d="M823.64,363.29V484.81H563.35V363.92S823.64,363.35,823.64,363.29Z"/><rect class="cls-2" x="79.95" y="490.92" width="162.13" height="31.34" rx="15.67"/><rect class="cls-2" x="237.15" y="214.12" width="52.77" height="54.47"/><rect class="cls-2" x="237.15" y="307.02" width="52.89" height="54.63"/><polygon class="cls-3" points="132.05 95.26 132.05 268.08 237.2 268.08 237.2 268.59 290.04 268.59 290.04 307.02 237.2 307.02 237.2 363.23 78.83 363.23 78.83 13.82 290.24 13.82 290.24 95.26 132.05 95.26"/><rect class="cls-4" x="518.38" y="303.62" width="65.77" height="0.19"/><rect class="cls-4" x="452.18" y="303.62" width="66.2" height="0.19"/><rect class="cls-4" x="385.81" y="303.62" width="66.37" height="0.19"/><rect class="cls-5" x="584.15" y="303.62" width="64.92" height="0.19"/><g class="cls-6"><polygon class="cls-7" points="320.7 363.31 254.66 363.31 254.66 363.5 320.7 363.5 320.7 363.31 320.7 363.31"/></g><g class="cls-6"><polygon class="cls-7" points="385.79 363.31 320.71 363.31 320.71 363.5 385.79 363.5 385.79 363.31 385.79 363.31"/></g><g class="cls-6"><polygon class="cls-7" points="518.38 363.31 452.18 363.31 452.18 363.5 518.38 363.5 518.38 363.31 518.38 363.31"/></g><g class="cls-6"><polygon class="cls-7" points="584.4 363.31 518.2 363.31 518.2 363.5 584.4 363.5 584.4 363.31 584.4 363.31"/></g><g class="cls-6"><polygon class="cls-7" points="452.18 363.31 385.81 363.31 385.81 363.5 452.18 363.5 452.18 363.31 452.18 363.31"/></g><g class="cls-6"><polygon class="cls-7" points="649.07 363.31 584.15 363.31 584.15 363.5 649.07 363.5 649.07 363.31 649.07 363.31"/></g><rect class="cls-8" x="78.83" y="13.83" width="744.81" height="349.4"/><path class="cls-8" d="M823.64,363.29V484.81H563.35V363.92S823.64,363.35,823.64,363.29Z"/><rect class="cls-8" x="78.83" y="13.83" width="211.87" height="349.4"/><polygon class="cls-3" points="179.27 149.27 179.27 214.08 237.28 214.08 237.28 268.08 129.45 268.08 129.45 95.26 289.28 95.26 289.28 149.27 179.27 149.27"/><path class="cls-9" d="M264.24,198.08H203.88V165.27h60.36Z"/><path class="cls-10" d="M179.27,149.27v64.81h110V149.27Zm85,48.81H203.88V165.27h60.36Z"/><rect class="cls-11" x="203.88" y="165.27" width="60.36" height="32.81"/><rect class="cls-3" x="79.95" y="419.41" width="162.13" height="31.34" rx="15.67"/><rect class="cls-12" x="79.95" y="455.59" width="162.13" height="31.34" rx="15.67"/><rect class="cls-10" x="251.89" y="419.41" width="162.13" height="31.34" rx="15.67"/><rect class="cls-1" x="251.89" y="455.59" width="162.13" height="31.34" rx="15.67"/><circle class="cls-7" cx="267.78" cy="470.92" r="13.58"/><circle class="cls-13" cx="267.78" cy="470.92" r="13.09"/><path d="M272.87,475.59H261.65a.36.36,0,0,1-.36-.36v-1.7a.36.36,0,0,1,.36-.36h2.41v-1.86a.36.36,0,0,1,.36-.36H267v-1.78a.36.36,0,0,1,.36-.36h2.43V467a.36.36,0,0,1,.36-.36h2.75a.36.36,0,0,1,.36.36v8.25A.36.36,0,0,1,272.87,475.59Zm-11.15-.43H272.8v-8.11h-2.61v1.83a.36.36,0,0,1-.36.36H267.4V471a.36.36,0,0,1-.36.36h-2.55v1.86a.36.36,0,0,1-.36.36h-2.41Z"/><path d="M260.55,471.32a.2.2,0,0,1-.17-.09.22.22,0,0,1,0-.3l8.91-6.62a.31.31,0,0,1,.21-.07h2.29a.21.21,0,0,1,.22.21.22.22,0,0,1-.22.22h-2.27l-8.88,6.61A.2.2,0,0,1,260.55,471.32Z"/><path d="M262.6,473.6a.22.22,0,0,1-.22-.22V469.6a.22.22,0,0,1,.22-.22.21.21,0,0,1,.21.22v3.78A.21.21,0,0,1,262.6,473.6Z"/><path d="M271.63,467.05a.22.22,0,0,1-.22-.22v-2.38a.22.22,0,0,1,.44,0v2.38A.22.22,0,0,1,271.63,467.05Z"/><circle class="cls-7" cx="207.82" cy="339.61" r="13.58"/><circle class="cls-13" cx="207.82" cy="339.61" r="13.09"/><path d="M212.91,344.28H201.69a.36.36,0,0,1-.36-.36v-1.7a.36.36,0,0,1,.36-.36h2.4V340a.36.36,0,0,1,.36-.36H207v-1.78a.36.36,0,0,1,.36-.36h2.43v-1.83a.36.36,0,0,1,.36-.36h2.75a.36.36,0,0,1,.36.36v8.25A.36.36,0,0,1,212.91,344.28Zm-11.15-.43h11.08v-8.11h-2.61v1.83a.36.36,0,0,1-.36.36h-2.43v1.78a.36.36,0,0,1-.36.36h-2.56v1.86a.36.36,0,0,1-.36.36h-2.4Z"/><path d="M200.59,340a.22.22,0,0,1-.13-.39l8.9-6.62a.34.34,0,0,1,.22-.07h2.29a.21.21,0,0,1,.22.21.22.22,0,0,1-.22.22H209.6L200.71,340A.17.17,0,0,1,200.59,340Z"/><path d="M202.63,342.29a.21.21,0,0,1-.21-.22v-3.78a.21.21,0,0,1,.21-.22.22.22,0,0,1,.22.22v3.78A.22.22,0,0,1,202.63,342.29Z"/><path d="M211.67,335.74a.22.22,0,0,1-.22-.22v-2.38a.21.21,0,0,1,.22-.21.21.21,0,0,1,.21.21v2.38A.22.22,0,0,1,211.67,335.74Z"/><path class="cls-7" d="M115.89,430.28h1.2v7.35h4.54v1h-5.74Z"/><path class="cls-7" d="M122.18,435.5a3.3,3.3,0,1,1,3.31,3.25A3.16,3.16,0,0,1,122.18,435.5Zm5.44,0a2.14,2.14,0,1,0-4.28,0,2.14,2.14,0,1,0,4.28,0Z"/><path class="cls-7" d="M129.8,435.5a3.17,3.17,0,0,1,3.35-3.24,2.84,2.84,0,0,1,2.59,1.35l-.87.57a2,2,0,0,0-1.73-.91,2.24,2.24,0,0,0,0,4.47,2,2,0,0,0,1.73-.91l.87.55a2.84,2.84,0,0,1-2.59,1.37A3.18,3.18,0,0,1,129.8,435.5Z"/><path class="cls-7" d="M142.27,434.84v3.83h-1.09v-.84a2.35,2.35,0,0,1-2.09.92c-1.44,0-2.35-.77-2.35-1.87s.66-1.86,2.56-1.86h1.82v-.23c0-1-.56-1.54-1.7-1.54a3.24,3.24,0,0,0-2,.69l-.48-.87a4.29,4.29,0,0,1,2.63-.81C141.29,432.26,142.27,433.1,142.27,434.84Zm-1.15,1.89v-.89h-1.77c-1.14,0-1.47.45-1.47,1s.53,1,1.41,1A1.85,1.85,0,0,0,141.12,436.73Z"/><path class="cls-7" d="M144.41,429.78h1.15v8.89h-1.15Z"/><path class="cls-7" d="M153.48,435.88h-5.16a2.16,2.16,0,0,0,2.31,1.86,2.36,2.36,0,0,0,1.83-.77l.64.74a3.46,3.46,0,0,1-5.93-2.21,3.11,3.11,0,0,1,3.19-3.24,3.06,3.06,0,0,1,3.14,3.27C153.5,435.63,153.49,435.77,153.48,435.88Zm-5.16-.83h4.08a2.05,2.05,0,0,0-4.08,0Z"/><path class="cls-7" d="M160.18,431.32H157.3v-1h6.94v1h-2.88v7.35h-1.18Z"/><path class="cls-7" d="M164.63,434.48c0-2.74,1.46-4.3,3.43-4.3s3.42,1.56,3.42,4.3-1.46,4.29-3.42,4.29S164.63,437.21,164.63,434.48Zm5.65,0c0-2.15-.91-3.23-2.22-3.23s-2.23,1.08-2.23,3.23.91,3.22,2.23,3.22S170.28,436.62,170.28,434.48Z"/><path class="cls-7" d="M175.2,430.28v8.39H174v-7.35h-1.89v-1Z"/><path d="M297.27,473.72v1h-6.1v-8.4h5.93v1h-4.73V470h4.21v1h-4.21v2.71Z"/><path d="M298.16,474.1l.48-.92a4,4,0,0,0,2.23.66c1.07,0,1.51-.32,1.51-.86,0-1.43-4-.19-4-2.72,0-1.14,1-1.91,2.65-1.91a4.63,4.63,0,0,1,2.32.58l-.49.91a3.38,3.38,0,0,0-1.84-.51c-1,0-1.5.38-1.5.88,0,1.5,4,.27,4,2.75,0,1.15-1,1.88-2.74,1.88A4.67,4.67,0,0,1,298.16,474.1Z"/><path d="M304.39,471.59a3.17,3.17,0,0,1,3.35-3.24,2.86,2.86,0,0,1,2.6,1.36l-.88.56a2,2,0,0,0-1.73-.91,2.24,2.24,0,0,0,0,4.47,2,2,0,0,0,1.73-.91l.88.55a2.86,2.86,0,0,1-2.6,1.37A3.18,3.18,0,0,1,304.39,471.59Z"/><path d="M316.86,470.93v3.84h-1.09v-.84a2.36,2.36,0,0,1-2.08.91c-1.44,0-2.36-.77-2.36-1.87s.66-1.86,2.56-1.86h1.82v-.23c0-1-.56-1.53-1.7-1.53a3.23,3.23,0,0,0-2,.68l-.48-.86a4.23,4.23,0,0,1,2.63-.82C315.88,468.35,316.86,469.19,316.86,470.93Zm-1.15,1.89v-.88h-1.77c-1.14,0-1.47.44-1.47,1s.53,1,1.41,1A1.83,1.83,0,0,0,315.71,472.82Z"/><path d="M319,465.87h1.15v8.9H319Z"/><path d="M328.07,472h-5.16a2.16,2.16,0,0,0,2.31,1.86,2.36,2.36,0,0,0,1.83-.77l.64.75a3.47,3.47,0,0,1-5.93-2.22,3.12,3.12,0,0,1,3.19-3.24,3.07,3.07,0,0,1,3.15,3.27C328.1,471.72,328.08,471.86,328.07,472Zm-5.16-.83H327a2.05,2.05,0,0,0-4.08,0Z"/><path d="M333.11,468.35v1.12a1.18,1.18,0,0,0-.26,0,1.9,1.9,0,0,0-2,2.15v3.17h-1.16v-6.36h1.11v1.07A2.41,2.41,0,0,1,333.11,468.35Z"/><path d="M339.56,470.93v3.84h-1.1v-.84a2.36,2.36,0,0,1-2.08.91c-1.44,0-2.35-.77-2.35-1.87s.66-1.86,2.55-1.86h1.82v-.23c0-1-.56-1.53-1.7-1.53a3.18,3.18,0,0,0-2,.68l-.48-.86a4.2,4.2,0,0,1,2.62-.82C338.57,468.35,339.56,469.19,339.56,470.93Zm-1.16,1.89v-.88h-1.77c-1.14,0-1.46.44-1.46,1s.52,1,1.4,1A1.82,1.82,0,0,0,338.4,472.82Z"/><path d="M340.89,474.1l.48-.92a4,4,0,0,0,2.23.66c1.07,0,1.51-.32,1.51-.86,0-1.43-4-.19-4-2.72,0-1.14,1-1.91,2.65-1.91a4.63,4.63,0,0,1,2.32.58l-.49.91a3.35,3.35,0,0,0-1.84-.51c-1,0-1.5.38-1.5.88,0,1.5,4,.27,4,2.75,0,1.15-1.05,1.88-2.74,1.88A4.67,4.67,0,0,1,340.89,474.1Z"/><path d="M296.52,436.05h-4.46l-.92,2.1H289.9l3.8-8.4h1.19l3.82,8.4h-1.26Zm-.42-1L294.29,431l-1.81,4.12Zm-1.62-6H293.4l1.64-1.56h1.46Z"/><path d="M303.21,431.73v1.12a1.27,1.27,0,0,0-.27,0,1.9,1.9,0,0,0-2,2.15v3.17h-1.15v-6.36h1.1v1.07A2.42,2.42,0,0,1,303.21,431.73Z"/><path d="M310.29,435.35h-5.16a2.14,2.14,0,0,0,2.3,1.86,2.37,2.37,0,0,0,1.84-.77l.63.75A3.46,3.46,0,0,1,304,435a3.11,3.11,0,0,1,3.19-3.24,3.07,3.07,0,0,1,3.14,3.27C310.31,435.1,310.3,435.24,310.29,435.35Zm-5.16-.83h4.08a2.05,2.05,0,0,0-4.08,0Z"/><path d="M316.77,434.31v3.84h-1.09v-.84a2.39,2.39,0,0,1-2.09.91c-1.44,0-2.35-.77-2.35-1.87s.66-1.86,2.55-1.86h1.83v-.23c0-1-.57-1.53-1.71-1.53a3.2,3.2,0,0,0-2,.68l-.48-.86a4.23,4.23,0,0,1,2.63-.82C315.78,431.73,316.77,432.57,316.77,434.31Zm-1.15,1.89v-.88h-1.78c-1.14,0-1.46.44-1.46,1s.53,1,1.4,1A1.84,1.84,0,0,0,315.62,436.2Z"/><path d="M318.1,437.48l.48-.92a4.05,4.05,0,0,0,2.23.66c1.07,0,1.51-.32,1.51-.86,0-1.43-4-.19-4-2.72,0-1.14,1-1.91,2.65-1.91a4.62,4.62,0,0,1,2.31.58l-.49.91a3.35,3.35,0,0,0-1.84-.51c-1,0-1.49.38-1.49.88,0,1.5,4,.27,4,2.75,0,1.15-1.06,1.88-2.75,1.88A4.67,4.67,0,0,1,318.1,437.48Z"/><path d="M333.77,431.79,331,438.15h-1.18L327,431.79h1.2l2.18,5.1,2.23-5.1Z"/><path d="M340.39,435.35h-5.15a2.14,2.14,0,0,0,2.3,1.86,2.38,2.38,0,0,0,1.84-.77l.63.75a3.46,3.46,0,0,1-5.92-2.22,3.11,3.11,0,0,1,3.19-3.24,3.07,3.07,0,0,1,3.14,3.27A2.16,2.16,0,0,1,340.39,435.35Zm-5.15-.83h4.08a2,2,0,0,0-2-1.82A2,2,0,0,0,335.24,434.52Z"/><path d="M345.44,431.73v1.12a1.27,1.27,0,0,0-.27,0,1.9,1.9,0,0,0-2,2.15v3.17H342v-6.36h1.1v1.07A2.42,2.42,0,0,1,345.44,431.73Z"/><path d="M352.79,429.25v8.9h-1.1v-1a2.69,2.69,0,0,1-2.27,1.08,3.25,3.25,0,0,1,0-6.49,2.72,2.72,0,0,1,2.22,1v-3.5ZM351.65,435a2.14,2.14,0,1,0-2.13,2.24A2.09,2.09,0,0,0,351.65,435Z"/><path d="M360.7,435.35h-5.16a2.16,2.16,0,0,0,2.3,1.86,2.37,2.37,0,0,0,1.84-.77l.64.75a3.47,3.47,0,0,1-5.93-2.22,3.12,3.12,0,0,1,3.19-3.24,3.06,3.06,0,0,1,3.14,3.27C360.72,435.1,360.71,435.24,360.7,435.35Zm-5.16-.83h4.08a2.05,2.05,0,0,0-4.08,0Z"/><path d="M361.52,437.48l.48-.92a4,4,0,0,0,2.23.66c1.07,0,1.51-.32,1.51-.86,0-1.43-4-.19-4-2.72,0-1.14,1-1.91,2.65-1.91a4.63,4.63,0,0,1,2.32.58l-.49.91a3.38,3.38,0,0,0-1.84-.51c-1,0-1.5.38-1.5.88,0,1.5,4,.27,4,2.75,0,1.15-1.05,1.88-2.74,1.88A4.67,4.67,0,0,1,361.52,437.48Z"/><circle class="cls-14" cx="272.45" cy="196.81" r="13.09"/><path d="M269.72,202.47a.21.21,0,0,1-.21-.22v-5.36a.21.21,0,0,1,.21-.22.22.22,0,0,1,.22.22v5.36A.22.22,0,0,1,269.72,202.47Z"/><path d="M269.72,198.81a.21.21,0,0,1-.15-.07l-.81-.83a.22.22,0,0,1,0-.31.21.21,0,0,1,.3,0l.44.45v-.59a.25.25,0,0,1,.05-.15l.55-.58a.21.21,0,0,1,.3,0,.2.2,0,0,1,0,.3l-.48.52v1a.22.22,0,0,1-.14.2Z"/><path d="M273.62,202.47a.22.22,0,0,1-.22-.22v-5.74l-.66-.54a.22.22,0,0,1,.27-.34l.74.61a.21.21,0,0,1,.08.17v5.84A.21.21,0,0,1,273.62,202.47Z"/><path d="M273.62,197l-.08,0a.22.22,0,0,1-.14-.2v-1.33a.21.21,0,0,1,.22-.21.21.21,0,0,1,.21.21v.73l.27-.33a.22.22,0,0,1,.31,0,.22.22,0,0,1,0,.3l-.66.79A.21.21,0,0,1,273.62,197Z"/><path d="M276.05,202.47a.22.22,0,0,1-.22-.22v-3.82a.21.21,0,0,1,.22-.21.21.21,0,0,1,.21.21v3.82A.21.21,0,0,1,276.05,202.47Z"/><path d="M276.05,199.55a.28.28,0,0,1-.17-.07.23.23,0,0,1,0-.31l.61-.54a.22.22,0,0,1,.31,0,.22.22,0,0,1,0,.3l-.61.54A.2.2,0,0,1,276.05,199.55Z"/><path d="M269.56,200.11a2.74,2.74,0,0,1-2.46-3c0-1.69,1.19-5,2.62-5s2.31,3.53,2.31,5A2.75,2.75,0,0,1,269.56,200.11Zm.16-7.55c-1,0-2.19,3-2.19,4.55a2.09,2.09,0,1,0,4.06,0,9.23,9.23,0,0,0-.56-2.91C270.64,193.16,270.17,192.56,269.72,192.56Z"/><path d="M273.66,198.52a3,3,0,0,1-2-.73.22.22,0,0,1,0-.31.21.21,0,0,1,.3,0,2.54,2.54,0,0,0,1.71.63,2.38,2.38,0,0,0,2.47-2.35c0-1.39-1-4.16-2.28-4.16-.92,0-1.89,1.37-2.37,2.73a.22.22,0,0,1-.28.13.21.21,0,0,1-.13-.27c.53-1.51,1.6-3,2.78-3,1.66,0,2.72,3,2.72,4.59A2.82,2.82,0,0,1,273.66,198.52Z"/><path d="M276.05,200.23a1.75,1.75,0,0,1-1.76-1.75v-.3a.22.22,0,0,1,.22-.22.21.21,0,0,1,.21.22v.3a1.33,1.33,0,1,0,1.33-1.32.22.22,0,0,1,0-.44,1.76,1.76,0,0,1,0,3.51Z"/><circle class="cls-7" cx="268.11" cy="435.82" r="13.62"/><circle class="cls-15" cx="268.11" cy="435.82" r="13.09"/><path d="M265.38,441.47a.21.21,0,0,1-.22-.21v-5.37a.22.22,0,0,1,.22-.21.21.21,0,0,1,.21.21v5.37A.21.21,0,0,1,265.38,441.47Z"/><path d="M265.38,437.81a.23.23,0,0,1-.16-.06l-.8-.83a.23.23,0,0,1,0-.31.22.22,0,0,1,.31,0l.43.44v-.59a.2.2,0,0,1,.06-.14l.55-.58a.21.21,0,1,1,.31.29l-.49.52v1a.21.21,0,0,1-.13.2Z"/><path d="M269.27,441.47a.21.21,0,0,1-.21-.21v-5.74l-.66-.54a.22.22,0,0,1,0-.31.23.23,0,0,1,.31,0l.74.61a.21.21,0,0,1,.08.17v5.84A.21.21,0,0,1,269.27,441.47Z"/><path d="M269.27,436h-.07a.22.22,0,0,1-.14-.2v-1.33a.21.21,0,0,1,.21-.22.22.22,0,0,1,.22.22v.73l.27-.33a.22.22,0,0,1,.3,0,.21.21,0,0,1,0,.31l-.65.78A.19.19,0,0,1,269.27,436Z"/><path d="M271.7,441.47a.21.21,0,0,1-.21-.21v-3.82a.21.21,0,0,1,.21-.22.22.22,0,0,1,.22.22v3.82A.21.21,0,0,1,271.7,441.47Z"/><path d="M271.7,438.56a.22.22,0,0,1-.14-.38l.61-.54a.21.21,0,0,1,.28.32l-.6.54A.22.22,0,0,1,271.7,438.56Z"/><path d="M265.22,439.12a2.75,2.75,0,0,1-2.46-3c0-1.68,1.18-5,2.62-5s2.3,3.53,2.3,5A2.75,2.75,0,0,1,265.22,439.12Zm.16-7.55c-1,0-2.19,3-2.19,4.54a2.09,2.09,0,1,0,4.06,0,9.25,9.25,0,0,0-.57-2.9C266.3,432.17,265.82,431.57,265.38,431.57Z"/><path d="M269.31,437.53a3,3,0,0,1-2-.73.22.22,0,0,1,.29-.33,2.56,2.56,0,0,0,1.7.62,2.39,2.39,0,0,0,2.48-2.34c0-1.39-1-4.16-2.29-4.16-.92,0-1.89,1.37-2.37,2.73a.21.21,0,1,1-.4-.15c.53-1.5,1.6-3,2.77-3,1.66,0,2.72,3,2.72,4.59A2.82,2.82,0,0,1,269.31,437.53Z"/><path d="M271.7,439.24a1.75,1.75,0,0,1-1.75-1.75v-.3a.21.21,0,0,1,.21-.22.22.22,0,0,1,.22.22v.3a1.33,1.33,0,1,0,1.32-1.32.22.22,0,0,1,0-.44,1.76,1.76,0,1,1,0,3.51Z"/><circle class="cls-14" cx="196.7" cy="166.95" r="13.09"/><path d="M194,172.61a.22.22,0,0,1-.22-.22V167a.22.22,0,0,1,.44,0v5.36A.22.22,0,0,1,194,172.61Z"/><path d="M194,169a.26.26,0,0,1-.16-.07l-.8-.83a.23.23,0,0,1,0-.31.22.22,0,0,1,.31,0l.43.45v-.59a.2.2,0,0,1,.06-.15l.55-.58a.21.21,0,0,1,.3,0,.22.22,0,0,1,0,.31l-.48.51v1a.22.22,0,0,1-.14.2Z"/><path d="M197.86,172.61a.22.22,0,0,1-.21-.22v-5.74l-.66-.54a.21.21,0,0,1,.27-.33l.74.6a.23.23,0,0,1,.08.17v5.84A.22.22,0,0,1,197.86,172.61Z"/><path d="M197.86,167.13l-.07,0a.22.22,0,0,1-.14-.2v-1.33a.21.21,0,0,1,.21-.21.21.21,0,0,1,.22.21v.73l.27-.33a.22.22,0,0,1,.31,0,.21.21,0,0,1,0,.3l-.65.79A.21.21,0,0,1,197.86,167.13Z"/><path d="M200.29,172.61a.21.21,0,0,1-.21-.22v-3.82a.21.21,0,0,1,.21-.21.21.21,0,0,1,.22.21v3.82A.22.22,0,0,1,200.29,172.61Z"/><path d="M200.29,169.69a.2.2,0,0,1-.16-.07.22.22,0,0,1,0-.31l.61-.54a.21.21,0,0,1,.3,0,.22.22,0,0,1,0,.31l-.6.54A.27.27,0,0,1,200.29,169.69Z"/><path d="M193.81,170.25a2.74,2.74,0,0,1-2.46-3c0-1.69,1.18-5,2.62-5s2.3,3.53,2.3,5A2.74,2.74,0,0,1,193.81,170.25Zm.16-7.55c-1,0-2.19,3-2.19,4.55a2.09,2.09,0,1,0,4.06,0,9.52,9.52,0,0,0-.56-2.91C194.89,163.3,194.41,162.7,194,162.7Z"/><path d="M197.9,168.66a3,3,0,0,1-2-.73.22.22,0,0,1,.29-.33,2.53,2.53,0,0,0,1.7.63,2.39,2.39,0,0,0,2.48-2.35c0-1.39-1-4.16-2.29-4.16-.92,0-1.88,1.38-2.37,2.73a.21.21,0,0,1-.27.13.2.2,0,0,1-.13-.27c.53-1.5,1.6-3,2.77-3,1.66,0,2.72,3,2.72,4.59A2.81,2.81,0,0,1,197.9,168.66Z"/><path d="M200.29,170.38a1.76,1.76,0,0,1-1.75-1.76v-.3a.22.22,0,1,1,.43,0v.3a1.33,1.33,0,1,0,1.32-1.32.21.21,0,0,1-.21-.22.21.21,0,0,1,.21-.21,1.76,1.76,0,1,1,0,3.51Z"/><path class="cls-7" d="M123.11,507.6c0,1.43-1.09,2.26-3.22,2.26h-4v-8.39h3.76c1.93,0,3,.81,3,2.17a2,2,0,0,1-1.12,1.87A2,2,0,0,1,123.11,507.6Zm-6-5.16v2.68h2.46c1.22,0,1.91-.45,1.91-1.34s-.69-1.34-1.91-1.34Zm4.81,5.06c0-1-.72-1.4-2.05-1.4h-2.76v2.79h2.76C121.18,508.89,121.9,508.47,121.9,507.5Z"/><path class="cls-7" d="M129.84,506v3.84h-1.09V509a2.36,2.36,0,0,1-2.09.91c-1.44,0-2.35-.76-2.35-1.87s.66-1.86,2.56-1.86h1.82V506c0-1-.56-1.54-1.7-1.54a3.21,3.21,0,0,0-2,.68l-.48-.86a4.23,4.23,0,0,1,2.63-.81C128.86,503.45,129.84,504.28,129.84,506Zm-1.15,1.9V507h-1.78c-1.13,0-1.46.45-1.46,1s.53,1,1.4,1A1.85,1.85,0,0,0,128.69,507.92Z"/><path class="cls-7" d="M138,506.2v3.66h-1.15v-3.52c0-1.25-.62-1.86-1.71-1.86a1.89,1.89,0,0,0-2,2.11v3.27H132v-6.35h1.1v.95a2.75,2.75,0,0,1,2.29-1A2.46,2.46,0,0,1,138,506.2Zm-4.38-3.71H133c0-.89.48-1.47,1.17-1.47s1.15.82,1.6.82.58-.28.61-.72H137c0,.85-.48,1.43-1.18,1.43s-1.15-.81-1.59-.81S133.66,502,133.63,502.49Z"/><path class="cls-7" d="M139.6,506.68a3.31,3.31,0,1,1,3.31,3.25A3.16,3.16,0,0,1,139.6,506.68Zm5.44,0a2.14,2.14,0,1,0-4.28,0,2.14,2.14,0,1,0,4.28,0Z"/><path class="cls-7" d="M147,509.19l.48-.91a4.13,4.13,0,0,0,2.23.66c1.07,0,1.52-.33,1.52-.87,0-1.42-4-.19-4-2.72,0-1.14,1-1.9,2.65-1.9a4.59,4.59,0,0,1,2.31.57l-.49.91a3.31,3.31,0,0,0-1.83-.5c-1,0-1.5.37-1.5.87,0,1.5,4,.28,4,2.75,0,1.15-1.06,1.88-2.75,1.88A4.59,4.59,0,0,1,147,509.19Z"/><g class="cls-16"><circle class="cls-17" cx="296.27" cy="389.94" r="13.09"/><path class="cls-18" d="M301.34,395.8H290.86a.36.36,0,0,1-.36-.36V384.23a.36.36,0,0,1,.36-.36h10.48a.36.36,0,0,1,.36.36v11.21A.36.36,0,0,1,301.34,395.8Zm-10.41-.44h10.33V384.3H290.93Z"/><path class="cls-18" d="M298.92,393.93h-5.8a.4.4,0,0,1-.4-.4V386a.4.4,0,0,1,.4-.4h5.67a.4.4,0,0,1,.4.4v1.12a.4.4,0,0,1-.4.4H295v1.29h3.42a.4.4,0,0,1,.4.4v1.11a.4.4,0,0,1-.4.41H295V392h4a.4.4,0,0,1,.4.4v1.12A.4.4,0,0,1,298.92,393.93Zm-5.76-.44h5.73v-1.05h-4a.4.4,0,0,1-.4-.4v-1.39a.4.4,0,0,1,.4-.4h3.43V389.2h-3.43a.4.4,0,0,1-.4-.4v-1.35a.4.4,0,0,1,.4-.4h3.85V386h-5.6Zm5.21-4.29h0Z"/></g><g class="cls-16"><circle class="cls-17" cx="717.53" cy="513.77" r="13.09"/><path class="cls-18" d="M722.6,519.63H712.12a.36.36,0,0,1-.36-.36V508.06a.36.36,0,0,1,.36-.36H722.6a.37.37,0,0,1,.36.36v11.21A.36.36,0,0,1,722.6,519.63Zm-10.41-.43h10.33V508.14H712.19Z"/><path class="cls-18" d="M720.18,517.76h-5.8a.4.4,0,0,1-.4-.4V509.8a.4.4,0,0,1,.4-.4h5.67a.4.4,0,0,1,.4.4v1.11a.4.4,0,0,1-.4.4H716.2v1.29h3.43a.4.4,0,0,1,.4.4v1.12a.4.4,0,0,1-.4.4H716.2v1.32h4a.4.4,0,0,1,.4.41v1.11A.4.4,0,0,1,720.18,517.76Zm-5.77-.43h5.74v-1.05h-4a.4.4,0,0,1-.4-.4v-1.39a.4.4,0,0,1,.4-.4h3.43V513h-3.43a.4.4,0,0,1-.4-.4v-1.36a.4.4,0,0,1,.4-.4H720v-1.05h-5.61Zm5.22-4.29Z"/></g><rect class="cls-1" x="251.89" y="490.92" width="162.13" height="31.34" rx="15.67"/><path d="M292.84,502.66H290v-1h7v1H294V510h-1.19Z"/><path d="M303.11,507.22H298a2.17,2.17,0,0,0,2.31,1.86,2.36,2.36,0,0,0,1.83-.77l.64.74a3.46,3.46,0,0,1-5.93-2.21A3.11,3.11,0,0,1,300,503.6a3.07,3.07,0,0,1,3.15,3.27C303.14,507,303.12,507.11,303.11,507.22Zm-5.16-.83H302a2.05,2.05,0,0,0-4.08,0Z"/><path d="M304.15,506.84a3.17,3.17,0,0,1,3.35-3.24,2.85,2.85,0,0,1,2.6,1.35l-.88.57a2,2,0,0,0-1.73-.92,2.24,2.24,0,0,0,0,4.48,2,2,0,0,0,1.73-.91l.88.55a2.86,2.86,0,0,1-2.6,1.37A3.18,3.18,0,0,1,304.15,506.84Z"/><path d="M317.53,506.36V510h-1.15v-3.52c0-1.25-.62-1.86-1.71-1.86a1.89,1.89,0,0,0-2,2.11V510H311.5v-8.9h1.15v3.45a2.75,2.75,0,0,1,2.25-1A2.46,2.46,0,0,1,317.53,506.36Z"/><path d="M319.12,506.84a3.31,3.31,0,1,1,3.31,3.25A3.17,3.17,0,0,1,319.12,506.84Zm5.45,0a2.14,2.14,0,1,0-2.14,2.24A2.09,2.09,0,0,0,324.57,506.84Z"/><circle class="cls-7" cx="267.78" cy="506.32" r="13.58"/><circle class="cls-13" cx="267.78" cy="506.32" r="13.09"/><path d="M273.5,509a.44.44,0,0,1-.27-.09l-5.73-4-5.9,3.93a.47.47,0,0,1-.62-.11l-.85-1.17a.4.4,0,0,1-.08-.35.46.46,0,0,1,.19-.3l7.19-4.75a.47.47,0,0,1,.52,0l6.83,4.87h0a.47.47,0,0,1,.07.68l-1,1.13A.47.47,0,0,1,273.5,509Zm-6-4.67a.43.43,0,0,1,.26.09l5.71,4,.89-1-6.69-4.78-7.05,4.67.74,1,5.88-3.91A.5.5,0,0,1,267.51,504.31Z"/><circle class="cls-19" cx="95.77" cy="434.68" r="13.09"/><path d="M101,440.14H90.55a.36.36,0,0,1-.36-.36v-4.73a.22.22,0,0,1,.21-.22h10.73a.21.21,0,0,1,.21.22v4.73A.36.36,0,0,1,101,440.14Zm-10.36-.43h10.29v-4.45H90.62Z"/><path d="M101.13,435.23H90.4a.21.21,0,0,1-.21-.21v-1.85a.36.36,0,0,1,.36-.36H101a.36.36,0,0,1,.36.36V435A.21.21,0,0,1,101.13,435.23Zm-10.51-.43h10.29v-1.56H90.62Z"/><path d="M94.55,435a.22.22,0,0,1-.22-.22V433a.22.22,0,0,1,.22-.22.21.21,0,0,1,.21.22v1.74A.21.21,0,0,1,94.55,435Z"/><path d="M96.83,435a.22.22,0,0,1-.22-.22V433a.22.22,0,0,1,.22-.22A.21.21,0,0,1,97,433v1.74A.21.21,0,0,1,96.83,435Z"/><path d="M92.26,435a.22.22,0,0,1-.21-.22V433a.22.22,0,1,1,.43,0v1.74A.22.22,0,0,1,92.26,435Z"/><path d="M99.11,435a.22.22,0,0,1-.22-.22V433a.22.22,0,0,1,.22-.22.21.21,0,0,1,.21.22v1.74A.21.21,0,0,1,99.11,435Z"/><path d="M97.68,431.79H93.91a.35.35,0,0,1-.33-.23.34.34,0,0,1,.08-.39l1.88-1.86a.38.38,0,0,1,.51,0l1.88,1.86a.34.34,0,0,1,.08.39A.35.35,0,0,1,97.68,431.79Zm-3.59-.44H97.5l-1.71-1.68Zm1.76-1.73h0Z"/><path d="M95.72,435.17a.22.22,0,0,1-.22-.21v-3.29a.22.22,0,1,1,.44,0V435A.22.22,0,0,1,95.72,435.17Z"/><circle class="cls-7" cx="95.51" cy="506.34" r="13.54"/><circle class="cls-20" cx="95.51" cy="506.34" r="13.09"/><path d="M94.16,508.82H90.53a.35.35,0,0,1-.28-.14.37.37,0,0,1-.06-.32l1.07-3.91a.37.37,0,0,1,.35-.26h1.47a.36.36,0,0,1,.35.26l1.08,3.91a.38.38,0,0,1-.07.32A.34.34,0,0,1,94.16,508.82Zm-.07-.34Zm-3.46-.1h3.43l-1-3.76H91.66Z"/><path d="M92.9,511.64H92a.36.36,0,0,1-.36-.36V508.6a.21.21,0,0,1,.21-.22h1.22a.21.21,0,0,1,.21.22v2.68A.36.36,0,0,1,92.9,511.64Zm-.85-.43h.78v-2.39h-.78Z"/><path d="M92.35,503.84a1.26,1.26,0,1,1,0-2.51,1.26,1.26,0,0,1,0,2.51Zm0-2.08a.82.82,0,1,0,.82.82A.82.82,0,0,0,92.35,501.76Z"/><path d="M98,511.64h-.93a.36.36,0,0,1-.36-.36V508.6a.22.22,0,0,1,.22-.22h1.21a.22.22,0,0,1,.22.22v2.68A.36.36,0,0,1,98,511.64Zm-.85-.43h.78v-2.39h-.78Z"/><path d="M99.07,508.82H96a.36.36,0,0,1-.36-.36v-3.91a.36.36,0,0,1,.36-.36h3a.36.36,0,0,1,.36.36v3.91A.36.36,0,0,1,99.07,508.82Zm-3-.44H99v-3.76H96.09Z"/><path d="M97.55,503.84a1.26,1.26,0,1,1,0-2.51,1.26,1.26,0,0,1,0,2.51Zm0-2.08a.82.82,0,1,0,.82.82A.82.82,0,0,0,97.55,501.76Z"/><circle class="cls-7" cx="264.03" cy="240.36" r="13.54"/><circle class="cls-20" cx="264.03" cy="240.36" r="13.09"/><path d="M262.68,242.84h-3.63a.36.36,0,0,1-.34-.45l1.07-3.91a.36.36,0,0,1,.35-.27h1.47a.35.35,0,0,1,.35.27l1.07,3.91a.35.35,0,0,1-.06.31A.34.34,0,0,1,262.68,242.84Zm-.07-.34Zm-3.46-.09h3.43l-1-3.76h-1.37Z"/><path d="M261.42,245.67h-.92a.36.36,0,0,1-.36-.36v-2.68a.21.21,0,0,1,.21-.22h1.22a.21.21,0,0,1,.21.22v2.68A.36.36,0,0,1,261.42,245.67Zm-.85-.43h.78v-2.4h-.78Z"/><path d="M260.87,237.86a1.26,1.26,0,1,1,1.25-1.25A1.26,1.26,0,0,1,260.87,237.86Zm0-2.07a.82.82,0,0,0,0,1.64.82.82,0,1,0,0-1.64Z"/><path d="M266.53,245.67h-.93a.36.36,0,0,1-.36-.36v-2.68a.22.22,0,0,1,.22-.22h1.21a.22.22,0,0,1,.22.22v2.68A.36.36,0,0,1,266.53,245.67Zm-.86-.43h.79v-2.4h-.79Z"/><path d="M267.59,242.84h-3a.36.36,0,0,1-.36-.36v-3.91a.36.36,0,0,1,.36-.36h3a.36.36,0,0,1,.36.36v3.91A.36.36,0,0,1,267.59,242.84Zm-3-.43h2.91v-3.76h-2.91Z"/><path d="M266.07,237.86a1.26,1.26,0,1,1,1.25-1.25A1.26,1.26,0,0,1,266.07,237.86Zm0-2.07a.82.82,0,0,0,0,1.64.82.82,0,1,0,0-1.64Z"/><circle class="cls-7" cx="264.03" cy="337.44" r="13.54"/><circle class="cls-20" cx="264.03" cy="337.44" r="13.09"/><path d="M262.68,339.92h-3.63a.36.36,0,0,1-.28-.15.35.35,0,0,1-.06-.31l1.07-3.91a.37.37,0,0,1,.35-.26h1.47a.36.36,0,0,1,.35.26l1.07,3.91a.37.37,0,0,1-.34.46Zm-.07-.35Zm-3.46-.09h3.43l-1-3.76h-1.37Z"/><path d="M261.42,342.74h-.92a.36.36,0,0,1-.36-.36V339.7a.21.21,0,0,1,.21-.22h1.22a.21.21,0,0,1,.21.22v2.68A.36.36,0,0,1,261.42,342.74Zm-.85-.43h.78v-2.39h-.78Z"/><path d="M260.87,334.93a1.25,1.25,0,1,1,1.25-1.25A1.26,1.26,0,0,1,260.87,334.93Zm0-2.07a.82.82,0,1,0,.82.82A.82.82,0,0,0,260.87,332.86Z"/><path d="M266.53,342.74h-.93a.36.36,0,0,1-.36-.36V339.7a.22.22,0,0,1,.22-.22h1.21a.22.22,0,0,1,.22.22v2.68A.36.36,0,0,1,266.53,342.74Zm-.86-.43h.79v-2.39h-.79Z"/><path d="M267.59,339.92h-3a.36.36,0,0,1-.36-.36v-3.91a.36.36,0,0,1,.36-.36h3a.36.36,0,0,1,.36.36v3.91A.36.36,0,0,1,267.59,339.92Zm-3-.44h2.91v-3.76h-2.91Z"/><path d="M266.07,334.93a1.25,1.25,0,1,1,1.25-1.25A1.26,1.26,0,0,1,266.07,334.93Zm0-2.07a.82.82,0,1,0,.82.82A.82.82,0,0,0,266.07,332.86Z"/><g class="cls-6"><circle class="cls-7" cx="134.41" cy="181.07" r="13.09"/></g><circle class="cls-21" cx="169.79" cy="339.82" r="13.09"/><path d="M174.46,345.75h-9.33a.37.37,0,0,1-.37-.36V334.26a.37.37,0,0,1,.37-.36h9.33a.36.36,0,0,1,.36.36v11.13A.36.36,0,0,1,174.46,345.75Zm-9.26-.44h9.18v-11H165.2Z"/><path d="M173.6,345.75H166a.36.36,0,0,1-.36-.36V335.06a.36.36,0,0,1,.36-.36h7.64a.36.36,0,0,1,.36.36v10.33A.36.36,0,0,1,173.6,345.75Zm-7.57-.44h7.49V335.13H166Z"/><path d="M170.54,339.54h-1.37a.33.33,0,0,1-.28-.16.36.36,0,0,1,0-.32l.69-1.19a.32.32,0,0,1,.28-.16.33.33,0,0,1,.28.16l.68,1.19a.32.32,0,0,1-.28.48Zm-1.18-.43h1l-.49-.86Zm.41-1.13Z"/><path d="M169.86,341.94a.32.32,0,0,1-.28-.16l-.69-1.19a.33.33,0,0,1,0-.32.3.3,0,0,1,.27-.16h1.37a.32.32,0,0,1,.28.48l-.68,1.19A.33.33,0,0,1,169.86,341.94Zm-.5-1.4.5.86.49-.86Z"/><path d="M102.93,177.73h-1.8v1.92h-1.07v-6.37h2.58c1.63,0,2.56.79,2.56,2.18a2,2,0,0,1-1.32,2.06l1.43,2.13h-1.22Zm-.29-1c1,0,1.55-.41,1.55-1.28s-.57-1.23-1.55-1.23h-1.51v2.51Z"/><path d="M107.71,174.26V176h3.11v1h-3.11v1.75h3.58v1h-4.66v-6.37h4.55v1Z"/><path d="M116.92,173.9l-.44.95a3.78,3.78,0,0,0-1.87-.59c-.62,0-1,.23-1,.66,0,1.39,3.43.65,3.43,2.94,0,1.13-1,1.83-2.41,1.83a3.93,3.93,0,0,1-2.6-1l.47-.92a3.33,3.33,0,0,0,2.15.92c.75,0,1.19-.28,1.19-.77,0-1.42-3.43-.63-3.43-2.89,0-1.09.93-1.77,2.31-1.77A4.15,4.15,0,0,1,116.92,173.9Z"/><path d="M120.59,174.26v5.4h-1.07v-5.4h-2v-1h5.1v1Z"/><path d="M123.8,178.22l-.61,1.44h-1.11l2.81-6.37H126l2.78,6.37h-1.15l-.61-1.44Zm1.6-3.78-1.2,2.83h2.41Z"/><path d="M134.85,177a2.77,2.77,0,0,1-5.54,0v-3.73h1.07V177a1.59,1.59,0,0,0,1.71,1.72,1.57,1.57,0,0,0,1.69-1.72v-3.73h1.07Z"/><path d="M139.26,177.73h-1.8v1.92h-1.07v-6.37H139c1.63,0,2.56.79,2.56,2.18a2,2,0,0,1-1.31,2.06l1.42,2.13h-1.21Zm-.29-1c1,0,1.55-.41,1.55-1.28s-.57-1.23-1.55-1.23h-1.51v2.51Z"/><path d="M143.87,178.22l-.61,1.44h-1.12l2.81-6.37h1.1l2.78,6.37h-1.14l-.61-1.44Zm1.6-3.78-1.2,2.83h2.4Z"/><path d="M154.15,179.66l-3.4-4.57v4.57h-1.07v-6.37h1.06l3.41,4.58v-4.58h1v6.37Z"/><path d="M159.22,174.26v5.4h-1.08v-5.4h-2v-1h5.1v1Z"/><path d="M163.23,174.26V176h3.11v1h-3.11v1.75h3.58v1h-4.65v-6.37h4.54v1Z"/><path d="M104.34,184.21a3.19,3.19,0,1,1,0,6.37h-2.58v-6.37Zm-1.54,5.4h1.57a2.13,2.13,0,0,0,2.18-2.21,2.17,2.17,0,0,0-2.23-2.23H102.8Z"/><path d="M109.86,185.17v1.72H113v1h-3.11v1.75h3.58v1h-4.66v-6.37h4.55v1Z"/><path d="M122.84,190.58v-4.76l-2,4.09h-.7l-2-4.09v4.76h-1v-6.37h1.27l2.1,4.23,2.09-4.23h1.27v6.37Z"/><path d="M126.41,189.14l-.6,1.44h-1.12l2.81-6.37h1.1l2.78,6.37h-1.15l-.61-1.44Zm1.61-3.78-1.2,2.82h2.4Z"/><path d="M135.1,188.65h-1.8v1.92h-1.07v-6.37h2.58c1.63,0,2.57.79,2.57,2.17a2.06,2.06,0,0,1-1.32,2.07l1.43,2.13h-1.22Zm-.29-1c1,0,1.55-.42,1.55-1.28s-.57-1.24-1.55-1.24H133.3v2.52Z"/><path d="M138.81,190.58v-6.37h1.07v6.37Z"/><path d="M145.87,184.82l-.44,1a3.8,3.8,0,0,0-1.86-.6c-.63,0-1,.24-1,.67,0,1.39,3.44.64,3.43,2.94,0,1.13-1,1.83-2.4,1.83a4,4,0,0,1-2.61-1l.47-.92a3.33,3.33,0,0,0,2.15.92c.75,0,1.2-.28,1.2-.77,0-1.42-3.44-.63-3.44-2.89,0-1.09.94-1.78,2.32-1.78A4.15,4.15,0,0,1,145.87,184.82Z"/><path d="M152.45,185.16l-.62.79a2.51,2.51,0,0,0-1.78-.81,2.24,2.24,0,1,0,0,4.48,2.67,2.67,0,0,0,1.78-.75l.63.71a3.62,3.62,0,0,1-2.46,1,3.22,3.22,0,1,1,0-6.44A3.52,3.52,0,0,1,152.45,185.16Z"/><path d="M159.64,187.39a3.38,3.38,0,1,1-3.37-3.21A3.26,3.26,0,0,1,159.64,187.39Zm-5.66,0a2.29,2.29,0,0,0,2.3,2.27,2.26,2.26,0,1,0-2.3-2.27Z"/><path d="M165.11,184.82l-.45,1a3.8,3.8,0,0,0-1.86-.6c-.63,0-1,.24-1,.67,0,1.39,3.44.64,3.43,2.94,0,1.13-1,1.83-2.4,1.83a3.93,3.93,0,0,1-2.6-1l.46-.92a3.37,3.37,0,0,0,2.16.92c.75,0,1.19-.28,1.19-.77,0-1.42-3.44-.63-3.44-2.89,0-1.09.94-1.78,2.32-1.78A4.16,4.16,0,0,1,165.11,184.82Z"/><path class="cls-7" d="M125.33,473.69v1.05h-6.09v-8.4h5.92v1h-4.72V470h4.21v1h-4.21v2.71Z"/><path class="cls-7" d="M127.11,465.84h1.15v8.9h-1.15Z"/><path class="cls-7" d="M136.18,471.94H131a2.16,2.16,0,0,0,2.31,1.86,2.36,2.36,0,0,0,1.83-.77l.64.75a3.47,3.47,0,0,1-5.93-2.22,3.12,3.12,0,0,1,3.19-3.24,3.06,3.06,0,0,1,3.14,3.27C136.2,471.69,136.19,471.83,136.18,471.94Zm-5.16-.83h4.08a2.05,2.05,0,0,0-4.08,0Z"/><path class="cls-7" d="M143.31,468.38l-2.79,6.36h-1.17l-2.78-6.36h1.2l2.18,5.1,2.23-5.1Z"/><path class="cls-7" d="M149.22,470.9v3.84h-1.09v-.84a2.36,2.36,0,0,1-2.08.91c-1.44,0-2.36-.77-2.36-1.87s.66-1.86,2.56-1.86h1.82v-.23c0-1-.56-1.53-1.7-1.53a3.23,3.23,0,0,0-2,.68l-.48-.86a4.23,4.23,0,0,1,2.63-.82C148.24,468.32,149.22,469.16,149.22,470.9Zm-1.15,1.89v-.88H146.3c-1.14,0-1.47.44-1.47,1s.53,1,1.41,1A1.85,1.85,0,0,0,148.07,472.79Z"/><path class="cls-7" d="M157.39,465.84v8.9h-1.1v-1a2.68,2.68,0,0,1-2.27,1.08,3.25,3.25,0,0,1,0-6.49,2.71,2.71,0,0,1,2.22,1v-3.5Zm-1.14,5.72a2.14,2.14,0,1,0-4.28,0,2.14,2.14,0,1,0,4.28,0Z"/><path class="cls-7" d="M159,471.56a3.3,3.3,0,1,1,3.3,3.25A3.16,3.16,0,0,1,159,471.56Zm5.44,0a2.14,2.14,0,1,0-2.14,2.24A2.08,2.08,0,0,0,164.44,471.56Z"/><path class="cls-7" d="M170.62,468.32v1.11h-.26a1.9,1.9,0,0,0-2,2.15v3.17H167.2v-6.36h1.11v1.07A2.4,2.4,0,0,1,170.62,468.32Z"/><circle class="cls-21" cx="95.85" cy="471.04" r="13.58"/><circle class="cls-22" cx="95.85" cy="471.04" r="13.09"/><path d="M100.51,477H91.18a.36.36,0,0,1-.36-.36V465.5a.36.36,0,0,1,.36-.36h9.33a.36.36,0,0,1,.36.36v11.13A.36.36,0,0,1,100.51,477Zm-9.26-.43h9.19v-11H91.25Z"/><path d="M99.65,477H92a.36.36,0,0,1-.36-.36V466.3a.36.36,0,0,1,.36-.36h7.63a.36.36,0,0,1,.36.36v10.33A.36.36,0,0,1,99.65,477Zm-7.56-.43h7.49V466.38H92.09Z"/><path d="M96.6,470.79H95.23a.33.33,0,0,1-.28-.16.32.32,0,0,1,0-.33l.69-1.18a.31.31,0,0,1,.28-.16.33.33,0,0,1,.28.16l.68,1.18a.33.33,0,0,1,0,.33A.32.32,0,0,1,96.6,470.79Zm-1.18-.43h1l-.49-.86Zm.4-1.13h0Z"/><path d="M95.92,473.18a.31.31,0,0,1-.28-.16L95,471.84a.32.32,0,0,1,0-.33.33.33,0,0,1,.28-.16H96.6a.32.32,0,0,1,.28.16.33.33,0,0,1,0,.33L96.2,473A.33.33,0,0,1,95.92,473.18Zm-.5-1.4.5.86.49-.86Z"/></g></svg>