<svg xmlns="http://www.w3.org/2000/svg" viewBox="0 0 840.62 581.44"><defs><style>.cls-1{fill:#c2bcb6;}.cls-2{fill:#ff9100;}.cls-16,.cls-2,.cls-21{opacity:0.6;}.cls-3{fill:#fd9a63;}.cls-4{fill:#bbd17b;}.cls-10,.cls-11,.cls-4,.cls-5,.cls-6{opacity:0.7;}.cls-5{fill:#d0e09f;}.cls-14,.cls-20,.cls-7{fill:#fff;}.cls-13,.cls-15,.cls-16,.cls-18,.cls-21,.cls-8{fill:none;}.cls-8{stroke:#999;stroke-width:3px;}.cls-13,.cls-14,.cls-15,.cls-16,.cls-18,.cls-20,.cls-21,.cls-8{stroke-miterlimit:10;}.cls-9{fill:#fd6714;}.cls-10{fill:#e1f5a4;}.cls-11{fill:#a7c05f;}.cls-12{fill:#a5a09f;}.cls-13{stroke:#c2bcb6;}.cls-14{stroke:#c3e06f;}.cls-15{stroke:#fd9a63;}.cls-16{stroke:#a7c05f;}.cls-17{opacity:0.3;}.cls-18{stroke:#888f88;}.cls-19{fill:#888f88;}.cls-20{stroke:#fd6714;}.cls-21{stroke:#ff9100;}</style></defs><g id="Layer_7" data-name="Layer 7"><rect class="cls-1" x="291.81" y="13.83" width="531.83" height="349.4"/><path class="cls-1" d="M823.64,363.29V484.81H563.35V363.92S823.64,363.35,823.64,363.29Z"/><rect class="cls-2" x="79.95" y="490.92" width="162.13" height="31.34" rx="15.67"/><rect class="cls-2" x="237.15" y="214.12" width="52.77" height="54.47"/><rect class="cls-2" x="237.15" y="307.02" width="52.89" height="54.63"/><polygon class="cls-3" points="132.05 95.26 132.05 268.08 237.2 268.08 237.2 268.59 290.04 268.59 290.04 307.02 237.2 307.02 237.2 363.23 78.83 363.23 78.83 13.82 290.24 13.82 290.24 95.26 132.05 95.26"/><rect class="cls-4" x="518.38" y="303.62" width="65.77" height="0.19"/><rect class="cls-4" x="452.18" y="303.62" width="66.2" height="0.19"/><rect class="cls-4" x="385.81" y="303.62" width="66.37" height="0.19"/><rect class="cls-5" x="584.15" y="303.62" width="64.92" height="0.19"/><g class="cls-6"><polygon class="cls-7" points="320.7 363.31 254.66 363.31 254.66 363.5 320.7 363.5 320.7 363.31 320.7 363.31"/></g><g class="cls-6"><polygon class="cls-7" points="385.79 363.31 320.71 363.31 320.71 363.5 385.79 363.5 385.79 363.31 385.79 363.31"/></g><g class="cls-6"><polygon class="cls-7" points="518.38 363.31 452.18 363.31 452.18 363.5 518.38 363.5 518.38 363.31 518.38 363.31"/></g><g class="cls-6"><polygon class="cls-7" points="584.4 363.31 518.2 363.31 518.2 363.5 584.4 363.5 584.4 363.31 584.4 363.31"/></g><g class="cls-6"><polygon class="cls-7" points="452.18 363.31 385.81 363.31 385.81 363.5 452.18 363.5 452.18 363.31 452.18 363.31"/></g><g class="cls-6"><polygon class="cls-7" points="649.07 363.31 584.15 363.31 584.15 363.5 649.07 363.5 649.07 363.31 649.07 363.31"/></g><rect class="cls-8" x="78.83" y="13.83" width="744.81" height="349.4"/><path class="cls-8" d="M823.64,363.29V484.81H563.35V363.92S823.64,363.35,823.64,363.29Z"/><rect class="cls-8" x="78.83" y="13.83" width="211.87" height="349.4"/><polygon class="cls-9" points="179.27 148.27 179.27 215.08 237.28 215.08 237.28 268.08 129.45 268.08 129.45 95.26 289.28 95.26 289.28 148.27 179.27 148.27"/><path class="cls-10" d="M264.24,198.08H203.88V165.27h60.36Z"/><path class="cls-9" d="M82.69,301.9h31.45a25.5,25.5,0,0,1,25.5,25.5v30.27a0,0,0,0,1,0,0h-57a0,0,0,0,1,0,0V301.9A0,0,0,0,1,82.69,301.9Z"/><path class="cls-9" d="M82.1,19.61h31.45a25.5,25.5,0,0,1,25.5,25.5V75.38a0,0,0,0,1,0,0h-57a0,0,0,0,1,0,0V19.61A0,0,0,0,1,82.1,19.61Z" transform="translate(158.07 -63.08) rotate(90)"/><path class="cls-11" d="M179.27,149.27v64.81h110V149.27Zm85,48.81H203.88V165.27h60.36Z"/><rect class="cls-12" x="203.88" y="165.27" width="60.36" height="32.81"/><circle class="cls-7" cx="109.66" cy="43.63" r="13.09"/><path d="M102.44,40.08v7.13H101V40.08H98.37V38.81h6.73v1.27Z"/><path d="M112.68,43c0,2.72-1.27,4.23-3.56,4.23s-3.57-1.51-3.57-4.23,1.27-4.23,3.57-4.23S112.68,40.29,112.68,43ZM107,43c0,2.12.7,3.12,2.12,3.12s2.11-1,2.11-3.12-.71-3.12-2.11-3.12S107,40.87,107,43Z"/><path d="M119.6,40.92a1.93,1.93,0,0,1-1.25,1.8A2.24,2.24,0,0,1,120,44.86c0,1.5-1.25,2.41-3.24,2.41s-3.23-.91-3.23-2.39a2.25,2.25,0,0,1,1.73-2.16A2,2,0,0,1,114,40.87c0-1.31,1.09-2.12,2.81-2.12S119.6,39.58,119.6,40.92Zm-4.71,3.81c0,.91.69,1.42,1.89,1.42s1.89-.51,1.89-1.42-.69-1.4-1.89-1.4S114.89,43.85,114.89,44.73Zm.28-3.72c0,.78.6,1.22,1.61,1.22s1.6-.44,1.6-1.22-.58-1.24-1.6-1.24S115.17,40.23,115.17,41Z"/><circle class="cls-7" cx="109.66" cy="328.97" r="13.09"/><path d="M102.5,325.42v7.13h-1.41v-7.13H98.44v-1.27h6.73v1.27Z"/><path d="M112.75,328.35c0,2.72-1.27,4.23-3.56,4.23s-3.58-1.51-3.58-4.23,1.27-4.23,3.58-4.23S112.75,325.63,112.75,328.35Zm-5.69,0c0,2.12.71,3.12,2.13,3.12s2.11-1,2.11-3.12-.71-3.12-2.11-3.12S107.06,326.21,107.06,328.35Z"/><path d="M113.83,332l.55-1.07a3.56,3.56,0,0,0,1.86.53c1.63,0,2.39-1.22,2.34-3a2.44,2.44,0,0,1-2.29,1.18,2.49,2.49,0,0,1-2.7-2.67,2.7,2.7,0,0,1,3-2.82c2.13,0,3.42,1.51,3.42,4.09s-1.4,4.43-3.62,4.43A5.63,5.63,0,0,1,113.83,332Zm4.52-5.1a1.57,1.57,0,0,0-1.74-1.56,1.54,1.54,0,0,0-1.7,1.61,1.48,1.48,0,0,0,1.64,1.55A1.62,1.62,0,0,0,118.35,326.87Z"/><circle class="cls-7" cx="264.16" cy="121.12" r="13.09"/><path d="M257,117.57v7.13h-1.42v-7.13h-2.65V116.3h6.73v1.27Z"/><path d="M267.24,120.5c0,2.72-1.27,4.23-3.56,4.23s-3.57-1.51-3.57-4.23,1.27-4.24,3.57-4.24S267.24,117.78,267.24,120.5Zm-5.68,0c0,2.12.71,3.12,2.12,3.12s2.11-1,2.11-3.12-.71-3.12-2.11-3.12S261.56,118.36,261.56,120.5Z"/><path d="M274.29,116.88l-.55,1.06a3.64,3.64,0,0,0-1.86-.52c-1.63,0-2.39,1.22-2.34,3a2.45,2.45,0,0,1,2.29-1.19,2.5,2.5,0,0,1,2.7,2.68,2.7,2.7,0,0,1-2.95,2.82c-2.13,0-3.42-1.52-3.42-4.09s1.4-4.43,3.62-4.43A5.5,5.5,0,0,1,274.29,116.88ZM269.77,122a1.56,1.56,0,0,0,1.73,1.56,1.54,1.54,0,0,0,1.71-1.6,1.48,1.48,0,0,0-1.64-1.55A1.62,1.62,0,0,0,269.77,122Z"/><circle class="cls-7" cx="209.9" cy="121.12" r="13.09"/><path d="M203,117.57v7.13h-1.42v-7.13H198.9V116.3h6.73v1.27Z"/><path d="M213.21,120.5c0,2.72-1.27,4.23-3.56,4.23s-3.58-1.51-3.58-4.23,1.28-4.24,3.58-4.24S213.21,117.78,213.21,120.5Zm-5.68,0c0,2.12.7,3.12,2.12,3.12s2.11-1,2.11-3.12-.71-3.12-2.11-3.12S207.53,118.36,207.53,120.5Z"/><path d="M215.81,117.57v1.81H217c1.82,0,3,1.08,3,2.56a2.79,2.79,0,0,1-3.11,2.81,5.55,5.55,0,0,1-3-1l.57-1.15a3.61,3.61,0,0,0,2.26.89c1.09,0,1.75-.56,1.75-1.51s-.66-1.38-1.73-1.38c-.51,0-1.65.05-2.21.11V116.3h5.11v1.27Z"/><circle class="cls-7" cx="154.41" cy="121.12" r="13.09"/><path d="M147.35,117.57v7.13h-1.42v-7.13h-2.65V116.3H150v1.27Z"/><path d="M157.59,120.5c0,2.72-1.27,4.23-3.56,4.23s-3.57-1.51-3.57-4.23,1.27-4.24,3.57-4.24S157.59,117.78,157.59,120.5Zm-5.68,0c0,2.12.71,3.12,2.12,3.12s2.11-1,2.11-3.12-.7-3.12-2.11-3.12S151.91,118.36,151.91,120.5Z"/><path d="M162.3,121.37v-2h1.32v2h1.22v1.26h-1.22v2.07H162.3v-2.07h-4v-1l2.87-5.28h1.37l-2.72,5.07Z"/><circle class="cls-7" cx="154.41" cy="181.07" r="13.09"/><path d="M147.71,177.52v7.13h-1.42v-7.13h-2.65v-1.27h6.73v1.27Z"/><path d="M158,180.45c0,2.72-1.27,4.23-3.56,4.23s-3.57-1.51-3.57-4.23,1.27-4.23,3.57-4.23S158,177.73,158,180.45Zm-5.68,0c0,2.12.71,3.12,2.12,3.12s2.11-1,2.11-3.12-.7-3.12-2.11-3.12S152.27,178.32,152.27,180.45Z"/><path d="M161.87,179.79a2.28,2.28,0,0,1,2.36,2.26c0,1.57-1.19,2.66-3.06,2.66a4.87,4.87,0,0,1-2.83-.91l.59-1.16a3.15,3.15,0,0,0,2.15.88c1.11,0,1.76-.58,1.76-1.44s-.66-1.38-1.77-1.38H159.9v-.83l2.18-2.35h-3.35v-1.26h5.11v.89l-2.4,2.59Z"/><circle class="cls-7" cx="154.41" cy="239.91" r="13.09"/><path d="M147.41,236.37v7.12H146v-7.12h-2.65V235.1h6.73v1.27Z"/><path d="M157.66,239.3c0,2.72-1.27,4.23-3.56,4.23s-3.58-1.51-3.58-4.23,1.28-4.24,3.58-4.24S157.66,236.57,157.66,239.3Zm-5.68,0c0,2.12.7,3.11,2.12,3.11s2.11-1,2.11-3.11-.71-3.12-2.11-3.12S152,237.16,152,239.3Z"/><path d="M164.13,237.15a4.67,4.67,0,0,1-1.54,2.76l-2.18,2.31h4.1v1.27h-6v-1l3.09-3.32a3,3,0,0,0,1-1.79c0-.67-.52-1.08-1.4-1.08a3.64,3.64,0,0,0-2.29,1.06l-.56-1.09a4.85,4.85,0,0,1,3-1.2C163,235,164.13,235.87,164.13,237.15Z"/><circle class="cls-7" cx="210.61" cy="239.91" r="13.09"/><path d="M204.82,236.37v7.12H203.4v-7.12h-2.65V235.1h6.73v1.27Z"/><path d="M215.07,239.3c0,2.72-1.28,4.23-3.57,4.23s-3.57-1.51-3.57-4.23,1.27-4.24,3.57-4.24S215.07,236.57,215.07,239.3Zm-5.69,0c0,2.12.71,3.11,2.12,3.11s2.11-1,2.11-3.11-.7-3.12-2.11-3.12S209.38,237.16,209.38,239.3Z"/><path d="M217.2,243.49v-7.13h-1.64V235.1h3.06v8.39Z"/><rect class="cls-9" x="79.95" y="419.41" width="162.13" height="31.34" rx="15.67"/><rect class="cls-3" x="79.95" y="455.59" width="162.13" height="31.34" rx="15.67"/><rect class="cls-11" x="251.89" y="419.41" width="162.13" height="31.34" rx="15.67"/><rect class="cls-1" x="251.89" y="455.59" width="162.13" height="31.34" rx="15.67"/><circle class="cls-7" cx="267.78" cy="470.92" r="13.58"/><circle class="cls-13" cx="267.78" cy="470.92" r="13.09"/><path d="M272.87,475.59H261.65a.36.36,0,0,1-.36-.36v-1.7a.36.36,0,0,1,.36-.36h2.41v-1.86a.36.36,0,0,1,.36-.36H267v-1.78a.36.36,0,0,1,.36-.36h2.43V467a.36.36,0,0,1,.36-.36h2.75a.36.36,0,0,1,.36.36v8.25A.36.36,0,0,1,272.87,475.59Zm-11.15-.43H272.8v-8.11h-2.61v1.83a.36.36,0,0,1-.36.36H267.4V471a.36.36,0,0,1-.36.36h-2.55v1.86a.36.36,0,0,1-.36.36h-2.41Z"/><path d="M260.55,471.32a.2.2,0,0,1-.17-.09.22.22,0,0,1,0-.3l8.91-6.62a.31.31,0,0,1,.21-.07h2.29a.21.21,0,0,1,.22.21.22.22,0,0,1-.22.22h-2.27l-8.88,6.61A.2.2,0,0,1,260.55,471.32Z"/><path d="M262.6,473.6a.22.22,0,0,1-.22-.22V469.6a.22.22,0,0,1,.22-.22.21.21,0,0,1,.21.22v3.78A.21.21,0,0,1,262.6,473.6Z"/><path d="M271.63,467.05a.22.22,0,0,1-.22-.22v-2.38a.22.22,0,0,1,.44,0v2.38A.22.22,0,0,1,271.63,467.05Z"/><circle class="cls-7" cx="207.82" cy="339.61" r="13.58"/><circle class="cls-13" cx="207.82" cy="339.61" r="13.09"/><path d="M212.91,344.28H201.69a.36.36,0,0,1-.36-.36v-1.7a.36.36,0,0,1,.36-.36h2.4V340a.36.36,0,0,1,.36-.36H207v-1.78a.36.36,0,0,1,.36-.36h2.43v-1.83a.36.36,0,0,1,.36-.36h2.75a.36.36,0,0,1,.36.36v8.25A.36.36,0,0,1,212.91,344.28Zm-11.15-.43h11.08v-8.11h-2.61v1.83a.36.36,0,0,1-.36.36h-2.43v1.78a.36.36,0,0,1-.36.36h-2.56v1.86a.36.36,0,0,1-.36.36h-2.4Z"/><path d="M200.59,340a.22.22,0,0,1-.13-.39l8.9-6.62a.34.34,0,0,1,.22-.07h2.29a.21.21,0,0,1,.22.21.22.22,0,0,1-.22.22H209.6L200.71,340A.17.17,0,0,1,200.59,340Z"/><path d="M202.63,342.29a.21.21,0,0,1-.21-.22v-3.78a.21.21,0,0,1,.21-.22.22.22,0,0,1,.22.22v3.78A.22.22,0,0,1,202.63,342.29Z"/><path d="M211.67,335.74a.22.22,0,0,1-.22-.22v-2.38a.21.21,0,0,1,.22-.21.21.21,0,0,1,.21.21v2.38A.22.22,0,0,1,211.67,335.74Z"/><path class="cls-7" d="M115.89,430.28h1.2v7.35h4.54v1h-5.74Z"/><path class="cls-7" d="M122.18,435.5a3.3,3.3,0,1,1,3.31,3.25A3.16,3.16,0,0,1,122.18,435.5Zm5.44,0a2.14,2.14,0,1,0-4.28,0,2.14,2.14,0,1,0,4.28,0Z"/><path class="cls-7" d="M129.8,435.5a3.17,3.17,0,0,1,3.35-3.24,2.84,2.84,0,0,1,2.59,1.35l-.87.57a2,2,0,0,0-1.73-.91,2.24,2.24,0,0,0,0,4.47,2,2,0,0,0,1.73-.91l.87.55a2.84,2.84,0,0,1-2.59,1.37A3.18,3.18,0,0,1,129.8,435.5Z"/><path class="cls-7" d="M142.27,434.84v3.83h-1.09v-.84a2.35,2.35,0,0,1-2.09.92c-1.44,0-2.35-.77-2.35-1.87s.66-1.86,2.56-1.86h1.82v-.23c0-1-.56-1.54-1.7-1.54a3.24,3.24,0,0,0-2,.69l-.48-.87a4.29,4.29,0,0,1,2.63-.81C141.29,432.26,142.27,433.1,142.27,434.84Zm-1.15,1.89v-.89h-1.77c-1.14,0-1.47.45-1.47,1s.53,1,1.41,1A1.85,1.85,0,0,0,141.12,436.73Z"/><path class="cls-7" d="M144.41,429.78h1.15v8.89h-1.15Z"/><path class="cls-7" d="M153.48,435.88h-5.16a2.16,2.16,0,0,0,2.31,1.86,2.36,2.36,0,0,0,1.83-.77l.64.74a3.46,3.46,0,0,1-5.93-2.21,3.11,3.11,0,0,1,3.19-3.24,3.06,3.06,0,0,1,3.14,3.27C153.5,435.63,153.49,435.77,153.48,435.88Zm-5.16-.83h4.08a2.05,2.05,0,0,0-4.08,0Z"/><path class="cls-7" d="M154.3,438l.48-.91a4,4,0,0,0,2.23.66c1.07,0,1.51-.32,1.51-.86,0-1.43-4-.19-4-2.73,0-1.13,1-1.9,2.65-1.9a4.63,4.63,0,0,1,2.32.57l-.49.92a3.27,3.27,0,0,0-1.84-.51c-1,0-1.5.37-1.5.88,0,1.5,4,.27,4,2.74,0,1.15-1,1.89-2.74,1.89A4.59,4.59,0,0,1,154.3,438Z"/><path class="cls-7" d="M166.18,431.32H163.3v-1h6.94v1h-2.88v7.35h-1.18Z"/><path class="cls-7" d="M170.63,434.48c0-2.74,1.46-4.3,3.43-4.3s3.42,1.56,3.42,4.3-1.46,4.29-3.42,4.29S170.63,437.21,170.63,434.48Zm5.65,0c0-2.15-.91-3.23-2.22-3.23s-2.23,1.08-2.23,3.23.91,3.22,2.23,3.22S176.28,436.62,176.28,434.48Z"/><path class="cls-7" d="M181.2,430.28v8.39H180v-7.35h-1.89v-1Z"/><path class="cls-7" d="M183.15,434.88h3.22v1h-3.22Z"/><path class="cls-7" d="M189.59,431.32h-2.88v-1h6.94v1h-2.87v7.35h-1.19Z"/><path class="cls-7" d="M194,434.48c0-2.74,1.47-4.3,3.43-4.3s3.42,1.56,3.42,4.3-1.46,4.29-3.42,4.29S194,437.21,194,434.48Zm5.65,0c0-2.15-.91-3.23-2.22-3.23s-2.23,1.08-2.23,3.23.91,3.22,2.23,3.22S199.69,436.62,199.69,434.48Z"/><path class="cls-7" d="M208.3,434.37c0,2.87-1.62,4.4-4,4.4a4.09,4.09,0,0,1-2.09-.49l.45-.94a3,3,0,0,0,1.62.4c1.71,0,2.79-1.07,2.79-3.17v-.3a2.83,2.83,0,0,1-2.43,1.11,2.59,2.59,0,0,1-2.86-2.55,2.7,2.7,0,0,1,3-2.65C207,430.18,208.3,431.69,208.3,434.37Zm-1.48-1.6c0-.86-.7-1.62-2-1.62a1.66,1.66,0,0,0-1.85,1.64c0,1,.73,1.61,1.91,1.61A1.74,1.74,0,0,0,206.82,432.77Z"/><path d="M297.27,473.72v1h-6.1v-8.4h5.93v1h-4.73V470h4.21v1h-4.21v2.71Z"/><path d="M298.16,474.1l.48-.92a4,4,0,0,0,2.23.66c1.07,0,1.51-.32,1.51-.86,0-1.43-4-.19-4-2.72,0-1.14,1-1.91,2.65-1.91a4.63,4.63,0,0,1,2.32.58l-.49.91a3.38,3.38,0,0,0-1.84-.51c-1,0-1.5.38-1.5.88,0,1.5,4,.27,4,2.75,0,1.15-1,1.88-2.74,1.88A4.67,4.67,0,0,1,298.16,474.1Z"/><path d="M304.39,471.59a3.17,3.17,0,0,1,3.35-3.24,2.86,2.86,0,0,1,2.6,1.36l-.88.56a2,2,0,0,0-1.73-.91,2.24,2.24,0,0,0,0,4.47,2,2,0,0,0,1.73-.91l.88.55a2.86,2.86,0,0,1-2.6,1.37A3.18,3.18,0,0,1,304.39,471.59Z"/><path d="M316.86,470.93v3.84h-1.09v-.84a2.36,2.36,0,0,1-2.08.91c-1.44,0-2.36-.77-2.36-1.87s.66-1.86,2.56-1.86h1.82v-.23c0-1-.56-1.53-1.7-1.53a3.23,3.23,0,0,0-2,.68l-.48-.86a4.23,4.23,0,0,1,2.63-.82C315.88,468.35,316.86,469.19,316.86,470.93Zm-1.15,1.89v-.88h-1.77c-1.14,0-1.47.44-1.47,1s.53,1,1.41,1A1.83,1.83,0,0,0,315.71,472.82Z"/><path d="M319,465.87h1.15v8.9H319Z"/><path d="M328.07,472h-5.16a2.16,2.16,0,0,0,2.31,1.86,2.36,2.36,0,0,0,1.83-.77l.64.75a3.47,3.47,0,0,1-5.93-2.22,3.12,3.12,0,0,1,3.19-3.24,3.07,3.07,0,0,1,3.15,3.27C328.1,471.72,328.08,471.86,328.07,472Zm-5.16-.83H327a2.05,2.05,0,0,0-4.08,0Z"/><path d="M333.11,468.35v1.12a1.18,1.18,0,0,0-.26,0,1.9,1.9,0,0,0-2,2.15v3.17h-1.16v-6.36h1.11v1.07A2.41,2.41,0,0,1,333.11,468.35Z"/><path d="M339.56,470.93v3.84h-1.1v-.84a2.36,2.36,0,0,1-2.08.91c-1.44,0-2.35-.77-2.35-1.87s.66-1.86,2.55-1.86h1.82v-.23c0-1-.56-1.53-1.7-1.53a3.18,3.18,0,0,0-2,.68l-.48-.86a4.2,4.2,0,0,1,2.62-.82C338.57,468.35,339.56,469.19,339.56,470.93Zm-1.16,1.89v-.88h-1.77c-1.14,0-1.46.44-1.46,1s.52,1,1.4,1A1.82,1.82,0,0,0,338.4,472.82Z"/><path d="M340.89,474.1l.48-.92a4,4,0,0,0,2.23.66c1.07,0,1.51-.32,1.51-.86,0-1.43-4-.19-4-2.72,0-1.14,1-1.91,2.65-1.91a4.63,4.63,0,0,1,2.32.58l-.49.91a3.35,3.35,0,0,0-1.84-.51c-1,0-1.5.38-1.5.88,0,1.5,4,.27,4,2.75,0,1.15-1.05,1.88-2.74,1.88A4.67,4.67,0,0,1,340.89,474.1Z"/><path d="M296.52,436.05h-4.46l-.92,2.1H289.9l3.8-8.4h1.19l3.82,8.4h-1.26Zm-.42-1L294.29,431l-1.81,4.12Zm-1.62-6H293.4l1.64-1.56h1.46Z"/><path d="M303.21,431.73v1.12a1.27,1.27,0,0,0-.27,0,1.9,1.9,0,0,0-2,2.15v3.17h-1.15v-6.36h1.1v1.07A2.42,2.42,0,0,1,303.21,431.73Z"/><path d="M310.29,435.35h-5.16a2.14,2.14,0,0,0,2.3,1.86,2.37,2.37,0,0,0,1.84-.77l.63.75A3.46,3.46,0,0,1,304,435a3.11,3.11,0,0,1,3.19-3.24,3.07,3.07,0,0,1,3.14,3.27C310.31,435.1,310.3,435.24,310.29,435.35Zm-5.16-.83h4.08a2.05,2.05,0,0,0-4.08,0Z"/><path d="M316.77,434.31v3.84h-1.09v-.84a2.39,2.39,0,0,1-2.09.91c-1.44,0-2.35-.77-2.35-1.87s.66-1.86,2.55-1.86h1.83v-.23c0-1-.57-1.53-1.71-1.53a3.2,3.2,0,0,0-2,.68l-.48-.86a4.23,4.23,0,0,1,2.63-.82C315.78,431.73,316.77,432.57,316.77,434.31Zm-1.15,1.89v-.88h-1.78c-1.14,0-1.46.44-1.46,1s.53,1,1.4,1A1.84,1.84,0,0,0,315.62,436.2Z"/><path d="M318.1,437.48l.48-.92a4.05,4.05,0,0,0,2.23.66c1.07,0,1.51-.32,1.51-.86,0-1.43-4-.19-4-2.72,0-1.14,1-1.91,2.65-1.91a4.62,4.62,0,0,1,2.31.58l-.49.91a3.35,3.35,0,0,0-1.84-.51c-1,0-1.49.38-1.49.88,0,1.5,4,.27,4,2.75,0,1.15-1.06,1.88-2.75,1.88A4.67,4.67,0,0,1,318.1,437.48Z"/><path d="M333.77,431.79,331,438.15h-1.18L327,431.79h1.2l2.18,5.1,2.23-5.1Z"/><path d="M340.39,435.35h-5.15a2.14,2.14,0,0,0,2.3,1.86,2.38,2.38,0,0,0,1.84-.77l.63.75a3.46,3.46,0,0,1-5.92-2.22,3.11,3.11,0,0,1,3.19-3.24,3.07,3.07,0,0,1,3.14,3.27A2.16,2.16,0,0,1,340.39,435.35Zm-5.15-.83h4.08a2,2,0,0,0-2-1.82A2,2,0,0,0,335.24,434.52Z"/><path d="M345.44,431.73v1.12a1.27,1.27,0,0,0-.27,0,1.9,1.9,0,0,0-2,2.15v3.17H342v-6.36h1.1v1.07A2.42,2.42,0,0,1,345.44,431.73Z"/><path d="M352.79,429.25v8.9h-1.1v-1a2.69,2.69,0,0,1-2.27,1.08,3.25,3.25,0,0,1,0-6.49,2.72,2.72,0,0,1,2.22,1v-3.5ZM351.65,435a2.14,2.14,0,1,0-2.13,2.24A2.09,2.09,0,0,0,351.65,435Z"/><path d="M360.7,435.35h-5.16a2.16,2.16,0,0,0,2.3,1.86,2.37,2.37,0,0,0,1.84-.77l.64.75a3.47,3.47,0,0,1-5.93-2.22,3.12,3.12,0,0,1,3.19-3.24,3.06,3.06,0,0,1,3.14,3.27C360.72,435.1,360.71,435.24,360.7,435.35Zm-5.16-.83h4.08a2.05,2.05,0,0,0-4.08,0Z"/><path d="M361.52,437.48l.48-.92a4,4,0,0,0,2.23.66c1.07,0,1.51-.32,1.51-.86,0-1.43-4-.19-4-2.72,0-1.14,1-1.91,2.65-1.91a4.63,4.63,0,0,1,2.32.58l-.49.91a3.38,3.38,0,0,0-1.84-.51c-1,0-1.5.38-1.5.88,0,1.5,4,.27,4,2.75,0,1.15-1.05,1.88-2.74,1.88A4.67,4.67,0,0,1,361.52,437.48Z"/><path class="cls-7" d="M121.24,472.67h-4.46l-.93,2.1h-1.23l3.8-8.4h1.19l3.81,8.4h-1.26Zm-.42-1L119,467.59l-1.82,4.12Zm-1.62-6h-1.08l1.63-1.56h1.46Z"/><path class="cls-7" d="M127.92,468.35v1.12a1.23,1.23,0,0,0-.26,0,1.9,1.9,0,0,0-2,2.15v3.17H124.5v-6.36h1.11v1.07A2.41,2.41,0,0,1,127.92,468.35Z"/><path class="cls-7" d="M135,472h-5.16a2.16,2.16,0,0,0,2.31,1.86,2.36,2.36,0,0,0,1.83-.77l.64.75a3.47,3.47,0,0,1-5.93-2.22,3.12,3.12,0,0,1,3.19-3.24,3.06,3.06,0,0,1,3.14,3.27C135,471.72,135,471.86,135,472Zm-5.16-.83h4.08a2.05,2.05,0,0,0-4.08,0Z"/><path class="cls-7" d="M141.48,470.93v3.84h-1.09v-.84a2.38,2.38,0,0,1-2.09.91c-1.44,0-2.35-.77-2.35-1.87s.66-1.86,2.56-1.86h1.82v-.23c0-1-.56-1.53-1.7-1.53a3.21,3.21,0,0,0-2,.68l-.48-.86a4.23,4.23,0,0,1,2.63-.82C140.5,468.35,141.48,469.19,141.48,470.93Zm-1.15,1.89v-.88h-1.78c-1.14,0-1.46.44-1.46,1s.53,1,1.4,1A1.84,1.84,0,0,0,140.33,472.82Z"/><path class="cls-7" d="M152.84,465.87v8.9h-1.1v-1a2.69,2.69,0,0,1-2.27,1.08,3.25,3.25,0,0,1,0-6.49,2.72,2.72,0,0,1,2.22,1v-3.5Zm-1.14,5.72a2.14,2.14,0,1,0-4.28,0,2.14,2.14,0,1,0,4.28,0Z"/><path class="cls-7" d="M160.75,472h-5.16a2.16,2.16,0,0,0,2.31,1.86,2.36,2.36,0,0,0,1.83-.77l.64.75a3.47,3.47,0,0,1-5.93-2.22,3.12,3.12,0,0,1,3.19-3.24,3.07,3.07,0,0,1,3.15,3.27C160.78,471.72,160.76,471.86,160.75,472Zm-5.16-.83h4.08a2.05,2.05,0,0,0-4.08,0Z"/><path class="cls-7" d="M176.16,471.11v3.66H175v-3.53c0-1.25-.6-1.86-1.65-1.86s-1.9.73-1.9,2.11v3.28H170.3v-3.53c0-1.25-.6-1.86-1.64-1.86a1.85,1.85,0,0,0-1.91,2.11v3.28H165.6v-6.36h1.11v.95a2.56,2.56,0,0,1,2.19-1,2.35,2.35,0,0,1,2.21,1.18,2.87,2.87,0,0,1,2.44-1.18A2.44,2.44,0,0,1,176.16,471.11Z"/><path class="cls-7" d="M184,472h-5.15a2.14,2.14,0,0,0,2.3,1.86,2.34,2.34,0,0,0,1.83-.77l.64.75a3.47,3.47,0,0,1-5.93-2.22,3.12,3.12,0,0,1,3.19-3.24,3.07,3.07,0,0,1,3.15,3.27A2.16,2.16,0,0,1,184,472Zm-5.15-.83H183a2,2,0,0,0-4.07,0Z"/><path class="cls-7" d="M184.86,474.1l.48-.92a4.05,4.05,0,0,0,2.23.66c1.07,0,1.51-.32,1.51-.86,0-1.43-4-.19-4-2.72,0-1.14,1-1.91,2.65-1.91a4.62,4.62,0,0,1,2.31.58l-.49.91a3.35,3.35,0,0,0-1.84-.51c-1,0-1.49.38-1.49.88,0,1.5,4,.27,4,2.75,0,1.15-1.06,1.88-2.75,1.88A4.67,4.67,0,0,1,184.86,474.1Z"/><path class="cls-7" d="M196.71,470.93v3.84h-1.09v-.84a2.36,2.36,0,0,1-2.08.91c-1.44,0-2.35-.77-2.35-1.87s.66-1.86,2.55-1.86h1.82v-.23c0-1-.56-1.53-1.7-1.53a3.2,3.2,0,0,0-2,.68l-.48-.86a4.2,4.2,0,0,1,2.62-.82C195.73,468.35,196.71,469.19,196.71,470.93Zm-1.15,1.89v-.88h-1.77c-1.14,0-1.46.44-1.46,1s.52,1,1.4,1A1.82,1.82,0,0,0,195.56,472.82Z"/><path class="cls-7" d="M198.05,474.1l.48-.92a4,4,0,0,0,2.23.66c1.07,0,1.51-.32,1.51-.86,0-1.43-4-.19-4-2.72,0-1.14,1-1.91,2.65-1.91a4.63,4.63,0,0,1,2.32.58l-.49.91a3.35,3.35,0,0,0-1.84-.51c-1,0-1.5.38-1.5.88,0,1.5,4,.27,4,2.75,0,1.15-1,1.88-2.74,1.88A4.67,4.67,0,0,1,198.05,474.1Z"/><circle class="cls-14" cx="96" cy="471.42" r="13.09"/><circle class="cls-7" cx="96" cy="471.43" r="13.58"/><circle class="cls-15" cx="96" cy="471.43" r="13.09"/><path d="M96,477a.21.21,0,0,1-.21-.22v-7.35a.21.21,0,0,1,.21-.21.21.21,0,0,1,.22.21v7.35A.22.22,0,0,1,96,477Z"/><path d="M99.66,469.67H92.47a.22.22,0,0,1-.22-.22.21.21,0,0,1,.22-.21h7.19a.21.21,0,0,1,.22.21A.22.22,0,0,1,99.66,469.67Z"/><path d="M94.16,477a.21.21,0,0,1-.21-.22v-5.05H90.06a.22.22,0,0,1,0-.44h4a.36.36,0,0,1,.36.36v5.13A.22.22,0,0,1,94.16,477Z"/><path d="M97.83,477a.21.21,0,0,1-.21-.22v-5.13a.36.36,0,0,1,.36-.36h4a.22.22,0,0,1,0,.44H98.05v5.05A.22.22,0,0,1,97.83,477Z"/><path d="M90.06,477a.22.22,0,0,1-.21-.22v-7.75a7.87,7.87,0,0,0-.55-2.87.22.22,0,0,1,.41-.16,8.27,8.27,0,0,1,.57,3v7.75A.22.22,0,0,1,90.06,477Z"/><path d="M102,477a.21.21,0,0,1-.21-.22v-7.75a8.27,8.27,0,0,1,.57-3,.22.22,0,0,1,.4.16,7.86,7.86,0,0,0-.54,2.87v7.75A.22.22,0,0,1,102,477Z"/><path d="M94,473.22h-4a.22.22,0,0,1-.21-.22.21.21,0,0,1,.21-.21h4a.21.21,0,0,1,.22.21A.22.22,0,0,1,94,473.22Z"/><path d="M102,473.22H97.91a.22.22,0,0,1-.22-.22.21.21,0,0,1,.22-.21H102a.21.21,0,0,1,.22.21A.22.22,0,0,1,102,473.22Z"/><circle class="cls-14" cx="104.83" cy="243.15" r="13.09"/><circle class="cls-7" cx="104.83" cy="243.16" r="13.58"/><circle class="cls-15" cx="104.83" cy="243.16" r="13.09"/><path d="M104.81,248.74a.22.22,0,0,1-.21-.21v-7.35a.22.22,0,1,1,.43,0v7.35A.22.22,0,0,1,104.81,248.74Z"/><path d="M108.49,241.4H101.3a.22.22,0,0,1,0-.44h7.19a.22.22,0,0,1,0,.44Z"/><path d="M103,248.74a.21.21,0,0,1-.21-.21v-5.06H98.9a.22.22,0,1,1,0-.43h3.95a.36.36,0,0,1,.36.36v5.13A.22.22,0,0,1,103,248.74Z"/><path d="M106.66,248.74a.21.21,0,0,1-.21-.21V243.4a.36.36,0,0,1,.36-.36h4a.22.22,0,1,1,0,.43h-3.88v5.06A.22.22,0,0,1,106.66,248.74Z"/><path d="M98.9,248.74a.22.22,0,0,1-.22-.21v-7.75a7.68,7.68,0,0,0-.55-2.88.22.22,0,0,1,.41-.15,8.27,8.27,0,0,1,.57,3v7.75A.21.21,0,0,1,98.9,248.74Z"/><path d="M110.85,248.74a.21.21,0,0,1-.21-.21v-7.75a8.27,8.27,0,0,1,.57-3,.23.23,0,0,1,.28-.13.21.21,0,0,1,.12.28,7.87,7.87,0,0,0-.54,2.88v7.75A.22.22,0,0,1,110.85,248.74Z"/><path d="M102.86,244.94h-4a.21.21,0,0,1-.22-.21.22.22,0,0,1,.22-.22h4a.21.21,0,0,1,.21.22A.21.21,0,0,1,102.86,244.94Z"/><path d="M110.85,244.94h-4.11a.21.21,0,0,1-.22-.21.22.22,0,0,1,.22-.22h4.11a.22.22,0,0,1,.22.22A.21.21,0,0,1,110.85,244.94Z"/><circle class="cls-14" cx="172.47" cy="304.21" r="13.09"/><circle class="cls-7" cx="172.47" cy="304.21" r="13.58"/><circle class="cls-15" cx="172.47" cy="304.21" r="13.09"/><path d="M172.46,309.8a.22.22,0,0,1-.22-.22v-7.34a.22.22,0,1,1,.44,0v7.34A.22.22,0,0,1,172.46,309.8Z"/><path d="M176.14,302.45h-7.2a.21.21,0,0,1-.21-.21.21.21,0,0,1,.21-.22h7.2a.21.21,0,0,1,.21.22A.21.21,0,0,1,176.14,302.45Z"/><path d="M170.64,309.8a.22.22,0,0,1-.22-.22v-5.05h-3.88a.21.21,0,0,1-.21-.22.21.21,0,0,1,.21-.21h4a.36.36,0,0,1,.36.36v5.12A.22.22,0,0,1,170.64,309.8Z"/><path d="M174.31,309.8a.22.22,0,0,1-.22-.22v-5.12a.36.36,0,0,1,.36-.36h4a.21.21,0,0,1,.21.21.21.21,0,0,1-.21.22h-3.88v5.05A.22.22,0,0,1,174.31,309.8Z"/><path d="M166.54,309.8a.21.21,0,0,1-.21-.22v-7.74a7.88,7.88,0,0,0-.55-2.88.22.22,0,0,1,.12-.28.22.22,0,0,1,.28.12,8.3,8.3,0,0,1,.58,3v7.74A.22.22,0,0,1,166.54,309.8Z"/><path d="M178.5,309.8a.22.22,0,0,1-.22-.22v-7.74a8.3,8.3,0,0,1,.58-3,.22.22,0,0,1,.28-.12.22.22,0,0,1,.12.28,7.87,7.87,0,0,0-.54,2.88v7.74A.22.22,0,0,1,178.5,309.8Z"/><path d="M170.5,306h-4a.21.21,0,0,1-.21-.22.21.21,0,0,1,.21-.21h4a.22.22,0,1,1,0,.43Z"/><path d="M178.5,306h-4.11a.22.22,0,1,1,0-.43h4.11a.22.22,0,1,1,0,.43Z"/><circle class="cls-14" cx="104.83" cy="131.15" r="13.09"/><circle class="cls-7" cx="104.83" cy="131.16" r="13.58"/><circle class="cls-15" cx="104.83" cy="131.16" r="13.09"/><path d="M104.81,136.75a.22.22,0,0,1-.21-.22v-7.34a.22.22,0,1,1,.43,0v7.34A.22.22,0,0,1,104.81,136.75Z"/><path d="M108.49,129.4H101.3a.22.22,0,1,1,0-.43h7.19a.22.22,0,1,1,0,.43Z"/><path d="M103,136.75a.21.21,0,0,1-.21-.22v-5.05H98.9a.22.22,0,0,1-.22-.22.21.21,0,0,1,.22-.21h3.95a.36.36,0,0,1,.36.36v5.12A.22.22,0,0,1,103,136.75Z"/><path d="M106.66,136.75a.21.21,0,0,1-.21-.22v-5.12a.36.36,0,0,1,.36-.36h4a.21.21,0,0,1,.22.21.22.22,0,0,1-.22.22h-3.88v5.05A.22.22,0,0,1,106.66,136.75Z"/><path d="M98.9,136.75a.22.22,0,0,1-.22-.22v-7.75a7.67,7.67,0,0,0-.55-2.87.22.22,0,0,1,.41-.16,8.27,8.27,0,0,1,.57,3v7.75A.21.21,0,0,1,98.9,136.75Z"/><path d="M110.85,136.75a.21.21,0,0,1-.21-.22v-7.75a8.27,8.27,0,0,1,.57-3,.22.22,0,0,1,.28-.12.21.21,0,0,1,.12.28,7.86,7.86,0,0,0-.54,2.87v7.75A.22.22,0,0,1,110.85,136.75Z"/><path d="M102.86,133h-4a.22.22,0,0,1-.22-.22.21.21,0,0,1,.22-.21h4a.21.21,0,0,1,.21.21A.21.21,0,0,1,102.86,133Z"/><path d="M110.85,133h-4.11a.22.22,0,0,1-.22-.22.21.21,0,0,1,.22-.21h4.11a.21.21,0,0,1,.22.21A.22.22,0,0,1,110.85,133Z"/><circle class="cls-14" cx="208.46" cy="54.79" r="13.09"/><circle class="cls-7" cx="208.46" cy="54.79" r="13.58"/><circle class="cls-15" cx="208.46" cy="54.79" r="13.09"/><path d="M208.44,60.38a.22.22,0,0,1-.21-.22V52.82a.22.22,0,1,1,.43,0v7.34A.22.22,0,0,1,208.44,60.38Z"/><path d="M212.12,53h-7.19a.21.21,0,0,1-.22-.21.22.22,0,0,1,.22-.22h7.19a.22.22,0,0,1,.22.22A.21.21,0,0,1,212.12,53Z"/><path d="M206.62,60.38a.21.21,0,0,1-.21-.22v-5h-3.88a.22.22,0,0,1-.22-.22.21.21,0,0,1,.22-.21h3.95a.36.36,0,0,1,.36.36v5.12A.22.22,0,0,1,206.62,60.38Z"/><path d="M210.29,60.38a.21.21,0,0,1-.21-.22V55a.36.36,0,0,1,.36-.36h3.95a.21.21,0,0,1,.22.21.22.22,0,0,1-.22.22h-3.88v5A.22.22,0,0,1,210.29,60.38Z"/><path d="M202.53,60.38a.22.22,0,0,1-.22-.22V52.42a7.68,7.68,0,0,0-.55-2.88.22.22,0,0,1,.41-.16,8.29,8.29,0,0,1,.57,3v7.74A.21.21,0,0,1,202.53,60.38Z"/><path d="M214.48,60.38a.21.21,0,0,1-.21-.22V52.42a8.29,8.29,0,0,1,.57-3,.22.22,0,0,1,.28-.12.21.21,0,0,1,.12.28,7.87,7.87,0,0,0-.54,2.88v7.74A.22.22,0,0,1,214.48,60.38Z"/><path d="M206.49,56.58h-4a.22.22,0,0,1-.22-.22.21.21,0,0,1,.22-.21h4a.21.21,0,0,1,.21.21A.21.21,0,0,1,206.49,56.58Z"/><path d="M214.48,56.58h-4.11a.22.22,0,0,1-.22-.22.21.21,0,0,1,.22-.21h4.11a.21.21,0,0,1,.22.21A.22.22,0,0,1,214.48,56.58Z"/><path class="cls-7" d="M288.28,96.26v52h-109v66.81h57.05v52H130.05V96.26H288.28m1-1H129.05V268.08H237.28v-54H180.23V149.27h109v-54Z"/><path class="cls-7" d="M114.14,302.9a24.53,24.53,0,0,1,24.5,24.5v29.27H83.69V302.9h30.45m0-1H82.69v55.77h56.95V327.4a25.49,25.49,0,0,0-25.5-25.5Z"/><path class="cls-7" d="M137.46,20V50.47A24.53,24.53,0,0,1,113,75H83.69V20h53.77m1-1H82.69V76H113a25.5,25.5,0,0,0,25.5-25.5V19Z"/><path class="cls-7" d="M179.23,96.26V267H130.05V96.26h49.18m1-1H129.05V268h51.18V95.26Z"/><path class="cls-7" d="M288.21,96.26V148H238.33V96.26h49.88m1-1H237.33V149h51.88V95.26Z"/><path class="cls-7" d="M236.33,215.39v51.74H180.14V215.39h56.19m1-1H179.14v53.74h58.19V214.39Z"/><path class="cls-7" d="M236.21,215.32v51.81H130.09V215.32H236.21m1-1H129.09v53.81H237.21V214.32Z"/><path class="cls-7" d="M288.21,96.26V148H130.12V96.26H288.21m1-1H129.12V149H289.21V95.26Z"/><circle class="cls-14" cx="272.45" cy="196.81" r="13.09"/><path d="M269.72,202.47a.21.21,0,0,1-.21-.22v-5.36a.21.21,0,0,1,.21-.22.22.22,0,0,1,.22.22v5.36A.22.22,0,0,1,269.72,202.47Z"/><path d="M269.72,198.81a.21.21,0,0,1-.15-.07l-.81-.83a.22.22,0,0,1,0-.31.21.21,0,0,1,.3,0l.44.45v-.59a.25.25,0,0,1,.05-.15l.55-.58a.21.21,0,0,1,.3,0,.2.2,0,0,1,0,.3l-.48.52v1a.22.22,0,0,1-.14.2Z"/><path d="M273.62,202.47a.22.22,0,0,1-.22-.22v-5.74l-.66-.54a.22.22,0,0,1,.27-.34l.74.61a.21.21,0,0,1,.08.17v5.84A.21.21,0,0,1,273.62,202.47Z"/><path d="M273.62,197l-.08,0a.22.22,0,0,1-.14-.2v-1.33a.21.21,0,0,1,.22-.21.21.21,0,0,1,.21.21v.73l.27-.33a.22.22,0,0,1,.31,0,.22.22,0,0,1,0,.3l-.66.79A.21.21,0,0,1,273.62,197Z"/><path d="M276.05,202.47a.22.22,0,0,1-.22-.22v-3.82a.21.21,0,0,1,.22-.21.21.21,0,0,1,.21.21v3.82A.21.21,0,0,1,276.05,202.47Z"/><path d="M276.05,199.55a.28.28,0,0,1-.17-.07.23.23,0,0,1,0-.31l.61-.54a.22.22,0,0,1,.31,0,.22.22,0,0,1,0,.3l-.61.54A.2.2,0,0,1,276.05,199.55Z"/><path d="M269.56,200.11a2.74,2.74,0,0,1-2.46-3c0-1.69,1.19-5,2.62-5s2.31,3.53,2.31,5A2.75,2.75,0,0,1,269.56,200.11Zm.16-7.55c-1,0-2.19,3-2.19,4.55a2.09,2.09,0,1,0,4.06,0,9.23,9.23,0,0,0-.56-2.91C270.64,193.16,270.17,192.56,269.72,192.56Z"/><path d="M273.66,198.52a3,3,0,0,1-2-.73.22.22,0,0,1,0-.31.21.21,0,0,1,.3,0,2.54,2.54,0,0,0,1.71.63,2.38,2.38,0,0,0,2.47-2.35c0-1.39-1-4.16-2.28-4.16-.92,0-1.89,1.37-2.37,2.73a.22.22,0,0,1-.28.13.21.21,0,0,1-.13-.27c.53-1.51,1.6-3,2.78-3,1.66,0,2.72,3,2.72,4.59A2.82,2.82,0,0,1,273.66,198.52Z"/><path d="M276.05,200.23a1.75,1.75,0,0,1-1.76-1.75v-.3a.22.22,0,0,1,.22-.22.21.21,0,0,1,.21.22v.3a1.33,1.33,0,1,0,1.33-1.32.22.22,0,0,1,0-.44,1.76,1.76,0,0,1,0,3.51Z"/><circle class="cls-7" cx="268.11" cy="435.82" r="13.62"/><circle class="cls-16" cx="268.11" cy="435.82" r="13.09"/><path d="M265.38,441.47a.21.21,0,0,1-.22-.21v-5.37a.22.22,0,0,1,.22-.21.21.21,0,0,1,.21.21v5.37A.21.21,0,0,1,265.38,441.47Z"/><path d="M265.38,437.81a.23.23,0,0,1-.16-.06l-.8-.83a.23.23,0,0,1,0-.31.22.22,0,0,1,.31,0l.43.44v-.59a.2.2,0,0,1,.06-.14l.55-.58a.21.21,0,1,1,.31.29l-.49.52v1a.21.21,0,0,1-.13.2Z"/><path d="M269.27,441.47a.21.21,0,0,1-.21-.21v-5.74l-.66-.54a.22.22,0,0,1,0-.31.23.23,0,0,1,.31,0l.74.61a.21.21,0,0,1,.08.17v5.84A.21.21,0,0,1,269.27,441.47Z"/><path d="M269.27,436h-.07a.22.22,0,0,1-.14-.2v-1.33a.21.21,0,0,1,.21-.22.22.22,0,0,1,.22.22v.73l.27-.33a.22.22,0,0,1,.3,0,.21.21,0,0,1,0,.31l-.65.78A.19.19,0,0,1,269.27,436Z"/><path d="M271.7,441.47a.21.21,0,0,1-.21-.21v-3.82a.21.21,0,0,1,.21-.22.22.22,0,0,1,.22.22v3.82A.21.21,0,0,1,271.7,441.47Z"/><path d="M271.7,438.56a.22.22,0,0,1-.14-.38l.61-.54a.21.21,0,0,1,.28.32l-.6.54A.22.22,0,0,1,271.7,438.56Z"/><path d="M265.22,439.12a2.75,2.75,0,0,1-2.46-3c0-1.68,1.18-5,2.62-5s2.3,3.53,2.3,5A2.75,2.75,0,0,1,265.22,439.12Zm.16-7.55c-1,0-2.19,3-2.19,4.54a2.09,2.09,0,1,0,4.06,0,9.25,9.25,0,0,0-.57-2.9C266.3,432.17,265.82,431.57,265.38,431.57Z"/><path d="M269.31,437.53a3,3,0,0,1-2-.73.22.22,0,0,1,.29-.33,2.56,2.56,0,0,0,1.7.62,2.39,2.39,0,0,0,2.48-2.34c0-1.39-1-4.16-2.29-4.16-.92,0-1.89,1.37-2.37,2.73a.21.21,0,1,1-.4-.15c.53-1.5,1.6-3,2.77-3,1.66,0,2.72,3,2.72,4.59A2.82,2.82,0,0,1,269.31,437.53Z"/><path d="M271.7,439.24a1.75,1.75,0,0,1-1.75-1.75v-.3a.21.21,0,0,1,.21-.22.22.22,0,0,1,.22.22v.3a1.33,1.33,0,1,0,1.32-1.32.22.22,0,0,1,0-.44,1.76,1.76,0,1,1,0,3.51Z"/><circle class="cls-14" cx="196.7" cy="166.95" r="13.09"/><path d="M194,172.61a.22.22,0,0,1-.22-.22V167a.22.22,0,0,1,.44,0v5.36A.22.22,0,0,1,194,172.61Z"/><path d="M194,169a.26.26,0,0,1-.16-.07l-.8-.83a.23.23,0,0,1,0-.31.22.22,0,0,1,.31,0l.43.45v-.59a.2.2,0,0,1,.06-.15l.55-.58a.21.21,0,0,1,.3,0,.22.22,0,0,1,0,.31l-.48.51v1a.22.22,0,0,1-.14.2Z"/><path d="M197.86,172.61a.22.22,0,0,1-.21-.22v-5.74l-.66-.54a.21.21,0,0,1,.27-.33l.74.6a.23.23,0,0,1,.08.17v5.84A.22.22,0,0,1,197.86,172.61Z"/><path d="M197.86,167.13l-.07,0a.22.22,0,0,1-.14-.2v-1.33a.21.21,0,0,1,.21-.21.21.21,0,0,1,.22.21v.73l.27-.33a.22.22,0,0,1,.31,0,.21.21,0,0,1,0,.3l-.65.79A.21.21,0,0,1,197.86,167.13Z"/><path d="M200.29,172.61a.21.21,0,0,1-.21-.22v-3.82a.21.21,0,0,1,.21-.21.21.21,0,0,1,.22.21v3.82A.22.22,0,0,1,200.29,172.61Z"/><path d="M200.29,169.69a.2.2,0,0,1-.16-.07.22.22,0,0,1,0-.31l.61-.54a.21.21,0,0,1,.3,0,.22.22,0,0,1,0,.31l-.6.54A.27.27,0,0,1,200.29,169.69Z"/><path d="M193.81,170.25a2.74,2.74,0,0,1-2.46-3c0-1.69,1.18-5,2.62-5s2.3,3.53,2.3,5A2.74,2.74,0,0,1,193.81,170.25Zm.16-7.55c-1,0-2.19,3-2.19,4.55a2.09,2.09,0,1,0,4.06,0,9.52,9.52,0,0,0-.56-2.91C194.89,163.3,194.41,162.7,194,162.7Z"/><path d="M197.9,168.66a3,3,0,0,1-2-.73.22.22,0,0,1,.29-.33,2.53,2.53,0,0,0,1.7.63,2.39,2.39,0,0,0,2.48-2.35c0-1.39-1-4.16-2.29-4.16-.92,0-1.88,1.38-2.37,2.73a.21.21,0,0,1-.27.13.2.2,0,0,1-.13-.27c.53-1.5,1.6-3,2.77-3,1.66,0,2.72,3,2.72,4.59A2.81,2.81,0,0,1,197.9,168.66Z"/><path d="M200.29,170.38a1.76,1.76,0,0,1-1.75-1.76v-.3a.22.22,0,1,1,.43,0v.3a1.33,1.33,0,1,0,1.32-1.32.21.21,0,0,1-.21-.22.21.21,0,0,1,.21-.21,1.76,1.76,0,1,1,0,3.51Z"/><path class="cls-7" d="M123.11,507.6c0,1.43-1.09,2.26-3.22,2.26h-4v-8.39h3.76c1.93,0,3,.81,3,2.17a2,2,0,0,1-1.12,1.87A2,2,0,0,1,123.11,507.6Zm-6-5.16v2.68h2.46c1.22,0,1.91-.45,1.91-1.34s-.69-1.34-1.91-1.34Zm4.81,5.06c0-1-.72-1.4-2.05-1.4h-2.76v2.79h2.76C121.18,508.89,121.9,508.47,121.9,507.5Z"/><path class="cls-7" d="M129.84,506v3.84h-1.09V509a2.36,2.36,0,0,1-2.09.91c-1.44,0-2.35-.76-2.35-1.87s.66-1.86,2.56-1.86h1.82V506c0-1-.56-1.54-1.7-1.54a3.21,3.21,0,0,0-2,.68l-.48-.86a4.23,4.23,0,0,1,2.63-.81C128.86,503.45,129.84,504.28,129.84,506Zm-1.15,1.9V507h-1.78c-1.13,0-1.46.45-1.46,1s.53,1,1.4,1A1.85,1.85,0,0,0,128.69,507.92Z"/><path class="cls-7" d="M138,506.2v3.66h-1.15v-3.52c0-1.25-.62-1.86-1.71-1.86a1.89,1.89,0,0,0-2,2.11v3.27H132v-6.35h1.1v.95a2.75,2.75,0,0,1,2.29-1A2.46,2.46,0,0,1,138,506.2Zm-4.38-3.71H133c0-.89.48-1.47,1.17-1.47s1.15.82,1.6.82.58-.28.61-.72H137c0,.85-.48,1.43-1.18,1.43s-1.15-.81-1.59-.81S133.66,502,133.63,502.49Z"/><path class="cls-7" d="M139.6,506.68a3.31,3.31,0,1,1,3.31,3.25A3.16,3.16,0,0,1,139.6,506.68Zm5.44,0a2.14,2.14,0,1,0-4.28,0,2.14,2.14,0,1,0,4.28,0Z"/><path class="cls-7" d="M147,509.19l.48-.91a4.13,4.13,0,0,0,2.23.66c1.07,0,1.52-.33,1.52-.87,0-1.42-4-.19-4-2.72,0-1.14,1-1.9,2.65-1.9a4.59,4.59,0,0,1,2.31.57l-.49.91a3.31,3.31,0,0,0-1.83-.5c-1,0-1.5.37-1.5.87,0,1.5,4,.28,4,2.75,0,1.15-1.06,1.88-2.75,1.88A4.59,4.59,0,0,1,147,509.19Z"/><g class="cls-17"><circle class="cls-18" cx="296.27" cy="389.94" r="13.09"/><path class="cls-19" d="M301.34,395.8H290.86a.36.36,0,0,1-.36-.36V384.23a.36.36,0,0,1,.36-.36h10.48a.36.36,0,0,1,.36.36v11.21A.36.36,0,0,1,301.34,395.8Zm-10.41-.44h10.33V384.3H290.93Z"/><path class="cls-19" d="M298.92,393.93h-5.8a.4.4,0,0,1-.4-.4V386a.4.4,0,0,1,.4-.4h5.67a.4.4,0,0,1,.4.4v1.12a.4.4,0,0,1-.4.4H295v1.29h3.42a.4.4,0,0,1,.4.4v1.11a.4.4,0,0,1-.4.41H295V392h4a.4.4,0,0,1,.4.4v1.12A.4.4,0,0,1,298.92,393.93Zm-5.76-.44h5.73v-1.05h-4a.4.4,0,0,1-.4-.4v-1.39a.4.4,0,0,1,.4-.4h3.43V389.2h-3.43a.4.4,0,0,1-.4-.4v-1.35a.4.4,0,0,1,.4-.4h3.85V386h-5.6Zm5.21-4.29h0Z"/></g><g class="cls-17"><circle class="cls-18" cx="717.53" cy="513.77" r="13.09"/><path class="cls-19" d="M722.6,519.63H712.12a.36.36,0,0,1-.36-.36V508.06a.36.36,0,0,1,.36-.36H722.6a.37.37,0,0,1,.36.36v11.21A.36.36,0,0,1,722.6,519.63Zm-10.41-.43h10.33V508.14H712.19Z"/><path class="cls-19" d="M720.18,517.76h-5.8a.4.4,0,0,1-.4-.4V509.8a.4.4,0,0,1,.4-.4h5.67a.4.4,0,0,1,.4.4v1.11a.4.4,0,0,1-.4.4H716.2v1.29h3.43a.4.4,0,0,1,.4.4v1.12a.4.4,0,0,1-.4.4H716.2v1.32h4a.4.4,0,0,1,.4.41v1.11A.4.4,0,0,1,720.18,517.76Zm-5.77-.43h5.74v-1.05h-4a.4.4,0,0,1-.4-.4v-1.39a.4.4,0,0,1,.4-.4h3.43V513h-3.43a.4.4,0,0,1-.4-.4v-1.36a.4.4,0,0,1,.4-.4H720v-1.05h-5.61Zm5.22-4.29Z"/></g><rect class="cls-1" x="251.89" y="490.92" width="162.13" height="31.34" rx="15.67"/><path d="M292.84,502.66H290v-1h7v1H294V510h-1.19Z"/><path d="M303.11,507.22H298a2.17,2.17,0,0,0,2.31,1.86,2.36,2.36,0,0,0,1.83-.77l.64.74a3.46,3.46,0,0,1-5.93-2.21A3.11,3.11,0,0,1,300,503.6a3.07,3.07,0,0,1,3.15,3.27C303.14,507,303.12,507.11,303.11,507.22Zm-5.16-.83H302a2.05,2.05,0,0,0-4.08,0Z"/><path d="M304.15,506.84a3.17,3.17,0,0,1,3.35-3.24,2.85,2.85,0,0,1,2.6,1.35l-.88.57a2,2,0,0,0-1.73-.92,2.24,2.24,0,0,0,0,4.48,2,2,0,0,0,1.73-.91l.88.55a2.86,2.86,0,0,1-2.6,1.37A3.18,3.18,0,0,1,304.15,506.84Z"/><path d="M317.53,506.36V510h-1.15v-3.52c0-1.25-.62-1.86-1.71-1.86a1.89,1.89,0,0,0-2,2.11V510H311.5v-8.9h1.15v3.45a2.75,2.75,0,0,1,2.25-1A2.46,2.46,0,0,1,317.53,506.36Z"/><path d="M319.12,506.84a3.31,3.31,0,1,1,3.31,3.25A3.17,3.17,0,0,1,319.12,506.84Zm5.45,0a2.14,2.14,0,1,0-2.14,2.24A2.09,2.09,0,0,0,324.57,506.84Z"/><circle class="cls-7" cx="267.78" cy="506.32" r="13.58"/><circle class="cls-13" cx="267.78" cy="506.32" r="13.09"/><path d="M273.5,509a.44.44,0,0,1-.27-.09l-5.73-4-5.9,3.93a.47.47,0,0,1-.62-.11l-.85-1.17a.4.4,0,0,1-.08-.35.46.46,0,0,1,.19-.3l7.19-4.75a.47.47,0,0,1,.52,0l6.83,4.87h0a.47.47,0,0,1,.07.68l-1,1.13A.47.47,0,0,1,273.5,509Zm-6-4.67a.43.43,0,0,1,.26.09l5.71,4,.89-1-6.69-4.78-7.05,4.67.74,1,5.88-3.91A.5.5,0,0,1,267.51,504.31Z"/><circle class="cls-20" cx="95.77" cy="434.68" r="13.09"/><path d="M101,440.14H90.55a.36.36,0,0,1-.36-.36v-4.73a.22.22,0,0,1,.21-.22h10.73a.21.21,0,0,1,.21.22v4.73A.36.36,0,0,1,101,440.14Zm-10.36-.43h10.29v-4.45H90.62Z"/><path d="M101.13,435.23H90.4a.21.21,0,0,1-.21-.21v-1.85a.36.36,0,0,1,.36-.36H101a.36.36,0,0,1,.36.36V435A.21.21,0,0,1,101.13,435.23Zm-10.51-.43h10.29v-1.56H90.62Z"/><path d="M94.55,435a.22.22,0,0,1-.22-.22V433a.22.22,0,0,1,.22-.22.21.21,0,0,1,.21.22v1.74A.21.21,0,0,1,94.55,435Z"/><path d="M96.83,435a.22.22,0,0,1-.22-.22V433a.22.22,0,0,1,.22-.22A.21.21,0,0,1,97,433v1.74A.21.21,0,0,1,96.83,435Z"/><path d="M92.26,435a.22.22,0,0,1-.21-.22V433a.22.22,0,1,1,.43,0v1.74A.22.22,0,0,1,92.26,435Z"/><path d="M99.11,435a.22.22,0,0,1-.22-.22V433a.22.22,0,0,1,.22-.22.21.21,0,0,1,.21.22v1.74A.21.21,0,0,1,99.11,435Z"/><path d="M97.68,431.79H93.91a.35.35,0,0,1-.33-.23.34.34,0,0,1,.08-.39l1.88-1.86a.38.38,0,0,1,.51,0l1.88,1.86a.34.34,0,0,1,.08.39A.35.35,0,0,1,97.68,431.79Zm-3.59-.44H97.5l-1.71-1.68Zm1.76-1.73h0Z"/><path d="M95.72,435.17a.22.22,0,0,1-.22-.21v-3.29a.22.22,0,1,1,.44,0V435A.22.22,0,0,1,95.72,435.17Z"/><circle class="cls-7" cx="95.51" cy="506.34" r="13.54"/><circle class="cls-21" cx="95.51" cy="506.34" r="13.09"/><path d="M94.16,508.82H90.53a.35.35,0,0,1-.28-.14.37.37,0,0,1-.06-.32l1.07-3.91a.37.37,0,0,1,.35-.26h1.47a.36.36,0,0,1,.35.26l1.08,3.91a.38.38,0,0,1-.07.32A.34.34,0,0,1,94.16,508.82Zm-.07-.34Zm-3.46-.1h3.43l-1-3.76H91.66Z"/><path d="M92.9,511.64H92a.36.36,0,0,1-.36-.36V508.6a.21.21,0,0,1,.21-.22h1.22a.21.21,0,0,1,.21.22v2.68A.36.36,0,0,1,92.9,511.64Zm-.85-.43h.78v-2.39h-.78Z"/><path d="M92.35,503.84a1.26,1.26,0,1,1,0-2.51,1.26,1.26,0,0,1,0,2.51Zm0-2.08a.82.82,0,1,0,.82.82A.82.82,0,0,0,92.35,501.76Z"/><path d="M98,511.64h-.93a.36.36,0,0,1-.36-.36V508.6a.22.22,0,0,1,.22-.22h1.21a.22.22,0,0,1,.22.22v2.68A.36.36,0,0,1,98,511.64Zm-.85-.43h.78v-2.39h-.78Z"/><path d="M99.07,508.82H96a.36.36,0,0,1-.36-.36v-3.91a.36.36,0,0,1,.36-.36h3a.36.36,0,0,1,.36.36v3.91A.36.36,0,0,1,99.07,508.82Zm-3-.44H99v-3.76H96.09Z"/><path d="M97.55,503.84a1.26,1.26,0,1,1,0-2.51,1.26,1.26,0,0,1,0,2.51Zm0-2.08a.82.82,0,1,0,.82.82A.82.82,0,0,0,97.55,501.76Z"/><circle class="cls-7" cx="264.03" cy="240.36" r="13.54"/><circle class="cls-21" cx="264.03" cy="240.36" r="13.09"/><path d="M262.68,242.84h-3.63a.36.36,0,0,1-.34-.45l1.07-3.91a.36.36,0,0,1,.35-.27h1.47a.35.35,0,0,1,.35.27l1.07,3.91a.35.35,0,0,1-.06.31A.34.34,0,0,1,262.68,242.84Zm-.07-.34Zm-3.46-.09h3.43l-1-3.76h-1.37Z"/><path d="M261.42,245.67h-.92a.36.36,0,0,1-.36-.36v-2.68a.21.21,0,0,1,.21-.22h1.22a.21.21,0,0,1,.21.22v2.68A.36.36,0,0,1,261.42,245.67Zm-.85-.43h.78v-2.4h-.78Z"/><path d="M260.87,237.86a1.26,1.26,0,1,1,1.25-1.25A1.26,1.26,0,0,1,260.87,237.86Zm0-2.07a.82.82,0,0,0,0,1.64.82.82,0,1,0,0-1.64Z"/><path d="M266.53,245.67h-.93a.36.36,0,0,1-.36-.36v-2.68a.22.22,0,0,1,.22-.22h1.21a.22.22,0,0,1,.22.22v2.68A.36.36,0,0,1,266.53,245.67Zm-.86-.43h.79v-2.4h-.79Z"/><path d="M267.59,242.84h-3a.36.36,0,0,1-.36-.36v-3.91a.36.36,0,0,1,.36-.36h3a.36.36,0,0,1,.36.36v3.91A.36.36,0,0,1,267.59,242.84Zm-3-.43h2.91v-3.76h-2.91Z"/><path d="M266.07,237.86a1.26,1.26,0,1,1,1.25-1.25A1.26,1.26,0,0,1,266.07,237.86Zm0-2.07a.82.82,0,0,0,0,1.64.82.82,0,1,0,0-1.64Z"/><circle class="cls-7" cx="264.03" cy="337.44" r="13.54"/><circle class="cls-21" cx="264.03" cy="337.44" r="13.09"/><path d="M262.68,339.92h-3.63a.36.36,0,0,1-.28-.15.35.35,0,0,1-.06-.31l1.07-3.91a.37.37,0,0,1,.35-.26h1.47a.36.36,0,0,1,.35.26l1.07,3.91a.37.37,0,0,1-.34.46Zm-.07-.35Zm-3.46-.09h3.43l-1-3.76h-1.37Z"/><path d="M261.42,342.74h-.92a.36.36,0,0,1-.36-.36V339.7a.21.21,0,0,1,.21-.22h1.22a.21.21,0,0,1,.21.22v2.68A.36.36,0,0,1,261.42,342.74Zm-.85-.43h.78v-2.39h-.78Z"/><path d="M260.87,334.93a1.25,1.25,0,1,1,1.25-1.25A1.26,1.26,0,0,1,260.87,334.93Zm0-2.07a.82.82,0,1,0,.82.82A.82.82,0,0,0,260.87,332.86Z"/><path d="M266.53,342.74h-.93a.36.36,0,0,1-.36-.36V339.7a.22.22,0,0,1,.22-.22h1.21a.22.22,0,0,1,.22.22v2.68A.36.36,0,0,1,266.53,342.74Zm-.86-.43h.79v-2.39h-.79Z"/><path d="M267.59,339.92h-3a.36.36,0,0,1-.36-.36v-3.91a.36.36,0,0,1,.36-.36h3a.36.36,0,0,1,.36.36v3.91A.36.36,0,0,1,267.59,339.92Zm-3-.44h2.91v-3.76h-2.91Z"/><path d="M266.07,334.93a1.25,1.25,0,1,1,1.25-1.25A1.26,1.26,0,0,1,266.07,334.93Zm0-2.07a.82.82,0,1,0,.82.82A.82.82,0,0,0,266.07,332.86Z"/></g></svg>